<svg id="ic_dashboard" xmlns="http://www.w3.org/2000/svg" width="24" height="24" viewBox="0 0 24 24">
  <path id="패스_403" data-name="패스 403" d="M2,0H22a2,2,0,0,1,2,2V22a2,2,0,0,1-2,2H2a2,2,0,0,1-2-2V2A2,2,0,0,1,2,0Z" fill="none"/>
  <path id="합치기_8" data-name="합치기 8" d="M-481-8a.945.945,0,0,1-1-1v-9a.945.945,0,0,1,1-1h2a.945.945,0,0,1,1,1v9a.945.945,0,0,1-1,1Zm-6,0a.944.944,0,0,1-1-1V-23a.945.945,0,0,1,1-1h2a.945.945,0,0,1,1,1V-9a.944.944,0,0,1-1,1Zm-6,0a.945.945,0,0,1-1-1v-4a.945.945,0,0,1,1-1h2a.946.946,0,0,1,1,1v4a.945.945,0,0,1-1,1Z" transform="translate(498 28)" fill="#222532"/>
</svg>
