<svg width="183" height="160" viewBox="0 0 183 160" fill="none" xmlns="http://www.w3.org/2000/svg">
<path d="M106.442 57.5898C106.442 57.5898 117.301 60.4039 119.826 71.6102C119.826 71.6102 119.966 82.6773 130.058 82.1205L133.419 82.3989C133.419 82.3989 128.795 90.2443 132.862 96.2701C132.862 96.2701 118.991 96.0612 116.326 93.3268L111.981 88.7727C111.981 88.7727 114.079 133.121 111.136 144.049C111.136 144.049 120.522 144.745 120.662 149.09C120.662 149.09 123.048 155.394 115.899 156.1H96.9861C96.9861 156.1 92.084 156.518 94.0428 147.27C94.0428 147.27 95.0273 139.425 93.6252 122.61C93.6252 122.61 92.9292 117.569 87.4603 119.946C87.4603 119.946 85.6406 122.183 85.0738 138.44C85.0738 138.44 84.9346 144.556 85.4914 148.762C85.4914 148.762 87.8282 154.271 82.5979 156.518L62.7009 156.896C62.7009 156.896 55.6908 156.15 58.9622 149.607C58.9622 149.607 62.4225 144.098 69.2338 144.655C69.2338 144.655 67.1755 126.25 68.488 108.411C68.488 108.411 62.1342 106.074 56.4365 107.755C56.4365 107.755 57.3712 80.9471 60.6426 73.6585C60.6426 73.6585 64.3814 62.0744 71.2026 58.3356C71.2026 58.3356 76.244 64.8784 89.3296 64.9679C89.3197 64.9779 101.182 64.8486 106.442 57.5898Z" fill="#F0F0F7"/>
<path d="M134.662 59.6482C134.662 59.6482 135.587 67.603 151.049 65.0475C151.049 65.0475 160.525 61.7861 166.422 62.6611L173.392 63.904C173.392 63.904 177.061 65.5348 176.813 60.6923L178.006 35.8733C178.006 35.8733 178.235 33.805 174.337 32.3732C174.337 32.3732 168.888 29.231 160.595 31.7865C160.595 31.7865 145.898 35.744 141.593 33.5167C137.456 31.3788 135.955 32.6615 135.825 34.2028L134.662 59.6482Z" fill="white" stroke="#DADAEA" stroke-width="2" stroke-miterlimit="10" stroke-linecap="round"/>
<path d="M102.833 82.5777C105.156 82.5777 107.039 80.6946 107.039 78.3716C107.039 76.0487 105.156 74.1655 102.833 74.1655C100.51 74.1655 98.6265 76.0487 98.6265 78.3716C98.6265 80.6946 100.51 82.5777 102.833 82.5777Z" fill="#F8F8FC"/>
<path d="M58.594 81.7725L64.401 81.8421V86.7044L57.6792 86.7442L58.594 81.7725Z" fill="#F8F8FC"/>
<path d="M89.1007 59.6381C104 59.6381 116.077 47.1373 116.077 31.7168C116.077 16.2962 104 3.79541 89.1007 3.79541C74.2019 3.79541 62.124 16.2962 62.124 31.7168C62.124 47.1373 74.2019 59.6381 89.1007 59.6381Z" fill="#F0F0F7" stroke="#DADAEA" stroke-width="1.6" stroke-miterlimit="10" stroke-linecap="round"/>
<path d="M109.585 36.0819C109.416 48.9985 100.536 54.9348 89.3297 54.7956C78.1234 54.6564 69.1742 49.2471 69.3532 36.3305C69.5223 23.4139 78.1831 15.0315 89.3993 15.1807C100.616 15.3298 109.764 23.1653 109.585 36.0819Z" fill="#DADAEA" stroke="#DADAEA" stroke-width="1.6" stroke-miterlimit="10" stroke-linecap="round"/>
<path d="M106.552 57.6096C108.63 58.246 117.599 61.6765 120.721 74.7224C122.084 80.42 123.456 81.5337 131.092 82.3888C134.771 82.8065 142.875 83.0352 142.149 89.23C141.354 96.1009 132.793 96.091 124.848 95.6535C121.626 95.4745 115.561 94.7287 112.12 88.514" stroke="#DADAEA" stroke-width="1.6" stroke-miterlimit="10" stroke-linecap="round"/>
<path d="M71.2719 58.3057C67.7917 60.1353 59.5783 66.7179 57.5896 88.5439C57.1521 93.3863 56.7246 103.091 56.5754 107.954C56.4959 110.708 56.3467 117.479 63.0188 117.708C64.739 117.768 67.1354 117.37 68.259 113.234" stroke="#DADAEA" stroke-width="1.6" stroke-miterlimit="10" stroke-linecap="round"/>
<path d="M69.1638 80.3108C69.1638 80.3108 67.0956 132.146 68.8655 144.098" stroke="#DADAEA" stroke-width="1.6" stroke-miterlimit="10" stroke-linecap="round"/>
<path d="M74.9213 147.051C74.9213 147.051 70.1484 142.348 62.8002 145.968C62.8002 145.968 57.1026 148.205 58.6935 153.912C59.5785 157.104 64.1028 156.746 69.3927 156.528C72.7835 156.388 81.8917 156.448 81.8917 156.448C81.8917 156.448 86.9132 156.717 85.4018 147.439C84.3776 141.175 86.2768 123.366 86.2768 123.366C86.2768 123.366 86.6944 118.374 90.6519 119.249C90.6519 119.249 93.5654 119.468 93.7742 124.022C93.7742 124.022 94.9475 140.101 94.1222 146.485C93.804 148.971 92.5114 155.981 97.2445 156.02C101.53 156.06 108.958 155.812 113.244 155.981C115.242 156.06 121.666 156.299 120.95 150.661C120.572 147.648 117.291 144.456 111.006 144.357C109.763 144.337 106.611 145.112 104.463 147.29" stroke="#DADAEA" stroke-width="1.6" stroke-miterlimit="10" stroke-linecap="round"/>
<path d="M111.752 80.957C111.752 80.957 113.791 132.703 111.414 143.909" stroke="#DADAEA" stroke-width="1.6" stroke-miterlimit="10" stroke-linecap="round"/>
<path d="M139.186 32.5323C142.776 34.3221 149.607 35.8037 160.992 31.5578C160.992 31.5578 171.194 28.883 177.101 34.0337C177.668 34.521 177.976 35.3065 177.936 36.1219L176.633 62.2932C176.564 63.6256 175.44 64.5603 174.327 64.1924C170.598 62.9693 162.534 61.1298 153.783 64.252C149.14 65.9126 137.555 66.8871 134.672 60.0161C134.672 60.0161 135.368 43.49 135.736 35.0082C135.815 33.0095 137.595 31.7467 139.186 32.5323Z" stroke="#DADAEA" stroke-width="1.6" stroke-miterlimit="10" stroke-linecap="round"/>
<path d="M129.203 153.455L135.756 33.9641C135.816 32.8604 136.671 32.045 137.615 32.1842C138.451 32.3135 139.057 33.1686 139.007 34.1431L132.673 154.141" fill="#F8F8FC"/>
<path d="M129.203 153.455L135.756 33.9641C135.816 32.8604 136.671 32.045 137.615 32.1842C138.451 32.3135 139.057 33.1686 139.007 34.1431L132.673 154.141" stroke="#DADAEA" stroke-width="1.6" stroke-miterlimit="10" stroke-linecap="round"/>
<path d="M59.2005 81.842H64.401V86.7044H58.1167" stroke="#DADAEA" stroke-width="1.6" stroke-miterlimit="10" stroke-linecap="round"/>
<path d="M102.723 82.2098C104.975 82.2098 106.8 80.3846 106.8 78.133C106.8 75.8814 104.975 74.0562 102.723 74.0562C100.472 74.0562 98.6465 75.8814 98.6465 78.133C98.6465 80.3846 100.472 82.2098 102.723 82.2098Z" stroke="#DADAEA" stroke-width="1.6" stroke-miterlimit="10" stroke-linecap="round"/>
<path d="M98.5172 78.5307C97.0157 79.8831 96.2203 81.0962 96.5882 81.6828C97.155 82.5877 100.307 81.6431 103.628 79.5549C106.949 77.4767 109.177 75.0505 108.6 74.1357C108.232 73.549 106.79 73.738 104.921 74.5036" stroke="#DADAEA" stroke-width="1.6" stroke-miterlimit="10" stroke-linecap="round"/>
<path d="M156.488 55.4321C160.184 55.4321 163.18 52.436 163.18 48.7401C163.18 45.0442 160.184 42.0481 156.488 42.0481C152.792 42.0481 149.796 45.0442 149.796 48.7401C149.796 52.436 152.792 55.4321 156.488 55.4321Z" fill="#DADAEA" stroke="#DADAEA" stroke-width="1.6" stroke-miterlimit="10" stroke-linecap="round"/>
<path d="M149.577 49.3964C147.111 51.6138 145.809 53.6125 146.415 54.5671C147.35 56.0586 152.531 54.4975 157.98 51.0769C163.429 47.6563 167.088 43.669 166.153 42.1775C165.547 41.2129 163.18 41.5212 160.107 42.784" stroke="#DADAEA" stroke-width="1.6" stroke-miterlimit="10" stroke-linecap="round"/>
<path d="M72.1071 53.4633C72.1071 53.4633 68.8357 56.158 72.5645 59.668C72.5645 59.668 83.2538 68.9254 98.6762 63.0786C98.6762 63.0786 110.24 58.8924 106.363 53.0457C106.372 53.0457 89.6773 67.9311 72.1071 53.4633Z" stroke="#DADAEA" stroke-width="1.6" stroke-miterlimit="10" stroke-linecap="round"/>
<path d="M169.255 88.713L166.481 89.6775C166.441 89.6974 166.401 89.7272 166.391 89.7769L165.586 92.6009C165.546 92.7401 165.357 92.7401 165.308 92.6108L164.343 89.8366C164.323 89.7869 164.293 89.7571 164.244 89.7471L161.42 88.9417C161.28 88.9019 161.28 88.713 161.41 88.6633L164.184 87.6988C164.224 87.6789 164.263 87.649 164.273 87.5993L165.079 84.7754C165.119 84.6362 165.308 84.6362 165.357 84.7654L166.322 87.5397C166.342 87.5894 166.372 87.6192 166.421 87.6291L169.245 88.4346C169.384 88.4743 169.384 88.6732 169.255 88.713Z" fill="#DADAEA"/>
<path d="M139.365 11.3426L136.124 12.4761C136.074 12.496 136.034 12.5358 136.014 12.5855L135.069 15.8967C135.02 16.0558 134.801 16.0657 134.741 15.9066L133.608 12.6551C133.588 12.6054 133.548 12.5656 133.498 12.5457L130.197 11.6011C130.038 11.5514 130.028 11.3326 130.187 11.273L133.429 10.1394C133.479 10.1195 133.518 10.0797 133.538 10.0201L134.483 6.70888C134.533 6.54979 134.751 6.53984 134.811 6.69894L135.945 9.95047C135.964 10.0002 136.004 10.04 136.054 10.0598L139.355 11.0045C139.514 11.0641 139.524 11.2928 139.365 11.3426Z" fill="#DADAEA"/>
<path d="M13.3612 51.1961L9.7418 52.4789C9.68214 52.4987 9.64236 52.5485 9.62248 52.6081L8.56846 56.327C8.51875 56.506 8.27016 56.5159 8.2105 56.3369L6.94767 52.6777C6.92779 52.6181 6.87807 52.5683 6.81841 52.5584L3.13931 51.4945C2.96033 51.4447 2.95039 51.1862 3.12937 51.1265L6.7488 49.8438C6.80847 49.8239 6.84824 49.7742 6.86813 49.7146L7.92214 45.9857C7.97185 45.8068 8.22044 45.7968 8.2801 45.9758L9.54293 49.635C9.56281 49.6947 9.61253 49.7444 9.67219 49.7543L13.3513 50.8183C13.5203 50.878 13.5303 51.1265 13.3612 51.1961Z" fill="#DADAEA"/>
<path d="M56.5654 107.616C56.5654 107.616 63.0088 106.373 68.1198 108.471" stroke="#DADAEA" stroke-width="1.6" stroke-miterlimit="10" stroke-linecap="round"/>
<path d="M34.5009 81.9414C35.9626 81.9414 37.1459 83.1446 37.1459 84.6261C37.1459 86.1077 35.9626 87.3109 34.5009 87.3109C33.0392 87.3109 31.856 86.1077 31.856 84.6261C31.856 83.1446 33.0392 81.9414 34.5009 81.9414Z" fill="#DADAEA"/>
<path d="M35.2966 29.3005C36.1617 29.3005 36.8577 30.0065 36.8577 30.8816C36.8577 31.7566 36.1617 32.4626 35.2966 32.4626C34.4315 32.4626 33.7355 31.7566 33.7355 30.8816C33.7255 30.0065 34.4315 29.3005 35.2966 29.3005Z" fill="#DADAEA"/>
<path d="M141.533 154.022L137.535 155.076L138.52 152.978L132.703 154.797L132.066 153.047L127.701 154.42L127.423 153.117L124.529 154.797" fill="#F8F8FC"/>
<path d="M141.533 154.022L137.535 155.076L138.52 152.978L132.703 154.797L132.066 153.047L127.701 154.42L127.423 153.117L124.529 154.797" stroke="#DADAEA" stroke-width="1.6" stroke-miterlimit="10" stroke-linecap="round"/>
<g opacity="0.36">
<path opacity="0.36" d="M99.442 21.6838C99.4321 22.1412 99.2133 22.5986 98.8354 22.8472C98.388 23.1256 97.8113 23.0759 97.2942 22.9764C96.7374 22.8671 96.1706 22.7179 95.7032 22.3898C95.2359 22.0616 94.8779 21.5446 94.8779 20.9679C94.8779 20.4408 95.1961 19.9437 95.6038 19.6155C95.922 19.357 96.3197 19.178 96.7274 19.1581C97.3539 19.1283 97.9107 19.4564 98.4079 19.8542C98.7957 20.1624 99.094 20.5602 99.273 21.0275C99.3823 21.2662 99.4519 21.5048 99.442 21.6838Z" fill="#F8F8FC"/>
</g>
<g opacity="0.36">
<path opacity="0.36" d="M100.874 25.9397C101.003 28.9327 102.564 32.1544 102.962 35.1275C103.37 38.1503 103.628 41.0936 102.694 43.9474C102.674 44.017 99.8399 50.7587 103.817 45.6378C104.235 45.1008 104.941 43.7485 105.567 41.3919C105.915 40.0595 106.363 38.0509 106.293 35.4755C106.243 33.7553 105.995 32.2041 105.587 30.5237C105.329 29.4398 104.861 28.2665 104.374 27.2622C103.847 26.1883 103.28 25.2238 102.077 25.0348C102.077 25.0348 100.824 24.8658 100.874 25.9397Z" fill="#F8F8FC"/>
</g>
<path d="M133.121 82.5381C133.121 82.5381 129.621 89.2201 132.236 95.3354Z" fill="#F8F8FC"/>
<path d="M133.121 82.5381C133.121 82.5381 129.621 89.2201 132.236 95.3354" stroke="#DADAEA" stroke-width="1.6" stroke-miterlimit="10" stroke-linecap="round"/>
</svg>
