<svg width="160" height="192" viewBox="0 0 160 192" fill="none" xmlns="http://www.w3.org/2000/svg">
<path d="M80 177.512C124.183 177.512 160 142.493 160 99.2957C160 56.0982 124.183 21.0796 80 21.0796C35.8172 21.0796 0 56.0982 0 99.2957C0 142.493 35.8172 177.512 80 177.512Z" fill="#3C2C84"/>
<path d="M120.755 183.797C120.755 183.797 131.989 173.247 126.479 167.002C126.479 167.002 121.412 163.773 117.446 165.926C117.446 165.926 115.025 141.376 111.941 136.856L108.484 121.016C108.484 121.016 115.853 132.064 120.476 133.569C120.476 133.569 133.085 140.085 137.489 129.315C137.489 129.315 140.134 123.07 128.018 114.887C128.018 114.887 116.593 108.857 117.83 86.0833C117.83 86.0833 115.516 68.9932 102.961 63.391C102.961 63.391 103.79 60.943 101.807 59.4325C101.807 59.4325 112.817 48.1298 111.941 33.482C111.941 33.482 111.722 10.6566 85.9488 4.19791C85.9488 4.19791 64.4734 -0.403044 52.4985 22.5265C52.4985 22.5265 48.0413 31.5721 50.3498 39.5645L44.1522 81.3145L54.3098 94.1566C54.3098 94.1566 54.008 128.018 52.244 134.477C52.244 134.477 52.025 145.242 40.352 156.012C40.352 156.012 32.4201 167.859 37.931 176.47C37.931 176.47 44.537 192.189 61.0579 186.378C61.0579 186.378 68.4393 183.068 65.7934 175.313L61.3361 172.002C61.3361 172.002 72.7368 167.963 76.6968 151.006C76.6968 151.006 79.8341 132.758 87.2688 137.707C87.2688 137.707 93.2177 143.951 93.2177 160.104C93.2177 160.104 95.6387 190.036 110.396 188.311C110.408 188.317 115.031 188.965 120.755 183.797Z" fill="white"/>
<path d="M80.7929 68.7965C63.2539 68.7965 48.9883 54.0387 48.9883 35.9011C48.9883 17.7636 63.2598 3 80.7929 3C98.326 3 112.598 17.7578 112.598 35.8953C112.598 54.0329 98.332 68.7965 80.7929 68.7965ZM80.7929 4.38897C64.0353 4.38897 50.4089 18.5217 50.4089 35.8953C50.4089 53.269 64.0412 67.4017 80.7929 67.4017C97.5447 67.4017 111.177 53.269 111.177 35.8953C111.177 18.5217 97.5506 4.38897 80.7929 4.38897Z" fill="#3C2C84"/>
<path d="M105.305 39.5411C105.542 54.05 95.8872 61.0007 83.4211 61.1917C70.9609 61.3826 60.8447 55.6068 60.6079 41.0979C60.3711 26.589 69.706 16.9068 82.1721 16.7158C94.6323 16.5248 105.062 25.0322 105.305 39.5411Z" fill="#3C2C84"/>
<path d="M82.7878 61.8924C68.4453 61.8924 60.1167 54.3456 59.8977 41.11C59.7793 33.9105 61.9221 27.6775 66.0953 23.0765C70.1323 18.6261 75.8385 16.1201 82.1604 16.0218C95.9643 15.825 105.785 25.4725 106.015 39.53C106.134 46.5616 103.914 52.3374 99.6106 56.2439C95.6506 59.8321 90.0568 61.7824 83.433 61.8866C83.22 61.8924 83.0009 61.8924 82.7878 61.8924ZM82.5984 17.4049C82.4564 17.4049 82.3202 17.4049 82.1782 17.4107C76.2588 17.5033 70.9255 19.8414 67.1548 24.0025C63.2244 28.3373 61.2 34.2461 61.3124 41.0926C61.5196 53.6454 69.564 60.7291 83.4035 60.5034C89.672 60.405 94.9403 58.582 98.6339 55.2311C102.695 51.5503 104.695 46.2781 104.583 39.5589C104.376 26.4564 95.3546 17.4049 82.5984 17.4049Z" fill="#3C2C84"/>
<path opacity="0.36" d="M73.8971 23.4979C73.8201 23.903 73.9148 24.3602 74.2167 24.6496C74.566 24.9911 75.0987 25.0547 75.5959 25.0663C76.1227 25.0779 76.6673 25.0547 77.1586 24.858C77.6499 24.6612 78.0761 24.2676 78.1945 23.7584C78.3011 23.2896 78.1176 22.7861 77.8038 22.4099C77.5612 22.1205 77.2415 21.8833 76.8745 21.7849C76.3122 21.6344 75.738 21.8138 75.2052 22.0742C74.7909 22.2768 74.4357 22.572 74.1812 22.9423C74.0451 23.1391 73.9267 23.3417 73.8971 23.4979Z" fill="#F8F8FC"/>
<path opacity="0.36" d="M71.7423 26.9948C71.0202 29.6281 68.9602 32.1803 67.9954 34.7441C67.0187 37.3484 66.5629 39.837 66.8352 42.557C66.8411 42.6207 67.4567 50.1905 64.9765 44.5363C64.7279 43.9691 64.4615 42.0188 64.3668 39.7965C64.3135 38.5464 64.3195 36.6713 64.8996 34.4026C65.2902 32.8863 65.8348 31.5553 66.5333 30.1431C66.9891 29.2287 67.6461 28.2796 68.2973 27.4867C68.9898 26.6418 69.7002 25.8952 70.8307 25.9589C70.8307 25.9589 72.0028 26.0573 71.7423 26.9948Z" fill="#F8F8FC"/>
<path d="M62.4016 60.3533C62.4016 60.3533 58.3705 63.2065 62.7449 67.2345C62.7449 67.2345 75.6195 77.808 93.7267 71.0947C93.7267 71.0947 106.945 66.2275 102.393 59.5142C102.393 59.5142 86.6058 74.7002 62.4016 60.3533Z" fill="white"/>
<path d="M81.7403 73.9998C70.0555 73.9998 62.3899 67.8478 62.2893 67.7668C60.6615 66.2737 59.9038 64.7574 60.0045 63.2295C60.1465 61.1171 61.9105 59.8439 61.9874 59.7918L62.3722 59.5198L62.7747 59.7571C75.0218 67.0203 84.9959 66.4357 91.2113 64.6648C97.9534 62.7434 101.866 59.0511 101.902 59.0163L102.517 58.426L102.991 59.1263C104.062 60.7062 104.334 62.3325 103.796 63.953C102.245 68.6523 94.3189 71.6154 93.9815 71.7369C89.5716 73.3806 85.4517 73.9998 81.7403 73.9998ZM62.4847 61.2097C62.0881 61.5975 61.4843 62.3499 61.4251 63.3279C61.36 64.4159 61.9697 65.5561 63.2364 66.7251C63.3311 66.8003 75.9926 76.9224 93.4784 70.4406C93.5553 70.4116 101.102 67.5874 102.446 63.5247C102.772 62.5408 102.695 61.5744 102.215 60.5905C98.8946 63.2585 83.8298 73.6005 62.4847 61.2097Z" fill="#3C2C84"/>
<path d="M66.4213 179.087C66.0365 179.087 65.7228 178.792 65.711 178.415C65.6399 176.187 64.2785 174.283 61.6621 172.75C61.3247 172.553 61.2182 172.124 61.4194 171.795C61.6207 171.465 62.0587 171.361 62.3961 171.557C66.2082 173.791 67.0724 176.5 67.1316 178.375C67.1434 178.757 66.8356 179.081 66.445 179.092C66.4331 179.087 66.4272 179.087 66.4213 179.087Z" fill="#3C2C84"/>
<path d="M55.4525 188.421C48.0711 188.421 42.5898 182.726 42.1577 182.275C32.3315 173.235 35.8713 161.603 39.1151 156.712C40.5002 154.623 42.0748 152.922 43.5901 151.278C47.491 147.059 51.1728 143.071 52.0134 132.747C52.3685 128.383 52.4336 124.297 52.4928 120.35C52.5461 116.936 52.5935 113.712 52.8421 110.807C53.6945 100.818 53.7122 92.733 53.7122 92.652C53.7122 92.27 54.0319 91.9575 54.4225 91.9575C54.8132 91.9575 55.1329 92.27 55.1329 92.652C55.1329 92.733 55.1151 100.876 54.2568 110.923C54.0141 113.776 53.9668 116.976 53.9135 120.368C53.8543 124.338 53.7892 128.447 53.4281 132.857C52.552 143.65 48.5328 148.002 44.6438 152.204C43.1639 153.807 41.6308 155.462 40.3049 157.459C37.2801 162.014 33.983 172.859 43.1462 181.268L43.1935 181.314C43.2113 181.337 45.2712 183.583 48.4973 185.244C52.7474 187.432 56.9324 187.617 60.9397 185.8C62.9523 184.885 65.8055 181.725 65.7048 178.398C65.693 178.016 66.0008 177.691 66.3915 177.68C66.3974 177.68 66.4033 177.68 66.4151 177.68C66.7999 177.68 67.1136 177.975 67.1255 178.351C67.2498 182.321 63.9586 185.956 61.5376 187.055C59.4244 188.039 57.3704 188.421 55.4525 188.421Z" fill="#3C2C84"/>
<path d="M110.272 189C107.259 189 104.329 187.935 101.89 185.921C96.385 181.378 93.1116 165.99 92.4664 159.664L92.2533 157.557C91.1701 146.903 90.809 143.315 88.1275 139.512C87.2041 138.204 86.1445 137.643 84.9725 137.846C82.664 138.245 80.2725 141.445 79.1538 145.635C74.1579 164.363 69.5408 167.541 63.6924 171.563C63.1538 171.933 62.6092 172.309 62.0469 172.709C61.7272 172.934 61.2833 172.865 61.0524 172.558C60.8216 172.246 60.8926 171.812 61.2063 171.586C61.7687 171.187 62.3251 170.805 62.8697 170.428C68.4812 166.568 72.9089 163.524 77.7687 145.282C79.0413 140.508 81.8353 136.972 84.718 136.474C85.9314 136.266 87.7132 136.486 89.2877 138.719C92.1764 142.817 92.5789 146.793 93.6562 157.418L93.8693 159.525C94.7098 167.749 98.2792 181.129 102.796 184.856C104.281 186.077 107.407 188.057 111.675 187.518C116.404 186.928 121.033 183.543 125.431 177.46C126.39 176.135 128.13 171.563 126.556 168.629C125.603 166.852 123.537 165.955 120.453 166.007C119.198 166.024 112.87 166.279 111.497 169.815C111.355 170.174 110.947 170.353 110.58 170.22C110.213 170.081 110.029 169.682 110.165 169.323C111.823 165.052 118.441 164.641 120.429 164.618C124.111 164.601 126.586 165.706 127.811 167.98C129.658 171.418 127.894 176.453 126.591 178.259C121.957 184.671 116.996 188.248 111.858 188.89C111.337 188.971 110.805 189 110.272 189Z" fill="#3C2C84"/>
<path d="M117.564 165.862C117.185 165.862 116.871 165.573 116.854 165.197C116.848 165.035 116.061 148.5 109.52 128.117C107.359 121.375 107.081 112.966 106.631 99.0297L106.554 96.7611C106.542 96.3791 106.85 96.055 107.241 96.0435C107.247 96.0435 107.258 96.0435 107.264 96.0435C107.649 96.0435 107.963 96.3386 107.975 96.7148L108.052 98.9834C108.502 112.798 108.774 121.132 110.881 127.695C117.475 148.263 118.268 164.965 118.274 165.127C118.292 165.509 117.984 165.833 117.594 165.851C117.582 165.862 117.57 165.862 117.564 165.862Z" fill="#3C2C84"/>
<path d="M128.142 136.7C125.147 136.7 120.553 135.571 115.125 130.443C114.971 130.322 110.372 126.589 108.099 121.571C107.939 121.218 108.105 120.813 108.46 120.657C108.821 120.501 109.236 120.663 109.395 121.01C111.526 125.721 116.019 129.373 116.066 129.407C121.382 134.425 125.715 135.392 128.42 135.311C130.912 135.241 133.156 134.286 134.73 132.625C136.506 130.75 137.299 128.916 137.169 127.023C136.903 123.186 132.871 119.957 129.935 117.59C129.314 117.092 128.734 116.623 128.26 116.206C117.475 106.675 117.286 98.4567 117.12 91.2051C117.102 90.5569 117.091 89.9145 117.067 89.2779C116.718 79.3873 112.988 73.0733 109.922 69.5141C106.596 65.6539 103.304 64.1145 103.275 64.0971C102.92 63.9351 102.766 63.5184 102.931 63.1711C103.097 62.8239 103.517 62.6734 103.873 62.8355C104.015 62.8991 107.43 64.4906 110.952 68.5534C114.184 72.2804 118.115 78.8954 118.482 89.22C118.505 89.8566 118.517 90.5048 118.535 91.1646C118.695 98.1326 118.872 106.032 129.207 115.165C129.651 115.558 130.226 116.016 130.829 116.502C133.795 118.88 138.27 122.48 138.584 126.913C138.743 129.182 137.796 131.416 135.772 133.557C133.937 135.496 131.338 136.613 128.462 136.688C128.361 136.7 128.254 136.7 128.142 136.7Z" fill="#3C2C84"/>
<path d="M118.008 132.655C117.967 132.655 117.931 132.649 117.89 132.643C117.505 132.579 117.245 132.221 117.31 131.844C117.973 128.048 120.53 124.292 124.703 120.97C127.823 118.493 130.705 117.139 130.824 117.081C131.179 116.913 131.599 117.063 131.771 117.411C131.942 117.758 131.788 118.169 131.433 118.337C131.321 118.389 120.175 123.678 118.707 132.082C118.648 132.417 118.352 132.655 118.008 132.655Z" fill="#3C2C84"/>
<path d="M56.0442 174.063C54.2448 174.063 52.759 173.693 51.6284 173.253C49.0653 172.258 47.698 170.707 47.6447 170.643C47.3901 170.348 47.4257 169.914 47.7275 169.665C48.0235 169.416 48.4734 169.451 48.7279 169.746C48.9351 169.983 53.641 175.163 62.1826 171.204C62.5378 171.042 62.958 171.187 63.1297 171.534C63.2954 171.881 63.1475 172.292 62.7923 172.46C60.2233 173.647 57.9562 174.063 56.0442 174.063Z" fill="#3C2C84"/>
<path d="M63.0591 90.0076L68.5345 85.5456C70.7424 83.3869 71.4409 81.859 71.4231 79.8335L71.1745 56.4988C71.1745 53.5415 69.452 51.4581 67.3684 50.1096L37.89 30.9187C35.8064 29.5703 32.3495 29.9059 29.5792 31.6364L24.7727 34.9351L24.5537 64.4275L63.0591 90.0076Z" fill="white"/>
<path d="M63.1003 90.8753L23.8491 64.7916L24.0681 34.57L29.1706 31.0629C32.2428 29.1357 35.9779 28.8463 38.2805 30.3337L67.7529 49.5246C69.6353 50.7399 71.8787 52.9391 71.8787 56.4926L72.1273 79.8156C72.151 82.119 71.3105 83.7973 69.0315 86.0255L68.9842 86.066L63.1003 90.8753ZM25.2757 64.0624L63.0175 89.1391L68.0548 85.03C70.2983 82.8308 70.7245 81.4592 70.7126 79.8388L70.464 56.5099C70.464 53.5641 68.5639 51.7238 66.9716 50.6936L37.4991 31.4969C35.6819 30.3221 32.515 30.6288 29.9638 32.2204L25.4829 35.2992L25.2757 64.0624Z" fill="#3C2C84"/>
<path d="M59.6201 89.9781L27.6793 68.9121C25.6016 67.5405 23.9146 64.7857 23.9146 62.7485V36.6128C23.9146 34.5815 25.6016 34.0432 27.6793 35.4148L59.6201 56.4808C62.4377 58.2113 63.3848 60.6072 63.3848 62.6444V88.7859C63.3848 90.8172 61.6978 91.3497 59.6201 89.9781Z" fill="white"/>
<path d="M61.7272 91.4309C60.9636 91.4309 60.0994 91.1357 59.2233 90.557L27.2825 69.491C24.9977 67.9805 23.2041 65.0232 23.2041 62.7545V36.613C23.2041 35.4903 23.6481 34.6395 24.4472 34.2229C25.4061 33.7251 26.7261 33.9508 28.0757 34.8363L60.0165 55.9023C63.5622 58.0841 64.095 61.0588 64.095 62.6388V88.7803C64.095 89.903 63.651 90.7538 62.8519 91.1705C62.5145 91.3441 62.1357 91.4309 61.7272 91.4309ZM60.0165 89.4053C60.8926 89.984 61.7213 90.1866 62.183 89.9493C62.6092 89.7294 62.6684 89.1275 62.6684 88.7861V62.6446C62.6684 61.354 62.2245 58.9117 59.2352 57.0713L27.2766 35.988C26.4006 35.4093 25.5718 35.2067 25.1101 35.444C24.6839 35.6639 24.6247 36.2658 24.6247 36.6072V62.7487C24.6247 64.5428 26.2052 67.1008 28.0757 68.3335L60.0165 89.4053Z" fill="#3C2C84"/>
<path d="M63.053 65.6486C62.9169 65.6486 62.7807 65.6081 62.6564 65.5271L23.5118 39.7155C23.1862 39.5013 23.1033 39.0673 23.3224 38.749C23.5414 38.4307 23.9853 38.3496 24.3109 38.5638L63.4555 64.3754C63.7811 64.5895 63.864 65.0236 63.645 65.3419C63.5088 65.5386 63.2839 65.6486 63.053 65.6486Z" fill="#3C2C84"/>
<path d="M63.053 69.5143C62.9169 69.5143 62.7807 69.4738 62.6564 69.3928L23.5118 43.5812C23.1862 43.367 23.1033 42.933 23.3224 42.6147C23.5414 42.2964 23.9853 42.2154 24.3109 42.4295L63.4555 68.2411C63.7811 68.4553 63.864 68.8893 63.645 69.2076C63.5088 69.4044 63.2839 69.5143 63.053 69.5143Z" fill="#3C2C84"/>
<path d="M39.3579 72.3678C38.1977 72.3678 36.9072 71.9222 35.5754 71.0425C31.6864 68.4787 28.5195 62.7955 28.5195 58.3855C28.5195 56.1342 29.3186 54.4791 30.7748 53.7209C32.302 52.9281 34.285 53.2464 36.3686 54.618C40.2576 57.1818 43.4245 62.8592 43.4245 67.2749C43.4245 69.5262 42.6253 71.1814 41.1692 71.9395C40.6187 72.2231 40.009 72.3678 39.3579 72.3678ZM32.5861 54.6874C32.1659 54.6874 31.7811 54.7742 31.4496 54.9478C30.4788 55.4513 29.9461 56.6725 29.9461 58.3855C29.9461 62.3904 32.8288 67.5527 36.3745 69.8908C37.9727 70.9441 39.4822 71.245 40.5062 70.7126C41.477 70.2091 42.0097 68.988 42.0097 67.2749C42.0097 63.2701 39.127 58.1077 35.5813 55.7696C34.4981 55.052 33.4622 54.6874 32.5861 54.6874Z" fill="#3C2C84"/>
<path d="M54.7957 79.1154C54.1209 79.1154 53.381 78.8608 52.6292 78.3689C50.4746 76.951 48.7935 73.9184 48.7935 71.4761C48.7935 70.1682 49.2788 69.2017 50.1549 68.7445C51.0665 68.2699 52.2326 68.4436 53.4283 69.2306C55.583 70.6485 57.264 73.6811 57.264 76.1234C57.264 77.4313 56.7787 78.3978 55.9026 78.855C55.5652 79.0286 55.1923 79.1154 54.7957 79.1154ZM51.2618 69.8672C51.0961 69.8672 50.9481 69.902 50.8179 69.9656C50.4331 70.1682 50.2141 70.7122 50.2141 71.4703C50.2141 73.438 51.6821 76.0655 53.4283 77.2114C54.1564 77.6917 54.8194 77.8422 55.2396 77.6223C55.6244 77.4197 55.8434 76.8757 55.8434 76.1176C55.8434 74.1499 54.3754 71.5224 52.6292 70.3765C52.1201 70.0409 51.6466 69.8672 51.2618 69.8672Z" fill="#3C2C84"/>
<path d="M42.4241 68.9116C42.1696 68.9116 41.9269 68.7785 41.7967 68.547L34.3738 55.1782C34.1844 54.8426 34.3146 54.4201 34.6579 54.2349C35.0013 54.0497 35.4334 54.177 35.6228 54.5127L43.0456 67.8815C43.2351 68.2172 43.1048 68.6396 42.7615 68.8248C42.655 68.8827 42.5366 68.9116 42.4241 68.9116Z" fill="#3C2C84"/>
<path d="M40.7608 72.1246C40.5063 72.1246 40.2636 71.9915 40.1393 71.76L30.7571 54.9246C30.5677 54.5889 30.6979 54.1664 31.0412 53.9812C31.3846 53.796 31.8167 53.9234 32.0061 54.259L41.3823 71.0945C41.5718 71.4301 41.4415 71.8526 41.0982 72.0378C40.9917 72.1015 40.8733 72.1246 40.7608 72.1246Z" fill="#3C2C84"/>
<path d="M37.4339 71.7602C37.1853 71.7602 36.9426 71.6329 36.8124 71.4014L28.8449 57.3207C28.6555 56.985 28.7798 56.5626 29.1231 56.3774C29.4665 56.1922 29.8986 56.3137 30.088 56.6494L38.0554 70.73C38.2449 71.0657 38.1205 71.4882 37.7772 71.6734C37.6648 71.7312 37.5464 71.7602 37.4339 71.7602Z" fill="#3C2C84"/>
<path d="M56.8854 92.2995C56.8854 92.2995 48.3852 96.9526 45.68 98.1216C31.9945 104.025 26.2586 94.1746 25.0748 89.0991C23.4233 82.0096 26.6671 69.3932 29.2538 61.2446C30.6567 56.8288 36.138 52.8297 40.4355 54.9942C45.3663 57.477 47.2842 61.0015 46.3252 65.6835C45.319 70.6085 43.993 78.7687 43.993 78.7687C43.993 78.7687 43.4248 81.1936 45.3012 82.2469" fill="white"/>
<path d="M37.813 100.65C35.7353 100.65 33.8056 100.216 32.0416 99.3477C27.6258 97.1775 25.187 92.7096 24.382 89.2546C22.6239 81.7252 26.2584 68.3449 28.5788 61.0412C29.4845 58.188 32.0002 55.4853 34.8415 54.3221C36.9369 53.4598 38.985 53.4829 40.7608 54.38C45.9343 56.9843 48.0416 60.8329 47.0235 65.8216C46.0291 70.6772 44.709 78.7968 44.6972 78.8779C44.6735 78.9994 44.271 80.8687 45.6561 81.6442C45.9935 81.8352 46.1119 82.2577 45.9166 82.5933C45.7212 82.9232 45.2891 83.039 44.9458 82.848C42.6432 81.5516 43.2766 78.7332 43.3002 78.6116C43.3062 78.5769 44.6262 70.4283 45.6265 65.5438C46.5204 61.1801 44.715 57.9276 40.1097 55.6069C38.3517 54.7214 36.5699 55.115 35.392 55.5953C32.9177 56.6081 30.7275 58.9578 29.9343 61.4463C27.6554 68.6169 24.086 81.731 25.7671 88.9421C26.4656 91.9457 28.6972 96.1473 32.6809 98.1035C36.1793 99.8223 40.453 99.614 45.3957 97.4842C48.0416 96.3441 56.453 91.7374 56.5418 91.6911C56.8851 91.5059 57.3173 91.6216 57.5067 91.9573C57.6961 92.293 57.5777 92.7154 57.2344 92.9006C56.8851 93.0916 48.675 97.5826 45.9699 98.7516C43.0457 100.019 40.3169 100.65 37.813 100.65Z" fill="#3C2C84"/>
<path d="M37.1024 34.8158L31.8105 10.3989L33.7462 33.4095C33.9238 35.2383 33.8231 37.2696 35.6818 37.2639C36.8598 37.2639 37.4043 36.1469 37.1024 34.8158Z" fill="white"/>
<path d="M35.6816 37.9673C33.3908 37.9673 33.2192 35.7507 33.0949 34.1303C33.0771 33.9103 33.0593 33.6962 33.0416 33.4821L31.106 10.4657L32.5088 10.2632L37.8007 34.6743C38.0257 35.6639 37.8599 36.5899 37.3509 37.2091C36.9484 37.6953 36.3564 37.9673 35.6816 37.9673ZM33.4323 21.2476L34.4504 33.3605C34.4741 33.5747 34.4859 33.8004 34.5037 34.0261C34.6516 35.9706 34.8351 36.5783 35.6757 36.5783C35.9184 36.5783 36.1019 36.5031 36.2321 36.341C36.4689 36.0517 36.534 35.5424 36.4038 34.9694V34.9636L33.4323 21.2476Z" fill="#3C2C84"/>
<path d="M41.5185 72.2394C34.5455 72.2394 27.8862 67.4069 27.5548 67.1581C27.241 66.9266 27.1759 66.4925 27.4127 66.1858C27.6495 65.8791 28.0934 65.8212 28.4071 66.0469C28.4959 66.1164 37.588 72.7082 45.0642 70.318C45.4371 70.2022 45.8396 70.399 45.958 70.7636C46.0823 71.1282 45.8751 71.5218 45.5022 71.6375C44.194 72.06 42.8503 72.2394 41.5185 72.2394Z" fill="#3C2C84"/>
<path d="M98.1549 95.1051C97.7346 95.1051 97.3143 95.0588 96.894 94.9662C93.8752 94.2891 91.981 91.3433 92.6736 88.3918C93.005 86.9623 93.8929 85.747 95.1597 84.9657C96.4323 84.1844 97.9359 83.9355 99.3979 84.2654C102.417 84.9425 104.311 87.8883 103.618 90.8398C103.287 92.2693 102.399 93.4847 101.132 94.266C100.221 94.8158 99.1967 95.1051 98.1549 95.1051ZM98.1371 85.5155C97.3558 85.5155 96.5922 85.7296 95.9174 86.1463C94.9703 86.7308 94.3073 87.6394 94.0587 88.7043C93.5437 90.9093 94.9584 93.1085 97.2137 93.612C98.3028 93.8551 99.4275 93.6699 100.375 93.0853C101.322 92.5008 101.985 91.5922 102.233 90.5273C102.748 88.3223 101.334 86.1231 99.0783 85.6196C98.7646 85.5444 98.4449 85.5155 98.1371 85.5155Z" fill="#3C2C84"/>
<path d="M91.8566 94.8863C91.0397 94.8863 90.4715 94.6433 90.1577 94.1571C89.329 92.8665 91.0279 90.9509 92.6024 89.5677C92.8925 89.3131 93.3423 89.3362 93.6028 89.6198C93.8632 89.9034 93.8396 90.3432 93.5495 90.6037C91.5488 92.363 91.3179 93.2832 91.3594 93.4337C91.7737 93.7983 94.7985 93.1906 98.8473 90.7021C102.896 88.2193 104.773 85.8117 104.607 85.2735C104.5 85.1867 103.553 84.9899 101.055 85.9911C100.694 86.1358 100.28 85.968 100.126 85.615C99.9779 85.2619 100.15 84.8568 100.511 84.7063C102.47 83.9193 104.98 83.2537 105.808 84.5443C106.341 85.3719 105.897 86.5525 104.488 88.0514C103.316 89.3015 101.576 90.6558 99.5932 91.8769C97.6102 93.0922 95.6035 94.0356 93.9461 94.5275C93.1411 94.7648 92.4367 94.8863 91.8566 94.8863Z" fill="#3C2C84"/>
<path d="M31.7749 124.43H24.0442C23.3931 124.43 22.8604 123.909 22.8604 123.273C22.8604 122.636 23.3931 122.115 24.0442 122.115H31.7749C32.426 122.115 32.9588 122.636 32.9588 123.273C32.9588 123.909 32.426 124.43 31.7749 124.43Z" fill="white"/>
<path d="M27.9095 128.209C27.2583 128.209 26.7256 127.689 26.7256 127.052V119.494C26.7256 118.857 27.2583 118.336 27.9095 118.336C28.5606 118.336 29.0933 118.857 29.0933 119.494V127.052C29.0933 127.689 28.5606 128.209 27.9095 128.209Z" fill="white"/>
<path d="M125.644 62.367H121.335C120.944 62.367 120.625 62.0545 120.625 61.6725C120.625 61.2905 120.944 60.978 121.335 60.978H125.644C126.035 60.978 126.354 61.2905 126.354 61.6725C126.354 62.0545 126.035 62.367 125.644 62.367Z" fill="white"/>
<path d="M123.49 64.4728C123.099 64.4728 122.779 64.1602 122.779 63.7783V59.5651C122.779 59.1831 123.099 58.8706 123.49 58.8706C123.88 58.8706 124.2 59.1831 124.2 59.5651V63.7783C124.2 64.1602 123.886 64.4728 123.49 64.4728Z" fill="white"/>
<path d="M147.972 87.6278H141.975C141.484 87.6278 141.087 87.2401 141.087 86.7597C141.087 86.2794 141.484 85.8916 141.975 85.8916H147.972C148.463 85.8916 148.859 86.2794 148.859 86.7597C148.859 87.2401 148.463 87.6278 147.972 87.6278Z" fill="white"/>
<path d="M144.97 90.5571C144.479 90.5571 144.083 90.1693 144.083 89.6889V83.8264C144.083 83.346 144.479 82.9583 144.97 82.9583C145.462 82.9583 145.858 83.346 145.858 83.8264V89.6889C145.858 90.1693 145.462 90.5571 144.97 90.5571Z" fill="white"/>
<path d="M31.4038 13.1473C32.8912 13.1473 34.0971 11.9303 34.0971 10.4291C34.0971 8.92791 32.8912 7.71094 31.4038 7.71094C29.9163 7.71094 28.7104 8.92791 28.7104 10.4291C28.7104 11.9303 29.9163 13.1473 31.4038 13.1473Z" fill="white"/>
<path d="M31.4036 13.8702C29.5272 13.8702 28 12.3289 28 10.4351C28 8.5413 29.5272 7 31.4036 7C33.2801 7 34.8073 8.5413 34.8073 10.4351C34.8073 12.3289 33.286 13.8702 31.4036 13.8702ZM31.4036 8.4278C30.3085 8.4278 29.4206 9.32391 29.4206 10.4291C29.4206 11.5343 30.3085 12.4304 31.4036 12.4304C32.4987 12.4304 33.3866 11.5343 33.3866 10.4291C33.3866 9.32391 32.4987 8.4278 31.4036 8.4278Z" fill="#3C2C84"/>
</svg>
