<svg id="ic_gnb_services" xmlns="http://www.w3.org/2000/svg" width="32" height="32" viewBox="0 0 32 32">
  <rect id="사각형_251" data-name="사각형 251" width="32" height="32" rx="2" fill="none"/>
  <g id="path" transform="translate(6 6)">
    <path id="path-2" data-name="path" d="M4,9H9V4H4V9Zm7.5,15h5V19h-5v5ZM4,24H9V19H4v5Zm0-7.5H9v-5H4v5Zm7.5,0h5v-5h-5v5ZM19,4V9h5V4ZM11.5,9h5V4h-5V9ZM19,16.5h5v-5H19v5ZM19,24h5V19H19v5Z" transform="translate(-4 -4)" fill="#222532" fill-rule="evenodd"/>
  </g>
</svg>
