<svg xmlns="http://www.w3.org/2000/svg" xmlns:xlink="http://www.w3.org/1999/xlink" width="340" height="380" viewBox="0 0 340 380"><defs><linearGradient id="a" y1="1" x2="1" gradientUnits="objectBoundingBox"><stop offset="0" stop-color="#5c6ccd"/><stop offset="1" stop-color="#5753b5"/></linearGradient><linearGradient id="b" x1="0.897" y1="0.14" x2="0.206" y2="0.877" gradientUnits="objectBoundingBox"><stop offset="0" stop-color="#5541b0"/><stop offset="1" stop-color="#5a55aa" stop-opacity="0"/></linearGradient><clipPath id="c"><rect width="340" height="380" fill="url(#a)"/></clipPath><linearGradient id="d" x1="0.5" x2="0.5" y2="1" gradientUnits="objectBoundingBox"><stop offset="0" stop-color="#a7a7ff"/><stop offset="1" stop-color="#fff" stop-opacity="0"/></linearGradient><linearGradient id="f" x1="0.5" x2="0.5" y2="1" gradientUnits="objectBoundingBox"><stop offset="0" stop-color="#54d8ff"/><stop offset="1" stop-color="#fff" stop-opacity="0"/></linearGradient></defs><rect width="340" height="380" fill="url(#b)"/><g clip-path="url(#c)"><g transform="translate(-234.2 90.457)" opacity="0.201"><path d="M330,503.419V408.291s131.5,62.4,236.573,66.315c113.615-3.8,133.288-30.5,221.785-66.315,75.625-29.851,151.043-38.044,223.431-35.934s135.129,34.356,220.636,37.661c150.844-13.314,227.805-80.626,238-108.74V538.8L330,538.9Z" transform="translate(-330 -300.168)" opacity="0.7" fill="url(#d)"/><path d="M313,353.612S443.653,417.5,546.957,418.871,689.94,385.9,769.064,353.7s154.344-37.7,223.6-36.621,136.573,34.834,221.662,36.625,222.746-58.341,238.053-108.46" transform="translate(-311.953 -245.24)" fill="none" stroke="#a3a0fb" stroke-width="2"/><g transform="translate(452.098 103.556)" fill="#fff" stroke="#a4a1fb" stroke-width="2"><circle cx="4.855" cy="4.855" r="4.855" stroke="none"/><circle cx="4.855" cy="4.855" r="3.855" fill="none"/></g><g transform="translate(300.994 162.736)" fill="#fff" stroke="#a4a1fb" stroke-width="2"><circle cx="4.855" cy="4.855" r="4.855" stroke="none"/><circle cx="4.855" cy="4.855" r="3.855" fill="none"/></g></g><g transform="translate(-288.335 204.629)" opacity="0.201"><path d="M330,484.878v-86.4s131.5,56.673,236.573,60.232c113.615-3.45,133.288-27.7,221.785-60.232,75.625-27.113,151.043-34.554,223.431-32.639s135.129,31.2,220.636,34.206c150.844-12.093,227.805-73.231,238-98.766V517.013L330,517.108Z" transform="translate(-330 -300.269)" opacity="0.7" fill="url(#d)"/><path d="M313,343.672S443.653,401.7,546.957,402.946,689.94,373,769.064,343.75s154.344-34.246,223.6-33.263,136.573,31.639,221.662,33.266,222.746-52.99,238.053-98.513" transform="translate(-311.953 -245.24)" fill="none" stroke="#a3a0fb" stroke-width="2"/><g transform="translate(452.098 94.058)" fill="#fff" stroke="#a4a1fb" stroke-width="2"><circle cx="4.855" cy="4.855" r="4.855" stroke="none"/><circle cx="4.855" cy="4.855" r="3.855" fill="none"/></g></g><g transform="translate(-429.755 151.674)" opacity="0.201"><path d="M330,496.978V354.422S458.349,496.152,563.782,501.486c117.637-1.2,118.6-73.578,221.974-113.2C872.3,357.176,938.332,442.04,1010.72,444.11s122.346-58.162,221.1-62.347c127.954,6.3,230.627,86.774,238.595,91.1V531.7L330,531.8Z" transform="translate(-329.719 -354.422)" opacity="0.7" fill="url(#f)"/><path d="M312.953,279.164S445.3,423.507,548.729,424.856s138.8-85.046,221.85-114.173S925.671,366.241,995.008,367.3s135.723-63.622,220.917-61.864,182.6,50.689,236.448,89.287" transform="translate(-312.953 -277.956)" fill="none" stroke="#54d8ff" stroke-width="2"/><g transform="translate(719.102 78.017)" fill="#fff" stroke="#55d8fe" stroke-width="2"><circle cx="4.855" cy="4.855" r="4.855" stroke="none"/><circle cx="4.855" cy="4.855" r="3.855" fill="none"/></g><g transform="translate(451.324 27.292)" fill="#fff" stroke="#55d8fe" stroke-width="2"><circle cx="4.855" cy="4.855" r="4.855" stroke="none"/><circle cx="4.855" cy="4.855" r="3.855" fill="none"/></g></g></g></svg>