<svg width="32" height="32" viewBox="0 0 32 32" fill="none" xmlns="http://www.w3.org/2000/svg">
<rect width="32" height="32" fill="url(#paint0_linear)"/>
<path d="M25.4446 15.4444C25.4446 20.6606 18.0984 26 16.0001 26C13.9012 26 6.55566 20.6606 6.55566 15.4444C6.55566 10.2283 10.784 6 16.0001 6C21.2162 6 25.4446 10.2283 25.4446 15.4444Z" fill="white"/>
<path d="M13.502 14.2471C15.2375 15.9827 15.5886 17.4446 14.7209 18.3124C13.8531 19.1802 12.0947 19.126 10.3592 17.3899C8.62308 15.6544 7.91975 13.5438 8.78808 12.676C9.65641 11.8082 11.7664 12.5116 13.502 14.2471ZM18.4986 14.2471C16.7631 15.9827 16.4131 17.4446 17.2809 18.3124C18.1486 19.1802 19.9059 19.126 21.6414 17.3899C23.3775 15.6538 24.0809 13.5438 23.2125 12.676C22.3447 11.8082 20.2342 12.511 18.4986 14.2471ZM16.0003 23.2221C14.6964 23.2221 14.0142 22.5777 13.9409 22.5038C13.8359 22.4004 13.7764 22.2595 13.7754 22.1122C13.7743 21.9649 13.8319 21.8232 13.9353 21.7182C14.0387 21.6133 14.1796 21.5538 14.3269 21.5528C14.4742 21.5517 14.6159 21.6093 14.7209 21.7127C14.7492 21.7388 15.1686 22.111 16.0003 22.111C16.8442 22.111 17.2631 21.7282 17.2809 21.7116C17.3875 21.6115 17.529 21.5571 17.6753 21.5602C17.8215 21.5632 17.9607 21.6233 18.0631 21.7277C18.1647 21.8314 18.2213 21.971 18.2207 22.1162C18.2201 22.2613 18.1622 22.4004 18.0597 22.5032C17.9864 22.5777 17.3042 23.2221 16.0003 23.2221Z" fill="#A7A9B2"/>
<rect width="32" height="32" fill="url(#paint1_linear)"/>
<path fill-rule="evenodd" clip-rule="evenodd" d="M18.2385 17.8125L22.0956 25.6875H20.8099L18.2385 20.4375V27H16.9528V19.125L14.3813 25.6875H13.0956L15.667 19.125L18.2385 17.8125ZM16.9528 6H15.667V7.3125H16.9528V6ZM14.3813 9.9375H13.0956V11.25H14.3813V9.9375ZM10.5242 7.3125H9.23847V8.625H10.5242V7.3125ZM8.76275 17.8125C8.62928 17.9082 8.53469 18.0505 8.4968 18.2124C8.45891 18.3744 8.48034 18.5449 8.55704 18.6919L9.26418 19.8994C9.43132 20.2012 9.79132 20.3062 10.087 20.1619L11.8742 19.2956L10.3828 16.6706L8.74989 17.7994L8.76275 17.8125ZM18.907 10.7381L11.4499 15.9225L13.0313 18.7312L21.1699 14.7544L18.8942 10.7381H18.907ZM24.3328 12.4181L22.4428 9.11062C22.398 9.03213 22.338 8.96377 22.2665 8.90969C22.195 8.85562 22.1134 8.81697 22.0268 8.79609C21.9402 8.77522 21.8504 8.77256 21.7627 8.78827C21.6751 8.80399 21.5915 8.83775 21.517 8.8875L19.9742 9.97688L22.3399 14.1769L24.0499 13.3369C24.397 13.1662 24.5128 12.7594 24.3328 12.4181Z" fill="white"/>
<defs>
<linearGradient id="paint0_linear" x1="16" y1="0" x2="16" y2="32" gradientUnits="userSpaceOnUse">
<stop stop-color="#C3C6D4"/>
<stop offset="1" stop-color="#E3E2EB"/>
</linearGradient>
<linearGradient id="paint1_linear" x1="8.62278" y1="1.77436" x2="28.7641" y2="35.0352" gradientUnits="userSpaceOnUse">
<stop stop-color="#3E60D8"/>
<stop offset="1" stop-color="#9B69AE"/>
</linearGradient>
</defs>
</svg>
