<svg width="32" height="32" viewBox="0 0 32 32" fill="none" xmlns="http://www.w3.org/2000/svg">
<rect width="32" height="32" fill="url(#paint0_linear)"/>
<path fill-rule="evenodd" clip-rule="evenodd" d="M18.2382 17.8125L22.0954 25.6875H20.8097L18.2382 20.4375V27H16.9525V19.125L14.3811 25.6875H13.0954L15.6668 19.125L18.2382 17.8125ZM16.9525 6H15.6668V7.3125H16.9525V6ZM14.3811 9.9375H13.0954V11.25H14.3811V9.9375ZM10.5239 7.3125H9.23822V8.625H10.5239V7.3125ZM8.76251 17.8125C8.62903 17.9082 8.53445 18.0505 8.49656 18.2124C8.45867 18.3744 8.48009 18.5449 8.55679 18.6919L9.26394 19.8994C9.43108 20.2013 9.79108 20.3062 10.0868 20.1619L11.8739 19.2956L10.3825 16.6706L8.74965 17.7994L8.76251 17.8125ZM18.9068 10.7381L11.4497 15.9225L13.0311 18.7312L21.1697 14.7544L18.8939 10.7381H18.9068ZM24.3325 12.4181L22.4425 9.11062C22.3977 9.03213 22.3377 8.96377 22.2662 8.90969C22.1947 8.85562 22.1132 8.81697 22.0266 8.79609C21.94 8.77522 21.8501 8.77256 21.7625 8.78827C21.6748 8.80399 21.5912 8.83775 21.5168 8.8875L19.9739 9.97688L22.3397 14.1769L24.0497 13.3369C24.3968 13.1662 24.5125 12.7594 24.3325 12.4181Z" fill="white"/>
<defs>
<linearGradient id="paint0_linear" x1="8.62278" y1="1.77436" x2="28.7641" y2="35.0352" gradientUnits="userSpaceOnUse">
<stop stop-color="#3E60D8"/>
<stop offset="1" stop-color="#9B69AE"/>
</linearGradient>
</defs>
</svg>
