<?xml version="1.0" encoding="utf-8"?>
<!-- Generator: Adobe Illustrator 24.0.0, SVG Export Plug-In . SVG Version: 6.00 Build 0)  -->
<svg version="1.1" id="Product_Icon" xmlns="http://www.w3.org/2000/svg" xmlns:xlink="http://www.w3.org/1999/xlink" x="0px"
	 y="0px" viewBox="0 0 75 75" style="enable-background:new 0 0 75 75;" xml:space="preserve">
<style type="text/css">
	.st0{fill:url(#Purple_Gradient_1_);}
	.st1{fill:#FFFFFF;}
</style>
<title>Amazon-VPC</title>
<linearGradient id="Purple_Gradient_1_" gradientUnits="userSpaceOnUse" x1="-658.53" y1="214.4198" x2="-552.47" y2="108.3598" gradientTransform="matrix(6.123234e-17 -1 -1 -6.123234e-17 198.8898 -568)">
	<stop  offset="0" style="stop-color:#4D27A8"/>
	<stop  offset="1" style="stop-color:#A166FF"/>
</linearGradient>
<rect id="Purple_Gradient" y="0" class="st0" width="75" height="75"/>
<g id="Icon_Test">
	<path class="st1" d="M36.4,46.5h-14c-5.5,0-9.7-3.7-9.9-8.7c0-0.2,0-0.5,0-0.7c-0.2-4.3,2.6-8.1,6.8-9.3c0-0.3,0-0.5,0-0.8
		c0.1-7.5,6.4-13.5,13.9-13.4c3.6,0.1,7,1.6,9.5,4.1c1.3,1.3,2.4,2.8,3.1,4.5c1.1-0.9,2.5-1.4,3.9-1.4c2.9,0,6,2.1,6.5,6.7
		c2.5,0.5,4.7,1.8,6.3,3.7l-1.6,1.2c-1.5-1.7-3.6-2.8-5.8-3.2c-0.5-0.1-0.8-0.5-0.8-0.9c-0.2-3.8-2.5-5.5-4.6-5.5
		c-1.3,0-2.6,0.7-3.4,1.7c-0.2,0.3-0.6,0.4-0.9,0.4c-0.4-0.1-0.7-0.3-0.8-0.6c-0.7-1.9-1.8-3.7-3.2-5.2c-4.5-4.6-11.9-4.7-16.5-0.2
		c-2.2,2.1-3.4,5-3.5,8c0,0.5,0,1,0.1,1.4c0,0.5-0.3,0.9-0.8,1.1c-2.3,0.6-6.1,2.3-6.1,7.6c0,0.2,0,0.4,0,0.5c0.2,4,3.6,6.8,8,6.8
		h14L36.4,46.5z"/>
	<path class="st1" d="M50.4,61.3c-11.9,0-12-13.3-12-13.5V35.6c0-0.4,0.3-0.8,0.7-0.9l11-4.1c0.2-0.1,0.5-0.1,0.7,0l11,4.1
		c0.4,0.1,0.7,0.5,0.7,0.9v12.9C62.4,48.7,62.3,61.3,50.4,61.3z M40.4,36.3v11.5c0,0.5,0.1,11.5,10,11.5s10-10.3,10-10.7V36.3
		l-10-3.7L40.4,36.3z"/>
	<path class="st1" d="M50.4,57.5c-6.4,0-7.9-8.1-8-8.4c0-0.1,0-0.1,0-0.2V38.6c0-0.4,0.2-0.8,0.6-0.9l7-2.8c0.2-0.1,0.5-0.1,0.7,0
		l7,2.8c0.4,0.2,0.6,0.5,0.6,0.9v10.4c0,0.1,0,0.1,0,0.2C58.4,49.4,56.8,57.5,50.4,57.5z M44.4,48.8c0.2,0.8,1.6,6.7,6,6.7
		s5.8-5.9,6-6.7v-9.6l-6-2.4l-6,2.4V48.8z"/>
</g>
</svg>
