<?xml version="1.0" encoding="utf-8"?>
<!-- Generator: Adobe Illustrator 24.0.0, SVG Export Plug-In . SVG Version: 6.00 Build 0)  -->
<svg version="1.1" id="Product_Icon" xmlns="http://www.w3.org/2000/svg" xmlns:xlink="http://www.w3.org/1999/xlink" x="0px"
	 y="0px" viewBox="0 0 75 75" style="enable-background:new 0 0 75 75;" xml:space="preserve">
<style type="text/css">
	.st0{fill:url(#Orange_Gradient_1_);}
	.st1{fill:#FFFFFF;}
</style>
<title>Amazon-EC2</title>
<linearGradient id="Orange_Gradient_1_" gradientUnits="userSpaceOnUse" x1="-677.1718" y1="583.3639" x2="-677.1718" y2="433.3639" gradientTransform="matrix(-0.7071 -0.7071 -0.7071 0.7071 -81.8637 -800.8018)">
	<stop  offset="0" style="stop-color:#C8511B"/>
	<stop  offset="1" style="stop-color:#FF9900"/>
</linearGradient>
<rect id="Orange_Gradient" y="0" class="st0" width="75" height="75"/>
<g id="Icon_Test">
	<path class="st1" d="M60.5,40.5h-5v-2h5v-24h-24v5h-2v-5c0-1.1,0.9-2,2-2h24c1.1,0,2,0.9,2,2v24C62.5,39.6,61.6,40.5,60.5,40.5z"/>
	<path class="st1" d="M38.5,62.5h-24c-1.1,0-2-0.9-2-2v-24c0-1.1,0.9-2,2-2h5v2h-5v24h24v-5h2v5C40.5,61.6,39.6,62.5,38.5,62.5z"/>
	<path class="st1" d="M53.5,28.5v-2h-3c-0.1-1.1-0.9-1.9-2-2v-3h-2v3h-3v-3h-2v3h-3v-3h-2v3h-3v-3h-2v3h-3v-3h-2v3
		c-1.1,0.1-1.9,0.9-2,2h-3v2h3v3h-3v2h3v3h-3v2h3v3h-3v2h3v3h-3v2h3c0.1,1.1,0.9,1.9,2,2v3h2v-3h3v3h2v-3h3v3h2v-3h3v3h2v-3h3v3h2
		v-3c1.1-0.1,1.9-0.9,2-2h3v-2h-3v-3h3v-2h-3v-3h3v-2h-3v-3h3v-2h-3v-3H53.5z M48.5,48.3c0,0.1-0.1,0.2-0.2,0.2l0,0H26.7
		c-0.1,0-0.2-0.1-0.2-0.2l0,0V26.7c0-0.1,0.1-0.2,0.2-0.2l0,0h21.6c0.1,0,0.2,0.1,0.2,0.2l0,0V48.3z"/>
</g>
</svg>
