<svg xmlns="http://www.w3.org/2000/svg" width="16" height="16" viewBox="0 0 16 16"><g fill="#a5acce"><path d="M 8 15.5 C 3.864490032196045 15.5 0.5 12.13551044464111 0.5 8 C 0.5 3.864490032196045 3.864490032196045 0.5 8 0.5 C 12.13551044464111 0.5 15.5 3.864490032196045 15.5 8 C 15.5 12.13551044464111 12.13551044464111 15.5 8 15.5 Z" stroke="none"/><path d="M 8 1 C 4.140190124511719 1 1 4.140190124511719 1 8 C 1 11.85980987548828 4.140190124511719 15 8 15 C 11.85980987548828 15 15 11.85980987548828 15 8 C 15 4.140190124511719 11.85980987548828 1 8 1 M 8 0 C 12.41827964782715 0 16 3.581720352172852 16 8 C 16 12.41827964782715 12.41827964782715 16 8 16 C 3.581720352172852 16 0 12.41827964782715 0 8 C 0 3.581720352172852 3.581720352172852 0 8 0 Z" stroke="none" fill="#a5acce"/></g></svg>