<?xml version="1.0" encoding="utf-8"?>
<!-- Generator: Adobe Illustrator 24.0.0, SVG Export Plug-In . SVG Version: 6.00 Build 0)  -->
<svg version="1.1" id="Layer_1" xmlns="http://www.w3.org/2000/svg" xmlns:xlink="http://www.w3.org/1999/xlink" x="0px" y="0px"
	 viewBox="0 0 24 24" style="enable-background:new 0 0 24 24;" xml:space="preserve">
<style type="text/css">
	.st0{fill:#E9F4FF;}
	.st1{fill:#0080FB;}
</style>
<circle class="st0" cx="12" cy="12" r="12"/>
<g>
	<path class="st1" d="M11.7,10.2c-0.9,0-1.6,0.7-1.6,1.5c0,0.8,0.6,1.5,1.5,1.5c0.1,0,0.1,0,0.2,0c0.3,0,0.6-0.1,0.8-0.3
		c0.4-0.3,0.6-0.8,0.6-1.3C13.2,10.9,12.6,10.2,11.7,10.2z"/>
	<path class="st1" d="M5.9,10.2c-0.9,0-1.6,0.7-1.6,1.5c0,0.8,0.6,1.5,1.5,1.5c0.1,0,0.1,0,0.2,0c0.3,0,0.7-0.1,0.9-0.3
		c0.4-0.3,0.6-0.7,0.6-1.2C7.5,10.9,6.8,10.2,5.9,10.2z"/>
	<path class="st1" d="M17.5,10.2c-0.9,0-1.5,0.7-1.5,1.5c0,0.8,0.6,1.5,1.5,1.5c0.1,0,0.2,0,0.2,0c0.3,0,0.6-0.1,0.8-0.3
		c0.3-0.3,0.6-0.7,0.6-1.3C19,10.9,18.4,10.2,17.5,10.2z"/>
</g>
</svg>
