<?xml version="1.0" encoding="utf-8"?>
<!-- Generator: Adobe Illustrator 24.0.0, SVG Export Plug-In . SVG Version: 6.00 Build 0)  -->
<svg version="1.1" id="Layer_1" xmlns="http://www.w3.org/2000/svg" xmlns:xlink="http://www.w3.org/1999/xlink" x="0px" y="0px"
	 viewBox="0 0 24 24" style="enable-background:new 0 0 24 24;" xml:space="preserve">
<style type="text/css">
	.st0{fill:#E9F4FF;}
	.st1{fill:#0080FB;stroke:#0080FB;stroke-width:1.5;stroke-linecap:round;stroke-linejoin:round;}
</style>
<circle class="st0" cx="12" cy="12" r="12"/>
<path class="st1" d="M12.5,11.8c0-0.5-0.4-0.8-0.8-0.8c-0.5,0-0.8,0.4-0.8,0.8c0,0.5,0.4,0.8,0.8,0.8C12.1,12.7,12.5,12.3,12.5,11.8
	z"/>
<path class="st1" d="M6.7,11.8c0-0.5-0.4-0.8-0.8-0.8C5.4,11,5,11.4,5,11.8c0,0.5,0.4,0.8,0.8,0.8C6.3,12.7,6.7,12.3,6.7,11.8z"/>
<path class="st1" d="M18.3,11.8c0-0.5-0.4-0.8-0.8-0.8c-0.5,0-0.8,0.4-0.8,0.8c0,0.5,0.4,0.8,0.8,0.8C18,12.7,18.3,12.3,18.3,11.8z"
	/>
</svg>
