<?xml version="1.0" encoding="utf-8"?>
<!-- Generator: Adobe Illustrator 23.1.1, SVG Export Plug-In . SVG Version: 6.00 Build 0)  -->
<svg version="1.1" id="Layer_1" xmlns="http://www.w3.org/2000/svg" xmlns:xlink="http://www.w3.org/1999/xlink" x="0px" y="0px"
	 viewBox="0 0 56 56" style="enable-background:new 0 0 56 56;" xml:space="preserve">
<style type="text/css">
	.st0{fill:none;}
	.st1{fill:#FFFFFF;}
	.st2{enable-background:new    ;}
	.st3{fill:#5541B0;}
</style>
<rect class="st0" width="56" height="56"/>
<path class="st1" d="M28,8c11,0,20,9,20,20s-9,20-20,20S8,39,8,28S17,8,28,8z"/>
<g class="st2">
	<path class="st3" d="M13.8,33V23h3l1.8,6.8l1.8-6.8h3v10h-1.9v-7.9l-2,7.9h-1.9l-2-7.9V33H13.8z"/>
	<path class="st3" d="M24.7,33v-1.8l5.3-6.5h-4.7V23h7.3v1.6l-5.5,6.8h5.7V33H24.7z"/>
	<path class="st3" d="M40.5,29.3l2,0.6c-0.3,1.1-0.8,1.9-1.5,2.4c-0.7,0.5-1.6,0.8-2.7,0.8c-1.3,0-2.4-0.5-3.3-1.4
		c-0.9-0.9-1.3-2.2-1.3-3.7c0-1.7,0.4-3,1.3-3.9c0.9-0.9,2-1.4,3.4-1.4c1.2,0,2.2,0.4,3,1.1c0.5,0.4,0.8,1,1,1.8l-2,0.5
		c-0.1-0.5-0.4-0.9-0.7-1.2s-0.8-0.5-1.4-0.5c-0.7,0-1.3,0.3-1.8,0.8c-0.5,0.5-0.7,1.4-0.7,2.6c0,1.3,0.2,2.2,0.7,2.7
		c0.5,0.5,1,0.8,1.8,0.8c0.5,0,1-0.2,1.4-0.5C40,30.6,40.3,30,40.5,29.3z"/>
</g>
</svg>
