<?xml version="1.0" encoding="utf-8"?>
<!-- Generator: Adobe Illustrator 24.0.0, SVG Export Plug-In . SVG Version: 6.00 Build 0)  -->
<svg version="1.1" id="Layer_1" xmlns="http://www.w3.org/2000/svg" xmlns:xlink="http://www.w3.org/1999/xlink" x="0px" y="0px"
	 viewBox="0 0 56 56" style="enable-background:new 0 0 56 56;" xml:space="preserve">
<style type="text/css">
	.st0{fill:#FFFFFF;}
	.st1{fill:#6638B6;}
</style>
<rect y="0" class="st0" width="56" height="56"/>
<path class="st0" d="M28,8c11,0,20,9,20,20s-9,20-20,20S8,39,8,28S17,8,28,8z"/>
<g transform="translate(203.586 -719.342)">
	<path class="st1" d="M-175.6,730.3c-9.4,0-17,7.6-17,17v0c0,9.4,7.6,17,17,17c0,0,0,0,0,0c9.4,0,17-7.6,17-17c0,0,0,0,0,0
		C-158.6,738-166.2,730.4-175.6,730.3z M-169.7,735.8c0.3,0,0.6,0.3,0.6,0.6c0,0.3-0.3,0.6-0.6,0.6c-0.3,0-0.6-0.3-0.6-0.6l0,0
		C-170.3,736.1-170,735.8-169.7,735.8C-169.7,735.8-169.7,735.8-169.7,735.8L-169.7,735.8z M-171.4,733.2c0.2,0,0.4,0.2,0.4,0.4
		c0,0,0,0,0,0c0,0.2-0.2,0.4-0.4,0.4l0,0c-0.2,0-0.4-0.2-0.4-0.4C-171.8,733.4-171.6,733.2-171.4,733.2L-171.4,733.2z M-177.4,733.5
		c0.4,0,0.8,0.4,0.8,0.8c0,0,0,0,0,0c0,0.4-0.4,0.8-0.8,0.8c0,0,0,0,0,0c-0.4,0-0.8-0.4-0.8-0.8
		C-178.2,733.8-177.9,733.5-177.4,733.5L-177.4,733.5z M-187.5,746.9l-0.8,0.3c0,0,0,0,0,0l-0.2,0.9c0,0,0,0-0.1,0c0,0,0,0,0,0
		l-0.3-0.8c0,0,0,0,0,0l-0.9-0.2c0,0,0,0,0-0.1c0,0,0,0,0,0l0.8-0.3c0,0,0,0,0,0l0.2-0.9c0,0,0,0,0.1,0c0,0,0,0,0,0l0.3,0.8
		c0,0,0,0,0,0L-187.5,746.9C-187.4,746.8-187.4,746.9-187.5,746.9C-187.4,746.9-187.5,746.9-187.5,746.9L-187.5,746.9z
		 M-186.9,738.3c0-0.3,0.3-0.6,0.6-0.6h0c0.3,0,0.6,0.3,0.6,0.6c0,0.3-0.3,0.6-0.6,0.6C-186.7,738.9-186.9,738.6-186.9,738.3
		C-186.9,738.3-186.9,738.3-186.9,738.3L-186.9,738.3z M-185.9,741.8c-0.2,0-0.4-0.2-0.4-0.4c0-0.2,0.2-0.4,0.4-0.4h0
		c0.2,0,0.4,0.2,0.4,0.4l0,0C-185.5,741.6-185.6,741.8-185.9,741.8L-185.9,741.8z M-175.6,763c-3.3,0-6.6-1.1-9.3-3.1
		c0.8-1.1,1.8-2,2.9-2.7c0.1,0,0.1,0.1,0.2,0.1c1.9,1.1,4,1.6,6.1,1.7c2.2,0,4.3-0.6,6.2-1.7c0.1,0,0.1-0.1,0.2-0.1
		c1.1,0.7,2.1,1.6,2.9,2.7C-169,761.9-172.3,763-175.6,763L-175.6,763z M-175.6,757c-5.3,0-9.7-4.3-9.7-9.7l0,0
		c0-5.3,4.3-9.7,9.7-9.7c0,0,0,0,0,0c5.3,0,9.7,4.3,9.7,9.7C-165.9,752.7-170.2,757-175.6,757L-175.6,757z M-163.9,752.3
		c-0.3,0-0.5-0.2-0.5-0.5c0,0,0,0,0,0c0-0.3,0.2-0.5,0.5-0.5c0,0,0,0,0,0c0.3,0,0.5,0.2,0.5,0.5l0,0
		C-163.3,752.1-163.6,752.3-163.9,752.3C-163.9,752.3-163.9,752.3-163.9,752.3L-163.9,752.3z M-162.4,741.5l-1,0.4c0,0,0,0,0,0
		l-0.3,1.1c0,0,0,0-0.1,0c0,0,0,0,0,0l-0.4-1c0,0,0,0,0,0l-1.1-0.3c0,0,0,0,0-0.1c0,0,0,0,0,0l1-0.4c0,0,0,0,0,0l0.3-1.1
		c0,0,0,0,0.1,0c0,0,0,0,0,0l0.4,1c0,0,0,0,0,0L-162.4,741.5C-162.4,741.4-162.4,741.5-162.4,741.5
		C-162.4,741.5-162.4,741.5-162.4,741.5L-162.4,741.5z M-160.5,745l-0.7,0.2c0,0,0,0,0,0l-0.2,0.7c0,0,0,0,0,0c0,0,0,0,0,0l-0.2-0.7
		c0,0,0,0,0,0l-0.7-0.2c0,0,0,0,0,0c0,0,0,0,0,0l0.7-0.2c0,0,0,0,0,0l0.2-0.7c0,0,0,0,0,0c0,0,0,0,0,0l0.2,0.7c0,0,0,0,0,0
		L-160.5,745C-160.5,745-160.5,745-160.5,745C-160.5,745-160.5,745-160.5,745L-160.5,745z"/>
	<path class="st1" d="M-175.6,741.4c-0.1,0-0.3,0-0.4,0l0,0c-0.5,0.1-1,0-1.4-0.1c-0.6-0.3-0.9-0.4-1.1-0.5c-0.2-0.1-0.4-0.1-0.7,0
		c-0.2,0.1-0.2,0.4,0,0.7c0.1,0.1,0.2,0.3,0.2,0.4c-0.1,0.1-0.7-0.3-1.5-0.4c-0.2-0.1-0.5,0-0.7,0.2c-0.1,0.2,0,0.5,0.2,0.7
		c0.2,0.3,0.6,0.9,0.2,1.3l0,0c-1.2,1.3-1.9,3-1.9,4.8c0,3.9,3.2,7.1,7.1,7.1s7.1-3.2,7.1-7.1C-168.5,744.6-171.7,741.4-175.6,741.4
		z M-178.8,749.1c-0.1,0.5-0.5,0.9-1,0.8c-0.5-0.1-0.9-0.5-0.8-1c0,0,0,0,0,0c0.1-0.5,0.5-0.9,1-0.8
		C-179.2,748.1-178.8,748.5-178.8,749.1C-178.8,749.1-178.8,749.1-178.8,749.1z M-171.6,747.8c-0.6,0.3-1.4,0-1.7-0.7
		c-0.3-0.6,0-1.4,0.7-1.7c0.6-0.3,1.4,0,1.7,0.7c0,0,0,0,0,0C-170.6,746.8-170.9,747.5-171.6,747.8L-171.6,747.8z"/>
</g>
</svg>
