<?xml version="1.0" encoding="utf-8"?>
<!-- Generator: Adobe Illustrator 24.0.0, SVG Export Plug-In . SVG Version: 6.00 Build 0)  -->
<svg version="1.1" id="Layer_1" xmlns="http://www.w3.org/2000/svg" xmlns:xlink="http://www.w3.org/1999/xlink" x="0px" y="0px"
	 viewBox="0 0 16 16" style="enable-background:new 0 0 16 16;" xml:space="preserve">
<style type="text/css">
	.st0{fill:#A5ACCE;}
	.st1{fill:#FFFFFF;}
</style>
<g transform="translate(5 13) rotate(-90)">
	<g transform="translate(13 -5) rotate(90)">
		<path class="st0" d="M8,15.5c-4.1,0-7.5-3.4-7.5-7.5S3.9,0.5,8,0.5s7.5,3.4,7.5,7.5S12.1,15.5,8,15.5z"/>
		<path class="st0" d="M8,1C4.1,1,1,4.1,1,8s3.1,7,7,7s7-3.1,7-7S11.9,1,8,1 M8,0c4.4,0,8,3.6,8,8s-3.6,8-8,8s-8-3.6-8-8S3.6,0,8,0z
			"/>
	</g>
	<path class="st1" d="M5,6L1,2l1-1l3,2.9L8,1l1,1L5,6z"/>
</g>
</svg>
