<?xml version="1.0" encoding="utf-8"?>
<!-- Generator: Adobe Illustrator 24.0.0, SVG Export Plug-In . SVG Version: 6.00 Build 0)  -->
<svg version="1.1" id="Layer_1" xmlns="http://www.w3.org/2000/svg" xmlns:xlink="http://www.w3.org/1999/xlink" x="0px" y="0px"
	 viewBox="0 0 24 24" style="enable-background:new 0 0 24 24;" xml:space="preserve">
<style type="text/css">
	.st0{fill:none;}
	.st1{fill:#707070;}
</style>
<g transform="translate(32 -169) rotate(90)">
	<g>
		<rect x="169" y="8" transform="matrix(2.535182e-06 1 -1 2.535182e-06 200.999 -160.9985)" class="st0" width="24" height="24"/>
	</g>
	<g>
		<path class="st1" d="M189.5,18.6v2.7l-2.4,0.8c-0.1,0.2-0.1,0.5-0.2,0.7l1.1,2.2l-1.9,1.9l-2.2-1.2c-0.1,0-0.2,0.1-0.3,0.1
			c-0.1,0.1-0.2,0.1-0.4,0.1l-0.8,2.4h-2.7l-0.8-2.4c-0.2-0.1-0.4-0.1-0.6-0.2L176,27l-2-2l1.1-2.2c-0.1-0.2-0.2-0.4-0.2-0.6
			l-2.4-0.8v-2.7l2.5-0.8c0.1-0.2,0.1-0.5,0.2-0.7l-1.1-2.2L176,13l2.2,1.1c0.2-0.1,0.4-0.2,0.6-0.2l0.8-2.4h2.7l0.8,2.4
			c0.2,0.1,0.5,0.1,0.7,0.2l2.2-1.1l1.9,1.9l-1.2,2.2c0,0.1,0.1,0.2,0.1,0.3c0,0.1,0.1,0.2,0.1,0.4L189.5,18.6z M188.5,20.6v-1.3
			l-2.2-0.8l-0.1-0.3c0-0.2-0.1-0.3-0.2-0.5c-0.1-0.2-0.2-0.4-0.2-0.6l0-0.2l1-1.9l-0.9-0.9l-2,1.1l-0.2-0.2
			c-0.2-0.2-0.6-0.2-0.9-0.3l-0.3-0.1l-0.8-2.2h-1.3l-0.8,2.2l-0.4,0.1c-0.2,0.1-0.5,0.2-0.7,0.3l-0.2,0.2l-2-1.1l-0.9,0.9l1.1,2
			l-0.2,0.2c-0.2,0.2-0.2,0.6-0.3,0.9l-0.1,0.3l-2.3,0.8v1.3l2.2,0.8l0.1,0.4c0.1,0.2,0.2,0.5,0.3,0.7l0.2,0.2l-1.1,2l1,1l2-1.1
			l0.2,0.2c0.2,0.1,0.5,0.2,0.7,0.3l0.4,0.1l0.8,2.2h1.3l0.8-2.2l0.3-0.1c0.2,0,0.3-0.1,0.5-0.2c0.2-0.1,0.4-0.2,0.6-0.2l0.2,0
			l1.9,1l0.9-0.9l-1.1-2l0.2-0.2c0.2-0.2,0.2-0.6,0.3-0.9l0.1-0.3l0.3-0.1L188.5,20.6z M184.5,19.9V20c0,1.9-1.6,3.5-3.4,3.5H181
			c-1.9,0-3.5-1.6-3.5-3.4V20c0-1.9,1.6-3.5,3.4-3.5h0.1C182.9,16.5,184.5,18.1,184.5,19.9z M178.5,20.1c0,1.3,1.1,2.4,2.5,2.4h0.1
			c1.3,0,2.4-1.1,2.4-2.5v-0.1c0-1.3-1.1-2.4-2.5-2.4h-0.1c-1.3,0-2.4,1.1-2.4,2.5V20.1z"/>
	</g>
</g>
</svg>
