<svg width="32" height="32" viewBox="0 0 32 32" fill="none" xmlns="http://www.w3.org/2000/svg">
<path fill-rule="evenodd" clip-rule="evenodd" d="M6 6V13H13V6H6ZM5 4C4.44772 4 4 4.44771 4 5V14C4 14.5523 4.44771 15 5 15H14C14.5523 15 15 14.5523 15 14V5C15 4.44772 14.5523 4 14 4H5Z" fill="#232533"/>
<path fill-rule="evenodd" clip-rule="evenodd" d="M6 19V26H13V19H6ZM5 17C4.44772 17 4 17.4477 4 18V27C4 27.5523 4.44771 28 5 28H14C14.5523 28 15 27.5523 15 27V18C15 17.4477 14.5523 17 14 17H5Z" fill="#232533"/>
<path fill-rule="evenodd" clip-rule="evenodd" d="M19 6V13H26V6H19ZM18 4C17.4477 4 17 4.44771 17 5V14C17 14.5523 17.4477 15 18 15H27C27.5523 15 28 14.5523 28 14V5C28 4.44772 27.5523 4 27 4H18Z" fill="#232533"/>
<path d="M21.5 18C21.5 17.4477 21.9477 17 22.5 17C23.0523 17 23.5 17.4477 23.5 18V27C23.5 27.5523 23.0523 28 22.5 28C21.9477 28 21.5 27.5523 21.5 27V18Z" fill="#232533"/>
<path d="M27 21.5C27.5523 21.5 28 21.9477 28 22.5C28 23.0523 27.5523 23.5 27 23.5H18C17.4477 23.5 17 23.0523 17 22.5C17 21.9477 17.4477 21.5 18 21.5H27Z" fill="#232533"/>
</svg>
