<?xml version="1.0" encoding="utf-8"?>
<!-- Generator: Adobe Illustrator 24.0.0, SVG Export Plug-In . SVG Version: 6.00 Build 0)  -->
<svg version="1.1" id="Layer_1" xmlns="http://www.w3.org/2000/svg" xmlns:xlink="http://www.w3.org/1999/xlink" x="0px" y="0px"
	 viewBox="0 0 16 16" style="enable-background:new 0 0 16 16;" xml:space="preserve">
<style type="text/css">
	.st0{fill:#3C2C84;}
</style>
<path class="st0" d="M12.4,6.5H9.9V2.3c0-0.4-0.3-0.7-0.6-0.7H6.7C6.3,1.6,6,1.9,6,2.3v4.2H3.5c-0.3,0-0.5,0.2-0.2,0.5l4.2,4.2
	c0.1,0.1,0.3,0.2,0.5,0.2c0.2,0,0.4-0.1,0.5-0.2l4.2-4.2C12.9,6.7,12.8,6.5,12.4,6.5z M0.9,9.4v4.5c0,0.2,0.1,0.3,0.3,0.3h13.4
	c0.2,0,0.3-0.1,0.3-0.3V9.4c0-0.2-0.2-0.3-0.3-0.3h-1.3c-0.2,0-0.3,0.2-0.3,0.3v2.9H2.8V9.4c0-0.2-0.1-0.3-0.3-0.3H1.2
	C1,9.1,0.9,9.3,0.9,9.4z"/>
</svg>
