<svg width="14" height="14" viewBox="0 0 14 14" fill="none" xmlns="http://www.w3.org/2000/svg">
<path fill-rule="evenodd" clip-rule="evenodd" d="M6.9986 1.53984C3.98273 1.53984 1.53789 3.98469 1.53789 7.00055C1.53789 10.0164 3.98273 12.4613 6.9986 12.4613C10.0145 12.4613 12.4593 10.0164 12.4593 7.00055C12.4593 3.98469 10.0145 1.53984 6.9986 1.53984ZM0.337891 7.00055C0.337891 3.32194 3.31999 0.339844 6.9986 0.339844C10.6772 0.339844 13.6593 3.32194 13.6593 7.00055C13.6593 10.6792 10.6772 13.6613 6.9986 13.6613C3.31999 13.6613 0.337891 10.6792 0.337891 7.00055Z" fill="#CED0D6"/>
<path fill-rule="evenodd" clip-rule="evenodd" d="M7.00035 3.87631C7.38695 3.87631 7.70035 4.18971 7.70035 4.57631V7.00059C7.70035 7.38719 7.38695 7.70059 7.00035 7.70059C6.61375 7.70059 6.30035 7.38719 6.30035 7.00059V4.57631C6.30035 4.18971 6.61375 3.87631 7.00035 3.87631Z" fill="#CED0D6"/>
<path fill-rule="evenodd" clip-rule="evenodd" d="M6.30035 9.42447C6.30035 9.03788 6.61375 8.72447 7.00035 8.72447H7.00868C7.39528 8.72447 7.70868 9.03788 7.70868 9.42447C7.70868 9.81107 7.39528 10.1245 7.00868 10.1245H7.00035C6.61375 10.1245 6.30035 9.81107 6.30035 9.42447Z" fill="#CED0D6"/>
</svg>
