<?xml version="1.0" encoding="utf-8"?>
<!-- Generator: Adobe Illustrator 24.0.0, SVG Export Plug-In . SVG Version: 6.00 Build 0)  -->
<svg version="1.1" id="Layer_1" xmlns="http://www.w3.org/2000/svg" xmlns:xlink="http://www.w3.org/1999/xlink" x="0px" y="0px"
	 viewBox="0 0 24 24" style="enable-background:new 0 0 24 24;" xml:space="preserve">
<style type="text/css">
	.st0{fill-rule:evenodd;clip-rule:evenodd;fill:#3C2C84;}
</style>
<g>
	<path class="st0" d="M6.4,14.6c-1,0.3-2,0.9-2.7,1.8c-0.7,0.9-1.2,2-1.2,3.5c0,0.2,0.1,0.5,0.3,0.6c0.2,0.2,0.4,0.3,0.6,0.3h8.5
		v-1.8H4.4c0.1-0.6,0.4-1,0.7-1.4c0.5-0.5,1.1-0.9,1.9-1.2c1.6-0.6,3.6-0.6,4.9-0.6v-1.8h0C10.6,13.9,8.3,13.9,6.4,14.6z"/>
	<path class="st0" d="M23,17.9v-1.2l-1.4-0.5c-0.1-0.2-0.1-0.4-0.2-0.6l0.7-1.3l-0.9-0.9L19.8,14c-0.2-0.1-0.4-0.2-0.7-0.2l-0.5-1.5
		h-1.2l-0.5,1.4c-0.2,0.1-0.4,0.1-0.6,0.2l-1.3-0.7L14,14.2l0.7,1.3c-0.1,0.2-0.2,0.4-0.2,0.6L13,16.6v1.2l1.4,0.5
		c0.1,0.2,0.2,0.4,0.2,0.7L14,20.4l0.9,0.9l1.3-0.7c0.2,0.1,0.4,0.2,0.7,0.2l0.5,1.4h1.2l0.5-1.4c0.2-0.1,0.4-0.2,0.7-0.2l1.3,0.7
		l0.9-0.9l-0.7-1.3c0.1-0.2,0.2-0.4,0.2-0.7L23,17.9z M19.7,18c-0.1,0.2-0.2,0.4-0.4,0.6c-0.2,0.2-0.4,0.3-0.6,0.4
		c-0.2,0.1-0.5,0.1-0.7,0.1c-0.2,0-0.5,0-0.7-0.1c-0.2-0.1-0.4-0.2-0.6-0.4c-0.2-0.2-0.3-0.4-0.4-0.6c-0.1-0.2-0.1-0.5-0.1-0.7
		c0-0.2,0-0.5,0.1-0.7c0.1-0.2,0.2-0.4,0.4-0.6c0.2-0.2,0.4-0.3,0.6-0.4c0.2-0.1,0.5-0.1,0.7-0.1c0.2,0,0.5,0,0.7,0.1
		c0.2,0.1,0.4,0.2,0.6,0.4c0.2,0.2,0.3,0.4,0.4,0.6c0.1,0.2,0.1,0.5,0.1,0.7C19.9,17.5,19.8,17.8,19.7,18z"/>
	<path class="st0" d="M6.8,8c0,0.1,0,0.1,0,0.2c0,2.5,1.9,4.5,4.3,4.5c2.4,0,4.3-2,4.3-4.5c0-0.1,0-0.2,0-0.2C16.4,7.5,17,7,17,6.6
		c0-0.5-1-1.2-2.5-1.4c-0.3,0.7-1.6,1.5-3.5,1.5c-1.9,0-3.2-0.8-3.5-1.5C6,5.3,5,6.1,5,6.6C5,7.1,5.7,7.6,6.8,8z M13.6,8.4
		c-0.1,1.4-1.3,2.4-2.5,2.4c-1.2,0-2.3-1-2.5-2.4c0.7,0.1,1.6,0.2,2.4,0.2C11.9,8.7,12.8,8.6,13.6,8.4z"/>
	<path class="st0" d="M12,6.1c0.9-0.1,1.6-0.6,2.1-1l0-1.9c-0.1-0.4-0.6-1.5-1.5-1.5C12.2,1.7,11.4,2,11,2c-0.4,0-1.2-0.3-1.6-0.3
		C8.5,1.7,8,2.8,7.9,3.2l0,1.9c0.4,0.4,1.3,1,2.2,1C10.7,6.2,11.4,6.2,12,6.1z"/>
</g>
</svg>
