<svg width="24" height="24" viewBox="0 0 24 24" fill="none" xmlns="http://www.w3.org/2000/svg">
<path fill-rule="evenodd" clip-rule="evenodd" d="M23 12C23 18.0751 18.0751 23 12 23C5.92487 23 1 18.0751 1 12C1 5.92487 5.92487 1 12 1C18.0751 1 23 5.92487 23 12ZM10.3232 15.3896C10.3232 14.4221 11.0741 13.6377 12.0003 13.6377C12.9265 13.6377 13.6774 14.4221 13.6774 15.3896C13.6774 16.3572 12.9265 17.1416 12.0003 17.1416C11.0741 17.1416 10.3232 16.3572 10.3232 15.3896ZM10.6785 12.52L10.4081 7.34034C10.3944 7.07854 10.5939 6.8584 10.8449 6.8584H13.1557C13.4067 6.8584 13.6062 7.07854 13.5926 7.34034L13.3221 12.52C13.3095 12.7624 13.1176 12.9521 12.8853 12.9521H11.1154C10.883 12.9521 10.6912 12.7624 10.6785 12.52Z" fill="#EF3817"/>
</svg>
