<svg width="8" height="8" viewBox="0 0 8 8" fill="none" xmlns="http://www.w3.org/2000/svg">
<g clip-path="url(#clip0)">
<path d="M6.03934 1.22597L3.24032 4.00373L6.03934 6.78149C6.10613 6.84778 6.1591 6.92646 6.19525 7.01306C6.2314 7.09966 6.25 7.19248 6.25 7.28621C6.25 7.37995 6.2314 7.47277 6.19525 7.55937C6.1591 7.64597 6.10613 7.72466 6.03934 7.79094C5.97255 7.85722 5.89326 7.9098 5.806 7.94567C5.71873 7.98154 5.62521 8 5.53075 8C5.4363 8 5.34277 7.98154 5.25551 7.94567C5.16825 7.9098 5.08896 7.85722 5.02217 7.79094L1.71097 4.50487C1.64409 4.43864 1.59104 4.35997 1.55483 4.27336C1.51863 4.18676 1.5 4.09391 1.5 4.00015C1.5 3.90639 1.51863 3.81355 1.55483 3.72694C1.59104 3.64033 1.64409 3.56166 1.71097 3.49543L5.02217 0.209366C5.08891 0.142998 5.16818 0.0903435 5.25545 0.0544177C5.34272 0.0184919 5.43627 -3.55691e-08 5.53075 -3.14392e-08C5.62523 -2.73094e-08 5.71879 0.0184919 5.80606 0.0544178C5.89333 0.0903436 5.9726 0.142998 6.03934 0.209366C6.31347 0.488574 6.32068 0.946761 6.03934 1.22597V1.22597Z" fill="#222532"/>
</g>
<defs>
<clipPath id="clip0">
<rect width="8" height="8" fill="white" transform="translate(8) rotate(90)"/>
</clipPath>
</defs>
</svg>
