<svg width="8" height="8" viewBox="0 0 8 8" fill="none" xmlns="http://www.w3.org/2000/svg">
<g clip-path="url(#clip0)">
<path d="M1.96066 6.77403L4.75967 3.99627L1.96066 1.21851C1.89387 1.15222 1.84089 1.07354 1.80475 0.986938C1.7686 0.900338 1.75 0.807521 1.75 0.713785C1.75 0.620049 1.7686 0.527231 1.80475 0.440631C1.84089 0.35403 1.89387 0.275343 1.96066 0.209061C2.02745 0.14278 2.10674 0.0902044 2.194 0.0543333C2.28126 0.0184623 2.37479 -1.41318e-07 2.46925 -1.44749e-07C2.5637 -1.48179e-07 2.65723 0.0184622 2.74449 0.0543333C2.83175 0.0902044 2.91104 0.14278 2.97783 0.209061L6.28903 3.49513C6.35591 3.56136 6.40896 3.64003 6.44517 3.72664C6.48137 3.81324 6.5 3.90609 6.5 3.99985C6.5 4.09361 6.48137 4.18645 6.44517 4.27306C6.40896 4.35967 6.35591 4.43834 6.28903 4.50457L2.97783 7.79063C2.91109 7.857 2.83182 7.90966 2.74455 7.94558C2.65728 7.98151 2.56373 8 2.46925 8C2.37477 8 2.28121 7.98151 2.19394 7.94558C2.10667 7.90966 2.0274 7.857 1.96066 7.79063C1.68653 7.51143 1.67932 7.05324 1.96066 6.77403V6.77403Z" fill="#222532"/>
</g>
<defs>
<clipPath id="clip0">
<rect width="8" height="8" fill="white" transform="translate(0 8) rotate(-90)"/>
</clipPath>
</defs>
</svg>
