<svg width="24" height="24" viewBox="0 0 24 24" fill="none" xmlns="http://www.w3.org/2000/svg">
<path d="M12.0003 22.6816C17.8994 22.6816 22.6816 17.8994 22.6816 12.0002C22.6816 6.10107 17.8994 1.31885 12.0003 1.31885C6.10108 1.31885 1.31886 6.10107 1.31886 12.0002C1.31886 17.8994 6.10108 22.6816 12.0003 22.6816Z" fill="#EF3817"/>
<path d="M11.9993 14.1182C11.0731 14.1182 10.3223 14.9025 10.3223 15.8701C10.3223 16.8377 11.0731 17.6221 11.9993 17.6221C12.9256 17.6221 13.6764 16.8377 13.6764 15.8701C13.6764 14.9025 12.9256 14.1182 11.9993 14.1182ZM10.4071 7.82081L10.6776 13.0005C10.6902 13.2429 10.882 13.4326 11.1144 13.4326H12.8843C13.1166 13.4326 13.3085 13.2429 13.3211 13.0005L13.5916 7.82081C13.6053 7.559 13.4057 7.33887 13.1547 7.33887H10.8439C10.5929 7.33887 10.3934 7.559 10.4071 7.82081Z" fill="white"/>
</svg>
