<svg width="24" height="24" viewBox="0 0 24 24" fill="none" xmlns="http://www.w3.org/2000/svg">
<path d="M19.8179 17.2223L20.0004 17.3868V18.9334H4V17.3868L4.18256 17.2223C4.69274 16.7494 5.13876 16.209 5.50876 15.6154C5.91993 14.7942 6.16637 13.8973 6.23362 12.9775V10.2683C6.23079 8.8345 6.73676 7.44826 7.65783 6.3663C8.5789 5.28434 9.85264 4.57998 11.2431 4.38369V3.66525C11.2431 3.47107 11.3187 3.28485 11.4531 3.14755C11.5875 3.01024 11.7698 2.93311 11.9599 2.93311C12.15 2.93311 12.3324 3.01024 12.4668 3.14755C12.6012 3.28485 12.6767 3.47107 12.6767 3.66525V4.37272C14.0798 4.55582 15.3691 5.25594 16.3025 6.34155C17.2358 7.42715 17.7489 8.82352 17.7453 10.2683V12.9775C17.8126 13.8973 18.059 14.7942 18.4702 15.6154C18.8467 16.2105 19.3 16.751 19.8179 17.2223Z" fill="#858895"/>
<path d="M10.5854 20.6362C10.1932 20.3585 9.93797 19.9749 9.8667 19.5562H14.1334C14.0622 19.9749 13.8069 20.3585 13.4148 20.6362C13.0226 20.9139 12.5201 21.0669 12.0001 21.0669C11.48 21.0669 10.9775 20.9139 10.5854 20.6362Z" fill="#858895"/>
</svg>
