<svg width="24" height="24" viewBox="0 0 24 24" fill="none" xmlns="http://www.w3.org/2000/svg">
<path d="M20.0004 17.3868L19.8179 17.2223C19.3 16.751 18.8467 16.2105 18.4702 15.6154C18.059 14.7942 17.8126 13.8973 17.7453 12.9775V10.2683C17.7489 8.82352 17.2358 7.42715 16.3025 6.34155C15.3691 5.25594 14.0798 4.55582 12.6767 4.37272V3.66525C12.6767 3.47107 12.6012 3.28485 12.4668 3.14755C12.3324 3.01024 12.15 2.93311 11.9599 2.93311C11.7698 2.93311 11.5875 3.01024 11.4531 3.14755C11.3187 3.28485 11.2431 3.47107 11.2431 3.66525V4.38369C9.85264 4.57998 8.5789 5.28434 7.65783 6.3663C6.73676 7.44826 6.23079 8.8345 6.23362 10.2683V12.9775C6.16637 13.8973 5.91993 14.7942 5.50876 15.6154C5.13876 16.209 4.69274 16.7494 4.18256 17.2223L4 17.3868V18.9334H20.0004V17.3868Z" fill="#858895"/>
<path d="M9.8667 19.556C9.93797 19.9747 10.1932 20.3584 10.5854 20.636C10.9775 20.9137 11.48 21.0667 12.0001 21.0667C12.5201 21.0667 13.0226 20.9137 13.4148 20.636C13.8069 20.3584 14.0622 19.9747 14.1334 19.556H9.8667Z" fill="#858895"/>
<mask id="mask0-913176" mask-type="alpha" maskUnits="userSpaceOnUse" x="12" y="0" width="12" height="12">
<rect x="12" width="12" height="12" fill="#C4C4C4"/>
</mask>
<g mask="url(#mask0-913176)">
<circle cx="18.5" cy="5.5" r="6" fill="#DD470F" stroke="white"/>
</g>
</svg>
