<svg width="23" height="24" viewBox="0 0 23 24" fill="none" xmlns="http://www.w3.org/2000/svg">
<path fill-rule="evenodd" clip-rule="evenodd" d="M10.3496 1.64998C10.3496 1.01487 10.8645 0.5 11.4996 0.5C12.1347 0.5 12.6496 1.01487 12.6496 1.64998V4.52493C12.6496 5.16004 12.1347 5.6749 11.4996 5.6749C10.8645 5.6749 10.3496 5.16004 10.3496 4.52493V1.64998Z" fill="#A7A9B2"/>
<path fill-rule="evenodd" clip-rule="evenodd" d="M1.14998 13.1481C0.514868 13.1481 0 12.6333 0 11.9981C0 11.363 0.514868 10.8481 1.14998 10.8481H4.02493C4.66004 10.8481 5.1749 11.363 5.1749 11.9981C5.1749 12.6333 4.66004 13.1481 4.02493 13.1481H1.14998Z" fill="#A7A9B2"/>
<path fill-rule="evenodd" clip-rule="evenodd" d="M18.9742 13.1481C18.3391 13.1481 17.8242 12.6333 17.8242 11.9981C17.8242 11.363 18.3391 10.8481 18.9742 10.8481H21.8491C22.4843 10.8481 22.9991 11.363 22.9991 11.9981C22.9991 12.6333 22.4843 13.1481 21.8491 13.1481H18.9742Z" fill="#A7A9B2"/>
<path fill-rule="evenodd" clip-rule="evenodd" d="M10.3496 19.4757C10.3496 18.8405 10.8645 18.3257 11.4996 18.3257C12.1347 18.3257 12.6496 18.8405 12.6496 19.4757V22.3506C12.6496 22.9857 12.1347 23.5006 11.4996 23.5006C10.8645 23.5006 10.3496 22.9857 10.3496 22.3506V19.4757Z" fill="#A7A9B2"/>
<path fill-rule="evenodd" clip-rule="evenodd" d="M7.10932 16.3895C7.55841 16.8386 7.55841 17.5668 7.10932 18.0158L5.07642 20.0488C4.62732 20.4978 3.8992 20.4978 3.45011 20.0488C3.00101 19.5997 3.00101 18.8715 3.45011 18.4225L5.48299 16.3895C5.93209 15.9405 6.66022 15.9405 7.10932 16.3895Z" fill="#A7A9B2"/>
<path fill-rule="evenodd" clip-rule="evenodd" d="M19.5322 20.0366C19.0831 20.4856 18.3549 20.4856 17.9059 20.0366L15.8729 18.0036C15.4239 17.5546 15.4239 16.8264 15.8729 16.3773C16.322 15.9283 17.0502 15.9283 17.4992 16.3773L19.5322 18.4103C19.9812 18.8593 19.9812 19.5875 19.5322 20.0366Z" fill="#A7A9B2"/>
<path fill-rule="evenodd" clip-rule="evenodd" d="M7.10932 7.60785C6.66022 8.05694 5.9321 8.05694 5.483 7.60785L3.4501 5.57496C3.00101 5.12586 3.00101 4.39773 3.4501 3.94863C3.8992 3.49954 4.62732 3.49954 5.07642 3.94863L7.10931 5.98153C7.55841 6.43063 7.55841 7.15875 7.10932 7.60785Z" fill="#A7A9B2"/>
<circle cx="19.5" cy="3.5" r="3.5" fill="#60B731"/>
</svg>
