<svg width="32" height="32" viewBox="0 0 32 32" fill="none" xmlns="http://www.w3.org/2000/svg">
<path d="M16 29C16.8257 29.001 17.6313 28.7512 18.3047 28.2852C18.978 27.8192 19.4858 27.1603 19.7573 26.4H12.2427C12.5142 27.1603 13.022 27.8192 13.6953 28.2852C14.3687 28.7512 15.1743 29.001 16 29ZM25.3333 19.3618V13.4C25.3333 9.2179 22.42 5.6949 18.4733 4.6354C18.0827 3.676 17.128 3 16 3C14.872 3 13.9173 3.676 13.5267 4.6354C9.58 5.6962 6.66667 9.2179 6.66667 13.4V19.3618L4.39067 21.5809C4.26661 21.7014 4.16823 21.8447 4.10118 22.0024C4.03413 22.1601 3.99975 22.3293 4 22.5V23.8C4 24.1448 4.14048 24.4754 4.39053 24.7192C4.64057 24.963 4.97971 25.1 5.33333 25.1H26.6667C27.0203 25.1 27.3594 24.963 27.6095 24.7192C27.8595 24.4754 28 24.1448 28 23.8V22.5C28.0003 22.3293 27.9659 22.1601 27.8988 22.0024C27.8318 21.8447 27.7334 21.7014 27.6093 21.5809L25.3333 19.3618Z" fill="#898995"/>
</svg>
