<svg width="24" height="24" viewBox="0 0 24 24" fill="none" xmlns="http://www.w3.org/2000/svg">
<path d="M20.0002 17.3868L19.8176 17.2223C19.2997 16.751 18.8464 16.2105 18.4699 15.6154C18.0588 14.7942 17.8123 13.8973 17.7451 12.9775V10.2683C17.7486 8.82352 17.2355 7.42715 16.3022 6.34155C15.3689 5.25594 14.0796 4.55582 12.6765 4.37272V3.66525C12.6765 3.47107 12.601 3.28485 12.4665 3.14755C12.3321 3.01024 12.1498 2.93311 11.9597 2.93311C11.7696 2.93311 11.5873 3.01024 11.4528 3.14755C11.3184 3.28485 11.2429 3.47107 11.2429 3.66525V4.38369C9.8524 4.57998 8.57865 5.28434 7.65759 6.3663C6.73652 7.44826 6.23054 8.8345 6.23337 10.2683V12.9775C6.16612 13.8973 5.91969 14.7942 5.50852 15.6154C5.13851 16.209 4.6925 16.7494 4.18231 17.2223L3.99976 17.3868V18.9334H20.0002V17.3868Z" fill="#858895"/>
<path d="M9.86646 19.556C9.93772 19.9747 10.193 20.3584 10.5851 20.636C10.9773 20.9137 11.4798 21.0667 11.9998 21.0667C12.5199 21.0667 13.0224 20.9137 13.4145 20.636C13.8067 20.3584 14.0619 19.9747 14.1332 19.556H9.86646Z" fill="#858895"/>
<mask id="mask0" mask-type="alpha" maskUnits="userSpaceOnUse" x="13" y="0" width="11" height="11">
<rect x="13" width="11" height="11" fill="#C4C4C4"/>
</mask>
<g mask="url(#mask0)">
<circle cx="19" cy="5" r="5.25" fill="#F55A2F" stroke="white" stroke-width="1.5"/>
</g>
</svg>
