<svg width="25" height="25" viewBox="0 0 25 25" fill="none" xmlns="http://www.w3.org/2000/svg">
<path d="M20.0004 18.3868L19.8179 18.2223C19.3 17.751 18.8466 17.2105 18.4702 16.6154C18.059 15.7942 17.8126 14.8973 17.7453 13.9775V11.2683C17.7489 9.82352 17.2358 8.42715 16.3025 7.34155C15.3691 6.25594 14.0798 5.55582 12.6767 5.37272V4.66525C12.6767 4.47107 12.6012 4.28485 12.4668 4.14755C12.3324 4.01024 12.15 3.93311 11.9599 3.93311C11.7698 3.93311 11.5875 4.01024 11.4531 4.14755C11.3187 4.28485 11.2431 4.47107 11.2431 4.66525V5.38369C9.85264 5.57998 8.5789 6.28434 7.65783 7.3663C6.73676 8.44826 6.23079 9.8345 6.23362 11.2683V13.9775C6.16637 14.8973 5.91993 15.7942 5.50876 16.6154C5.13876 17.209 4.69274 17.7494 4.18256 18.2223L4 18.3868V19.9334H20.0004V18.3868Z" fill="#858895"/>
<path d="M9.8667 20.556C9.93797 20.9747 10.1932 21.3584 10.5854 21.636C10.9775 21.9137 11.48 22.0667 12.0001 22.0667C12.5201 22.0667 13.0226 21.9137 13.4148 21.636C13.8069 21.3584 14.0622 20.9747 14.1334 20.556H9.8667Z" fill="#858895"/>
<path d="M25 6.5C25 10.0899 22.0899 13 18.5 13C14.9101 13 12 10.0899 12 6.5C12 2.91015 14.9101 0 18.5 0C22.0899 0 25 2.91015 25 6.5Z" fill="#DD470F"/>
<path fill-rule="evenodd" clip-rule="evenodd" d="M18.5 12C21.5376 12 24 9.53757 24 6.5C24 3.46243 21.5376 1 18.5 1C15.4624 1 13 3.46243 13 6.5C13 9.53757 15.4624 12 18.5 12ZM18.5 13C22.0899 13 25 10.0899 25 6.5C25 2.91015 22.0899 0 18.5 0C14.9101 0 12 2.91015 12 6.5C12 10.0899 14.9101 13 18.5 13Z" fill="white"/>
</svg>
