<?xml version="1.0" encoding="utf-8"?>
<!-- Generator: Adobe Illustrator 24.0.0, SVG Export Plug-In . SVG Version: 6.00 Build 0)  -->
<svg version="1.1" id="Layer_1" xmlns="http://www.w3.org/2000/svg" xmlns:xlink="http://www.w3.org/1999/xlink" x="0px" y="0px"
	 viewBox="0 0 12 12" style="enable-background:new 0 0 12 12;" xml:space="preserve">
<style type="text/css">
	.st0{clip-path:url(#SVGID_2_);}
	.st1{fill:#FFCE02;}
</style>
<g>
	<defs>
		<rect id="SVGID_1_" width="12" height="12"/>
	</defs>
	<clipPath id="SVGID_2_">
		<use xlink:href="#SVGID_1_"  style="overflow:visible;"/>
	</clipPath>
	<g class="st0">
		<path class="st1" d="M9.1,11.5c-0.1,0-0.3,0-0.4-0.1L6,9.5l-2.7,1.9c-0.1,0.1-0.2,0.1-0.4,0.1c-0.1,0-0.3,0-0.4-0.1
			c-0.1-0.1-0.2-0.2-0.2-0.3s0-0.3,0-0.4l1-3.3L0.6,5.5C0.5,5.4,0.4,5.3,0.4,5.2c0-0.1,0-0.3,0-0.4c0-0.1,0.1-0.2,0.2-0.3
			C0.7,4.4,0.8,4.3,1,4.3l3.3,0l1.1-3.2c0-0.1,0.1-0.2,0.2-0.3C5.7,0.7,5.9,0.7,6,0.7c0.1,0,0.3,0,0.4,0.1C6.5,0.9,6.6,1,6.6,1.2
			l1,3.2l3.3,0c0.1,0,0.3,0,0.4,0.1c0.1,0.1,0.2,0.2,0.2,0.3c0,0.1,0,0.3,0,0.4c0,0.1-0.1,0.2-0.2,0.3L8.7,7.4l1,3.3
			c0,0.1,0,0.3,0,0.4s-0.1,0.2-0.2,0.3C9.4,11.5,9.2,11.5,9.1,11.5z"/>
	</g>
</g>
</svg>
