<svg width="34" height="34" viewBox="0 0 34 34" fill="none" xmlns="http://www.w3.org/2000/svg">
<path d="M16 31C16.8257 31.001 17.6313 30.7512 18.3047 30.2852C18.978 29.8192 19.4858 29.1603 19.7573 28.4H12.2427C12.5142 29.1603 13.022 29.8192 13.6953 30.2852C14.3687 30.7512 15.1743 31.001 16 31ZM25.3333 21.3618V15.4C25.3333 11.2179 22.42 7.6949 18.4733 6.6354C18.0827 5.676 17.128 5 16 5C14.872 5 13.9173 5.676 13.5267 6.6354C9.58 7.6962 6.66667 11.2179 6.66667 15.4V21.3618L4.39067 23.5809C4.26661 23.7014 4.16823 23.8447 4.10118 24.0024C4.03413 24.1601 3.99975 24.3293 4 24.5V25.8C4 26.1448 4.14048 26.4754 4.39053 26.7192C4.64057 26.963 4.97971 27.1 5.33333 27.1H26.6667C27.0203 27.1 27.3594 26.963 27.6095 26.7192C27.8595 26.4754 28 26.1448 28 25.8V24.5C28.0003 24.3293 27.9659 24.1601 27.8988 24.0024C27.8318 23.8447 27.7334 23.7014 27.6093 23.5809L25.3333 21.3618Z" fill="#898995"/>
<path d="M33.3333 9.33342C33.3333 14.1199 29.4531 18.0001 24.6667 18.0001C19.8802 18.0001 16 14.1199 16 9.33342C16 4.54695 19.8802 0.666748 24.6667 0.666748C29.4531 0.666748 33.3333 4.54695 33.3333 9.33342Z" fill="#CA4F28"/>
<path fill-rule="evenodd" clip-rule="evenodd" d="M24.6667 16.6667C28.7168 16.6667 32 13.3835 32 9.33342C32 5.28333 28.7168 2.00008 24.6667 2.00008C20.6166 2.00008 17.3333 5.28333 17.3333 9.33342C17.3333 13.3835 20.6166 16.6667 24.6667 16.6667ZM24.6667 18.0001C29.4531 18.0001 33.3333 14.1199 33.3333 9.33342C33.3333 4.54695 29.4531 0.666748 24.6667 0.666748C19.8802 0.666748 16 4.54695 16 9.33342C16 14.1199 19.8802 18.0001 24.6667 18.0001Z" fill="white"/>
</svg>
