<svg width="24" height="25" viewBox="0 0 24 25" fill="none" xmlns="http://www.w3.org/2000/svg">
<g opacity="0.5">
<path d="M20.0002 18.1202L19.8176 17.9557C19.2997 17.4844 18.8464 16.9439 18.4699 16.3488C18.0588 15.5276 17.8123 14.6307 17.7451 13.7109V11.0017C17.7486 9.55692 17.2355 8.16055 16.3022 7.07495C15.3689 5.98934 14.0796 5.28921 12.6765 5.10612V4.39865C12.6765 4.20447 12.601 4.01825 12.4665 3.88094C12.3321 3.74364 12.1498 3.6665 11.9597 3.6665C11.7696 3.6665 11.5873 3.74364 11.4528 3.88094C11.3184 4.01825 11.2429 4.20447 11.2429 4.39865V5.11709C9.8524 5.31338 8.57865 6.01774 7.65759 7.0997C6.73652 8.18166 6.23054 9.5679 6.23337 11.0017V13.7109C6.16612 14.6307 5.91969 15.5276 5.50852 16.3488C5.13851 16.9424 4.6925 17.4828 4.18231 17.9557L3.99976 18.1202V19.6668H20.0002V18.1202Z" fill="#222532"/>
<path d="M9.86646 20.2896C9.93772 20.7083 10.193 21.0919 10.5851 21.3696C10.9773 21.6473 11.4798 21.8003 11.9998 21.8003C12.5199 21.8003 13.0224 21.6473 13.4145 21.3696C13.8067 21.0919 14.0619 20.7083 14.1332 20.2896H9.86646Z" fill="#222532"/>
</g>
</svg>
