<?xml version="1.0" encoding="utf-8"?>
<!-- Generator: Adobe Illustrator 24.0.0, SVG Export Plug-In . SVG Version: 6.00 Build 0)  -->
<svg version="1.1" id="Layer_1" xmlns="http://www.w3.org/2000/svg" xmlns:xlink="http://www.w3.org/1999/xlink" x="0px" y="0px"
	 viewBox="0 0 24 25" style="enable-background:new 0 0 24 25;" xml:space="preserve">
<style type="text/css">
	.st0{clip-path:url(#SVGID_2_);}
	.st1{fill-rule:evenodd;clip-rule:evenodd;fill:#222532;}
</style>
<g>
	<defs>
		<rect id="SVGID_1_" y="0.5" width="24" height="24"/>
	</defs>
	<clipPath id="SVGID_2_">
		<use xlink:href="#SVGID_1_"  style="overflow:visible;"/>
	</clipPath>
	<g class="st0">
		<path class="st1" d="M12,5.7C12,5.7,11.9,5.7,12,5.7c-0.1,0-0.1,0.1-0.1,0.1c0,0,0,0,0,0l-1.6,4.8l-5,0c0,0-0.1,0-0.1,0
			c0,0,0,0,0,0.1c0,0,0,0.1,0,0.1c0,0,0,0,0,0.1l4,2.8l-1.5,4.9c0,0,0,0.1,0,0.1c0,0,0,0,0,0.1l0,0c0,0,0,0,0.1,0c0,0,0.1,0,0.1,0
			l4.1-2.9l4.1,2.9c0,0,0,0,0,0c0,0,0.1,0,0.1,0c0,0,0.1,0,0.1,0l0,0c0,0,0,0,0-0.1c0,0,0-0.1,0-0.1l0,0l-1.5-4.9l4-2.8
			c0,0,0,0,0-0.1c0,0,0-0.1,0-0.1c0,0,0,0,0-0.1c0,0,0,0-0.1,0c0,0,0,0,0,0l-5,0l-1.6-4.8c0,0,0,0,0,0C12.1,5.7,12.1,5.7,12,5.7
			C12.1,5.7,12,5.7,12,5.7z M16.1,20.1c-0.3,0-0.7-0.1-0.9-0.3l0,0L12,17.6l-3.2,2.3c0,0,0,0,0,0c-0.3,0.2-0.6,0.3-1,0.3
			c-0.3,0-0.7-0.1-1-0.3c-0.3-0.2-0.5-0.5-0.6-0.8c-0.1-0.3-0.1-0.7,0-1l1.2-3.8L4.4,12l0,0c-0.3-0.2-0.5-0.5-0.6-0.8
			c-0.1-0.3-0.1-0.7,0-1l0,0c0.1-0.3,0.3-0.6,0.6-0.8C4.6,9.1,5,9,5.3,9l0,0l3.9,0l1.2-3.7C10.6,5,10.8,4.7,11,4.5s0.6-0.3,1-0.3
			c0.3,0,0.7,0.1,1,0.3s0.5,0.5,0.6,0.8l0,0L14.8,9l3.9,0c0.3,0,0.7,0.1,1,0.3c0.3,0.2,0.5,0.5,0.6,0.8c0.1,0.3,0.1,0.7,0,1
			c-0.1,0.3-0.3,0.6-0.6,0.8l0,0l-3.1,2.2l1.2,3.8c0.1,0.3,0.1,0.7,0,1c-0.1,0.3-0.3,0.6-0.6,0.8C16.8,20,16.5,20.1,16.1,20.1z"/>
	</g>
</g>
</svg>
