<?xml version="1.0" encoding="utf-8"?>
<!-- Generator: Adobe Illustrator 24.0.0, SVG Export Plug-In . SVG Version: 6.00 Build 0)  -->
<svg version="1.1" id="Layer_1" xmlns="http://www.w3.org/2000/svg" xmlns:xlink="http://www.w3.org/1999/xlink" x="0px" y="0px"
	 viewBox="0 0 16 16" style="enable-background:new 0 0 16 16;" xml:space="preserve">
<style type="text/css">
	.st0{clip-path:url(#SVGID_2_);}
	.st1{fill-rule:evenodd;clip-rule:evenodd;}
</style>
<g>
	<defs>
		<rect id="SVGID_1_" width="16" height="16"/>
	</defs>
	<clipPath id="SVGID_2_">
		<use xlink:href="#SVGID_1_"  style="overflow:visible;"/>
	</clipPath>
	<g class="st0">
		<path class="st1" d="M13.1,0.5L15.6,3C15.8,3.3,16,3.8,16,4.2v7.5c0,0.3-0.3,0.7-0.6,0.7h-4.3v-0.5l0,0V8.1c0-0.2,0-1.1-0.5-1.6
			c-0.1-0.1-0.2-0.2-0.3-0.3l0,0v0c-0.6-0.7-1.8-2-2.5-2.7C7.6,3.3,7.3,3.1,7,3v0C6.7,2.9,6.4,2.8,6.2,2.8H5.9V0.7
			C5.9,0.3,6.2,0,6.5,0h5.6C12.4,0,12.9,0.3,13.1,0.5z M7.3,4.2l2.4,2.5C10,7,10.1,7.5,10.1,7.9v7.5c0,0.4-0.3,0.7-0.6,0.7H0.7
			C0.3,16,0,15.7,0,15.3V4.4C0,4,0.3,3.7,0.7,3.7h5.5C6.6,3.7,7.1,4,7.3,4.2z M6.3,8h2.8c0.1,0,0.1-0.1,0.1-0.2l-2.9-3
			C6.2,4.8,6.1,4.9,6.1,5v2.8C6.1,7.9,6.2,8,6.3,8z M14.9,4.4H12c-0.1,0-0.2-0.1-0.2-0.2V1.2c0-0.1,0.1-0.1,0.2-0.1l3,3.1
			C15.1,4.3,15,4.4,14.9,4.4z"/>
	</g>
</g>
</svg>
