<?xml version="1.0" encoding="utf-8"?>
<!-- Generator: Adobe Illustrator 24.0.0, SVG Export Plug-In . SVG Version: 6.00 Build 0)  -->
<svg version="1.1" id="Layer_1" xmlns="http://www.w3.org/2000/svg" xmlns:xlink="http://www.w3.org/1999/xlink" x="0px" y="0px"
	 viewBox="0 0 16 16" style="enable-background:new 0 0 16 16;" xml:space="preserve">
<style type="text/css">
	.st0{clip-path:url(#SVGID_2_);}
	.st1{fill:#858895;}
</style>
<g>
	<g>
		<defs>
			<rect id="SVGID_1_" width="16" height="16"/>
		</defs>
		<clipPath id="SVGID_2_">
			<use xlink:href="#SVGID_1_"  style="overflow:visible;"/>
		</clipPath>
		<g class="st0">
			<path class="st1" d="M15.6,3l-2.5-2.5c-0.2-0.2-0.7-0.5-1-0.5H6.5C6.2,0,5.9,0.3,5.9,0.7v2.1h0.3C6.4,2.8,6.7,2.9,7,3V1.4
				c0-0.1,0.1-0.2,0.2-0.2h4.4c0.1,0,0.2,0.1,0.2,0.2v2.9c0,0.1,0.1,0.2,0.2,0.2h2.7c0.1,0,0.2,0.1,0.2,0.2v6.4
				c0,0.1-0.1,0.2-0.2,0.2h-3.6v1.1h4.3c0.3,0,0.6-0.4,0.6-0.7V4.2C16,3.8,15.8,3.3,15.6,3z M14.1,3.3h-1c-0.1,0-0.2-0.1-0.2-0.3V2
				c0-0.1,0-0.1,0.1,0l1.2,1.1C14.2,3.2,14.2,3.3,14.1,3.3z"/>
			<path class="st1" d="M7.3,4.2C7.1,4,6.6,3.7,6.2,3.7H0.7C0.3,3.7,0,4,0,4.4v10.9c0,0.4,0.3,0.7,0.7,0.8h8.8
				c0.3,0,0.6-0.3,0.6-0.7V7.9c0-0.4-0.1-0.9-0.4-1.2L7.3,4.2z M7,5.8c0-0.1,0.1-0.2,0.2-0.1l1.1,1.2C8.4,7,8.3,7,8.2,7H7.3
				C7.1,7,7,6.9,7,6.8V5.8z M9,14.7c0,0.1-0.1,0.2-0.2,0.2H1.3c-0.1,0-0.2-0.1-0.2-0.2V5.1c0-0.1,0.1-0.2,0.2-0.2h4.4
				c0.1,0,0.2,0.1,0.2,0.2V8c0,0.1,0.1,0.2,0.2,0.2h2.7C8.9,8.2,9,8.3,9,8.4V14.7z"/>
		</g>
	</g>
</g>
</svg>
