<svg width="12" height="12" viewBox="0 0 12 12" fill="none" xmlns="http://www.w3.org/2000/svg">
<g clip-path="url(#clip0)">
<path fill-rule="evenodd" clip-rule="evenodd" d="M6.38625 0.76425C6.25772 0.754761 6.12888 0.750007 6 0.75V0C6.1474 7.18707e-05 6.29475 0.00557561 6.44175 0.0165L6.38625 0.76425ZM7.88925 1.10175C7.64883 1.00898 7.40192 0.934026 7.1505 0.8775L7.31475 0.1455C7.602 0.21 7.88475 0.2955 8.15925 0.402L7.88925 1.10175V1.10175ZM8.91675 1.63425C8.80952 1.56274 8.69969 1.49519 8.5875 1.43175L8.95725 0.77925C9.21368 0.924552 9.45909 1.08849 9.6915 1.26975L9.23025 1.8615C9.12857 1.78217 9.024 1.70662 8.91675 1.635V1.63425ZM10.2922 2.97675C10.1439 2.76598 9.9802 2.56644 9.8025 2.37975L10.3455 1.86225C10.548 2.076 10.7355 2.30475 10.9057 2.54475L10.2922 2.97675V2.97675ZM10.8502 3.99075C10.801 3.87184 10.7475 3.75477 10.6897 3.63975L11.3595 3.30225C11.4919 3.56556 11.6048 3.83831 11.697 4.11825L10.9845 4.353C10.9442 4.23065 10.8994 4.10982 10.8502 3.99075V3.99075ZM11.2477 5.871C11.2417 5.61326 11.2166 5.35631 11.1727 5.10225L11.9115 4.97475C11.9617 5.26425 11.991 5.55825 11.9985 5.85225L11.2485 5.871H11.2477ZM11.1495 7.0245C11.1742 6.897 11.1945 6.77025 11.2102 6.642L11.955 6.73425C11.919 7.02687 11.8613 7.31641 11.7825 7.6005L11.0595 7.40025C11.094 7.2765 11.124 7.15125 11.1495 7.0245V7.0245ZM10.4355 8.80875C10.5735 8.59125 10.695 8.36325 10.8 8.12775L11.4855 8.4315C11.3655 8.7015 11.2267 8.961 11.0692 9.21L10.4355 8.80875ZM9.7125 9.7125C9.804 9.621 9.89175 9.5265 9.975 9.429L10.5435 9.91875C10.4472 10.0304 10.3469 10.1384 10.2427 10.2428L9.7125 9.7125V9.7125Z" fill="#A7A9B2"/>
<path fill-rule="evenodd" clip-rule="evenodd" d="M5.99917 0.75C5.13583 0.750062 4.28583 0.963035 3.52445 1.37005C2.76308 1.77707 2.11383 2.36558 1.63421 3.08344C1.1546 3.8013 0.859415 4.62636 0.774815 5.48555C0.690215 6.34473 0.818807 7.21152 1.1492 8.00914C1.4796 8.80676 2.0016 9.51059 2.66896 10.0583C3.33633 10.606 4.12847 10.9807 4.97522 11.1491C5.82197 11.3175 6.69719 11.2746 7.52336 11.024C8.34954 10.7734 9.10116 10.3229 9.71167 9.7125L10.2419 10.2427C9.54422 10.9408 8.68511 11.456 7.7407 11.7427C6.79629 12.0294 5.79575 12.0788 4.82772 11.8864C3.85969 11.694 2.95406 11.2657 2.19108 10.6397C1.4281 10.0136 0.83132 9.209 0.45362 8.29717C0.0759192 7.38533 -0.0710412 6.39441 0.0257596 5.4122C0.12256 4.42999 0.460134 3.48683 1.00857 2.66626C1.55701 1.8457 2.29937 1.17308 3.16989 0.708002C4.04041 0.242921 5.0122 -0.000261549 5.99917 2.11094e-07V0.75Z" fill="#A7A9B2"/>
<path fill-rule="evenodd" clip-rule="evenodd" d="M5.06396 3.32837C5.16342 3.32837 5.2588 3.36788 5.32913 3.4382C5.39946 3.50853 5.40625 3.57788 5.43896 3.70337L6.00001 6.53248L8.39067 8.41676C8.47451 8.46734 8.53525 8.54871 8.55989 8.64347C8.58454 8.73824 8.57113 8.83889 8.52255 8.92391C8.47397 9.00892 8.39406 9.07157 8.29991 9.09845C8.20575 9.12533 8.10481 9.11431 8.01867 9.06776L5.43901 7.07548C5.38161 7.04269 5.3339 6.99532 5.30071 6.93816C5.26752 6.881 5.24609 6.80835 5.22656 6.71069L4.68896 3.70337C4.68896 3.60391 4.72847 3.50853 4.7988 3.4382C4.86913 3.36788 4.96451 3.32837 5.06396 3.32837Z" fill="#A7A9B2"/>
</g>
<defs>
<clipPath id="clip0">
<rect width="12" height="12" fill="white"/>
</clipPath>
</defs>
</svg>
