<svg width="16" height="16" viewBox="0 0 16 16" fill="none" xmlns="http://www.w3.org/2000/svg">
<path d="M11.3333 3.69231H10V3H9.33333V3.69231H6.66667V3H6V3.69231H4.66667C4.48991 3.69249 4.32044 3.76549 4.19546 3.89528C4.07047 4.02508 4.00018 4.20106 4 4.38462V11.3077C4.00018 11.4912 4.07047 11.6672 4.19546 11.797C4.32044 11.9268 4.48991 11.9998 4.66667 12H11.3333C11.5101 11.9998 11.6796 11.9268 11.8045 11.797C11.9295 11.6672 11.9998 11.4912 12 11.3077V4.38462C11.9998 4.20106 11.9295 4.02508 11.8045 3.89528C11.6796 3.76549 11.5101 3.69249 11.3333 3.69231ZM4.66667 4.38462H6V5.07692H6.66667V4.38462H9.33333V5.07692H10V4.38462H11.3333V5.76923H4.66667V4.38462ZM4.66667 6.46154H6.33333V8.53846H4.66667V6.46154ZM9 11.3077H7V9.23077H9V11.3077ZM9 8.53846H7V6.46154H9V8.53846ZM9.66667 11.3077V9.23077H11.3333L11.3337 11.3077H9.66667Z" fill="black"/>
</svg>
