<svg width="20" height="20" viewBox="0 0 20 20" fill="none" xmlns="http://www.w3.org/2000/svg">
<path d="M14.6663 3.33325H5.33301C4.22844 3.33325 3.33301 4.22868 3.33301 5.33325V14.6666C3.33301 15.7712 4.22844 16.6666 5.33301 16.6666H14.6663C15.7709 16.6666 16.6663 15.7712 16.6663 14.6666V5.33325C16.6663 4.22868 15.7709 3.33325 14.6663 3.33325Z" fill="#F7F7F7"/>
<path fill-rule="evenodd" clip-rule="evenodd" d="M2.83301 5.33325C2.83301 3.95254 3.9523 2.83325 5.33301 2.83325H14.6663C16.0471 2.83325 17.1663 3.95254 17.1663 5.33325V14.6666C17.1663 16.0473 16.0471 17.1666 14.6663 17.1666H5.33301C3.95229 17.1666 2.83301 16.0473 2.83301 14.6666V5.33325ZM5.33301 3.83325C4.50458 3.83325 3.83301 4.50482 3.83301 5.33325V14.6666C3.83301 15.495 4.50458 16.1666 5.33301 16.1666H14.6663C15.4948 16.1666 16.1663 15.495 16.1663 14.6666V5.33325C16.1663 4.50482 15.4948 3.83325 14.6663 3.83325H5.33301Z" fill="#A7A9B2"/>
</svg>
