<?xml version="1.0" encoding="utf-8"?>
<!-- Generator: Adobe Illustrator 23.1.1, SVG Export Plug-In . SVG Version: 6.00 Build 0)  -->
<svg version="1.1" id="ic_collector_tags" xmlns="http://www.w3.org/2000/svg" xmlns:xlink="http://www.w3.org/1999/xlink" x="0px"
	 y="0px" viewBox="0 0 24 24" style="enable-background:new 0 0 24 24;" xml:space="preserve">
<style type="text/css">
	.st0{fill:#A5ACCE;}
	.st1{fill:#FFFFFF;}
</style>
<g id="사각형_437">
	<rect class="st0" width="24" height="24"/>
</g>
<path class="st1" d="M19.7,15.1V8.8c0-0.7-0.4-1.3-1-1.7l-5.6-3.2c-0.6-0.3-1.3-0.3-1.9,0L5.6,7.1c-0.6,0.3-1,1-1,1.7v6.4
	c0,0.7,0.4,1.3,1,1.7l5.6,3.2c0.2,0.1,0.5,0.2,0.7,0.2c0.1,0.1,0.1,0.1,0.2,0.1c0.1,0,0.2,0,0.2-0.1c0.3,0,0.5-0.1,0.7-0.2l5.6-3.2
	C19.3,16.5,19.7,15.9,19.7,15.1C19.7,15.1,19.7,15.1,19.7,15.1z M6,7.7l5.6-3.2c0.2-0.1,0.4-0.2,0.6-0.2s0.4,0.1,0.6,0.2l5.6,3.2
	c0.1,0.1,0.2,0.1,0.3,0.2l-6.3,3.4c-0.1,0-0.1-0.1-0.2-0.1s-0.1,0-0.2,0.1L5.7,7.9C5.8,7.8,5.9,7.8,6,7.7z M6,16.2
	c-0.4-0.2-0.6-0.6-0.6-1.1V8.8c0-0.1,0-0.2,0-0.2l6.4,3.5v7.5c-0.1,0-0.2-0.1-0.3-0.1L6,16.2z M18.4,16.2l-5.6,3.2
	c-0.1,0.1-0.2,0.1-0.3,0.1V12L19,8.5c0,0.1,0,0.2,0,0.2v6.4c0,0,0,0,0,0.1C19,15.6,18.7,16,18.4,16.2z"/>
</svg>
