<svg width="24" height="24" viewBox="0 0 24 24" fill="none" xmlns="http://www.w3.org/2000/svg">
<rect opacity="0.5" x="2" y="4" width="20" height="16" rx="2" fill="#222532"/>
<path d="M6.93517 15.9643C6.73918 16.1639 6.41762 16.1638 6.22166 15.9642L5.49389 15.223C5.30291 15.0285 5.30293 14.7168 5.49395 14.5224L7.66279 12.3141C7.85383 12.1196 7.85383 11.8079 7.66279 11.6134L5.49397 9.40512C5.30295 9.21062 5.30294 8.89895 5.49394 8.70444L6.22167 7.96337C6.41763 7.76381 6.73917 7.7638 6.93514 7.96334L10.52 11.6134C10.711 11.8079 10.711 12.1196 10.52 12.3141L6.93517 15.9643ZM18.7858 15.5628C18.7858 15.8389 18.562 16.0628 18.2858 16.0628H12.7926C12.5164 16.0628 12.2926 15.8389 12.2926 15.5628V14.6124C12.2926 14.3363 12.5164 14.1124 12.7926 14.1124H18.2858C18.562 14.1124 18.7858 14.3363 18.7858 14.6124V15.5628Z" fill="white"/>
</svg>
