<svg width="24" height="24" viewBox="0 0 24 24" fill="none" xmlns="http://www.w3.org/2000/svg">
<path fill-rule="evenodd" clip-rule="evenodd" d="M11.9998 5.79956L10.1522 3.8219H4.60918C3.59296 3.8219 2.77075 4.71185 2.77075 5.79956V7.118H2.77364C2.77172 7.14913 2.77075 7.18053 2.77075 7.21218V18.7657C2.77075 19.5459 3.36104 20.1783 4.08919 20.1783H19.9105C20.6386 20.1783 21.2289 19.5459 21.2289 18.7657V7.21218C21.2289 6.43201 20.6386 5.79956 19.9105 5.79956H11.9998ZM4.60918 18.3571L4.60918 7.72815L19.5034 7.72815L19.5034 18.3571H4.60918Z" fill="#232533"/>
<path d="M11.9999 9.28467C11.5396 9.28467 11.1665 9.65779 11.1665 10.1181V12.1389H9.14566C8.68538 12.1389 8.31226 12.512 8.31226 12.9723C8.31226 13.4326 8.68538 13.8057 9.14566 13.8057H11.1665V15.8266C11.1665 16.2868 11.5396 16.66 11.9999 16.66C12.4602 16.66 12.8333 16.2868 12.8333 15.8266V13.8057L14.8542 13.8057C15.3144 13.8057 15.6876 13.4326 15.6876 12.9723C15.6876 12.512 15.3144 12.1389 14.8542 12.1389H12.8333V10.1181C12.8333 9.65779 12.4602 9.28467 11.9999 9.28467Z" fill="#232533"/>
</svg>
