<?xml version="1.0" encoding="utf-8"?>
<!-- Generator: Adobe Illustrator 24.0.0, SVG Export Plug-In . SVG Version: 6.00 Build 0)  -->
<svg version="1.1" id="Layer_1" xmlns="http://www.w3.org/2000/svg" xmlns:xlink="http://www.w3.org/1999/xlink" x="0px" y="0px"
	 viewBox="0 0 16 16" style="enable-background:new 0 0 16 16;" xml:space="preserve">
<style type="text/css">
	.st0{fill:#FFFFFF;}
</style>
<g>
	<path d="M7.3,4.2C7.1,4,6.6,3.7,6.2,3.7H0.7C0.3,3.7,0,4,0,4.4v10.9c0,0.4,0.3,0.7,0.7,0.8h8.8c0.3,0,0.6-0.3,0.6-0.7V7.9
		c0-0.4-0.1-0.9-0.4-1.2L7.3,4.2z"/>
	<path class="st0" d="M9.1,8H6.3C6.2,8,6.1,7.9,6.1,7.8V5c0-0.1,0.1-0.2,0.2-0.2l2.9,3C9.2,7.9,9.2,8,9.1,8z"/>
	<path d="M15.6,3l-2.5-2.5c-0.2-0.2-0.7-0.5-1-0.5H6.5C6.2,0,5.9,0.3,5.9,0.7v2.1h0.3C6.4,2.8,6.7,2.9,7,3s0.6,0.3,0.8,0.5
		c0.7,0.7,1.9,2,2.5,2.7c0.1,0.1,0.2,0.2,0.3,0.3c0.5,0.5,0.5,1.4,0.5,1.6v3.8v0.5h4.3c0.3,0,0.6-0.4,0.6-0.7V4.2
		C16,3.8,15.8,3.3,15.6,3z"/>
	<path class="st0" d="M14.9,4.4H12c-0.1,0-0.2-0.1-0.2-0.2v-3c0-0.1,0.1-0.1,0.2-0.1l3,3.1C15.1,4.3,15,4.4,14.9,4.4z"/>
</g>
</svg>
