<?xml version="1.0" encoding="utf-8"?>
<!-- Generator: Adobe Illustrator 24.0.0, SVG Export Plug-In . SVG Version: 6.00 Build 0)  -->
<svg version="1.1" id="Layer_1" xmlns="http://www.w3.org/2000/svg" xmlns:xlink="http://www.w3.org/1999/xlink" x="0px" y="0px"
	 viewBox="0 0 16 16" style="enable-background:new 0 0 16 16;" xml:space="preserve">
<style type="text/css">
	.st0{clip-path:url(#SVGID_2_);}
	.st1{fill:#858895;}
</style>
<g>
	<defs>
		<rect id="SVGID_1_" width="16" height="16"/>
	</defs>
	<clipPath id="SVGID_2_">
		<use xlink:href="#SVGID_1_"  style="overflow:visible;"/>
	</clipPath>
	<g class="st0">
		<path class="st1" d="M13.1,0.5L15.6,3C15.8,3.3,16,3.8,16,4.2v7.5c0,0.3-0.3,0.7-0.6,0.7h-4.3v-1.1h3.6c0.1,0,0.2-0.1,0.2-0.2V4.7
			c0-0.1-0.1-0.2-0.2-0.2H12c-0.1,0-0.2-0.1-0.2-0.2V1.4c0-0.1-0.1-0.2-0.2-0.2H7.2C7.1,1.2,7,1.3,7,1.4V3C6.7,2.9,6.4,2.8,6.2,2.8
			H5.9V0.7C5.9,0.3,6.2,0,6.5,0h5.6C12.4,0,12.9,0.3,13.1,0.5z M13.1,3.3h1c0.1,0,0.1-0.1,0.1-0.2L13,2c-0.1-0.1-0.1-0.1-0.1,0v1
			C12.9,3.2,13,3.3,13.1,3.3z M7.3,4.2l2.4,2.5C10,7,10.1,7.5,10.1,7.9v7.5c0,0.4-0.3,0.7-0.6,0.7H0.7C0.3,16,0,15.7,0,15.3V4.4
			C0,4,0.3,3.7,0.7,3.7h5.5C6.6,3.7,7.1,4,7.3,4.2z M1.3,14.9h7.5c0.1,0,0.2-0.1,0.2-0.2V8.4c0-0.1-0.1-0.2-0.2-0.2H6.1
			C6,8.2,5.9,8.1,5.9,8V5.1c0-0.1-0.1-0.2-0.2-0.2H1.3C1.2,4.9,1.1,5,1.1,5.1v9.6C1.1,14.8,1.2,14.9,1.3,14.9z M8.3,6.9L7.2,5.7
			C7.1,5.6,7,5.7,7,5.8v1C7,6.9,7.1,7,7.3,7h0.9C8.3,7,8.4,7,8.3,6.9z"/>
	</g>
</g>
</svg>
