<svg width="24" height="24" viewBox="0 0 24 24" fill="none" xmlns="http://www.w3.org/2000/svg">
<path fill-rule="evenodd" clip-rule="evenodd" d="M5 4C2.79086 4 1 5.79086 1 8V16C1 18.2091 2.79086 20 5 20H19C21.2091 20 23 18.2091 23 16V8C23 5.79086 21.2091 4 19 4H5ZM6.85611 15.2868L4.1948 12.4937C4.07007 12.3627 4 12.1852 4 12C4 11.8148 4.07007 11.6373 4.1948 11.5063L6.85611 8.71318C6.91748 8.64648 6.9909 8.59329 7.07207 8.55669C7.15324 8.5201 7.24055 8.50083 7.32889 8.50003C7.41723 8.49922 7.50484 8.51689 7.58661 8.552C7.66838 8.58711 7.74266 8.63896 7.80513 8.70452C7.8676 8.77009 7.917 8.84805 7.95046 8.93387C7.98391 9.01968 8.00074 9.11163 7.99997 9.20435C7.99921 9.29707 7.98085 9.3887 7.94598 9.47389C7.91111 9.55908 7.86043 9.63614 7.79688 9.70055L5.60596 12L7.79688 14.2994C7.86043 14.3639 7.91111 14.4409 7.94598 14.5261C7.98085 14.6113 7.99921 14.7029 7.99997 14.7956C8.00074 14.8884 7.98391 14.9803 7.95046 15.0661C7.917 15.1519 7.8676 15.2299 7.80513 15.2955C7.74266 15.361 7.66838 15.4129 7.58661 15.448C7.50484 15.4831 7.41723 15.5008 7.32889 15.5C7.24055 15.4992 7.15324 15.4799 7.07207 15.4433C6.9909 15.4067 6.91748 15.3535 6.85611 15.2868ZM17.1439 8.71318C17.0825 8.64648 17.0091 8.59329 16.9279 8.55669C16.8468 8.5201 16.7595 8.50083 16.6711 8.50003C16.5828 8.49922 16.4952 8.51689 16.4134 8.552C16.3316 8.58711 16.2573 8.63896 16.1949 8.70452C16.1324 8.77009 16.083 8.84805 16.0495 8.93387C16.0161 9.01968 15.9993 9.11163 16 9.20435C16.0008 9.29707 16.0191 9.3887 16.054 9.47389C16.0889 9.55908 16.1396 9.63614 16.2031 9.70055L18.394 12L16.2031 14.2994C16.1396 14.3639 16.0889 14.4409 16.054 14.5261C16.0191 14.6113 16.0008 14.7029 16 14.7956C15.9993 14.8884 16.0161 14.9803 16.0495 15.0661C16.083 15.1519 16.1324 15.2299 16.1949 15.2955C16.2573 15.361 16.3316 15.4129 16.4134 15.448C16.4952 15.4831 16.5828 15.5008 16.6711 15.5C16.7595 15.4992 16.8468 15.4799 16.9279 15.4433C17.0091 15.4067 17.0825 15.3535 17.1439 15.2868L19.8052 12.4937C19.9299 12.3627 20 12.1852 20 12C20 11.8148 19.9299 11.6373 19.8052 11.5063L17.1439 8.71318ZM10.0256 16.2055L12.688 7.47519C12.7093 7.39374 12.7479 7.31716 12.8015 7.25001C12.8551 7.18287 12.9226 7.12655 13 7.08442C13.0774 7.04228 13.1631 7.01521 13.2519 7.00481C13.3407 6.99441 13.4308 7.00091 13.5169 7.0239C13.603 7.04689 13.6832 7.08591 13.7528 7.13863C13.8224 7.19135 13.88 7.25668 13.922 7.33071C13.9641 7.40475 13.9897 7.48596 13.9975 7.5695C14.0053 7.65305 13.995 7.7372 13.9672 7.81692L11.3049 16.5473C11.2652 16.6776 11.1814 16.7923 11.066 16.874C10.9505 16.9557 10.8099 16.9999 10.6652 17C10.6034 16.9997 10.5418 16.9917 10.4822 16.9763C10.3126 16.9308 10.1692 16.824 10.0836 16.6795C9.99801 16.5349 9.97714 16.3645 10.0256 16.2055Z" fill="#858895"/>
</svg>
