<svg width="16" height="16" viewBox="0 0 16 16" fill="none" xmlns="http://www.w3.org/2000/svg">
<g clip-path="url(#clip0)">
<path d="M13.1494 0.50857L15.5632 3.0288C15.7931 3.28314 16 3.81493 16 4.16175V11.63C16 11.9768 15.7241 12.3005 15.3563 12.3005H11.0575V11.1675H14.6667C14.7816 11.1675 14.8736 11.075 14.8736 10.9594V4.67042C14.8736 4.55481 14.7816 4.46233 14.6667 4.46233H12C11.8851 4.46233 11.7701 4.36984 11.7701 4.25423V1.38718C11.7701 1.27158 11.6782 1.17909 11.5632 1.17909H7.1954C7.08046 1.17909 6.96552 1.27158 6.96552 1.38718V2.98256C6.73563 2.89007 6.43678 2.84383 6.2069 2.84383H5.86207V0.693541C5.86207 0.323599 6.16092 0.0461426 6.50575 0.0461426H12.069C12.4138 0.0461426 12.9195 0.254235 13.1494 0.50857ZM13.1034 3.32938H14.069C14.1839 3.32938 14.2069 3.26002 14.1379 3.16753L13.0345 2.03458C12.9655 1.9421 12.8966 1.96522 12.8966 2.08082V3.12129C12.8966 3.23689 12.9885 3.32938 13.1034 3.32938ZM7.31034 4.20799L9.70115 6.75134C9.95402 7.00568 10.1379 7.51435 10.1379 7.86117V15.3294C10.1379 15.6993 9.86207 15.9999 9.51724 15.9999H0.666667C0.298851 15.9999 0 15.6993 0 15.3294V4.39296C0 4.04614 0.298851 3.72244 0.666667 3.72244H6.2069C6.55172 3.72244 7.05747 3.95366 7.31034 4.20799ZM1.33333 14.867H8.8046C8.91954 14.867 9.03448 14.7745 9.03448 14.6589V8.36984C9.03448 8.25424 8.91954 8.16175 8.8046 8.16175H6.13793C6.02299 8.16175 5.93103 8.06926 5.93103 7.95366V5.08661C5.93103 4.971 5.83908 4.87851 5.72414 4.87851H1.33333C1.21839 4.87851 1.12644 4.971 1.12644 5.08661V14.6589C1.12644 14.7745 1.21839 14.867 1.33333 14.867ZM8.27586 6.89007L7.1954 5.71088C7.10345 5.6184 7.03448 5.68776 7.03448 5.80337V6.82071C7.03448 6.93632 7.14943 7.0288 7.26437 7.0288H8.2069C8.32184 7.0288 8.36782 6.95944 8.27586 6.89007Z" fill="#858895"/>
</g>
<defs>
<clipPath id="clip0">
<path d="M0 0H16V16H0V0Z" fill="white"/>
</clipPath>
</defs>
</svg>
