<svg width="16" height="16" viewBox="0 0 16 16" fill="none" xmlns="http://www.w3.org/2000/svg">
<path d="M7.12566 1.875C7.12566 1.64294 7.21784 1.42038 7.38194 1.25628C7.54603 1.09219 7.76859 1 8.00066 1C8.23272 1 8.45528 1.09219 8.61937 1.25628C8.78347 1.42038 8.87566 1.64294 8.87566 1.875V8.13825L11.7133 5.30062L12.9505 6.53788L8.00066 11.4878L3.05078 6.53875L4.28803 5.3015L7.12566 8.13825V1.875Z" fill="#222532"/>
<path d="M1 9.75H2.75V13.25H13.25V9.75H15V13.25C15 13.7141 14.8156 14.1592 14.4874 14.4874C14.1592 14.8156 13.7141 15 13.25 15H2.75C2.28587 15 1.84075 14.8156 1.51256 14.4874C1.18437 14.1592 1 13.7141 1 13.25V9.75Z" fill="#222532"/>
</svg>
