<svg width="16" height="16" viewBox="0 0 16 16" fill="none" xmlns="http://www.w3.org/2000/svg">
<path fill-rule="evenodd" clip-rule="evenodd" d="M0.592593 3C0.514772 3 0.437714 3.01522 0.365817 3.04478C0.293921 3.07434 0.228594 3.11767 0.173567 3.17229C0.118539 3.22691 0.074889 3.29176 0.0451084 3.36313C0.0153279 3.4345 0 3.51099 0 3.58824C0 3.66548 0.0153279 3.74198 0.0451084 3.81334C0.074889 3.88471 0.118539 3.94956 0.173567 4.00418C0.228594 4.0588 0.293921 4.10213 0.365817 4.13169C0.437714 4.16126 0.514772 4.17647 0.592593 4.17647H15.4074C15.5646 4.17647 15.7153 4.1145 15.8264 4.00418C15.9376 3.89387 16 3.74425 16 3.58824C16 3.43223 15.9376 3.28261 15.8264 3.17229C15.7153 3.06197 15.5646 3 15.4074 3H0.592593ZM0.592593 5.94118C0.435427 5.94118 0.284699 6.00315 0.173567 6.11347C0.0624339 6.22378 0 6.3734 0 6.52941C0 6.68542 0.0624339 6.83504 0.173567 6.94536C0.284699 7.05567 0.435427 7.11765 0.592593 7.11765H15.4074C15.5646 7.11765 15.7153 7.05567 15.8264 6.94536C15.9376 6.83504 16 6.68542 16 6.52941C16 6.3734 15.9376 6.22378 15.8264 6.11347C15.7153 6.00315 15.5646 5.94118 15.4074 5.94118H0.592593ZM0 9.47059C0 9.14706 0.266667 8.88235 0.592593 8.88235H15.4074C15.5646 8.88235 15.7153 8.94433 15.8264 9.05464C15.9376 9.16496 16 9.31458 16 9.47059C16 9.6266 15.9376 9.77622 15.8264 9.88653C15.7153 9.99685 15.5646 10.0588 15.4074 10.0588H0.592593C0.435427 10.0588 0.284699 9.99685 0.173567 9.88653C0.0624339 9.77622 0 9.6266 0 9.47059ZM0.592593 11.8235C0.435427 11.8235 0.284699 11.8855 0.173567 11.9958C0.0624339 12.1061 0 12.2558 0 12.4118C0 12.5678 0.0624339 12.7174 0.173567 12.8277C0.284699 12.938 0.435427 13 0.592593 13H15.4074C15.5646 13 15.7153 12.938 15.8264 12.8277C15.9376 12.7174 16 12.5678 16 12.4118C16 12.2558 15.9376 12.1061 15.8264 11.9958C15.7153 11.8855 15.5646 11.8235 15.4074 11.8235H0.592593Z" fill="#CED0D6"/>
</svg>
