<svg width="32" height="32" viewBox="0 0 32 32" fill="none" xmlns="http://www.w3.org/2000/svg">
<path fill-rule="evenodd" clip-rule="evenodd" d="M26.9135 11.3482C26.6397 11.0741 26.2268 10.9695 25.8466 11.1079L24.074 11.787L24.8087 10.1432C24.9833 9.7578 24.8776 9.31024 24.6019 9.03425L22.1802 6.61015C21.9015 6.33113 21.5178 6.26461 21.1787 6.36644L20.2782 6.64081L20.5526 5.73823C20.6579 5.38669 20.5507 5.0122 20.3185 4.74658L18.6853 3.11173C18.3031 2.72908 17.6509 2.72938 17.2686 3.11203L10.7989 9.61527L10.7273 9.55257C10.3446 9.17526 9.6974 9.17669 9.31674 9.55686L7.94144 10.9059L7.93825 10.9092C6.77366 12.1041 6.54076 13.9412 7.41436 15.3987L9.25726 18.455C9.39677 18.6958 9.33831 19.0248 9.11302 19.2111L3.8595 23.2585L3.85868 23.2591C3.06924 23.8737 2.60071 24.7819 2.54216 25.7489C2.48369 26.7147 2.83441 27.6811 3.53701 28.3844C4.18186 29.0299 5.0598 29.3807 5.96515 29.3807L6.15778 29.3811L6.16975 29.3803C7.16546 29.3217 8.07274 28.8235 8.65837 28.0615L12.7015 22.8305C12.8877 22.6047 13.2164 22.5463 13.4568 22.6861L13.4577 22.6866L16.536 24.53L16.5369 24.5306C17.9656 25.4056 19.83 25.1727 20.9971 23.9768L22.3714 22.6286L22.3729 22.6271C22.5523 22.4475 22.6526 22.1735 22.6526 21.9323C22.6526 21.6597 22.5498 21.4146 22.3729 21.2374L22.324 21.1885L28.8242 14.6818L28.834 14.6681C28.9868 14.4539 29.092 14.2202 29.092 13.9438C29.092 13.6712 28.9892 13.426 28.8123 13.2489L26.9135 11.3482ZM4.51735 25.8555C4.54138 25.4484 4.73117 25.0885 5.07225 24.82L10.3 20.7712C11.345 19.9643 11.6139 18.5279 10.9283 17.3929L10.9277 17.3919L9.13995 14.3634C8.74592 13.6978 8.84576 12.8635 9.38397 12.3247L10.0377 11.6703L20.2349 21.9045L19.5805 22.5596C19.0425 23.0981 18.209 23.1977 17.5444 22.8039L14.4912 20.9591L14.488 20.9572C13.3558 20.3011 11.9232 20.5687 11.1167 21.5853L7.06953 26.8217C6.82846 27.1354 6.44159 27.3521 6.03574 27.376C5.62206 27.4004 5.21228 27.2537 4.92592 26.9671C4.63872 26.6796 4.49296 26.2963 4.51735 25.8555ZM19.0676 9.09778L21.1808 8.4449L22.6462 9.91177L21.2175 13.1164C21.046 13.4947 21.1167 13.9106 21.3885 14.2167C21.6729 14.5369 22.0955 14.5997 22.4636 14.4657L25.865 13.1889L26.6198 13.9444L20.9072 19.7152L12.2246 11.0238L17.9909 5.25172L18.4756 5.73695L17.8238 7.85104L17.8233 7.85258C17.718 8.20412 17.8252 8.57862 18.0573 8.84423L18.0669 8.85383C18.3457 9.13285 18.7286 9.19961 19.0676 9.09778Z" fill="#232533"/>
</svg>
