<?xml version="1.0" encoding="utf-8"?>
<!-- Generator: Adobe Illustrator 24.0.0, SVG Export Plug-In . SVG Version: 6.00 Build 0)  -->
<svg version="1.1" id="Layer_1" xmlns="http://www.w3.org/2000/svg" xmlns:xlink="http://www.w3.org/1999/xlink" x="0px" y="0px"
	 viewBox="0 0 16 16" style="enable-background:new 0 0 16 16;" xml:space="preserve">
<path d="M2.5,4h2V2.8c0-0.6,0.4-1,1-1h5c0.6,0,1,0.4,1,1V4h2C13.8,4,14,4.2,14,4.5V5c0,0.1-0.1,0.1-0.1,0.1h-0.9l-0.4,8.2
	c0,0.5-0.5,1-1,1H4.5c-0.5,0-1-0.4-1-1L3.1,5.1H2.1C2.1,5.1,2,5.1,2,5V4.5C2,4.2,2.2,4,2.5,4z M5.6,4h4.8V2.9H5.6V4z"/>
</svg>
