<svg width="24" height="24" viewBox="0 0 24 24" fill="none" xmlns="http://www.w3.org/2000/svg">
<path d="M11 15.3122L8.53246 12.8258C8.18345 12.4741 7.61072 12.4832 7.26171 12.8258C7.17875 12.9093 7.11293 13.0083 7.06802 13.1174C7.02312 13.2265 7 13.3435 7 13.4616C7 13.5797 7.02312 13.6966 7.06802 13.8057C7.11293 13.9148 7.17875 14.0139 7.26171 14.0973L11.3693 18.2363C11.4521 18.3199 11.5504 18.3862 11.6587 18.4315C11.7669 18.4767 11.883 18.5 12.0002 18.5C12.1174 18.5 12.2334 18.4767 12.3417 18.4315C12.45 18.3862 12.5483 18.3199 12.6311 18.2363L16.7387 14.0973C16.8215 14.0138 16.8872 13.9147 16.9321 13.8056C16.9769 13.6965 17 13.5796 17 13.4616C17 13.3435 16.9769 13.2266 16.9321 13.1175C16.8872 13.0084 16.8215 12.9093 16.7387 12.8258C16.6558 12.7423 16.5575 12.6761 16.4492 12.6309C16.341 12.5858 16.2249 12.5625 16.1078 12.5625C15.9906 12.5625 15.8746 12.5858 15.7663 12.6309C15.6581 12.6761 15.5597 12.7423 15.4769 12.8258L13 15.3216L13 6.375C13 5.82271 12.5523 5.375 12 5.375C11.4477 5.375 11 5.82271 11 6.375L11 15.3122Z" fill="#474952"/>
</svg>
