<?xml version="1.0" encoding="utf-8"?>
<!-- Generator: Adobe Illustrator 23.1.1, SVG Export Plug-In . SVG Version: 6.00 Build 0)  -->
<svg version="1.1" id="Layer_1" xmlns="http://www.w3.org/2000/svg" xmlns:xlink="http://www.w3.org/1999/xlink" x="0px" y="0px"
	 viewBox="0 0 24 24" style="enable-background:new 0 0 24 24;" xml:space="preserve">
<style type="text/css">
	.st0{fill:none;}
	.st1{fill:#222532;}
</style>
<path class="st0" d="M2,0h20c1.1,0,2,0.9,2,2v20c0,1.1-0.9,2-2,2H2c-1.1,0-2-0.9-2-2V2C0,0.9,0.9,0,2,0z"/>
<path class="st1" d="M17,20c-0.5,0-1-0.4-1-0.9c0,0,0-0.1,0-0.1v-9c0-0.5,0.4-1,0.9-1c0,0,0.1,0,0.1,0h2c0.5,0,1,0.4,1,0.9
	c0,0,0,0.1,0,0.1v9c0,0.5-0.4,1-0.9,1c0,0-0.1,0-0.1,0H17z M11,20c-0.5,0-1-0.4-1-0.9c0,0,0-0.1,0-0.1V5c0-0.5,0.4-1,0.9-1
	c0,0,0.1,0,0.1,0h2c0.5,0,1,0.4,1,0.9c0,0,0,0.1,0,0.1v14c0,0.5-0.4,1-0.9,1c0,0-0.1,0-0.1,0H11z M5,20c-0.5,0-1-0.4-1-0.9
	c0,0,0-0.1,0-0.1v-4c0-0.5,0.4-1,0.9-1c0,0,0.1,0,0.1,0h2c0.5,0,1,0.4,1,0.9c0,0,0,0.1,0,0.1v4c0,0.5-0.4,1-0.9,1c0,0-0.1,0-0.1,0H5
	z"/>
</svg>
