<svg xmlns="http://www.w3.org/2000/svg" width="24" height="24" viewBox="0 0 24 24"><defs><style>.a{fill:none;}.b{fill:#222532;}</style></defs><path class="a" d="M2,0H22a2,2,0,0,1,2,2V22a2,2,0,0,1-2,2H2a2,2,0,0,1-2-2V2A2,2,0,0,1,2,0Z"/><path class="b" d="M-481-8a.945.945,0,0,1-1-1v-9a.945.945,0,0,1,1-1h2a.945.945,0,0,1,1,1v9a.945.945,0,0,1-1,1Zm-6,0a.944.944,0,0,1-1-1V-23a.945.945,0,0,1,1-1h2a.945.945,0,0,1,1,1V-9a.944.944,0,0,1-1,1Zm-6,0a.945.945,0,0,1-1-1v-4a.945.945,0,0,1,1-1h2a.946.946,0,0,1,1,1v4a.945.945,0,0,1-1,1Z" transform="translate(498 28)"/></svg>