<?xml version="1.0" encoding="utf-8"?>
<!-- Generator: Adobe Illustrator 24.0.0, SVG Export Plug-In . SVG Version: 6.00 Build 0)  -->
<svg version="1.1" id="Layer_1" xmlns="http://www.w3.org/2000/svg" xmlns:xlink="http://www.w3.org/1999/xlink" x="0px" y="0px"
	 viewBox="0 0 24 24" style="enable-background:new 0 0 24 24;" xml:space="preserve">
<g id="Layer_2_1_">
</g>
<path d="M21,19.1V5.3h-9v13.8H21z M21,20.1h-9c-0.5,0-1-0.4-1-1V5.3c0-0.5,0.4-1,1-1h9c0.5,0,1,0.4,1,1v13.8
	C22,19.7,21.6,20.1,21,20.1z"/>
<path d="M19.6,17.7h-3.3v-1.4h3.3V17.7z"/>
<path d="M19.6,15.3h-3.3v-1.4h3.3V15.3z"/>
<path d="M19.6,13h-3.3v-1.4h3.3V13z"/>
<path d="M19.6,10.6l-3.3,0l0-1.5l3.3,0L19.6,10.6z"/>
<path d="M19.6,8.2h-3.3V6.8h3.3V8.2z"/>
<path d="M15.3,17.7H12v-1.4h3.3V17.7z"/>
<path d="M15.3,15.3H12v-1.4h3.3V15.3z"/>
<path d="M15.3,13H12v-1.4h3.3V13z"/>
<path d="M15.3,10.6H12V9.1h3.3V10.6z"/>
<path d="M15.3,8.2H12V6.8h3.3V8.2z"/>
<path d="M12.7,2.2L2.8,3.9C2.3,4,2,4.4,2,4.9v14.2c0,0.5,0.3,0.9,0.8,1l9.9,1.7c0.6,0.1,1.2-0.4,1.2-1V3.2
	C13.9,2.6,13.3,2.1,12.7,2.2z M8.8,16.2l-1-2.4l-0.1-0.2v0.1l-0.1,0.1l-0.9,2.3L5,16l1.7-3.7L4.8,8.5l1.6-0.1l1.1,2.4l1.1-2.6
	l1.8-0.1l-2,4.1l2.1,4.1L8.8,16.2z"/>
</svg>
