<svg width="25" height="24" viewBox="0 0 25 24" fill="none" xmlns="http://www.w3.org/2000/svg">
<g clip-path="url(#clip0)">
<path d="M18.9021 15.875H15.9287V17.1365H18.9021V15.875Z" fill="#222532"/>
<path d="M18.9021 13.7104H15.9287V14.9719H18.9021V13.7104Z" fill="#222532"/>
<path d="M18.9021 11.6411H15.9287V12.9026H18.9021V11.6411Z" fill="#222532"/>
<path d="M18.9021 9.38647H15.9287V10.738H18.9021V9.38647Z" fill="#222532"/>
<path d="M18.9021 7.31689H15.9287V8.57835H18.9021V7.31689Z" fill="#222532"/>
<path d="M15.0307 8.57453V7.31307H13.7693V4.06932C13.7693 3.52869 13.2286 3.07817 12.688 3.16828L3.76771 4.70005C3.31719 4.79015 3.04688 5.15057 3.04688 5.60109V18.3959C3.04688 18.8464 3.31719 19.2068 3.76771 19.2969L12.688 20.8287C13.2286 20.9188 13.7693 20.4683 13.7693 19.9277V17.1344H15.0307V15.873H13.7693V14.9719H15.0307V13.7105H13.7693V12.8995H15.0307V11.6381H13.7693V10.737H15.0307V9.38546H13.7693V8.57453H15.0307ZM9.17396 15.7829L8.27292 13.6204L8.18281 13.4402V13.5303L8.09271 13.6204L7.28177 15.6928L5.75 15.6027L7.28177 12.2688L5.56979 8.84484L7.01146 8.75473L8.0026 10.9172L8.99375 8.57453L10.6156 8.48442L8.81354 12.1787L10.7057 15.873L9.17396 15.7829Z" fill="#222532"/>
<path fill-rule="evenodd" clip-rule="evenodd" d="M20.1611 5.0625H13.7637V5.96354H20.1611V18.3979H13.7637V19.299H20.1611C20.7017 19.299 21.0621 18.9385 21.0621 18.3979V5.96354C21.0621 5.42292 20.6116 5.0625 20.1611 5.0625Z" fill="#222532"/>
</g>
<defs>
<clipPath id="clip0">
<rect width="24" height="24" fill="white" transform="translate(0.0537109)"/>
</clipPath>
</defs>
</svg>
