<?xml version="1.0" encoding="utf-8"?>
<!-- Generator: Adobe Illustrator 24.0.0, SVG Export Plug-In . SVG Version: 6.00 Build 0)  -->
<svg version="1.1" id="Layer_1" xmlns="http://www.w3.org/2000/svg" xmlns:xlink="http://www.w3.org/1999/xlink" x="0px" y="0px"
	 viewBox="0 0 24 24" style="enable-background:new 0 0 24 24;" xml:space="preserve">
<style type="text/css">
	.st0{fill-rule:evenodd;clip-rule:evenodd;fill:black;}
</style>
<rect x="16.3" y="16.3" width="3.3" height="1.4"/>
<rect x="16.3" y="13.9" width="3.3" height="1.4"/>
<rect x="16.3" y="11.6" width="3.3" height="1.4"/>
<rect x="16.3" y="9.1" width="3.3" height="1.5"/>
<rect x="16.3" y="6.8" width="3.3" height="1.4"/>
<path d="M15.3,8.2V6.8h-1.4V4.3V3.2c0-0.6-0.6-1.1-1.2-1L2.8,3.9C2.3,4,2,4.4,2,4.9v14.2c0,0.5,0.3,0.9,0.8,1l9.9,1.7
	c0.6,0.1,1.2-0.4,1.2-1v-0.7v-2.4h1.4v-1.4h-1.4v-1h1.4v-1.4h-1.4V13h1.4v-1.4h-1.4v-1h1.4V9.1h-1.4V8.2H15.3z M8.8,16.2l-1-2.4
	l-0.1-0.2v0.1l-0.1,0.1l-0.9,2.3L5,16l1.7-3.7L4.8,8.5l1.6-0.1l1.1,2.4l1.1-2.6l1.8-0.1l-2,4.1l2.1,4.1L8.8,16.2z"/>
<path class="st0" d="M21,4.3h-7.1v1H21v13.8h-7.1v1H21c0.6,0,1-0.4,1-1V5.3C22,4.7,21.5,4.3,21,4.3z"/>
<path class="st0" d="Mz16.4,5"/>
<path class="st0" d="M16.4,18.8"/>
</svg>
