<?xml version="1.0" encoding="utf-8"?>
<!-- Generator: Adobe Illustrator 24.0.0, SVG Export Plug-In . SVG Version: 6.00 Build 0)  -->
<svg version="1.1" id="Layer_1" xmlns="http://www.w3.org/2000/svg" xmlns:xlink="http://www.w3.org/1999/xlink" x="0px" y="0px"
	 viewBox="0 0 25 25" style="enable-background:new 0 0 25 25;" xml:space="preserve">
<style type="text/css">
	.st0{fill:#222532;}
</style>
<path class="st0" d="M18.4,8l-2.8-1.7L11,13.3l2.8,1.7L18.4,8z M10.6,15.4L10.5,17l1.5-0.7l1.4-0.7l-2.7-1.6L10.6,15.4z M19.1,5.5
	l-1.5-0.9c-0.2-0.1-0.4-0.1-0.6-0.1c-0.2,0-0.4,0.2-0.5,0.3L16,5.7l2.8,1.7l0.6-0.9C19.6,6.2,19.5,5.7,19.1,5.5L19.1,5.5z
	 M17.1,18.6c0,0.2-0.1,0.3-0.3,0.3H7.3c-0.1,0-0.2,0-0.2-0.1C7.1,18.7,7,18.6,7,18.6V7.9c0-0.1,0-0.1,0.1-0.2
	c0.1-0.1,0.1-0.1,0.2-0.1l5.9,0l1.1-1.5H7.5c-1.1,0-2,0.9-2,1.9v10.4c0,1.1,0.9,1.9,2,1.9h9c1.1,0,2-0.9,2-1.9V9.8l-1.5,2.6V18.6
	L17.1,18.6z"/>
</svg>
