<?xml version="1.0" encoding="utf-8"?>
<!-- Generator: Adobe Illustrator 24.0.0, SVG Export Plug-In . SVG Version: 6.00 Build 0)  -->
<svg version="1.1" id="Layer_1" xmlns="http://www.w3.org/2000/svg" xmlns:xlink="http://www.w3.org/1999/xlink" x="0px" y="0px"
	 viewBox="0 0 24 24" style="enable-background:new 0 0 24 24;" xml:space="preserve">
<style type="text/css">
	.st0{clip-path:url(#SVGID_2_);}
	.st1{fill:#222532;}
</style>
<g>
	<defs>
		<rect id="SVGID_1_" width="24" height="24"/>
	</defs>
	<clipPath id="SVGID_2_">
		<use xlink:href="#SVGID_1_"  style="overflow:visible;"/>
	</clipPath>
	<g class="st0">
		<path class="st1" d="M19.4,7.3l-2.7-2.7c-0.4-0.3-0.8-0.5-1.3-0.5c-0.5,0-1,0.2-1.3,0.5l-9,9c-0.3,0.3-0.5,0.8-0.6,1.2L4,18.9
			c0,0.1,0,0.3,0.1,0.4c0.1,0.1,0.1,0.3,0.2,0.4c0.1,0.1,0.2,0.2,0.3,0.2C4.7,20,4.9,20,5,20h0.1l4.2-0.4c0.5,0,0.9-0.2,1.2-0.6l9-9
			C19.8,9.7,20,9.2,20,8.7C20,8.2,19.8,7.7,19.4,7.3z M9.3,18.1l-3.7,0.4L6,14.7l5.8-5.7l3.2,3.3L9.3,18.1z M16.1,11.2l-3.2-3.2
			l2.3-2.2l3.2,3.2L16.1,11.2z"/>
	</g>
</g>
</svg>
