<?xml version="1.0" encoding="utf-8"?>
<!-- Generator: Adobe Illustrator 24.0.0, SVG Export Plug-In . SVG Version: 6.00 Build 0)  -->
<svg version="1.1" id="Layer_1" xmlns="http://www.w3.org/2000/svg" xmlns:xlink="http://www.w3.org/1999/xlink" x="0px" y="0px"
	 viewBox="0 0 16 16" style="enable-background:new 0 0 16 16;" xml:space="preserve">
<style type="text/css">
	.st0{fill-rule:evenodd;clip-rule:evenodd;}
</style>
<path class="st0" d="M3.3,4.5c-0.2,0-0.4,0.1-0.6,0.2S2.5,5.1,2.5,5.3v7.3c0,0.2,0.1,0.4,0.2,0.6c0.2,0.2,0.4,0.2,0.6,0.2h7.3
	c0.2,0,0.4-0.1,0.6-0.2c0.2-0.2,0.2-0.4,0.2-0.6v-4c0-0.3,0.2-0.5,0.5-0.5s0.5,0.2,0.5,0.5v4c0,0.5-0.2,1-0.5,1.3
	c-0.3,0.3-0.8,0.5-1.3,0.5H3.3c-0.5,0-1-0.2-1.3-0.5c-0.3-0.3-0.5-0.8-0.5-1.3V5.3c0-0.5,0.2-1,0.5-1.3s0.8-0.5,1.3-0.5h4
	c0.3,0,0.5,0.2,0.5,0.5S7.6,4.5,7.3,4.5H3.3z"/>
<path class="st0" d="M9.5,2c0-0.3,0.2-0.5,0.5-0.5h4c0.3,0,0.5,0.2,0.5,0.5v4c0,0.3-0.2,0.5-0.5,0.5S13.5,6.3,13.5,6V2.5H10
	C9.7,2.5,9.5,2.3,9.5,2z"/>
<path class="st0" d="M14.4,1.6c0.2,0.2,0.2,0.5,0,0.7L7,9.7c-0.2,0.2-0.5,0.2-0.7,0C6.1,9.5,6.1,9.2,6.3,9l7.3-7.3
	C13.8,1.5,14.2,1.5,14.4,1.6z"/>
</svg>
