<?xml version="1.0" encoding="utf-8"?>
<!-- Generator: Adobe Illustrator 24.0.0, SVG Export Plug-In . SVG Version: 6.00 Build 0)  -->
<svg version="1.1" id="Layer_1" xmlns="http://www.w3.org/2000/svg" xmlns:xlink="http://www.w3.org/1999/xlink" x="0px" y="0px"
	 viewBox="0 0 24 24" style="enable-background:new 0 0 24 24;" xml:space="preserve">
<style type="text/css">
	.st0{fill:#FFFFFF;filter:url(#Adobe_OpacityMaskFilter);}
	.st1{mask:url(#path-2-inside-1_2_);}
</style>
<g id="ic__x2F__excel">
	<g id="Group_72">
		<g id="Rectangle_201">
			<defs>
				<filter id="Adobe_OpacityMaskFilter" filterUnits="userSpaceOnUse" x="11" y="2.9" width="12.5" height="18.7">
					<feColorMatrix  type="matrix" values="1 0 0 0 0  0 1 0 0 0  0 0 1 0 0  0 0 0 1 0"/>
				</filter>
			</defs>
			<mask maskUnits="userSpaceOnUse" x="11" y="2.9" width="12.5" height="18.7" id="path-2-inside-1_2_">
				<path class="st0" d="M13.5,4.4H21c0.6,0,1,0.4,1,1v13.7c0,0.6-0.4,1-1,1h-7.5c-0.6,0-1-0.4-1-1V5.4C12.5,4.8,12.9,4.4,13.5,4.4z
					"/>
			</mask>
			<g class="st1">
				<path d="M21,21.6h-7.5c-1.4,0-2.5-1.1-2.5-2.5V5.4c0-1.4,1.1-2.5,2.5-2.5H21c1.4,0,2.5,1.1,2.5,2.5v13.7
					C23.5,20.5,22.4,21.6,21,21.6z M14,18.6h6.5V5.9H14V18.6z"/>
			</g>
		</g>
		<g id="Vector">
			<path d="M19.6,17.7h-3.3v-1.4h3.3V17.7z"/>
		</g>
		<g id="Vector_2">
			<path d="M19.6,15.3h-3.3v-1.4h3.3V15.3z"/>
		</g>
		<g id="Vector_3">
			<path d="M19.6,13h-3.3v-1.4h3.3V13z"/>
		</g>
		<g id="Vector_4">
			<path d="M19.6,10.6h-3.3V9.1h3.3V10.6z"/>
		</g>
		<g id="Vector_5">
			<path d="M19.6,8.2h-3.3V6.8h3.3V8.2z"/>
		</g>
		<g id="Vector_6">
			<path d="M15.3,17.7h-1.8v-1.4h1.8V17.7z"/>
		</g>
		<g id="Vector_7">
			<path d="M15.3,15.3h-1.8v-1.4h1.8V15.3z"/>
		</g>
		<g id="Vector_8">
			<path d="M15.3,13h-1.8v-1.4h1.8V13z"/>
		</g>
		<g id="Vector_9">
			<path d="M15.3,10.6h-1.8V9.1h1.8V10.6z"/>
		</g>
		<g id="Vector_10">
			<path d="M15.3,8.2h-1.8V6.8h1.8V8.2z"/>
		</g>
		<g id="Vector_11">
			<path d="M12.9,21.8c-0.1,0-0.1,0-0.2,0l-9.9-1.7C2.3,20,2,19.6,2,19.1V4.9c0-0.5,0.3-0.9,0.8-1l9.9-1.7c0.3-0.1,0.6,0,0.8,0.2
				c0.2,0.2,0.4,0.5,0.4,0.8v17.6c0,0.3-0.1,0.6-0.4,0.8C13.4,21.7,13.1,21.8,12.9,21.8z M13,20.3L13,20.3C13,20.3,13,20.3,13,20.3z
				 M3.5,18.7l8.9,1.6V3.8L3.5,5.3V18.7z"/>
		</g>
		<g id="Vector_12">
			<path d="M10.5,16.3l-1.7-0.1l-1-2.4l-0.1-0.2l0-0.2l0-0.2l0-0.1c0,0.1,0,0.1,0,0.2l0,0.2l0,0.2l-0.1,0.1l-0.9,2.3L5,16l1.7-3.7
				L4.8,8.5l1.6-0.1l1.1,2.4l0,0.2l0,0.1l0,0.1v0.1l0-0.2l0-0.1l0-0.1l0-0.1l1.1-2.6l1.8-0.1l-2,4.1L10.5,16.3z"/>
		</g>
	</g>
</g>
</svg>
