<svg width="25" height="25" viewBox="0 0 25 25" fill="none" xmlns="http://www.w3.org/2000/svg">
<path d="M18.3801 8.0298L15.5712 6.35791L10.998 13.2619L13.8051 14.9322L18.3801 8.0298ZM10.5696 15.3849L10.5076 16.9535L11.9723 16.2189L13.3344 15.5376L10.6259 13.9245L10.5696 15.3849ZM19.1295 5.48982L17.6613 4.6146C17.4838 4.509 17.2692 4.47457 17.0649 4.51887C16.8605 4.56317 16.6831 4.68258 16.5716 4.85085L15.992 5.72333L18.7991 7.39467L19.3787 6.52328C19.6106 6.17166 19.5005 5.70849 19.1295 5.48873V5.48982ZM17.0649 18.5754C17.0649 18.7265 16.9345 18.8501 16.7751 18.8501H7.32375C7.24689 18.8501 7.17317 18.8211 7.11882 18.7696C7.06447 18.7181 7.03394 18.6482 7.03394 18.5754V7.94642C7.03394 7.87356 7.06447 7.80368 7.11882 7.75217C7.17317 7.70065 7.24689 7.6717 7.32375 7.6717L13.2052 7.70391L14.2972 6.21506H7.52868C6.41001 6.21506 5.5 7.07765 5.5 8.13803V18.577C5.5 19.6374 6.41001 20.5 7.52868 20.5H16.5415C17.6602 20.5 18.5702 19.6374 18.5702 18.577V9.80662L17.0649 12.429V18.577V18.5754Z" fill="#222532"/>
</svg>
