<?xml version="1.0" encoding="UTF-8" standalone="no"?>
<!DOCTYPE svg PUBLIC "-//W3C//DTD SVG 1.1//EN" "http://www.w3.org/Graphics/SVG/1.1/DTD/svg11.dtd">
<svg width="100%" height="100%" viewBox="0 0 24 24" version="1.1" xmlns="http://www.w3.org/2000/svg" xmlns:xlink="http://www.w3.org/1999/xlink" xml:space="preserve" xmlns:serif="http://www.serif.com/" style="fill-rule:evenodd;clip-rule:evenodd;stroke-linejoin:round;stroke-miterlimit:2;">
    <g>
        <rect x="0" y="0" width="24" height="24" style="fill:none;"/>
        <rect x="16.3" y="16.3" width="3.3" height="1.4" style="fill:rgb(32,36,51);"/>
        <rect x="16.3" y="13.9" width="3.3" height="1.4" style="fill:rgb(32,36,51);"/>
        <rect x="16.3" y="11.6" width="3.3" height="1.4" style="fill:rgb(32,36,51);"/>
        <rect x="16.3" y="9.1" width="3.3" height="1.5" style="fill:rgb(32,36,51);"/>
        <rect x="16.3" y="6.8" width="3.3" height="1.4" style="fill:rgb(32,36,51);"/>
        <path d="M15.3,8.2L15.3,6.8L13.9,6.8L13.9,3.2C13.9,2.6 13.3,2.1 12.7,2.2L2.8,3.9C2.3,4 2,4.4 2,4.9L2,19.1C2,19.6 2.3,20 2.8,20.1L12.7,21.8C13.3,21.9 13.9,21.4 13.9,20.8L13.9,17.7L15.3,17.7L15.3,16.3L13.9,16.3L13.9,15.3L15.3,15.3L15.3,13.9L13.9,13.9L13.9,13L15.3,13L15.3,11.6L13.9,11.6L13.9,10.6L15.3,10.6L15.3,9.1L13.9,9.1L13.9,8.2L15.3,8.2ZM8.8,16.2L7.8,13.8L7.7,13.6L7.7,13.7L7.6,13.8L6.7,16.1L5,16L6.7,12.3L4.8,8.5L6.4,8.4L7.5,10.8L8.6,8.2L10.4,8.1L8.4,12.2L10.5,16.3L8.8,16.2Z" style="fill:rgb(32,36,51);fill-rule:nonzero;"/>
        <path d="M21,4.3L13.9,4.3L13.9,5.3L21,5.3L21,19.1L13.9,19.1L13.9,20.1L21,20.1C21.6,20.1 22,19.7 22,19.1L22,5.3C22,4.7 21.5,4.3 21,4.3Z" style="fill:rgb(32,36,51);"/>
    </g>
</svg>
