<svg version="1.1" id="Layer_1" xmlns="http://www.w3.org/2000/svg" xmlns:xlink="http://www.w3.org/1999/xlink" x="0px" y="0px"
	 viewBox="0 0 24 24" style="enable-background:new 0 0 24 24;" xml:space="preserve">
<path d="M21.0481 19.1433V5.33336H11.9998V19.1433H21.0481ZM21.0481 20.0952H11.9998C11.4738 20.0952 11.0479 19.6692 11.0479 19.1433V5.33336C11.0479 4.80739 11.4738 4.38142 11.9998 4.38142H21.0481C21.574 4.38142 22 4.80739 22 5.33336V19.1433C22 19.6692 21.574 20.0952 21.0481 20.0952Z" fill="black"/>
<path d="M19.6194 17.7146H16.2856V16.2857H19.6194V17.7146Z" fill="black"/>
<path d="M19.6194 15.3337H16.2856V13.9049H19.6194V15.3337Z" fill="black"/>
<path d="M19.6194 12.9519H16.2856V11.523H19.6194V12.9519Z" fill="black"/>
<path d="M19.6194 10.5713H16.2856V9.14241H19.6194V10.5713Z" fill="black"/>
<path d="M19.6194 8.19019H16.2856V6.76131H19.6194V8.19019Z" fill="black"/>
<path d="M15.3337 17.7146H12V16.2857H15.3337V17.7146Z" fill="black"/>
<path d="M15.3337 15.3337H12V13.9049H15.3337V15.3337Z" fill="black"/>
<path d="M15.3337 12.9519H12V11.523H15.3337V12.9519Z" fill="black"/>
<path d="M15.3337 10.5713H12V9.14241H15.3337V10.5713Z" fill="black"/>
<path d="M15.3337 8.19019H12V6.76131H15.3337V8.19019Z" fill="black"/>
<path fill-rule="evenodd" clip-rule="evenodd" d="M13.9051 20.8098C13.9051 21.4311 13.3445 21.902 12.7325 21.7948L2.82744 20.0596C2.34901 19.9758 2 19.5603 2 19.0746V4.92548C2 4.43977 2.34902 4.02429 2.82744 3.94048L12.7325 2.20523C13.3445 2.09802 13.9051 2.56894 13.9051 3.19023V20.8098Z" fill="black"/>
<path d="M10.5051 16.2856L8.84357 16.1856L7.82913 13.8048L7.76278 13.5904L7.7147 13.4289L7.67143 13.2721L7.63778 13.1433C7.63778 13.2067 7.62336 13.2673 7.59451 13.324L7.55124 13.4904L7.50316 13.6471L7.45124 13.7904L6.58006 16.052L4.97618 15.952L6.68584 12.2471L4.79541 8.54221L6.36179 8.44701L7.41374 10.8759L7.46181 11.0423L7.50028 11.1903L7.53393 11.3144V11.4144L7.56759 11.2384L7.60124 11.0903L7.63009 10.9759L7.65893 10.8951L8.75415 8.3047L10.5734 8.19028L8.5253 12.2711L10.5051 16.2856Z" fill="white"/>
</svg>
