<svg width="12" height="12" viewBox="0 0 12 12" fill="none" xmlns="http://www.w3.org/2000/svg">
<g clip-path="url(#clip0)">
<path d="M11.3854 4.01933L8.10841 3.52017L6.64374 0.417433C6.38131 -0.135624 5.62094 -0.142654 5.35626 0.417433L3.89159 3.52017L0.614589 4.01933C0.0269265 4.10838 -0.208587 4.86532 0.21758 5.29886L2.58842 7.71263L2.02767 11.1224C1.92674 11.7387 2.54804 12.2004 3.06842 11.9121L6 10.3021L8.93159 11.9121C9.45196 12.198 10.0733 11.7387 9.97233 11.1224L9.41158 7.71263L11.7824 5.29886C12.2086 4.86532 11.9731 4.10838 11.3854 4.01933V4.01933ZM8.25645 7.31892L8.78803 10.5623L6 9.03199L3.21197 10.5623L3.74356 7.31892L1.48711 5.02233L4.60486 4.54895L6 1.59619L7.39514 4.54895L10.5129 5.02233L8.25645 7.31892V7.31892Z" fill="#A7A9B2"/>
</g>
<defs>
<clipPath id="clip0">
<rect width="12" height="12" fill="white"/>
</clipPath>
</defs>
</svg>
