<?xml version="1.0" encoding="utf-8"?>
<!-- Generator: Adobe Illustrator 23.1.1, SVG Export Plug-In . SVG Version: 6.00 Build 0)  -->
<svg version="1.1" id="Layer_1" xmlns="http://www.w3.org/2000/svg" xmlns:xlink="http://www.w3.org/1999/xlink" x="0px" y="0px"
	 viewBox="0 0 32 32" style="enable-background:new 0 0 32 32;" xml:space="preserve">
<style type="text/css">
	.st0{fill:none;}
	.st1{fill:#222532;}
</style>
<path class="st0" d="M2,0h28c1.1,0,2,0.9,2,2v28c0,1.1-0.9,2-2,2H2c-1.1,0-2-0.9-2-2V2C0,0.9,0.9,0,2,0z"/>
<path class="st1" d="M6,27c0.1-4.6,3.9-8.3,8.6-8.3h2.9c4.6-0.1,8.5,3.6,8.6,8.3H6z M10.3,11.9v-1.4C10.4,7.4,12.9,5,16,5
	c3.1,0,5.6,2.4,5.7,5.5v1.4c-0.1,3.1-2.6,5.5-5.7,5.5C12.9,17.4,10.4,15,10.3,11.9z"/>
</svg>
