<?xml version="1.0" encoding="utf-8"?>
<!-- Generator: Adobe Illustrator 23.1.1, SVG Export Plug-In . SVG Version: 6.00 Build 0)  -->
<svg version="1.1" id="Layer_1" xmlns="http://www.w3.org/2000/svg" xmlns:xlink="http://www.w3.org/1999/xlink" x="0px" y="0px"
	 viewBox="0 0 32 32" style="enable-background:new 0 0 32 32;" xml:space="preserve">
<style type="text/css">
	.st0{fill:none;}
	.st1{fill:#222532;}
</style>
<path class="st0" d="M2,0h28c1.1,0,2,0.9,2,2v28c0,1.1-0.9,2-2,2H2c-1.1,0-2-0.9-2-2V2C0,0.9,0.9,0,2,0z"/>
<g transform="translate(5 5)">
	<path class="st1" d="M3.3,3.3C5.3,1.1,8.1-0.1,11,0c2.9-0.1,5.7,1.1,7.7,3.3c2.2,2,3.4,4.8,3.3,7.7c0.1,2.9-1.1,5.7-3.3,7.7
		c-2,2.2-4.8,3.4-7.7,3.3c-2.9,0.1-5.7-1.1-7.7-3.3C1.2,16.7,0,13.9,0,11C-0.1,8.1,1.1,5.3,3.3,3.3z M12.5,19.8
		c0.7,0,1.7-0.5,2.8-1.6c0.8-1.2,1.2-2.5,1.3-3.8c0-0.8-0.3-1.6-0.9-2.2C15,11.4,14.1,11,13.2,11h-1.8c-0.6,0-1.1-0.2-1.6-0.4
		c-0.4-0.3-0.6-0.8-0.6-1.3c0-0.3,0.1-0.6,0.4-0.7c0.2-0.2,0.5-0.3,0.7-0.4c0.4,0,0.7,0.2,0.9,0.6c0.4,0.2,0.6,0.4,0.7,0.4
		c0.3,0,0.5,0,0.7-0.2c0.1-0.2,0.2-0.5,0.2-0.7c-0.1-0.7-0.4-1.4-0.9-1.8c0.6-1.1,0.9-2.3,0.9-3.5c0-0.2-0.2-0.4-0.4-0.4
		c-0.5-0.2-1-0.3-1.5-0.4c-1.7,0-3.3,0.5-4.8,1.5C5.2,4.6,4.5,5.9,4.6,7.3c0,1.3,0.5,2.6,1.5,3.5c0.9,0.9,2.2,1.5,3.5,1.5l0,0V13
		c0,0.7,0.2,1.4,0.7,1.8c0.4,0.6,1,1,1.6,1.1v3.3c0,0.2,0,0.2,0.2,0.4S12.3,19.8,12.5,19.8z"/>
</g>
</svg>
