<?xml version="1.0" encoding="utf-8"?>
<!-- Generator: Adobe Illustrator 24.0.0, SVG Export Plug-In . SVG Version: 6.00 Build 0)  -->
<svg version="1.1" id="Layer_1" xmlns="http://www.w3.org/2000/svg" xmlns:xlink="http://www.w3.org/1999/xlink" x="0px" y="0px"
	 viewBox="0 0 24 24" style="enable-background:new 0 0 24 24;" xml:space="preserve">
<style type="text/css">
	.st0{fill:#FFFFFF;}
</style>
<polygon class="st0" points="13.2,17.5 15,17.1 13.7,15.7 "/>
<g>
	<path class="st0" d="M22.7,11c-0.1-0.2-0.2-0.3-0.3-0.4l-2.2-2.2c-0.1-0.1-0.3-0.2-0.4-0.3S19.4,8,19.3,8S19.1,8,19,8.1V7
		c0-0.9-0.7-1.7-1.6-1.7H15V4.1c0-0.3-0.2-0.5-0.5-0.5H14c-0.3,0-0.5,0.2-0.5,0.5v1.2h-3.1V4.1c0-0.3-0.2-0.5-0.5-0.5H9.3
		C9,3.6,8.8,3.8,8.8,4.1v1.2H6.5C5.6,5.3,4.9,6,4.9,7v11.7c0,0.9,0.7,1.7,1.6,1.7h10.9c0.9,0,1.6-0.8,1.6-1.7v-2.8l3.5-3.5
		c0.1-0.1,0.2-0.3,0.3-0.4c0.1-0.2,0.1-0.3,0.1-0.5S22.7,11.2,22.7,11z M8,8.6h7.8v1.7H8V8.6z M8,12h3.9v1.7H8V12z M21.7,11.6
		c0,0,0,0.1-0.1,0.1l-6,6l0,0l0,0l-3,0.8l0,0c-0.1,0-0.1,0-0.2,0c-0.1,0-0.1,0-0.2-0.1c0,0-0.1-0.1-0.1-0.2s0-0.1,0-0.2l0.8-3l0,0
		l0,0l0,0l0,0l5.9-5.9l0,0H19L19.1,9h0.1h0.1c0,0,0.1,0,0.1,0.1l2.2,2.2l0.1,0.1L21.7,11.6C21.8,11.6,21.8,11.6,21.7,11.6z"/>
</g>
</svg>
