<?xml version="1.0" encoding="utf-8"?>
<!-- Generator: Adobe Illustrator 24.0.0, SVG Export Plug-In . SVG Version: 6.00 Build 0)  -->
<svg version="1.1" id="Layer_1" xmlns="http://www.w3.org/2000/svg" xmlns:xlink="http://www.w3.org/1999/xlink" x="0px" y="0px"
	 viewBox="0 0 24 24" style="enable-background:new 0 0 24 24;" xml:space="preserve">
<path d="M21.5,6l-5.6-3.6c-0.1-0.1-0.4-0.1-0.5-0.1c-0.1,0-0.4,0.1-0.5,0.2l-3.2,2.7L8.5,2.5C8.4,2.4,8.1,2.3,8,2.3
	c-0.1,0-0.3,0.1-0.4,0.1L2,6C1.7,6.2,1.6,6.3,1.6,6.7C1.5,7,1.6,7.3,1.8,7.4L5,10.1l-2.6,2.1c-0.1,0.1-0.2,0.2-0.2,0.3
	c-0.1,0.1-0.1,0.2-0.1,0.3c0,0.3,0.1,0.6,0.3,0.7l2.4,1.6v3c0,0.2,0.1,0.5,0.3,0.7l6.2,3.7c0.1,0.1,0.1,0.1,0.3,0.1h0.2
	c0.2,0,0.3,0,0.5-0.1l6.3-3.7c0.2-0.1,0.4-0.3,0.4-0.7v-2.6c0-0.2-0.1-0.4-0.2-0.5l2.4-1.6c0.3-0.1,0.3-0.4,0.2-0.7
	c0-0.2-0.1-0.4-0.3-0.7L18.5,10l3-2.6c0.2-0.1,0.3-0.4,0.3-0.7C21.8,6.4,21.7,6.1,21.5,6z M17.3,11.1l2,1.7l-4,2.6l-2.1-1.7
	L17.3,11.1z M12.6,15.4l2.2,1.8c0.1,0.1,0.3,0.1,0.5,0.1c0.1,0,0.3,0,0.5-0.1l1.4-1v1.5l-4.6,2.7V15.4z M17.3,9.1l-4.1-2.8l2.4-2.1
	l4.1,2.7L17.3,9.1z M15.8,10l-4,2.6l-4-2.6l4-2.7L15.8,10z M10.3,13.8l-2.1,1.7l-3.9-2.7l2-1.7L10.3,13.8z M6.4,16.2l1.3,1
	c0.1,0.1,0.2,0.1,0.4,0h0.4c0.1,0,0.1,0,0.2-0.1c0,0,0,0,0,0h0l2.3-1.8v5l-4.6-2.7V16.2z M3.8,6.9l4.1-2.7l2.4,2.1L6.2,9.1L3.8,6.9z
	"/>
</svg>
