<?xml version="1.0" encoding="utf-8"?>
<!-- Generator: Adobe Illustrator 23.1.1, SVG Export Plug-In . SVG Version: 6.00 Build 0)  -->
<svg version="1.1" id="Layer_1" xmlns="http://www.w3.org/2000/svg" xmlns:xlink="http://www.w3.org/1999/xlink" x="0px" y="0px"
	 viewBox="0 0 24 24" style="enable-background:new 0 0 24 24;" xml:space="preserve">
<style type="text/css">
	.st0{fill:none;}
	.st1{fill:#222532;}
</style>
<path class="st0" d="M2,0h20c1.1,0,2,0.9,2,2v20c0,1.1-0.9,2-2,2H2c-1.1,0-2-0.9-2-2V2C0,0.9,0.9,0,2,0z"/>
<path class="st1" d="M16,20v-2h-2v-2h2v-2h2v2h2v2h-2v2H16z M4,20v-1c0-2.7,2.2-5,4.9-5c0,0,0.1,0,0.1,0h3v2H9c-1.3,0-2.4,0.8-2.8,2
	H12v2H4z M7,9V8c0-2.2,1.8-4,4-4c2.2,0,4,1.8,4,4v1c0,2.2-1.8,4-4,4C8.8,13,7,11.2,7,9z M9,8v1c0,1.1,0.9,2,2,2c1.1,0,2-0.9,2-2V8
	c0-1.1-0.9-2-2-2C9.9,6,9,6.9,9,8z"/>
</svg>
