<?xml version="1.0" encoding="utf-8"?>
<!-- Generator: Adobe Illustrator 24.0.0, SVG Export Plug-In . SVG Version: 6.00 Build 0)  -->
<svg version="1.1" id="Layer_1" xmlns="http://www.w3.org/2000/svg" xmlns:xlink="http://www.w3.org/1999/xlink" x="0px" y="0px"
	 viewBox="0 0 24 24" style="enable-background:new 0 0 24 24;" xml:space="preserve">
<style type="text/css">
	.st0{clip-path:url(#SVGID_2_);}
</style>
<g>
	<defs>
		<path id="SVGID_1_" d="M0,22c0,1.1,0.9,2,2,2h20c1.1,0,2-0.9,2-2V2c0-1.1-0.9-2-2-2H2C0.9,0,0,0.9,0,2V22z"/>
	</defs>
	<clipPath id="SVGID_2_">
		<use xlink:href="#SVGID_1_"  style="overflow:visible;"/>
	</clipPath>
	<g class="st0">
		<path d="M6.5,16.8h-2c-0.1,0-0.3,0.1-0.4,0.2C4.1,17.1,4,17.2,4,17.3v2.1c0,0.1,0.1,0.3,0.1,0.4C4.2,19.9,4.4,20,4.5,20h2
			c0.1,0,0.3-0.1,0.4-0.2C6.9,19.7,7,19.6,7,19.5v-2.1c0-0.1-0.1-0.3-0.1-0.4C6.8,16.9,6.6,16.8,6.5,16.8z M6.5,4h-2
			C4.4,4,4.2,4.1,4.1,4.2C4.1,4.3,4,4.4,4,4.5v2.1C4,6.8,4.1,6.9,4.1,7c0.1,0.1,0.2,0.2,0.4,0.2h2c0.1,0,0.3-0.1,0.4-0.2
			C6.9,6.9,7,6.8,7,6.7V4.5c0-0.1-0.1-0.3-0.1-0.4C6.8,4.1,6.6,4,6.5,4z M6.5,10.4h-2c-0.1,0-0.3,0.1-0.4,0.2
			C4.1,10.7,4,10.8,4,10.9v2.1c0,0.1,0.1,0.3,0.1,0.4c0.1,0.1,0.2,0.2,0.4,0.2h2c0.1,0,0.3-0.1,0.4-0.2C6.9,13.3,7,13.2,7,13.1v-2.1
			c0-0.1-0.1-0.3-0.1-0.4C6.8,10.5,6.6,10.4,6.5,10.4z M19.5,17.3h-10c-0.1,0-0.3,0.1-0.4,0.2C9.1,17.6,9,17.7,9,17.9v1.1
			c0,0.1,0.1,0.3,0.1,0.4c0.1,0.1,0.2,0.2,0.4,0.2h10c0.1,0,0.3-0.1,0.4-0.2c0.1-0.1,0.1-0.2,0.1-0.4v-1.1c0-0.1-0.1-0.3-0.1-0.4
			C19.8,17.4,19.6,17.3,19.5,17.3z M19.5,4.5h-10c-0.1,0-0.3,0.1-0.4,0.2S9,4.9,9,5.1v1.1c0,0.1,0.1,0.3,0.1,0.4s0.2,0.2,0.4,0.2h10
			c0.1,0,0.3-0.1,0.4-0.2C19.9,6.4,20,6.3,20,6.1V5.1c0-0.1-0.1-0.3-0.1-0.4C19.8,4.6,19.6,4.5,19.5,4.5z M19.5,10.9h-10
			c-0.1,0-0.3,0.1-0.4,0.2C9.1,11.2,9,11.3,9,11.5v1.1c0,0.1,0.1,0.3,0.1,0.4c0.1,0.1,0.2,0.2,0.4,0.2h10c0.1,0,0.3-0.1,0.4-0.2
			c0.1-0.1,0.1-0.2,0.1-0.4v-1.1c0-0.1-0.1-0.3-0.1-0.4C19.8,11,19.6,10.9,19.5,10.9z"/>
	</g>
</g>
</svg>
