<?xml version="1.0" encoding="utf-8"?>
<!-- Generator: Adobe Illustrator 23.1.1, SVG Export Plug-In . SVG Version: 6.00 Build 0)  -->
<svg version="1.1" id="Layer_1" xmlns="http://www.w3.org/2000/svg" xmlns:xlink="http://www.w3.org/1999/xlink" x="0px" y="0px"
	 viewBox="0 0 24 24" style="enable-background:new 0 0 24 24;" xml:space="preserve">
<style type="text/css">
	.st0{fill:none;}
	.st1{fill:#222532;}
</style>
<path class="st0" d="M2,0h20c1.1,0,2,0.9,2,2v20c0,1.1-0.9,2-2,2H2c-1.1,0-2-0.9-2-2V2C0,0.9,0.9,0,2,0z"/>
<path class="st1" d="M18,4H6C5.5,4,5,4.4,5,4.9C5,4.9,5,5,5,5v15l3-2l2,2l2-2l2,2l2-2l3,2V5c0-0.5-0.4-1-0.9-1C18.1,4,18,4,18,4z
	 M16,14H8v-2h8V14z M16,10H8V8h8V10z"/>
</svg>
