<?xml version="1.0" encoding="utf-8"?>
<!-- Generator: Adobe Illustrator 24.0.0, SVG Export Plug-In . SVG Version: 6.00 Build 0)  -->
<svg version="1.1" id="Layer_1" xmlns="http://www.w3.org/2000/svg" xmlns:xlink="http://www.w3.org/1999/xlink" x="0px" y="0px"
	 viewBox="0 0 24 24" style="enable-background:new 0 0 24 24;" xml:space="preserve">
<g>
	<path d="M11.5,12.2c2.4,0,4.3-2,4.3-4.5c0-2.5-1.9-4.5-4.3-4.5s-4.3,2-4.3,4.5C7.2,10.2,9.1,12.2,11.5,12.2z M11.5,5
		C12.9,5,14,6.3,14,7.7s-1.1,2.7-2.5,2.7C10.1,10.4,9,9.2,9,7.7S10.1,5,11.5,5z"/>
	<path d="M2.9,19.4c0,0.2,0.1,0.5,0.3,0.6c0.2,0.2,0.4,0.3,0.6,0.3h8.5v-1.8H4.8c0.6-2.8,3.9-3.2,7.5-3.2v-1.8
		C9.8,13.5,3,13.5,2.9,19.4z"/>
	<polygon points="21,16.1 18.4,16.1 18.4,13.3 16.6,13.3 16.6,16.1 13.8,16.1 13.8,17.9 16.6,17.9 16.6,20.5 18.4,20.5 18.4,17.9 
		21,17.9 	"/>
</g>
</svg>
