<?xml version="1.0" encoding="utf-8"?>
<!-- Generator: Adobe Illustrator 24.0.0, SVG Export Plug-In . SVG Version: 6.00 Build 0)  -->
<svg version="1.1" id="Layer_1" xmlns="http://www.w3.org/2000/svg" xmlns:xlink="http://www.w3.org/1999/xlink" x="0px" y="0px"
	 viewBox="0 0 24 24" style="enable-background:new 0 0 24 24;" xml:space="preserve">
<style type="text/css">
	.st0{clip-path:url(#SVGID_2_);}
</style>
<g>
	<defs>
		<path id="SVGID_1_" d="M0,2c0-1.1,0.9-2,2-2h20c1.1,0,2,0.9,2,2v20c0,1.1-0.9,2-2,2H2c-1.1,0-2-0.9-2-2V2z"/>
	</defs>
	<clipPath id="SVGID_2_">
		<use xlink:href="#SVGID_1_"  style="overflow:visible;"/>
	</clipPath>
	<g class="st0">
		<path d="M8.4,5C8,5,7.5,5.2,7.2,5.5C6.9,5.8,6.7,6.2,6.7,6.6v3.2c0,0.4-0.2,0.8-0.5,1.1c-0.3,0.3-0.8,0.5-1.3,0.5H4v1.6h0.9
			c0.5,0,0.9,0.2,1.3,0.5c0.3,0.3,0.5,0.7,0.5,1.1v3.2c0,0.4,0.2,0.8,0.5,1.1c0.3,0.3,0.8,0.5,1.3,0.5h1.8v-1.6H8.4v-4
			c0-0.4-0.2-0.8-0.5-1.1c-0.3-0.3-0.8-0.5-1.3-0.5c0.5,0,0.9-0.2,1.3-0.5c0.3-0.3,0.5-0.7,0.5-1.1v-4h1.8V5H8.4z M15.6,5
			c0.5,0,0.9,0.2,1.3,0.5c0.3,0.3,0.5,0.7,0.5,1.1v3.2c0,0.4,0.2,0.8,0.5,1.1c0.3,0.3,0.8,0.5,1.3,0.5H20v1.6h-0.9
			c-0.5,0-0.9,0.2-1.3,0.5c-0.3,0.3-0.5,0.7-0.5,1.1v3.2c0,0.4-0.2,0.8-0.5,1.1c-0.3,0.3-0.8,0.5-1.3,0.5h-1.8v-1.6h1.8v-4
			c0-0.4,0.2-0.8,0.5-1.1c0.3-0.3,0.8-0.5,1.3-0.5c-0.5,0-0.9-0.2-1.3-0.5c-0.3-0.3-0.5-0.7-0.5-1.1v-4h-1.8V5H15.6z"/>
	</g>
</g>
</svg>
