<svg width="12" height="12" viewBox="0 0 12 12" fill="none" xmlns="http://www.w3.org/2000/svg">
<path d="M11.1318 9.50415C11.4683 10.1134 11.0459 10.875 10.3739 10.875H1.62599C0.952659 10.875 0.532258 10.1122 0.868076 9.50415L5.24209 1.58175C5.57873 0.972199 6.42188 0.973304 6.75792 1.58175L11.1318 9.50415Z" fill="#FFCE02"/>
<path d="M6.00041 7.83746C5.53689 7.83746 5.16113 8.22999 5.16113 8.71421C5.16113 9.19842 5.53689 9.59095 6.00041 9.59095C6.46393 9.59095 6.83969 9.19842 6.83969 8.71421C6.83969 8.22999 6.46393 7.83746 6.00041 7.83746ZM5.20359 4.68601L5.33893 7.27813C5.34526 7.39943 5.44127 7.49438 5.55755 7.49438H6.44328C6.55955 7.49438 6.65556 7.39943 6.66189 7.27813L6.79724 4.68601C6.80408 4.55499 6.70422 4.44482 6.57862 4.44482H5.42219C5.29659 4.44482 5.19675 4.55499 5.20359 4.68601Z" fill="white"/>
</svg>
