<svg width="24" height="24" viewBox="0 0 24 24" fill="none" xmlns="http://www.w3.org/2000/svg">
<path opacity="0.6" d="M19.65 12C19.65 13.5 19.2 15 18.45 16.2L21.6 19.35C23.0999 17.25 24 14.7 24 12.15C24 9.45001 23.1 6.90001 21.45 4.95001L18.45 7.95001C19.2 9.15001 19.65 10.5 19.65 12Z" fill="#F8F8FC"/>
<path opacity="0.6" d="M12 19.65C7.8 19.65 4.35 16.2 4.35 12C4.35 7.8 7.8 4.35 12 4.35C13.5 4.35 15 4.8 16.2 5.55L19.2 2.55C17.1 0.9 14.55 0 12 0C5.4 0 0 5.4 0 12C0 18.6 5.4 24 12 24C14.7 24 17.25 23.1 19.2 21.45L16.05 18.3C15 19.2 13.5 19.65 12 19.65Z" fill="#D5D3F9"/>
</svg>
