<svg width="12" height="12" viewBox="0 0 12 12" fill="none" xmlns="http://www.w3.org/2000/svg">
<path fill-rule="evenodd" clip-rule="evenodd" d="M10.3739 10.875C11.0459 10.875 11.4683 10.1134 11.1318 9.50415L6.75792 1.58175C6.42188 0.973304 5.57873 0.972199 5.24209 1.58175L0.868076 9.50415C0.532258 10.1122 0.952659 10.875 1.62599 10.875H10.3739ZM5.16064 8.71408C5.16064 8.22987 5.5364 7.83734 5.99992 7.83734C6.46344 7.83734 6.8392 8.22987 6.8392 8.71408C6.8392 9.1983 6.46344 9.59083 5.99992 9.59083C5.5364 9.59083 5.16064 9.1983 5.16064 8.71408ZM5.33844 7.27801L5.2031 4.68588C5.19626 4.55487 5.2961 4.4447 5.4217 4.4447H6.57813C6.70373 4.4447 6.80359 4.55487 6.79675 4.68588L6.6614 7.27801C6.65507 7.3993 6.55907 7.49426 6.44279 7.49426H5.55706C5.44078 7.49426 5.34477 7.3993 5.33844 7.27801Z" fill="#FFCE02"/>
</svg>
