<?xml version="1.0" encoding="utf-8"?>
<!-- Generator: Adobe Illustrator 24.0.0, SVG Export Plug-In . SVG Version: 6.00 Build 0)  -->
<svg version="1.1" id="Layer_1" xmlns="http://www.w3.org/2000/svg" xmlns:xlink="http://www.w3.org/1999/xlink" x="0px" y="0px"
	 viewBox="0 0 12 12" style="enable-background:new 0 0 12 12;" xml:space="preserve">
<style type="text/css">
	.st0{opacity:0.3;fill:#FFCE02;enable-background:new    ;}
	.st1{fill:#FFCE02;}
</style>
<path class="st0" d="M6,0L6,0c3.3,0,6,2.7,6,6l0,0c0,3.3-2.7,6-6,6l0,0c-3.3,0-6-2.7-6-6l0,0C0,2.7,2.7,0,6,0z"/>
<path class="st1" d="M6,3L6,3c1.7,0,3,1.3,3,3l0,0c0,1.7-1.3,3-3,3l0,0C4.3,9,3,7.7,3,6l0,0C3,4.3,4.3,3,6,3z"/>
</svg>
