<?xml version="1.0" encoding="utf-8"?>
<!-- Generator: Adobe Illustrator 24.0.0, SVG Export Plug-In . SVG Version: 6.00 Build 0)  -->
<svg version="1.1" id="Layer_1" xmlns="http://www.w3.org/2000/svg" xmlns:xlink="http://www.w3.org/1999/xlink" x="0px" y="0px"
	 viewBox="0 0 24 24" style="enable-background:new 0 0 24 24;" xml:space="preserve">
<style type="text/css">
	.st0{fill:#858895;}
</style>
<g>
	<path class="st0" d="M12.5,11.8c0-0.5-0.4-0.8-0.8-0.8c-0.5,0-0.8,0.4-0.8,0.8c0,0.5,0.4,0.8,0.8,0.8
		C12.1,12.7,12.5,12.3,12.5,11.8z"/>
	<path class="st0" d="M11.7,13.4c-0.9,0-1.6-0.7-1.6-1.6s0.7-1.6,1.6-1.6s1.6,0.7,1.6,1.6S12.5,13.4,11.7,13.4z M11.7,11.8
		C11.6,11.8,11.6,11.8,11.7,11.8C11.6,11.9,11.8,11.9,11.7,11.8C11.8,11.8,11.7,11.8,11.7,11.8z"/>
</g>
<g>
	<path class="st0" d="M6.7,11.8c0-0.5-0.4-0.8-0.8-0.8C5.4,11,5,11.4,5,11.8c0,0.5,0.4,0.8,0.8,0.8C6.3,12.7,6.7,12.3,6.7,11.8z"/>
	<path class="st0" d="M5.8,13.4c-0.9,0-1.6-0.7-1.6-1.6s0.7-1.6,1.6-1.6s1.6,0.7,1.6,1.6S6.7,13.4,5.8,13.4z M5.8,11.8
		C5.8,11.8,5.8,11.8,5.8,11.8C5.8,11.9,5.9,11.9,5.8,11.8C5.9,11.8,5.9,11.8,5.8,11.8z"/>
</g>
<g>
	<path class="st0" d="M18.3,11.8c0-0.5-0.4-0.8-0.8-0.8c-0.5,0-0.8,0.4-0.8,0.8c0,0.5,0.4,0.8,0.8,0.8C18,12.7,18.3,12.3,18.3,11.8z
		"/>
	<path class="st0" d="M17.5,13.4c-0.9,0-1.6-0.7-1.6-1.6s0.7-1.6,1.6-1.6s1.6,0.7,1.6,1.6S18.4,13.4,17.5,13.4z M17.5,11.8
		C17.5,11.8,17.4,11.8,17.5,11.8C17.4,11.9,17.6,11.9,17.5,11.8C17.6,11.8,17.5,11.8,17.5,11.8z"/>
</g>
</svg>
