<svg width="24" height="24" viewBox="0 0 24 24" fill="none" xmlns="http://www.w3.org/2000/svg">
<path d="M6.66667 11.8333C6.66667 11.3731 6.29357 11 5.83333 11C5.3731 11 5 11.3731 5 11.8333C5 12.2936 5.3731 12.6667 5.83333 12.6667C6.29357 12.6667 6.66667 12.2936 6.66667 11.8333Z" fill="#858895"/>
<path d="M12.4997 11.8333C12.4997 11.3731 12.1266 11 11.6663 11C11.2061 11 10.833 11.3731 10.833 11.8333C10.833 12.2936 11.2061 12.6667 11.6663 12.6667C12.1266 12.6667 12.4997 12.2936 12.4997 11.8333Z" fill="#858895"/>
<path d="M17.5003 11C17.9606 11 18.3337 11.3731 18.3337 11.8333C18.3337 12.2936 17.9606 12.6667 17.5003 12.6667C17.0401 12.6667 16.667 12.2936 16.667 11.8333C16.667 11.3731 17.0401 11 17.5003 11Z" fill="#858895"/>
<path d="M6.66667 11.8333C6.66667 11.3731 6.29357 11 5.83333 11C5.3731 11 5 11.3731 5 11.8333C5 12.2936 5.3731 12.6667 5.83333 12.6667C6.29357 12.6667 6.66667 12.2936 6.66667 11.8333Z" stroke="#858895" stroke-linecap="round" stroke-linejoin="round"/>
<path d="M12.4997 11.8333C12.4997 11.3731 12.1266 11 11.6663 11C11.2061 11 10.833 11.3731 10.833 11.8333C10.833 12.2936 11.2061 12.6667 11.6663 12.6667C12.1266 12.6667 12.4997 12.2936 12.4997 11.8333Z" stroke="#858895" stroke-linecap="round" stroke-linejoin="round"/>
<path d="M17.5003 11C17.9606 11 18.3337 11.3731 18.3337 11.8333C18.3337 12.2936 17.9606 12.6667 17.5003 12.6667C17.0401 12.6667 16.667 12.2936 16.667 11.8333C16.667 11.3731 17.0401 11 17.5003 11Z" stroke="#858895" stroke-linecap="round" stroke-linejoin="round"/>
</svg>
