<?xml version="1.0" encoding="utf-8"?>
<!-- Generator: Adobe Illustrator 24.0.0, SVG Export Plug-In . SVG Version: 6.00 Build 0)  -->
<svg version="1.1" id="Layer_1" xmlns="http://www.w3.org/2000/svg" xmlns:xlink="http://www.w3.org/1999/xlink" x="0px" y="0px"
	 viewBox="0 0 24 24" style="enable-background:new 0 0 24 24;" xml:space="preserve">
<style type="text/css">
	.st0{fill:#858895;}
</style>
<g>
	<path class="st0" d="M11.7,10.4c-0.9,0-1.6,0.6-1.6,1.5c0,0.8,0.7,1.5,1.5,1.5c0.1,0,0.1,0,0.2,0c0.3,0,0.6-0.1,0.8-0.2
		c0.4-0.3,0.6-0.8,0.6-1.3C13.2,11.1,12.6,10.4,11.7,10.4z"/>
	<path class="st0" d="M5.8,10.4c-0.8,0-1.6,0.7-1.6,1.5c0,0.8,0.7,1.5,1.5,1.5c0.1,0,0.1,0,0.2,0c0.4,0,0.7-0.2,0.9-0.3
		c0.4-0.3,0.6-0.7,0.6-1.2C7.4,11.1,6.7,10.4,5.8,10.4z"/>
	<path class="st0" d="M17.5,10.4c-0.8,0-1.5,0.6-1.5,1.5c0,0.8,0.7,1.5,1.5,1.5c0.1,0,0.1,0,0.2,0c0.3,0,0.6-0.1,0.7-0.2
		c0.4-0.3,0.6-0.8,0.6-1.3C19,11.1,18.3,10.4,17.5,10.4z"/>
</g>
</svg>
