<svg width="24" height="24" viewBox="0 0 24 24" fill="none" xmlns="http://www.w3.org/2000/svg">
<path d="M12.5002 11.8334C12.5002 11.3732 12.1271 11.0001 11.6668 11.0001C11.2066 11.0001 10.8335 11.3732 10.8335 11.8334C10.8335 12.2937 11.2066 12.6667 11.6668 12.6667C12.1271 12.6667 12.5002 12.2937 12.5002 11.8334Z" fill="#858895" stroke="#858895" stroke-width="1.5" stroke-linecap="round" stroke-linejoin="round"/>
<path d="M6.66667 11.8334C6.66667 11.3732 6.29357 11.0001 5.83333 11.0001C5.3731 11.0001 5 11.3732 5 11.8334C5 12.2937 5.3731 12.6667 5.83333 12.6667C6.29357 12.6667 6.66667 12.2937 6.66667 11.8334Z" fill="#858895" stroke="#858895" stroke-width="1.5" stroke-linecap="round" stroke-linejoin="round"/>
<path d="M18.3332 11.8334C18.3332 11.3732 17.9601 11.0001 17.4998 11.0001C17.0396 11.0001 16.6665 11.3732 16.6665 11.8334C16.6665 12.2937 17.0396 12.6667 17.4998 12.6667C17.9601 12.6667 18.3332 12.2937 18.3332 11.8334Z" fill="#858895" stroke="#858895" stroke-width="1.5" stroke-linecap="round" stroke-linejoin="round"/>
</svg>
