<svg id="ic_no_selected" xmlns="http://www.w3.org/2000/svg" width="224" height="208" viewBox="0 0 224 208">
  <rect id="rectangle" width="224" height="208" fill="none"/>
  <path id="Icon_awesome-folder" data-name="Icon awesome-folder" d="M166.75,27.5h-69l-23-23H17.25A17.25,17.25,0,0,0,0,21.75v103.5A17.25,17.25,0,0,0,17.25,142.5h149.5A17.25,17.25,0,0,0,184,125.25V44.75A17.25,17.25,0,0,0,166.75,27.5Z" transform="translate(20.5 31)" fill="none" stroke="#ebeaf6" stroke-width="6"/>
  <path id="Icon_awesome-mouse-pointer" data-name="Icon awesome-mouse-pointer" d="M42.5,46.283H27.577l7.851,19.124A2.612,2.612,0,0,1,34.1,68.782L27.187,71.8a2.488,2.488,0,0,1-3.281-1.366L16.445,52.27,4.258,64.8A2.488,2.488,0,0,1,0,63V2.573A2.488,2.488,0,0,1,4.258.765l40,41.139A2.577,2.577,0,0,1,42.5,46.283Z" transform="translate(90 74)" fill="#ebeaf6"/>
</svg>
