<svg width="44" height="36" viewBox="0 0 44 36" fill="none" xmlns="http://www.w3.org/2000/svg">
<path fill-rule="evenodd" clip-rule="evenodd" d="M10.5023 8.18144L10.4943 8.18935C9.65726 9.01747 9.18686 10.1516 9.18686 11.3035C9.18686 12.4931 9.64968 13.6057 10.4864 14.4239L10.4984 14.4356L10.5102 14.4476C11.3298 15.2778 12.4584 15.7415 13.6179 15.7415C14.8055 15.7415 15.9201 15.2778 16.7396 14.4476L16.7475 14.4396C17.5875 13.5987 18.0489 12.476 18.0489 11.3035C18.0489 10.1124 17.5898 8.9956 16.7716 8.20506L16.7554 8.18944L16.7396 8.17344C15.9201 7.3432 14.8055 6.87949 13.6179 6.87949C12.4466 6.87949 11.3313 7.34161 10.5102 8.17344L10.5023 8.18144ZM9.15804 6.83866C10.3398 5.64147 11.9437 4.97949 13.6179 4.97949C15.3062 4.97949 16.91 5.64147 18.0918 6.83866C19.3017 8.00768 19.9489 9.62741 19.9489 11.3035C19.9489 12.9795 19.2877 14.5852 18.0918 15.7824C16.91 16.9796 15.3062 17.6415 13.6179 17.6415C11.9578 17.6415 10.3398 16.9796 9.15804 15.7824C7.94811 14.5993 7.28687 12.9936 7.28687 11.3035C7.28687 9.64149 7.96218 8.02177 9.15804 6.83866ZM1.95835 28.9935L1.95431 28.99L1.94902 28.9822C1.93877 28.9672 1.93091 28.9524 1.92341 28.9274C1.91541 28.9009 1.90012 28.8368 1.90012 28.7175C1.90012 28.0628 2.27902 26.3081 3.89443 24.6858C5.47143 23.1317 8.35843 21.5723 13.6028 21.5723C18.8443 21.5723 21.7495 23.1302 23.344 24.6884C24.9559 26.3087 25.3357 28.0764 25.3357 28.7175C25.3357 28.8553 25.3195 28.9281 25.3115 28.9563C25.3095 28.9636 25.3077 28.9689 25.3063 28.9727C25.2887 28.9925 25.2764 29 25.2744 29.0011L25.2221 29.0248L25.1702 29.0521C25.1653 29.0547 25.146 29.0642 25.1004 29.0775C25.0637 29.0882 25.0228 29.0981 24.9609 29.1111L24.9453 29.1125C24.9289 29.1139 24.8989 29.1165 24.8626 29.1204H2.3732C2.33695 29.1165 2.30695 29.1139 2.29054 29.1125L2.28326 29.1118C2.21934 29.0979 2.17768 29.088 2.13434 29.0755C2.08796 29.0621 2.06799 29.0531 2.0653 29.0519L2.0302 29.0334L1.99401 29.0162C1.98986 29.0143 1.98363 29.011 1.97644 29.0064C1.9693 29.0019 1.96314 28.9974 1.95835 28.9935ZM13.6028 19.6723C7.95013 19.6723 4.54947 21.3692 2.55441 23.3388C0.574461 25.3236 0.00012207 27.566 0.00012207 28.7175C0.00012207 29.2932 0.151263 29.7174 0.377974 30.0508C0.589571 30.3689 0.891851 30.5962 1.17902 30.7326C1.45378 30.8775 1.74237 30.9393 1.95214 30.9842L1.98006 30.9901C2.02645 30.9968 2.06993 31.0005 2.10923 31.0039C2.15957 31.0082 2.20305 31.0119 2.237 31.0204H24.9988C25.0328 31.0119 25.0762 31.0082 25.1266 31.0039C25.1659 31.0005 25.2094 30.9968 25.2558 30.9901C25.4825 30.9447 25.7696 30.8841 26.0568 30.7326C26.3591 30.5962 26.6463 30.3689 26.873 30.0508C27.0997 29.7174 27.2357 29.2932 27.2357 28.7175C27.2357 27.5811 26.6614 25.3236 24.6814 23.3388C24.4391 23.1014 24.1763 22.8679 23.8917 22.6409C25.4987 22.0048 27.6063 21.5726 30.3672 21.5726C35.6087 21.5726 38.5138 23.1305 40.1083 24.6887C41.7202 26.309 42.1001 28.0767 42.1001 28.7178C42.1001 28.8556 42.0839 28.9284 42.0759 28.9566C42.0738 28.9639 42.072 28.9692 42.0706 28.973C42.0531 28.9928 42.0408 29.0003 42.0387 29.0015L41.9864 29.0251L41.9346 29.0524C41.9297 29.055 41.9103 29.0645 41.8648 29.0778C41.8281 29.0885 41.7872 29.0984 41.7253 29.1114L41.7097 29.1128C41.6932 29.1142 41.6632 29.1168 41.627 29.1207H27.2111C27.1623 29.4992 27.0432 29.8005 26.873 30.0508C26.6463 30.3689 26.3591 30.5962 26.0568 30.7326C25.7696 30.8841 25.4825 30.9447 25.2558 30.9901C25.2094 30.9968 25.1659 31.0005 25.1266 31.0039C25.0762 31.0082 25.0328 31.0119 24.9988 31.0204L41.7632 31.0207C41.7971 31.0122 41.8406 31.0085 41.8909 31.0042C41.9302 31.0008 41.9737 30.9971 42.0201 30.9904C42.2468 30.945 42.534 30.8844 42.8212 30.7329C43.1234 30.5965 43.4106 30.3693 43.6373 30.0511C43.864 29.7178 44.0001 29.2935 44.0001 28.7178C44.0001 27.5814 43.4257 25.3239 41.4458 23.3391C39.4356 21.3695 36.0198 19.6726 30.3672 19.6726C26.709 19.6726 23.994 20.3833 21.9927 21.4187C19.9829 20.3831 17.2613 19.6723 13.6028 19.6723ZM27.7477 8.18935L27.7557 8.18144L27.7636 8.17344C28.5847 7.34161 29.7 6.87949 30.8712 6.87949C32.0589 6.87949 33.1734 7.3432 33.993 8.17344L34.0088 8.18944L34.025 8.20506C34.8432 8.9956 35.3023 10.1124 35.3023 11.3035C35.3023 12.476 34.8409 13.5987 34.0009 14.4396L33.993 14.4476C33.1734 15.2778 32.0589 15.7415 30.8712 15.7415C29.7118 15.7415 28.5831 15.2778 27.7636 14.4476L27.7518 14.4356L27.7398 14.4239C26.903 13.6057 26.4402 12.4931 26.4402 11.3035C26.4402 10.1516 26.9106 9.01747 27.7477 8.18935ZM30.8712 4.97949C29.197 4.97949 27.5932 5.64147 26.4114 6.83866C25.2155 8.02177 24.5402 9.64149 24.5402 11.3035C24.5402 12.9936 25.2015 14.5993 26.4114 15.7824C27.5932 16.9796 29.2111 17.6415 30.8712 17.6415C32.5595 17.6415 34.1634 16.9796 35.3452 15.7824C36.541 14.5852 37.2023 12.9795 37.2023 11.3035C37.2023 9.62741 36.5551 8.00768 35.3452 6.83866C34.1634 5.64147 32.5595 4.97949 30.8712 4.97949Z" fill="#222532"/>
</svg>
