<?xml version="1.0" encoding="utf-8"?>
<!-- Generator: Adobe Illustrator 23.1.1, SVG Export Plug-In . SVG Version: 6.00 Build 0)  -->
<svg version="1.1" id="ic_no_project-group" xmlns="http://www.w3.org/2000/svg" xmlns:xlink="http://www.w3.org/1999/xlink"
	 x="0px" y="0px" viewBox="0 0 224 208" style="enable-background:new 0 0 224 208;" xml:space="preserve">
<style type="text/css">
	.st0{fill:none;}
	.st1{fill:#EBEAF6;}
</style>
<g id="rectangle">
	<path class="st0" d="M0,0h224v208H0V0z"/>
	<path class="st1" d="M0,0h4v2H0V0z M8,0h4v2H8V0z M16,0h4v2h-4V0z M24,0h4v2h-4V0z M32,0h4v2h-4V0z M40,0h4v2h-4V0z M48,0h4v2h-4V0
		z M56,0h4v2h-4V0z M64,0h4v2h-4V0z M72,0h4v2h-4V0z M80,0h4v2h-4V0z M88,0h4v2h-4V0z M96,0h4v2h-4V0z M104,0h4v2h-4V0z M112,0h4v2
		h-4V0z M120,0h4v2h-4V0z M128,0h4v2h-4V0z M136,0h4v2h-4V0z M144,0h4v2h-4V0z M152,0h4v2h-4V0z M160,0h4v2h-4V0z M168,0h4v2h-4V0z
		 M176,0h4v2h-4V0z M184,0h4v2h-4V0z M192,0h4v2h-4V0z M200,0h4v2h-4V0z M208,0h4v2h-4V0z M216,0h4v2h-4V0z M222,0h2v4h-2V0z M222,8
		h2v4h-2V8z M222,16h2v4h-2V16z M222,24h2v4h-2V24z M222,32h2v4h-2V32z M222,40h2v4h-2V40z M222,48h2v4h-2V48z M222,56h2v4h-2V56z
		 M222,64h2v4h-2V64z M222,72h2v4h-2V72z M222,80h2v4h-2V80z M222,88h2v4h-2V88z M222,96h2v4h-2V96z M222,104h2v4h-2V104z M222,112
		h2v4h-2V112z M222,120h2v4h-2V120z M222,128h2v4h-2V128z M222,136h2v4h-2V136z M222,144h2v4h-2V144z M222,152h2v4h-2V152z M222,160
		h2v4h-2V160z M222,168h2v4h-2V168z M222,176h2v4h-2V176z M222,184h2v4h-2V184z M222,192h2v4h-2V192z M222,200h2v4h-2V200z M220,206
		h4v2h-4V206z M212,206h4v2h-4V206z M204,206h4v2h-4V206z M196,206h4v2h-4V206z M188,206h4v2h-4V206z M180,206h4v2h-4V206z M172,206
		h4v2h-4V206z M164,206h4v2h-4V206z M156,206h4v2h-4V206z M148,206h4v2h-4V206z M140,206h4v2h-4V206z M132,206h4v2h-4V206z M124,206
		h4v2h-4V206z M116,206h4v2h-4V206z M108,206h4v2h-4V206z M100,206h4v2h-4V206z M92,206h4v2h-4V206z M84,206h4v2h-4V206z M76,206h4
		v2h-4V206z M68,206h4v2h-4V206z M60,206h4v2h-4V206z M52,206h4v2h-4V206z M44,206h4v2h-4V206z M36,206h4v2h-4V206z M28,206h4v2h-4
		V206z M20,206h4v2h-4V206z M12,206h4v2h-4V206z M4,206h4v2H4V206z M0,204h2v4H0V204z M0,196h2v4H0V196z M0,188h2v4H0V188z M0,180h2
		v4H0V180z M0,172h2v4H0V172z M0,164h2v4H0V164z M0,156h2v4H0V156z M0,148h2v4H0V148z M0,140h2v4H0V140z M0,132h2v4H0V132z M0,124h2
		v4H0V124z M0,116h2v4H0V116z M0,108h2v4H0V108z M0,100h2v4H0V100z M0,92h2v4H0V92z M0,84h2v4H0V84z M0,76h2v4H0V76z M0,68h2v4H0V68
		z M0,60h2v4H0V60z M0,52h2v4H0V52z M0,44h2v4H0V44z M0,36h2v4H0V36z M0,28h2v4H0V28z M0,20h2v4H0V20z M0,12h2v4H0V12z M0,4h2v4H0V4
		z"/>
</g>
<g>
	<path class="st1" d="M109.5,44.9l-3.4,0.4c-25.6,3-44.9,24-44.9,48.8v3h48.3V44.9z M103.5,91.1H67.3c1.4-19.3,16.3-35.5,36.2-39.3
		V91.1z"/>
	<path class="st1" d="M118.9,45.3l-3.4-0.4v52.2h48.3v-3C163.9,69.3,144.6,48.3,118.9,45.3z"/>
	<path class="st1" d="M61.2,133.7c0,13.2,5.4,26.5,14.8,36.5c9.8,10.5,22.7,16.3,36.2,16.3c27.5,0,51.7-24.7,51.7-52.8v-31.1H61.2
		V133.7z M67.2,108.6h90.7v25.1c0,24.9-21.4,46.8-45.7,46.8c-24,0-45-21.9-45-46.8V108.6z"/>
</g>
<g id="선_64">
	<rect x="132.5" y="23.5" class="st1" width="6" height="18"/>
</g>
<g id="패스_446">
	<rect x="168.5" y="74.5" class="st1" width="18" height="6"/>
</g>
<g id="선_65">
	
		<rect x="155.2" y="44.5" transform="matrix(0.7348 -0.6783 0.6783 0.7348 11.2767 123.8404)" class="st1" width="17.7" height="6"/>
</g>
</svg>
