<?xml version="1.0" encoding="utf-8"?>
<!-- Generator: Adobe Illustrator 23.1.1, SVG Export Plug-In . SVG Version: 6.00 Build 0)  -->
<svg version="1.1" id="ic_no_selected" xmlns="http://www.w3.org/2000/svg" xmlns:xlink="http://www.w3.org/1999/xlink" x="0px"
	 y="0px" viewBox="0 0 224 208" style="enable-background:new 0 0 224 208;" xml:space="preserve">
<style type="text/css">
	.st0{fill:none;}
	.st1{fill:#EBEAF6;}
</style>
<rect id="rectangle" class="st0" width="224" height="208"/>
<g id="Icon_awesome-folder">
	<path class="st1" d="M187.2,176.5H37.8c-11.2,0-20.2-9.1-20.2-20.2V52.8c0-11.2,9.1-20.2,20.2-20.2h58.7l23,23h67.8
		c11.2,0,20.2,9.1,20.2,20.2v80.5C207.5,167.4,198.4,176.5,187.2,176.5z M37.8,38.5c-7.9,0-14.2,6.4-14.2,14.2v103.5
		c0,7.9,6.4,14.2,14.2,14.2h149.5c7.9,0,14.2-6.4,14.2-14.2V75.8c0-7.9-6.4-14.2-14.2-14.2H117l-23-23H37.8z"/>
</g>
<path id="Icon_awesome-mouse-pointer" class="st1" d="M132.5,120.3h-14.9l7.9,19.1c0.5,1.3,0,2.8-1.3,3.4l-6.9,3
	c-1.3,0.5-2.7-0.1-3.3-1.3c0,0,0,0,0,0l-7.5-18.2l-12.2,12.5c-1,1-2.5,1-3.5,0c-0.5-0.5-0.8-1.1-0.7-1.8V76.6c0-1.4,1.1-2.5,2.4-2.5
	c0.7,0,1.3,0.3,1.8,0.7l40,41.1c1,1,1,2.6,0,3.6C133.8,120,133.1,120.3,132.5,120.3z"/>
</svg>
