<?xml version="1.0" encoding="utf-8"?>
<!-- Generator: Adobe Illustrator 24.0.0, SVG Export Plug-In . SVG Version: 6.00 Build 0)  -->
<svg version="1.1" id="Layer_1" xmlns="http://www.w3.org/2000/svg" xmlns:xlink="http://www.w3.org/1999/xlink" x="0px" y="0px"
	 viewBox="0 0 32 32" style="enable-background:new 0 0 32 32;" xml:space="preserve">
<style type="text/css">
	.st0{fill:#252F3E;}
	.st1{fill-rule:evenodd;clip-rule:evenodd;fill:#FF9900;}
</style>
<path class="st0" d="M9,13.3c0,0.4,0,0.7,0.1,0.9c0.1,0.2,0.2,0.5,0.3,0.8c0.1,0.1,0.1,0.2,0.1,0.2c0,0.1-0.1,0.2-0.2,0.3l-0.7,0.4
	c-0.1,0.1-0.2,0.1-0.3,0.1c-0.1,0-0.2-0.1-0.3-0.1c-0.1-0.2-0.3-0.3-0.4-0.5c-0.1-0.2-0.2-0.4-0.3-0.6c-0.8,1-1.9,1.5-3.1,1.5
	c-0.9,0-1.6-0.3-2.1-0.8c-0.5-0.5-0.8-1.2-0.8-2c0-0.9,0.3-1.6,1-2.2c0.6-0.6,1.5-0.8,2.6-0.8c0.4,0,0.7,0,1.1,0.1
	c0.4,0.1,0.8,0.1,1.2,0.2v-0.8c0-0.8-0.2-1.4-0.5-1.7C6.4,8,5.8,7.9,5,7.9c-0.4,0-0.8,0-1.1,0.1C3.5,8.1,3.1,8.2,2.7,8.4
	C2.5,8.5,2.4,8.5,2.3,8.5c-0.1,0-0.1,0-0.2,0C2,8.5,2,8.4,2,8.2V7.7C2,7.5,2,7.4,2,7.3c0.1-0.1,0.1-0.1,0.3-0.2
	c0.4-0.2,0.8-0.4,1.3-0.5c0.5-0.1,1.1-0.2,1.7-0.2c1.3,0,2.2,0.3,2.8,0.9C8.7,7.9,9,8.7,9,9.9L9,13.3L9,13.3z M4.7,15
	c0.4,0,0.7-0.1,1.1-0.2c0.4-0.1,0.7-0.4,1-0.7c0.2-0.2,0.3-0.4,0.4-0.7c0.1-0.3,0.1-0.6,0.1-0.9V12c-0.3-0.1-0.6-0.1-1-0.2
	c-0.3,0-0.7-0.1-1-0.1c-0.7,0-1.2,0.1-1.6,0.4c-0.4,0.3-0.5,0.7-0.5,1.2c0,0.5,0.1,0.9,0.4,1.1C3.8,14.8,4.2,15,4.7,15z M13.2,16.1
	c-0.2,0-0.3,0-0.4-0.1c-0.1-0.1-0.2-0.2-0.2-0.4l-2.5-8.2C10.1,7.2,10,7,10,6.9c0-0.2,0.1-0.3,0.3-0.3h1c0.2,0,0.3,0,0.4,0.1
	c0.1,0.1,0.1,0.2,0.2,0.4l1.8,7l1.7-7c0.1-0.2,0.1-0.4,0.2-0.4c0.1-0.1,0.2-0.1,0.4-0.1h0.9c0.2,0,0.3,0,0.4,0.1
	c0.1,0.1,0.2,0.2,0.2,0.4l1.7,7.1L21,7.2c0.1-0.2,0.1-0.4,0.2-0.4c0.1-0.1,0.2-0.1,0.4-0.1h1c0.2,0,0.3,0.1,0.3,0.3
	c0,0.1,0,0.1,0,0.2c0,0.1,0,0.1-0.1,0.3l-2.6,8.2C20.2,15.8,20.1,16,20,16c-0.1,0.1-0.2,0.1-0.4,0.1h-0.9c-0.2,0-0.3,0-0.4-0.1
	c-0.1-0.1-0.2-0.2-0.2-0.4l-1.6-6.9l-1.6,6.9c-0.1,0.2-0.1,0.4-0.2,0.4c-0.1,0.1-0.2,0.1-0.4,0.1H13.2z M26.9,16.4
	c-0.6,0-1.1-0.1-1.6-0.2c-0.5-0.1-0.9-0.3-1.2-0.4c-0.2-0.1-0.3-0.2-0.3-0.3c0-0.1-0.1-0.2-0.1-0.3v-0.5c0-0.2,0.1-0.3,0.2-0.3
	c0.1,0,0.1,0,0.2,0c0.1,0,0.2,0.1,0.3,0.1c0.4,0.2,0.8,0.3,1.2,0.4c0.4,0.1,0.8,0.1,1.3,0.1c0.7,0,1.2-0.1,1.6-0.4
	c0.4-0.2,0.6-0.6,0.6-1c0-0.3-0.1-0.5-0.3-0.7c-0.2-0.2-0.6-0.4-1.1-0.6L26,11.8c-0.8-0.2-1.4-0.6-1.7-1.1c-0.4-0.5-0.5-1-0.5-1.5
	c0-0.4,0.1-0.8,0.3-1.2c0.2-0.3,0.4-0.6,0.8-0.9c0.3-0.2,0.7-0.4,1.1-0.6c0.4-0.1,0.9-0.2,1.3-0.2c0.2,0,0.5,0,0.7,0
	c0.2,0,0.5,0.1,0.7,0.1c0.2,0.1,0.4,0.1,0.6,0.2c0.2,0.1,0.3,0.1,0.4,0.2C29.9,7,30,7.1,30,7.2c0.1,0.1,0.1,0.2,0.1,0.4V8
	c0,0.2-0.1,0.3-0.2,0.3c-0.1,0-0.2,0-0.4-0.1c-0.6-0.3-1.3-0.4-2-0.4c-0.6,0-1.1,0.1-1.4,0.3c-0.3,0.2-0.5,0.5-0.5,0.9
	c0,0.3,0.1,0.6,0.3,0.8c0.2,0.2,0.6,0.4,1.2,0.6l1.5,0.5c0.8,0.2,1.3,0.6,1.6,1c0.3,0.4,0.5,0.9,0.5,1.5c0,0.5-0.1,0.9-0.3,1.2
	c-0.2,0.4-0.4,0.7-0.8,0.9c-0.3,0.3-0.7,0.5-1.2,0.6C28,16.3,27.5,16.4,26.9,16.4z"/>
<path class="st1" d="M28.9,21.6c-3.5,2.6-8.6,4-13,4c-6.1,0-11.7-2.3-15.8-6c-0.3-0.3,0-0.7,0.4-0.5c4.5,2.6,10.1,4.2,15.8,4.2
	c3.9,0,8.2-0.8,12.1-2.5C29,20.5,29.5,21.2,28.9,21.6z"/>
<path class="st1" d="M30.4,19.9c-0.4-0.6-3-0.3-4.1-0.1c-0.3,0-0.4-0.3-0.1-0.5c2-1.4,5.3-1,5.7-0.5c0.4,0.5-0.1,3.8-2,5.3
	c-0.3,0.2-0.6,0.1-0.4-0.2C29.9,22.9,30.8,20.5,30.4,19.9z"/>
</svg>
