<svg width="16" height="16" viewBox="0 0 16 16" fill="none" xmlns="http://www.w3.org/2000/svg">
<path d="M12.9417 6.64707H11.9108V4.42354C11.9108 4.26765 11.902 4.11766 11.8873 3.96766C11.6553 1.99118 9.98407 0.5 7.99861 0.5C6.01315 0.5 4.34196 1.99118 4.11288 3.9706C4.09526 4.11472 4.08644 4.26765 4.08644 4.42354V6.64707H3.05846C2.65609 6.64707 2.33008 6.97648 2.33008 7.37942V14.7706C2.33008 15.1735 2.65609 15.5 3.05846 15.5H12.9417C13.3441 15.5 13.6701 15.1735 13.6701 14.7706V7.37942C13.6701 6.97648 13.3441 6.64707 12.9417 6.64707ZM8.43917 11.7294V12.7412C8.43917 12.9853 8.24239 13.1824 7.99861 13.1824C7.75483 13.1824 7.55805 12.9853 7.55805 12.7412V11.7294C7.06756 11.55 6.71805 11.0794 6.71805 10.5265C6.71805 9.82059 7.29371 9.24707 7.99861 9.24707C8.70351 9.24707 9.27916 9.82059 9.27916 10.5265C9.27916 11.0794 8.92965 11.55 8.43917 11.7294ZM10.736 6.64707H5.26126V4.42354C5.26126 4.31177 5.26714 4.20295 5.27888 4.10294C5.44042 2.7206 6.60938 1.67647 7.99861 1.67647C9.38783 1.67647 10.5568 2.7206 10.7183 4.10002C10.7301 4.20295 10.736 4.31177 10.736 4.42354V6.64707Z" fill="#A7A9B2"/>
</svg>
