<?xml version="1.0" encoding="utf-8"?>
<!-- Generator: Adobe Illustrator 24.0.0, SVG Export Plug-In . SVG Version: 6.00 Build 0)  -->
<svg version="1.1" id="Layer_1" xmlns="http://www.w3.org/2000/svg" xmlns:xlink="http://www.w3.org/1999/xlink" x="0px" y="0px"
	 viewBox="0 0 24 24" style="enable-background:new 0 0 24 24;" xml:space="preserve">
<style type="text/css">
	.st0{fill:#202433;}
</style>
<path class="st0" d="M19.3,10.3H21V4.5c0-0.1-0.1-0.2-0.1-0.2l0,0H16c0-1.9-1.5-3.4-3.4-3.4S9.2,2.4,9.2,4.3H4.4
	c-0.1,0-0.2,0.1-0.2,0.2v4.1c-1.8,0-3.3,1.6-3.3,3.4c0,1.9,1.5,3.4,3.3,3.5v4c0,0.1,0.1,0.1,0.2,0.1h4.9c0,1.9,1.5,3.4,3.5,3.4
	c1.8,0,3.3-1.5,3.3-3.3H21c0.1,0,0.1-0.1,0.1-0.2v-5.9h-1.8c-0.5,0-0.8-0.2-1.2-0.5c-0.3-0.3-0.4-0.6-0.4-1.2c0-0.4,0.1-0.8,0.4-1.2
	C18.5,10.5,18.8,10.3,19.3,10.3z M19.2,15.5v2.3h-5v1.8c0,0.4-0.1,0.8-0.4,1.2c-0.3,0.3-0.7,0.5-1.2,0.5c-0.4,0-0.8-0.2-1.2-0.5
	c-0.3-0.3-0.4-0.6-0.4-1.2v-1.8H6v-4.3H4.3c-0.5,0-0.8-0.2-1.2-0.5c-0.3-0.3-0.4-0.6-0.4-1.2c0-0.4,0.1-0.8,0.4-1.2
	c0.3-0.3,0.7-0.5,1.2-0.5h1.9v-4h5V4.4c0-0.4,0.1-0.8,0.4-1.2c0.3-0.3,0.7-0.5,1.2-0.5s0.8,0.2,1.2,0.5c0.3,0.3,0.4,0.6,0.4,1.2v1.7
	l5,0.1v2.3c-1.8,0-3.3,1.6-3.3,3.4C16,13.9,17.5,15.4,19.2,15.5z"/>
</svg>
