<?xml version="1.0" encoding="utf-8"?>
<!-- Generator: Adobe Illustrator 24.0.0, SVG Export Plug-In . SVG Version: 6.00 Build 0)  -->
<svg version="1.1" id="Layer_1" xmlns="http://www.w3.org/2000/svg" xmlns:xlink="http://www.w3.org/1999/xlink" x="0px" y="0px"
	 viewBox="0 0 32 32" style="enable-background:new 0 0 32 32;" xml:space="preserve">
<style type="text/css">
	.st0{fill:#DCDDE2;}
</style>
<g>
	<path class="st0" d="M24.8,27.1H7.2c-3.6,0-6.7-3-6.7-6.5c0-3.1,2.2-5.6,5.3-6.4c0-0.2,0-0.3,0-0.5c0-2.7,2.2-4.8,4.9-4.8
		c0.4,0,1,0.1,1.4,0.2c1.4-2.3,3.9-3.7,6.6-3.7c4.2,0,7.6,3.3,7.6,7.4c0,0.4-0.1,0.8-0.1,1.1c0,0.1,0,0.2,0,0.2
		c3.2,0.6,5.4,3.2,5.4,6.4C31.5,24.1,28.4,27.1,24.8,27.1z"/>
</g>
</svg>
