<?xml version="1.0" encoding="utf-8"?>
<!-- Generator: Adobe Illustrator 24.0.0, SVG Export Plug-In . SVG Version: 6.00 Build 0)  -->
<svg version="1.1" id="Layer_1" xmlns="http://www.w3.org/2000/svg" xmlns:xlink="http://www.w3.org/1999/xlink" x="0px" y="0px"
	 viewBox="0 0 32 32" style="enable-background:new 0 0 32 32;" xml:space="preserve">
<style type="text/css">
	.st0{fill:#CFD8DC;}
	.st1{fill:#2196F3;}
	.st2{fill:#FFC107;}
	.st3{fill:#1976D2;}
	.st4{fill:#F9A825;}
	.st5{fill:#DD2C00;}
	.st6{fill:#BF360C;}
</style>
<path class="st0" d="M20.6,7.4h-9.3L5.9,16l5.4,8.5h9.3l5.4-8.5L20.6,7.4z M16,19.8c-2.2,0-3.9-1.7-3.9-3.9s1.7-3.9,3.9-3.9
	s3.9,1.7,3.9,3.9S18.1,19.8,16,19.8z"/>
<path class="st1" d="M24.3,2.9C24,2.4,23.3,2,22.6,2H9.3C8.6,2,8,2.4,7.6,2.9l-4.5,7.4L6.7,16l4.9-7.8h16L24.3,2.9z M9.8,5.9
	C9.3,5.9,9,5.6,9,5.1c0-0.5,0.3-0.8,0.8-0.8c0.5,0,0.8,0.3,0.8,0.8C10.5,5.6,10.2,5.9,9.8,5.9z M22.2,5.9c-0.5,0-0.8-0.3-0.8-0.8
	c0-0.5,0.3-0.8,0.8-0.8c0.5,0,0.8,0.3,0.8,0.8C22.9,5.6,22.6,5.9,22.2,5.9z"/>
<path class="st2" d="M11.5,23.7L3.1,10.4L0.3,15c-0.4,0.6-0.4,1.5,0,2.1l7.3,12c0.4,0.6,1,0.9,1.7,0.9h7.1l4-6.2H11.5z M3.5,16.7
	c-0.5,0-0.8-0.3-0.8-0.8c0-0.5,0.3-0.8,0.8-0.8c0.5,0,0.8,0.3,0.8,0.8C4.3,16.4,4,16.7,3.5,16.7z M9.8,27.6c-0.5,0-0.8-0.3-0.8-0.8
	c0-0.5,0.3-0.8,0.8-0.8c0.5,0,0.8,0.3,0.8,0.8C10.5,27.3,10.2,27.6,9.8,27.6z"/>
<path class="st3" d="M3.1,10.4L6.7,16l1.9-2.9L3.9,9L3.1,10.4z"/>
<path class="st4" d="M16.4,29.9l4-6.2h-3.7l-1.8,6.2H16.4z"/>
<path class="st5" d="M31.6,15l-4.1-6.8h-7.1l4.9,7.8l-8.8,14h6.2c0.7,0,1.3-0.4,1.7-0.9l7.4-12C32.1,16.4,32.1,15.6,31.6,15L31.6,15
	z M22.2,27.6c-0.5,0-0.8-0.3-0.8-0.8c0-0.5,0.3-0.8,0.8-0.8c0.5,0,0.8,0.3,0.8,0.8C22.9,27.3,22.6,27.6,22.2,27.6z M28.4,16.7
	c-0.5,0-0.8-0.3-0.8-0.8c0-0.5,0.3-0.8,0.8-0.8c0.5,0,0.8,0.3,0.8,0.8C29.2,16.4,28.8,16.7,28.4,16.7z"/>
<path class="st6" d="M27.5,8.2h-7.1l1.9,3l6.1-1.5L27.5,8.2z"/>
</svg>
