<svg width="32" height="32" viewBox="0 0 32 32" fill="none" xmlns="http://www.w3.org/2000/svg">
<g clip-path="url(#clip0-765787)">
<path d="M14.804 27.0782C18.9153 26.3514 22.3109 25.75 22.3499 25.7418L22.4208 25.7267L18.5394 21.1067C16.4046 18.5658 14.658 16.4769 14.658 16.4649C14.658 16.4421 18.6659 5.39769 18.6884 5.35839C18.6959 5.34526 21.4234 10.0574 25.3 16.781C28.9294 23.0757 31.9216 28.2657 31.9494 28.3143L32 28.4027L19.6645 28.4011L7.32898 28.3996L14.804 27.0782ZM0 25.6693C0 25.6628 1.82891 22.4858 4.06425 18.6093L8.1285 11.5611L12.8649 7.58363C15.4699 5.39601 17.6083 3.60346 17.6169 3.60019C17.6255 3.59692 17.5912 3.68323 17.5408 3.79198C17.4903 3.90074 15.1759 8.86822 12.3977 14.8308L7.34635 25.6719L3.67317 25.6765C1.65293 25.6791 0 25.6758 0 25.6693Z" fill="#0089D6"/>
</g>
<defs>
<clipPath id="clip0-765787">
<rect width="32" height="32" fill="white"/>
</clipPath>
</defs>
</svg>
