<svg width="24" height="24" viewBox="0 0 24 24" fill="none" xmlns="http://www.w3.org/2000/svg">
<path d="M11.7 14C11.5143 14 11.3363 13.9239 11.205 13.7885C11.0737 13.653 11 13.4693 11 13.2778V1.72222C11 1.53068 11.0737 1.34698 11.205 1.21153C11.3363 1.07609 11.5143 1 11.7 1C11.8857 1 12.0637 1.07609 12.195 1.21153C12.3263 1.34698 12.4 1.53068 12.4 1.72222V13.2778C12.4 13.4693 12.3263 13.653 12.195 13.7885C12.0637 13.9239 11.8857 14 11.7 14Z" fill="#60B731"/>
<path d="M19.9056 8.29866H19.6886C20.4591 9.92034 20.7475 11.7354 20.5184 13.5214C20.2893 15.3073 19.5527 16.9864 18.3988 18.3528C17.2449 19.7192 15.724 20.7135 14.0225 21.2138C12.3211 21.7141 10.513 21.6985 8.82006 21.1691C7.12713 20.6397 5.62293 19.6195 4.4919 18.2334C3.36088 16.8474 2.6522 15.1559 2.45277 13.3663C2.25334 11.5767 2.57183 9.76681 3.36919 8.15859C4.16654 6.55036 5.4081 5.2137 6.94161 4.31252C7.09397 4.21403 7.20302 4.05948 7.24598 3.88116C7.28893 3.70284 7.26247 3.51454 7.17211 3.35559C7.08176 3.19664 6.93451 3.07934 6.76111 3.02819C6.58771 2.97704 6.40159 2.99599 6.24161 3.08109C4.49107 4.111 3.07029 5.63309 2.15002 7.46439C1.22975 9.29569 0.849165 11.3583 1.054 13.4042C1.25884 15.4502 2.04038 17.3925 3.30469 18.9976C4.569 20.6028 6.26229 21.8025 8.18101 22.4526C10.0997 23.1026 12.1623 23.1754 14.1207 22.6621C16.0791 22.1488 17.8501 21.0713 19.2207 19.5591C20.5914 18.0469 21.5034 16.1644 21.8472 14.1378C22.191 12.1111 21.9519 10.0267 21.1586 8.13494C20.749 8.24067 20.3282 8.29564 19.9056 8.29866Z" fill="#60B731"/>
<path d="M19.5 7C21.433 7 23 5.433 23 3.5C23 1.567 21.433 0 19.5 0C17.567 0 16 1.567 16 3.5C16 5.433 17.567 7 19.5 7Z" fill="#60B731"/>
</svg>
