<svg width="32" height="32" viewBox="0 0 32 32" fill="none" xmlns="http://www.w3.org/2000/svg">
<g clip-path="url(#clip0)">
<path d="M16.4721 19.9467C16.4721 19.9467 18.3986 17.1509 18.1675 13.0503C17.9363 8.9497 16.5749 7.75148 16.1896 7.11243C16.1896 7.11243 13.8521 9.88166 14.1604 15.0207C14.1604 15.0207 12.4651 15.2337 11.0523 15.8462C11.0523 15.8462 9.58818 7.99112 16.1896 2C16.1896 2 20.5306 5.08876 21.4296 12.4112C21.4296 12.4112 22.0718 17.8166 18.6812 22.5296C18.7069 22.5296 16.8318 20.8254 16.4721 19.9467Z" fill="black"/>
<path d="M17.4482 15.5C17.4482 15.5 17.1143 17.9231 16.3951 18.855C16.3951 18.855 9.12583 18.6953 5.91502 25.5385C5.91502 25.5385 9.71662 26.284 13.5439 23.3284C13.5439 23.3284 14.4943 24.8728 15.7786 25.7781C15.7786 25.7781 10.0762 30.8905 1.67676 28.1213C1.67676 28.1213 2.11343 21.6509 9.02308 17.4172C9.02308 17.4172 12.2082 15.2071 17.4482 15.5Z" fill="black"/>
<path d="M21.7635 16.5917C21.7635 16.5917 21.6351 18.3758 20.7875 19.8935C20.7875 19.8935 24.3065 21.0651 26.5155 25.6184C26.5155 25.6184 19.8114 26.7101 15.5474 19.4675C15.5474 19.4675 13.287 19.5207 12.3623 20.2663C12.3623 20.2663 14.9309 26.7367 22.4057 28.6805C22.4057 28.6805 27.7742 29.7722 30.6767 27.9616C30.6767 27.9616 29.8291 20.5592 21.7635 16.5917Z" fill="black"/>
</g>
<defs>
<clipPath id="clip0">
<rect width="29" height="27" fill="white" transform="translate(1.67676 2)"/>
</clipPath>
</defs>
</svg>
