<?xml version="1.0" encoding="utf-8"?>
<!-- Generator: Adobe Illustrator 24.0.0, SVG Export Plug-In . SVG Version: 6.00 Build 0)  -->
<svg version="1.1" id="Layer_1" xmlns="http://www.w3.org/2000/svg" xmlns:xlink="http://www.w3.org/1999/xlink" x="0px" y="0px"
	 viewBox="0 0 32 32" style="enable-background:new 0 0 32 32;" xml:space="preserve">
<style type="text/css">
	.st0{clip-path:url(#SVGID_2_);}
	.st1{fill:#0089D6;}
</style>
<g>
	<defs>
		<rect id="SVGID_1_" y="0" width="32" height="32"/>
	</defs>
	<clipPath id="SVGID_2_">
		<use xlink:href="#SVGID_1_"  style="overflow:visible;"/>
	</clipPath>
	<g class="st0">
		<path class="st1" d="M14.8,27.1c4.1-0.7,7.5-1.3,7.5-1.3l0.1,0l-3.9-4.6c-2.1-2.5-3.9-4.6-3.9-4.6c0,0,4-11.1,4-11.1
			c0,0,2.7,4.7,6.6,11.4c3.6,6.3,6.6,11.5,6.6,11.5l0.1,0.1l-12.3,0l-12.3,0L14.8,27.1z M0,25.7c0,0,1.8-3.2,4.1-7.1l4.1-7l4.7-4
			c2.6-2.2,4.7-4,4.8-4c0,0,0,0.1-0.1,0.2c-0.1,0.1-2.4,5.1-5.1,11L7.3,25.7l-3.7,0C1.7,25.7,0,25.7,0,25.7z"/>
	</g>
</g>
</svg>
