<svg width="24" height="24" viewBox="0 0 24 24" fill="none" xmlns="http://www.w3.org/2000/svg">
<path d="M11.9997 14C11.8229 14 11.6533 13.9298 11.5283 13.8047C11.4032 13.6797 11.333 13.5101 11.333 13.3333V2.66667C11.333 2.48986 11.4032 2.32029 11.5283 2.19526C11.6533 2.07024 11.8229 2 11.9997 2C12.1765 2 12.3461 2.07024 12.4711 2.19526C12.5961 2.32029 12.6663 2.48986 12.6663 2.66667V13.3333C12.6663 13.5101 12.5961 13.6797 12.4711 13.8047C12.3461 13.9298 12.1765 14 11.9997 14Z" fill="#A7A9B2"/>
<path d="M20.0005 8.99972H19.7938C20.5276 10.5186 20.8023 12.2185 20.5841 13.8912C20.3659 15.5639 19.6643 17.1365 18.5654 18.4162C17.4665 19.696 16.018 20.6272 14.3975 21.0958C12.7771 21.5643 11.0551 21.5498 9.4428 21.0539C7.83048 20.5581 6.39791 19.6026 5.32074 18.3044C4.24357 17.0063 3.56864 15.4221 3.37871 13.746C3.18878 12.0699 3.4921 10.3748 4.25149 8.86853C5.01087 7.3623 6.19331 6.11041 7.65379 5.26639C7.7989 5.17414 7.90276 5.0294 7.94367 4.86238C7.98458 4.69537 7.95937 4.51901 7.87332 4.37015C7.78727 4.22128 7.64703 4.11142 7.48189 4.06351C7.31675 4.0156 7.13949 4.03335 6.98713 4.11305C5.31995 5.07765 3.96682 6.5032 3.09038 8.21836C2.21393 9.93352 1.85146 11.8653 2.04655 13.7815C2.24163 15.6977 2.98595 17.5168 4.19006 19.0202C5.39417 20.5235 7.00682 21.6471 8.83418 22.256C10.6615 22.8648 12.6258 22.9329 14.491 22.4522C16.3562 21.9715 18.0428 20.9623 19.3482 19.546C20.6536 18.1297 21.5222 16.3666 21.8496 14.4685C22.177 12.5704 21.9493 10.6182 21.1938 8.84639C20.8036 8.94541 20.403 8.99689 20.0005 8.99972Z" fill="#A7A9B2"/>
<path d="M20.0003 7.33317C21.8413 7.33317 23.3337 5.84079 23.3337 3.99984C23.3337 2.15889 21.8413 0.666504 20.0003 0.666504C18.1594 0.666504 16.667 2.15889 16.667 3.99984C16.667 5.84079 18.1594 7.33317 20.0003 7.33317Z" fill="#EF3817"/>
</svg>
