<svg width="32" height="32" viewBox="0 0 32 32" fill="none" xmlns="http://www.w3.org/2000/svg">
<g clip-path="url(#clip0-436347)">
<path d="M16.4721 19.9467C16.4721 19.9467 18.3986 17.1509 18.1675 13.0503C17.9363 8.9497 16.5749 7.75148 16.1896 7.11243C16.1896 7.11243 13.8521 9.88166 14.1604 15.0207C14.1604 15.0207 12.4651 15.2337 11.0523 15.8462C11.0523 15.8462 9.58818 7.99112 16.1896 2C16.1896 2 20.5306 5.08876 21.4296 12.4112C21.4296 12.4112 22.0718 17.8166 18.6812 22.5296C18.7069 22.5296 16.8318 20.8254 16.4721 19.9467Z" fill="black"/>
<path d="M17.4482 15.4999C17.4482 15.4999 17.1143 17.923 16.3951 18.8549C16.3951 18.8549 9.12583 18.6952 5.91502 25.5383C5.91502 25.5383 9.71662 26.2839 13.5439 23.3283C13.5439 23.3283 14.4943 24.8727 15.7786 25.778C15.7786 25.778 10.0762 30.8904 1.67676 28.1212C1.67676 28.1212 2.11343 21.6508 9.02308 17.417C9.02308 17.417 12.2082 15.207 17.4482 15.4999Z" fill="black"/>
<path d="M21.7635 16.5918C21.7635 16.5918 21.6351 18.3758 20.7875 19.8936C20.7875 19.8936 24.3065 21.0652 26.5155 25.6184C26.5155 25.6184 19.8114 26.7101 15.5474 19.4675C15.5474 19.4675 13.287 19.5208 12.3623 20.2664C12.3623 20.2664 14.9309 26.7368 22.4057 28.6806C22.4057 28.6806 27.7742 29.7723 30.6768 27.9616C30.6768 27.9616 29.8291 20.5593 21.7635 16.5918Z" fill="black"/>
</g>
<defs>
<clipPath id="clip0-436347">
<rect width="29" height="27" fill="white" transform="translate(1.67676 2)"/>
</clipPath>
</defs>
</svg>
