<?xml version="1.0" encoding="utf-8"?>
<!-- Generator: Adobe Illustrator 24.0.0, SVG Export Plug-In . SVG Version: 6.00 Build 0)  -->
<svg version="1.1" id="Layer_1" xmlns="http://www.w3.org/2000/svg" xmlns:xlink="http://www.w3.org/1999/xlink" x="0px" y="0px"
	 viewBox="0 0 24 24" style="enable-background:new 0 0 24 24;" xml:space="preserve">
<path d="M3.5,20.2C4,20.8,4.7,21,5.5,21c0.9,0,2-0.3,3.1-0.8c1.1,0.5,2.3,0.8,3.5,0.8c1.5,0,3-0.4,4.3-1.2c0.9-0.6,1.8-1.3,2.4-2.2
	c0.7-0.9,1.1-1.9,1.4-3c0.4-1.5,0.3-3.1-0.2-4.6c1.2-2.1,1.6-4,0.6-5.1c-0.6-0.7-1.5-1-2.4-0.9c-0.8,0.1-1.6,0.5-2.4,1.1
	c-1.3-0.7-2.7-1-4.1-0.9c-1.4,0-2.8,0.5-4,1.2C6.9,6,6.1,6.7,5.4,7.6c-0.7,0.9-1.1,1.9-1.4,3c-0.4,1.6-0.3,3.4,0.3,5
	C3.3,16.6,2.4,18.9,3.5,20.2L3.5,20.2z M4.9,19c-0.2-0.2,0-1,0.4-1.6C5.7,18,6.2,18.5,6.7,19C5.8,19.3,5.1,19.2,4.9,19z M18.5,14.2
	c-0.2,0.8-0.6,1.6-1.1,2.3c-0.5,0.7-1.2,1.3-1.9,1.7c-1,0.6-2.2,0.9-3.3,0.9c-0.4,0-0.8,0-1.2-0.1c1.5-0.9,2.8-1.9,4.1-3.1
	c1.3-1.2,2.5-2.5,3.5-3.7C18.7,12.9,18.6,13.5,18.5,14.2z M18.6,5.9c0.3,0,0.6,0.1,0.8,0.3c0.2,0.2,0.2,0.9-0.2,1.8
	c-0.4-0.6-0.9-1.2-1.5-1.7C18,6,18.3,5.9,18.6,5.9L18.6,5.9z M5.8,11C6,10.2,6.4,9.4,6.9,8.7C7.4,8,8.1,7.4,8.8,7
	c1-0.6,2.2-0.9,3.3-0.9c2.3,0,4.4,1.2,5.6,3.2c0.1,0.2,0.2,0.4,0.3,0.6c-0.9,1.3-2.3,2.9-4.2,4.7c-1.9,1.7-3.7,2.9-5.1,3.6
	c-0.9-0.5-1.6-1.3-2.2-2.2c-0.4-0.7-0.7-1.5-0.9-2.4C5.6,12.7,5.6,11.8,5.8,11z"/>
</svg>
