<svg width="24" height="24" viewBox="0 0 24 24" fill="none" xmlns="http://www.w3.org/2000/svg">
<path d="M11.9999 14C11.8231 14 11.6535 13.9298 11.5285 13.8047C11.4035 13.6797 11.3333 13.5101 11.3333 13.3333V2.66667C11.3333 2.48986 11.4035 2.32029 11.5285 2.19526C11.6535 2.07024 11.8231 2 11.9999 2C12.1767 2 12.3463 2.07024 12.4713 2.19526C12.5963 2.32029 12.6666 2.48986 12.6666 2.66667V13.3333C12.6666 13.5101 12.5963 13.6797 12.4713 13.8047C12.3463 13.9298 12.1767 14 11.9999 14Z" fill="#60B731"/>
<path d="M20 8.99972H19.7933C20.5272 10.5186 20.8018 12.2185 20.5836 13.8912C20.3654 15.5639 19.6639 17.1365 18.5649 18.4162C17.466 19.696 16.0175 20.6272 14.397 21.0958C12.7766 21.5643 11.0546 21.5498 9.44231 21.0539C7.82999 20.5581 6.39742 19.6026 5.32025 18.3044C4.24308 17.0063 3.56815 15.4221 3.37822 13.746C3.18829 12.0699 3.49161 10.3748 4.251 8.86853C5.01038 7.3623 6.19282 6.11041 7.65331 5.26639C7.79842 5.17414 7.90227 5.0294 7.94318 4.86238C7.98409 4.69537 7.95889 4.51901 7.87283 4.37015C7.78678 4.22128 7.64654 4.11142 7.4814 4.06351C7.31626 4.0156 7.139 4.03335 6.98664 4.11305C5.31946 5.07765 3.96633 6.5032 3.08989 8.21836C2.21344 9.93352 1.85098 11.8653 2.04606 13.7815C2.24114 15.6977 2.98547 17.5168 4.18957 19.0202C5.39368 20.5235 7.00633 21.6471 8.83369 22.256C10.6611 22.8648 12.6254 22.9329 14.4905 22.4522C16.3557 21.9715 18.0423 20.9623 19.3477 19.546C20.6531 18.1297 21.5217 16.3666 21.8491 14.4685C22.1765 12.5704 21.9488 10.6182 21.1933 8.84639C20.8032 8.94541 20.4025 8.99689 20 8.99972V8.99972Z" fill="#60B731"/>
<path d="M20.0001 7.33268C21.841 7.33268 23.3334 5.8403 23.3334 3.99935C23.3334 2.1584 21.841 0.666016 20.0001 0.666016C18.1591 0.666016 16.6667 2.1584 16.6667 3.99935C16.6667 5.8403 18.1591 7.33268 20.0001 7.33268Z" fill="#60B731"/>
</svg>
