<svg width="32" height="32" viewBox="0 0 32 32" fill="none" xmlns="http://www.w3.org/2000/svg">
<path d="M2.66663 16C2.66663 8.63996 8.62663 2.66663 15.9866 2.66663C23.36 2.66663 29.3333 8.63996 29.3333 16C29.3333 16.5802 29.2962 17.1519 29.2241 17.7127L27.4448 17.4416L26.6645 15.7835C26.5493 9.99016 21.821 5.33329 16 5.33329C10.1066 5.33329 5.33329 10.1066 5.33329 16C5.33329 21.8205 9.98941 26.5485 15.782 26.6644L15.4561 28.6579L15.4553 28.663C15.42 28.881 15.4041 29.1011 15.4074 29.3209C8.31643 29.0173 2.66663 23.1659 2.66663 16Z" fill="#898995"/>
<path d="M29.4012 20.7742L25.4116 20.1665L23.6279 16.3764C23.5637 16.2618 23.4719 16.1668 23.3619 16.1008C23.2518 16.0347 23.1272 16 23.0004 16C22.8735 16 22.7489 16.0347 22.6388 16.1008C22.5288 16.1668 22.437 16.2618 22.3728 16.3764L20.5884 20.1665L16.5988 20.7742C16.4697 20.794 16.3484 20.8513 16.2486 20.9395C16.1488 21.0278 16.0746 21.1435 16.0343 21.2737C15.9939 21.4038 15.9891 21.5432 16.0203 21.6761C16.0516 21.8089 16.1176 21.93 16.211 22.0256L19.098 24.9761L18.4217 29.1119L18.4168 29.142C18.395 29.2768 18.4096 29.4154 18.4588 29.542C18.5081 29.6686 18.5901 29.7783 18.6957 29.8586C18.8012 29.939 18.926 29.9868 19.0561 29.9967C19.1862 30.0067 19.3164 29.9783 19.4319 29.9149L23 27.9479L26.5681 29.9149C26.6684 29.9705 26.7801 29.9997 26.8936 30C26.9955 29.9999 27.0969 29.9765 27.1893 29.9315C27.2817 29.8864 27.3636 29.8207 27.4292 29.739C27.4949 29.6573 27.5428 29.5615 27.5695 29.4584C27.5962 29.3553 27.6011 29.2473 27.5839 29.142L26.902 24.9761L29.789 22.0256C29.8824 21.93 29.9484 21.8089 29.9797 21.6761C30.0109 21.5432 30.0061 21.4038 29.9657 21.2737C29.9254 21.1435 29.8512 21.0278 29.7514 20.9395C29.6516 20.8513 29.5303 20.794 29.4012 20.7742Z" fill="#898995"/>
<path d="M15 9H17V17L10 21.2L9 19.56L15 16V9Z" fill="#898995"/>
</svg>
