<svg width="24" height="24" viewBox="0 0 24 24" fill="none" xmlns="http://www.w3.org/2000/svg">
<path fill-rule="evenodd" clip-rule="evenodd" d="M6.41399 17.2031C7.79393 18.583 9.66555 19.3583 11.6171 19.3583L11.6201 19.3582C13.264 19.3087 14.8525 18.7525 16.1682 17.7657C17.484 16.7789 18.4627 15.4097 18.9705 13.8454L19.013 13.7145H16.9972L16.9702 13.7722C16.4897 14.8009 15.736 15.6779 14.7913 16.3076C13.8472 16.937 12.7486 17.2954 11.615 17.3437C10.1985 17.3431 8.84015 16.7802 7.83851 15.7786C6.83636 14.7764 6.27336 13.4172 6.27336 12C6.27336 10.5827 6.83636 9.22353 7.83851 8.22138C8.84065 7.21924 10.1998 6.65631 11.6171 6.65631L11.6207 6.65618C12.3124 6.63129 12.9993 6.78046 13.6184 7.09002C14.2126 7.38711 14.7261 7.82282 15.1158 8.35984L12.283 11.1927H18.9754V4.50024L17.0471 6.42851C15.4181 5.38808 13.5532 4.77351 11.6239 4.6419L11.6171 4.74167V4.64167C9.66555 4.64167 7.79393 5.41691 6.41399 6.79686C5.03404 8.17681 4.25879 10.0484 4.25879 12C4.25879 13.9515 5.03404 15.8231 6.41399 17.2031ZM17.0608 13.8146H18.875C18.3736 15.3593 17.4071 16.7113 16.1079 17.6858C17.379 16.7324 18.332 15.4176 18.8422 13.9145C18.8535 13.8813 18.8642 13.848 18.875 13.8146H17.0608C17.0608 13.8146 17.0608 13.8146 17.0608 13.8146Z" fill="#222532"/>
</svg>
