<svg width="24" height="24" viewBox="0 0 24 24" fill="none" xmlns="http://www.w3.org/2000/svg">
<path fill-rule="evenodd" clip-rule="evenodd" d="M6.41399 17.2739C7.79393 18.6538 9.66555 19.4291 11.6171 19.4291L11.6201 19.429C13.264 19.3795 14.8525 18.8233 16.1682 17.8365C17.484 16.8497 18.4627 15.4805 18.9705 13.9162L19.013 13.7853H16.9972L16.9702 13.843C16.4897 14.8717 15.736 15.7487 14.7913 16.3784C13.8472 17.0078 12.7486 17.3662 11.615 17.4145C10.1985 17.4139 8.84015 16.851 7.83851 15.8494C6.83636 14.8472 6.27336 13.488 6.27336 12.0708C6.27336 10.6535 6.83636 9.29433 7.83851 8.29218C8.84065 7.29004 10.1998 6.72711 11.6171 6.72711L11.6207 6.72698C12.3124 6.70209 12.9993 6.85127 13.6184 7.16082C14.2126 7.45791 14.7261 7.89362 15.1158 8.43064L12.283 11.2635H18.9754V4.57104L17.0471 6.49931C15.4181 5.45888 13.5532 4.84431 11.6239 4.7127L11.6171 4.81247V4.71247C9.66555 4.71247 7.79393 5.48771 6.41399 6.86766C5.03404 8.24761 4.25879 10.1192 4.25879 12.0708C4.25879 14.0223 5.03404 15.8939 6.41399 17.2739ZM17.0608 13.8854H18.875C18.3736 15.4301 17.4071 16.7821 16.1079 17.7566C17.379 16.8032 18.332 15.4884 18.8422 13.9853C18.8535 13.9521 18.8642 13.9188 18.875 13.8854H17.0608C17.0608 13.8854 17.0608 13.8854 17.0608 13.8854Z" fill="#222532"/>
</svg>
