<svg width="32" height="32" viewBox="0 0 32 32" fill="none" xmlns="http://www.w3.org/2000/svg">
<path d="M15 9H17V17L10 21.2L9 19.56L15 16V9Z" fill="#898995"/>
<path d="M25.4598 19.1069L29.283 19.6892C29.9686 19.7931 30.2434 20.6762 29.7462 21.182L26.9802 23.9981L27.6344 27.9761C27.7521 28.6951 27.0273 29.231 26.4202 28.8975L23 27.0192L19.5798 28.8975C18.9727 29.2337 18.2479 28.6951 18.3656 27.9761L19.0198 23.9981L16.2538 21.182C15.7566 20.6762 16.0314 19.7931 16.717 19.6892L20.5402 19.1069L22.249 15.487C22.5578 14.8336 23.4449 14.8418 23.751 15.487L25.4598 19.1069Z" fill="#898995"/>
<path d="M27.1975 15.7602C27.0699 9.68535 22.1055 4.8 16 4.8C9.81441 4.8 4.8 9.81441 4.8 16C4.8 22.0029 9.5226 26.9028 15.4551 27.187L15.4051 27.4912C15.26 28.3771 15.4433 29.255 15.8548 29.9993C8.18971 29.9214 2 23.6835 2 16C2 8.26801 8.26801 2 16 2C23.732 2 30 8.26801 30 16C30 16.2576 29.993 16.5137 29.9793 16.7679C29.899 16.7508 29.8171 16.736 29.7338 16.7233L27.4908 16.3816L27.1975 15.7602Z" fill="#898995"/>
</svg>
