<?xml version="1.0" encoding="utf-8"?>
<!-- Generator: Adobe Illustrator 23.1.1, SVG Export Plug-In . SVG Version: 6.00 Build 0)  -->
<svg version="1.1" id="Layer_1" xmlns="http://www.w3.org/2000/svg" xmlns:xlink="http://www.w3.org/1999/xlink" x="0px" y="0px"
	 viewBox="0 0 24 24" style="enable-background:new 0 0 24 24;" xml:space="preserve">
<style type="text/css">
	.st0{fill:none;}
	.st1{fill:#0080FB;}
</style>
<g transform="translate(-120 -193)">
	<rect x="120" y="193" class="st0" width="24" height="24"/>
	<g transform="translate(122 195)">
		<circle class="st0" cx="10" cy="10" r="10"/>
		<g>
			<path class="st1" d="M10,20C4.5,20,0,15.5,0,10C0,4.5,4.5,0,10,0c5.5,0,10,4.5,10,10C20,15.5,15.5,20,10,20z M10,2
				c-4.4,0-8,3.6-8,8s3.6,8,8,8s8-3.6,8-8S14.4,2,10,2z"/>
		</g>
	</g>
	<path class="st1" d="M132,200c2.8,0,5,2.2,5,5s-2.2,5-5,5s-5-2.2-5-5S129.2,200,132,200z"/>
</g>
</svg>
