<svg width="16" height="16" viewBox="0 0 16 16" fill="none" xmlns="http://www.w3.org/2000/svg">
<path fill-rule="evenodd" clip-rule="evenodd" d="M6.66663 0.666672C6.29844 0.666672 5.99996 0.965149 5.99996 1.33334C5.99996 1.70153 6.29844 2.00001 6.66663 2.00001H9.33329C9.70148 2.00001 9.99996 1.70153 9.99996 1.33334C9.99996 0.965149 9.70148 0.666672 9.33329 0.666672H6.66663ZM8.66663 6.66667C8.66663 6.29848 8.36815 6.00001 7.99996 6.00001C7.63177 6.00001 7.33329 6.29848 7.33329 6.66667V9.33334C7.33329 9.70153 7.63177 10 7.99996 10C8.36815 10 8.66663 9.70153 8.66663 9.33334V6.66667ZM7.99472 4.66665C6.85178 4.65769 5.7453 5.0685 4.88512 5.82115C4.02494 6.57381 3.47089 7.61597 3.32806 8.74999C3.28204 9.11529 2.94861 9.37413 2.5833 9.32811C2.218 9.2821 1.95916 8.94866 2.00518 8.58336C2.18882 7.12534 2.90117 5.78542 4.00711 4.81772C5.11249 3.85051 6.53422 3.32238 8.00292 3.33334C8.97268 3.33474 9.92766 3.57117 10.7861 4.02241C11.6451 4.474 12.3818 5.12724 12.933 5.92611C13.4841 6.72497 13.8332 7.64561 13.9504 8.60905C14.0676 9.57249 13.9493 10.55 13.6056 11.4576C13.262 12.3653 12.7033 13.1761 11.9775 13.8204C11.2517 14.4647 10.3805 14.9233 9.43846 15.1569C8.49645 15.3905 7.51184 15.3921 6.56908 15.1616C5.62632 14.9311 4.75356 14.4753 4.02566 13.8333L4.02371 13.8316L3.33329 13.2179V14.6667C3.33329 15.0349 3.03482 15.3333 2.66663 15.3333C2.29844 15.3333 1.99996 15.0349 1.99996 14.6667V11.738C1.99994 11.7347 1.99994 11.7315 1.99996 11.7282V11.3333C1.99996 10.9651 2.29844 10.6667 2.66663 10.6667H5.99996C6.36815 10.6667 6.66663 10.9651 6.66663 11.3333C6.66663 11.7015 6.36815 12 5.99996 12H3.97008L4.90757 12.8333L4.90852 12.8342C5.47448 13.333 6.15295 13.6872 6.88579 13.8664C7.61905 14.0457 8.38486 14.0445 9.11753 13.8628C9.8502 13.6811 10.5279 13.3244 11.0924 12.8233C11.6569 12.3221 12.0914 11.6915 12.3587 10.9856C12.6259 10.2796 12.7179 9.51934 12.6268 8.77C12.5357 8.02066 12.2642 7.30461 11.8355 6.68327C11.4068 6.06193 10.8338 5.55385 10.1657 5.20262C9.4975 4.85138 8.7541 4.66747 7.99924 4.66667L7.99472 4.66665Z" fill="#222532"/>
</svg>