<?xml version="1.0" encoding="utf-8"?>
<!-- Generator: Adobe Illustrator 24.0.0, SVG Export Plug-In . SVG Version: 6.00 Build 0)  -->
<svg version="1.1" id="Layer_1" xmlns="http://www.w3.org/2000/svg" xmlns:xlink="http://www.w3.org/1999/xlink" x="0px" y="0px"
	 viewBox="0 0 24 24" style="enable-background:new 0 0 24 24;" xml:space="preserve">
<style type="text/css">
	.st0{fill:#0080FB;}
</style>
<g>
	<path class="st0" d="M12,21c-5,0-9-4-9-9c0-5,4-9,9-9c5,0,9,4,9,9C21,17,17,21,12,21z M12,4c-4.4,0-8,3.6-8,8s3.6,8,8,8s8-3.6,8-8
		S16.4,4,12,4z"/>
</g>
<g>
	<path class="st0" d="M12,7c1,0,2,0.3,2.8,0.8c0.8,0.5,1.5,1.3,1.8,2.2C17,11,17.1,12,16.9,13c-0.2,1-0.7,1.9-1.4,2.6
		c-0.7,0.7-1.6,1.2-2.6,1.4c-1,0.2-2,0.1-2.9-0.3c-0.9-0.4-1.7-1-2.2-1.8C7.3,14,7,13,7,12c0-1.3,0.5-2.6,1.5-3.5
		C9.4,7.5,10.7,7,12,7z"/>
</g>
</svg>
