<svg width="24" height="24" viewBox="0 0 24 24" fill="none" xmlns="http://www.w3.org/2000/svg">
<g opacity="0.5">
<path fill-rule="evenodd" clip-rule="evenodd" d="M8.50559 3.4165C9.61919 2.9885 10.8079 2.79017 12.0001 2.83346C14.3632 2.83711 16.628 3.77934 18.2964 5.45286C19.9648 7.12639 20.9 9.39413 20.8964 11.7572C20.8927 14.1203 19.9505 16.3851 18.277 18.0535C16.6034 19.7219 14.3357 20.6571 11.9726 20.6535C11.0749 20.6562 10.1809 20.5391 9.31427 20.3051C9.15772 20.246 8.98498 20.246 8.82843 20.3051L6.9951 21.1026C6.88455 21.1503 6.76407 21.1704 6.64404 21.1611C6.52401 21.1519 6.40803 21.1136 6.3061 21.0495C6.20416 20.9855 6.11933 20.8976 6.05891 20.7935C5.99849 20.6893 5.96429 20.5721 5.95927 20.4518V18.8201C5.95385 18.7225 5.9292 18.6269 5.88673 18.5388C5.84425 18.4507 5.7848 18.3718 5.71177 18.3068C4.79194 17.4772 4.05947 16.4611 3.56315 15.3262C3.06683 14.1913 2.81807 12.9637 2.83343 11.7251C2.82647 10.5321 3.06089 9.35005 3.52261 8.25C3.98433 7.14994 4.6638 6.15466 5.52014 5.32401C6.37648 4.49336 7.39199 3.84451 8.50559 3.4165ZM10.9 8.3334C10.9 7.74673 11.4133 7.2334 12 7.2334C12.5867 7.2334 13.1 7.74673 13.1 8.3334C13.1 8.92006 12.5867 9.4334 12 9.4334C11.4133 9.4334 10.9 8.92006 10.9 8.3334ZM9.43335 10.9001V10.1667H12.3667C12.7333 10.1667 13.1 10.5334 13.1 10.9001V13.8334C13.1 15.3001 14.5667 15.3001 14.5667 15.3001V16.0334H9.43335V15.3001C9.43335 15.3001 10.9 15.3001 10.9 13.8334V12.3667C10.9 10.9001 9.43335 10.9001 9.43335 10.9001Z" fill="#222532"/>
</g>
</svg>
