<?xml version="1.0" encoding="utf-8"?>
<!-- Generator: Adobe Illustrator 24.0.0, SVG Export Plug-In . SVG Version: 6.00 Build 0)  -->
<svg version="1.1" id="Layer_1" xmlns="http://www.w3.org/2000/svg" xmlns:xlink="http://www.w3.org/1999/xlink" x="0px" y="0px"
	 viewBox="0 0 32 32" style="enable-background:new 0 0 32 32;" xml:space="preserve">
<style type="text/css">
	.st0{fill:#FFCE02;}
	.st1{fill:#FFFFFF;}
</style>
<path class="st0" d="M2,0h28c1.1,0,2,0.9,2,2v28c0,1.1-0.9,2-2,2H2c-1.1,0-2-0.9-2-2V2C0,0.9,0.9,0,2,0z"/>
<path class="st1" d="M23.3,12.2l1.5-2.9l-1.9-1.9L20,8.9c-0.5-0.3-1-0.5-1.5-0.6L17.4,5h-2.8l-1.1,3.2c-0.5,0.1-0.9,0.3-1.4,0.5
	L9.3,7.2L7.2,9.3l1.5,2.9c-0.2,0.4-0.4,0.9-0.5,1.4L5,14.6v2.8l3.2,1.1c0.1,0.5,0.4,1,0.5,1.5l-1.5,2.9l1.9,1.9l2.9-1.5
	c0.5,0.3,1,0.5,1.5,0.5l1.1,3.2h2.8l1.1-3.2c0.5-0.1,1-0.4,1.5-0.5l2.9,1.5l1.9-1.9L23.3,20c0.3-0.5,0.5-1,0.5-1.5l3.2-1.1v-2.8
	l-3.2-1.1C23.7,13,23.5,12.6,23.3,12.2z M16,20.1c-0.5,0-1.1-0.1-1.6-0.3c-0.5-0.2-1-0.5-1.3-0.9c-0.4-0.4-0.7-0.8-0.9-1.3
	c-0.2-0.5-0.3-1-0.3-1.6c0-0.5,0.1-1.1,0.3-1.6c0.2-0.5,0.5-1,0.9-1.3c0.4-0.4,0.8-0.7,1.3-0.9c0.5-0.2,1-0.3,1.6-0.3
	c0.5,0,1.1,0.1,1.6,0.3c0.5,0.2,1,0.5,1.3,0.9c0.4,0.4,0.7,0.8,0.9,1.3c0.2,0.5,0.3,1,0.3,1.6c0,0.5-0.1,1.1-0.3,1.6
	c-0.2,0.5-0.5,1-0.9,1.3c-0.4,0.4-0.8,0.7-1.3,0.9C17.1,20,16.5,20.1,16,20.1z"/>
</svg>
