<svg width="24" height="24" viewBox="0 0 24 24" fill="none" xmlns="http://www.w3.org/2000/svg">
<path d="M17.3 9.2L18.4 7.1L17 5.7L14.9 6.8C14.5577 6.60726 14.1861 6.47212 13.8 6.4L13 4H11L10.2 6.3C9.85081 6.38964 9.51468 6.52409 9.2 6.7L7.1 5.6L5.6 7.1L6.7 9.2C6.52409 9.51468 6.38964 9.85081 6.3 10.2L4 11V13L6.3 13.8C6.4 14.2 6.6 14.5 6.7 14.9L5.6 17L7 18.4L9.1 17.3C9.44226 17.4927 9.81388 17.6279 10.2 17.7L11 20H13L13.8 17.7C14.2 17.6 14.5 17.4 14.9 17.3L17 18.4L18.4 17L17.3 14.9C17.4927 14.5577 17.6279 14.1861 17.7 13.8L20 13V11L17.7 10.2C17.6104 9.85081 17.4759 9.51468 17.3 9.2ZM12 15C11.604 15.0073 11.2106 14.9347 10.8433 14.7866C10.476 14.6384 10.1424 14.4177 9.86236 14.1376C9.58231 13.8576 9.3616 13.524 9.21343 13.1567C9.06526 12.7894 8.99267 12.396 9 12C8.99267 11.604 9.06526 11.2106 9.21343 10.8433C9.3616 10.476 9.58231 10.1424 9.86236 9.86236C10.1424 9.58231 10.476 9.3616 10.8433 9.21343C11.2106 9.06526 11.604 8.99267 12 9C12.396 8.99267 12.7894 9.06526 13.1567 9.21343C13.524 9.3616 13.8576 9.58231 14.1376 9.86236C14.4177 10.1424 14.6384 10.476 14.7866 10.8433C14.9347 11.2106 15.0073 11.604 15 12C15.0073 12.396 14.9347 12.7894 14.7866 13.1567C14.6384 13.524 14.4177 13.8576 14.1376 14.1376C13.8576 14.4177 13.524 14.6384 13.1567 14.7866C12.7894 14.9347 12.396 15.0073 12 15Z" fill="#222532"/>
</svg>
