<?xml version="1.0" encoding="utf-8"?>
<!-- Generator: Adobe Illustrator 24.0.0, SVG Export Plug-In . SVG Version: 6.00 Build 0)  -->
<svg version="1.1" id="Layer_1" xmlns="http://www.w3.org/2000/svg" xmlns:xlink="http://www.w3.org/1999/xlink" x="0px" y="0px"
	 viewBox="0 0 16 17" style="enable-background:new 0 0 16 17;" xml:space="preserve">
<style type="text/css">
	.st0{clip-path:url(#SVGID_2_);}
	.st1{fill:#FFCE02;}
</style>
<g>
	<defs>
		<rect id="SVGID_1_" y="0.5" width="16" height="16"/>
	</defs>
	<clipPath id="SVGID_2_">
		<use xlink:href="#SVGID_1_"  style="overflow:visible;"/>
	</clipPath>
	<g class="st0">
		<path class="st1" d="M15.8,13.5c0.5,0.9-0.1,2-1.2,2H1.3c-1,0-1.7-1.1-1.2-2L6.8,2.2c0.5-0.9,1.8-0.9,2.3,0L15.8,13.5L15.8,13.5z
			 M8,11.2c-0.7,0-1.3,0.6-1.3,1.3s0.6,1.3,1.3,1.3c0.7,0,1.3-0.6,1.3-1.3S8.7,11.2,8,11.2z M6.8,6.7L7,10.4c0,0.2,0.2,0.3,0.3,0.3
			h1.3c0.2,0,0.3-0.1,0.3-0.3l0.2-3.7c0-0.2-0.1-0.3-0.3-0.3H7.1C6.9,6.3,6.8,6.5,6.8,6.7L6.8,6.7z"/>
	</g>
</g>
</svg>
