<svg width="24" height="24" viewBox="0 0 24 24" fill="none" xmlns="http://www.w3.org/2000/svg">
<path d="M20 3H4C3.46957 3 2.96086 3.21071 2.58579 3.58579C2.21071 3.96086 2 4.46957 2 5V9C2 9.53043 2.21071 10.0391 2.58579 10.4142C2.96086 10.7893 3.46957 11 4 11H20C20.5304 11 21.0391 10.7893 21.4142 10.4142C21.7893 10.0391 22 9.53043 22 9V5C22 4.46957 21.7893 3.96086 21.4142 3.58579C21.0391 3.21071 20.5304 3 20 3ZM15 8H13V6H15V8ZM19 8H17V6H19V8ZM20 13H4C3.46957 13 2.96086 13.2107 2.58579 13.5858C2.21071 13.9609 2 14.4696 2 15V19C2 19.5304 2.21071 20.0391 2.58579 20.4142C2.96086 20.7893 3.46957 21 4 21H20C20.5304 21 21.0391 20.7893 21.4142 20.4142C21.7893 20.0391 22 19.5304 22 19V15C22 14.4696 21.7893 13.9609 21.4142 13.5858C21.0391 13.2107 20.5304 13 20 13ZM15 18H13V16H15V18ZM19 18H17V16H19V18Z" fill="#667EEA"/>
</svg>
