<?xml version="1.0" encoding="utf-8"?>
<!-- Generator: Adobe Illustrator 24.0.0, SVG Export Plug-In . SVG Version: 6.00 Build 0)  -->
<svg version="1.1" id="Layer_1" xmlns="http://www.w3.org/2000/svg" xmlns:xlink="http://www.w3.org/1999/xlink" x="0px" y="0px"
	 viewBox="0 0 24 24" style="enable-background:new 0 0 24 24;" xml:space="preserve">
<style type="text/css">
	.st0{opacity:0.999;}
	.st1{opacity:0.999;fill:#222532;enable-background:new    ;}
</style>
<g class="st0">
	<path class="st1" d="M15.4,14.1h-0.7l-0.3-0.3c0.9-1.1,1.5-2.4,1.5-3.8c0-1.2-0.3-2.3-1-3.3c-0.7-1-1.6-1.7-2.7-2.2
		C11.1,4,9.9,3.9,8.8,4.1c-1.2,0.2-2.2,0.8-3,1.6c-0.8,0.8-1.4,1.9-1.6,3C3.9,9.9,4,11.1,4.5,12.2c0.4,1.1,1.2,2,2.2,2.7
		c1,0.7,2.1,1,3.3,1c1.4,0,2.8-0.5,3.8-1.5l0.3,0.3v0.7l4.6,4.6l1.4-1.4L15.4,14.1z M9.9,14.1c-0.8,0-1.6-0.2-2.3-0.7
		c-0.7-0.5-1.2-1.1-1.5-1.8c-0.3-0.8-0.4-1.6-0.2-2.4S6.5,7.6,7,7c0.6-0.6,1.3-1,2.1-1.1c0.8-0.2,1.6-0.1,2.4,0.2
		c0.8,0.3,1.4,0.8,1.8,1.5c0.5,0.7,0.7,1.5,0.7,2.3c0,0.5-0.1,1.1-0.3,1.6c-0.2,0.5-0.5,1-0.9,1.3c-0.4,0.4-0.8,0.7-1.3,0.9
		C11,14,10.5,14.1,9.9,14.1z"/>
</g>
</svg>
