<svg width="16" height="16" viewBox="0 0 16 16" fill="none" xmlns="http://www.w3.org/2000/svg">
<path d="M14.8424 12.6722C15.2911 13.4846 14.7279 14.5 13.8319 14.5H2.16799C1.27021 14.5 0.709677 13.483 1.15743 12.6722L6.98945 2.10899C7.4383 1.29627 8.56251 1.29774 9.01056 2.10899L14.8424 12.6722Z" fill="#FFCE02"/>
<path d="M7.9999 10.4498C7.38187 10.4498 6.88086 10.9732 6.88086 11.6188C6.88086 12.2644 7.38187 12.7878 7.9999 12.7878C8.61792 12.7878 9.11894 12.2644 9.11894 11.6188C9.11894 10.9732 8.61792 10.4498 7.9999 10.4498ZM6.93747 6.24785L7.11793 9.70401C7.12637 9.86574 7.25437 9.99235 7.40941 9.99235H8.59039C8.74542 9.99235 8.87343 9.86574 8.88187 9.70401L9.06233 6.24785C9.07145 6.07316 8.93831 5.92627 8.77084 5.92627H7.22893C7.06146 5.92627 6.92835 6.07316 6.93747 6.24785Z" fill="white"/>
</svg>
