<svg width="32" height="32" viewBox="0 0 32 32" fill="none" xmlns="http://www.w3.org/2000/svg">
<path d="M23.5831 20.4164L28.6464 25.4788C29.1187 25.9562 29.1187 26.7275 28.6414 27.2049L27.2043 28.642C26.732 29.1193 25.9601 29.1193 25.4828 28.642L20.4194 23.5796C20.1909 23.3511 20.0639 23.0413 20.0639 22.7163V21.8886C20.0639 21.0609 21 20.061 21.8921 20.061H22.7198C23.0448 20.061 23.3545 20.1879 23.5831 20.4164Z" fill="#898995"/>
<path fill-rule="evenodd" clip-rule="evenodd" d="M13 21.4C17.6392 21.4 21.4 17.6392 21.4 13C21.4 8.36081 17.6392 4.6 13 4.6C8.36081 4.6 4.6 8.36081 4.6 13C4.6 17.6392 8.36081 21.4 13 21.4ZM13 24C19.0751 24 24 19.0751 24 13C24 6.92487 19.0751 2 13 2C6.92487 2 2 6.92487 2 13C2 19.0751 6.92487 24 13 24Z" fill="#898995"/>
</svg>
