<?xml version="1.0" encoding="utf-8"?>
<!-- Generator: Adobe Illustrator 24.0.0, SVG Export Plug-In . SVG Version: 6.00 Build 0)  -->
<svg version="1.1" id="Layer_1" xmlns="http://www.w3.org/2000/svg" xmlns:xlink="http://www.w3.org/1999/xlink" x="0px" y="0px"
	 viewBox="0 0 16 17" style="enable-background:new 0 0 16 17;" xml:space="preserve">
<style type="text/css">
	.st0{fill:#FFCE02;}
</style>
<path class="st0" d="M14.8,13.2c0.4,0.8-0.1,1.8-1,1.8H2.2c-0.9,0-1.5-1-1-1.8L7,2.6c0.4-0.8,1.6-0.8,2,0L14.8,13.2L14.8,13.2z
	 M8,11c-0.6,0-1.1,0.5-1.1,1.2c0,0.6,0.5,1.2,1.1,1.2c0.6,0,1.1-0.5,1.1-1.2C9.1,11.5,8.6,11,8,11z M6.9,6.8l0.2,3.5
	c0,0.2,0.1,0.3,0.3,0.3h1.2c0.2,0,0.3-0.1,0.3-0.3l0.2-3.5c0-0.2-0.1-0.3-0.3-0.3H7.2C7.1,6.5,6.9,6.6,6.9,6.8L6.9,6.8z"/>
</svg>
