<?xml version="1.0" encoding="utf-8"?>
<!-- Generator: Adobe Illustrator 24.0.0, SVG Export Plug-In . SVG Version: 6.00 Build 0)  -->
<svg version="1.1" id="Layer_1" xmlns="http://www.w3.org/2000/svg" xmlns:xlink="http://www.w3.org/1999/xlink" x="0px" y="0px"
	 viewBox="0 0 16 16" style="enable-background:new 0 0 16 16;" xml:space="preserve">
<style type="text/css">
	.st0{clip-path:url(#SVGID_2_);}
	.st1{fill-rule:evenodd;clip-rule:evenodd;fill:#F55A2F;}
</style>
<g>
	<defs>
		<rect id="SVGID_1_" width="16" height="16"/>
	</defs>
	<clipPath id="SVGID_2_">
		<use xlink:href="#SVGID_1_"  style="overflow:visible;"/>
	</clipPath>
	<g class="st0">
		<path class="st1" d="M1.3,15.9C1.3,16,1.2,16,1.3,15.9c-0.1,0-0.1,0-0.2,0c-0.2,0-0.4,0-0.6-0.1c-0.2-0.1-0.3-0.2-0.4-0.4
			C0,15.3,0,15.1,0,14.8c0-0.2,0.1-0.4,0.3-0.5l2.2-2c-1.2-1.8-1.3-4-0.4-5.8L9.6,14c-1.8,1-4,0.9-5.7-0.3l-2.1,2
			C1.4,15.8,1.3,15.9,1.3,15.9z M4.2,4.2L2.6,2.6c-0.3-0.3-0.9-0.3-1.2,0C1,2.9,1,3.5,1.3,3.8l10.5,10.6c0.3,0.3,0.9,0.3,1.2,0
			c0.3-0.3,0.3-0.9,0-1.3L11.9,12c0.4-0.4,0.8-0.9,1.2-1.3c0.4-0.4,0.4-1,0-1.4l-0.6-0.6l3.2-3.2c0.1-0.1,0.2-0.2,0.2-0.3
			C16,5.1,16,5,16,4.9c0-0.1,0-0.3-0.1-0.4c0-0.1-0.1-0.2-0.2-0.3C15.6,4.1,15.5,4,15.4,4c-0.1,0-0.2-0.1-0.4-0.1
			c-0.1,0-0.3,0-0.4,0.1c-0.1,0-0.2,0.1-0.3,0.2l-3.2,3.2L8.7,4.9l3.2-3.2C12,1.5,12.1,1.3,12.1,1c0-0.3-0.1-0.5-0.3-0.7
			C11.7,0.1,11.4,0,11.2,0c-0.3,0-0.5,0.1-0.7,0.3L7.3,3.5L6.8,3c-0.4-0.4-1-0.4-1.4,0L4.2,4.2z"/>
	</g>
</g>
</svg>
