<?xml version="1.0" encoding="utf-8"?>
<!-- Generator: Adobe Illustrator 24.0.0, SVG Export Plug-In . SVG Version: 6.00 Build 0)  -->
<svg version="1.1" id="Layer_1" xmlns="http://www.w3.org/2000/svg" xmlns:xlink="http://www.w3.org/1999/xlink" x="0px" y="0px"
	 viewBox="0 0 16 16" style="enable-background:new 0 0 16 16;" xml:space="preserve">
<style type="text/css">
	.st0{fill:#858895;}
</style>
<path class="st0" d="M8,0C3.6,0,0,3.6,0,8c0,4.4,3.6,8,8,8c4.4,0,8-3.6,8-8C16,3.6,12.4,0,8,0z M10.2,3.2c0.3,0,0.6,0.1,0.9,0.2
	L9.5,4.9l0.4,1.1l1.1,0.4l1.6-1.6c0.3,0.9,0.1,2-0.6,2.7c-0.7,0.7-1.8,0.9-2.7,0.6l-4.5,4.5l-1.6-1.6l4.5-4.5C7.4,5.8,7.6,4.7,8.3,4
	C8.8,3.5,9.5,3.2,10.2,3.2L10.2,3.2z M4.4,10.9c-0.2,0.2-0.2,0.5,0,0.7c0.2,0.2,0.5,0.2,0.7,0c0.2-0.2,0.2-0.5,0-0.7
	C4.9,10.7,4.6,10.7,4.4,10.9z"/>
</svg>
