<?xml version="1.0" encoding="utf-8"?>
<!-- Generator: Adobe Illustrator 24.0.0, SVG Export Plug-In . SVG Version: 6.00 Build 0)  -->
<svg version="1.1" id="Layer_1" xmlns="http://www.w3.org/2000/svg" xmlns:xlink="http://www.w3.org/1999/xlink" x="0px" y="0px"
	 viewBox="0 0 32 32" style="enable-background:new 0 0 32 32;" xml:space="preserve">
<style type="text/css">
	.st0{fill:#4285F4;}
	.st1{opacity:7.000000e-02;enable-background:new    ;}
	.st2{fill:#FFFFFF;}
</style>
<path class="st0" d="M31.6,14.5L25,3.1c-0.2-0.4-0.6-0.8-1-1.1c-0.4-0.3-0.9-0.4-1.4-0.4H9.4C8.9,1.6,8.4,1.7,8,2
	C7.6,2.3,7.2,2.6,7,3.1L0.4,14.5C0.1,14.9,0,15.4,0,15.9c0,0.5,0.1,1,0.4,1.4L7,28.8c0.2,0.4,0.6,0.8,1,1.1c0.4,0.3,0.9,0.4,1.4,0.4
	h13.2c0.5,0,1-0.2,1.4-0.4c0.4-0.3,0.8-0.6,1-1.1l6.6-11.4C31.9,17,32,16.5,32,16C32,15.4,31.9,14.9,31.6,14.5z"/>
<path class="st1" d="M29.7,20.7L18.9,9.9l-0.8,1.7l-1.7-1.7l-0.8,1.7L14,9.9l-0.4,2l-1.5,0.2l-0.3,1.3l-1.9,0.5l1.7,1.7l-1.7,0.8
	l1.7,1.7l-1.7,0.7l11.5,11.5h1.2c0.5,0,1-0.2,1.4-0.4c0.4-0.3,0.8-0.6,1-1.1L29.7,20.7z"/>
<path class="st2" d="M17.5,14.2h-2.9c-0.1,0-0.2,0-0.2,0.1c-0.1,0.1-0.1,0.1-0.1,0.2v2.9c0,0.1,0,0.2,0.1,0.2
	c0.1,0.1,0.1,0.1,0.2,0.1h2.9c0.1,0,0.2,0,0.2-0.1c0.1-0.1,0.1-0.1,0.1-0.2v-2.9c0-0.1,0-0.2-0.1-0.2C17.6,14.3,17.5,14.3,17.5,14.2
	"/>
<path class="st2" d="M22,14c0,0,0.1,0,0.1,0s0.1,0,0.1-0.1c0,0,0-0.1,0.1-0.1c0,0,0-0.1,0-0.1v-0.4c0-0.1,0-0.1-0.1-0.2S22,13,22,13
	h-1.4v-1.3c0-0.1,0-0.2-0.1-0.2c-0.1-0.1-0.1-0.1-0.2-0.1H19V10c0-0.1,0-0.1-0.1-0.2c-0.1-0.1-0.1-0.1-0.2-0.1h-0.4
	c-0.1,0-0.1,0-0.2,0.1C18,9.9,18,10,18,10v1.4h-1.5V10c0,0,0-0.1,0-0.1c0,0,0-0.1-0.1-0.1c0,0-0.1,0-0.1-0.1c0,0-0.1,0-0.1,0h-0.4
	c-0.1,0-0.1,0-0.2,0.1c-0.1,0.1-0.1,0.1-0.1,0.2v1.4h-1.5V10c0-0.1,0-0.1-0.1-0.2c-0.1-0.1-0.1-0.1-0.2-0.1h-0.4c0,0-0.1,0-0.1,0
	c0,0-0.1,0-0.1,0.1c0,0,0,0.1-0.1,0.1c0,0,0,0.1,0,0.1v1.4h-1.3c-0.1,0-0.2,0-0.2,0.1c-0.1,0.1-0.1,0.1-0.1,0.2V13h-1.4
	c-0.1,0-0.1,0-0.2,0.1c-0.1,0.1-0.1,0.1-0.1,0.2v0.4c0,0.1,0,0.1,0.1,0.2C9.9,14,10,14,10.1,14h1.4v1.5h-1.4c-0.1,0-0.1,0-0.2,0.1
	c-0.1,0.1-0.1,0.1-0.1,0.2v0.5c0,0,0,0.1,0,0.1c0,0,0,0.1,0.1,0.1c0,0,0.1,0,0.1,0.1c0,0,0.1,0,0.1,0h1.4v1.5h-1.4
	c-0.1,0-0.1,0-0.2,0.1c-0.1,0.1-0.1,0.1-0.1,0.2v0.4c0,0.1,0,0.1,0.1,0.2c0.1,0.1,0.1,0.1,0.2,0.1h1.4v1.3c0,0.1,0,0.2,0.1,0.2
	c0.1,0.1,0.1,0.1,0.2,0.1h1.3v1.4c0,0,0,0.1,0,0.1c0,0,0,0.1,0.1,0.1c0,0,0.1,0,0.1,0.1c0,0,0.1,0,0.1,0h0.4c0,0,0.1,0,0.1,0
	c0,0,0.1,0,0.1-0.1c0,0,0-0.1,0.1-0.1c0,0,0-0.1,0-0.1v-1.4h1.5v1.4c0,0.1,0,0.1,0.1,0.2c0.1,0.1,0.1,0.1,0.2,0.1h0.4
	c0.1,0,0.1,0,0.2-0.1s0.1-0.1,0.1-0.2v-1.4H18v1.4c0,0.1,0,0.1,0.1,0.2c0.1,0.1,0.1,0.1,0.2,0.1h0.4c0.1,0,0.1,0,0.2-0.1
	C19,22.1,19,22,19,21.9v-1.4h1.3c0.1,0,0.2,0,0.2-0.1c0.1-0.1,0.1-0.1,0.1-0.2v-1.3H22c0,0,0.1,0,0.1,0c0,0,0.1,0,0.1-0.1
	c0,0,0-0.1,0.1-0.1c0,0,0-0.1,0-0.1v-0.4c0-0.1,0-0.1-0.1-0.2S22,17.9,22,17.9h-1.4v-1.5H22c0,0,0.1,0,0.1,0c0,0,0.1,0,0.1-0.1
	c0,0,0-0.1,0.1-0.1c0,0,0-0.1,0-0.1v-0.4c0,0,0-0.1,0-0.1c0,0,0-0.1-0.1-0.1c0,0-0.1,0-0.1-0.1s-0.1,0-0.1,0h-1.4V14H22z M19.6,19.5
	h-7.1v-7.1h7.1V19.5z"/>
</svg>
