<?xml version="1.0" encoding="utf-8"?>
<!-- Generator: Adobe Illustrator 24.0.0, SVG Export Plug-In . SVG Version: 6.00 Build 0)  -->
<svg version="1.1" id="Layer_1" xmlns="http://www.w3.org/2000/svg" xmlns:xlink="http://www.w3.org/1999/xlink" x="0px" y="0px"
	 viewBox="0 0 16 16" style="enable-background:new 0 0 16 16;" xml:space="preserve">
<style type="text/css">
	.st0{fill:#858895;}
</style>
<path class="st0" d="M8,1C4.1,1,1,4.1,1,8s3.1,7,7,7s7-3.1,7-7S11.9,1,8,1z M9.9,3.8c0.3,0,0.5,0,0.8,0.1L9.3,5.3l0.4,1l1,0.4
	l1.4-1.4c0.3,0.8,0.1,1.7-0.5,2.4c-0.6,0.6-1.6,0.8-2.4,0.5l-3.3,3.3c-0.4,0.4-1,0.4-1.4,0l0,0c-0.4-0.4-0.4-1,0-1.4l3.3-3.3
	C7.5,6.1,7.6,5.1,8.3,4.5C8.7,4,9.3,3.8,9.9,3.8z M4.9,10.5c-0.2,0.2-0.2,0.4,0,0.6c0.2,0.2,0.4,0.2,0.6,0s0.2-0.4,0-0.6
	C5.3,10.4,5,10.4,4.9,10.5z"/>
</svg>
