<svg width="32" height="32" viewBox="0 0 32 32" fill="none" xmlns="http://www.w3.org/2000/svg">
<path d="M28.6464 25.4788L23.5831 20.4164C23.3545 20.1879 23.0448 20.061 22.7198 20.061H21.8921C23.2936 18.2684 24.1264 16.0142 24.1264 13.5615C24.1264 7.72723 19.3982 3 13.5635 3C7.72873 3 3 7.72723 3 13.5615C3 19.3957 7.72822 24.123 13.5635 24.123C16.0162 24.123 18.2714 23.2902 20.0639 21.8886V22.7163C20.0639 23.0413 20.1909 23.3511 20.4194 23.5796L25.4828 28.642C25.9601 29.1193 26.732 29.1193 27.2043 28.642L28.6414 27.2049C29.1187 26.7275 29.1187 25.9562 28.6464 25.4788ZM13.5635 20.873C9.52434 20.873 6.251 17.6057 6.251 13.5615C6.251 9.52285 9.51876 6.25 13.5635 6.25C17.6026 6.25 20.8759 9.51727 20.8759 13.5615C20.8759 17.6001 17.6082 20.873 13.5635 20.873Z" fill="#898995"/>
</svg>
