<?xml version="1.0" encoding="utf-8"?>
<!-- Generator: Adobe Illustrator 24.0.0, SVG Export Plug-In . SVG Version: 6.00 Build 0)  -->
<svg version="1.1" id="ic_secret" xmlns="http://www.w3.org/2000/svg" xmlns:xlink="http://www.w3.org/1999/xlink" x="0px" y="0px"
	 viewBox="0 0 24 24" style="enable-background:new 0 0 24 24;" xml:space="preserve">
<style type="text/css">
	.st0{fill:none;}
	.st1{fill:#222532;}
</style>
<g id="사각형_256">
	<path class="st0" d="M2,0h20c1.1,0,2,0.9,2,2v20c0,1.1-0.9,2-2,2H2c-1.1,0-2-0.9-2-2V2C0,0.9,0.9,0,2,0z"/>
</g>
<g>
	<rect x="7" y="7" class="st1" width="7.9" height="2"/>
	<rect x="7" y="15" class="st1" width="3.3" height="2"/>
	<path class="st1" d="M18.9,11.6V6c0-1.7-1.3-3-3-3h-10c-1.7,0-3,1.3-3,3v12c0,1.7,1.3,3,3,3h7.4c0.9,0.6,2,1,3.2,1
		c3,0,5.5-2.5,5.5-5.5C22,14.3,20.7,12.5,18.9,11.6z M11.3,19H5.9c-0.6,0-1-0.4-1-1V6c0-0.6,0.4-1,1-1h10c0.6,0,1,0.4,1,1v5
		c-0.1,0-0.3,0-0.4,0c-1.1,0-2.1,0.3-2.9,0.9V11H7v2h5.3c-0.8,1-1.3,2.2-1.3,3.5c0,0.9,0.2,1.7,0.6,2.5H11.3z M15.9,19.1l-2.7-2.7
		l1-1.1l1.7,1.6l3.2-3.2l1.1,1L15.9,19.1z"/>
</g>
</svg>
