<svg width="16" height="17" viewBox="0 0 16 17" fill="none" xmlns="http://www.w3.org/2000/svg">
<g clip-path="url(#clip0)">
<path d="M15.8194 13.5316C16.3322 14.4064 15.6886 15.5 14.6645 15.5H1.33435C0.308325 15.5 -0.332286 14.4047 0.179436 13.5316L6.8446 2.15584C7.35758 1.28059 8.64238 1.28218 9.15444 2.15584L15.8194 13.5316V13.5316ZM7.99952 11.1797C7.29382 11.1797 6.72174 11.7428 6.72174 12.4375C6.72174 13.1322 7.29382 13.6953 7.99952 13.6953C8.70521 13.6953 9.2773 13.1322 9.2773 12.4375C9.2773 11.7428 8.70521 11.1797 7.99952 11.1797ZM6.78638 6.65851L6.99244 10.3773C7.00208 10.5513 7.14824 10.6875 7.32527 10.6875H8.67377C8.8508 10.6875 8.99696 10.5513 9.0066 10.3773L9.21266 6.65851C9.22308 6.47055 9.07105 6.3125 8.87983 6.3125H7.11919C6.92796 6.3125 6.77596 6.47055 6.78638 6.65851V6.65851Z" fill="#FFCE02"/>
</g>
<defs>
<clipPath id="clip0">
<path d="M0 0.5H16V16.5H0V0.5Z" fill="white"/>
</clipPath>
</defs>
</svg>
