<?xml version="1.0" encoding="utf-8"?>
<!-- Generator: Adobe Illustrator 23.1.1, SVG Export Plug-In . SVG Version: 6.00 Build 0)  -->
<svg version="1.1" id="Layer_1" xmlns="http://www.w3.org/2000/svg" xmlns:xlink="http://www.w3.org/1999/xlink" x="0px" y="0px"
	 viewBox="0 0 24 24" style="enable-background:new 0 0 24 24;" xml:space="preserve">
<style type="text/css">
	.st0{fill:none;}
	.st1{fill:#202433;}
</style>
<g transform="translate(32 -169) rotate(90)">
	<rect x="169" y="8" transform="matrix(2.535182e-06 1 -1 2.535182e-06 200.9995 -161)" class="st0" width="24" height="24"/>
	<path class="st1" d="M178.2,14.7l-2.1-1.1l-1.4,1.4l1.1,2.1c-0.2,0.3-0.3,0.7-0.4,1.1L173,19v2l2.3,0.8c0.1,0.3,0.2,0.7,0.4,1
		l-1.1,2.1l1.5,1.5l2.1-1.1c0.3,0.2,0.7,0.3,1,0.4L180,28h2l0.8-2.3c0.4-0.1,0.7-0.3,1.1-0.4l2.1,1.1l1.4-1.4l-1.1-2.1
		c0.2-0.3,0.3-0.7,0.4-1.1L189,21v-2l-2.3-0.8c-0.1-0.4-0.3-0.7-0.4-1.1l1.1-2.1l-1.4-1.4l-2.1,1.1c-0.3-0.2-0.7-0.3-1.1-0.4L182,12
		h-2l-0.8,2.3C178.9,14.4,178.5,14.5,178.2,14.7z M184,20c0,1.6-1.3,3-2.9,3c0,0-0.1,0-0.1,0c-1.6,0-3-1.3-3-2.9c0,0,0-0.1,0-0.1
		c0-1.6,1.3-3,2.9-3c0,0,0.1,0,0.1,0c1.6,0,3,1.3,3,2.9C184,19.9,184,20,184,20z"/>
</g>
</svg>
