<svg xmlns="http://www.w3.org/2000/svg" width="24" height="24" viewBox="0 0 24 24"><defs><style>.a{fill:none;}.b{fill:#202433;}</style></defs><g transform="translate(32 -169) rotate(90)"><rect class="a" width="24" height="24" transform="translate(169 8)"/><path class="b" d="M13.3,5.2l1.1-2.1L13,1.7,10.9,2.8a3.582,3.582,0,0,0-1.1-.4L9,0H7L6.2,2.3a4.179,4.179,0,0,0-1,.4L3.1,1.6,1.6,3.1,2.7,5.2a4.179,4.179,0,0,0-.4,1L0,7V9l2.3.8c.1.4.3.7.4,1.1L1.6,13,3,14.4l2.1-1.1a3.582,3.582,0,0,0,1.1.4L7,16H9l.8-2.3c.4-.1.7-.3,1.1-.4L13,14.4,14.4,13l-1.1-2.1a3.582,3.582,0,0,0,.4-1.1L16,9V7l-2.3-.8A4.179,4.179,0,0,0,13.3,5.2ZM8,11A2.946,2.946,0,0,1,5,8,2.946,2.946,0,0,1,8,5a2.946,2.946,0,0,1,3,3A2.946,2.946,0,0,1,8,11Z" transform="translate(173 28) rotate(-90)"/></g></svg>