<?xml version="1.0" encoding="utf-8"?>
<!-- Generator: Adobe Illustrator 23.1.1, SVG Export Plug-In . SVG Version: 6.00 Build 0)  -->
<svg version="1.1" id="Layer_1" xmlns="http://www.w3.org/2000/svg" xmlns:xlink="http://www.w3.org/1999/xlink" x="0px" y="0px"
	 viewBox="0 0 24 24" style="enable-background:new 0 0 24 24;" xml:space="preserve">
<style type="text/css">
	.st0{opacity:0.999;}
	.st1{fill:none;}
	.st2{fill:#222532;}
</style>
<g transform="translate(-31.65 -47.7)" class="st0">
	<rect x="31.6" y="47.7" class="st1" width="24" height="24"/>
	<path class="st2" d="M47.1,61.8h-0.7l-0.3-0.3c0.9-1.1,1.5-2.4,1.5-3.8c0-3.3-2.7-5.9-5.9-5.9c-3.3,0-5.9,2.7-5.9,5.9
		c0,3.3,2.7,5.9,5.9,5.9c1.4,0,2.8-0.5,3.8-1.5l0.3,0.3v0.7l4.6,4.6l1.4-1.4L47.1,61.8z M41.6,61.8c-2.3,0-4.1-1.8-4.1-4.1
		s1.8-4.1,4.1-4.1s4.1,1.8,4.1,4.1v0C45.7,59.9,43.9,61.7,41.6,61.8C41.6,61.8,41.6,61.8,41.6,61.8z"/>
</g>
</svg>
