<svg width="16" height="16" viewBox="0 0 16 16" fill="none" xmlns="http://www.w3.org/2000/svg">
<g clip-path="url(#clip0)">
<path fill-rule="evenodd" clip-rule="evenodd" d="M1.27477 15.9436C1.2595 15.9543 1.24947 15.9613 1.23853 15.9664C1.21756 15.9762 1.19326 15.9788 1.12239 15.9865C0.917977 16.0213 0.707935 15.9884 0.523495 15.8927C0.339054 15.7971 0.190063 15.6438 0.0986644 15.4557C0.00726617 15.2676 -0.0216607 15.0547 0.0161906 14.8486C0.0540419 14.6425 0.15665 14.4543 0.308755 14.3119L2.47436 12.2782C1.30463 10.5249 1.18141 8.2989 2.11812 6.5007L9.57049 14.024C7.73969 15.0167 5.52225 14.9442 3.82818 13.7085L1.69435 15.713C1.40837 15.8498 1.3193 15.9123 1.27477 15.9436ZM4.15453 4.16292L2.5846 2.57805C2.23959 2.22975 1.68021 2.22975 1.33519 2.57805C0.990173 2.92635 0.990173 3.49105 1.33519 3.83935L11.799 14.4028C12.144 14.7511 12.7034 14.7511 13.0484 14.4028C13.3935 14.0545 13.3935 13.4898 13.0484 13.1415L11.9203 12.0026C12.3261 11.5819 12.7615 11.1254 13.1263 10.7426C13.501 10.3495 13.4954 9.72859 13.1133 9.34278L12.5548 8.77902L15.7131 5.58455C15.804 5.49268 15.8761 5.38361 15.9254 5.26356C15.9746 5.1435 16 5.01482 16 4.88485C16 4.75489 15.9748 4.62619 15.9256 4.5061C15.8765 4.38601 15.8044 4.27689 15.7136 4.18496C15.6227 4.09303 15.5149 4.02009 15.3961 3.97032C15.2774 3.92054 15.1501 3.8949 15.0216 3.89485C14.8931 3.89481 14.7658 3.92036 14.647 3.97005C14.5283 4.01975 14.4203 4.09261 14.3294 4.18447L11.1702 7.37894L8.70231 4.88451L11.8625 1.69004C12.0461 1.50438 12.1493 1.25257 12.1493 0.990004C12.1493 0.727439 12.0461 0.475627 11.8625 0.289966C11.6789 0.104305 11.4299 0 11.1702 0C10.9105 0 10.6615 0.104305 10.4779 0.289966L7.31865 3.48444L6.81953 2.98057C6.43647 2.59386 5.81447 2.58455 5.42 2.95963L4.15453 4.16292Z" fill="#F55A2F"/>
</g>
<defs>
<clipPath id="clip0">
<path d="M0 0H16V16H0V0Z" fill="white"/>
</clipPath>
</defs>
</svg>
