<?xml version="1.0" encoding="utf-8"?>
<!-- Generator: Adobe Illustrator 24.0.0, SVG Export Plug-In . SVG Version: 6.00 Build 0)  -->
<svg version="1.1" id="Layer_1" xmlns="http://www.w3.org/2000/svg" xmlns:xlink="http://www.w3.org/1999/xlink" x="0px" y="0px"
	 viewBox="0 0 16 16" style="enable-background:new 0 0 16 16;" xml:space="preserve">
<style type="text/css">
	.st0{fill:none;}
	.st1{fill:#202433;}
</style>
<rect class="st0" width="16" height="16"/>
<path class="st1" d="M8,1C4.1,1,1,4.1,1,8s3.1,7,7,7s7-3.1,7-7S11.9,1,8,1L8,1z M7.7,7.8C7.6,7.9,7.5,8,7.3,8l0,0C7.2,8,7,8,7,8.1
	L6.8,8.3c-0.1,0.1-0.1,0.2,0,0.3L7,8.8C7,8.9,7.1,9,7.1,9.1v0.3c0,0.2-0.2,0.5-0.4,0.5l0,0H6.5c-0.2,0-0.3-0.1-0.4-0.2L5.4,8.3
	c0-0.1-0.2-0.2-0.3-0.1c0,0,0,0-0.1,0L4.5,8.8C4.4,8.9,4.3,8.9,4.2,8.9H2.4C1.9,5.8,4,2.9,7.1,2.4c0.9-0.1,1.8,0,2.6,0.2L8.3,3.7
	C8.2,3.8,8.2,3.9,8.3,4l0.1,0.1l0.3,0.2c0.2,0.1,0.2,0.2,0.2,0.4v2.2c0,0.1-0.1,0.2-0.2,0.2H8.6C8.5,7.1,8.4,7,8.4,7
	c0-0.1-0.1-0.1-0.2-0.1c0,0,0,0-0.1,0L7.7,7.8L7.7,7.8z M12.5,10.9c0,0.1,0,0.2-0.1,0.3l-0.3,0.3c-0.1,0.1-0.2,0.1-0.3,0.1h-0.4
	c-0.1,0-0.2,0-0.3-0.1l-0.4-0.4c-0.2-0.2-0.5-0.3-0.7-0.2L9.4,11H9.3H9c-0.1,0-0.2,0-0.3-0.1l-0.3-0.3c0,0-0.1-0.1-0.1-0.2v-0.3
	c0-0.1,0.1-0.2,0.1-0.2l1.1-0.4c0.1,0,0.1-0.1,0.2-0.1l0.7-0.5h0.1h0.3C10.9,8.9,11,9,11,9l0.2,0.4l0.1,0.1h0.1c0,0,0.1,0,0.1-0.1
	L11.6,9l0.1-0.1h0.2C11.9,8.9,12,9,12,9v0.4c0,0.1,0,0.1,0.1,0.2l0.3,0.3c0.1,0.1,0.1,0.2,0.1,0.3L12.5,10.9L12.5,10.9z"/>
</svg>
