<svg width="16" height="16" viewBox="0 0 16 16" fill="none" xmlns="http://www.w3.org/2000/svg">
<path fill-rule="evenodd" clip-rule="evenodd" d="M13.7,13.2H2.3c-1,0-1.8-0.8-1.8-1.8V3.6c0-0.5,0.2-0.9,0.5-1.3C1.3,2,1.8,1.8,2.3,1.8l0,0h4.6l1.8,1.8h5
		c0.5,0,0.9,0.2,1.3,0.5c0.3,0.3,0.5,0.8,0.5,1.3v6.1C15.5,12.4,14.7,13.2,13.7,13.2z M13.7,4.5H8.2L6.5,2.8H2.3l0,0
		c-0.2,0-0.4,0-0.6,0.2C1.6,3.1,1.5,3.3,1.5,3.6v7.9c0,0.4,0.4,0.8,0.8,0.8h11.4c0.4,0,0.8-0.4,0.8-0.8V5.3c0-0.2-0.1-0.4-0.2-0.6
		S13.9,4.5,13.7,4.5" fill="#222532"/>
</svg>