<svg width="16" height="16" viewBox="0 0 16 16" fill="none" xmlns="http://www.w3.org/2000/svg">
<path d="M8.438 4.75L6.688 3H2.313C2.14054 2.99987 1.96974 3.03374 1.81038 3.09968C1.65102 3.16562 1.50623 3.26233 1.38428 3.38428C1.26233 3.50623 1.16562 3.65102 1.09968 3.81038C1.03374 3.96974 0.999869 4.14054 1 4.313V12.188C1 12.3604 1.03397 12.5311 1.09997 12.6903C1.16596 12.8496 1.26269 12.9942 1.38463 13.1161C1.50657 13.2379 1.65132 13.3345 1.81061 13.4004C1.96991 13.4663 2.14062 13.5001 2.313 13.5H6.43489" stroke="#222532" stroke-linecap="round" stroke-linejoin="round"/>
<path d="M16.0006 9.16078C16.0006 8.56373 15.5151 8.07818 14.918 8.07818H14.3767V6.45429C14.3767 4.96193 13.1626 3.7478 11.6702 3.7478C10.1779 3.7478 8.96374 4.96193 8.96374 6.45429V8.07818H8.42244C7.82539 8.07818 7.33984 8.56373 7.33984 9.16078V13.4912C7.33984 14.0882 7.82539 14.5738 8.42244 14.5738H14.918C15.5151 14.5738 16.0006 14.0882 16.0006 13.4912V9.16078ZM10.0463 6.45429C10.0463 5.55898 10.7749 4.8304 11.6702 4.8304C12.5655 4.8304 13.2941 5.55898 13.2941 6.45429V8.07818H10.0463V6.45429Z" fill="#222532"/>
</svg>
