<?xml version="1.0" encoding="utf-8"?>
<!-- Generator: Adobe Illustrator 24.0.0, SVG Export Plug-In . SVG Version: 6.00 Build 0)  -->
<svg version="1.1" id="Layer_1" xmlns="http://www.w3.org/2000/svg" xmlns:xlink="http://www.w3.org/1999/xlink" x="0px" y="0px"
	 viewBox="0 0 24 24" style="enable-background:new 0 0 24 24;" xml:space="preserve">
<style type="text/css">
	.st0{fill:#FFCC4D;}
	.st1{fill:#FFB600;}
	.st2{fill:#DB5C00;}
</style>
<path class="st0" d="M12.1,17.9l-6,2.3c-0.3,0.1-0.6-0.1-0.6-0.4l0.3-6.4c0-0.1,0-0.2-0.1-0.3l-4-5C1.6,7.8,1.7,7.5,2,7.4l6.2-1.7
	c0.1,0,0.2-0.1,0.2-0.2l3.5-5.4c0.2-0.2,0.5-0.2,0.7,0l3.5,5.4c0.1,0.1,0.1,0.1,0.2,0.2l6.2,1.7c0.3,0.1,0.4,0.4,0.2,0.7l-4,5
	c-0.1,0.1-0.1,0.2-0.1,0.3l0.3,6.4c0,0.3-0.3,0.5-0.6,0.4l-6-2.3C12.3,17.8,12.2,17.8,12.1,17.9z"/>
<path class="st1" d="M21.6,2.4l-1.9-1.9c-0.1-0.1-0.1-0.1-0.2-0.1c-0.1,0-0.1,0.1-0.2,0.1l-2,3.9c-0.1,0.1,0,0.2,0,0.3
	c0,0,0.1,0.1,0.2,0.1c0,0,0.1,0,0.1,0l3.9-2c0.1,0,0.1-0.1,0.1-0.2C21.7,2.6,21.7,2.5,21.6,2.4z"/>
<path class="st1" d="M7.2,4.5l-2-3.9c0-0.1-0.1-0.1-0.2-0.1c-0.1,0-0.2,0-0.2,0.1L3,2.4C2.9,2.5,2.9,2.6,2.9,2.6
	c0,0.1,0.1,0.1,0.1,0.2l3.9,2c0,0,0.1,0,0.1,0c0.1,0,0.1,0,0.2-0.1C7.3,4.7,7.3,4.6,7.2,4.5z"/>
<path class="st1" d="M13.8,23.7l-1.4-4.2c0,0,0-0.1-0.1-0.1c0,0-0.1-0.1-0.2-0.1c-0.1,0-0.2,0.1-0.2,0.2l-1.4,4.2c0,0.1,0,0.2,0,0.2
	c0,0.1,0.1,0.1,0.2,0.1h2.7c0.1,0,0.2,0,0.2-0.1C13.9,23.8,13.9,23.8,13.8,23.7z"/>
<path class="st2" d="M13.3,15h-1.8v-5c0-0.2,0-0.5,0-0.8c0-0.3,0-0.6,0-0.9c0,0-0.1,0.1-0.3,0.3c-0.1,0.1-0.2,0.2-0.4,0.3l-1,0.8
	L9.1,8.6l2.8-2.2h1.5V15z"/>
</svg>
