<?xml version="1.0" encoding="utf-8"?>
<!-- Generator: Adobe Illustrator 24.0.0, SVG Export Plug-In . SVG Version: 6.00 Build 0)  -->
<svg version="1.1" id="Layer_1" xmlns="http://www.w3.org/2000/svg" xmlns:xlink="http://www.w3.org/1999/xlink" x="0px" y="0px"
	 viewBox="0 0 25 24" style="enable-background:new 0 0 25 24;" xml:space="preserve">
<path d="M9.8,10.3v7.3h1.3v-7.3H9.8z M12.4,10.3v7.3h1.3v-7.3H12.4z M14.9,10.3v7.3h1.3v-7.3H14.9z M16.2,5.1c0-1.1-0.3-1.3-1.3-1.3
	h-4.3c-1.1,0-1.3,0.2-1.3,1.3l0,1.3H5.9c-0.6,0-0.9,0.2-0.9,0.9v0.4c0,0.7,0.2,0.9,0.9,0.9h0.4v11.1c0,1.1,0.2,1.3,1.3,1.3h10.3
	c1.1,0,1.7-0.2,1.7-1.3V8.6h0.4c0.6,0,0.9-0.2,0.9-0.9V7.3c0-0.6-0.2-0.9-0.9-0.9h-3.9V5.1z M14.9,5.1v1.3h-4.3V5.1H14.9z M8.5,8.6
	h9v10.3h-9V8.6z"/>
</svg>
