<svg width="16" height="16" viewBox="0 0 16 16" fill="none" xmlns="http://www.w3.org/2000/svg">
<path d="M7.14418 2.75143L8.81991 4.4272C8.91747 4.55633 9.01875 4.88132 8.78125 5.11881C8.54375 5.35631 8.21656 5.21762 8.10063 5.11881L6.48784 3.50637H2.22741C2.00574 3.50953 1.7981 3.66577 1.72199 3.74349C1.51965 3.95532 1.48487 4.22169 1.49277 4.3284V12.1851C1.49277 12.4602 1.65349 12.687 1.73385 12.7661C1.90142 12.9494 2.18834 13.0032 2.31085 13.0071H6.50795C6.8336 13.0514 6.93082 13.3365 6.93872 13.4735C6.91975 13.9477 6.52771 14.0241 6.33406 14.0031L2.09744 13.9833C1.55047 13.9454 1.11337 13.5723 0.963194 13.3905C0.605926 13.0364 0.508802 12.4763 0.504898 12.2404V4.3284C0.485928 3.81621 0.743825 3.37463 0.875144 3.21787C1.27667 2.63928 1.94396 2.50249 2.22741 2.50641L6.48784 2.50646C6.90625 2.46484 7.05186 2.66186 7.14418 2.75143Z" fill="#222532"/>
<path d="M16.0006 9.16078C16.0006 8.56373 15.5151 8.07818 14.918 8.07818H14.3767V6.45429C14.3767 4.96193 13.1626 3.7478 11.6702 3.7478C10.1779 3.7478 8.96374 4.96193 8.96374 6.45429V8.07818H8.42244C7.82539 8.07818 7.33984 8.56373 7.33984 9.16078V13.4912C7.33984 14.0882 7.82539 14.5738 8.42244 14.5738H14.918C15.5151 14.5738 16.0006 14.0882 16.0006 13.4912V9.16078ZM10.0463 6.45429C10.0463 5.55898 10.7749 4.8304 11.6702 4.8304C12.5655 4.8304 13.2941 5.55898 13.2941 6.45429V8.07818H10.0463V6.45429Z" fill="#222532"/>
</svg>
