<?xml version="1.0" encoding="utf-8"?>
<!-- Generator: Adobe Illustrator 24.0.0, SVG Export Plug-In . SVG Version: 6.00 Build 0)  -->
<svg version="1.1" id="Layer_1" xmlns="http://www.w3.org/2000/svg" xmlns:xlink="http://www.w3.org/1999/xlink" x="0px" y="0px"
	 viewBox="0 0 24 24" style="enable-background:new 0 0 24 24;" xml:space="preserve">
<style type="text/css">
	.st0{fill:none;}
	.st1{fill:#222532;}
</style>
<rect class="st0" width="24" height="24"/>
<path class="st1" d="M13.4,17h0.8c0.1,0,0.2,0,0.3-0.1s0.1-0.2,0.1-0.3V9.9c0-0.1,0-0.2-0.1-0.3s-0.2-0.1-0.3-0.1h-0.8
	c-0.1,0-0.2,0-0.3,0.1C13,9.7,13,9.8,13,9.9v6.8c0,0.1,0,0.2,0.1,0.3C13.2,17,13.3,17,13.4,17z M18.5,6.5h-2.6l-1.1-1.8
	c-0.1-0.2-0.3-0.4-0.5-0.5C14.1,4.1,13.8,4,13.6,4h-3.2c-0.3,0-0.5,0.1-0.7,0.2C9.5,4.3,9.3,4.5,9.1,4.7l-1,1.8H5.5
	c-0.1,0-0.3,0.1-0.4,0.1C5.1,6.7,5,6.9,5,7v0.5c0,0.1,0.1,0.3,0.1,0.4C5.2,7.9,5.4,8,5.5,8H6v10.5c0,0.4,0.2,0.8,0.4,1.1
	S7.1,20,7.5,20h9c0.4,0,0.8-0.2,1.1-0.4s0.4-0.7,0.4-1.1V8h0.5c0.1,0,0.3-0.1,0.4-0.1c0-0.1,0.1-0.3,0.1-0.4V7
	c0-0.1-0.1-0.3-0.1-0.4C18.8,6.6,18.6,6.5,18.5,6.5z M10.4,5.6C10.4,5.6,10.4,5.5,10.4,5.6c0.1-0.1,0.1-0.1,0.2-0.1h2.9h0.1
	c0,0,0.1,0,0.1,0.1l0.5,0.9H9.8L10.4,5.6z M16.5,18.5h-9V8h9V18.5z M9.9,17h0.8c0.1,0,0.2,0,0.3-0.1s0.1-0.2,0.1-0.3V9.9
	c0-0.1,0-0.2-0.1-0.3s-0.2-0.1-0.3-0.1H9.9c-0.1,0-0.2,0-0.3,0.1C9.5,9.7,9.5,9.8,9.5,9.9v6.8c0,0.1,0,0.2,0.1,0.3
	C9.7,17,9.8,17,9.9,17z"/>
</svg>
