<?xml version="1.0" encoding="utf-8"?>
<!-- Generator: Adobe Illustrator 24.0.0, SVG Export Plug-In . SVG Version: 6.00 Build 0)  -->
<svg version="1.1" id="Layer_1" xmlns="http://www.w3.org/2000/svg" xmlns:xlink="http://www.w3.org/1999/xlink" x="0px" y="0px"
	 viewBox="0 0 16 16" style="enable-background:new 0 0 16 16;" xml:space="preserve">
<style type="text/css">
	.st0{fill-rule:evenodd;clip-rule:evenodd;fill:#222532;}
</style>
<path class="st0" d="M13.5,5.2C13.5,5.2,13.5,5.2,13.5,5.2L13.5,5.2c0-0.2-0.1-0.4-0.2-0.5l-3.2-3.1c0,0,0,0,0,0l0,0c0,0,0,0-0.1,0
	c0,0-0.1,0-0.1-0.1c-0.1,0-0.1,0-0.2,0c0,0,0,0,0,0c0,0,0,0,0,0s0,0,0,0H4.2C3.8,1.5,3.3,1.7,3,2S2.5,2.8,2.5,3.2v10
	c0,0.5,0.2,0.9,0.5,1.2C3.3,14.8,3.8,15,4.2,15h7.5c0.5,0,0.9-0.2,1.2-0.5c0.3-0.3,0.5-0.8,0.5-1.2L13.5,5.2
	C13.5,5.2,13.5,5.2,13.5,5.2z M12.3,13.8c-0.1,0.1-0.3,0.2-0.5,0.2H4.2c-0.2,0-0.4-0.1-0.5-0.2c-0.1-0.1-0.2-0.3-0.2-0.5v-10
	c0-0.2,0.1-0.4,0.2-0.5s0.3-0.2,0.5-0.2h5.1v2.7c0,0.3,0.2,0.5,0.5,0.5h2.7v7.6C12.5,13.4,12.4,13.6,12.3,13.8z"/>
</svg>
