<?xml version="1.0" encoding="utf-8"?>
<!-- Generator: Adobe Illustrator 23.1.1, SVG Export Plug-In . SVG Version: 6.00 Build 0)  -->
<svg version="1.1" id="Layer_1" xmlns="http://www.w3.org/2000/svg" xmlns:xlink="http://www.w3.org/1999/xlink" x="0px" y="0px"
	 viewBox="0 0 16 16" style="enable-background:new 0 0 16 16;" xml:space="preserve">
<style type="text/css">
	.st0{fill:none;}
	.st1{fill:#A5ACCE;}
</style>
<rect class="st0" width="16" height="16"/>
<path class="st1" d="M13.7,4H8.4L6.7,2.2H2.3C1.6,2.2,1,2.8,1,3.6c0,0,0,0,0,0v7.9c0,0.7,0.6,1.3,1.3,1.3c0,0,0,0,0,0h11.4
	c0.7,0,1.3-0.6,1.3-1.3c0,0,0,0,0,0V5.3C15,4.6,14.4,4,13.7,4C13.7,4,13.7,4,13.7,4z"/>
</svg>
