<?xml version="1.0" encoding="utf-8"?>
<!-- Generator: Adobe Illustrator 24.0.0, SVG Export Plug-In . SVG Version: 6.00 Build 0)  -->
<svg version="1.1" id="Layer_1" xmlns="http://www.w3.org/2000/svg" xmlns:xlink="http://www.w3.org/1999/xlink" x="0px" y="0px"
	 viewBox="0 0 25 24" style="enable-background:new 0 0 25 24;" xml:space="preserve">
<style type="text/css">
	.st0{clip-path:url(#SVGID_2_);}
</style>
<g>
	<defs>
		<rect id="SVGID_1_" x="5.8" y="4" width="14" height="16"/>
	</defs>
	<clipPath id="SVGID_2_">
		<use xlink:href="#SVGID_1_"  style="overflow:visible;"/>
	</clipPath>
	<g class="st0">
		<path d="M14.2,17H15c0.1,0,0.2,0,0.3-0.1c0.1-0.1,0.1-0.2,0.1-0.3V9.9c0-0.1,0-0.2-0.1-0.3c-0.1-0.1-0.2-0.1-0.3-0.1h-0.8
			c-0.1,0-0.2,0-0.3,0.1c-0.1,0.1-0.1,0.2-0.1,0.3v6.8c0,0.1,0,0.2,0.1,0.3C14,17,14.1,17,14.2,17z M19.3,6.5h-2.6l-1.1-1.8
			c-0.1-0.2-0.3-0.4-0.5-0.5C14.9,4.1,14.7,4,14.4,4h-3.2c-0.3,0-0.5,0.1-0.7,0.2c-0.2,0.1-0.4,0.3-0.5,0.5L8.9,6.5H6.3
			C6.2,6.5,6.1,6.6,6,6.6S5.8,6.9,5.8,7v0.5c0,0.1,0.1,0.3,0.1,0.4C6.1,7.9,6.2,8,6.3,8h0.5v10.5c0,0.4,0.2,0.8,0.4,1.1
			C7.6,19.8,7.9,20,8.3,20h9c0.4,0,0.8-0.2,1.1-0.4s0.4-0.7,0.4-1.1V8h0.5c0.1,0,0.3-0.1,0.4-0.1c0.1-0.1,0.1-0.2,0.1-0.4V7
			c0-0.1-0.1-0.3-0.1-0.4S19.5,6.5,19.3,6.5z M11.2,5.6C11.2,5.6,11.2,5.5,11.2,5.6c0.1-0.1,0.1-0.1,0.2-0.1h2.9c0,0,0.1,0,0.1,0
			c0,0,0.1,0,0.1,0.1L15,6.5h-4.4L11.2,5.6z M17.3,18.5h-9V8h9V18.5z M10.7,17h0.8c0.1,0,0.2,0,0.3-0.1c0.1-0.1,0.1-0.2,0.1-0.3V9.9
			c0-0.1,0-0.2-0.1-0.3c-0.1-0.1-0.2-0.1-0.3-0.1h-0.8c-0.1,0-0.2,0-0.3,0.1c-0.1,0.1-0.1,0.2-0.1,0.3v6.8c0,0.1,0,0.2,0.1,0.3
			C10.5,17,10.6,17,10.7,17z"/>
	</g>
</g>
</svg>
