<svg width="16" height="16" viewBox="0 0 16 16" fill="none" xmlns="http://www.w3.org/2000/svg">
<g clip-path="url(#clip0)">
<path fill-rule="evenodd" clip-rule="evenodd" d="M2.17753 13.2781C2.17735 13.2524 2.18019 13.2095 2.19322 13.1438C2.22853 12.9655 2.32143 12.7167 2.47891 12.4052C2.72389 11.9206 3.09328 11.3457 3.52855 10.7519C3.31641 10.4219 3.17969 10.0469 3.08203 9.78906L3.05859 9.70703C2.44381 10.4953 1.93961 11.2555 1.58647 11.954C1.4113 12.3005 1.27309 12.6424 1.21227 12.9495C1.15616 13.2328 1.1389 13.627 1.40145 13.9271C1.59374 14.1467 1.85281 14.2483 2.1063 14.2826C2.35541 14.3164 2.62641 14.2902 2.89946 14.2311C3.44585 14.1129 4.10302 13.8398 4.81908 13.458C6.25841 12.6907 8.03696 11.4294 9.82361 9.85995C11.6103 8.29049 13.0907 6.68881 14.038 5.35953C14.5093 4.6982 14.8652 4.08127 15.0534 3.55424C15.1475 3.29085 15.2087 3.02539 15.2077 2.77395C15.2068 2.51823 15.1403 2.24819 14.9482 2.02865C14.6826 1.72551 14.2865 1.6991 14.0036 1.72262C13.696 1.74821 13.3456 1.84629 12.9878 1.97812C12.2661 2.24404 11.4687 2.64889 10.6302 3.13819L11.1079 3.44338C11.2814 3.55424 11.4161 3.64031 11.5856 3.74856C12.221 3.39804 12.829 3.10234 13.3335 2.91645C13.6571 2.79721 13.91 2.73387 14.0865 2.71918C14.1413 2.71463 14.1789 2.71535 14.2033 2.71742C14.2057 2.73174 14.2076 2.75136 14.2077 2.77764C14.2081 2.87209 14.1701 3.05433 14.1117 3.21793C13.968 3.62016 13.6713 4.1509 13.2236 4.7792C12.3329 6.02916 10.91 7.57457 9.16365 9.10865C7.41724 10.6427 5.70193 11.8541 4.34863 12.5756C3.66836 12.9382 3.10452 13.1636 2.68796 13.2537C2.47954 13.2988 2.33358 13.3043 2.24058 13.2917C2.21179 13.2878 2.19148 13.2827 2.17753 13.2781Z" fill="#858895"/>
<path fill-rule="evenodd" clip-rule="evenodd" d="M4.36663 5.78358C3.14253 7.90377 3.86896 10.6149 5.98916 11.839C8.10935 13.063 10.8204 12.3366 12.0445 10.2164C13.2686 8.09622 12.5422 5.38514 10.422 4.16105C8.3018 2.93695 5.59072 3.66338 4.36663 5.78358ZM5.48916 12.705C2.89067 11.2047 2.00036 7.88207 3.5006 5.28358C5.00084 2.68509 8.32351 1.79478 10.922 3.29502C13.5205 4.79526 14.4108 8.11793 12.9106 10.7164C11.4103 13.3149 8.08764 14.2052 5.48916 12.705Z" fill="#858895"/>
</g>
<defs>
<clipPath id="clip0">
<rect width="16" height="16" fill="white"/>
</clipPath>
</defs>
</svg>
