<?xml version="1.0" encoding="utf-8"?>
<!-- Generator: Adobe Illustrator 24.0.0, SVG Export Plug-In . SVG Version: 6.00 Build 0)  -->
<svg version="1.1" id="Layer_1" xmlns="http://www.w3.org/2000/svg" xmlns:xlink="http://www.w3.org/1999/xlink" x="0px" y="0px"
	 viewBox="0 0 16 16" style="enable-background:new 0 0 16 16;" xml:space="preserve">
<style type="text/css">
	.st0{fill:none;}
	.st1{fill:#202433;}
</style>
<rect class="st0" width="16" height="16"/>
<path class="st1" d="M13.2,6.2c0-0.1-0.1-0.1-0.1-0.2L8.7,1.6c0,0-0.1-0.1-0.2-0.1c-0.1,0-0.1,0-0.2,0H4c-1,0-1.8,0.8-1.8,1.8v10
	C2.2,14.2,3,15,4,15h7.5c1,0,1.8-0.8,1.8-1.8V6.4C13.2,6.3,13.2,6.2,13.2,6.2z M11.5,14H4c-0.4,0-0.8-0.3-0.8-0.8v-10
	c0-0.4,0.3-0.8,0.8-0.8h3.9v3.9c0,0.3,0.2,0.5,0.5,0.5h3.9v6.4C12.2,13.7,11.9,14,11.5,14z"/>
</svg>
