<?xml version="1.0" encoding="utf-8"?>
<!-- Generator: Adobe Illustrator 24.0.0, SVG Export Plug-In . SVG Version: 6.00 Build 0)  -->
<svg version="1.1" id="ic_tooltip" xmlns="http://www.w3.org/2000/svg" xmlns:xlink="http://www.w3.org/1999/xlink" x="0px" y="0px"
	 viewBox="0 0 16 16" style="enable-background:new 0 0 16 16;" xml:space="preserve">
<style type="text/css">
	.st0{fill:#A7A9B2;}
</style>
<path id="ic_tooltipv" class="st0" d="M16,8c0,4.4-3.6,8-8,8s-8-3.6-8-8s3.6-8,8-8S16,3.6,16,8z M8.2,2.6c-1.5-0.1-3,0.7-3.8,2.1
	C4.3,4.9,4.4,5.1,4.5,5.2l1.1,0.8C5.8,6.2,6.1,6.2,6.2,6c0.6-0.7,1-1.2,1.8-1.2c0.7,0,1.5,0.4,1.5,1.1c0,0.5-0.4,0.7-1,1.1
	C7.7,7.4,6.7,8,6.7,9.3v0.1c0,0.2,0.2,0.4,0.4,0.4l0,0h1.8c0.2,0,0.4-0.2,0.4-0.4l0,0v0c0-0.9,2.7-1,2.7-3.4C12,4.1,10,2.6,8.2,2.6z
	 M8,10.6c-0.8,0-1.5,0.7-1.5,1.5s0.7,1.5,1.5,1.5s1.5-0.7,1.5-1.5C9.5,11.3,8.8,10.6,8,10.6L8,10.6z"/>
</svg>
