<?xml version="1.0" encoding="utf-8"?>
<!-- Generator: Adobe Illustrator 23.1.1, SVG Export Plug-In . SVG Version: 6.00 Build 0)  -->
<svg version="1.1" id="ic_tree_folder--opened" xmlns="http://www.w3.org/2000/svg" xmlns:xlink="http://www.w3.org/1999/xlink"
	 x="0px" y="0px" viewBox="0 0 16 16" style="enable-background:new 0 0 16 16;" xml:space="preserve">
<style type="text/css">
	.st0{fill:none;}
	.st1{fill:#A5ACCE;}
</style>
<rect id="rectangle" class="st0" width="16" height="16"/>
<g id="Icon_awesome-folder">
	<path class="st1" d="M13.7,13.2H2.3c-1,0-1.8-0.8-1.8-1.8V3.6c0-0.5,0.2-0.9,0.5-1.3c0.3-0.3,0.8-0.5,1.3-0.5c0,0,0,0,0,0h4.6
		l1.8,1.8h5c0.5,0,0.9,0.2,1.3,0.5c0.3,0.3,0.5,0.8,0.5,1.3v6.1C15.5,12.4,14.7,13.2,13.7,13.2z M2.3,2.8C2.1,2.8,1.9,2.8,1.7,3
		C1.6,3.1,1.5,3.3,1.5,3.6v7.9c0,0.4,0.4,0.8,0.8,0.8h11.4c0.4,0,0.8-0.4,0.8-0.8V5.3c0-0.2-0.1-0.4-0.2-0.6s-0.4-0.2-0.6-0.2V4
		l0,0.5H8.2L6.5,2.8H2.3L2.3,2.8z"/>
</g>
</svg>
