<svg width="16" height="16" viewBox="0 0 16 16" fill="none" xmlns="http://www.w3.org/2000/svg">
<path fill-rule="evenodd" clip-rule="evenodd" d="M8.00043 14.0831C11.3601 14.0831 14.0836 11.3595 14.0836 7.99989C14.0836 4.64024 11.3601 1.9167 8.00043 1.9167C4.64078 1.9167 1.91724 4.64024 1.91724 7.99989C1.91724 11.3595 4.64078 14.0831 8.00043 14.0831ZM8.00043 15.0831C11.9124 15.0831 15.0836 11.9118 15.0836 7.99989C15.0836 4.08795 11.9124 0.916699 8.00043 0.916699C4.08849 0.916699 0.917239 4.08795 0.917239 7.99989C0.917239 11.9118 4.08849 15.0831 8.00043 15.0831Z" fill="#222532"/>
<path fill-rule="evenodd" clip-rule="evenodd" d="M1.44736 13.1029C1.30549 13.7454 1.41115 14.0676 1.55097 14.2102C1.67663 14.3384 1.93613 14.4417 2.44698 14.3702C2.94877 14.3 3.59681 14.0709 4.35743 13.6768C5.87308 12.8915 7.72932 11.5068 9.57443 9.69836C11.3156 7.99173 12.7721 6.13028 13.6473 4.56882C14.0866 3.78509 14.3648 3.10286 14.4711 2.56952C14.5815 2.01605 14.4848 1.75367 14.3746 1.64121C14.2396 1.50348 13.9367 1.39316 13.3278 1.50429C12.7381 1.61188 11.9812 1.90937 11.1088 2.39401L10.6232 1.51983C11.5441 1.00824 12.4089 0.655447 13.1482 0.520533C13.8682 0.389154 14.6015 0.444094 15.0887 0.941229C15.5521 1.41396 15.5831 2.10673 15.4518 2.76506C15.3165 3.44352 14.9838 4.22973 14.5196 5.05778C13.588 6.71988 12.0672 8.65534 10.2744 10.4125C8.38117 12.2682 6.44572 13.7211 4.81748 14.5647C4.00615 14.9851 3.2442 15.2684 2.58558 15.3605C1.93604 15.4514 1.28472 15.3672 0.836809 14.9102C0.333782 14.397 0.306538 13.6316 0.47088 12.8873C0.640243 12.1202 1.04211 11.2245 1.61309 10.2741L2.4703 10.7891C1.92767 11.6923 1.58421 12.483 1.44736 13.1029Z" fill="#222532"/>
</svg>
