<svg id="ic_tree_globe" xmlns="http://www.w3.org/2000/svg" width="16" height="16" viewBox="0 0 16 16">
  <rect id="rectangle" width="16" height="16" fill="none"/>
  <path id="Icon_awesome-globe-asia" data-name="Icon awesome-globe-asia" d="M7,.563a7,7,0,1,0,7,7A7,7,0,0,0,7,.563ZM6.68,7.343a.452.452,0,0,1-.387.219H6.284a.452.452,0,0,0-.319.132l-.16.16a.226.226,0,0,0,0,.319l.16.16a.452.452,0,0,1,.132.319v.264a.451.451,0,0,1-.452.452H5.473a.451.451,0,0,1-.4-.25L4.431,7.843a.226.226,0,0,0-.362-.059l-.55.549a.452.452,0,0,1-.319.132H1.434A5.634,5.634,0,0,1,8.74,2.195L7.324,3.282a.226.226,0,0,0,.024.39l.306.153a.451.451,0,0,1,.25.4V6.433a.226.226,0,0,1-.226.226H7.591a.225.225,0,0,1-.2-.125.125.125,0,0,0-.219-.008l-.49.817Zm4.836,3.11a.452.452,0,0,1-.132.319l-.27.27a.452.452,0,0,1-.319.132h-.428a.452.452,0,0,1-.319-.132l-.367-.367a.756.756,0,0,0-.718-.2l-.6.15a.448.448,0,0,1-.11.014H7.961a.452.452,0,0,1-.319-.132l-.336-.336a.226.226,0,0,1-.066-.16V9.725a.226.226,0,0,1,.142-.21l1.11-.444a.757.757,0,0,0,.158-.086l.669-.477a.225.225,0,0,1,.131-.042h.341A.226.226,0,0,1,10,8.605l.151.363a.113.113,0,0,0,.1.069h.107a.113.113,0,0,0,.108-.081l.119-.408a.113.113,0,0,1,.108-.081h.171a.113.113,0,0,1,.113.113v.365a.226.226,0,0,0,.066.16l.336.336a.452.452,0,0,1,.132.319v.694Z" transform="translate(1 0.438)" fill="#a5acce"/>
</svg>
