<?xml version="1.0" encoding="utf-8"?>
<!-- Generator: Adobe Illustrator 24.0.0, SVG Export Plug-In . SVG Version: 6.00 Build 0)  -->
<svg version="1.1" id="Layer_1" xmlns="http://www.w3.org/2000/svg" xmlns:xlink="http://www.w3.org/1999/xlink" x="0px" y="0px"
	 viewBox="0 0 16 16" style="enable-background:new 0 0 16 16;" xml:space="preserve">
<style type="text/css">
	.st0{fill-rule:evenodd;clip-rule:evenodd;fill:#A7A9B2;}
	.st1{fill:#A7A9B2;}
</style>
<path class="st0" d="M8,15c1.9,0,3.6-0.7,4.9-2.1C14.3,11.6,15,9.9,15,8s-0.7-3.6-2.1-4.9C11.6,1.7,9.9,1,8,1S4.4,1.7,3.1,3.1
	C1.7,4.4,1,6.1,1,8s0.7,3.6,2.1,4.9C4.4,14.3,6.1,15,8,15L8,15z M8,16c2.1,0,4.2-0.8,5.7-2.3C15.2,12.2,16,10.1,16,8
	c0-2.1-0.8-4.2-2.3-5.7C12.2,0.8,10.1,0,8,0C5.9,0,3.8,0.8,2.3,2.3C0.8,3.8,0,5.9,0,8c0,2.1,0.8,4.2,2.3,5.7C3.8,15.2,5.9,16,8,16
	L8,16z"/>
<path class="st1" d="M8.9,6.6L6.6,6.9L6.6,7.3L7,7.3c0.3,0.1,0.4,0.2,0.3,0.5l-0.7,3.5c-0.2,0.9,0.1,1.3,0.8,1.3
	c0.5,0,1.2-0.3,1.5-0.6l0.1-0.4c-0.2,0.2-0.5,0.2-0.7,0.2c-0.3,0-0.4-0.2-0.3-0.5L8.9,6.6z"/>
<path class="st1" d="M8,5.5c0.6,0,1-0.4,1-1s-0.4-1-1-1s-1,0.4-1,1S7.4,5.5,8,5.5z"/>
</svg>
