<svg width="16" height="16" viewBox="0 0 16 16" fill="none" xmlns="http://www.w3.org/2000/svg">
<path d="M8.00002 1.04904e-05C3.58883 1.04904e-05 3.05176e-05 3.58881 3.05176e-05 8C3.05176e-05 12.4112 3.58883 16 8.00002 16C12.4112 16 16 12.4112 16 8C16 3.58881 12.4112 1.04904e-05 8.00002 1.04904e-05ZM8.80002 12.8H7.20002V11.2H8.80002V12.8ZM9.58082 8.892C9.42402 9.0184 9.27282 9.1392 9.15282 9.2592C8.82642 9.5848 8.80082 9.8808 8.80002 9.8936V10H7.20002V9.8664C7.20002 9.772 7.22322 8.9248 8.02082 8.1272C8.17682 7.9712 8.37042 7.8128 8.57362 7.648C9.16082 7.172 9.54642 6.8248 9.54642 6.3464C9.53712 5.94226 9.37002 5.5578 9.08087 5.2753C8.79172 4.99279 8.40348 4.83468 7.99923 4.83478C7.59498 4.83489 7.20682 4.9932 6.91782 5.27586C6.62881 5.55851 6.46191 5.94305 6.45282 6.3472H4.85282C4.85282 4.612 6.26482 3.20001 8.00002 3.20001C9.73522 3.20001 11.1472 4.612 11.1472 6.3472C11.1472 7.6248 10.204 8.3872 9.58082 8.892V8.892Z" fill="#858895"/>
</svg>
