<svg width="24" height="24" viewBox="0 0 24 24" fill="none" xmlns="http://www.w3.org/2000/svg">
<path d="M13 8.18776L15.4675 10.6742C15.8165 11.0259 16.3893 11.0168 16.7383 10.6742C16.8213 10.5907 16.8871 10.4917 16.932 10.3826C16.9769 10.2735 17 10.1565 17 10.0384C17 9.92034 16.9769 9.8034 16.932 9.69432C16.8871 9.58523 16.8213 9.48614 16.7383 9.40271L12.6307 5.26371C12.5479 5.18011 12.4496 5.11379 12.3413 5.06854C12.2331 5.02329 12.117 5 11.9998 5C11.8826 5 11.7666 5.02329 11.6583 5.06854C11.55 5.11379 11.4517 5.18011 11.3689 5.26371L7.26133 9.40271C7.17848 9.4862 7.11276 9.58531 7.06792 9.69439C7.02308 9.80347 7 9.92038 7 10.0384C7 10.1565 7.02308 10.2734 7.06792 10.3825C7.11276 10.4916 7.17848 10.5907 7.26133 10.6742C7.34418 10.7577 7.44254 10.8239 7.55079 10.8691C7.65904 10.9142 7.77506 10.9375 7.89223 10.9375C8.0094 10.9375 8.12542 10.9142 8.23367 10.8691C8.34192 10.8239 8.44028 10.7577 8.52313 10.6742L11 8.17836V17.125C11 17.6773 11.4477 18.125 12 18.125C12.5523 18.125 13 17.6773 13 17.125V8.18776Z" fill="#474952"/>
</svg>
