<?xml version="1.0" encoding="utf-8"?>
<!-- Generator: Adobe Illustrator 24.0.0, SVG Export Plug-In . SVG Version: 6.00 Build 0)  -->
<svg version="1.1" id="Layer_1" xmlns="http://www.w3.org/2000/svg" xmlns:xlink="http://www.w3.org/1999/xlink" x="0px" y="0px"
	 viewBox="0 0 16 16" style="enable-background:new 0 0 16 16;" xml:space="preserve">
<style type="text/css">
	.st0{opacity:0.6;}
	.st1{fill:#8C81D1;}
	.st2{fill:#6638B6;}
</style>
<g class="st0">
	<path class="st1" d="M13.1,8c0,1-0.3,2-0.8,2.8l2.1,2.1c1-1.4,1.6-3.1,1.6-4.8c0-1.8-0.6-3.5-1.7-4.8l-2,2C12.8,6.1,13.1,7,13.1,8
		L13.1,8z"/>
	<path class="st2" d="M8,13.1c-2.8,0-5.1-2.3-5.1-5.1c0-2.8,2.3-5.1,5.1-5.1c1,0,2,0.3,2.8,0.8l2-2C11.4,0.6,9.7,0,8,0
		C3.6,0,0,3.6,0,8c0,4.4,3.6,8,8,8c1.8,0,3.5-0.6,4.8-1.7l-2.1-2.1C10,12.8,9,13.1,8,13.1z"/>
</g>
</svg>
