<?xml version="1.0" encoding="utf-8"?>
<!-- Generator: Adobe Illustrator 24.0.0, SVG Export Plug-In . SVG Version: 6.00 Build 0)  -->
<svg version="1.1" id="Layer_1" xmlns="http://www.w3.org/2000/svg" xmlns:xlink="http://www.w3.org/1999/xlink" x="0px" y="0px"
	 viewBox="0 0 16 16" style="enable-background:new 0 0 16 16;" xml:space="preserve">
<style type="text/css">
	.st0{fill:#FF7750;}
</style>
<path class="st0" d="M14.9,4.3c-0.1-0.3-0.4-0.4-0.6-0.2L12,6.4L10,6L9.6,4l2.2-2.2c0.2-0.2,0.1-0.5-0.2-0.6c-1.4-0.4-3,0-4.1,1.1
	C6.4,3.5,6,5.2,6.5,6.7l-5,5c-0.8,0.8-0.8,2,0,2.7c0.8,0.8,2,0.8,2.7,0l5-5c1.5,0.5,3.3,0.2,4.5-1C14.8,7.3,15.2,5.7,14.9,4.3z
	 M2.9,13.8c-0.4,0-0.7-0.3-0.7-0.7c0-0.4,0.3-0.7,0.7-0.7c0.4,0,0.7,0.3,0.7,0.7C3.7,13.5,3.3,13.8,2.9,13.8z"/>
</svg>
