<svg width="76" height="88" viewBox="0 0 76 88" fill="none" xmlns="http://www.w3.org/2000/svg">
<rect y="3" width="6" height="6" fill="#6B6E7B"/>
<rect y="31" width="6" height="6" fill="#6B6E7B"/>
<rect y="17" width="6" height="6" fill="#6B6E7B"/>
<rect y="45" width="6" height="6" fill="#6B6E7B"/>
<rect width="6" height="6" transform="matrix(1 0 0 -1 0 65)" fill="#6B6E7B"/>
<rect y="10" width="6" height="6" fill="#6B6E7B"/>
<rect y="38" width="6" height="6" fill="#6B6E7B"/>
<rect y="24" width="6" height="6" fill="#6B6E7B"/>
<rect y="52" width="6" height="6" fill="#6B6E7B"/>
<rect y="66" width="6" height="6" fill="#6B6E7B"/>
<rect y="73" width="6" height="6" fill="#6B6E7B"/>
<rect x="7" y="3" width="6" height="6" fill="#6B6E7B"/>
<rect x="7" y="31" width="6" height="6" fill="#6B6E7B"/>
<rect x="7" y="17" width="6" height="6" fill="#6B6E7B"/>
<rect x="7" y="45" width="6" height="6" fill="#6B6E7B"/>
<rect width="6" height="6" transform="matrix(1 0 0 -1 7 65)" fill="#6B6E7B"/>
<rect x="7" y="10" width="6" height="6" fill="#6B6E7B"/>
<rect x="7" y="38" width="6" height="6" fill="#6B6E7B"/>
<rect x="7" y="24" width="6" height="6" fill="#6B6E7B"/>
<rect x="7" y="52" width="6" height="6" fill="#6B6E7B"/>
<rect x="7" y="66" width="6" height="6" fill="#6B6E7B"/>
<rect x="7" y="73" width="6" height="6" fill="#6B6E7B"/>
<rect x="14" y="3" width="6" height="6" fill="#6B6E7B"/>
<rect x="14" y="31" width="6" height="6" fill="#6B6E7B"/>
<rect x="14" y="17" width="6" height="6" fill="#6B6E7B"/>
<rect x="14" y="45" width="6" height="6" fill="#6B6E7B"/>
<rect width="6" height="6" transform="matrix(1 0 0 -1 14 65)" fill="#6B6E7B"/>
<rect x="14" y="10" width="6" height="6" fill="#6B6E7B"/>
<rect x="14" y="38" width="6" height="6" fill="#6B6E7B"/>
<rect x="14" y="24" width="6" height="6" fill="#6B6E7B"/>
<rect x="14" y="52" width="6" height="6" fill="#6B6E7B"/>
<rect x="14" y="66" width="6" height="6" fill="#6B6E7B"/>
<rect x="14" y="73" width="6" height="6" fill="#6B6E7B"/>
<rect x="21" y="3" width="6" height="6" fill="#6B6E7B"/>
<rect x="21" y="31" width="6" height="6" fill="#A7A9B2"/>
<rect x="21" y="17" width="6" height="6" fill="#6B6E7B"/>
<rect x="21" y="45" width="6" height="6" fill="#A7A9B2"/>
<rect width="6" height="6" transform="matrix(1 0 0 -1 21 65)" fill="#A7A9B2"/>
<rect x="21" y="10" width="6" height="6" fill="#6B6E7B"/>
<rect x="21" y="38" width="6" height="6" fill="#A7A9B2"/>
<rect x="21" y="24" width="6" height="6" fill="#6B6E7B"/>
<rect x="21" y="52" width="6" height="6" fill="#A7A9B2"/>
<rect x="21" y="66" width="6" height="6" fill="#A7A9B2"/>
<rect x="21" y="73" width="6" height="6" fill="#A7A9B2"/>
<rect x="28" y="3" width="6" height="6" fill="#A7A9B2"/>
<rect x="28" y="31" width="6" height="6" fill="#A7A9B2"/>
<rect x="28" y="17" width="6" height="6" fill="#A7A9B2"/>
<rect x="28" y="45" width="6" height="6" fill="#A7A9B2"/>
<rect width="6" height="6" transform="matrix(1 0 0 -1 28 65)" fill="#A7A9B2"/>
<rect x="28" y="10" width="6" height="6" fill="#A7A9B2"/>
<rect x="28" y="38" width="6" height="6" fill="#A7A9B2"/>
<rect x="28" y="24" width="6" height="6" fill="#A7A9B2"/>
<rect x="28" y="52" width="6" height="6" fill="#A7A9B2"/>
<rect x="28" y="66" width="6" height="6" fill="#A7A9B2"/>
<rect x="28" y="73" width="6" height="6" fill="#A7A9B2"/>
<rect x="35" y="3" width="6" height="6" fill="#A7A9B2"/>
<rect x="35" y="31" width="6" height="6" fill="#A7A9B2"/>
<rect x="35" y="17" width="6" height="6" fill="#A7A9B2"/>
<rect x="35" y="45" width="6" height="6" fill="#A7A9B2"/>
<rect width="6" height="6" transform="matrix(1 0 0 -1 35 65)" fill="#DDDDDF"/>
<rect x="35" y="10" width="6" height="6" fill="#A7A9B2"/>
<rect x="35" y="38" width="6" height="6" fill="#A7A9B2"/>
<rect x="35" y="24" width="6" height="6" fill="#A7A9B2"/>
<rect x="35" y="52" width="6" height="6" fill="#A7A9B2"/>
<rect x="35" y="66" width="6" height="6" fill="#DDDDDF"/>
<rect x="35" y="73" width="6" height="6" fill="#DDDDDF"/>
<rect x="42" y="3" width="6" height="6" fill="#DDDDDF"/>
<rect x="42" y="31" width="6" height="6" fill="#DDDDDF"/>
<rect x="42" y="17" width="6" height="6" fill="#DDDDDF"/>
<rect x="42" y="45" width="6" height="6" fill="#DDDDDF"/>
<rect width="6" height="6" transform="matrix(1 0 0 -1 42 65)" fill="#DDDDDF"/>
<rect x="42" y="10" width="6" height="6" fill="#DDDDDF"/>
<rect x="42" y="38" width="6" height="6" fill="#DDDDDF"/>
<rect x="42" y="24" width="6" height="6" fill="#DDDDDF"/>
<rect x="42" y="52" width="6" height="6" fill="#DDDDDF"/>
<rect x="42" y="66" width="6" height="6" fill="#DDDDDF"/>
<rect x="42" y="73" width="6" height="6" fill="#DDDDDF"/>
<rect x="49" y="3" width="6" height="6" fill="#DDDDDF"/>
<rect x="49" y="31" width="6" height="6" fill="#DDDDDF"/>
<rect x="49" y="17" width="6" height="6" fill="#DDDDDF"/>
<rect x="49" y="45" width="6" height="6" fill="#DDDDDF"/>
<rect width="6" height="6" transform="matrix(1 0 0 -1 49 65)" fill="#DDDDDF"/>
<rect x="49" y="10" width="6" height="6" fill="#DDDDDF"/>
<rect x="49" y="38" width="6" height="6" fill="#DDDDDF"/>
<rect x="49" y="24" width="6" height="6" fill="#DDDDDF"/>
<rect x="49" y="52" width="6" height="6" fill="#DDDDDF"/>
<rect x="49" y="66" width="6" height="6" fill="#DDDDDF"/>
<rect x="49" y="73" width="6" height="6" fill="#DDDDDF"/>
<rect x="56" y="3" width="6" height="6" fill="#DDDDDF"/>
<rect x="56" y="31" width="6" height="6" fill="#DDDDDF"/>
<rect x="56" y="17" width="6" height="6" fill="#DDDDDF"/>
<rect x="56" y="45" width="6" height="6" fill="#DDDDDF"/>
<rect width="6" height="6" transform="matrix(1 0 0 -1 56 65)" fill="#DDDDDF"/>
<rect x="56" y="10" width="6" height="6" fill="#DDDDDF"/>
<rect x="56" y="38" width="6" height="6" fill="#DDDDDF"/>
<rect x="56" y="24" width="6" height="6" fill="#DDDDDF"/>
<rect x="56" y="52" width="6" height="6" fill="#DDDDDF"/>
<rect x="56" y="66" width="6" height="6" fill="#DDDDDF"/>
<rect x="56" y="73" width="6" height="6" fill="#DDDDDF"/>
<rect x="63" y="3" width="6" height="6" fill="#DDDDDF"/>
<rect x="63" y="31" width="6" height="6" fill="#DDDDDF"/>
<rect x="63" y="17" width="6" height="6" fill="#DDDDDF"/>
<rect x="63" y="45" width="6" height="6" fill="#DDDDDF"/>
<rect width="6" height="6" transform="matrix(1 0 0 -1 63 65)" fill="#DDDDDF"/>
<rect x="63" y="10" width="6" height="6" fill="#DDDDDF"/>
<rect x="63" y="38" width="6" height="6" fill="#DDDDDF"/>
<rect x="63" y="24" width="6" height="6" fill="#DDDDDF"/>
<rect x="63" y="52" width="6" height="6" fill="#DDDDDF"/>
<rect x="63" y="66" width="6" height="6" fill="#DDDDDF"/>
<rect x="63" y="73" width="6" height="6" fill="#DDDDDF"/>
<rect x="70" y="3" width="6" height="6" fill="#DDDDDF"/>
<rect x="70" y="31" width="6" height="6" fill="#DDDDDF"/>
<rect x="70" y="17" width="6" height="6" fill="#DDDDDF"/>
<rect x="70" y="45" width="6" height="6" fill="#DDDDDF"/>
<rect width="6" height="6" transform="matrix(1 0 0 -1 70 65)" fill="#DDDDDF"/>
<rect x="70" y="10" width="6" height="6" fill="#DDDDDF"/>
<rect x="70" y="38" width="6" height="6" fill="#DDDDDF"/>
<rect x="70" y="24" width="6" height="6" fill="#DDDDDF"/>
<rect x="70" y="52" width="6" height="6" fill="#DDDDDF"/>
<rect x="70" y="66" width="6" height="6" fill="#DDDDDF"/>
<rect x="70" y="73" width="6" height="6" fill="#DDDDDF"/>
<rect y="80" width="6" height="6" fill="#6B6E7B"/>
<rect x="7" y="80" width="6" height="6" fill="#6B6E7B"/>
<rect x="14" y="80" width="6" height="6" fill="#6B6E7B"/>
<rect x="21" y="80" width="6" height="6" fill="#A7A9B2"/>
<rect x="28" y="80" width="6" height="6" fill="#A7A9B2"/>
<rect x="35" y="80" width="6" height="6" fill="#DDDDDF"/>
<rect x="42" y="80" width="6" height="6" fill="#DDDDDF"/>
<rect x="49" y="80" width="6" height="6" fill="#DDDDDF"/>
<rect x="56" y="80" width="6" height="6" fill="#DDDDDF"/>
<rect x="63" y="80" width="6" height="6" fill="#DDDDDF"/>
<rect x="70" y="80" width="6" height="6" fill="#DDDDDF"/>
</svg>
