<svg width="88" height="88" viewBox="0 0 88 88" fill="none" xmlns="http://www.w3.org/2000/svg">
<path d="M88 44C88 49.7782 86.8619 55.4997 84.6507 60.8381C82.4395 66.1764 79.1985 71.0269 75.1127 75.1127C71.0269 79.1985 66.1764 82.4395 60.8381 84.6507C55.4997 86.8619 49.7782 88 44 88C38.2218 88 32.5003 86.8619 27.1619 84.6507C21.8236 82.4395 16.9731 79.1985 12.8873 75.1127C8.80152 71.0269 5.56051 66.1764 3.3493 60.8381C1.13809 55.4997 -5.05143e-07 49.7782 0 44L44 44H88Z" fill="#6B6E7B"/>
<path d="M3.804 61.8964C0.0246484 53.4078 -0.970386 43.9407 0.961506 34.8519C2.8934 25.763 7.65304 17.5191 14.5583 11.3016C21.4635 5.08414 30.1598 1.2123 39.4007 0.241037C48.6417 -0.73023 57.953 1.24894 66 5.89488L44 44L3.804 61.8964Z" fill="#A7A9B2"/>
<path d="M44 0C50.9437 8.28023e-08 57.7887 1.64336 63.9756 4.79571C70.1624 7.94807 75.5154 12.5199 79.5967 18.1374C83.6781 23.755 86.3721 30.2587 87.4583 37.1169C88.5445 43.975 87.9922 50.9929 85.8465 57.5967L44 44L44 0Z" fill="#DDDDDF"/>
</svg>
