<svg width="144" height="160" viewBox="0 0 144 160" fill="none" xmlns="http://www.w3.org/2000/svg">
<path d="M101.902 156.048C101.902 156.048 111.535 146.955 106.81 141.572C106.81 141.572 102.466 138.789 99.0654 140.645C99.0654 140.645 96.9896 119.485 94.3453 115.589L91.3813 101.936C91.3813 101.936 97.7001 111.459 101.664 112.756C101.664 112.756 112.474 118.372 116.25 109.089C116.25 109.089 118.519 103.707 108.13 96.6535C108.13 96.6535 98.3345 91.4558 99.3953 71.8272C99.3953 71.8272 97.4108 57.0969 86.646 52.2683C86.646 52.2683 87.3566 50.1583 85.6564 48.8564C85.6564 48.8564 95.0965 39.1144 94.3453 26.4892C94.3453 26.4892 94.1575 6.81568 72.0596 1.24883C72.0596 1.24883 53.6463 -2.71681 43.3789 17.0465C43.3789 17.0465 39.5572 24.8431 41.5366 31.7318L36.2227 67.7169L44.9319 78.7857C44.9319 78.7857 44.6731 107.972 43.1607 113.539C43.1607 113.539 42.9729 122.817 32.9643 132.1C32.9643 132.1 26.1634 142.311 30.8885 149.733C30.8885 149.733 36.5526 163.281 50.7178 158.273C50.7178 158.273 57.0467 155.42 54.7781 148.736L50.9564 145.882C50.9564 145.882 60.7314 142.401 64.1268 127.785C64.1268 127.785 66.8167 112.057 73.1913 116.322C73.1913 116.322 78.2921 121.704 78.2921 135.627C78.2921 135.627 80.3679 161.426 93.0206 159.939C93.0308 159.944 96.9946 160.503 101.902 156.048Z" fill="url(#paint0_linear)"/>
<path d="M88.6555 31.7131C88.8585 44.2186 80.5806 50.2094 69.892 50.374C59.2085 50.5386 50.5347 45.5604 50.3317 33.0549C50.1287 20.5495 58.1325 12.2042 68.8211 12.0396C79.5047 11.875 88.4474 19.2076 88.6555 31.7131Z" fill="white"/>
<path d="M69.3492 50.9769C57.0517 50.9769 49.9107 44.4723 49.7229 33.0642C49.6214 26.8589 51.4587 21.4866 55.0368 17.5209C58.4982 13.685 63.3908 11.5251 68.8112 11.4403C80.6469 11.2707 89.0668 19.5861 89.2648 31.7024C89.3663 37.7631 87.463 42.7414 83.7733 46.1084C80.3779 49.2011 75.5817 50.8821 69.9024 50.9719C69.7197 50.9769 69.5319 50.9769 69.3492 50.9769ZM69.1868 12.6325C69.065 12.6325 68.9482 12.6325 68.8264 12.6375C63.7511 12.7173 59.1782 14.7325 55.9453 18.319C52.5753 22.0552 50.8395 27.1482 50.9359 33.0493C51.1136 43.8687 58.0109 49.9743 69.877 49.7797C75.2518 49.6949 79.7688 48.1236 82.9358 45.2355C86.4175 42.063 88.133 37.5187 88.0365 31.7274C87.8589 20.434 80.1241 12.6325 69.1868 12.6325Z" fill="white"/>
<path d="M61.7256 17.8837C61.6596 18.2328 61.7408 18.6269 61.9996 18.8763C62.299 19.1705 62.7558 19.2254 63.1821 19.2354C63.6338 19.2454 64.1006 19.2254 64.5219 19.0558C64.9431 18.8862 65.3085 18.5471 65.41 18.1081C65.5013 17.7041 65.344 17.2702 65.075 16.946C64.867 16.6966 64.5929 16.4921 64.2783 16.4073C63.7961 16.2776 63.3039 16.4322 62.8471 16.6567C62.4919 16.8313 62.1874 17.0856 61.9692 17.4049C61.8525 17.5744 61.751 17.749 61.7256 17.8837Z" fill="#EBEAF6"/>
<path opacity="0.8" d="M59.8788 20.8973C59.2596 23.1669 57.4934 25.3667 56.6661 27.5765C55.8287 29.8212 55.4379 31.9661 55.6714 34.3106C55.6765 34.3655 56.2043 40.89 54.0777 36.0166C53.8646 35.5277 53.6362 33.8467 53.555 31.9312C53.5093 30.8537 53.5144 29.2376 54.0117 27.2822C54.3467 25.9753 54.8136 24.828 55.4125 23.6109C55.8033 22.8227 56.3667 22.0046 56.925 21.3213C57.5188 20.593 58.1278 19.9495 59.0972 20.0044C59.0972 20.0044 60.1021 20.0892 59.8788 20.8973Z" fill="#EBEAF6"/>
<path d="M51.87 49.651C51.87 49.651 48.4137 52.1102 52.1643 55.582C52.1643 55.582 63.2032 64.6955 78.7286 58.9092C78.7286 58.9092 90.0617 54.7141 86.1588 48.9277C86.1588 48.9277 72.623 62.0168 51.87 49.651Z" fill="#BCBBC5"/>
<path d="M68.4512 61.4127C58.4325 61.4127 51.86 56.1102 51.7737 56.0404C50.378 54.7534 49.7284 53.4465 49.8147 52.1296C49.9365 50.3089 51.4489 49.2115 51.5149 49.1666L51.8448 48.9322L52.1899 49.1367C62.6907 55.3969 71.2427 54.8931 76.5717 53.3667C82.3525 51.7106 85.7073 48.5281 85.7378 48.4982L86.2656 47.9894L86.6716 48.593C87.5903 49.9547 87.8237 51.3564 87.3619 52.7531C86.0321 56.8036 79.2363 59.3575 78.947 59.4623C75.1659 60.8789 71.6335 61.4127 68.4512 61.4127ZM51.9412 50.3887C51.6012 50.7229 51.0835 51.3714 51.0327 52.2144C50.9769 53.1522 51.4997 54.1349 52.5858 55.1425C52.667 55.2073 63.5231 63.9317 78.5156 58.3449C78.5816 58.32 85.0526 55.8857 86.2047 52.384C86.4839 51.536 86.4179 50.703 86.0068 49.855C83.1595 52.1545 70.2428 61.0685 51.9412 50.3887Z" fill="#BCBBC5"/>
<path d="M71.7203 45.8302L70.9025 45.5691C68.5761 44.8138 66.3554 43.747 64.3005 42.3975C61.8093 40.3803 59.7332 37.8883 58.1938 35.0676L54.29 26.4772C52.2195 21.891 48.5755 18.1957 44.0425 16.0855C39.5095 13.9754 34.3997 13.5956 29.673 15.0176L28.6536 12.7744C28.3738 12.1587 27.8652 11.676 27.2398 11.4325C26.6144 11.1889 25.9233 11.2046 25.3186 11.4759C24.714 11.7472 24.2452 12.2521 24.0155 12.8793C23.7857 13.5065 23.8139 14.2048 24.0937 14.8205L25.1289 17.0985C20.9889 19.7056 17.9523 23.7569 16.5817 28.5023C15.211 33.2476 15.5991 38.3653 17.6741 42.9075L21.5779 51.498C22.6894 54.5106 23.1978 57.7061 23.0733 60.8969C22.7518 63.3072 22.1118 65.6573 21.1704 67.8849L20.8268 68.6672L23.0553 73.5711L73.9488 50.7341L71.7203 45.8302Z" fill="url(#paint1_linear)"/>
<path d="M42.7031 66.2705C43.5332 67.4965 44.898 68.3486 46.5454 68.6695C48.1928 68.9903 50.0116 68.7581 51.6658 68.0158C53.32 67.2736 54.6979 66.0714 55.5451 64.6313C56.3922 63.1911 56.6514 61.6104 56.2747 60.1809L42.7031 66.2705Z" fill="#C2C0DD"/>
<path d="M47.1403 77.1856C47.1403 77.1856 39.8521 81.1961 37.5327 82.2037C25.7986 87.2917 20.8806 78.8018 19.8655 74.4271C18.4495 68.3165 21.2308 57.4422 23.4487 50.4188C24.6515 46.6128 29.3513 43.1659 33.036 45.0315C37.2637 47.1715 38.9081 50.2093 38.0859 54.2448C37.2231 58.4898 36.0862 65.5231 36.0862 65.5231C36.0862 65.5231 35.599 67.6132 37.2079 68.5211" fill="url(#paint2_linear)"/>
<defs>
<linearGradient id="paint0_linear" x1="59.7374" y1="-6.5884" x2="98.0277" y2="164.529" gradientUnits="userSpaceOnUse">
<stop stop-color="#E0DEEE"/>
<stop offset="1" stop-color="#D1D0E6"/>
</linearGradient>
<linearGradient id="paint1_linear" x1="25.4467" y1="11.4184" x2="48.2608" y2="62.2608" gradientUnits="userSpaceOnUse">
<stop stop-color="#D1D0E6"/>
<stop offset="1" stop-color="#C2C0DD"/>
</linearGradient>
<linearGradient id="paint2_linear" x1="25.2993" y1="46.3073" x2="45.5984" y2="77.2504" gradientUnits="userSpaceOnUse">
<stop stop-color="#E7E6F3"/>
<stop offset="0.645833" stop-color="#DBD9EB"/>
<stop offset="1" stop-color="#DAD8EB"/>
</linearGradient>
</defs>
</svg>
