<svg width="32" height="32" viewBox="0 0 32 32" fill="none" xmlns="http://www.w3.org/2000/svg">
<rect width="32" height="32" fill="url(#paint0_linear)"/>
<ellipse opacity="0.9" cx="16.4457" cy="16.4953" rx="7.62956" ry="7.62956" fill="url(#paint1_linear)"/>
<g style="mix-blend-mode:multiply">
<path d="M12.2976 22.8994C12.4334 22.8474 12.5725 22.7912 12.7147 22.7306C14.5799 21.9364 16.719 20.5146 18.4046 18.8366C20.1693 16.9375 21.6208 14.8358 22.4271 13.0627C22.5622 12.7657 22.6757 12.4856 22.7686 12.2236C23.079 12.6822 23.3408 13.1764 23.5467 13.6987C22.6597 15.6074 21.1359 17.7852 19.3274 19.728C17.6965 21.3561 15.6686 22.7596 13.7937 23.651C13.2648 23.4549 12.7637 23.2019 12.2976 22.8994Z" fill="#F8F8FD"/>
<path d="M12.2976 22.8994C12.4334 22.8474 12.5725 22.7912 12.7147 22.7306C14.5799 21.9364 16.719 20.5146 18.4046 18.8366C20.1693 16.9375 21.6208 14.8358 22.4271 13.0627C22.5622 12.7657 22.6757 12.4856 22.7686 12.2236C23.079 12.6822 23.3408 13.1764 23.5467 13.6987C22.6597 15.6074 21.1359 17.7852 19.3274 19.728C17.6965 21.3561 15.6686 22.7596 13.7937 23.651C13.2648 23.4549 12.7637 23.2019 12.2976 22.8994Z" fill="url(#paint2_linear)"/>
</g>
<path d="M18.256 9.08145C20.5438 7.74981 22.5294 7.4055 23.6427 8.63666C25.2961 10.284 22.7938 15.2159 19.1104 19.1729C15.5111 22.7659 9.97883 25.2647 8.42206 23.581C7.41675 22.4937 7.76228 20.5785 9.04235 18.3468C9.18385 18.9143 9.38888 19.4567 9.64947 19.9659C9.306 20.7245 9.14535 21.3455 9.12297 21.8174C9.10006 22.3005 9.22048 22.5549 9.36397 22.7101C9.36848 22.715 9.52643 22.8705 10.1562 22.8279C10.7549 22.7875 11.5579 22.5756 12.4977 22.1754C14.3628 21.3812 16.502 19.9594 18.1875 18.2815C19.9523 16.3823 21.4037 14.2806 22.2101 12.5076C22.6169 11.613 22.8277 10.8711 22.8712 10.3206C22.9151 9.76398 22.7804 9.58842 22.7373 9.54541L22.7136 9.52184L22.6912 9.49707C22.3721 9.14416 21.6065 8.88694 19.8786 9.67951C19.368 9.4218 18.8244 9.21979 18.256 9.08145Z" fill="white"/>
<path d="M18.256 9.08145C20.5438 7.74981 22.5294 7.4055 23.6427 8.63666C25.2961 10.284 22.7938 15.2159 19.1104 19.1729C15.5111 22.7659 9.97883 25.2647 8.42206 23.581C7.41675 22.4937 7.76228 20.5785 9.04235 18.3468C9.18385 18.9143 9.38888 19.4567 9.64947 19.9659C9.306 20.7245 9.14535 21.3455 9.12297 21.8174C9.10006 22.3005 9.22048 22.5549 9.36397 22.7101C9.36848 22.715 9.52643 22.8705 10.1562 22.8279C10.7549 22.7875 11.5579 22.5756 12.4977 22.1754C14.3628 21.3812 16.502 19.9594 18.1875 18.2815C19.9523 16.3823 21.4037 14.2806 22.2101 12.5076C22.6169 11.613 22.8277 10.8711 22.8712 10.3206C22.9151 9.76398 22.7804 9.58842 22.7373 9.54541L22.7136 9.52184L22.6912 9.49707C22.3721 9.14416 21.6065 8.88694 19.8786 9.67951C19.368 9.4218 18.8244 9.21979 18.256 9.08145Z" fill="url(#paint3_linear)"/>
<path d="M18.256 9.08145C20.5438 7.74981 22.5294 7.4055 23.6427 8.63666C25.2961 10.284 22.7938 15.2159 19.1104 19.1729C15.5111 22.7659 9.97883 25.2647 8.42206 23.581C7.41675 22.4937 7.76228 20.5785 9.04235 18.3468C9.18385 18.9143 9.38888 19.4567 9.64947 19.9659C9.306 20.7245 9.16301 21.1687 9.14062 21.6406C9.11772 22.1236 9.25825 22.2931 9.40174 22.4483C9.40625 22.4531 9.60442 22.6811 10.2031 22.6406C10.8018 22.6002 11.4821 22.4158 12.4219 22.0156C14.2656 21.0938 16.3926 19.8967 18.0781 18.2188C19.8429 16.3196 21.3343 14.4293 22.1406 12.6562C22.5474 11.7617 22.7066 10.988 22.75 10.4375C22.7725 10.1526 22.7349 9.70457 22.5781 9.53125C22.259 9.17834 21.6065 8.88694 19.8786 9.67951C19.368 9.4218 18.8244 9.21979 18.256 9.08145Z" fill="white"/>
<defs>
<linearGradient id="paint0_linear" x1="20" y1="39" x2="16.5" y2="8.5" gradientUnits="userSpaceOnUse">
<stop stop-color="#AFA1D9"/>
<stop offset="1" stop-color="#4D29B1"/>
</linearGradient>
<linearGradient id="paint1_linear" x1="12" y1="21.25" x2="22.75" y2="12" gradientUnits="userSpaceOnUse">
<stop offset="0.166667" stop-color="#C5C0E0"/>
<stop offset="0.692708" stop-color="#EDEAFA"/>
<stop offset="1" stop-color="white"/>
</linearGradient>
<linearGradient id="paint2_linear" x1="9.64858" y1="25.7744" x2="28.2993" y2="2.8635" gradientUnits="userSpaceOnUse">
<stop offset="0.203125" stop-color="#CCC5F2" stop-opacity="0"/>
<stop offset="1" stop-color="#BEB5EF"/>
</linearGradient>
<linearGradient id="paint3_linear" x1="6" y1="26.75" x2="36" y2="-2.5" gradientUnits="userSpaceOnUse">
<stop offset="0.203125" stop-color="#CCC5F2" stop-opacity="0"/>
<stop offset="1" stop-color="#BEB5EF"/>
</linearGradient>
</defs>
</svg>
