<svg width="32" height="32" viewBox="0 0 32 32" fill="none" xmlns="http://www.w3.org/2000/svg">
<rect width="32" height="32" fill="url(#paint0_linear)"/>
<path d="M25.4446 15.4444C25.4446 20.6606 18.0984 26 16.0001 26C13.9012 26 6.55566 20.6606 6.55566 15.4444C6.55566 10.2283 10.784 6 16.0001 6C21.2162 6 25.4446 10.2283 25.4446 15.4444Z" fill="white"/>
<path d="M13.502 14.2471C15.2375 15.9827 15.5886 17.4446 14.7209 18.3124C13.8531 19.1802 12.0947 19.126 10.3592 17.3899C8.62308 15.6544 7.91975 13.5438 8.78808 12.676C9.65641 11.8082 11.7664 12.5116 13.502 14.2471ZM18.4986 14.2471C16.7631 15.9827 16.4131 17.4446 17.2809 18.3124C18.1486 19.1802 19.9059 19.126 21.6414 17.3899C23.3775 15.6538 24.0809 13.5438 23.2125 12.676C22.3447 11.8082 20.2342 12.511 18.4986 14.2471ZM16.0003 23.2221C14.6964 23.2221 14.0142 22.5777 13.9409 22.5038C13.8359 22.4004 13.7764 22.2595 13.7754 22.1122C13.7743 21.9649 13.8319 21.8232 13.9353 21.7182C14.0387 21.6133 14.1796 21.5538 14.3269 21.5528C14.4742 21.5517 14.6159 21.6093 14.7209 21.7127C14.7492 21.7388 15.1686 22.111 16.0003 22.111C16.8442 22.111 17.2631 21.7282 17.2809 21.7116C17.3875 21.6115 17.529 21.5571 17.6753 21.5602C17.8215 21.5632 17.9607 21.6233 18.0631 21.7277C18.1647 21.8314 18.2213 21.971 18.2207 22.1162C18.2201 22.2613 18.1622 22.4004 18.0597 22.5032C17.9864 22.5777 17.3042 23.2221 16.0003 23.2221Z" fill="#A7A9B2"/>
<g clip-path="url(#clip0)">
<rect width="32" height="32" fill="url(#paint1_linear)"/>
<g style="mix-blend-mode:overlay">
<path d="M13.4854 7.717C14.2107 7.58901 14.6376 7.16234 14.7653 6.43701C14.8933 7.16234 15.3203 7.58901 16.0453 7.717C15.3203 7.84529 14.8933 8.27167 14.7653 8.997C14.6376 8.27167 14.2107 7.84529 13.4854 7.717Z" fill="white"/>
<path d="M23.2695 22.6585C24.1034 22.5113 24.5942 22.0208 24.741 21.187C24.8881 22.0208 25.379 22.5113 26.2125 22.6585C25.379 22.806 24.8881 23.2961 24.741 24.1299C24.5942 23.2961 24.1034 22.806 23.2695 22.6585Z" fill="white"/>
<path d="M7.08398 10.9188C8.17285 10.7267 8.81378 10.0862 9.00551 8.99731C9.19766 10.0862 9.8386 10.7267 10.927 10.9188C9.8386 11.1114 9.19766 11.7515 9.00551 12.8404C8.81378 11.7515 8.17285 11.1114 7.08398 10.9188Z" fill="white"/>
</g>
<path d="M11.0937 22.9375L11.9687 23.75L6.50018 35.5L-1.4999 30.0002L11.0937 22.9375Z" fill="url(#paint2_linear)"/>
<path d="M10.5696 23.0456L12.0108 24.1323L3.12407 36.4924L-3.55493 30.3022L10.5696 23.0456Z" fill="url(#paint3_linear)"/>
<path d="M24.1801 8.31249C24.1398 8.32056 24.1509 8.33014 24.1519 8.28858C18.1371 9.56885 14.8904 12.2797 13.1466 14.9848C13.0849 15.0806 13.0245 15.1772 12.9653 15.2746L12.9634 15.2774C11.1018 18.3466 11.1107 21.3953 11.1569 22.2284L10.8961 22.25L10.7002 23.0538L11.8295 24.0103L12.5901 23.6848L12.5685 23.424C13.1864 23.3607 13.7974 23.2422 14.3941 23.0699C14.5802 23.0067 14.6393 23.0701 14.7191 24.0334L14.9135 26.38C14.9526 26.8517 15.2133 27.0107 15.4529 26.7275C16.0322 26.0422 16.1705 25.8745 17.4849 24.3205C18.4795 23.1442 18.5616 22.5 18.017 21.3732C20.8875 19.4191 23.85 15.6347 24.1801 8.31249Z" fill="#FFFFFD"/>
<path d="M14.7202 24.0315C14.6404 23.0682 14.5813 23.0048 14.3952 23.068C15.1029 22.8241 16.8182 22.1434 18.0181 21.3713C18.5627 22.4981 18.4806 23.1423 17.4859 24.3186C16.1716 25.8726 16.0332 26.0402 15.4539 26.7256C15.2143 27.0088 14.9536 26.8498 14.9145 26.3781L14.7202 24.0315Z" fill="#D6D1EE"/>
<path d="M24.1791 8.28574C24.1199 9.59614 23.9776 10.8171 23.765 11.9108C23.449 11.4198 23.0028 10.8283 22.4563 10.3726C21.8497 9.86636 21.1232 9.52961 20.5775 9.32463C22.1113 8.74342 23.3492 8.46264 24.1791 8.28574Z" fill="#D6D1EE"/>
<path d="M12.2677 16.6237C11.8048 16.4809 11.7246 16.4062 11.2031 16.4494C10.6817 16.4926 10.1423 16.8995 9.50204 17.6569C8.48488 18.8592 8.34201 19.0233 7.46541 20.0591C7.17898 20.3979 7.66314 20.4179 8.37676 20.3588C9.74115 20.2458 10.7981 20.1254 11.221 20.496C11.7794 20.9852 12.2677 16.6237 12.2677 16.6237Z" fill="#D6D1EE"/>
<path d="M11.8642 24.1618L10.5445 23.044L10.7734 22.1046L11.3828 22.0542L12.7026 23.172L12.7531 23.7814L11.8642 24.1618Z" fill="white"/>
<g style="mix-blend-mode:multiply">
<path d="M18.0171 21.3557C18.5617 22.4822 18.5058 23.0972 17.5096 24.2733C17.3077 24.5116 15.6383 26.4915 15.4527 26.71C15.2128 26.9929 14.9612 26.8334 14.9136 26.3625L14.8995 26.1925C15.6169 25.3455 17.2327 23.6528 17.5224 22.9962C17.6922 22.6117 17.5353 22.0359 17.4144 21.6925C16.5889 22.2229 14.5003 23.0087 14.3948 23.0528C13.5843 23.2896 12.9498 23.36 12.5686 23.4065L12.5544 23.2355C12.5544 23.2355 20.1611 20.0687 24.1781 8.2689C23.8467 15.6592 20.8876 19.4016 18.0171 21.3557Z" fill="#DCDCE3"/>
</g>
<path d="M18.9169 16.0723C17.9825 16.1497 17.1592 15.4524 17.0818 14.518C17.0044 13.5835 17.7017 12.7603 18.6361 12.6829C19.5706 12.6055 20.3939 13.3028 20.4713 14.2372C20.5487 15.1717 19.8514 15.9949 18.9169 16.0723Z" fill="#FFFFFD"/>
<path d="M18.9228 12.7345C19.3688 12.6976 19.8112 12.7887 20.1527 13.0779C20.4942 13.3672 20.7068 13.7802 20.7437 14.2262C20.7806 14.6722 20.6389 15.1072 20.3497 15.4487C20.0604 15.7902 19.6474 16.0028 19.2014 16.0397C18.7554 16.0767 18.313 15.9349 17.9716 15.6457C17.6301 15.3565 17.4175 14.9434 17.3805 14.4974C17.3436 14.0514 17.4853 13.609 17.7746 13.2676C18.0638 12.9261 18.4768 12.7715 18.9228 12.7345ZM18.8722 12.123C17.6073 12.2278 16.6643 13.3415 16.769 14.6061C16.8738 15.8706 17.9872 16.814 19.2521 16.7092C20.5169 16.6044 21.4167 15.4907 21.3119 14.2262C21.2072 12.9616 20.137 12.0183 18.8722 12.123Z" fill="#7545FF"/>
</g>
<defs>
<linearGradient id="paint0_linear" x1="16" y1="0" x2="16" y2="32" gradientUnits="userSpaceOnUse">
<stop stop-color="#C3C6D4"/>
<stop offset="1" stop-color="#E3E2EB"/>
</linearGradient>
<linearGradient id="paint1_linear" x1="0.0826054" y1="2.68472" x2="32.0825" y2="31.9096" gradientUnits="userSpaceOnUse">
<stop stop-color="#5B28AE"/>
<stop offset="1" stop-color="#375BDA"/>
</linearGradient>
<linearGradient id="paint2_linear" x1="11.8279" y1="23.5595" x2="6.16148" y2="30.6271" gradientUnits="userSpaceOnUse">
<stop offset="0.177083" stop-color="#521FFF"/>
<stop offset="1" stop-color="#BBA5DC"/>
</linearGradient>
<linearGradient id="paint3_linear" x1="11.3881" y1="23.7465" x2="5.00633" y2="31.6173" gradientUnits="userSpaceOnUse">
<stop offset="0.0989583" stop-color="#9224FF"/>
<stop offset="1" stop-color="#4318BC"/>
</linearGradient>
<clipPath id="clip0">
<rect width="32" height="32" fill="white"/>
</clipPath>
</defs>
</svg>
