<svg width="32" height="32" viewBox="0 0 32 32" fill="none" xmlns="http://www.w3.org/2000/svg">
<g clip-path="url(#clip0)">
<rect width="32" height="32" fill="url(#paint0_linear)"/>
<g style="mix-blend-mode:overlay">
<path d="M13.4854 7.717C14.2107 7.58901 14.6376 7.16234 14.7653 6.43701C14.8933 7.16234 15.3203 7.58901 16.0453 7.717C15.3203 7.84529 14.8933 8.27167 14.7653 8.997C14.6376 8.27167 14.2107 7.84529 13.4854 7.717Z" fill="white"/>
<path d="M23.27 22.6585C24.1038 22.5113 24.5947 22.0208 24.7415 21.187C24.8886 22.0208 25.3794 22.5113 26.2129 22.6585C25.3794 22.806 24.8886 23.2961 24.7415 24.1299C24.5947 23.2961 24.1038 22.806 23.27 22.6585Z" fill="white"/>
<path d="M7.08447 10.9191C8.17334 10.7269 8.81427 10.0864 9.006 8.99756C9.19815 10.0864 9.83909 10.7269 10.9275 10.9191C9.83909 11.1117 9.19815 11.7517 9.006 12.8406C8.81427 11.7517 8.17334 11.1117 7.08447 10.9191Z" fill="white"/>
</g>
<path d="M10.5 23L11.9998 24.0003L6.21668 37.3545L-2.82122 29.5174L10.5 23Z" fill="url(#paint1_linear)"/>
<path d="M10.5 22.9999L12 23.9997L4.30191 35.9802L-3.44788 29.6642L10.5 22.9999Z" fill="url(#paint2_linear)"/>
<path d="M24.1811 8.31274C24.1408 8.3208 24.1519 8.33039 24.1529 8.28882C18.1381 9.56909 14.8913 12.28 13.1476 14.985C13.0859 15.0809 13.0255 15.1775 12.9663 15.2749L12.9644 15.2777C11.1028 18.3469 11.1117 21.3955 11.1578 22.2286L10.8971 22.2502L10.7012 23.054L11.8305 24.0105L12.5911 23.685L12.5695 23.4243C13.1874 23.361 13.7983 23.2424 14.3951 23.0701C14.5812 23.0069 14.6403 23.0703 14.7201 24.0337L14.9145 26.3803C14.9535 26.8519 15.2143 27.0109 15.4538 26.7278C16.0332 26.0424 16.1715 25.8747 17.4859 24.3207C18.4805 23.1444 18.5626 22.5002 18.018 21.3734C20.8885 19.4193 23.851 15.6349 24.1811 8.31274Z" fill="#FFFFFD"/>
<path d="M14.7202 24.0318C14.6404 23.0684 14.5813 23.005 14.3952 23.0682C15.1029 22.8244 16.8182 22.1436 18.0181 21.3715C18.5627 22.4983 18.4806 23.1425 17.4859 24.3188C16.1716 25.8728 16.0332 26.0405 15.4539 26.7259C15.2143 27.009 14.9536 26.85 14.9145 26.3783L14.7202 24.0318Z" fill="#D6D1EE"/>
<path d="M24.1791 8.28598C24.1199 9.59639 23.9776 10.8173 23.765 11.911C23.449 11.42 23.0028 10.8285 22.4563 10.3729C21.8497 9.8666 21.1232 9.52985 20.5775 9.32487C22.1113 8.74367 23.3492 8.46288 24.1791 8.28598Z" fill="#D6D1EE"/>
<path d="M12.2682 16.6237C11.8053 16.4809 11.7251 16.4062 11.2036 16.4494C10.6822 16.4926 10.1428 16.8995 9.50252 17.6569C8.48536 18.8592 8.3425 19.0233 7.4659 20.0591C7.17947 20.3979 7.66363 20.4179 8.37725 20.3588C9.74164 20.2458 10.7985 20.1254 11.2214 20.496C11.7799 20.9852 12.2682 16.6237 12.2682 16.6237Z" fill="#D6D1EE"/>
<path d="M11.8652 24.1618L10.5454 23.044L10.7744 22.1046L11.3838 22.0542L12.7036 23.172L12.7541 23.7814L11.8652 24.1618Z" fill="white"/>
<g style="mix-blend-mode:multiply">
<path d="M18.0176 21.3557C18.5622 22.4822 18.5063 23.0972 17.51 24.2733C17.3082 24.5116 15.6388 26.4915 15.4532 26.71C15.2133 26.9929 14.9617 26.8334 14.9141 26.3625L14.9 26.1925C15.6174 25.3455 17.2332 23.6528 17.5229 22.9962C17.6927 22.6117 17.5358 22.0359 17.4149 21.6925C16.5894 22.2229 14.5008 23.0087 14.3952 23.0528C13.5848 23.2896 12.9503 23.36 12.5691 23.4065L12.5549 23.2355C12.5549 23.2355 20.1616 20.0687 24.1786 8.2689C23.8472 15.6592 20.8881 19.4016 18.0176 21.3557Z" fill="#DCDCE3"/>
</g>
<path d="M18.9174 16.0723C17.9829 16.1497 17.1597 15.4524 17.0823 14.518C17.0049 13.5835 17.7022 12.7603 18.6366 12.6829C19.5711 12.6055 20.3943 13.3028 20.4718 14.2372C20.5492 15.1717 19.8518 15.9949 18.9174 16.0723Z" fill="#FFFFFD"/>
<path d="M18.9233 12.7345C19.3693 12.6976 19.8117 12.7887 20.1532 13.0779C20.4947 13.3672 20.7073 13.7802 20.7442 14.2262C20.7811 14.6722 20.6394 15.1072 20.3502 15.4487C20.0609 15.7902 19.6479 16.0028 19.2019 16.0397C18.7559 16.0767 18.3135 15.9349 17.972 15.6457C17.6306 15.3565 17.418 14.9434 17.381 14.4974C17.3441 14.0514 17.4858 13.609 17.7751 13.2676C18.0643 12.9261 18.4773 12.7715 18.9233 12.7345ZM18.8727 12.123C17.6078 12.2278 16.6648 13.3415 16.7695 14.6061C16.8743 15.8706 17.9877 16.814 19.2525 16.7092C20.5174 16.6044 21.4172 15.4907 21.3124 14.2262C21.2077 12.9616 20.1375 12.0183 18.8727 12.123Z" fill="#7545FF"/>
</g>
<defs>
<linearGradient id="paint0_linear" x1="0.0826054" y1="2.68472" x2="32.0825" y2="31.9096" gradientUnits="userSpaceOnUse">
<stop stop-color="#5B28AE"/>
<stop offset="1" stop-color="#375BDA"/>
</linearGradient>
<linearGradient id="paint1_linear" x1="12.591" y1="23.043" x2="4.13112" y2="34.2672" gradientUnits="userSpaceOnUse">
<stop offset="0.177083" stop-color="#521FFF"/>
<stop offset="1" stop-color="#BBA5DC"/>
</linearGradient>
<linearGradient id="paint2_linear" x1="11.9645" y1="23.1905" x2="3.50465" y2="34.4147" gradientUnits="userSpaceOnUse">
<stop offset="0.0989583" stop-color="#9224FF"/>
<stop offset="1" stop-color="#4318BC"/>
</linearGradient>
<clipPath id="clip0">
<rect width="32" height="32" fill="white"/>
</clipPath>
</defs>
</svg>
