<?xml version="1.0" encoding="utf-8"?>
<!-- Generator: Adobe Illustrator 24.0.0, SVG Export Plug-In . SVG Version: 6.00 Build 0)  -->
<svg version="1.1" id="Layer_1" xmlns="http://www.w3.org/2000/svg" xmlns:xlink="http://www.w3.org/1999/xlink" x="0px" y="0px"
	 viewBox="0 0 24 24" style="enable-background:new 0 0 24 24;" xml:space="preserve">
<style type="text/css">
	.st0{fill:none;stroke:#000000;stroke-width:0.2;}
	.st1{fill:none;stroke:#000000;stroke-width:2;}
	.st2{fill:none;stroke:#FFFFFF;stroke-width:1.5;}
</style>
<path class="st0" d="M6,5.1h10c0.5,0,0.9,0.4,0.9,0.9v12c0,0.5-0.4,0.9-0.9,0.9H6c-0.5,0-0.9-0.4-0.9-0.9V6C5.1,5.5,5.5,5.1,6,5.1z"
	/>
<path class="st1" d="M16,4H6C4.9,4,4,4.9,4,6v12c0,1.1,0.9,2,2,2h10c1.1,0,2-0.9,2-2V6C18,4.9,17.1,4,16,4z"/>
<path class="st1" d="M7,8h7.9"/>
<path class="st1" d="M7,12h6.6"/>
<path class="st1" d="M7,16h3.3"/>
<path d="M16.5,22c3,0,5.5-2.5,5.5-5.5S19.5,11,16.5,11S11,13.5,11,16.5S13.5,22,16.5,22z"/>
<path class="st2" d="M13.7,15.9l2.2,2.1l3.7-3.8"/>
</svg>
