<?xml version="1.0" encoding="utf-8"?>
<!-- Generator: Adobe Illustrator 24.0.0, SVG Export Plug-In . SVG Version: 6.00 Build 0)  -->
<svg version="1.1" id="Layer_1" xmlns="http://www.w3.org/2000/svg" xmlns:xlink="http://www.w3.org/1999/xlink" x="0px" y="0px"
	 viewBox="0 0 32 32" style="enable-background:new 0 0 32 32;" xml:space="preserve">
<style type="text/css">
	.st0{fill:none;}
	.st1{fill:#A5ACCE;}
	.st2{clip-path:url(#SVGID_2_);}
	.st3{fill:#5541B0;}
	.st4{clip-path:url(#SVGID_4_);}
	.st5{fill:#3C2C84;}
</style>
<g>
	<g>
		<circle class="st0" cx="16" cy="16" r="16"/>
	</g>
	<g>
		<path class="st1" d="M16,32C7.2,32,0,24.8,0,16S7.2,0,16,0s16,7.2,16,16S24.8,32,16,32z M16,7c-5,0-9,4-9,9s4,9,9,9s9-4,9-9
			S21,7,16,7z"/>
	</g>
	<g>
		<defs>
			<rect id="SVGID_1_" x="16" y="16" width="16" height="16"/>
		</defs>
		<clipPath id="SVGID_2_">
			<use xlink:href="#SVGID_1_"  style="overflow:visible;"/>
		</clipPath>
		<g class="st2">
			<path class="st3" d="M16,32C7.2,32,0,24.8,0,16S7.2,0,16,0s16,7.2,16,16S24.8,32,16,32z M16,7c-5,0-9,4-9,9s4,9,9,9s9-4,9-9
				S21,7,16,7z"/>
		</g>
	</g>
</g>
<g>
	<g>
		<defs>
			<rect id="SVGID_3_" x="16" y="16" width="16" height="16"/>
		</defs>
		<clipPath id="SVGID_4_">
			<use xlink:href="#SVGID_3_"  style="overflow:visible;"/>
		</clipPath>
		<g transform="translate(16 16)" class="st4">
			<g transform="translate(-16 -16)">
				<g>
					<path class="st0" d="M0-16c8.8,0,16,7.2,16,16S8.8,16,0,16S-16,8.8-16,0S-8.8-16,0-16z"/>
				</g>
				<g>
					<path class="st5" d="M0-9c-5,0-9,4-9,9s4,9,9,9s9-4,9-9S5-9,0-9 M0-16c8.8,0,16,7.2,16,16S8.8,16,0,16S-16,8.8-16,0
						S-8.8-16,0-16z"/>
				</g>
			</g>
		</g>
	</g>
</g>
</svg>
