<svg xmlns="http://www.w3.org/2000/svg" xmlns:xlink="http://www.w3.org/1999/xlink" width="32" height="32" viewBox="0 0 32 32"><defs><clipPath id="a"><path d="M-893,107.165v-16h16v16Z" transform="translate(893 -91.165)" fill="#5541b0" stroke="#3c2c84" stroke-width="1"/></clipPath></defs><g fill="none" stroke="#a5acce" stroke-width="7"><circle cx="16" cy="16" r="16" stroke="none"/><circle cx="16" cy="16" r="12.5" fill="none"/></g><g transform="translate(16 16)" clip-path="url(#a)"><g transform="translate(-16 -16)" fill="none"><path d="M16,0A16,16,0,1,1,0,16,16,16,0,0,1,16,0Z" stroke="none"/><path d="M 16 7 C 11.03737831115723 7 7 11.03737831115723 7 16 C 7 20.96262359619141 11.03737831115723 25 16 25 C 20.96262359619141 25 25 20.96262359619141 25 16 C 25 11.03737831115723 20.96262359619141 7 16 7 M 16 0 C 24.83655548095703 0 32 7.163444519042969 32 16 C 32 24.83655548095703 24.83655548095703 32 16 32 C 7.163444519042969 32 0 24.83655548095703 0 16 C 0 7.163444519042969 7.163444519042969 0 16 0 Z" stroke="none" fill="#3c2c84"/></g></g></svg>