<svg width="32" height="32" viewBox="0 0 32 32" fill="none" xmlns="http://www.w3.org/2000/svg">
<rect width="32" height="32" fill="url(#paint0_linear)"/>
<path d="M25.4446 15.4444C25.4446 20.6606 18.0984 26 16.0001 26C13.9012 26 6.55566 20.6606 6.55566 15.4444C6.55566 10.2283 10.784 6 16.0001 6C21.2162 6 25.4446 10.2283 25.4446 15.4444Z" fill="white"/>
<path d="M13.5015 14.2471C15.237 15.9827 15.5881 17.4446 14.7204 18.3124C13.8526 19.1802 12.0943 19.126 10.3587 17.3899C8.62259 15.6544 7.91926 13.5438 8.78759 12.676C9.65592 11.8082 11.7659 12.5116 13.5015 14.2471ZM18.4981 14.2471C16.7626 15.9827 16.4126 17.4446 17.2804 18.3124C18.1481 19.1802 19.9054 19.126 21.6409 17.3899C23.377 15.6538 24.0804 13.5438 23.212 12.676C22.3443 11.8082 20.2337 12.511 18.4981 14.2471ZM15.9998 23.2221C14.6959 23.2221 14.0137 22.5777 13.9404 22.5038C13.8355 22.4004 13.7759 22.2595 13.7749 22.1122C13.7739 21.9649 13.8314 21.8232 13.9348 21.7182C14.0382 21.6133 14.1791 21.5538 14.3264 21.5528C14.4738 21.5517 14.6155 21.6093 14.7204 21.7127C14.7487 21.7388 15.1681 22.111 15.9998 22.111C16.8437 22.111 17.2626 21.7282 17.2804 21.7116C17.387 21.6115 17.5286 21.5571 17.6748 21.5602C17.821 21.5632 17.9602 21.6233 18.0626 21.7277C18.1642 21.8314 18.2208 21.971 18.2202 22.1162C18.2196 22.2613 18.1618 22.4004 18.0593 22.5032C17.9859 22.5777 17.3037 23.2221 15.9998 23.2221Z" fill="#A7A9B2"/>
<defs>
<linearGradient id="paint0_linear" x1="16" y1="0" x2="16" y2="32" gradientUnits="userSpaceOnUse">
<stop stop-color="#C3C6D4"/>
<stop offset="1" stop-color="#E3E2EB"/>
</linearGradient>
</defs>
</svg>
