<svg width="96" height="64" viewBox="0 0 96 64" fill="none" xmlns="http://www.w3.org/2000/svg">
<g opacity="0.5">
<path d="M63.8532 3.34961H20C17.7909 3.34961 16 5.14048 16 7.34961V42.2645C16 44.4736 17.7909 46.2645 20 46.2645H63.8532C66.0624 46.2645 67.8532 44.4736 67.8532 42.2644V7.34961C67.8532 5.14047 66.0624 3.34961 63.8532 3.34961Z" fill="#CCBDDB"/>
<path d="M34.2016 0H20C17.7909 0 16 1.79086 16 4V11.4971C16 13.7062 17.7909 15.4971 20 15.4971H34.2016C36.4107 15.4971 38.2016 13.7062 38.2016 11.4971V4C38.2016 1.79086 36.4107 0 34.2016 0Z" fill="#CCBDDB"/>
<path d="M69.8602 7.86523H24.9238C22.1624 7.86523 19.9238 10.1038 19.9238 12.8652V43.2267C19.9238 45.9881 22.1624 48.2267 24.9238 48.2267H69.8602C72.6216 48.2267 74.8602 45.9881 74.8602 43.2267V12.8652C74.8602 10.1038 72.6216 7.86523 69.8602 7.86523Z" fill="url(#paint0_linear_19008_213140)"/>
<path fill-rule="evenodd" clip-rule="evenodd" d="M53.3721 41.9653C53.2568 38.302 54.4945 34.7246 56.8489 31.9157H56.8545C59.2988 28.9985 62.7659 27.1264 66.5458 26.6828C70.3256 26.2391 74.1321 27.2575 77.1854 29.5294C80.2387 31.8013 82.3077 35.1547 82.9687 38.9026C83.6297 42.6506 82.8326 46.5094 80.7406 49.6887L90.5437 58.8455C91.351 59.5995 91.3941 60.8651 90.64 61.6723L89.9118 62.4518C89.1579 63.259 87.8923 63.3021 87.0851 62.5481L77.2791 53.3885C74.3566 55.6003 70.722 56.6585 67.0689 56.3612C63.4159 56.0638 60.0003 54.4318 57.4739 51.7765C54.9476 49.1212 53.4874 45.6286 53.3721 41.9653ZM70.5178 51.0984C72.4143 50.6531 74.1362 49.6553 75.4656 48.2312C77.2479 46.3221 78.1989 43.7833 78.1096 41.173C78.05 39.4326 77.5312 37.7556 76.6262 36.3026L64.0852 50.4279C64.3224 50.5391 64.5645 50.6411 64.811 50.7334C66.6353 51.4168 68.6213 51.5438 70.5178 51.0984ZM59.9306 46.7569L72.4891 32.612C71.659 32.218 70.7734 31.94 69.8569 31.79C67.9343 31.4754 65.9616 31.7379 64.1883 32.5444C62.415 33.351 60.9207 34.6653 59.8944 36.3211C58.868 37.977 58.3558 39.9 58.4225 41.847C58.4822 43.5917 59.0044 45.2855 59.9306 46.7569Z" fill="url(#paint1_linear_19008_213140)"/>
</g>
<defs>
<linearGradient id="paint0_linear_19008_213140" x1="47.392" y1="7.86523" x2="47.392" y2="48.2267" gradientUnits="userSpaceOnUse">
<stop stop-color="#F8F2FE"/>
<stop offset="0.9999" stop-color="#CCBDDB"/>
<stop offset="1" stop-color="#ABA1B5" stop-opacity="0"/>
</linearGradient>
<linearGradient id="paint1_linear_19008_213140" x1="56.1084" y1="31.0833" x2="76.2871" y2="57.1003" gradientUnits="userSpaceOnUse">
<stop stop-color="#A98CC6"/>
<stop offset="1" stop-color="#A794BA"/>
</linearGradient>
</defs>
</svg>
