<svg width="48" height="48" viewBox="0 0 48 48" fill="none" xmlns="http://www.w3.org/2000/svg">
<path d="M0 12C0 5.37258 5.37258 0 12 0H36C42.6274 0 48 5.37258 48 12V36C48 42.6274 42.6274 48 36 48H12C5.37258 48 0 42.6274 0 36V12Z" fill="#F0F0F0"/>
<g clip-path="url(#clip0_23280_140113)">
<path fill-rule="evenodd" clip-rule="evenodd" d="M15.6323 14.4942C14.25 13.8814 12.9907 12.8342 12.487 12.3342C12.0464 11.8928 11.3813 11.7608 10.8056 12.0001C10.2284 12.2385 9.85266 12.801 9.85266 13.4253C9.85266 14.9726 10.2863 17.3191 11.602 19.0183C10.4876 21.0174 9.85266 23.3203 9.85266 25.7715C9.85266 33.4424 16.0712 39.6609 23.7422 39.6609C31.4131 39.6609 37.6317 33.4424 37.6317 25.7715C37.6317 23.3203 36.9967 21.0174 35.8823 19.0183C37.1981 17.3191 37.6317 14.9726 37.6317 13.4253C37.6317 12.801 37.2559 12.2385 36.6794 12.0001C36.1007 11.7601 35.4394 11.8928 34.9973 12.3349C34.5281 12.8036 33.2503 13.8694 31.8489 14.492C29.5676 12.8495 26.7679 11.882 23.7422 11.882C20.7151 11.882 17.9142 12.8503 15.6323 14.4942Z" fill="#C6C6C6"/>
<path fill-rule="evenodd" clip-rule="evenodd" d="M15.6323 14.4942C14.25 13.8814 12.9907 12.8342 12.487 12.3342C12.0464 11.8928 11.3813 11.7608 10.8056 12.0001C10.2284 12.2385 9.85266 12.801 9.85266 13.4253C9.85266 14.9726 10.2863 17.3191 11.602 19.0183C10.4876 21.0174 9.85266 23.3203 9.85266 25.7715C9.85266 33.4424 16.0712 39.6609 23.7422 39.6609C31.4131 39.6609 37.6317 33.4424 37.6317 25.7715C37.6317 23.3203 36.9967 21.0174 35.8823 19.0183C37.1981 17.3191 37.6317 14.9726 37.6317 13.4253C37.6317 12.801 37.2559 12.2385 36.6794 12.0001C36.1007 11.7601 35.4394 11.8928 34.9973 12.3349C34.5281 12.8036 33.2503 13.8694 31.8489 14.492C29.5676 12.8495 26.7679 11.882 23.7422 11.882C20.7151 11.882 17.9142 12.8503 15.6323 14.4942Z" fill="url(#paint0_linear_23280_140113)" fill-opacity="0.2"/>
<path d="M29.7945 30.8726C29.6794 30.7685 29.5074 30.762 29.3839 30.8538C29.3587 30.8726 26.8479 32.729 23.7585 32.729C20.6769 32.729 18.1578 30.8726 18.1332 30.8538C18.0097 30.762 17.8377 30.7698 17.7226 30.8726C17.6082 30.9761 17.5823 31.1467 17.6619 31.2787C17.7453 31.4177 19.7419 34.6687 23.7585 34.6687C27.7752 34.6687 29.7725 31.4177 29.8552 31.2787C29.9348 31.1461 29.9095 30.9761 29.7945 30.8726ZM22.2759 26.1292C20.1713 24.0246 16.789 24 16.6461 24C16.2891 24 16.0001 24.289 16.0001 24.6453C15.9995 25.0022 16.2885 25.2925 16.6454 25.2932C16.6642 25.2932 17.8901 25.3074 19.2208 25.7697C18.8374 26.1835 18.5858 26.8262 18.5858 27.5562C18.5858 28.8067 19.3094 29.8193 20.2023 29.8193C21.0952 29.8193 21.8188 28.8067 21.8188 27.5562C21.8188 27.4437 21.8065 27.3364 21.7949 27.2284C21.8033 27.2284 21.811 27.2329 21.8188 27.2329C21.9843 27.2329 22.1498 27.1696 22.2759 27.0435C22.5287 26.7907 22.5287 26.382 22.2759 26.1292ZM30.871 24C30.7281 24 27.3465 24.0246 25.2412 26.1292C24.9884 26.382 24.9884 26.7907 25.2412 27.0435C25.3673 27.1696 25.5328 27.2329 25.6983 27.2329C25.7067 27.2329 25.7138 27.2284 25.7216 27.2284C25.7112 27.3364 25.6983 27.4437 25.6983 27.5562C25.6983 28.8067 26.4218 29.8193 27.3148 29.8193C28.2077 29.8193 28.9313 28.8067 28.9313 27.5562C28.9313 26.8262 28.6797 26.1835 28.2963 25.7697C29.627 25.3074 30.8529 25.2932 30.8723 25.2932C31.2286 25.2925 31.5176 25.0022 31.517 24.6453C31.5163 24.289 31.2279 24 30.871 24Z" fill="#303234"/>
</g>
<defs>
<linearGradient id="paint0_linear_23280_140113" x1="23.7422" y1="11.882" x2="23.7422" y2="39.6609" gradientUnits="userSpaceOnUse">
<stop stop-color="#F0F0F0"/>
<stop offset="1" stop-color="white" stop-opacity="0"/>
</linearGradient>
<clipPath id="clip0_23280_140113">
<rect width="27.779" height="27.779" fill="white" transform="translate(9.85266 11.882)"/>
</clipPath>
</defs>
</svg>
