<svg width="48" height="48" viewBox="0 0 48 48" fill="none" xmlns="http://www.w3.org/2000/svg">
<path d="M0 12C0 5.37258 5.37258 0 12 0H36C42.6274 0 48 5.37258 48 12V36C48 42.6274 42.6274 48 36 48H12C5.37258 48 0 42.6274 0 36V12Z" fill="#EEEDF4"/>
<g clip-path="url(#clip0_23207_138723)">
<path fill-rule="evenodd" clip-rule="evenodd" d="M15.6323 14.4942C14.25 13.8814 12.9907 12.8342 12.487 12.3342C12.0464 11.8928 11.3813 11.7608 10.8056 12.0001C10.2284 12.2385 9.85266 12.801 9.85266 13.4253C9.85266 14.9726 10.2863 17.3191 11.602 19.0183C10.4876 21.0174 9.85266 23.3203 9.85266 25.7715C9.85266 33.4424 16.0712 39.6609 23.7422 39.6609C31.4131 39.6609 37.6317 33.4424 37.6317 25.7715C37.6317 23.3203 36.9967 21.0174 35.8823 19.0183C37.1981 17.3191 37.6317 14.9726 37.6317 13.4253C37.6317 12.801 37.2559 12.2385 36.6794 12.0001C36.1007 11.7601 35.4394 11.8928 34.9973 12.3349C34.5281 12.8036 33.2503 13.8694 31.8489 14.492C29.5676 12.8495 26.7679 11.882 23.7422 11.882C20.7151 11.882 17.9142 12.8503 15.6323 14.4942Z" fill="#DED3EF"/>
<path fill-rule="evenodd" clip-rule="evenodd" d="M15.6323 14.4942C14.25 13.8814 12.9907 12.8342 12.487 12.3342C12.0464 11.8928 11.3813 11.7608 10.8056 12.0001C10.2284 12.2385 9.85266 12.801 9.85266 13.4253C9.85266 14.9726 10.2863 17.3191 11.602 19.0183C10.4876 21.0174 9.85266 23.3203 9.85266 25.7715C9.85266 33.4424 16.0712 39.6609 23.7422 39.6609C31.4131 39.6609 37.6317 33.4424 37.6317 25.7715C37.6317 23.3203 36.9967 21.0174 35.8823 19.0183C37.1981 17.3191 37.6317 14.9726 37.6317 13.4253C37.6317 12.801 37.2559 12.2385 36.6794 12.0001C36.1007 11.7601 35.4394 11.8928 34.9973 12.3349C34.5281 12.8036 33.2503 13.8694 31.8489 14.492C29.5676 12.8495 26.7679 11.882 23.7422 11.882C20.7151 11.882 17.9142 12.8503 15.6323 14.4942Z" fill="url(#paint0_linear_23207_138723)" fill-opacity="0.2"/>
<path d="M30.9454 31.6583C30.8081 31.5341 30.6028 31.5263 30.4554 31.6359C30.4253 31.6583 27.4291 33.8737 23.7422 33.8737C20.0645 33.8737 17.0582 31.6583 17.0289 31.6359C16.8815 31.5263 16.6763 31.5356 16.5389 31.6583C16.4023 31.7818 16.3715 31.9855 16.4664 32.1429C16.5659 32.3088 18.9487 36.1886 23.7422 36.1886C28.5356 36.1886 30.9192 32.3088 31.0179 32.1429C31.1129 31.9847 31.0828 31.7818 30.9454 31.6583V31.6583ZM21.9728 25.9975C19.4611 23.4859 15.4247 23.4565 15.2541 23.4565C14.8282 23.4565 14.4833 23.8015 14.4833 24.2266C14.4825 24.6526 14.8274 24.999 15.2534 24.9998C15.2758 24.9998 16.7388 25.0168 18.3268 25.5685C17.8692 26.0624 17.5691 26.8294 17.5691 27.7006C17.5691 29.1929 18.4325 30.4013 19.4982 30.4013C20.5638 30.4013 21.4273 29.1929 21.4273 27.7006C21.4273 27.5663 21.4126 27.4382 21.3987 27.3093C21.4087 27.3093 21.418 27.3147 21.4273 27.3147C21.6248 27.3147 21.8223 27.2391 21.9728 27.0886C22.2745 26.7869 22.2745 26.2993 21.9728 25.9975V25.9975ZM32.2302 23.4565C32.0597 23.4565 28.024 23.4859 25.5115 25.9975C25.2098 26.2993 25.2098 26.7869 25.5115 27.0886C25.662 27.2391 25.8595 27.3147 26.0571 27.3147C26.0671 27.3147 26.0756 27.3093 26.0849 27.3093C26.0725 27.4382 26.0571 27.5663 26.0571 27.7006C26.0571 29.1929 26.9205 30.4013 27.9862 30.4013C29.0518 30.4013 29.9153 29.1929 29.9153 27.7006C29.9153 26.8294 29.6151 26.0624 29.1575 25.5685C30.7456 25.0168 32.2086 24.9998 32.2317 24.9998C32.6569 24.999 33.0018 24.6526 33.0011 24.2266C33.0003 23.8015 32.6561 23.4565 32.2302 23.4565V23.4565Z" fill="#7540D2"/>
</g>
<defs>
<linearGradient id="paint0_linear_23207_138723" x1="23.7422" y1="11.882" x2="23.7422" y2="39.6609" gradientUnits="userSpaceOnUse">
<stop stop-color="#6B52FF"/>
<stop offset="1" stop-color="#C8BFFF" stop-opacity="0"/>
</linearGradient>
<clipPath id="clip0_23207_138723">
<rect width="27.779" height="27.779" fill="white" transform="translate(9.85266 11.882)"/>
</clipPath>
</defs>
</svg>
