<svg width="48" height="48" viewBox="0 0 48 48" fill="none" xmlns="http://www.w3.org/2000/svg">
<path d="M0 12C0 5.37258 5.37258 0 12 0H36C42.6274 0 48 5.37258 48 12V36C48 42.6274 42.6274 48 36 48H12C5.37258 48 0 42.6274 0 36V12Z" fill="#EFEFEF"/>
<g clip-path="url(#clip0_23207_138724)">
<path d="M38.9677 19.0487C38.9677 18.1287 38.197 17.382 37.2473 17.382C36.2976 17.382 35.5269 18.1287 35.5269 19.0487C35.5269 19.0487 35.5174 21.7862 32.9462 22.2937V19.882C32.9462 14.8195 28.7097 10.7153 23.4839 10.7153C18.2581 10.7153 14.0215 14.8195 14.0215 19.882V22.5795C9.52946 23.887 8 29.2412 8 32.382C8 33.302 8.77075 34.0487 9.72043 34.0487C10.6701 34.0487 11.4409 33.302 11.4409 32.382C11.4409 32.382 11.4426 29.432 14.3105 29.0837C14.7424 33.1178 15.7024 37.382 17.4624 37.382H18.3226C21.7634 37.382 20.9032 39.0487 24.3441 39.0487C27.7849 39.0487 26.9247 37.382 29.5054 37.382C32.086 37.382 31.5656 39.0487 34.6667 39.0487C36.092 39.0487 37.2473 37.9295 37.2473 36.5487C37.2473 35.9862 35.2912 32.387 34.0172 28.8253C38.9514 27.672 38.9677 22.032 38.9677 19.0487Z" fill="#C6C6C6"/>
<path d="M19.6543 21.8599C20.5177 21.8599 21.2176 21.1818 21.2176 20.3454C21.2176 19.509 20.5177 18.8309 19.6543 18.8309C18.7909 18.8309 18.0909 19.509 18.0909 20.3454C18.0909 21.1818 18.7909 21.8599 19.6543 21.8599Z" fill="#303234"/>
<path d="M27.4707 23.3745C29.1975 23.3745 30.5974 22.0184 30.5974 20.3456C30.5974 18.6727 29.1975 17.3167 27.4707 17.3167C25.744 17.3167 24.3441 18.6727 24.3441 20.3456C24.3441 22.0184 25.744 23.3745 27.4707 23.3745Z" fill="#303234"/>
<path d="M27.4708 22.6172C28.3342 22.6172 29.0341 21.9391 29.0341 21.1027C29.0341 20.2663 28.3342 19.5883 27.4708 19.5883C26.6074 19.5883 25.9075 20.2663 25.9075 21.1027C25.9075 21.9391 26.6074 22.6172 27.4708 22.6172Z" fill="#9AAAB4"/>
<path d="M26.8392 26.0179C28.9106 27.5225 29.6461 29.9638 28.4806 31.4692C27.3152 32.9745 24.6904 32.9745 22.6182 31.4692C20.5468 29.9646 19.8113 27.5232 20.9767 26.0179C22.143 24.5117 24.767 24.5125 26.8392 26.0179Z" fill="#303234"/>
</g>
<defs>
<clipPath id="clip0_23207_138724">
<rect width="30.9677" height="30" fill="white" transform="translate(8 9.88196)"/>
</clipPath>
</defs>
</svg>
