<svg width="160" height="82" viewBox="0 0 160 82" fill="none" xmlns="http://www.w3.org/2000/svg">
<g opacity="0.8">
<path opacity="0.8" d="M88.368 7.11938C109.06 11.0767 123.208 27.0988 119.947 42.8833C116.686 58.6678 97.2678 68.2579 76.5791 64.2848C55.8871 60.3274 41.7393 44.3054 45.0002 28.5209C48.261 12.7364 67.676 3.16203 88.368 7.11938Z" fill="url(#paint0_linear)"/>
</g>
<path d="M119.221 42.8476C122.351 27.4735 108.437 11.8131 88.1422 7.869C67.8477 3.92493 48.8583 13.1908 45.7282 28.5648C42.598 43.9389 56.5125 59.5994 76.807 63.5435C97.1015 67.4875 116.091 58.2217 119.221 42.8476Z" fill="#8C81D1"/>
<path opacity="0.1" d="M51.0295 32.8089C54.1613 17.4384 73.1531 8.17059 93.4356 12.1221C99.7369 13.3182 105.733 15.7773 110.998 19.3845C105.4 13.8695 97.491 9.63934 88.243 7.82729C67.9412 3.88837 48.9526 13.1405 45.8369 28.5141C43.7407 38.8302 49.3269 49.2865 59.3604 56.226C52.6775 49.6375 49.3259 41.1774 51.0295 32.8089Z" fill="white"/>
<g opacity="0.5">
<g opacity="0.3">
<path opacity="0.3" d="M93.2368 48.448L98.2975 39.8258C101.892 33.6493 100.996 25.94 96.0983 20.839L96.1334 20.8292C95.0839 19.7303 93.8676 18.7968 92.5292 18.0534L92.4846 18.0286L92.44 18.0038C91.1494 17.2694 89.7527 16.7281 88.2978 16.389C87.7777 16.2585 87.2671 16.1625 86.734 16.095C85.8307 15.9744 84.8984 15.914 83.9785 15.9541C83.7134 15.9535 83.4451 15.9686 83.1895 16.0025C82.9339 16.0364 82.6656 16.0515 82.4099 16.0854C81.8987 16.1532 81.3842 16.2369 80.8632 16.352C80.6043 16.4017 80.3581 16.4702 80.112 16.5387C79.3575 16.7411 78.6251 16.9968 77.8957 17.3187C77.659 17.4217 77.4222 17.5248 77.1822 17.6436C74.2705 19.0634 71.8377 21.2945 70.2204 24.0724L62.2595 37.6739C61.0089 39.7994 60.2682 42.1847 60.0957 44.6276C60.0687 44.9996 60.0576 45.3745 60.0625 45.7525C60.0674 46.1304 60.0756 46.4926 60.0964 46.8736C60.1114 47.1223 60.1424 47.374 60.1766 47.61C60.2167 47.9781 60.2886 48.3523 60.3479 48.7077C60.3981 48.9467 60.4482 49.1856 60.5111 49.4433C60.6274 49.9242 60.7628 50.3923 60.9302 50.8664C61.0817 51.3374 61.2683 51.7987 61.4741 52.2472C61.6197 52.586 61.8004 52.9151 61.9652 53.2411C62.2062 53.6799 62.4505 54.1028 62.7299 54.516C63.9332 56.316 65.5048 57.8574 67.3492 59.0401L67.4225 59.0866C67.5732 58.9183 67.724 58.7499 67.8875 58.6003C68.8682 57.7028 70.3583 57.2288 71.5603 57.7498C71.6527 57.7836 71.726 57.8301 71.8153 57.8797C72.4079 58.2206 72.9615 58.7509 73.5448 59.0573C73.9652 59.3495 74.4758 59.4454 74.9841 59.3115C76.3621 58.8984 76.3259 56.7442 77.5806 56.0456C77.6382 56.0073 77.6926 55.9847 77.7629 55.9651C77.7502 55.9463 77.7375 55.9275 77.7281 55.8929C78.662 55.5439 79.7233 56.1041 80.5996 56.5967C81.5459 57.1517 82.8214 57.6373 83.7087 56.9517C84.3046 56.4736 84.4485 55.6154 85.035 55.1027C85.7015 54.5231 86.7231 54.6332 87.5587 54.9214L87.6065 54.9304C89.126 55.921 91.1602 55.1394 91.4132 53.351C91.7546 50.9726 92.9604 48.9042 93.2368 48.448Z" fill="url(#paint1_linear)"/>
</g>
<path opacity="0.5" d="M68.3973 57.8192C69.3554 56.9536 70.777 56.5032 71.9542 57.0046C73.1281 57.5218 74.0449 58.8903 75.268 58.5168C76.9169 58.0114 76.4664 54.9313 78.9241 55.1847C79.4425 55.2503 79.9191 55.4389 80.3444 55.716C81.2846 56.3197 82.7878 57.0957 83.7618 56.315C84.3353 55.8674 84.474 55.0264 85.0379 54.5443C85.682 53.9955 86.6772 54.0861 87.4834 54.3699L87.5281 54.3947C88.9927 55.3598 90.9748 54.6065 91.1947 52.881C91.4986 50.5822 92.6693 48.5952 92.926 48.153L97.7984 39.8479C102.122 32.437 99.5744 23.0355 92.0971 18.8029C84.5941 14.6144 75.0084 17.1983 70.6364 24.6L62.9636 37.6595C58.8128 44.7923 60.9869 53.8283 67.955 58.2753C68.0865 58.1203 68.2339 57.9682 68.3973 57.8192Z" fill="white"/>
<path opacity="0.2" d="M80.6352 26.8301C81.5547 27.0045 82.4502 26.412 82.6354 25.5068C82.8205 24.6015 82.2251 23.7262 81.3056 23.5518C80.3861 23.3774 79.4905 23.97 79.3054 24.8753C79.1203 25.7806 79.7157 26.6558 80.6352 26.8301Z" fill="black"/>
<path opacity="0.2" d="M89.4975 31.7979C90.417 31.9722 91.3126 31.3797 91.4977 30.4744C91.6829 29.5691 91.0875 28.6937 90.1679 28.5194C89.2484 28.345 88.3528 28.9376 88.1677 29.8429C87.9826 30.7482 88.5779 31.6235 89.4975 31.7979Z" fill="black"/>
</g>
<path opacity="0.1" d="M119.436 34.3221C119.537 36.218 119.405 38.1177 119.028 39.9867C115.896 55.3573 96.9046 64.6251 76.6221 60.6736C60.0188 57.43 47.6802 46.3596 45.4736 34.0409C46.2446 47.4376 59.1524 59.9065 76.9638 63.3662C97.2656 67.3051 116.254 58.053 119.37 42.6794C119.927 39.9151 119.948 37.0801 119.436 34.3221Z" fill="black"/>
<g opacity="0.8">
<path opacity="0.8" d="M84.0377 28.246C125.975 36.3073 158.148 51.617 155.925 62.4408C153.702 73.2645 117.899 75.5095 75.9625 67.4483C34.0255 59.387 1.85215 44.0773 4.0754 33.2535C6.3147 22.4328 42.1008 20.1847 84.0377 28.246Z" fill="url(#paint2_linear)"/>
</g>
<path d="M83.8268 29.0691C43.2425 21.1786 8.62179 23.1972 6.50003 33.5573L153.487 62.1166C155.609 51.7565 124.411 36.9595 83.8268 29.0691Z" fill="#F5F5F5"/>
<path d="M76.1734 66.6235C116.758 74.514 151.378 72.4954 153.5 62.1352L6.51321 33.5759C4.39144 43.9361 35.5892 58.7331 76.1734 66.6235Z" fill="white"/>
<path opacity="0.05" d="M76.1734 66.6235C116.758 74.514 151.378 72.4954 153.5 62.1352L6.51321 33.5759C4.39144 43.9361 35.5892 58.7331 76.1734 66.6235Z" fill="black"/>
<path opacity="0.05" d="M50.3382 36.9831L111.658 48.896C114.1 49.3658 115.684 51.6937 115.202 54.0811L114.968 55.2433C114.487 57.6307 112.105 59.1793 109.663 58.7094L48.3433 46.7966C45.9012 46.3267 44.3176 43.9988 44.7988 41.6114L45.0331 40.4492C45.5304 38.0649 47.8961 36.5132 50.3382 36.9831Z" fill="black"/>
<path opacity="0.05" d="M39.2522 33.0719C39.45 32.1007 35.7058 30.5546 30.8895 29.6186C26.0731 28.6826 22.0084 28.7111 21.8107 29.6822C21.6129 30.6534 25.3571 32.1995 30.1734 33.1355C34.9898 34.0715 39.0545 34.043 39.2522 33.0719Z" fill="black"/>
<path opacity="0.05" d="M36.5473 46.3744C36.745 45.4032 33.0008 43.8571 28.1844 42.9211C23.368 41.9851 19.3033 42.0136 19.1056 42.9847C18.9078 43.9559 22.652 45.502 27.4684 46.438C32.2848 47.374 36.3496 47.3455 36.5473 46.3744Z" fill="black"/>
<path opacity="0.05" d="M138.562 52.3757C138.76 51.4045 135.016 49.8584 130.2 48.9224C125.383 47.9863 121.318 48.0149 121.121 48.9861C120.923 49.9573 124.667 51.5034 129.484 52.4395C134.3 53.3755 138.365 53.3469 138.562 52.3757Z" fill="black"/>
<path opacity="0.05" d="M135.857 65.6778C136.055 64.7067 132.31 63.1606 127.494 62.2246C122.678 61.2885 118.613 61.317 118.415 62.2882C118.217 63.2593 121.962 64.8054 126.778 65.7415C131.594 66.6775 135.659 66.649 135.857 65.6778Z" fill="black"/>
<path opacity="0.05" d="M91.5957 35.4278C91.7934 34.4567 88.0491 32.9106 83.2328 31.9746C78.4164 31.0385 74.3516 31.067 74.1539 32.0382C73.9562 33.0093 77.7003 34.5554 82.5167 35.4915C87.3331 36.4275 91.3979 36.399 91.5957 35.4278Z" fill="black"/>
<path opacity="0.05" d="M101.734 18.3555C101.931 17.3843 98.1873 15.8382 93.3709 14.9022C88.5546 13.9662 84.4898 13.9947 84.2921 14.9659C84.0944 15.9371 87.8385 17.4832 92.6549 18.4192C97.4713 19.3552 101.536 19.3267 101.734 18.3555Z" fill="black"/>
<path opacity="0.05" d="M83.5303 22.6503C83.728 21.6791 79.9837 20.133 75.1673 19.197C70.3509 18.2609 66.2862 18.2894 66.0885 19.2606C65.8908 20.2318 69.6349 21.7778 74.4513 22.7139C79.2677 23.6499 83.3325 23.6214 83.5303 22.6503Z" fill="black"/>
<path opacity="0.05" d="M114.935 32.1402C115.133 31.169 111.389 29.6229 106.573 28.6869C101.756 27.7508 97.6915 27.7793 97.4938 28.7505C97.296 29.7217 101.04 31.2678 105.857 32.2039C110.673 33.1399 114.738 33.1114 114.935 32.1402Z" fill="black"/>
<path opacity="0.05" d="M86.29 61.5152C86.4878 60.544 82.7435 58.9979 77.9271 58.0619C73.1107 57.1258 69.046 57.1543 68.8483 58.1255C68.6505 59.0967 72.3947 60.6428 77.2111 61.5789C82.0275 62.5149 86.0923 62.4864 86.29 61.5152Z" fill="black"/>
<defs>
<linearGradient id="paint0_linear" x1="76.5679" y1="64.2942" x2="87.5528" y2="6.96523" gradientUnits="userSpaceOnUse">
<stop stop-color="#808080" stop-opacity="0.25"/>
<stop offset="0.54" stop-color="#808080" stop-opacity="0.12"/>
<stop offset="1" stop-color="#808080" stop-opacity="0.1"/>
</linearGradient>
<linearGradient id="paint1_linear" x1="68.1252" y1="60.5825" x2="91.7148" y2="18.6151" gradientUnits="userSpaceOnUse">
<stop stop-color="#808080" stop-opacity="0.25"/>
<stop offset="0.54" stop-color="#808080" stop-opacity="0.12"/>
<stop offset="1" stop-color="#808080" stop-opacity="0.1"/>
</linearGradient>
<linearGradient id="paint2_linear" x1="75.9651" y1="67.4413" x2="83.5183" y2="28.1451" gradientUnits="userSpaceOnUse">
<stop stop-color="#F0F0F7"/>
<stop offset="0.54" stop-color="#F0F0F7"/>
<stop offset="1" stop-color="#F0F0F7"/>
</linearGradient>
</defs>
</svg>
