<svg width="70" height="66" viewBox="0 0 70 66" fill="none" xmlns="http://www.w3.org/2000/svg">
<path d="M13.5488 6.30469C28.2459 -4.40685 48.8108 -1.13956 59.5097 13.6004C59.5097 13.6004 66.451 7.77126 69.4312 12.9692C71.3932 16.4036 67.8578 22.8639 65.2294 26.8738C67.5061 39.0148 62.8785 51.9541 52.2537 59.6953C37.5566 70.4069 16.9732 67.1395 6.29282 52.3996C-4.38758 37.6596 -1.14832 17.0162 13.5488 6.30469Z" fill="url(#paint0_linear)"/>
<path opacity="0.7" d="M44.0348 20.2839C42.0727 20.3953 40.3698 18.8916 40.2587 16.9238C40.1477 14.956 41.647 13.2481 43.6091 13.1367C45.5712 13.0253 47.2741 14.529 47.3852 16.4968C47.4962 18.4646 45.9968 20.1539 44.0348 20.2839Z" fill="#A6A4BA"/>
<path opacity="0.7" d="M24.2105 28.361C22.2484 28.4724 20.5454 26.9687 20.4344 25.0009C20.3233 23.0331 21.8227 21.3252 23.7848 21.2138C25.7469 21.1024 27.4498 22.6061 27.5608 24.5739C27.6904 26.5417 26.1911 28.2497 24.2105 28.361Z" fill="#A6A4BA"/>
<path opacity="0.5" d="M37.798 30.47C40.7066 29.4017 42.5999 27.2635 42.0268 25.6942C41.4538 24.125 38.6314 23.7189 35.7228 24.7873C32.8142 25.8556 30.9209 27.9938 31.4939 29.5631C32.067 31.1323 34.8894 31.5384 37.798 30.47Z" fill="#747092"/>
<path opacity="0.3" d="M4.5 42.4997C4.5 42.4997 15 31.4679 19.1739 35.3776C24.9887 41.8308 11.5307 53.837 11.5307 53.837" stroke="url(#paint1_linear)" stroke-miterlimit="10" stroke-linecap="round" stroke-linejoin="round"/>
<defs>
<linearGradient id="paint0_linear" x1="28.4375" y1="-1.23299" x2="35.038" y2="68.9676" gradientUnits="userSpaceOnUse">
<stop stop-color="#EBEAF6"/>
<stop offset="1" stop-color="#DFDEEF"/>
</linearGradient>
<linearGradient id="paint1_linear" x1="21" y1="34.9778" x2="10.7863" y2="47.8272" gradientUnits="userSpaceOnUse">
<stop stop-color="#5B587E"/>
<stop offset="1" stop-color="#7F61C9" stop-opacity="0"/>
</linearGradient>
</defs>
</svg>
