<svg width="112" height="104" viewBox="0 0 112 104" fill="none" xmlns="http://www.w3.org/2000/svg">
<path d="M11.0745 58.9585C10.1063 55.4067 18.1122 51.7942 22.2362 50.4319L25.2412 60.4568C19.5887 61.5242 12.2847 63.3982 11.0745 58.9585Z" fill="#E0DFEF"/>
<path opacity="0.3" d="M74.1114 61.3249L73.6211 46.3077C73.2303 35.5734 65.7519 26.2852 55.212 23.4265L55.2496 23.387C52.9863 22.7669 50.6419 22.4879 48.2947 22.5481L48.2165 22.5501L48.1382 22.5521C45.8606 22.5875 43.6033 22.9539 41.4359 23.6261C40.6536 23.8543 39.9119 24.12 39.1643 24.4398C37.8923 24.9734 36.6319 25.6069 35.47 26.3613C35.1252 26.5628 34.7891 26.7873 34.4849 27.0263C34.1807 27.2653 33.8447 27.4898 33.5404 27.7288C32.932 28.2069 32.3323 28.7078 31.75 29.2546C31.4544 29.5165 31.1908 29.7931 30.9272 30.0696C30.1131 30.9075 29.3714 31.7975 28.6878 32.7708C28.4647 33.0848 28.2417 33.3989 28.0274 33.7358C25.4087 37.7956 24.0768 42.539 24.2518 47.3671L25.0542 71.0396C25.171 74.744 26.1628 78.395 27.9399 81.6867C28.2095 82.1885 28.5023 82.682 28.8183 83.1672C29.1343 83.6523 29.4415 84.1146 29.7807 84.5915C30.0039 84.9017 30.2503 85.2037 30.488 85.4828C30.8416 85.9284 31.2416 86.3576 31.6097 86.772C31.8706 87.0428 32.1315 87.3136 32.4242 87.5989C32.9691 88.1322 33.5285 88.6342 34.1342 89.1197C34.7168 89.6134 35.337 90.0676 35.9717 90.4906C36.4383 90.8178 36.9427 91.1055 37.4238 91.4015C38.0962 91.785 38.7685 92.1685 39.4612 92.4668C42.4984 93.8763 45.802 94.6701 49.1664 94.7918L49.2997 94.7962C49.3575 94.4633 49.4154 94.1303 49.5051 93.812C50.0437 91.9021 51.5907 90.1512 53.5786 89.9075C53.7263 89.8806 53.8596 89.8849 54.0161 89.8809C55.0651 89.8693 56.2185 90.1326 57.2269 90.0836C58.0122 90.1405 58.7539 89.8748 59.3044 89.3135C60.7558 87.727 58.9441 84.968 60.0013 83.1065C60.0448 83.0129 60.0969 82.9421 60.1722 82.8631C60.1404 82.8485 60.1085 82.834 60.0679 82.7965C60.995 81.632 62.8321 81.5462 64.3737 81.5143C66.0573 81.5096 68.1117 81.164 68.7025 79.5996C69.0848 78.5261 68.5687 77.3062 68.9104 76.1953C69.3013 74.9366 70.7182 74.299 72.0395 74.0338L72.1177 74.0318C74.9025 74.153 76.9043 71.5889 75.7678 69.0823C74.2544 65.7221 74.1173 62.1032 74.1114 61.3249Z" fill="url(#paint0_linear)"/>
<path d="M46.6224 90.8694C47.196 88.9143 48.7512 87.1441 50.8011 86.8878C52.851 86.6315 55.2837 87.7435 56.6454 86.2664C58.4856 84.2446 55.2202 80.4204 58.8088 78.7532C59.5594 78.4265 60.3947 78.2739 61.2142 78.3315C63.0205 78.3863 65.75 78.2194 66.4231 76.3771C66.8273 75.2827 66.3019 74.0404 66.6498 72.9478C67.0593 71.6656 68.5147 70.9915 69.8596 70.7293L69.9326 70.7215C72.767 70.833 74.8357 68.208 73.6767 65.688C72.1404 62.3184 72.0325 58.6565 72.018 57.862L71.5897 42.6181C71.1756 29.0242 59.6213 18.2793 45.7263 18.6077C31.8392 19.0077 20.8899 30.3239 21.2248 43.9093L21.8758 67.9065C22.2675 80.9878 33.0136 91.5037 46.3854 91.9034C46.4354 91.5321 46.5205 91.2038 46.6224 90.8694Z" fill="url(#paint1_linear)"/>
<path opacity="0.3" d="M36.9337 38.669C38.3465 38.1591 39.0692 36.6245 38.5477 35.2412C38.0262 33.858 36.4581 33.15 35.0452 33.6599C33.6323 34.1699 32.9097 35.7046 33.4312 37.0879C33.9527 38.4711 35.5208 39.179 36.9337 38.669Z" fill="black"/>
<path opacity="0.3" d="M53.2614 38.2425C54.6743 37.7325 55.397 36.1979 54.8755 34.8147C54.354 33.4315 52.7859 32.7235 51.373 33.2334C49.9601 33.7434 49.2375 35.2781 49.759 36.6613C50.2805 38.0445 51.8485 38.7524 53.2614 38.2425Z" fill="black"/>
<path d="M48.4618 48.0777C48.3778 45.0366 46.627 42.6152 44.5513 42.6693C42.4756 42.7235 40.8611 45.2327 40.9451 48.2738C41.0291 51.3149 42.7797 53.7364 44.8554 53.6822C46.9311 53.6281 48.5458 51.1189 48.4618 48.0777Z" fill="#A8A5CE"/>
<path d="M74.8791 17.1841C76.9938 16.4209 78.0754 14.1238 77.2949 12.0534C76.5143 9.98301 74.1672 8.92342 72.0525 9.68665C69.9378 10.4499 68.8563 12.7469 69.6368 14.8173C70.4173 16.8877 72.7644 17.9474 74.8791 17.1841Z" fill="#EBEAF6"/>
<path opacity="0.7" d="M84.116 5.05472C85.178 4.67144 85.7211 3.5179 85.3291 2.47813C84.9371 1.43836 83.7584 0.906128 82.6965 1.28941C81.6345 1.67269 81.0914 2.82634 81.4834 3.86611C81.8754 4.90587 83.0541 5.438 84.116 5.05472Z" fill="#EBEAF6"/>
<path opacity="0.5" d="M62.574 47.1707C57.8273 48.5972 48.5718 52.2809 49.5233 55.6035C50.7126 59.7568 59.0968 57.7393 65.5692 56.5396" stroke="url(#paint2_linear)" stroke-linecap="round" stroke-linejoin="round"/>
<defs>
<linearGradient id="paint0_linear" x1="51.4371" y1="96.5686" x2="49.9392" y2="24.2241" gradientUnits="userSpaceOnUse">
<stop stop-color="#808080" stop-opacity="0.35"/>
<stop offset="0.54" stop-color="#808080" stop-opacity="0.22"/>
<stop offset="1" stop-color="#808080" stop-opacity="0.2"/>
</linearGradient>
<linearGradient id="paint1_linear" x1="34.8738" y1="18.5816" x2="61.0327" y2="86.8705" gradientUnits="userSpaceOnUse">
<stop stop-color="#EBEAF6"/>
<stop offset="1" stop-color="#DFDEEF"/>
</linearGradient>
<linearGradient id="paint2_linear" x1="48.1029" y1="56.3194" x2="61.0407" y2="50.597" gradientUnits="userSpaceOnUse">
<stop stop-color="#A8A5CE"/>
<stop offset="1" stop-color="#A8A5CE" stop-opacity="0"/>
</linearGradient>
</defs>
</svg>
