<svg width="159" height="201" viewBox="0 0 159 201" fill="none" xmlns="http://www.w3.org/2000/svg">
<path opacity="0.5" d="M94.9419 50.5255L95.0456 114.098L94.7957 177.555L56.8832 175.367L-5.23361e-05 171.375L56.8832 101.521L94.9419 50.5255Z" fill="url(#paint0_linear)"/>
<path d="M132.733 98.9027C131.924 96.598 129.636 94.9882 127.024 95.1098C126.309 95.1387 125.641 95.3009 125.02 95.5557C123.856 94.2586 122.124 93.471 120.221 93.5521C117.538 93.6737 115.345 95.492 114.683 97.9067C114.335 97.8488 113.968 97.8256 113.602 97.843C110.818 97.9704 108.667 100.275 108.797 102.997C108.927 105.718 111.285 107.826 114.069 107.699C114.902 107.664 115.682 107.427 116.362 107.044C117.851 108.04 119.784 108.596 121.87 108.504C123.744 108.417 125.446 107.82 126.782 106.894C127.266 107.027 127.775 107.097 128.307 107.068C128.573 107.056 128.833 107.021 129.093 106.969C129.961 107.681 131.096 108.093 132.32 108.035C134.908 107.919 136.912 105.77 136.794 103.24C136.687 100.993 134.938 99.1922 132.733 98.9027Z" fill="#EBEAF6"/>
<path opacity="0.4" d="M114.127 78.9014C113.899 77.7377 112.929 76.8604 111.771 76.8604C111.292 76.8604 110.841 77.0127 110.464 77.2747C110.036 76.7142 109.386 76.3547 108.656 76.3547C108.399 76.3547 108.159 76.3974 107.931 76.4827C107.304 75.3495 106.151 74.5879 104.828 74.5879C102.836 74.5879 101.228 76.306 101.228 78.4262C101.228 78.4993 101.228 78.5663 101.233 78.6394C100.315 79.0659 99.6928 80.0894 99.8012 81.2592C99.9267 82.5874 101.028 83.5683 102.272 83.5683H113.574C114.8 83.5683 115.793 82.5082 115.793 81.2044C115.799 80.0894 115.086 79.1634 114.127 78.9014Z" fill="#EBEAF6"/>
<path opacity="0.4" d="M45.4832 88.8567C45.1662 87.4334 43.8373 86.363 42.2402 86.363C41.5757 86.363 40.96 86.5481 40.4419 86.8664C39.8566 86.1778 38.9605 85.7381 37.9608 85.7381C37.6133 85.7381 37.278 85.7902 36.9671 85.8885C36.1076 84.4999 34.5166 83.5684 32.7 83.5684C29.9629 83.5684 27.75 85.6687 27.75 88.2608C27.75 88.3476 27.7561 88.4344 27.7561 88.5212C26.4882 89.0477 25.6347 90.2975 25.7871 91.7208C25.9578 93.3409 27.4696 94.5444 29.1887 94.5444H44.7273C46.4159 94.5444 47.7753 93.2483 47.7753 91.6514C47.7753 90.309 46.8 89.1808 45.4832 88.8567Z" fill="#EBEAF6"/>
<path d="M125.896 42.5496C128.991 31.1114 119.399 18.5813 104.464 14.5565C89.5338 10.533 74.9164 16.5485 71.8219 27.9867C68.7274 39.4249 78.3193 51.9551 93.2543 55.9799C108.186 59.9982 122.802 53.9879 125.896 42.5496Z" fill="#C5C3DF"/>
<path opacity="0.5" d="M119.691 42.3996L119.762 42.2601C116.562 40.6895 113.093 39.7513 110.968 39.2761C111.643 38.1404 112.127 36.7515 112.549 35.1771C113.157 32.9149 112.783 30.8762 111.756 29.1273C112.208 28.4125 113.001 26.7733 112.699 24.3225C112.699 24.3225 111.256 23.4069 107.052 24.8118C105.749 24.0922 104.306 23.5262 102.817 23.1283C101.179 22.6904 99.4644 22.456 97.8069 22.4607C94.7917 18.9899 93.0272 19.0643 93.0272 19.0643C91.2612 21.4047 91.3926 23.5259 91.4648 24.0585C89.8611 25.0552 88.6416 26.5532 88.0819 28.6371C87.659 30.2115 87.4602 31.671 87.5747 33.0123C85.4781 32.37 82.1269 31.507 78.6938 31.2774L78.685 31.4334C82.1401 31.6634 85.5106 32.537 87.5903 33.1803C87.6197 33.4612 87.6622 33.7347 87.7215 34.0072C85.6227 33.5172 81.9987 32.827 78.3379 32.8697L78.3394 33.0285C82.0273 32.9876 85.6809 33.6911 87.7577 34.1807C88.3833 36.8054 90.4383 38.9383 94.6753 40.5733C93.9463 40.8208 93.1253 41.3495 92.5554 42.4641C91.6038 42.6357 88.6742 42.8957 87.803 39.7466C87.803 39.7466 87.3419 37.8868 85.6609 37.3009C85.6609 37.3009 84.0039 36.8307 85.2724 38.2948C85.2724 38.2948 86.2455 39.1119 86.4888 41.2685C86.4888 41.2685 86.5996 44.8641 91.7225 45.0921L90.8 48.5262C90.8 48.5262 90.3699 49.7164 89.1337 49.8174C89.1337 49.8174 88.3461 50.0984 88.995 50.5394C88.995 50.5394 92.0481 51.6285 92.7283 49.0962L93.7356 45.3462C93.7356 45.3462 94.0116 43.8254 94.8864 43.5076L93.2318 49.6677C93.2318 49.6677 92.7861 51.1213 91.8681 51.4767C91.8681 51.4767 91.1131 52.2524 92.3045 52.2978C92.3045 52.2978 94.5397 52.5676 95.3041 50.1124L97.0243 43.8934L97.5394 44.0311L95.9171 50.2762C95.3536 52.7851 97.4195 53.665 97.4195 53.665C98.4791 54.2213 98.209 53.1716 98.209 53.1716C97.5907 52.411 97.9347 50.9248 97.9347 50.9248L99.5743 44.8208C100.158 45.5883 99.6631 46.936 99.6631 46.936L98.6558 50.6861C97.9756 53.2184 101.171 53.7994 101.171 53.7994C101.955 53.736 101.412 53.1049 101.412 53.1049C100.394 52.3958 100.617 51.1556 100.617 51.1556L101.936 46.2438C102.45 44.3281 101.909 43.0966 101.254 42.3482C106.029 43.1329 108.658 42.2464 110.308 40.2137C112.327 40.8136 115.929 42.0384 119.174 43.9544L119.255 43.8176C116.029 41.9123 112.455 40.6892 110.416 40.0787C110.577 39.8705 110.723 39.653 110.868 39.424C112.994 39.8941 116.481 40.8262 119.691 42.3996Z" fill="#EBEAF6"/>
<path opacity="0.1" d="M75.564 31.4668C78.6636 20.03 93.2745 14.0182 108.198 18.0454C112.837 19.2744 117.186 21.4363 120.931 24.4306C117.031 19.9804 111.345 16.38 104.541 14.5394C89.6043 10.5197 74.9896 16.525 71.9068 27.9609C69.834 35.6365 73.4787 43.8138 80.6126 49.5652C75.9571 44.2469 73.8812 37.6904 75.564 31.4668Z" fill="#EBEAF6"/>
<path opacity="0.1" d="M126.478 36.1303C126.462 37.5676 126.267 38.9901 125.894 40.3811C122.794 51.818 108.183 57.8297 93.2598 53.8026C81.0459 50.4996 72.3956 41.5141 71.3615 32.107C71.2702 42.2509 80.2741 52.3248 93.3818 55.8558C108.318 59.8755 122.933 53.8702 126.016 42.4343C126.569 40.3759 126.723 38.2383 126.478 36.1303Z" fill="black"/>
<path d="M99.5774 32.6485C69.7163 24.6067 43.8108 24.3447 41.713 32.0519L149.863 61.1727C151.957 53.4591 129.438 40.6903 99.5774 32.6485Z" fill="#EBEAF6"/>
<path d="M92.0624 60.3745C121.923 68.4163 147.829 68.6783 149.927 60.9711L41.7769 31.8503C39.6842 39.5588 62.2026 52.3277 92.0624 60.3745Z" fill="#EBEAF6"/>
<path opacity="0.4" d="M92.0624 60.3745C121.923 68.4163 147.829 68.6783 149.927 60.9711L41.7769 31.8503C39.6842 39.5588 62.2026 52.3277 92.0624 60.3745Z" fill="#A8A5CE"/>
<path opacity="0.2" d="M66.158 33.3282C66.3524 32.6046 63.642 31.2465 60.0942 30.2928C56.5516 29.3404 53.5161 29.1517 53.3217 29.8753C53.1273 30.599 55.8377 31.957 59.3855 32.9108C62.9346 33.8595 65.9636 34.0519 66.158 33.3282Z" fill="black"/>
<path opacity="0.05" d="M73.1479 36.7957C73.2957 36.2453 71.2321 35.213 68.5343 34.4865C65.8365 33.7599 63.5281 33.6181 63.3803 34.1685C63.2325 34.7188 65.2961 35.7511 67.9939 36.4777C70.6917 37.2042 73.0001 37.3461 73.1479 36.7957Z" fill="black"/>
<path opacity="0.2" d="M139.23 53.0065C139.424 52.2828 136.709 50.9234 133.166 49.971C129.624 49.0186 126.593 48.8313 126.394 49.5535C126.199 50.2772 128.915 51.6366 132.457 52.589C136 53.5414 139.036 53.7301 139.23 53.0065Z" fill="black"/>
<path opacity="0.05" d="M128.751 51.7732C128.899 51.2228 126.835 50.1906 124.138 49.464C121.44 48.7374 119.131 48.5956 118.984 49.146C118.836 49.6964 120.899 50.7286 123.597 51.4552C126.295 52.1818 128.603 52.3236 128.751 51.7732Z" fill="black"/>
<path opacity="0.2" d="M105.06 37.8004C105.255 37.0768 102.539 35.7173 98.9963 34.7649C95.4537 33.8126 92.4182 33.6238 92.2238 34.3475C92.0294 35.0711 94.745 36.4306 98.2876 37.383C101.835 38.3367 104.866 38.5241 105.06 37.8004Z" fill="black"/>
<path opacity="0.05" d="M114.073 23.1734C114.268 22.4498 111.557 21.0917 108.01 20.138C104.462 19.1842 101.431 18.9969 101.237 19.7205C101.043 20.4442 103.753 21.8022 107.301 22.756C110.849 23.7098 113.879 23.8971 114.073 23.1734Z" fill="black"/>
<path opacity="0.05" d="M100.294 25.4742C100.488 24.7506 97.7723 23.3911 94.2297 22.4388C90.6871 21.4864 87.6516 21.2977 87.4572 22.0213C87.2628 22.745 89.9784 24.1044 93.521 25.0568C97.0636 26.0092 100.099 26.1979 100.294 25.4742Z" fill="black"/>
<path opacity="0.05" d="M123.232 34.2545C123.427 33.5309 120.711 32.1714 117.169 31.219C113.626 30.2667 110.59 30.0779 110.396 30.8016C110.202 31.5252 112.912 32.8833 116.46 33.8371C120.002 34.7894 123.038 34.9782 123.232 34.2545Z" fill="black"/>
<path opacity="0.05" d="M100.793 47.4397C100.941 46.8893 98.877 45.8571 96.1792 45.1305C93.4814 44.4039 91.173 44.2621 91.0252 44.8125C90.8774 45.3629 92.941 46.3951 95.6388 47.1217C98.3366 47.8483 100.645 47.9901 100.793 47.4397Z" fill="black"/>
<defs>
<linearGradient id="paint0_linear" x1="88.2859" y1="73.0904" x2="84.3043" y2="152.917" gradientUnits="userSpaceOnUse">
<stop stop-color="#A8A5CE" stop-opacity="0.7"/>
<stop offset="0.4504" stop-color="#A8A5CE" stop-opacity="0.7"/>
<stop offset="0.734375" stop-color="#EBEAF6"/>
<stop offset="1" stop-color="#EBEAF6" stop-opacity="0"/>
</linearGradient>
</defs>
</svg>
