<svg width="16" height="16" viewBox="0 0 16 16" fill="none" xmlns="http://www.w3.org/2000/svg">
<path d="M13.2582 6.6625V5.2725C13.2566 2.636 10.9994 0.5 8.21376 0.5C5.42919 0.5 3.17195 2.636 3.17036 5.2725V6.662C2.50355 6.783 2 7.3345 2 8V14.1365C2 14.8895 2.64515 15.5 3.44089 15.5H12.9877C13.7834 15.5 14.4286 14.8895 14.4286 14.1365V8C14.4286 7.3345 13.9245 6.7825 13.2582 6.6625ZM8.75482 11.436V13.455H7.67375V11.436C7.1459 11.2335 6.77339 10.7455 6.77339 10.1735C6.77339 9.4205 7.41854 8.8095 8.21429 8.8095C9.01003 8.8095 9.65518 9.42 9.65518 10.1735C9.65518 10.7455 9.28267 11.2335 8.75482 11.436ZM11.0945 6.6365H5.3325V5.2725C5.33514 3.7655 6.62228 2.5465 8.21376 2.545C9.80524 2.5465 11.0929 3.7655 11.0945 5.2725V6.6365Z" fill="#6B6E7B"/>
</svg>
