<svg width="44" height="36" viewBox="0 0 44 36" fill="none" xmlns="http://www.w3.org/2000/svg">
<path d="M35.412 15.0119C36.4118 15.0119 37.2223 14.2081 37.2223 13.2166C37.2223 12.2251 36.4118 11.4213 35.412 11.4213C34.4123 11.4213 33.6018 12.2251 33.6018 13.2166C33.6018 14.2081 34.4123 15.0119 35.412 15.0119Z" fill="#222532"/>
<path d="M28.1058 15.0119C29.1055 15.0119 29.916 14.2081 29.916 13.2166C29.916 12.2251 29.1055 11.4213 28.1058 11.4213C27.106 11.4213 26.2955 12.2251 26.2955 13.2166C26.2955 14.2081 27.106 15.0119 28.1058 15.0119Z" fill="#222532"/>
<path d="M20.799 15.0119C21.7988 15.0119 22.6093 14.2081 22.6093 13.2166C22.6093 12.2251 21.7988 11.4213 20.799 11.4213C19.7992 11.4213 18.9887 12.2251 18.9887 13.2166C18.9887 14.2081 19.7992 15.0119 20.799 15.0119Z" fill="#222532"/>
<path d="M36.1077 2H20.1034C17.207 2 14.7139 3.73179 13.6117 6.20382H7.59867C3.68444 6.2043 0.5 9.36246 0.5 13.2444V21.5975C0.5 25.4794 3.68444 28.6376 7.59867 28.6376H8.62361V34.0588C8.62361 34.4315 8.8452 34.7689 9.18875 34.9195C9.31212 34.9737 9.44261 35 9.57263 35C9.80419 35 10.0329 34.9158 10.2113 34.7553L16.9959 28.6376H23.5991C25.6248 28.6376 27.4934 27.806 28.8297 26.3448L33.495 30.5515C33.673 30.7119 33.9017 30.7962 34.1337 30.7962C34.2633 30.7962 34.3942 30.7698 34.5176 30.7157C34.8612 30.5651 35.0827 30.2272 35.0827 29.855V24.4328H36.1082C40.0219 24.4328 43.2059 21.2751 43.2059 17.3936V9.03963C43.2059 5.15816 40.0219 2 36.1077 2ZM23.5991 26.7552H16.6286C16.3923 26.7552 16.165 26.8427 15.9904 26.9999L10.5216 31.9308V27.6964C10.5216 27.1768 10.0965 26.7552 9.57263 26.7552H7.59867C4.7312 26.7552 2.39804 24.4413 2.39804 21.5975V13.2444C2.39804 10.4006 4.7312 8.08668 7.59867 8.08668H13.0783C13.0351 8.39915 13.0052 8.71586 13.0052 9.03963V17.3936C13.0052 21.2751 16.1892 24.4328 20.1034 24.4328H26.7091L27.4265 25.0799C26.45 26.1472 25.082 26.7552 23.5991 26.7552ZM41.3078 17.3936C41.3078 20.237 38.9752 22.5504 36.1077 22.5504H34.1333C33.6094 22.5504 33.1842 22.9721 33.1842 23.4916V27.727L27.7146 22.7951C27.5399 22.6379 27.3122 22.5504 27.0763 22.5504H20.1034C17.236 22.5504 14.9033 20.237 14.9033 17.3936V9.03963C14.9033 6.1963 17.236 3.88285 20.1034 3.88285H36.1077C38.9752 3.88238 41.3078 6.19582 41.3078 9.03963V17.3936Z" fill="#222532"/>
</svg>
