<svg width="150" height="88" viewBox="0 0 150 88" fill="none" xmlns="http://www.w3.org/2000/svg">
<path d="M2.86263 23.4171H1.85229C1.6839 23.4171 1.6839 23.4171 1.51551 23.252L0.16839 22.4266C0.16839 22.4266 0 22.2615 0 22.0965V19.6203C0 19.2901 0.33678 19.1251 0.50517 19.1251H2.69424C3.03102 19.1251 3.3678 18.7949 3.19941 18.4648L3.03102 17.1441C2.69424 15.8235 3.87297 14.668 5.22008 14.833L21.8907 16.9791C22.0591 16.9791 22.2275 16.9791 22.3958 16.814L22.901 16.1537C23.5746 15.1632 24.9217 14.668 26.1004 14.668L30.3102 14.9981C31.8257 15.1632 33.0044 16.6489 32.4992 18.1346L32.3308 18.7949C32.3308 18.96 32.1625 19.1251 31.9941 19.1251L29.9734 20.2806C29.2998 20.7758 29.2998 21.7663 30.1418 22.0965C30.8153 22.4266 31.6573 22.2615 31.9941 21.6012C32.1625 21.4362 32.1625 21.4362 32.3308 21.4362L35.0251 20.9409C36.3722 20.7758 37.5509 21.2711 38.2245 22.4266L38.7297 23.252C38.898 23.4171 39.0664 23.5822 39.2348 23.5822C39.9084 23.5822 40.4136 24.0774 40.4136 24.7377V26.3885C40.4136 27.544 39.4032 28.5345 38.0561 28.3694L32.836 27.8742C32.4992 27.8742 32.1625 28.2043 32.1625 28.5345C32.4992 29.8551 31.8257 31.3408 30.6469 32.0011L26.2688 34.8075C26.1004 34.9725 25.932 35.1376 25.932 35.3027V36.9535C25.932 37.2836 25.5953 37.4487 25.4269 37.4487H25.2585C25.0901 37.4487 24.9217 37.2836 24.7533 37.2836L23.4062 35.4678C23.2378 35.3027 23.0694 35.1376 22.7326 35.3027L19.1964 36.2932C19.028 36.2932 18.8597 36.4582 18.8597 36.6233L17.8493 38.7693C17.6809 39.0995 17.8493 39.4296 18.1861 39.5947L19.7016 40.0899C19.87 40.0899 20.0384 40.4201 20.0384 40.5852V41.9058C20.0384 42.236 20.2068 42.401 20.5436 42.401L21.3855 42.5661C22.3958 42.7312 23.0694 43.5566 23.2378 44.547C23.2378 44.8772 23.5746 45.0423 23.743 45.0423H31.6573C31.8257 45.0423 31.9941 45.0423 32.1625 45.2074L34.0147 47.1883C34.1831 47.3534 34.3515 47.3534 34.5199 47.3534H36.3722C36.709 47.3534 36.8774 47.6835 36.8774 47.8486V49.0041C36.8774 49.3343 37.0458 49.4994 37.3825 49.4994L41.0871 49.9946C41.2555 49.9946 41.4239 50.1597 41.4239 50.3248L43.4446 53.6263C44.1181 54.7819 43.9497 56.2676 42.9394 57.258L41.5923 58.7437C41.4239 58.9088 41.4239 59.0739 41.4239 59.239L41.5923 59.7342C41.9291 62.0453 41.0871 64.1913 39.4032 65.677L36.2038 68.4833C34.8567 69.6389 34.0147 71.2896 34.0147 73.1055V76.242C34.0147 76.4071 34.1831 76.7372 34.3515 76.7372L35.867 77.5626C36.2038 77.7277 36.2038 78.0578 36.2038 78.2229L36.0354 78.5531C35.5302 79.8737 34.0147 80.3689 32.836 79.7086L32.3308 79.3784C31.1521 78.7181 30.6469 77.5626 30.8153 76.242L30.9837 75.5817C30.9837 75.4166 30.9837 75.0864 30.6469 75.0864C29.6366 74.4261 28.963 73.2706 28.963 71.9499V62.3754C28.963 62.2104 28.7947 62.0453 28.6263 61.8802L27.4475 61.2199C26.1004 60.3945 25.4269 58.7437 25.932 57.258L26.1004 56.9279C26.1004 56.7628 26.1004 56.4326 25.932 56.2676L22.7326 53.6263C22.5642 53.4612 22.5642 53.2962 22.5642 53.1311V50.4898C22.5642 50.1597 22.7326 49.9946 23.0694 49.9946L23.9114 49.8295C24.0797 49.8295 24.2481 49.6645 24.2481 49.4994L24.7533 47.8486C24.7533 47.6835 24.7533 47.3534 24.5849 47.1883L24.0797 46.6931C23.9114 46.528 23.5746 46.528 23.4062 46.6931L22.5642 47.1883C22.2275 47.3534 21.7223 47.1883 21.7223 46.8581L21.5539 45.3724C21.5539 45.2074 21.3855 45.0423 21.2171 44.8772L19.3648 44.2169C19.1964 44.2169 19.028 43.8867 19.028 43.7217C19.028 43.3915 18.8597 43.2264 18.5229 43.2264L14.4815 42.236C13.3028 41.9058 12.6292 40.5852 13.1344 39.4296C13.3028 39.2646 13.1344 38.9344 12.966 38.7693L9.76661 35.7979C9.59822 35.6328 9.59822 35.4678 9.59822 35.3027L10.2718 28.0393C10.2718 27.7091 10.4402 27.544 10.7769 27.544C11.7873 27.379 12.6292 26.5536 12.6292 25.5631L12.7976 24.2425C12.7976 24.0774 12.7976 24.0774 12.6292 23.9123L11.1137 21.6012C10.9453 21.4362 10.7769 21.4362 10.6086 21.2711L6.06203 20.9409C5.72525 20.9409 5.55686 21.106 5.38847 21.4362C4.8833 22.7568 4.04136 23.4171 2.86263 23.4171Z" fill="#A7A9B2"/>
<path d="M39.234 19.2937L37.2133 18.9635C36.3714 18.7984 36.0346 18.1381 36.203 17.3127L36.3714 16.6524C36.5398 16.3223 36.3714 15.9921 36.203 15.662L34.8559 13.0207C34.6875 12.8556 34.6875 12.6906 34.6875 12.5255V11.8652C34.6875 11.3699 35.0243 10.8747 35.6978 10.7096L44.9593 8.06838C45.2961 7.9033 45.8012 8.06838 45.9696 8.23346L51.6949 11.8652C52.0316 12.0302 52.2 12.3604 52.2 12.6906L52.8736 15.662C53.042 16.3223 52.7052 16.9826 52.0317 17.1477L48.1587 18.6334C47.8219 18.7984 47.6535 18.9635 47.4851 19.1286L45.1277 22.9254C44.7909 23.4206 44.1173 23.7508 43.6122 23.4206L42.7702 23.0904C42.6018 23.0904 42.265 22.9254 42.0967 22.7603L39.7392 19.954C39.7392 19.4587 39.5708 19.2937 39.234 19.2937Z" fill="#A7A9B2"/>
<path d="M149.698 17.4759C149.53 17.1458 149.193 17.1458 149.025 17.1458L141.952 18.1362C141.784 18.1362 141.447 18.1362 141.279 17.9712L139.258 15.6601C139.09 15.495 139.09 15.495 138.921 15.495L129.492 13.8442C129.323 13.8442 129.323 13.8442 129.155 13.8442L124.103 14.8347C122.082 15.3299 119.893 14.6696 118.378 13.349C117.367 12.3585 116.02 11.8633 114.505 11.8633H102.886C102.718 11.8633 102.549 11.8633 102.549 12.0284L100.023 13.6791C99.8549 13.8442 99.6865 14.0093 99.6865 14.1744C99.6865 14.9998 99.1814 15.6601 98.3394 15.9902L96.6555 16.4855C96.1504 16.6505 95.4768 16.4855 95.3084 15.8251C95.14 15.6601 94.9716 15.495 94.6348 15.495H89.5831H87.5625H87.3941L82.5108 14.0093C81.332 13.6791 80.1533 13.6791 78.9746 14.1744L77.6275 14.8347C76.4487 15.3299 75.6068 16.1553 75.27 17.3108L74.7648 18.6315C74.4281 19.6219 74.4281 20.6124 74.9332 21.4378L75.4384 22.2632C75.6068 22.4283 75.7752 22.5933 76.112 22.5933H76.7855C77.7959 22.5933 78.8062 21.933 79.143 20.9426C79.143 20.7775 79.3114 20.6124 79.6481 20.4473L80.6585 20.1172C81.1637 19.9521 81.5004 20.2822 81.6688 20.7775L81.8372 22.5933C82.0056 23.7489 81.1637 24.9044 80.1533 25.2346L77.4591 26.225C77.1223 26.3901 76.6171 26.06 76.6171 25.7298L76.2804 24.4092C76.2804 24.079 75.9436 23.914 75.7752 23.914L74.5965 23.7489C74.0913 23.7489 73.7545 23.914 73.7545 24.4092V26.06C73.7545 26.3901 73.5861 26.5552 73.2493 26.7203L70.7235 27.3806C70.5551 27.3806 70.3867 27.5457 70.3867 27.7107L69.5448 29.3615C69.3764 29.5266 69.3764 29.8568 69.5448 30.0218L69.8815 30.6821C70.0499 31.1774 69.7131 31.6726 69.208 31.6726C68.0292 31.6726 67.3557 32.6631 67.5241 33.6535L67.8609 34.9742C67.8609 35.3043 68.1976 35.4694 68.5344 35.4694H70.5551C70.8919 35.4694 71.0603 35.3043 71.2287 34.9742L71.5654 33.9837C71.5654 33.6535 71.9022 33.4885 72.239 33.4885L74.4281 33.6535C74.5965 33.6535 74.7648 33.6535 74.7648 33.4885L75.9436 32.8282C76.2803 32.6631 76.6171 32.6631 76.9539 32.9932L78.1326 34.644C78.301 34.8091 78.301 34.9742 78.301 35.3043V35.4694C78.1326 35.9646 78.8062 36.6249 79.3114 36.2948L79.6481 36.1297C79.9849 35.9646 80.1533 35.6345 79.9849 35.3043L79.3114 33.3234C79.143 32.9932 79.3114 32.6631 79.6481 32.498H79.8165C80.1533 32.3329 80.4901 32.498 80.6585 32.6631L81.5004 33.6535C82.3424 34.8091 84.0263 35.3043 85.3734 34.8091H85.5418C85.8786 34.644 86.047 34.8091 86.2154 34.9742L88.236 36.9551C88.4044 37.1202 88.4044 37.2853 88.4044 37.6154L88.0676 39.4313C88.0676 39.7614 87.7309 39.9265 87.5625 39.9265L81.8372 41.2471C81.6688 41.2471 81.5004 41.2471 81.332 41.2471L78.1326 39.7614C77.9643 39.7614 77.7959 39.5963 77.7959 39.4313C77.1223 38.1106 75.7752 37.1202 74.0913 37.1202L71.5654 36.9551C71.397 36.9551 71.2287 36.9551 71.0603 37.1202L66.8505 40.4217C64.6615 42.0725 63.3143 44.5487 62.9776 47.1899C62.9776 47.355 62.8092 47.5201 62.6408 47.6852L62.1356 48.0153C61.9672 48.1804 61.7988 48.3455 61.7988 48.6756C61.7988 50.9867 62.8092 53.2978 64.6615 54.7835L66.177 56.1041C66.3454 56.2692 66.5137 56.2692 66.6821 56.2692H73.2493C73.4177 56.2692 73.5861 56.2692 73.5861 56.4343L75.4384 57.5898C75.6068 57.7549 75.7752 57.92 75.7752 58.0851L75.9436 61.2215C75.9436 61.5517 76.112 61.7168 76.2804 61.8818L78.4694 62.8723C78.8062 63.0374 78.9746 63.2025 78.8062 63.5326L78.1326 69.3103C77.9643 70.631 78.301 71.7865 78.9746 72.9421L79.8165 74.0976C79.8165 74.2627 79.9849 74.2627 79.9849 74.4277L80.1533 76.0785C80.3217 77.8944 81.6688 79.3801 83.5211 79.7102C84.8682 79.8753 86.2153 79.5452 87.2257 78.5547L88.236 77.7293C89.9199 76.0785 90.7619 73.9325 90.7619 71.6214V69.8056C90.7619 69.6405 90.9303 69.3103 91.0987 69.3103L92.6142 68.1548C93.9613 67.1643 94.6348 65.6786 94.6348 64.0279V59.9009C94.6348 59.7358 94.6348 59.5708 94.8032 59.4057L98.0026 55.939C98.171 55.774 98.171 55.6089 98.171 55.2787C97.8343 53.793 96.6555 52.6375 95.14 52.1423L94.8032 51.9772C93.6245 51.647 92.7826 50.6566 92.7826 49.501C92.7826 48.8407 92.4458 48.1804 91.9406 47.6852L90.7619 46.5296C90.5935 46.3645 90.5935 46.1995 90.5935 46.0344L90.7619 43.8884C90.7619 43.5582 91.0987 43.2281 91.4354 43.2281H90.9303C91.0987 43.2281 91.4354 43.3931 91.4354 43.5582L94.2981 46.8598C94.4665 47.0248 94.4664 47.1899 94.4664 47.355V49.0058C94.4664 49.3359 94.6348 49.6661 94.9716 49.6661L95.982 49.9962C96.1504 49.9962 96.3187 49.9962 96.4871 49.9962L99.6865 48.1804C100.865 47.5201 101.202 46.0344 100.36 45.0439L98.171 41.9074C97.8343 41.4122 98.171 40.917 98.6762 40.917L100.528 40.7519C100.865 40.7519 101.034 40.917 101.202 41.2471L101.876 42.8979C101.876 43.063 102.044 43.063 102.044 43.2281L105.749 45.8693H105.917L108.274 46.8598C108.611 47.0248 108.78 47.1899 108.78 47.5201L108.443 48.5105C108.274 49.9962 108.78 51.3169 109.79 52.3073L111.979 54.2883C112.821 55.1137 114.336 54.7835 114.842 53.628L117.199 47.355C117.367 47.0248 117.704 46.8598 118.041 46.8598L120.23 47.1899C120.398 47.1899 120.735 47.355 120.735 47.6852L122.588 52.8026C122.588 52.9676 122.756 52.9676 122.756 53.1327L123.43 53.793C123.935 54.2883 124.608 53.9581 124.608 53.2978L124.44 52.1423C124.44 51.647 124.777 51.3169 125.113 51.4819C125.282 51.4819 125.45 51.647 125.619 51.647C126.292 52.3073 127.134 52.4724 127.976 51.9772L129.492 50.9867C129.66 50.8216 129.828 50.6566 129.828 50.3264L129.66 44.0534C129.66 43.7233 129.828 43.3931 130.165 43.3931L132.017 42.8979C132.186 42.8979 132.523 42.7328 132.523 42.4027L133.364 39.4313C133.364 39.2662 133.364 38.936 133.196 38.771L132.017 37.4503C131.175 36.4599 131.007 35.1392 131.681 33.9837L132.017 33.1583C132.186 32.9932 132.354 32.8282 132.523 32.8282C133.196 32.8282 133.87 32.3329 134.206 31.6726L138.416 22.9235C138.585 22.5933 139.09 22.4283 139.427 22.5933L140.437 23.0886C140.605 23.2536 140.774 23.4187 140.774 23.5838V25.8949C140.774 26.225 140.942 26.3901 141.11 26.5552C141.952 27.0504 142.963 26.5552 143.468 25.7298L144.983 22.5933C144.983 22.4283 145.152 22.4283 145.32 22.2632L148.688 20.2823C149.867 19.9521 150.372 18.6315 149.698 17.4759Z" fill="#A7A9B2"/>
<path d="M68.7043 25.8994L69.883 25.5693C70.2198 25.4042 70.5566 25.0741 70.5566 24.7439V22.4328C70.5566 21.9376 70.2198 21.6074 69.7146 21.6074C69.3778 21.6074 68.8727 21.9376 68.8727 22.2677L68.7043 22.928C68.7043 23.2582 68.3675 23.5884 68.0307 23.5884H67.3572C66.852 23.5884 66.6836 24.0836 66.6836 24.4137V24.7439C66.6836 25.2391 67.0204 25.5693 67.3572 25.5693L68.3675 25.7344C68.3675 25.8994 68.5359 25.8994 68.7043 25.8994Z" fill="#A7A9B2"/>
<path d="M132.859 63.5335L132.354 62.8732C132.185 62.7081 131.848 62.543 131.68 62.543L129.154 63.0383C128.986 63.0383 128.817 63.2033 128.649 63.3684L127.133 65.1843C127.133 65.1843 126.965 65.3493 126.797 65.3493L125.618 65.8446C124.439 66.5049 123.766 67.6604 123.766 68.9811L123.934 71.4572C123.934 71.7874 124.271 72.1175 124.608 72.1175H126.965H129.491C129.659 72.1175 129.828 72.1175 129.996 72.2826L131.343 73.4381C131.512 73.4381 131.512 73.6032 131.68 73.6032L135.553 74.4286C135.89 74.4286 136.226 74.4286 136.395 74.0985L138.416 71.4572C138.584 71.2921 138.584 71.1271 138.584 70.962V67.8255C138.584 67.6604 138.584 67.6604 138.584 67.4954L136.395 62.543C136.395 62.3779 136.226 62.2129 136.058 62.2129C135.553 62.0478 134.879 62.3779 134.879 62.8732C134.879 63.3684 134.374 63.6986 133.869 63.6986L133.364 63.5335C133.027 63.8636 132.859 63.6986 132.859 63.5335Z" fill="#A7A9B2"/>
<path d="M137.407 32.3371L137.912 33.3275C138.08 33.6577 138.08 33.9879 137.912 34.1529L136.228 38.445C136.059 38.7751 136.059 39.1053 136.228 39.4354L136.733 40.2608C136.901 40.756 137.407 40.9211 137.912 40.9211C138.417 40.9211 138.754 40.756 139.09 40.2608L141.111 36.7942C141.28 36.6291 141.28 36.299 141.28 35.9688L140.438 32.0069C140.438 31.6768 140.101 31.1815 139.764 31.0165L139.09 30.6863C138.754 30.5212 138.249 30.5212 137.743 30.6863C137.407 31.1815 137.238 31.8419 137.407 32.3371Z" fill="#A7A9B2"/>
<path d="M141.111 72.1177L140.775 72.6129C140.775 72.6129 140.775 72.778 140.606 72.778L139.596 74.5938C139.596 74.7589 139.428 74.924 139.259 74.924L136.565 77.07C136.228 77.4001 136.06 77.8954 136.228 78.3906L136.397 78.7208C136.565 79.0509 136.902 79.3811 137.407 79.3811H138.754C139.259 79.3811 139.596 79.0509 139.764 78.7208L140.775 75.5843C140.775 75.4192 140.943 75.2541 141.111 75.089L142.627 73.9335C143.132 73.6034 143.132 72.943 142.795 72.4478L142.627 72.2827C142.29 71.6224 141.617 71.6224 141.111 72.1177Z" fill="#A7A9B2"/>
</svg>
