<svg width="92" height="102" viewBox="0 0 92 102" fill="none" xmlns="http://www.w3.org/2000/svg">
<g opacity="0.5">
<path d="M10.8767 57.8248C9.92575 54.3413 17.7887 50.7983 21.839 49.4622L24.7904 59.2943C19.2388 60.3411 12.0652 62.1791 10.8767 57.8248Z" fill="#E0DFEF"/>
<path opacity="0.3" d="M72.788 60.1456L72.3064 45.4172C71.9226 34.8894 64.5777 25.7798 54.2261 22.9761L54.263 22.9373C52.0401 22.3291 49.7376 22.0555 47.4323 22.1145L47.3555 22.1165L47.2786 22.1185C45.0416 22.1532 42.8247 22.5125 40.696 23.1718C39.9276 23.3956 39.1992 23.6562 38.4649 23.9699C37.2156 24.4932 35.9777 25.1145 34.8366 25.8544C34.498 26.052 34.1679 26.2722 33.8691 26.5066C33.5703 26.741 33.2403 26.9612 32.9415 27.1956C32.3439 27.6645 31.7549 28.1558 31.183 28.6921C30.8927 28.9489 30.6338 29.2202 30.3749 29.4914C29.5754 30.3132 28.8469 31.1861 28.1755 32.1407C27.9564 32.4486 27.7374 32.7567 27.5269 33.0871C24.955 37.0688 23.6468 41.721 23.8187 46.4563L24.6068 69.6735C24.7215 73.3067 25.6956 76.8875 27.441 80.1159C27.7057 80.608 27.9933 81.092 28.3037 81.5679C28.614 82.0437 28.9158 82.4971 29.2489 82.9648C29.4681 83.269 29.7101 83.5652 29.9436 83.839C30.2908 84.276 30.6837 84.6969 31.0452 85.1034C31.3015 85.369 31.5577 85.6346 31.8452 85.9144C32.3804 86.4374 32.9298 86.9298 33.5247 87.4059C34.0968 87.8901 34.706 88.3356 35.3293 88.7505C35.7876 89.0714 36.283 89.3535 36.7555 89.6438C37.4159 90.02 38.0762 90.3961 38.7565 90.6887C41.7395 92.0711 44.9841 92.8496 48.2884 92.9689L48.4193 92.9733C48.4761 92.6468 48.533 92.3202 48.6211 92.008C49.1501 90.1348 50.6694 88.4176 52.6218 88.1786C52.7669 88.1522 52.8978 88.1564 53.0515 88.1525C54.0818 88.1411 55.2146 88.3994 56.205 88.3513C56.9763 88.4071 57.7047 88.1465 58.2454 87.596C59.6709 86.04 57.8915 83.3341 58.9298 81.5084C58.9726 81.4166 59.0237 81.3471 59.0977 81.2696C59.0665 81.2553 59.0351 81.2411 58.9952 81.2043C59.9058 80.0622 61.7101 79.9781 63.2242 79.9468C64.8777 79.9422 66.8954 79.6032 67.4757 78.0689C67.8511 77.016 67.3442 75.8196 67.6798 74.7301C68.0638 73.4956 69.4554 72.8702 70.7531 72.6101L70.8299 72.6082C73.5649 72.727 75.531 70.2123 74.4148 67.7539C72.9284 64.4583 72.7938 60.909 72.788 60.1456Z" fill="url(#paint0_linear_17143_105640)"/>
<path d="M45.7898 89.1219C46.3532 87.2044 47.8806 85.4683 49.8939 85.2169C51.9072 84.9655 54.2964 86.0561 55.6338 84.6074C57.4412 82.6245 54.2341 78.8739 57.7586 77.2387C58.4958 76.9183 59.3162 76.7686 60.121 76.8251C61.8951 76.8789 64.5758 76.7152 65.2369 74.9083C65.6339 73.835 65.1179 72.6166 65.4596 71.545C65.8618 70.2874 67.2912 69.6263 68.612 69.3691L68.6837 69.3615C71.4675 69.4708 73.4993 66.8963 72.361 64.4248C70.8521 61.12 70.7461 57.5285 70.7319 56.7493L70.3112 41.7985C69.9045 28.466 58.5566 17.9278 44.9097 18.2499C31.2706 18.6422 20.5168 29.7408 20.8457 43.0649L21.4851 66.6006C21.8698 79.4304 32.424 89.744 45.557 90.136C45.6061 89.7719 45.6897 89.4499 45.7898 89.1219Z" fill="url(#paint1_linear_17143_105640)"/>
<path opacity="0.3" d="M36.2741 37.9254C37.6617 37.4253 38.3715 35.9202 37.8593 34.5635C37.3471 33.2069 35.807 32.5125 34.4193 33.0126C33.0317 33.5128 32.322 35.018 32.8341 36.3747C33.3463 37.7313 34.8864 38.4256 36.2741 37.9254Z" fill="black"/>
<path opacity="0.3" d="M52.3104 37.5072C53.698 37.007 54.4078 35.5019 53.8957 34.1453C53.3835 32.7887 51.8434 32.0943 50.4557 32.5944C49.068 33.0946 48.3583 34.5998 48.8705 35.9564C49.3827 37.313 50.9227 38.0073 52.3104 37.5072Z" fill="black"/>
<path d="M47.5965 47.1532C47.514 44.1705 45.7945 41.7957 43.7558 41.8488C41.7172 41.9019 40.1315 44.3629 40.214 47.3455C40.2965 50.3281 42.0159 52.703 44.0545 52.6499C46.0931 52.5968 47.679 50.1359 47.5965 47.1532Z" fill="#A8A5CE"/>
<path d="M73.542 16.8535C75.619 16.105 76.6813 13.8521 75.9147 11.8215C75.148 9.79093 72.8428 8.75171 70.7659 9.50027C68.689 10.2488 67.6268 12.5017 68.3934 14.5322C69.1599 16.5628 71.4651 17.6022 73.542 16.8535Z" fill="#EBEAF6"/>
<path opacity="0.7" d="M82.614 4.95746C83.6571 4.58155 84.1905 3.4502 83.8055 2.43042C83.4205 1.41065 82.2628 0.888653 81.2199 1.26456C80.1768 1.64047 79.6434 2.77194 80.0284 3.79171C80.4134 4.81148 81.5711 5.33337 82.614 4.95746Z" fill="#EBEAF6"/>
<path opacity="0.5" d="M61.4566 46.2637C56.7946 47.6627 47.7044 51.2756 48.6389 54.5343C49.807 58.6077 58.0414 56.629 64.3983 55.4524" stroke="url(#paint2_linear_17143_105640)" stroke-linecap="round" stroke-linejoin="round"/>
</g>
<defs>
<linearGradient id="paint0_linear_17143_105640" x1="50.5186" y1="94.7116" x2="49.0515" y2="23.7582" gradientUnits="userSpaceOnUse">
<stop stop-color="#808080" stop-opacity="0.35"/>
<stop offset="0.54" stop-color="#808080" stop-opacity="0.22"/>
<stop offset="1" stop-color="#808080" stop-opacity="0.2"/>
</linearGradient>
<linearGradient id="paint1_linear_17143_105640" x1="34.251" y1="18.2243" x2="59.8801" y2="85.2239" gradientUnits="userSpaceOnUse">
<stop stop-color="#EBEAF6"/>
<stop offset="1" stop-color="#DFDEEF"/>
</linearGradient>
<linearGradient id="paint2_linear_17143_105640" x1="47.2439" y1="55.2364" x2="59.9448" y2="49.6109" gradientUnits="userSpaceOnUse">
<stop stop-color="#A8A5CE"/>
<stop offset="1" stop-color="#A8A5CE" stop-opacity="0"/>
</linearGradient>
</defs>
</svg>
