<svg width="95" height="94" viewBox="0 0 95 94" fill="none" xmlns="http://www.w3.org/2000/svg">
<g opacity="0.7">
<path d="M47.0158 93.9982C72.9638 93.9982 93.9985 72.9551 93.9985 46.9996C93.9985 21.0441 72.9638 0.000976562 47.0158 0.000976562C21.0678 0.000976562 0.0330811 21.0441 0.0330811 46.9996C0.0330811 72.9585 21.0678 93.9982 47.0158 93.9982Z" fill="#BEBCDB"/>
<path d="M61.4438 2.28945C36.752 -5.69113 10.269 7.85958 2.2879 32.5607C-1.24723 43.5009 -0.553076 54.7904 3.45611 64.6695C3.68299 64.7237 3.90986 64.7678 4.14012 64.7881C6.37836 65.0051 8.53872 64.0253 10.5738 63.0693C12.9305 61.9607 15.2907 60.8521 17.6508 59.7469C18.7919 59.2112 19.9703 58.6654 21.2266 58.6145C22.2831 58.5739 23.3192 58.8824 24.3317 59.1977C28.1546 60.3842 32.0318 61.6725 36.0342 61.642C43.7681 61.5844 51.1465 56.0142 53.317 48.5863C54.4446 44.7248 54.2652 40.6091 54.9593 36.6493C55.6569 32.6895 57.5836 28.5365 61.2914 26.977C64.1899 25.7599 68.0264 26.1464 69.9023 23.6241C71.4126 21.5934 70.759 18.6676 69.5333 16.4504C68.3075 14.2366 66.5636 12.2533 65.9033 9.80896C65.4123 7.99519 65.8424 5.76782 67.1088 4.53039C65.2938 3.67266 63.4043 2.92342 61.4438 2.28945Z" fill="#E0DEEF"/>
<path d="M91.13 63.147C93.8694 55.658 94.5839 47.9215 93.5545 40.541C91.2926 41.392 89.1932 42.9006 87.6457 44.7415C84.29 48.7284 82.7832 53.8985 80.8971 58.7601C79.011 63.6182 76.3935 68.5951 71.8087 71.0733C67.1561 73.5889 61.3151 73.0566 56.6591 75.562C52.9344 77.5656 50.4625 81.2338 47.696 84.4342C44.7839 87.8074 41.1608 90.7535 37.1854 92.9538C59.7304 97.8052 82.9796 85.4275 91.13 63.147Z" fill="#A8A5CE"/>
<path d="M2.2879 32.5057C1.82738 33.8686 1.47184 35.2518 1.1637 36.6248C5.81964 35.0891 10.479 33.5499 15.1383 32.0141C18.1892 31.0073 21.2774 29.9834 23.9592 28.2205C26.6444 26.4576 28.9199 23.8403 29.5666 20.6942C30.3658 16.8124 28.7032 12.3678 30.8432 9.03525C32.0995 7.08248 34.3614 6.06203 36.1154 4.54321C37.1685 3.62785 38.0388 2.27175 38.2555 0.932617C21.9546 4.16689 7.97661 15.619 2.2879 32.5057Z" fill="#EBEAF6"/>
<g opacity="0.26">
<path opacity="0.26" d="M57.1129 30.4216C61.9111 30.4216 65.8017 27.3704 65.8017 23.6039C65.8017 19.8373 61.9111 16.7861 57.1129 16.7861C52.3148 16.7861 48.4241 19.8373 48.4241 23.6039C48.4241 27.3704 52.3114 30.4216 57.1129 30.4216Z" fill="#C5C3DF"/>
</g>
<path d="M57.1096 29.6483C61.515 29.6483 65.0873 26.892 65.0873 23.495C65.0873 20.0947 61.515 17.3418 57.1096 17.3418C52.7042 17.3418 49.1318 20.098 49.1318 23.495C49.1352 26.892 52.7042 29.6483 57.1096 29.6483Z" fill="#C5C3DF"/>
<path d="M57.1096 18.508C61.261 18.508 64.6708 20.9558 65.0501 24.0782C65.0738 23.8883 65.0873 23.6917 65.0873 23.495C65.0873 20.0947 61.5183 17.3418 57.1096 17.3418C52.7042 17.3418 49.1318 20.098 49.1318 23.495C49.1318 23.6917 49.1454 23.8849 49.1691 24.0782C49.5517 20.9524 52.9616 18.508 57.1096 18.508Z" fill="#AFACD2"/>
<g opacity="0.26">
<path opacity="0.26" d="M50.5505 86.6006C50.6589 85.2988 47.4386 83.9664 43.3617 83.6308C39.2848 83.2918 35.8919 84.0749 35.7835 85.3767C35.6752 86.6786 38.8954 88.0109 42.9723 88.3466C47.0492 88.6822 50.4421 87.9025 50.5505 86.6006Z" fill="#C5C3DF"/>
</g>
<path d="M49.9343 86.7027C50.0257 85.5839 47.0662 84.4278 43.3211 84.1193C39.5761 83.8108 36.4676 84.4651 36.3728 85.5805C36.2814 86.6993 39.2408 87.8553 42.9859 88.1638C46.731 88.4724 49.8429 87.818 49.9343 86.7027Z" fill="#928FB9"/>
<path d="M43.0264 87.5569C39.4981 87.2654 36.6504 86.4381 36.4099 85.3838C36.3862 85.4448 36.3693 85.5092 36.3625 85.5736C36.2711 86.6924 39.2306 87.8485 42.9757 88.157C46.7207 88.4655 49.8292 87.8112 49.9206 86.6958C49.9274 86.6314 49.9206 86.567 49.9037 86.4992C49.5007 87.5027 46.5548 87.8485 43.0264 87.5569Z" fill="#A8A5CE"/>
<g opacity="0.26">
<path opacity="0.26" d="M43.2671 50.1825C46.1385 43.2766 43.3212 35.5334 36.979 32.889C30.6334 30.2446 23.1635 33.6992 20.2921 40.6051C17.4206 47.511 20.2379 55.2542 26.5802 57.8986C32.9258 60.543 40.3956 57.0884 43.2671 50.1825Z" fill="#C5C3DF"/>
</g>
<path d="M42.407 49.5932C45.0989 43.128 42.5593 35.917 36.7352 33.493C30.911 31.0656 24.0067 34.344 21.3147 40.8091C18.6227 47.2743 21.1623 54.4853 26.9865 56.9093C32.814 59.3367 39.715 56.0617 42.407 49.5932Z" fill="#C5C3DF"/>
<path d="M36.3998 35.3339C41.8854 37.6189 43.89 44.5214 41.9192 50.678C42.1021 50.3254 42.2714 49.9627 42.4306 49.5897C45.1225 43.1246 42.5829 35.9136 36.7588 33.4862C30.9346 31.0588 24.0303 34.3371 21.3383 40.8023C21.1825 41.1786 21.0471 41.5549 20.9252 41.9346C23.9016 36.195 30.9109 33.0489 36.3998 35.3339Z" fill="#AFACD2"/>
<path d="M20.8982 22.3907C23.0991 19.6717 23.5393 16.3798 21.8835 15.0339C20.2277 13.688 17.0989 14.8034 14.8979 17.5189C12.6969 20.2379 12.2567 23.5298 13.9125 24.8757C15.5718 26.2216 18.6972 25.1062 20.8982 22.3907Z" fill="#E0DEEF"/>
<path d="M20.7225 22.1051C22.7846 19.559 23.2248 16.4977 21.7011 15.2636C20.1807 14.0296 17.2754 15.0907 15.2132 17.6368C13.1511 20.1828 12.7109 23.2442 14.2346 24.4782C15.755 25.7089 18.6569 24.6478 20.7225 22.1051Z" fill="#E0DEEF"/>
<path d="M21.247 16.0163C22.6794 17.1792 22.1173 20.0947 20.3531 22.5391C20.4784 22.4001 20.6003 22.2611 20.7188 22.1119C22.781 19.5659 23.2212 16.5045 21.6974 15.2705C20.1736 14.0364 17.2683 15.0976 15.2096 17.6436C15.091 17.7894 14.9759 17.9386 14.8676 18.0911C16.8959 15.8604 19.8113 14.8535 21.247 16.0163Z" fill="#C5C3DF"/>
<g opacity="0.26">
<path opacity="0.26" d="M82.4953 27.8853C83.8532 27.2174 84.0225 24.7765 82.8746 22.4304C81.7267 20.0844 79.695 18.7215 78.3372 19.386C76.9793 20.0505 76.81 22.4949 77.9579 24.8409C79.1058 27.1903 81.1375 28.5532 82.4953 27.8853Z" fill="#C5C3DF"/>
</g>
<path d="M82.3464 28.4904C83.5925 27.8802 83.7313 25.602 82.6545 23.4051C81.5777 21.2082 79.6951 19.9234 78.4456 20.5336C77.1995 21.1438 77.0606 23.4221 78.1374 25.6189C79.2142 27.8158 81.0969 29.1041 82.3464 28.4904Z" fill="#E0DEEF"/>
<path d="M78.6419 21.1607C77.4669 21.737 77.4364 23.9305 78.3202 26.0053C78.2525 25.8832 78.1881 25.7612 78.1238 25.6357C77.047 23.4389 77.1858 21.1606 78.4353 20.5504C79.6814 19.9368 81.5675 21.2251 82.6443 23.4219C82.7086 23.5507 82.7662 23.6762 82.817 23.805C81.7165 21.8319 79.8169 20.5843 78.6419 21.1607Z" fill="#A8A5CE"/>
<path opacity="0.5" d="M46.5378 69.8909C65.8131 69.8909 81.4412 54.2468 81.4412 34.9455C81.4412 15.6475 65.8164 0 46.5378 0C27.2626 0 11.6344 15.6441 11.6344 34.9455C11.6344 54.2468 27.2626 69.8909 46.5378 69.8909Z" fill="url(#paint0_linear)"/>
<path opacity="0.08" d="M47.0226 68.92C49.4307 68.92 51.3855 67.1819 51.3855 65.0371C51.3855 62.8923 49.4341 61.1543 47.0226 61.1543C44.6145 61.1543 42.6597 62.8923 42.6597 65.0371C42.6597 67.1819 44.6145 68.92 47.0226 68.92Z" fill="black"/>
</g>
<defs>
<linearGradient id="paint0_linear" x1="46.4712" y1="69.8901" x2="46.6041" y2="0.002219" gradientUnits="userSpaceOnUse">
<stop stop-color="#808080" stop-opacity="0.25"/>
<stop offset="0.54" stop-color="#808080" stop-opacity="0.12"/>
<stop offset="1" stop-color="#808080" stop-opacity="0.1"/>
</linearGradient>
</defs>
</svg>
