<svg width="97" height="96" viewBox="0 0 97 96" fill="none" xmlns="http://www.w3.org/2000/svg">
<g clip-path="url(#clip0_19645_288290)">
<path d="M84.3086 28.9633C84.3154 28.9566 84.3221 28.9499 84.3293 28.9428C91.1434 22.1694 91.1468 11.1904 84.3361 4.42045L84.3154 4.3999L71.9568 16.6846L84.3086 28.9633Z" fill="#EBE9F3"/>
<path d="M69.6805 16.7519L69.7235 16.6533L54.1704 16.6555L54.1704 16.6815C54.1689 21.0134 55.9635 24.9281 58.8553 27.7306C64.924 33.665 74.6867 33.6321 80.721 27.6339L80.7392 27.6158L69.7452 16.6876L69.6805 16.7519Z" fill="#F6F5FC"/>
<path d="M80.7343 5.69805L80.7524 5.71608L69.7521 16.6498L55.2804 22.3454C53.0689 16.7984 54.2251 10.2284 58.7411 5.73942L58.7585 5.72216L58.7766 5.70407C64.8415 -0.324576 74.6723 -0.327692 80.7343 5.69805Z" fill="#F1F1F7"/>
<path fill-rule="evenodd" clip-rule="evenodd" d="M37.4345 4.97799L38.0168 3.63871C38.1493 3.33406 38.4976 3.18703 38.8083 3.3046L40.949 4.11464C41.2564 4.23097 41.4205 4.56618 41.3237 4.88031L40.9153 6.20679C41.1153 6.38034 41.3026 6.57043 41.4751 6.77592C41.6279 6.958 41.767 7.14986 41.8918 7.34988L43.3558 7.20706C43.683 7.17515 43.9785 7.40295 44.031 7.72739L44.3964 9.98623C44.4495 10.3143 44.2356 10.6262 43.9105 10.6949L42.5619 10.98C42.4718 11.4373 42.3175 11.8817 42.1016 12.2994C42.0868 12.328 42.0718 12.3564 42.0565 12.3847L42.9111 13.5905C43.1024 13.8604 43.0493 14.2327 42.7903 14.4383L41.0156 15.8472C40.7567 16.0527 40.3824 16.0202 40.1629 15.773L39.2364 14.73C38.7612 14.8838 38.2642 14.9653 37.7621 14.9709L37.144 16.2939C37.0034 16.5948 36.6513 16.7324 36.3439 16.6066L34.2249 15.7395C33.9206 15.615 33.7656 15.2753 33.8708 14.9638L34.3148 13.6498C33.9421 13.3086 33.6236 12.9144 33.3691 12.4814L31.901 12.5847C31.5732 12.6078 31.2839 12.3721 31.2401 12.0464L30.9355 9.77908C30.8913 9.44972 31.1135 9.14365 31.4403 9.08369L32.7956 8.83504C32.8168 8.74079 32.8408 8.64702 32.8675 8.55385C32.9547 8.2503 33.0702 7.95747 33.2115 7.67885L32.3253 6.49634C32.127 6.23177 32.17 5.85836 32.4233 5.64584L34.1591 4.18941C34.4124 3.97689 34.7876 3.99937 35.0137 4.24061L35.9676 5.25831C36.4372 5.09219 36.9316 4.99705 37.4345 4.97799ZM39.7037 12.4026C39.2272 12.8023 38.6419 13.0506 38.0218 13.1159C37.4016 13.1813 36.7745 13.0609 36.2197 12.7699C35.6649 12.4789 35.2074 12.0305 34.905 11.4812C34.6025 10.9319 34.4687 10.3065 34.5206 9.68409C34.5724 9.06165 34.8075 8.47011 35.1961 7.98428C35.5847 7.49844 36.1095 7.14013 36.7039 6.95464C37.2984 6.76916 37.9359 6.76483 38.5358 6.94221C39.1357 7.11958 39.6712 7.47069 40.0744 7.95115C40.3422 8.27023 40.545 8.63848 40.6713 9.03489C40.7976 9.4313 40.8449 9.8481 40.8105 10.2615C40.7761 10.6749 40.6606 11.0767 40.4707 11.4441C40.2808 11.8115 40.0202 12.1372 39.7037 12.4026Z" fill="#F4F4FB"/>
<path d="M82.4168 73.8084C82.7881 74.4926 83.21 75.1328 83.6909 75.7229C88.5185 81.6605 77.4266 84.679 65.091 85.3151V89.5575C65.091 93.1532 62.4162 96.068 59.1166 96.068C55.817 96.068 53.1422 93.1532 53.1422 89.5575V85.2587C52.6191 85.2218 52.1139 85.1801 51.6294 85.1337C50.6254 85.0377 49.6274 85.0311 48.623 85.1225C47.3178 85.2411 45.8998 85.3304 44.4076 85.3877V89.5575C44.4076 93.1532 41.7327 96.068 38.4332 96.068C35.1336 96.068 32.4588 93.1532 32.4588 89.5575V85.1827C20.9083 84.3477 8.87983 81.3167 13.4382 75.7229C14.1216 74.8844 14.6857 73.9446 15.1551 72.9213C11.198 67.3618 7.31319 56.8074 14.8568 45.9163C15.9587 44.3254 17.9433 43.7099 19.695 44.2723C20.474 41.5603 21.606 39.0407 23.3098 36.8724C25.6952 33.9467 28.7864 31.6648 32.2976 30.2375C31.7762 29.1388 31.0359 28.1561 30.1212 27.3485C26.2384 24.0496 31.7852 22.95 35.6728 25.6991C36.0791 25.9939 36.4388 26.3473 36.7398 26.7474C36.7051 25.9814 36.5627 25.2239 36.3168 24.4969C34.6574 19.7023 40.0068 21.5335 41.9577 25.8529C42.1971 26.3991 42.3387 26.9825 42.376 27.5769C44.3802 27.3125 46.3993 27.1739 48.4212 27.1622H48.7173C53.2065 27.1715 66.8199 27.9589 73.8193 36.8724C75.7703 39.3553 76.9715 42.2986 77.7515 45.4642C79.4754 44.9624 81.3997 45.585 82.4783 47.1422C89.8713 57.816 86.2876 68.1663 82.4168 73.8084Z" fill="url(#paint0_linear_19645_288290)"/>
<path d="M36.988 47.5689L37.2209 47.6764C40.8855 49.3692 44.8831 50.2362 48.9261 50.2152C52.822 50.195 56.6669 49.3507 60.2043 47.7407C62.2741 45.201 65.4417 43.5768 68.9919 43.5767C75.228 43.5767 80.2838 48.5876 80.2838 54.769C80.2838 60.9503 75.2285 65.9613 68.9923 65.9613C66.0608 65.9612 63.3897 64.8537 61.3826 63.0379L57.8553 61.6827C52.1165 59.4816 45.7611 59.4521 40.0018 61.5996L35.8147 63.1605C33.8238 64.9036 31.2079 65.9613 28.3428 65.9613C22.1066 65.9613 17.0513 60.9503 17.0513 54.769C17.0513 48.5899 22.103 43.5803 28.336 43.5767H28.3428C31.8125 43.5767 34.9167 45.1279 36.988 47.5689Z" fill="url(#paint1_linear_19645_288290)"/>
<path d="M28.6653 63.4045C33.2979 63.4045 37.0533 59.682 37.0533 55.0902C37.0533 50.4983 33.2979 46.7759 28.6653 46.7759C24.0328 46.7759 20.2773 50.4983 20.2773 55.0902C20.2773 59.682 24.0328 63.4045 28.6653 63.4045Z" fill="white"/>
<path d="M69.3152 63.4045C73.9478 63.4045 77.7032 59.682 77.7032 55.0902C77.7032 50.4983 73.9478 46.7759 69.3152 46.7759C64.6827 46.7759 60.9272 50.4983 60.9272 55.0902C60.9272 59.682 64.6827 63.4045 69.3152 63.4045Z" fill="white"/>
<path d="M29.6276 63.3466C28.2395 63.5308 26.827 63.343 25.5369 62.8029L32.2924 47.5942C34.8927 48.8542 35.667 50.5169 35.667 50.5169L31.5519 59.2588C31.3784 59.1729 31.1828 59.1245 30.9757 59.1245C30.263 59.1245 29.6853 59.6972 29.6853 60.4036C29.6853 60.9286 30.0043 61.3797 30.4607 61.5768L29.6276 63.3466Z" fill="#B3DCE2"/>
<path d="M29.6276 63.3466C28.2395 63.5308 26.827 63.343 25.5369 62.8029L32.2924 47.5942C34.8927 48.8542 35.667 50.5169 35.667 50.5169L31.5519 59.2588C31.3784 59.1729 31.1828 59.1245 30.9757 59.1245C30.263 59.1245 29.6853 59.6972 29.6853 60.4036C29.6853 60.9286 30.0043 61.3797 30.4607 61.5768L29.6276 63.3466Z" fill="url(#paint2_linear_19645_288290)"/>
<path d="M70.2768 63.3466C68.8887 63.5308 67.4762 63.343 66.186 62.8029L72.9416 47.5942C75.5418 48.8542 76.3161 50.5169 76.3161 50.5169L72.201 59.2588C72.0276 59.1729 71.8319 59.1245 71.6249 59.1245C70.9122 59.1245 70.3344 59.6972 70.3344 60.4036C70.3344 60.9286 70.6535 61.3797 71.1098 61.5768L70.2768 63.3466Z" fill="#B3DCE2"/>
<path d="M70.2768 63.3466C68.8887 63.5308 67.4762 63.343 66.186 62.8029L72.9416 47.5942C75.5418 48.8542 76.3161 50.5169 76.3161 50.5169L72.201 59.2588C72.0276 59.1729 71.8319 59.1245 71.6249 59.1245C70.9122 59.1245 70.3344 59.6972 70.3344 60.4036C70.3344 60.9286 70.6535 61.3797 71.1098 61.5768L70.2768 63.3466Z" fill="url(#paint3_linear_19645_288290)"/>
<path d="M15.5124 26.6383L10.9007 28.2516C10.8246 28.2766 10.774 28.3392 10.7486 28.4142L9.40564 33.0916C9.3423 33.3167 9.02556 33.3292 8.94954 33.1041L7.3405 28.5017C7.31516 28.4267 7.25182 28.3642 7.1758 28.3517L2.48805 27.0135C2.26 26.9509 2.24733 26.6258 2.47538 26.5507L7.08711 24.9374C7.16313 24.9124 7.21381 24.8499 7.23915 24.7748L8.58212 20.0849C8.64547 19.8598 8.96221 19.8473 9.03823 20.0724L10.6473 24.6748C10.6726 24.7498 10.736 24.8123 10.812 24.8248L15.4997 26.163C15.7151 26.2381 15.7278 26.5507 15.5124 26.6383Z" fill="#DCDBEB"/>
<path d="M95.2015 39.3464L92.2587 40.376C92.2102 40.3919 92.1778 40.4318 92.1617 40.4797L91.3047 43.4645C91.2642 43.6082 91.0621 43.6161 91.0136 43.4725L89.9869 40.5356C89.9707 40.4877 89.9303 40.4478 89.8817 40.4398L86.8904 39.5859C86.7448 39.546 86.7368 39.3385 86.8823 39.2906L89.8252 38.2611C89.8737 38.2451 89.906 38.2052 89.9222 38.1573L90.7792 35.1645C90.8196 35.0209 91.0217 35.0129 91.0702 35.1566L92.097 38.0935C92.1132 38.1414 92.1536 38.1813 92.2021 38.1892L95.1935 39.0432C95.3309 39.0911 95.339 39.2906 95.2015 39.3464Z" fill="#EDEDF5"/>
</g>
<defs>
<linearGradient id="paint0_linear_19645_288290" x1="27.1005" y1="27.9272" x2="69.4089" y2="91.3424" gradientUnits="userSpaceOnUse">
<stop stop-color="#E0DFEC"/>
<stop offset="1" stop-color="#CCC9E4"/>
</linearGradient>
<linearGradient id="paint1_linear_19645_288290" x1="21.6392" y1="46.3374" x2="28.3619" y2="69.9753" gradientUnits="userSpaceOnUse">
<stop stop-color="#CBC9E1"/>
<stop offset="1" stop-color="#A7A3CB"/>
</linearGradient>
<linearGradient id="paint2_linear_19645_288290" x1="30.6019" y1="47.5942" x2="30.6019" y2="63.4153" gradientUnits="userSpaceOnUse">
<stop stop-color="#EEEDF9"/>
<stop offset="1" stop-color="#DCDBEB"/>
</linearGradient>
<linearGradient id="paint3_linear_19645_288290" x1="71.2511" y1="47.5942" x2="71.2511" y2="63.4153" gradientUnits="userSpaceOnUse">
<stop stop-color="#EEEDF9"/>
<stop offset="1" stop-color="#DCDBEB"/>
</linearGradient>
<clipPath id="clip0_19645_288290">
<rect width="96" height="96" fill="white" transform="translate(0.667725)"/>
</clipPath>
</defs>
</svg>
