<svg width="16" height="16" viewBox="0 0 16 16" fill="none" xmlns="http://www.w3.org/2000/svg">
<path d="M8.00309 1.2002C3.8606 1.2002 0.5 4.56805 0.5 8.71982C0.5 11.1537 1.56902 13.4263 3.35861 14.8002C4.35808 13.3558 6.11642 12.2981 8.00309 12.2981C9.88975 12.2981 11.6419 13.3558 12.6414 14.8002C14.431 13.4263 15.5 11.1537 15.5 8.71982C15.5 4.56805 12.1456 1.2002 8.00309 1.2002ZM11.7546 4.48799C11.767 4.48737 11.7795 4.48737 11.7919 4.48799C11.8728 4.4871 11.9521 4.51259 12.019 4.56105C12.086 4.6095 12.1374 4.6786 12.1665 4.75907C12.1955 4.83954 12.2007 4.92752 12.1814 5.01123C12.1621 5.09494 12.1192 5.17038 12.0585 5.22741L9.4107 7.88136C9.4028 7.89055 9.39453 7.89936 9.3859 7.90777C9.5242 8.14571 9.60913 8.42462 9.60913 8.71982C9.60913 9.60949 8.8908 10.3307 8.00309 10.3307C7.11541 10.3307 6.39085 9.60949 6.39085 8.71982C6.39085 7.83015 7.11541 7.10895 8.00309 7.10895C8.30214 7.10895 8.57561 7.19087 8.81541 7.33341C8.82984 7.3097 8.84645 7.28758 8.86502 7.26739L11.519 4.6068C11.5828 4.54007 11.6658 4.49821 11.7546 4.48799Z" fill="#6B6E7B"/>
</svg>
