<svg width="16" height="16" viewBox="0 0 16 16" fill="none" xmlns="http://www.w3.org/2000/svg">
<path d="M8.68353 1.96032C8.64552 1.81008 8.60763 1.65983 8.56962 1.52844C8.43665 1.07771 8.36076 0.777349 8.36076 0.777349C8.32274 0.664695 8.22778 0.552042 8.09494 0.51445C7.88607 0.458123 7.67722 0.570777 7.63921 0.777349C7.63921 0.777349 7.56332 1.07784 7.43034 1.52844C7.39233 1.65996 7.35445 1.81007 7.31644 1.96032C3.51898 2.26082 0.436708 4.77717 0 8.3264C0.208999 8.25134 0.512691 8.19501 0.873484 8.19501C2.10759 8.19501 2.89243 8.73953 3.82284 9.64103C4.90519 9.04003 6.40512 8.87105 7.3355 8.81472V13.3968C7.3355 14.561 8.28486 15.5 9.46204 15.5C10.6392 15.5 11.5886 14.561 11.5886 13.3968V13.0776C11.5886 12.9086 11.3987 12.7583 11.1709 12.7583H10.7531C10.5253 12.7583 10.3354 12.9086 10.3354 13.0776V13.3968C10.3354 13.8663 9.95571 14.2418 9.48103 14.2418C9.00634 14.2418 8.62663 13.8663 8.62663 13.3968V8.81472C9.55704 8.87104 11.057 9.04002 12.1393 9.64103C13.0697 8.73967 13.8544 8.19501 15.0886 8.19501C15.4494 8.19501 15.7533 8.23261 16 8.32653C15.5633 4.7773 12.462 2.26079 8.68353 1.96032Z" fill="#6B6E7B"/>
</svg>
