<svg width="57" height="58" viewBox="0 0 57 58" fill="none" xmlns="http://www.w3.org/2000/svg">
<g opacity="0.7">
<path d="M32.6659 56.5863L27.5696 52.2329C24.4928 49.6019 20.3182 48.6526 16.4146 49.6968L9.93576 51.4192C5.27317 52.6669 1.20694 48.0152 3.05029 43.5533L5.62559 37.3555C7.17075 33.6124 6.79122 29.354 4.59547 25.95L0.949434 20.3218C-1.68005 16.2668 1.49161 10.9641 6.30329 11.3438L12.9854 11.8728C17.0245 12.1983 20.9552 10.503 23.5033 7.37021L27.7322 2.16245C30.7819 -1.59419 36.7999 -0.224454 37.9249 4.48152L39.4835 11.0048C40.4187 14.9377 43.238 18.1655 47.0195 19.6166L53.268 22.0306C57.768 23.7665 58.3372 29.9236 54.2167 32.4461L48.497 35.9451C45.0407 38.0608 42.8585 41.736 42.6416 45.7775L42.2756 52.4771C42.0181 57.3051 36.339 59.7327 32.6659 56.5863Z" fill="url(#paint0_linear)"/>
<path opacity="0.3" d="M17.6887 24.5394C19.0441 24.363 20.0064 23.1289 19.8302 21.7727C19.654 20.4165 18.4206 19.4537 17.0652 19.63C15.7098 19.8063 14.7474 21.0404 14.9236 22.3965C15.0863 23.7527 16.3333 24.7021 17.6887 24.5394Z" fill="black"/>
<path d="M23.2324 32.0257C25.6721 32.2969 27.4883 29.9507 26.6209 27.6588C26.2142 26.5738 25.1842 25.7736 24.0321 25.6516C21.5788 25.3804 19.7625 27.7266 20.63 30.0321C21.0637 31.1035 22.0938 31.9036 23.2324 32.0257Z" fill="#A8A5CE"/>
<path opacity="0.3" d="M32.1914 27.482C33.5468 27.3057 34.5092 26.0716 34.333 24.7154C34.1568 23.3592 32.9234 22.3963 31.568 22.5726C30.2126 22.7489 29.2502 23.983 29.4265 25.3392C29.6027 26.6954 30.8496 27.6447 32.1914 27.482Z" fill="black"/>
</g>
<defs>
<linearGradient id="paint0_linear" x1="34.2968" y1="-1.93333" x2="18.3389" y2="55.0952" gradientUnits="userSpaceOnUse">
<stop stop-color="#EBEAF6"/>
<stop offset="1" stop-color="#DFDEEF"/>
</linearGradient>
</defs>
</svg>
