<svg width="160" height="203" viewBox="0 0 160 203" fill="none" xmlns="http://www.w3.org/2000/svg">
<g opacity="0.8">
<path opacity="0.8" d="M103.439 4.95838C117.604 7.71449 127.292 18.8614 125.062 29.8401C122.833 40.8188 109.543 47.4861 95.3798 44.719C81.2148 41.9629 71.5272 30.816 73.7565 19.8373C75.9857 8.85866 89.2741 2.20227 103.439 4.95838Z" fill="url(#paint0_linear)"/>
</g>
<path d="M124.561 29.8103C126.704 19.1142 117.18 8.21892 103.29 5.47494C89.3992 2.73095 76.4021 9.1774 74.2597 19.8735C72.1173 30.5696 81.6409 41.465 95.5312 44.209C109.422 46.9529 122.419 40.5065 124.561 29.8103Z" fill="#8C81D1"/>
<path opacity="0.1" d="M77.8877 22.8261C80.0312 12.1325 93.03 5.68467 106.912 8.43385C111.225 9.26601 115.329 10.9768 118.933 13.4864C115.101 9.64957 109.688 6.70652 103.358 5.44584C89.4628 2.70544 76.4662 9.14234 74.3337 19.8381C72.8989 27.0153 76.7223 34.2899 83.5897 39.1179C79.0156 34.5342 76.7217 28.6483 77.8877 22.8261Z" fill="white"/>
<g opacity="0.24">
<path d="M97.8895 32.6292L114.478 113.728L128.623 203L65.3523 190.531L0.0436329 177.624L49.1694 103.05L97.8895 32.6292Z" fill="#A8A5CE"/>
<path d="M97.8895 32.6292L114.478 113.728L128.623 203L65.3523 190.531L0.0436329 177.624L49.1694 103.05L97.8895 32.6292Z" fill="url(#paint1_linear)"/>
</g>
<path opacity="0.3" d="M90.4039 142.845L90.0956 133.259C89.8498 126.408 85.1468 120.479 78.5185 118.654L78.5422 118.629C77.1188 118.233 75.6445 118.055 74.1684 118.093L74.1192 118.095L74.07 118.096C72.6376 118.119 71.2181 118.352 69.8551 118.781C69.3631 118.927 68.8966 119.097 68.4265 119.301C67.6266 119.641 66.8339 120.046 66.1033 120.527C65.8864 120.656 65.6751 120.799 65.4837 120.952C65.2924 121.104 65.0811 121.248 64.8898 121.4C64.5072 121.705 64.13 122.025 63.7638 122.374C63.5779 122.541 63.4122 122.718 63.2464 122.894C62.7344 123.429 62.268 123.997 61.8381 124.619C61.6978 124.819 61.5575 125.02 61.4227 125.235C59.7759 127.826 58.9383 130.854 59.0484 133.936L59.553 149.046C59.6264 151.411 60.2502 153.741 61.3677 155.842C61.5373 156.162 61.7214 156.477 61.9201 156.787C62.1188 157.097 62.3121 157.392 62.5254 157.696C62.6657 157.894 62.8207 158.087 62.9702 158.265C63.1926 158.55 63.4441 158.824 63.6756 159.088C63.8396 159.261 64.0037 159.434 64.1878 159.616C64.5305 159.956 64.8823 160.277 65.2632 160.587C65.6296 160.902 66.0196 161.192 66.4187 161.462C66.7122 161.671 67.0294 161.854 67.3319 162.043C67.7548 162.288 68.1776 162.533 68.6132 162.723C70.5232 163.623 72.6008 164.13 74.7166 164.207L74.8004 164.21C74.8368 163.998 74.8732 163.785 74.9296 163.582C75.2683 162.363 76.2412 161.245 77.4913 161.09C77.5842 161.072 77.668 161.075 77.7664 161.073C78.4261 161.065 79.1515 161.233 79.7856 161.202C80.2795 161.238 80.746 161.069 81.0921 160.71C82.0049 159.698 80.8655 157.937 81.5304 156.748C81.5577 156.689 81.5905 156.643 81.6379 156.593C81.6179 156.584 81.5978 156.574 81.5723 156.551C82.1553 155.807 83.3106 155.752 84.2801 155.732C85.3389 155.729 86.6309 155.508 87.0024 154.51C87.2428 153.825 86.9183 153.046 87.1331 152.337C87.379 151.533 88.27 151.126 89.1009 150.957L89.1502 150.956C90.9014 151.033 92.1603 149.397 91.4456 147.797C90.4938 145.652 90.4077 143.342 90.4039 142.845Z" fill="url(#paint2_linear)"/>
<path d="M73.1167 161.704C73.4774 160.456 74.4555 159.326 75.7446 159.163C77.0337 158.999 78.5636 159.709 79.42 158.766C80.5772 157.476 78.5237 155.034 80.7805 153.97C81.2525 153.762 81.7778 153.664 82.2932 153.701C83.4291 153.736 85.1456 153.63 85.5689 152.454C85.8231 151.755 85.4927 150.962 85.7115 150.265C85.969 149.446 86.8843 149.016 87.73 148.849L87.776 148.844C89.5585 148.915 90.8594 147.239 90.1305 145.631C89.1644 143.48 89.0966 141.142 89.0874 140.635L88.818 130.905C88.5576 122.228 81.2914 115.369 72.5532 115.579C63.8199 115.834 56.9341 123.057 57.1447 131.729L57.5541 147.047C57.8005 155.397 64.5585 162.109 72.9677 162.364C72.9991 162.127 73.0526 161.918 73.1167 161.704Z" fill="white"/>
<path opacity="0.3" d="M67.0237 128.383C67.9123 128.058 68.3667 127.078 68.0387 126.195C67.7108 125.312 66.7246 124.86 65.8361 125.186C64.9476 125.511 64.4932 126.491 64.8211 127.374C65.1491 128.257 66.1352 128.709 67.0237 128.383Z" fill="black"/>
<path opacity="0.3" d="M77.2919 128.112C78.1804 127.786 78.6349 126.806 78.3069 125.924C77.979 125.041 76.9928 124.589 76.1043 124.914C75.2158 125.24 74.7613 126.219 75.0893 127.102C75.4172 127.985 76.4034 128.437 77.2919 128.112Z" fill="black"/>
<path d="M74.2736 134.389C74.2207 132.448 73.1197 130.902 71.8143 130.937C70.509 130.972 69.4936 132.573 69.5465 134.514C69.5993 136.456 70.7002 138.001 72.0056 137.967C73.3109 137.932 74.3264 136.33 74.2736 134.389Z" fill="#CCCCCC"/>
<path d="M90.8867 114.67C92.2166 114.182 92.8968 112.716 92.4059 111.395C91.9151 110.073 90.439 109.397 89.1091 109.884C87.7792 110.371 87.0991 111.837 87.59 113.159C88.0808 114.48 89.5568 115.157 90.8867 114.67Z" fill="white"/>
<path d="M96.6956 106.927C97.3634 106.682 97.705 105.946 97.4585 105.282C97.212 104.618 96.4707 104.279 95.8029 104.523C95.135 104.768 94.7935 105.504 95.04 106.168C95.2865 106.832 96.0277 107.171 96.6956 106.927Z" fill="white"/>
<path d="M81.5383 134.113C79.1041 134.92 74.3766 137.066 74.9402 139.193C75.6446 141.852 79.9547 140.745 83.2895 140.118" stroke="#EBEAF6" stroke-width="0.75"/>
<path d="M50.7614 141.334C50.1526 139.067 55.1873 136.761 57.7807 135.892L59.6705 142.291C56.1158 142.972 51.5225 144.168 50.7614 141.334Z" fill="white"/>
<g opacity="0.5">
<g opacity="0.3">
<path opacity="0.3" d="M106.783 33.7085L110.246 27.7124C112.705 23.4171 112.089 18.0545 108.734 14.505L108.758 14.4982C108.039 13.7336 107.206 13.0839 106.29 12.5665L106.259 12.5492L106.228 12.532C105.345 12.0208 104.388 11.6439 103.392 11.4077C103.036 11.3167 102.686 11.2498 102.321 11.2028C101.703 11.1186 101.064 11.0763 100.434 11.104C100.253 11.1035 100.069 11.114 99.8942 11.1375C99.7192 11.161 99.5355 11.1714 99.3605 11.1949C99.0105 11.242 98.6582 11.3 98.3015 11.38C98.1243 11.4145 97.9558 11.4621 97.7872 11.5096C97.2707 11.6502 96.7693 11.8279 96.27 12.0516C96.108 12.1232 95.9459 12.1948 95.7816 12.2774C93.7884 13.2642 92.1235 14.8155 91.017 16.7473L85.5705 26.2061C84.7148 27.6842 84.2084 29.3431 84.0911 31.0423C84.0727 31.301 84.0652 31.5619 84.0687 31.8248C84.0722 32.0877 84.0779 32.3396 84.0923 32.6046C84.1026 32.7776 84.1239 32.9527 84.1474 33.1168C84.1749 33.3729 84.2243 33.6332 84.265 33.8805C84.2994 34.0467 84.3338 34.2129 84.377 34.3921C84.4567 34.7267 84.5496 35.0523 84.6644 35.3821C84.7682 35.7098 84.8961 36.0307 85.0372 36.3427C85.137 36.5784 85.2608 36.8074 85.3738 37.0342C85.5389 37.3394 85.7063 37.6337 85.8977 37.9212C86.7221 39.1735 87.7987 40.2461 89.0619 41.0693L89.1121 41.1016C89.2152 40.9846 89.3184 40.8675 89.4303 40.7635C90.1015 40.1394 91.1216 39.8101 91.9447 40.1729C92.0081 40.1964 92.0583 40.2288 92.1194 40.2633C92.5253 40.5006 92.9045 40.8696 93.3039 41.0829C93.5918 41.2862 93.9415 41.3531 94.2895 41.26C95.2329 40.9731 95.2074 39.4746 96.0662 38.9891C96.1057 38.9624 96.1429 38.9467 96.1911 38.9331C96.1823 38.9201 96.1737 38.9069 96.1672 38.8829C96.8065 38.6404 97.5333 39.0303 98.1335 39.3732C98.7816 39.7595 99.655 40.0976 100.262 39.6209C100.67 39.2885 100.768 38.6916 101.17 38.3351C101.626 37.9322 102.326 38.009 102.898 38.2097L102.931 38.216C103.971 38.9054 105.364 38.3623 105.536 37.1184C105.769 35.4641 106.594 34.0257 106.783 33.7085Z" fill="url(#paint3_linear)"/>
</g>
<path opacity="0.5" d="M89.7769 40.2222C90.4327 39.6202 91.4058 39.3072 92.2118 39.6562C93.0155 40.0161 93.6434 40.9683 94.4806 40.7087C95.6094 40.3573 95.3004 38.2147 96.983 38.3914C97.3379 38.4371 97.6642 38.5684 97.9554 38.7612C98.5992 39.1813 99.6284 39.7214 100.295 39.1784C100.688 38.8672 100.782 38.2822 101.168 37.9469C101.609 37.5653 102.29 37.6284 102.842 37.826L102.873 37.8433C103.876 38.5149 105.233 37.9912 105.383 36.7909C105.591 35.1919 106.392 33.8099 106.567 33.5023L109.901 27.7259C112.86 22.5714 111.114 16.0309 105.994 13.0853C100.857 10.1704 94.2954 11.9661 91.3037 17.1143L86.0534 26.1975C83.2131 31.1586 84.7031 37.4448 89.4742 40.5394C89.5642 40.4316 89.6651 40.3258 89.7769 40.2222Z" fill="white"/>
<path opacity="0.2" d="M98.1521 18.6661C98.7816 18.7876 99.3945 18.3756 99.5211 17.7459C99.6476 17.1162 99.2399 16.5073 98.6104 16.3858C97.9809 16.2644 97.368 16.6764 97.2414 17.3061C97.1148 17.9358 97.5226 18.5446 98.1521 18.6661Z" fill="black"/>
<path opacity="0.2" d="M104.218 22.1228C104.847 22.2442 105.46 21.8323 105.587 21.2025C105.713 20.5728 105.305 19.9638 104.676 19.8424C104.046 19.7209 103.433 20.133 103.307 20.7627C103.18 21.3924 103.588 22.0013 104.218 22.1228Z" fill="black"/>
</g>
<path opacity="0.1" d="M124.708 23.8784C124.778 25.1974 124.687 26.5191 124.429 27.8194C122.286 38.5131 109.287 44.9609 95.4046 42.2117C84.0406 39.9551 75.5956 32.2532 74.0853 23.6828C74.613 33.0032 83.4476 41.678 95.6385 44.0851C109.534 46.8255 122.53 40.3886 124.663 29.6928C125.044 27.7696 125.059 25.7972 124.708 23.8784Z" fill="black"/>
<g opacity="0.8">
<path opacity="0.8" d="M100.477 19.6586C129.182 25.271 151.206 35.922 149.687 43.4481C148.167 50.9741 123.662 52.5294 94.9571 46.917C66.2517 41.3046 44.2276 30.6536 45.7473 23.1275C47.2779 15.6036 71.7713 14.0462 100.477 19.6586Z" fill="url(#paint4_linear)"/>
</g>
<path d="M100.336 20.224C72.5586 14.7345 48.8628 16.1388 47.4106 23.3466L148.014 43.216C149.467 36.0082 128.114 25.7136 100.336 20.224Z" fill="white"/>
<path d="M95.0976 46.3516C122.875 51.8412 146.571 50.4368 148.023 43.229L47.4193 23.3596C45.9671 30.5675 67.3201 40.8621 95.0976 46.3516Z" fill="white"/>
<path opacity="0.05" d="M95.0976 46.3516C122.875 51.8412 146.571 50.4368 148.023 43.229L47.4193 23.3596C45.9671 30.5675 67.3201 40.8621 95.0976 46.3516Z" fill="black"/>
<path opacity="0.05" d="M77.4147 25.7301L119.384 34.0182C121.056 34.3451 122.14 35.9646 121.81 37.6256L121.65 38.4342C121.321 40.0951 119.691 41.1725 118.019 40.8456L76.0493 32.5576C74.3778 32.2306 73.294 30.6111 73.6234 28.9501L73.7837 28.1415C74.1241 26.4827 75.7432 25.4032 77.4147 25.7301Z" fill="black"/>
<path opacity="0.05" d="M69.8272 23.0089C69.9625 22.3332 67.3999 21.2576 64.1034 20.6064C60.8068 19.9552 58.0248 19.975 57.8895 20.6506C57.7541 21.3263 60.3168 22.4019 63.6133 23.0531C66.9098 23.7044 69.6919 23.6845 69.8272 23.0089Z" fill="black"/>
<path opacity="0.05" d="M67.9757 32.2635C68.111 31.5879 65.5484 30.5122 62.2518 29.861C58.9553 29.2098 56.1732 29.2296 56.0379 29.9053C55.9026 30.5809 58.4652 31.6566 61.7618 32.3078C65.0583 32.959 67.8404 32.9392 67.9757 32.2635Z" fill="black"/>
<path opacity="0.05" d="M137.799 36.4388C137.934 35.7632 135.371 34.6875 132.075 34.0363C128.778 33.3851 125.996 33.4049 125.861 34.0806C125.726 34.7563 128.288 35.832 131.585 36.4832C134.881 37.1344 137.663 37.1145 137.799 36.4388Z" fill="black"/>
<path opacity="0.05" d="M135.947 45.6937C136.082 45.018 133.52 43.9423 130.223 43.2911C126.927 42.6399 124.145 42.6597 124.009 43.3354C123.874 44.0111 126.437 45.0867 129.733 45.7379C133.03 46.3891 135.812 46.3693 135.947 45.6937Z" fill="black"/>
<path opacity="0.05" d="M105.653 24.648C105.789 23.9724 103.226 22.8967 99.9293 22.2455C96.6328 21.5943 93.8507 21.6141 93.7154 22.2898C93.5801 22.9654 96.1427 24.0411 99.4392 24.6923C102.736 25.3435 105.518 25.3237 105.653 24.648Z" fill="black"/>
<path opacity="0.05" d="M112.592 12.7704C112.727 12.0947 110.165 11.019 106.868 10.3678C103.572 9.71659 100.79 9.73642 100.654 10.4121C100.519 11.0878 103.082 12.1634 106.378 12.8147C109.675 13.4659 112.457 13.446 112.592 12.7704Z" fill="black"/>
<path opacity="0.05" d="M100.133 15.7584C100.269 15.0828 97.7058 14.0071 94.4093 13.3559C91.1128 12.7047 88.3307 12.7245 88.1954 13.4002C88.06 14.0758 90.6227 15.1515 93.9192 15.8027C97.2157 16.4539 99.9979 16.4341 100.133 15.7584Z" fill="black"/>
<path opacity="0.05" d="M121.628 22.3607C121.763 21.685 119.2 20.6094 115.904 19.9582C112.607 19.307 109.825 19.3268 109.69 20.0025C109.555 20.6781 112.117 21.7538 115.414 22.405C118.71 23.0562 121.492 23.0364 121.628 22.3607Z" fill="black"/>
<path opacity="0.05" d="M102.022 42.7978C102.157 42.1221 99.5946 41.0464 96.2981 40.3952C93.0016 39.744 90.2195 39.7638 90.0842 40.4395C89.9488 41.1152 92.5115 42.1909 95.808 42.8421C99.1045 43.4933 101.887 43.4735 102.022 42.7978Z" fill="black"/>
<defs>
<linearGradient id="paint0_linear" x1="95.3722" y1="44.7256" x2="103.136" y2="4.90064" gradientUnits="userSpaceOnUse">
<stop stop-color="#808080" stop-opacity="0.25"/>
<stop offset="0.54" stop-color="#808080" stop-opacity="0.12"/>
<stop offset="1" stop-color="#808080" stop-opacity="0.1"/>
</linearGradient>
<linearGradient id="paint1_linear" x1="97.5054" y1="32.5528" x2="68.1735" y2="182.525" gradientUnits="userSpaceOnUse">
<stop offset="0.483528" stop-color="white" stop-opacity="0"/>
<stop offset="1" stop-color="white"/>
</linearGradient>
<linearGradient id="paint2_linear" x1="76.1446" y1="165.341" x2="75.1741" y2="119.164" gradientUnits="userSpaceOnUse">
<stop stop-color="#808080" stop-opacity="0.25"/>
<stop offset="0.54" stop-color="#808080" stop-opacity="0.12"/>
<stop offset="1" stop-color="#808080" stop-opacity="0.1"/>
</linearGradient>
<linearGradient id="paint3_linear" x1="89.5937" y1="42.1423" x2="106.135" y2="13.1872" gradientUnits="userSpaceOnUse">
<stop stop-color="#808080" stop-opacity="0.25"/>
<stop offset="0.54" stop-color="#808080" stop-opacity="0.12"/>
<stop offset="1" stop-color="#808080" stop-opacity="0.1"/>
</linearGradient>
<linearGradient id="paint4_linear" x1="94.9589" y1="46.9122" x2="100.294" y2="19.6222" gradientUnits="userSpaceOnUse">
<stop stop-color="#808080" stop-opacity="0.25"/>
<stop offset="0.54" stop-color="#808080" stop-opacity="0.12"/>
<stop offset="1" stop-color="#808080" stop-opacity="0.1"/>
</linearGradient>
</defs>
</svg>
