<?xml version="1.0" encoding="utf-8"?>
<!-- Generator: Adobe Illustrator 24.0.0, SVG Export Plug-In . SVG Version: 6.00 Build 0)  -->
<svg version="1.1" id="Layer_1" xmlns="http://www.w3.org/2000/svg" xmlns:xlink="http://www.w3.org/1999/xlink" x="0px" y="0px"
	 viewBox="0 0 192 144" style="enable-background:new 0 0 192 144;" xml:space="preserve">
<style type="text/css">
	.st0{fill:#DADAEA;}
	.st1{fill:#A5A5B5;}
	.st2{fill:#A4A4B2;}
	.st3{fill:#D60E79;}
	.st4{fill:#F0F0F7;}
	.st5{fill:#D1D1E0;}
</style>
<path class="st0" d="M174.5,90.9l-2.3-2.3l-2.3,2.3l2.3,2.3L174.5,90.9z M174.5,83.9l-2.3-2.3l-2.3,2.3l2.3,2.3L174.5,83.9z
	 M178.1,87.4l-2.3-2.3l-2.3,2.3l2.3,2.3L178.1,87.4z M163.8,87.4l-2.3-2.3l-2.3,2.3l2.3,2.3L163.8,87.4z M163.8,80.3l-2.3-2.3
	l-2.3,2.3l2.3,2.3L163.8,80.3z M161.5,96.8l2.3-2.3l-2.3-2.3l-2.3,2.3L161.5,96.8z M161.5,103.9l2.3-2.3l-2.3-2.3l-2.3,2.3
	L161.5,103.9z M163.8,73.3l-2.3-2.3l-2.3,2.3l2.3,2.3L163.8,73.3z M167.4,90.9l-2.3-2.3l-2.3,2.3l2.3,2.3L167.4,90.9z M167.4,83.9
	l-2.3-2.3l-2.3,2.3l2.3,2.3L167.4,83.9z M165.1,100.3l2.3-2.3l-2.3-2.3l-2.3,2.3L165.1,100.3z M167.4,76.8l-2.3-2.3l-2.3,2.3
	l2.3,2.3L167.4,76.8z M168.6,92.2l-2.3,2.3l2.3,2.3l2.3-2.3L168.6,92.2z M168.6,85.1l-2.3,2.3l2.3,2.3l2.3-2.3L168.6,85.1z
	 M168.6,78l-2.3,2.3l2.3,2.3l2.3-2.3L168.6,78z M153.1,62.7l-2.3-2.3l-2.3,2.3l2.3,2.3L153.1,62.7z M156.7,87.4l-2.3-2.3l-2.3,2.3
	l2.3,2.3L156.7,87.4z M156.7,80.3l-2.3-2.3l-2.3,2.3l2.3,2.3L156.7,80.3z M156.7,73.3l-2.3-2.3l-2.3,2.3l2.3,2.3L156.7,73.3z
	 M154.4,96.8l2.3-2.3l-2.3-2.3l-2.3,2.3L154.4,96.8z M156.7,66.2l-2.3-2.3l-2.3,2.3l2.3,2.3L156.7,66.2z M155.6,98l2.3,2.3l2.3-2.3
	l-2.3-2.3L155.6,98z M155.6,90.9l2.3,2.3l2.3-2.3l-2.3-2.3L155.6,90.9z M155.6,83.9l2.3,2.3l2.3-2.3l-2.3-2.3L155.6,83.9z
	 M155.6,76.8l2.3,2.3l2.3-2.3l-2.3-2.3L155.6,76.8z M155.6,69.7l2.3,2.3l2.3-2.3l-2.3-2.3L155.6,69.7z M140.1,82.6l2.3-2.3l-2.3-2.3
	l-2.3,2.3L140.1,82.6z M140.1,75.6l2.3-2.3l-2.3-2.3l-2.3,2.3L140.1,75.6z M146,76.8l-2.3-2.3l-2.3,2.3l2.3,2.3L146,76.8z M146,69.7
	l-2.3-2.3l-1,1l-0.1,0.1l-0.6,0.6l-0.5,0.5l2.3,2.3L146,69.7z M143.7,86.2l2.3-2.3l-2.3-2.3l-2.3,2.3L143.7,86.2z M149.6,80.3
	l-2.3-2.3l-2.3,2.3l2.3,2.3L149.6,80.3z M149.6,73.3l-2.3-2.3l-2.3,2.3l2.3,2.3L149.6,73.3z M149.6,66.2l-2.3-2.3l-2.3,2.3l2.3,2.3
	L149.6,66.2z M147.3,89.7l2.3-2.3l-2.3-2.3l-2.3,2.3L147.3,89.7z M150.8,88.6l-2.3,2.3l2.3,2.3l2.3-2.3L150.8,88.6z M150.8,81.6
	l-2.3,2.3l2.3,2.3l2.3-2.3L150.8,81.6z M150.8,74.5l-2.3,2.3l2.3,2.3l2.3-2.3L150.8,74.5z M150.8,67.4l-2.3,2.3l2.3,2.3l2.3-2.3
	L150.8,67.4z M136.6,74.5l-2.3,2.3l2.3,2.3l2.3-2.3L136.6,74.5z M131.9,76.7l4.1-4l3.6-3.5l1.2-1.2l-7.4-7.4l0.5-0.5l0.1-0.1
	l0.6-0.6l7.4,7.4l1.2-1.2l3.6-3.5l4.1-4l0.1,0.1L151,58l4.1,4l3.6,3.5l3.6,3.5l3.6,3.5l3.6,3.5l3.6,3.5l3.6,3.5l4.1,4l-0.1,0.1
	l0.1,0.1l-4.1,4l-3.6,3.5l-3.6,3.5l-3.6,3.5l-4.1,4l-0.1-0.1l-0.1,0.1l-4.1-4l-3.6-3.5l-3.6-3.5l-3.6-3.5l-3.6-3.5l-3.6-3.5L136,81
	l-4.1-4l0.1-0.1L131.9,76.7z"/>
<path class="st0" d="M78.1,21.1l2.3-2.3l-2.3-2.3l-2.3,2.3L78.1,21.1z M81.7,24.6l2.3-2.3L81.7,20l-2.3,2.3L81.7,24.6z M81.7,17.6
	l2.3-2.3L81.7,13l-2.3,2.3L81.7,17.6z M87.6,18.8l-2.3-2.3l-2.3,2.3l2.3,2.3L87.6,18.8z M87.6,11.7l-2.3-2.3l-2.3,2.3l2.3,2.3
	L87.6,11.7z M85.3,28.2l2.3-2.3l-2.3-2.3l-2.3,2.3L85.3,28.2z M91.2,22.3L88.8,20l-2.3,2.3l2.3,2.3L91.2,22.3z M91.2,15.3L88.8,13
	l-2.3,2.3l2.3,2.3L91.2,15.3z M91.2,8.2l-2.3-2.3l-2.3,2.3l2.3,2.3L91.2,8.2z M88.8,31.7l2.3-2.3l-2.3-2.3l-2.3,2.3L88.8,31.7z
	 M116.1,32.9l-2.3-2.3l-2.3,2.3l2.3,2.3L116.1,32.9z M116.1,25.9l-2.3-2.3l-2.3,2.3l2.3,2.3L116.1,25.9z M119.7,29.4l-2.3-2.3
	l-2.3,2.3l2.3,2.3L119.7,29.4z M105.4,36.5l-2.3-2.3l-2.3,2.3l2.3,2.3L105.4,36.5z M105.4,29.4l-2.3-2.3l-2.3,2.3l2.3,2.3
	L105.4,29.4z M105.4,22.3l-2.3-2.3l-2.3,2.3l2.3,2.3L105.4,22.3z M103.1,45.9l2.3-2.3l-2.3-2.3l-2.3,2.3L103.1,45.9z M105.4,15.3
	l-2.3-2.3l-2.3,2.3l2.3,2.3L105.4,15.3z M109,32.9l-2.3-2.3l-2.3,2.3l2.3,2.3L109,32.9z M109,25.9l-2.3-2.3l-2.3,2.3l2.3,2.3
	L109,25.9z M106.6,42.3L109,40l-2.3-2.3l-2.3,2.3L106.6,42.3z M109,18.8l-2.3-2.3l-2.3,2.3l2.3,2.3L109,18.8z M110.2,34.2l-2.3,2.3
	l2.3,2.3l0.5-0.5l0.5-0.5l0.1-0.1L112,37l0.5-0.5L110.2,34.2z M107.9,29.4l2.3,2.3l2.3-2.3l-2.3-2.3L107.9,29.4z M107.9,22.3
	l2.3,2.3l2.3-2.3l-2.3-2.3L107.9,22.3z M94.7,25.9l-2.3-2.3l-2.3,2.3l2.3,2.3L94.7,25.9z M94.7,18.8l-2.3-2.3l-2.3,2.3l2.3,2.3
	L94.7,18.8z M94.7,11.7l-2.3-2.3l-2.3,2.3l2.3,2.3L94.7,11.7z M92.4,35.2l2.3-2.3l-2.3-2.3l-2.3,2.3L92.4,35.2z M94.7,4.7l-2.3-2.3
	l-2.3,2.3L92.4,7L94.7,4.7z M98.3,29.4L96,27.1l-2.3,2.3l2.3,2.3L98.3,29.4z M98.3,22.3L96,20l-2.3,2.3l2.3,2.3L98.3,22.3z
	 M98.3,15.3L96,13l-2.3,2.3l2.3,2.3L98.3,15.3z M98.3,8.2L96,5.9l-2.3,2.3l2.3,2.3L98.3,8.2z M96,38.8l2.3-2.3L96,34.2l-2.3,2.3
	L96,38.8z M97.2,40l2.3,2.3l2.3-2.3l-2.3-2.3L97.2,40z M97.2,32.9l2.3,2.3l2.3-2.3l-2.3-2.3L97.2,32.9z M97.2,25.9l2.3,2.3l2.3-2.3
	l-2.3-2.3L97.2,25.9z M97.2,18.8l2.3,2.3l2.3-2.3l-2.3-2.3L97.2,18.8z M97.2,11.7l2.3,2.3l2.3-2.3l-2.3-2.3L97.2,11.7z M102.9,48.2
	l-4.1-4l-3.6-3.5l-3.6-3.5l-3.6-3.5L84.7,30l-3.6-3.5L77.5,23l-4.1-4l0.1-0.1l-0.1-0.1l4.1-4l3.6-3.5l3.6-3.5l3.6-3.5l4-4.1l0.1,0.1
	L92.5,0l4.1,4l3.6,3.5l3.6,3.5l3.6,3.5l3.6,3.5l3.6,3.5l3.6,3.5l3.6,3.5l0.5,0.5l-0.1,0.1l0.1,0.1l-4.1,4l-3.6,3.5l-1.2,1.2l6.9,6.9
	l-0.2,0.2l-0.2,0.2l0.5,0.5l-0.1,0.1l-0.6,0.6l-7.4-7.4l-1.2,1.2l-3.6,3.5l-4.1,4l-0.1-0.1L102.9,48.2z"/>
<path class="st1" d="M105.5,96.2c0.3-0.9-5.4-3.7-12.8-6.2c-7.4-2.5-13.6-3.8-13.9-2.8c-0.3,0.9,5.4,3.7,12.8,6.2
	C98.9,95.9,105.2,97.1,105.5,96.2z"/>
<path class="st2" d="M91,100.1l14.4-4.1c0.2,0,0.4,0,0.4,0.2c0,0.2-0.1,0.4-0.2,0.4l-14.4,4.1c-0.2,0-0.4,0-0.4-0.2
	C90.7,100.4,90.8,100.2,91,100.1z"/>
<path class="st2" d="M87.3,99.5l-8.8-12c-0.1-0.2-0.1-0.4,0.1-0.5c0.2-0.1,0.4-0.1,0.5,0.1l8.8,12c0.1,0.2,0.1,0.4-0.1,0.5
	C87.6,99.7,87.4,99.6,87.3,99.5z"/>
<path class="st2" d="M89,99.8l3.5-9.6c0.1-0.2,0.2-0.3,0.4-0.2c0.2,0.1,0.3,0.2,0.2,0.4l-3.5,9.6c-0.1,0.2-0.2,0.3-0.4,0.2
	C89,100.1,89,100,89,99.8z"/>
<path class="st3" d="M91,101.3c0.5-0.5,0.2-1.2-0.5-1.4l-2-0.7c-0.8-0.3-1.3,0.1-1.3,0.8c0.1,0.7,0.7,1.5,1.5,1.8l0.1,0
	C89.5,102,90.5,101.8,91,101.3z"/>
<path class="st4" d="M115.1,79.6l-5.4,1.3c-1.5,0.4-2.9,1-4.1,1.9c-0.3,0.2-0.6,0.5-0.9,0.7l-8.4-8.4c0.3-0.3,0.5-0.6,0.7-0.9
	c0.9-1.2,1.5-2.5,1.9-4l1.3-5.3L115.1,79.6z"/>
<path class="st5" d="M105.6,82.8c-0.3,0.2-0.6,0.5-0.9,0.7l-8.4-8.4c0.3-0.3,0.5-0.6,0.7-0.9L105.6,82.8z"/>
<path class="st1" d="M97.5,87.1l3.6-2l-6.5-6.5l-3.1,5.8L97.5,87.1z"/>
<path class="st4" d="M78.8,87.1c2.6-2.4,9.2-4.1,15.6-1.9c6.4,2.2,10.5,7.5,11.1,11L78.8,87.1z"/>
<path class="st2" d="M105.8,84.6l-1.2,1.2c-0.8,0.8-2,0.8-2.8,0L94,78c-0.8-0.8-0.8-2,0-2.8l1.2-1.2L105.8,84.6z"/>
<path class="st4" d="M147.2,47.7l-32.1,31.9l-14.8-14.7L132.4,33c2.6-2.6,6.7-2.6,9.3,0l5.5,5.4C149.8,41,149.8,45.2,147.2,47.7z"/>
<path class="st5" d="M147.2,47.7l-32.1,31.9l-5.4,1.3c-1.5,0.4-2.9,1-4.1,1.9c-0.3,0.2-0.6,0.5-0.9,0.7l-1.6-1.6
	c0.3-0.3,0.5-0.5,0.8-0.8c3.6-3.2,8-4.6,8-4.6s22.2-21.8,29.5-29.2c0.8-0.8,1.4-1.4,1.8-1.9c0.1-0.1,0.2-0.2,0.3-0.3
	c2.7-2.9,2.6-7.6,2.6-7.6l1,0.9C149.8,41,149.8,45.2,147.2,47.7z"/>
<path class="st2" d="M146,49.9c-0.3,0.3-0.6,0.4-0.9,0.4c-0.3,0-0.7-0.1-0.9-0.3l-14.1-14c-0.5-0.5-0.5-1.3,0.1-1.8
	c0.3-0.3,0.6-0.4,0.9-0.4c0.3,0,0.6,0.1,0.9,0.3l14.1,14C146.5,48.6,146.5,49.4,146,49.9z"/>
<path class="st0" d="M87.9,123.1c-10.1,0-17-6.8-19.7-11.6c-0.3-0.5-0.1-1.1,0.4-1.3c0.5-0.3,1.1-0.1,1.4,0.4
	c0.4,0.7,10.2,17.7,30.2,7.3c0.5-0.3,1.1-0.1,1.3,0.4c0.3,0.5,0.1,1.1-0.4,1.3C96.2,122,91.8,123.1,87.9,123.1z"/>
<path class="st0" d="M85.1,144c-19.2,0-28.9-16.9-29-17.1c-0.3-0.5-0.1-1.1,0.4-1.3c0.5-0.3,1.1-0.1,1.4,0.4
	c0.6,1.1,15.4,26.8,45.6,11.1c0.5-0.3,1.1-0.1,1.3,0.4c0.3,0.5,0.1,1.1-0.4,1.3C97.2,142.5,90.7,144,85.1,144z"/>
<path class="st0" d="M191.9,49l-2.8,1c0,0-0.1,0-0.1,0.1l-0.8,2.8c0,0.1-0.2,0.1-0.3,0l-1-2.8c0,0,0-0.1-0.1-0.1l-2.8-0.8
	c-0.1,0-0.1-0.2,0-0.3l2.8-1c0,0,0.1,0,0.1-0.1l0.8-2.8c0-0.1,0.2-0.1,0.3,0l1,2.8c0,0,0,0.1,0.1,0.1l2.8,0.8
	C192,48.8,192,49,191.9,49z"/>
<path class="st0" d="M10.4,51.3l-3.6,1.3c-0.1,0-0.1,0.1-0.1,0.1l-1.1,3.7c0,0.2-0.3,0.2-0.4,0l-1.3-3.7c0-0.1-0.1-0.1-0.1-0.1
	l-3.7-1.1c-0.2,0-0.2-0.3,0-0.4L3.7,50c0.1,0,0.1-0.1,0.1-0.1l1.1-3.7c0-0.2,0.3-0.2,0.4,0l1.3,3.7c0,0.1,0.1,0.1,0.1,0.1l3.7,1.1
	C10.5,51,10.5,51.3,10.4,51.3z"/>
<path class="st0" d="M31.6,77c1.5,0,2.6,1.2,2.6,2.7c0,1.5-1.2,2.7-2.6,2.7S29,81.2,29,79.7C29,78.2,30.2,77,31.6,77z"/>
<path class="st0" d="M162.3,9.8l-3.2,1.1c0,0-0.1,0.1-0.1,0.1l-0.9,3.3c0,0.2-0.3,0.2-0.3,0l-1.1-3.3c0,0-0.1-0.1-0.1-0.1l-3.3-0.9
	c-0.2,0-0.2-0.3,0-0.3l3.2-1.1c0.1,0,0.1-0.1,0.1-0.1l0.9-3.3c0-0.2,0.3-0.2,0.3,0l1.1,3.3c0,0,0.1,0.1,0.1,0.1l3.3,0.9
	C162.4,9.5,162.4,9.7,162.3,9.8z"/>
<path class="st0" d="M41.6,46c0.9,0,1.6,0.7,1.6,1.6s-0.7,1.6-1.6,1.6c-0.9,0-1.6-0.7-1.6-1.6C40,46.7,40.7,46,41.6,46z"/>
</svg>
