<svg width="150" height="64" viewBox="0 0 150 64" fill="none" xmlns="http://www.w3.org/2000/svg">
<g opacity="0.7">
<path d="M112.522 29.0275C112.55 13.0634 95.7922 0.0915804 75.0786 0.0489334C54.3722 0.00628649 37.5572 12.9212 37.5286 28.8854C37.5 44.8496 54.258 57.8213 74.9715 57.864C95.6779 57.8995 112.493 44.9917 112.522 29.0275Z" fill="#C5C3DF"/>
<path opacity="0.5" d="M104.446 30.9899L104.489 30.7838C99.8049 29.8526 94.9924 29.8384 92.0792 29.9593C92.5576 28.2463 92.7004 26.2703 92.7004 24.074C92.7004 20.9181 91.508 18.3948 89.573 16.4757C89.9086 15.3882 90.3656 12.9787 89.1232 9.89386C89.1232 9.89386 86.9383 9.2044 81.9902 12.4953C80.0552 12.012 77.9917 11.7774 75.9282 11.7774C73.6577 11.7774 71.3585 12.0689 69.2165 12.6517C64.1113 9.18307 61.855 9.89386 61.855 9.89386C60.3841 13.5544 61.2909 16.2696 61.5694 16.9377C59.8415 18.7929 58.7847 21.1669 58.7847 24.074C58.7847 26.2703 59.0346 28.2392 59.6487 29.945C56.7141 29.8384 52.0801 29.8811 47.5604 30.7766L47.6033 30.9828C52.1515 30.0801 56.8141 30.0445 59.7272 30.1583C59.8629 30.5137 60.0128 30.8548 60.1842 31.1889C57.2996 31.2813 52.3729 31.6438 47.6533 32.973L47.7104 33.1791C52.4657 31.8428 57.4352 31.4874 60.2913 31.4021C62.0121 34.6007 65.4108 36.6619 71.4585 37.3159C70.6017 37.8916 69.7234 38.8654 69.3736 40.5144C68.2026 41.0688 64.504 42.4264 62.2834 38.6308C62.2834 38.6308 61.041 36.3705 58.6633 36.1928C58.6633 36.1928 56.3571 36.1573 58.5063 37.6215C58.5063 37.6215 60.0485 38.3465 61.1124 41.0688C61.1124 41.0688 62.5047 45.7102 69.2093 44.2247V49.0153C69.2093 49.0153 69.0666 50.7141 67.5029 51.2756C67.5029 51.2756 66.5818 51.9153 67.5742 52.2636C67.5742 52.2636 71.9012 52.619 71.9012 49.0864V43.8551C71.9012 43.8551 71.7298 41.7796 72.7509 41.0617V49.655C72.7509 49.655 72.6794 51.7021 71.6156 52.484C71.6156 52.484 70.9087 53.7563 72.4652 53.4009C72.4652 53.4009 75.4498 52.9744 75.5855 49.5129L75.6498 40.82H76.3638L76.4352 49.5129C76.578 52.9744 79.5554 53.4009 79.5554 53.4009C81.1191 53.7563 80.4051 52.484 80.4051 52.484C79.3412 51.7092 79.2698 49.655 79.2698 49.655V41.1399C80.2909 41.9359 80.1195 43.8622 80.1195 43.8622V49.0935C80.1195 52.6261 84.4536 52.2707 84.4536 52.2707C85.446 51.9153 84.5249 51.2827 84.5249 51.2827C82.9613 50.7141 82.8184 49.0224 82.8184 49.0224V42.1705C82.8184 39.498 81.6903 38.0835 80.5836 37.3372C87.0311 36.6975 90.1228 34.6291 91.5509 31.4093C94.3712 31.4874 99.455 31.8286 104.317 33.1933L104.375 32.9872C99.5407 31.6296 94.4926 31.2813 91.6437 31.196C91.7794 30.8691 91.8936 30.535 92.0007 30.1867C94.9139 30.0588 99.7478 30.0588 104.446 30.9899Z" fill="#EBEAF6"/>
<path opacity="0.1" d="M43.5763 32.1132C43.612 16.1491 60.4199 3.24124 81.1192 3.291C87.5453 3.27678 93.9215 4.57751 99.805 7.17187C93.2146 2.73659 84.6107 0.0285046 75.1715 7.32519e-05C54.4579 -0.0354659 37.6428 12.8652 37.6286 28.8223C37.6143 39.5338 45.1686 48.909 56.3929 53.9129C48.5244 48.6105 43.562 40.799 43.5763 32.1132Z" fill="#EBEAF6"/>
<path opacity="0.1" d="M111.044 20.4697C111.522 22.3462 111.765 24.2653 111.765 26.2057C111.729 42.1699 94.9211 55.0777 74.2218 55.028C57.2783 54.9782 42.9694 46.2925 38.364 34.4082C41.7699 47.6429 56.9141 57.6223 75.0929 57.6579C95.8064 57.6934 112.621 44.7927 112.636 28.8356C112.636 25.9641 112.093 23.1281 111.044 20.4697Z" fill="black"/>
<path d="M75.043 25.2974C33.6301 25.2192 0.0357007 33.8908 0 44.652L149.986 44.9292C150.014 34.1609 116.456 25.3756 75.043 25.2974Z" fill="#EBEAF6"/>
<path d="M74.957 63.9994C116.37 64.0776 149.964 55.406 150 44.6448L0.0140563 44.3676C-0.0145043 55.1288 33.5442 63.9141 74.957 63.9994Z" fill="#EBEAF6"/>
<path opacity="0.4" d="M74.957 63.9994C116.37 64.0776 149.964 55.406 150 44.6448L0.0140563 44.3676C-0.0145043 55.1288 33.5442 63.9141 74.957 63.9994Z" fill="#A8A5CE"/>
<path opacity="0.2" d="M32.0593 37.8073C32.0593 36.798 28.0822 35.9735 23.1627 35.9664C18.2503 35.9592 14.2589 36.7695 14.2589 37.7789C14.2589 38.7882 18.236 39.6127 23.1555 39.6198C28.0751 39.6198 32.0593 38.8166 32.0593 37.8073Z" fill="black"/>
<path opacity="0.05" d="M42.3055 39.8881C42.3055 39.1205 39.2781 38.495 35.5366 38.4879C31.7952 38.4807 28.7606 39.0991 28.7606 39.8668C28.7606 40.6344 31.788 41.2599 35.5295 41.267C39.2709 41.2741 42.3055 40.6557 42.3055 39.8881Z" fill="black"/>
<path opacity="0.2" d="M133.399 37.9981C133.399 36.9888 129.415 36.1643 124.503 36.1572C119.59 36.15 115.606 36.9603 115.599 37.9696C115.599 38.979 119.583 39.8035 124.496 39.8106C129.408 39.8177 133.399 39.0074 133.399 37.9981Z" fill="black"/>
<path opacity="0.05" d="M119.419 40.0379C119.419 39.2702 116.391 38.6447 112.65 38.6376C108.909 38.6305 105.874 39.2489 105.874 40.0165C105.874 40.7842 108.901 41.4097 112.643 41.4168C116.384 41.4239 119.419 40.8055 119.419 40.0379Z" fill="black"/>
<path opacity="0.2" d="M83.9254 30.0944C83.9254 29.0851 79.9412 28.2606 75.0288 28.2535C70.1164 28.2464 66.125 29.0566 66.125 30.066C66.125 31.0753 70.1092 31.8998 75.0216 31.9069C79.9412 31.914 83.9254 31.1037 83.9254 30.0944Z" fill="black"/>
<path opacity="0.05" d="M90.5012 7.91983C90.5012 6.91052 86.5241 6.08601 81.6046 6.0789C76.685 6.0718 72.7008 6.88209 72.7008 7.8914C72.7008 8.90071 76.6779 9.72522 81.5974 9.73233C86.517 9.73943 90.5012 8.92914 90.5012 7.91983Z" fill="black"/>
<path opacity="0.05" d="M73.4794 15.7089C73.4794 14.6996 69.4951 13.8751 64.5827 13.868C59.6703 13.8609 55.679 14.6712 55.679 15.6805C55.679 16.6898 59.6632 17.5143 64.5756 17.5214C69.488 17.5285 73.4794 16.7182 73.4794 15.7089Z" fill="black"/>
<path opacity="0.05" d="M106.195 19.157C106.195 18.1477 102.211 17.3232 97.2987 17.3161C92.3863 17.309 88.3949 18.1193 88.3949 19.1286C88.3949 20.1379 92.372 20.9624 97.2915 20.9695C102.204 20.9766 106.195 20.1663 106.195 19.157Z" fill="black"/>
<path opacity="0.05" d="M81.7547 44.1252C81.7547 43.3575 78.7273 42.732 74.9858 42.7249C71.2444 42.7178 68.2098 43.3362 68.2098 44.1038C68.2098 44.8715 71.2372 45.497 74.9787 45.5041C78.7201 45.5112 81.7547 44.8928 81.7547 44.1252Z" fill="black"/>
</g>
</svg>
