<svg width="44" height="36" viewBox="0 0 44 36" fill="none" xmlns="http://www.w3.org/2000/svg">
<g clip-path="url(#clip0_18456_213989)">
<path fill-rule="evenodd" clip-rule="evenodd" d="M17.9991 3C16.3407 3.00122 14.9986 4.34434 14.9998 5.99939C14.9986 7.65443 16.342 8.99755 18.0003 8.99878H21.0008V6.00061C21.002 4.34557 19.6587 3.00245 17.9991 3C18.0003 3 18.0003 3 17.9991 3V3ZM17.9991 11H10.0002C8.34189 11.0012 6.99853 12.3443 6.99976 13.9994C6.99731 15.6544 8.34066 16.9976 9.99902 17H17.9991C19.6575 16.9988 21.0008 15.6557 20.9996 14.0006C21.0008 12.3443 19.6575 11.0012 17.9991 11V11Z" fill="#36C5F0"/>
<path fill-rule="evenodd" clip-rule="evenodd" d="M37.0001 13.9994C37.0013 12.3443 35.658 11.0012 33.9996 11C32.3413 11.0012 30.9979 12.3443 30.9991 13.9994V17H33.9996C35.658 16.9988 37.0013 15.6557 37.0001 13.9994ZM29 13.9994V5.99939C29.0012 4.34557 27.6591 3.00245 26.0007 3C24.3424 3.00122 22.999 4.34434 23.0002 5.99939V13.9994C22.9978 15.6544 24.3412 16.9976 25.9995 17C27.6579 16.9988 29.0012 15.6557 29 13.9994Z" fill="#2EB67D"/>
<path fill-rule="evenodd" clip-rule="evenodd" d="M25.9994 33.0001C27.6577 32.9989 29.0011 31.6558 28.9999 30.0007C29.0011 28.3457 27.6577 27.0025 25.9994 27.0013H22.9989V30.0007C22.9977 31.6545 24.341 32.9977 25.9994 33.0001ZM25.9994 24.9989H33.9995C35.6578 24.9976 37.0012 23.6545 37 21.9995C37.0024 20.3444 35.6591 19.0013 34.0007 18.9988H26.0006C24.3423 19.0001 22.9989 20.3432 23.0001 21.9982C22.9989 23.6545 24.341 24.9976 25.9994 24.9989V24.9989Z" fill="#ECB22E"/>
<path fill-rule="evenodd" clip-rule="evenodd" d="M7 21.9994C6.99878 23.6544 8.34213 24.9976 10.0005 24.9988C11.6589 24.9976 13.0022 23.6544 13.001 21.9994V19H10.0005C8.34213 19.0012 6.99878 20.3443 7 21.9994ZM15.0001 21.9994V29.9994C14.9976 31.6545 16.341 32.9976 17.9994 33C19.6577 32.9988 21.0011 31.6557 20.9999 30.0006V22.0018C21.0023 20.3468 19.6589 19.0037 18.0006 19.0012C16.341 19.0012 14.9989 20.3443 15.0001 21.9994C15.0001 22.0006 15.0001 21.9994 15.0001 21.9994Z" fill="#E01E5A"/>
</g>
<defs>
<clipPath id="clip0_18456_213989">
<rect width="30" height="30" fill="white" transform="translate(7 3)"/>
</clipPath>
</defs>
</svg>
