<?xml version="1.0" encoding="utf-8"?>
<!-- Generator: Adobe Illustrator 24.0.0, SVG Export Plug-In . SVG Version: 6.00 Build 0)  -->
<svg version="1.1" id="Layer_1" xmlns="http://www.w3.org/2000/svg" xmlns:xlink="http://www.w3.org/1999/xlink" x="0px" y="0px"
	 viewBox="0 0 160 192" style="enable-background:new 0 0 160 192;" xml:space="preserve">
<style type="text/css">
	.st0{fill:#3C2C84;}
	.st1{fill:#FFFFFF;}
	.st2{opacity:0.36;fill:#F8F8FC;enable-background:new    ;}
</style>
<g>
	<path class="st0" d="M80,177.5c44.2,0,80-35,80-78.2c0-43.2-35.8-78.2-80-78.2c-44.2,0-80,35-80,78.2C0,142.5,35.8,177.5,80,177.5z
		"/>
	<path class="st1" d="M120.8,183.8c0,0,11.2-10.6,5.7-16.8c0,0-5.1-3.2-9-1.1c0,0-2.4-24.5-5.5-29.1l-3.5-15.8c0,0,7.4,11,12,12.6
		c0,0,12.6,6.5,17-4.3c0,0,2.6-6.2-9.5-14.4c0,0-11.4-6-10.2-28.8c0,0-2.3-17.1-14.9-22.7c0,0,0.8-2.4-1.2-4c0,0,11-11.3,10.1-26
		c0,0-0.2-22.8-26-29.3c0,0-21.5-4.6-33.5,18.3c0,0-4.5,9-2.1,17l-6.2,41.8l10.2,12.8c0,0-0.3,33.9-2.1,40.3c0,0-0.2,10.8-11.9,21.5
		c0,0-7.9,11.8-2.4,20.5c0,0,6.6,15.7,23.1,9.9c0,0,7.4-3.3,4.7-11.1l-4.5-3.3c0,0,11.4-4,15.4-21c0,0,3.1-18.2,10.6-13.3
		c0,0,5.9,6.2,5.9,22.4c0,0,2.4,29.9,17.2,28.2C110.4,188.3,115,189,120.8,183.8z"/>
	<path class="st0" d="M80.8,68.8C63.3,68.8,49,54,49,35.9C49,17.8,63.3,3,80.8,3s31.8,14.8,31.8,32.9C112.6,54,98.3,68.8,80.8,68.8z
		 M80.8,4.4C64,4.4,50.4,18.5,50.4,35.9c0,17.4,13.6,31.5,30.4,31.5c16.8,0,30.4-14.1,30.4-31.5C111.2,18.5,97.6,4.4,80.8,4.4z"/>
	<path class="st0" d="M105.3,39.5C105.5,54,95.9,61,83.4,61.2C71,61.4,60.8,55.6,60.6,41.1c-0.2-14.5,9.1-24.2,21.6-24.4
		C94.6,16.5,105.1,25,105.3,39.5z"/>
	<path class="st0" d="M82.8,61.9c-14.3,0-22.7-7.5-22.9-20.8c-0.1-7.2,2-13.4,6.2-18c4-4.5,9.7-7,16.1-7.1
		c13.8-0.2,23.6,9.5,23.9,23.5c0.1,7-2.1,12.8-6.4,16.7c-4,3.6-9.6,5.5-16.2,5.6C83.2,61.9,83,61.9,82.8,61.9z M82.6,17.4
		c-0.1,0-0.3,0-0.4,0c-5.9,0.1-11.3,2.4-15,6.6c-3.9,4.3-6,10.2-5.8,17.1c0.2,12.6,8.3,19.6,22.1,19.4c6.3-0.1,11.5-1.9,15.2-5.3
		c4.1-3.7,6.1-9,5.9-15.7C104.4,26.5,95.4,17.4,82.6,17.4z"/>
	<path class="st2" d="M73.9,23.5c-0.1,0.4,0,0.9,0.3,1.2c0.3,0.3,0.9,0.4,1.4,0.4c0.5,0,1.1,0,1.6-0.2c0.5-0.2,0.9-0.6,1-1.1
		c0.1-0.5-0.1-1-0.4-1.3c-0.2-0.3-0.6-0.5-0.9-0.6c-0.6-0.2-1.1,0-1.7,0.3c-0.4,0.2-0.8,0.5-1,0.9C74,23.1,73.9,23.3,73.9,23.5z"/>
	<path class="st2" d="M71.7,27C71,29.6,69,32.2,68,34.7c-1,2.6-1.4,5.1-1.2,7.8c0,0.1,0.6,7.6-1.9,2c-0.2-0.6-0.5-2.5-0.6-4.7
		c-0.1-1.3,0-3.1,0.5-5.4c0.4-1.5,0.9-2.8,1.6-4.3c0.5-0.9,1.1-1.9,1.8-2.7c0.7-0.8,1.4-1.6,2.5-1.5C70.8,26,72,26.1,71.7,27z"/>
	<path class="st1" d="M62.4,60.4c0,0-4,2.9,0.3,6.9c0,0,12.9,10.6,31,3.9c0,0,13.2-4.9,8.7-11.6C102.4,59.5,86.6,74.7,62.4,60.4z"/>
	<path class="st0" d="M81.7,74c-11.7,0-19.4-6.2-19.5-6.2c-1.6-1.5-2.4-3-2.3-4.5c0.1-2.1,1.9-3.4,2-3.4l0.4-0.3l0.4,0.2
		C75,67,85,66.4,91.2,64.7c6.7-1.9,10.7-5.6,10.7-5.6l0.6-0.6l0.5,0.7c1.1,1.6,1.3,3.2,0.8,4.8c-1.6,4.7-9.5,7.7-9.8,7.8
		C89.6,73.4,85.5,74,81.7,74z M62.5,61.2c-0.4,0.4-1,1.1-1.1,2.1c-0.1,1.1,0.5,2.2,1.8,3.4c0.1,0.1,12.8,10.2,30.2,3.7
		c0.1,0,7.6-2.9,9-6.9c0.3-1,0.2-2-0.2-2.9C98.9,63.3,83.8,73.6,62.5,61.2z"/>
	<path class="st0" d="M66.4,179.1c-0.4,0-0.7-0.3-0.7-0.7c-0.1-2.2-1.4-4.1-4-5.7c-0.3-0.2-0.4-0.6-0.2-1c0.2-0.3,0.6-0.4,1-0.2
		c3.8,2.2,4.7,4.9,4.7,6.8C67.1,178.8,66.8,179.1,66.4,179.1C66.4,179.1,66.4,179.1,66.4,179.1z"/>
	<path class="st0" d="M55.5,188.4c-7.4,0-12.9-5.7-13.3-6.1c-9.8-9-6.3-20.7-3-25.6c1.4-2.1,3-3.8,4.5-5.4c3.9-4.2,7.6-8.2,8.4-18.5
		c0.4-4.4,0.4-8.4,0.5-12.4c0.1-3.4,0.1-6.6,0.3-9.5c0.9-10,0.9-18.1,0.9-18.2c0-0.4,0.3-0.7,0.7-0.7c0.4,0,0.7,0.3,0.7,0.7
		c0,0.1,0,8.2-0.9,18.3c-0.2,2.9-0.3,6.1-0.3,9.4c-0.1,4-0.1,8.1-0.5,12.5c-0.9,10.8-4.9,15.1-8.8,19.3c-1.5,1.6-3,3.3-4.3,5.3
		c-3,4.6-6.3,15.4,2.8,23.8l0,0c0,0,2.1,2.3,5.3,3.9c4.3,2.2,8.4,2.4,12.4,0.6c2-0.9,4.9-4.1,4.8-7.4c0-0.4,0.3-0.7,0.7-0.7
		c0,0,0,0,0,0c0.4,0,0.7,0.3,0.7,0.7c0.1,4-3.2,7.6-5.6,8.7C59.4,188,57.4,188.4,55.5,188.4z"/>
	<path class="st0" d="M110.3,189c-3,0-5.9-1.1-8.4-3.1c-5.5-4.5-8.8-19.9-9.4-26.3l-0.2-2.1c-1.1-10.7-1.4-14.2-4.1-18
		c-0.9-1.3-2-1.9-3.2-1.7c-2.3,0.4-4.7,3.6-5.8,7.8c-5,18.7-9.6,21.9-15.5,25.9c-0.5,0.4-1.1,0.7-1.6,1.1c-0.3,0.2-0.8,0.2-1-0.2
		c-0.2-0.3-0.2-0.7,0.2-1c0.6-0.4,1.1-0.8,1.7-1.2c5.6-3.9,10-6.9,14.9-25.1c1.3-4.8,4.1-8.3,6.9-8.8c1.2-0.2,3,0,4.6,2.2
		c2.9,4.1,3.3,8.1,4.4,18.7l0.2,2.1c0.8,8.2,4.4,21.6,8.9,25.3c1.5,1.2,4.6,3.2,8.9,2.7c4.7-0.6,9.4-4,13.8-10.1
		c1-1.3,2.7-5.9,1.1-8.8c-1-1.8-3-2.7-6.1-2.6c-1.3,0-7.6,0.3-9,3.8c-0.1,0.4-0.6,0.5-0.9,0.4c-0.4-0.1-0.6-0.5-0.4-0.9
		c1.7-4.3,8.3-4.7,10.3-4.7c3.7,0,6.2,1.1,7.4,3.4c1.8,3.4,0.1,8.5-1.2,10.3c-4.6,6.4-9.6,10-14.7,10.6
		C111.3,189,110.8,189,110.3,189z"/>
	<path class="st0" d="M117.6,165.9c-0.4,0-0.7-0.3-0.7-0.7c0-0.2-0.8-16.7-7.3-37.1c-2.2-6.7-2.4-15.2-2.9-29.1l-0.1-2.3
		c0-0.4,0.3-0.7,0.7-0.7c0,0,0,0,0,0c0.4,0,0.7,0.3,0.7,0.7l0.1,2.3c0.4,13.8,0.7,22.1,2.8,28.7c6.6,20.6,7.4,37.3,7.4,37.4
		C118.3,165.5,118,165.8,117.6,165.9C117.6,165.9,117.6,165.9,117.6,165.9z"/>
	<path class="st0" d="M128.1,136.7c-3,0-7.6-1.1-13-6.3c-0.2-0.1-4.8-3.9-7-8.9c-0.2-0.4,0-0.8,0.4-0.9c0.4-0.2,0.8,0,0.9,0.4
		c2.1,4.7,6.6,8.4,6.7,8.4c5.3,5,9.6,6,12.4,5.9c2.5-0.1,4.7-1,6.3-2.7c1.8-1.9,2.6-3.7,2.4-5.6c-0.3-3.8-4.3-7.1-7.2-9.4
		c-0.6-0.5-1.2-1-1.7-1.4c-10.8-9.5-11-17.7-11.1-25c0-0.6,0-1.3-0.1-1.9c-0.3-9.9-4.1-16.2-7.1-19.8c-3.3-3.9-6.6-5.4-6.6-5.4
		c-0.4-0.2-0.5-0.6-0.3-0.9c0.2-0.3,0.6-0.5,0.9-0.3c0.1,0.1,3.6,1.7,7.1,5.7c3.2,3.7,7.2,10.3,7.5,20.7c0,0.6,0,1.3,0.1,1.9
		c0.2,7,0.3,14.9,10.7,24c0.4,0.4,1,0.9,1.6,1.3c3,2.4,7.4,6,7.8,10.4c0.2,2.3-0.8,4.5-2.8,6.6c-1.8,1.9-4.4,3.1-7.3,3.1
		C128.4,136.7,128.3,136.7,128.1,136.7z"/>
	<path class="st0" d="M118,132.7c0,0-0.1,0-0.1,0c-0.4-0.1-0.6-0.4-0.6-0.8c0.7-3.8,3.2-7.6,7.4-10.9c3.1-2.5,6-3.8,6.1-3.9
		c0.4-0.2,0.8,0,0.9,0.3c0.2,0.3,0,0.8-0.3,0.9c-0.1,0.1-11.3,5.3-12.7,13.7C118.6,132.4,118.4,132.7,118,132.7z"/>
	<path class="st0" d="M56,174.1c-1.8,0-3.3-0.4-4.4-0.8c-2.6-1-3.9-2.5-4-2.6c-0.3-0.3-0.2-0.7,0.1-1c0.3-0.2,0.7-0.2,1,0.1
		c0.2,0.2,4.9,5.4,13.5,1.5c0.4-0.2,0.8,0,0.9,0.3c0.2,0.3,0,0.8-0.3,0.9C60.2,173.6,58,174.1,56,174.1z"/>
	<path class="st1" d="M63.1,90l5.5-4.5c2.2-2.2,2.9-3.7,2.9-5.7l-0.2-23.3c0-3-1.7-5-3.8-6.4L37.9,30.9c-2.1-1.3-5.5-1-8.3,0.7
		l-4.8,3.3l-0.2,29.5L63.1,90z"/>
	<path class="st0" d="M63.1,90.9L23.8,64.8l0.2-30.2l5.1-3.5c3.1-1.9,6.8-2.2,9.1-0.7l29.5,19.2c1.9,1.2,4.1,3.4,4.1,7l0.2,23.3
		c0,2.3-0.8,4-3.1,6.2l0,0L63.1,90.9z M25.3,64.1L63,89.1l5-4.1c2.2-2.2,2.7-3.6,2.7-5.2l-0.2-23.3c0-2.9-1.9-4.8-3.5-5.8L37.5,31.5
		c-1.8-1.2-5-0.9-7.5,0.7l-4.5,3.1L25.3,64.1z"/>
	<path class="st1" d="M59.6,90L27.7,68.9c-2.1-1.4-3.8-4.1-3.8-6.2V36.6c0-2,1.7-2.6,3.8-1.2l31.9,21.1c2.8,1.7,3.8,4.1,3.8,6.2
		v26.1C63.4,90.8,61.7,91.3,59.6,90z"/>
	<path class="st0" d="M61.7,91.4c-0.8,0-1.6-0.3-2.5-0.9L27.3,69.5C25,68,23.2,65,23.2,62.8V36.6c0-1.1,0.4-2,1.2-2.4
		c1-0.5,2.3-0.3,3.6,0.6L60,55.9c3.5,2.2,4.1,5.2,4.1,6.7v26.1c0,1.1-0.4,2-1.2,2.4C62.5,91.3,62.1,91.4,61.7,91.4z M60,89.4
		c0.9,0.6,1.7,0.8,2.2,0.5c0.4-0.2,0.5-0.8,0.5-1.2V62.6c0-1.3-0.4-3.7-3.4-5.6L27.3,36c-0.9-0.6-1.7-0.8-2.2-0.5
		c-0.4,0.2-0.5,0.8-0.5,1.2v26.1c0,1.8,1.6,4.4,3.5,5.6L60,89.4z"/>
	<path class="st0" d="M63.1,65.6c-0.1,0-0.3,0-0.4-0.1L23.5,39.7c-0.3-0.2-0.4-0.6-0.2-1c0.2-0.3,0.7-0.4,1-0.2l39.1,25.8
		c0.3,0.2,0.4,0.6,0.2,1C63.5,65.5,63.3,65.6,63.1,65.6z"/>
	<path class="st0" d="M63.1,69.5c-0.1,0-0.3,0-0.4-0.1L23.5,43.6c-0.3-0.2-0.4-0.6-0.2-1c0.2-0.3,0.7-0.4,1-0.2l39.1,25.8
		c0.3,0.2,0.4,0.6,0.2,1C63.5,69.4,63.3,69.5,63.1,69.5z"/>
	<path class="st0" d="M39.4,72.4c-1.2,0-2.5-0.4-3.8-1.3c-3.9-2.6-7.1-8.2-7.1-12.7c0-2.3,0.8-3.9,2.3-4.7c1.5-0.8,3.5-0.5,5.6,0.9
		c3.9,2.6,7.1,8.2,7.1,12.7c0,2.3-0.8,3.9-2.3,4.7C40.6,72.2,40,72.4,39.4,72.4z M32.6,54.7c-0.4,0-0.8,0.1-1.1,0.3
		c-1,0.5-1.5,1.7-1.5,3.4c0,4,2.9,9.2,6.4,11.5c1.6,1.1,3.1,1.4,4.1,0.8c1-0.5,1.5-1.7,1.5-3.4c0-4-2.9-9.2-6.4-11.5
		C34.5,55.1,33.5,54.7,32.6,54.7z"/>
	<path class="st0" d="M54.8,79.1c-0.7,0-1.4-0.3-2.2-0.7c-2.2-1.4-3.8-4.5-3.8-6.9c0-1.3,0.5-2.3,1.4-2.7c0.9-0.5,2.1-0.3,3.3,0.5
		c2.2,1.4,3.8,4.5,3.8,6.9c0,1.3-0.5,2.3-1.4,2.7C55.6,79,55.2,79.1,54.8,79.1z M51.3,69.9c-0.2,0-0.3,0-0.4,0.1
		c-0.4,0.2-0.6,0.7-0.6,1.5c0,2,1.5,4.6,3.2,5.7c0.7,0.5,1.4,0.6,1.8,0.4c0.4-0.2,0.6-0.7,0.6-1.5c0-2-1.5-4.6-3.2-5.7
		C52.1,70,51.6,69.9,51.3,69.9z"/>
	<path class="st0" d="M42.4,68.9c-0.3,0-0.5-0.1-0.6-0.4l-7.4-13.4c-0.2-0.3-0.1-0.8,0.3-0.9c0.3-0.2,0.8-0.1,1,0.3L43,67.9
		c0.2,0.3,0.1,0.8-0.3,0.9C42.7,68.9,42.5,68.9,42.4,68.9z"/>
	<path class="st0" d="M40.8,72.1c-0.3,0-0.5-0.1-0.6-0.4l-9.4-16.8c-0.2-0.3-0.1-0.8,0.3-0.9c0.3-0.2,0.8-0.1,1,0.3l9.4,16.8
		c0.2,0.3,0.1,0.8-0.3,0.9C41,72.1,40.9,72.1,40.8,72.1z"/>
	<path class="st0" d="M37.4,71.8c-0.2,0-0.5-0.1-0.6-0.4l-8-14.1c-0.2-0.3-0.1-0.8,0.3-0.9c0.3-0.2,0.8-0.1,1,0.3l8,14.1
		c0.2,0.3,0.1,0.8-0.3,0.9C37.7,71.7,37.5,71.8,37.4,71.8z"/>
	<path class="st1" d="M56.9,92.3c0,0-8.5,4.7-11.2,5.8c-13.7,5.9-19.4-3.9-20.6-9c-1.7-7.1,1.6-19.7,4.2-27.9
		c1.4-4.4,6.9-8.4,11.2-6.3c4.9,2.5,6.8,6,5.9,10.7c-1,4.9-2.3,13.1-2.3,13.1s-0.6,2.4,1.3,3.5"/>
	<path class="st0" d="M37.8,100.7c-2.1,0-4-0.4-5.8-1.3c-4.4-2.2-6.9-6.6-7.7-10.1c-1.8-7.5,1.9-20.9,4.2-28.2
		c0.9-2.9,3.4-5.6,6.3-6.7c2.1-0.9,4.1-0.8,5.9,0.1C45.9,57,48,60.8,47,65.8c-1,4.9-2.3,13-2.3,13.1c0,0.1-0.4,2,1,2.8
		c0.3,0.2,0.5,0.6,0.3,0.9c-0.2,0.3-0.6,0.4-1,0.3c-2.3-1.3-1.7-4.1-1.6-4.2c0,0,1.3-8.2,2.3-13.1c0.9-4.4-0.9-7.6-5.5-9.9
		c-1.8-0.9-3.5-0.5-4.7,0c-2.5,1-4.7,3.4-5.5,5.9c-2.3,7.2-5.8,20.3-4.2,27.5c0.7,3,2.9,7.2,6.9,9.2c3.5,1.7,7.8,1.5,12.7-0.6
		c2.6-1.1,11.1-5.7,11.1-5.8c0.3-0.2,0.8-0.1,1,0.3s0.1,0.8-0.3,0.9c-0.3,0.2-8.6,4.7-11.3,5.9C43,100,40.3,100.7,37.8,100.7z"/>
	<path class="st1" d="M37.1,34.8l-5.3-24.4l1.9,23c0.2,1.8,0.1,3.9,1.9,3.9C36.9,37.3,37.4,36.1,37.1,34.8z"/>
	<path class="st0" d="M35.7,38c-2.3,0-2.5-2.2-2.6-3.8c0-0.2,0-0.4-0.1-0.6l-1.9-23l1.4-0.2l5.3,24.4c0.2,1,0.1,1.9-0.4,2.5
		C36.9,37.7,36.4,38,35.7,38z M33.4,21.2l1,12.1c0,0.2,0,0.4,0.1,0.7c0.1,1.9,0.3,2.6,1.2,2.6c0.2,0,0.4-0.1,0.6-0.2
		c0.2-0.3,0.3-0.8,0.2-1.4v0L33.4,21.2z"/>
	<path class="st0" d="M41.5,72.2c-7,0-13.6-4.8-14-5.1c-0.3-0.2-0.4-0.7-0.1-1c0.2-0.3,0.7-0.4,1-0.1c0.1,0.1,9.2,6.7,16.7,4.3
		c0.4-0.1,0.8,0.1,0.9,0.4c0.1,0.4-0.1,0.8-0.5,0.9C44.2,72.1,42.9,72.2,41.5,72.2z"/>
	<path class="st0" d="M98.2,95.1c-0.4,0-0.8,0-1.3-0.1c-3-0.7-4.9-3.6-4.2-6.6c0.3-1.4,1.2-2.6,2.5-3.4c1.3-0.8,2.8-1,4.2-0.7
		c3,0.7,4.9,3.6,4.2,6.6c-0.3,1.4-1.2,2.6-2.5,3.4C100.2,94.8,99.2,95.1,98.2,95.1z M98.1,85.5c-0.8,0-1.5,0.2-2.2,0.6
		c-0.9,0.6-1.6,1.5-1.9,2.6c-0.5,2.2,0.9,4.4,3.2,4.9c1.1,0.2,2.2,0.1,3.2-0.5c0.9-0.6,1.6-1.5,1.9-2.6c0.5-2.2-0.9-4.4-3.2-4.9
		C98.8,85.5,98.4,85.5,98.1,85.5z"/>
	<path class="st0" d="M91.9,94.9c-0.8,0-1.4-0.2-1.7-0.7c-0.8-1.3,0.9-3.2,2.4-4.6c0.3-0.3,0.7-0.2,1,0.1c0.3,0.3,0.2,0.7-0.1,1
		c-2,1.8-2.2,2.7-2.2,2.8c0.4,0.4,3.4-0.2,7.5-2.7c4-2.5,5.9-4.9,5.8-5.4c-0.1-0.1-1.1-0.3-3.6,0.7c-0.4,0.1-0.8,0-0.9-0.4
		c-0.1-0.4,0-0.8,0.4-0.9c2-0.8,4.5-1.5,5.3-0.2c0.5,0.8,0.1,2-1.3,3.5c-1.2,1.3-2.9,2.6-4.9,3.8c-2,1.2-4,2.2-5.6,2.7
		C93.1,94.8,92.4,94.9,91.9,94.9z"/>
	<path class="st1" d="M31.8,124.4H24c-0.7,0-1.2-0.5-1.2-1.2c0-0.6,0.5-1.2,1.2-1.2h7.7c0.7,0,1.2,0.5,1.2,1.2
		C33,123.9,32.4,124.4,31.8,124.4z"/>
	<path class="st1" d="M27.9,128.2c-0.7,0-1.2-0.5-1.2-1.2v-7.6c0-0.6,0.5-1.2,1.2-1.2c0.7,0,1.2,0.5,1.2,1.2v7.6
		C29.1,127.7,28.6,128.2,27.9,128.2z"/>
	<path class="st1" d="M125.6,62.4h-4.3c-0.4,0-0.7-0.3-0.7-0.7s0.3-0.7,0.7-0.7h4.3c0.4,0,0.7,0.3,0.7,0.7S126,62.4,125.6,62.4z"/>
	<path class="st1" d="M123.5,64.5c-0.4,0-0.7-0.3-0.7-0.7v-4.2c0-0.4,0.3-0.7,0.7-0.7c0.4,0,0.7,0.3,0.7,0.7v4.2
		C124.2,64.2,123.9,64.5,123.5,64.5z"/>
	<path class="st1" d="M148,87.6h-6c-0.5,0-0.9-0.4-0.9-0.9c0-0.5,0.4-0.9,0.9-0.9h6c0.5,0,0.9,0.4,0.9,0.9
		C148.9,87.2,148.5,87.6,148,87.6z"/>
	<path class="st1" d="M145,90.6c-0.5,0-0.9-0.4-0.9-0.9v-5.9c0-0.5,0.4-0.9,0.9-0.9c0.5,0,0.9,0.4,0.9,0.9v5.9
		C145.9,90.2,145.5,90.6,145,90.6z"/>
	<path class="st1" d="M31.4,13.1c1.5,0,2.7-1.2,2.7-2.7c0-1.5-1.2-2.7-2.7-2.7c-1.5,0-2.7,1.2-2.7,2.7
		C28.7,11.9,29.9,13.1,31.4,13.1z"/>
	<path class="st0" d="M31.4,13.9c-1.9,0-3.4-1.5-3.4-3.4S29.5,7,31.4,7c1.9,0,3.4,1.5,3.4,3.4S33.3,13.9,31.4,13.9z M31.4,8.4
		c-1.1,0-2,0.9-2,2c0,1.1,0.9,2,2,2c1.1,0,2-0.9,2-2C33.4,9.3,32.5,8.4,31.4,8.4z"/>
</g>
</svg>
