<svg width="81" height="48" viewBox="0 0 81 48" fill="none" xmlns="http://www.w3.org/2000/svg">
<g opacity="0.8">
<path d="M70.5491 22.3147C68.4676 16.1554 62.5876 11.8532 55.872 12.1782C54.0335 12.2556 52.3166 12.6889 50.7213 13.3698C47.7281 9.90328 43.2763 7.79861 38.384 8.01527C31.486 8.34025 25.8491 13.1996 24.1474 19.6529C23.251 19.4981 22.3089 19.4363 21.3669 19.4827C14.2107 19.8232 8.68013 25.9824 9.01439 33.256C9.34865 40.5295 15.411 46.1626 22.5673 45.8222C24.7096 45.7293 26.7152 45.0948 28.4625 44.0734C32.2913 46.7352 37.2596 48.2209 42.623 47.9733C47.4394 47.7411 51.8152 46.1471 55.249 43.671C56.4949 44.027 57.8016 44.2127 59.169 44.1353C59.8527 44.1044 60.5213 44.0115 61.1898 43.8722C63.4233 45.7757 66.3405 46.8745 69.4856 46.7197C76.1405 46.4102 81.2911 40.6688 80.9872 33.9059C80.7137 27.9014 76.2164 23.0885 70.5491 22.3147Z" fill="url(#paint0_linear)"/>
<path opacity="0.8" d="M0.209108 8.55285L6.07747 10.6032C6.18188 10.6455 6.24453 10.7089 6.26541 10.8146L7.957 16.7753C8.04053 17.0713 8.45821 17.0713 8.54174 16.7965L10.5884 10.9202C10.6302 10.8146 10.6928 10.7511 10.7972 10.73L16.77 9.039C17.0624 8.95445 17.0833 8.55284 16.7909 8.44715L10.9225 6.39681C10.839 6.35453 10.7555 6.29114 10.7346 6.18545L9.04294 0.224654C8.9594 -0.0712717 8.54173 -0.0712601 8.45819 0.203528L6.41161 6.07976C6.36985 6.18545 6.30718 6.24885 6.20276 6.26999L0.230013 7.961C-0.0623614 8.04555 -0.0832656 8.4683 0.209108 8.55285Z" fill="#BEBCDB"/>
<path opacity="0.5" d="M76.9999 12C75.3478 12 74 10.6642 74 9C74 7.35766 75.3478 6 76.9999 6C78.652 6 79.9997 7.33576 79.9997 9C80.0215 10.6423 78.6738 12 76.9999 12Z" fill="#BEBCDB"/>
</g>
<defs>
<linearGradient id="paint0_linear" x1="34" y1="8" x2="51" y2="48" gradientUnits="userSpaceOnUse">
<stop stop-color="#EBEAF6"/>
<stop offset="1" stop-color="#DFDEEF"/>
</linearGradient>
</defs>
</svg>
