<svg width="280" height="159" viewBox="0 0 280 159" fill="none" xmlns="http://www.w3.org/2000/svg">
<ellipse opacity="0.6" cx="139" cy="134" rx="36" ry="2" fill="#D0CEEA"/>
<g opacity="0.4">
<path d="M159.001 43.7501C155.289 43.7501 152.251 40.7126 152.251 37.0001C152.251 33.2876 155.289 30.2501 159.001 30.2501V15.6251C147.189 15.6251 137.626 25.1876 137.626 37.0001C137.626 48.8126 147.189 58.3751 159.001 58.3751C163.951 58.3751 168.564 56.6876 172.276 53.7626L163.276 42.2876C162.039 43.1876 160.576 43.7501 159.001 43.7501Z" fill="#E1DFEF"/>
<path d="M165.75 37.0001H180.375C180.375 25.1876 170.812 15.6251 159 15.6251V30.2501C162.712 30.2501 165.75 33.2876 165.75 37.0001Z" fill="#F7F7FB"/>
<path d="M180.375 37H165.75C165.75 39.1375 164.737 41.05 163.162 42.2875L172.162 53.7625C177.225 49.825 180.375 43.75 180.375 37Z" fill="#EDECF4"/>
</g>
<g opacity="0.5">
<path d="M114.894 29.25H124.769V74.0999H114.894V29.25Z" fill="#E9E8F4"/>
<path d="M101.728 44.1999H111.603V74.0998H101.728V44.1999Z" fill="#E9E8F4"/>
<path d="M88.5625 36.725H98.4375V74.0999H88.5625V36.725Z" fill="#E9E8F4"/>
<path d="M75.3944 55.4124H85.2694V74.0998H75.3944V55.4124Z" fill="#E9E8F4"/>
<path d="M62.2285 47.9375H72.1035V74.1H62.2285V47.9375Z" fill="#E9E8F4"/>
<path d="M66.4611 32.5005C68.7984 32.5005 70.6932 30.5957 70.6932 28.246C70.6932 25.8963 68.7984 23.9915 66.4611 23.9915C64.1237 23.9915 62.2289 25.8963 62.2289 28.246C62.2289 30.5957 64.1237 32.5005 66.4611 32.5005Z" fill="#F0F0F7"/>
<path d="M80.3329 35.7502C82.6702 35.7502 84.565 33.8454 84.565 31.4957C84.565 29.146 82.6702 27.2411 80.3329 27.2411C77.9955 27.2411 76.1007 29.146 76.1007 31.4957C76.1007 33.8454 77.9955 35.7502 80.3329 35.7502Z" fill="#F0F0F7"/>
<path d="M93.5001 24.3749C95.8375 24.3749 97.7323 22.4701 97.7323 20.1204C97.7323 17.7707 95.8375 15.8658 93.5001 15.8658C91.1628 15.8658 89.268 17.7707 89.268 20.1204C89.268 22.4701 91.1628 24.3749 93.5001 24.3749Z" fill="#F0F0F7"/>
<path d="M106.667 27.6255C109.004 27.6255 110.899 25.7207 110.899 23.371C110.899 21.0213 109.004 19.1165 106.667 19.1165C104.329 19.1165 102.434 21.0213 102.434 23.371C102.434 25.7207 104.329 27.6255 106.667 27.6255Z" fill="#F0F0F7"/>
<path d="M119.127 21.1252C121.465 21.1252 123.36 19.2204 123.36 16.8707C123.36 14.521 121.465 12.6161 119.127 12.6161C116.79 12.6161 114.895 14.521 114.895 16.8707C114.895 19.2204 116.79 21.1252 119.127 21.1252Z" fill="#F0F0F7"/>
<path d="M66.6922 28.3678L80.2703 32.0905L93.8485 19.6814L107.25 23.936L119.947 16.4905" stroke="#F0F0F7" stroke-width="2"/>
</g>
<g filter="url(#filter0_d)">
<path d="M179.378 99.1594C177.684 80.5922 168.334 71.2778 168.334 71.2778L151.334 48.8333H128.667L111.667 71.2778C111.667 71.2778 107.647 75.2981 104.394 83.2715C98.7584 85.1232 94.667 90.3247 94.667 96.5278C94.6695 98.4563 95.0759 100.363 95.8606 102.128C96.6452 103.893 97.7912 105.478 99.2259 106.782C98.1084 108.799 97.5154 111.06 97.5004 113.361C97.5004 118.854 100.719 123.562 105.363 125.863C108.998 131.255 113.854 133 117.334 133H162.667C166.574 133 172.224 130.814 175.921 123.714C181.393 121.775 185.334 116.644 185.334 110.556C185.331 108.323 184.789 106.124 183.753 104.142C182.717 102.159 181.217 100.451 179.378 99.1594ZM140 48.8333C141.559 48.8333 142.998 48.3901 144.25 47.6662C145.506 48.3901 146.945 48.8333 148.5 48.8333C153.195 48.8333 159.834 42.2571 159.834 37.6111C159.834 37.6111 159.834 32 154.167 32C151.934 32 151.334 34.8056 148.5 34.8056C145.667 34.8056 145.667 32 140 32C134.334 32 134.334 34.8056 131.5 34.8056C128.667 34.8056 128.069 32 125.834 32C120.167 32 120.167 37.6111 120.167 37.6111C120.167 42.2571 126.808 48.8333 131.5 48.8333C133.056 48.8333 134.495 48.3901 135.75 47.6662C137.006 48.3901 138.445 48.8333 140 48.8333Z" fill="url(#paint0_linear)"/>
</g>
<g filter="url(#filter1_d)">
<path d="M157 48.8334C157 49.5775 156.702 50.2911 156.17 50.8172C155.639 51.3434 154.918 51.639 154.167 51.639H125.833C125.082 51.639 124.361 51.3434 123.83 50.8172C123.299 50.2911 123 49.5775 123 48.8334C123 48.0893 123.299 47.3757 123.83 46.8496C124.361 46.3234 125.082 46.0279 125.833 46.0279H154.167C154.918 46.0279 155.639 46.3234 156.17 46.8496C156.702 47.3757 157 48.0893 157 48.8334Z" fill="#CDCBEF"/>
</g>
<g opacity="0.7" filter="url(#filter2_i)">
<path d="M153.422 102.617C153.422 92.2836 134.07 92.9575 134.07 86.7233C134.07 83.7042 137.004 82.2293 140.409 82.2293C146.133 82.2293 147.153 85.8508 149.744 85.8508C151.577 85.8508 152.461 84.7129 152.461 83.4365C152.461 80.4729 147.897 78.2294 143.519 77.4538V74.5917C143.519 72.8075 142.053 71.3604 140.24 71.3604C138.425 71.3604 136.957 72.8075 136.957 74.5917V77.5531C132.184 78.6217 128.078 81.8808 128.078 87.1918C128.078 97.1145 147.425 96.7129 147.425 103.683C147.425 106.1 144.769 108.514 140.409 108.514C133.867 108.514 131.688 104.154 129.032 104.154C127.737 104.154 126.58 105.225 126.58 106.841C126.58 109.41 130.951 112.498 136.961 113.359L136.959 113.382V116.609C136.959 118.391 138.429 119.84 140.242 119.84C142.056 119.84 143.524 118.391 143.524 116.609V113.382C143.524 113.343 143.506 113.313 143.504 113.278C148.912 112.286 153.422 108.819 153.422 102.617Z" fill="#8784C8"/>
</g>
<path opacity="0.7" fill-rule="evenodd" clip-rule="evenodd" d="M203.873 51.0191C204.39 50.9139 204.892 51.2537 204.996 51.7779L206.981 61.8258C207.085 62.35 206.75 62.8602 206.234 62.9654L196.336 64.9809C195.82 65.0861 195.317 64.7463 195.214 64.2221C195.11 63.6978 195.445 63.1876 195.961 63.0824L203.601 61.5266L196.011 56.396C189.887 52.2561 181.617 53.9402 177.539 60.1578L176.748 61.3641C176.456 61.8092 175.864 61.9297 175.425 61.6334C174.987 61.337 174.868 60.736 175.16 60.291L175.951 59.0846C180.613 51.977 190.067 50.0517 197.068 54.7843L204.658 59.9149L203.126 52.1587C203.022 51.6345 203.357 51.1243 203.873 51.0191Z" fill="#DCDBED"/>
<path opacity="0.7" fill-rule="evenodd" clip-rule="evenodd" d="M145.957 145.218L145.957 152.92C145.957 153.441 145.519 153.863 144.979 153.863C144.438 153.863 144 153.441 144 152.92L144 142.943C144 142.422 144.438 142 144.979 142L155.338 142C155.879 142 156.317 142.422 156.317 142.943C156.317 143.463 155.879 143.885 155.338 143.885L147.341 143.885L153.958 150.258C159.298 155.4 167.954 155.4 173.293 150.258L174.329 149.26C174.711 148.892 175.331 148.892 175.713 149.26C176.096 149.628 176.096 150.225 175.713 150.593L174.677 151.591C168.574 157.47 158.678 157.47 152.574 151.591L145.957 145.218Z" fill="#DCDBED"/>
<g filter="url(#filter3_d)">
<path d="M95.5 132L109.953 110.32H102.167V95H88.8335V110.32H81.0469L95.5 132Z" fill="#B5B3DE"/>
</g>
<g opacity="0.45">
<path d="M73.5 103L82.8698 90.6953H77.2837V82H69.7163V90.6953H64.1302L73.5 103Z" fill="#B5B3DE"/>
</g>
<g filter="url(#filter4_d)">
<path d="M222.748 111.56C222.929 110.308 223.11 109.056 223.11 107.626C223.11 106.195 222.929 104.943 222.748 103.691L230.898 97.9691C231.622 97.4326 231.985 96.3597 231.441 95.4655L223.472 82.2325C222.929 81.3384 222.023 80.9808 221.118 81.5172L212.062 85.6302C209.888 84.0208 207.715 82.769 205.179 81.6961L204.274 71.8607C204.093 70.9666 203.368 70.2513 202.463 70.2513H186.887C185.981 70.2513 185.075 70.9666 185.075 71.8607L184.17 81.6961C181.634 82.769 179.28 84.0208 177.287 85.6302L168.231 81.5172C167.326 81.1596 166.239 81.5172 165.877 82.2325L158.089 95.4655C157.546 96.3597 157.908 97.4326 158.632 97.9691L166.783 103.691C166.601 104.943 166.42 106.195 166.42 107.626C166.42 109.056 166.601 110.308 166.783 111.56L158.27 117.282C157.546 117.819 157.183 118.892 157.727 119.786L165.515 133.019C166.058 133.913 166.964 134.27 167.869 133.734L176.925 129.621C179.099 131.23 181.272 132.482 183.808 133.555L184.713 143.391C184.894 144.285 185.619 145 186.524 145H202.1C203.006 145 203.912 144.285 203.912 143.391L204.817 133.555C207.353 132.482 209.707 131.23 211.7 129.621L220.755 133.734C221.661 134.092 222.748 133.734 223.11 133.019L230.898 119.786C231.441 118.892 231.079 117.819 230.355 117.282L222.748 111.56ZM194.493 125.508C184.532 125.508 176.382 117.461 176.382 107.626C176.382 97.7903 184.532 89.7432 194.493 89.7432C204.455 89.7432 212.605 97.7903 212.605 107.626C212.605 117.461 204.455 125.508 194.493 125.508Z" fill="#EBE9F5"/>
<path d="M222.748 111.56C222.929 110.308 223.11 109.056 223.11 107.626C223.11 106.195 222.929 104.943 222.748 103.691L230.898 97.9691C231.622 97.4326 231.985 96.3597 231.441 95.4655L223.472 82.2325C222.929 81.3384 222.023 80.9808 221.118 81.5172L212.062 85.6302C209.888 84.0208 207.715 82.769 205.179 81.6961L204.274 71.8607C204.093 70.9666 203.368 70.2513 202.463 70.2513H186.887C185.981 70.2513 185.075 70.9666 185.075 71.8607L184.17 81.6961C181.634 82.769 179.28 84.0208 177.287 85.6302L168.231 81.5172C167.326 81.1596 166.239 81.5172 165.877 82.2325L158.089 95.4655C157.546 96.3597 157.908 97.4326 158.632 97.9691L166.783 103.691C166.601 104.943 166.42 106.195 166.42 107.626C166.42 109.056 166.601 110.308 166.783 111.56L158.27 117.282C157.546 117.819 157.183 118.892 157.727 119.786L165.515 133.019C166.058 133.913 166.964 134.27 167.869 133.734L176.925 129.621C179.099 131.23 181.272 132.482 183.808 133.555L184.713 143.391C184.894 144.285 185.619 145 186.524 145H202.1C203.006 145 203.912 144.285 203.912 143.391L204.817 133.555C207.353 132.482 209.707 131.23 211.7 129.621L220.755 133.734C221.661 134.092 222.748 133.734 223.11 133.019L230.898 119.786C231.441 118.892 231.079 117.819 230.355 117.282L222.748 111.56ZM194.493 125.508C184.532 125.508 176.382 117.461 176.382 107.626C176.382 97.7903 184.532 89.7432 194.493 89.7432C204.455 89.7432 212.605 97.7903 212.605 107.626C212.605 117.461 204.455 125.508 194.493 125.508Z" fill="url(#paint1_linear)" fill-opacity="0.2"/>
<ellipse cx="194.5" cy="107.8" rx="17.5055" ry="17.5498" fill="white"/>
<g filter="url(#filter5_i)">
<path d="M194.528 88.0001C183.765 87.9723 175.028 96.6821 175 107.472C174.972 118.235 183.682 126.972 194.472 127C205.235 127.028 213.972 118.318 214 107.528C214 96.7653 205.29 88.0278 194.528 88.0001ZM194.445 125.419C190.423 125.391 186.761 124.087 183.793 121.896C184.736 120.648 185.846 119.649 187.177 118.789C187.233 118.845 187.316 118.873 187.371 118.928C189.452 120.065 191.837 120.842 194.389 120.842C196.969 120.842 199.41 120.093 201.518 118.928C201.573 118.9 201.657 118.845 201.712 118.789C203.043 119.649 204.153 120.648 205.096 121.896C202.128 124.087 198.467 125.419 194.445 125.419ZM194.5 118.568C188.398 118.568 183.433 113.602 183.433 107.5C183.433 101.398 188.398 96.4325 194.5 96.4325C200.602 96.4325 205.568 101.398 205.568 107.5C205.568 113.602 200.602 118.568 194.5 118.568Z" fill="#DEDDEE"/>
</g>
<path d="M194.471 100.785C194.298 100.785 194.124 100.785 193.951 100.812C193.112 100.867 192.476 100.757 192.216 100.647C191.522 100.344 191.175 100.206 190.886 100.069C190.684 99.9862 190.308 99.9587 190.105 100.096C189.903 100.234 189.932 100.564 190.163 100.895C190.25 101.032 190.424 101.28 190.366 101.363C190.25 101.5 189.556 101.06 188.602 100.895C188.284 100.84 187.966 100.867 187.793 101.115C187.648 101.308 187.821 101.638 188.024 101.913C188.226 102.216 188.689 102.96 188.284 103.4C186.867 104.832 186 106.786 186 108.906C186 113.366 189.787 117 194.5 117C199.184 117 203 113.394 203 108.906C202.971 104.391 199.155 100.785 194.471 100.785ZM190.568 109.539C190.51 110.117 189.961 110.558 189.325 110.503C188.718 110.448 188.255 109.925 188.313 109.319C188.371 108.741 188.92 108.3 189.556 108.355C190.192 108.411 190.626 108.934 190.568 109.539ZM199.242 108.108C198.461 108.438 197.565 108.08 197.218 107.337C196.871 106.594 197.247 105.74 198.027 105.41C198.808 105.079 199.704 105.437 200.051 106.181C200.369 106.924 200.022 107.777 199.242 108.108Z" fill="#DEDDEE"/>
</g>
<path opacity="0.5" d="M203.111 28.528L206.217 29.6135C206.273 29.6358 206.306 29.6694 206.317 29.7254L207.213 32.8811C207.257 33.0377 207.478 33.0377 207.522 32.8923L208.606 29.7813C208.628 29.7254 208.661 29.6918 208.716 29.6806L211.878 28.7854C212.033 28.7406 212.044 28.528 211.889 28.472L208.783 27.3865C208.738 27.3642 208.694 27.3306 208.683 27.2747L207.787 24.1189C207.743 23.9623 207.522 23.9623 207.478 24.1078L206.394 27.2187C206.372 27.2746 206.339 27.3082 206.284 27.3194L203.122 28.2146C202.967 28.2594 202.956 28.4832 203.111 28.528Z" fill="#F5E2A6"/>
<path opacity="0.5" d="M30.0861 36.5218L32.5025 37.366C32.5455 37.3834 32.5713 37.4095 32.5799 37.4531L33.2764 39.9075C33.3108 40.0293 33.4828 40.0293 33.5172 39.9162L34.3599 37.4966C34.3771 37.4531 34.4029 37.4269 34.4459 37.4182L36.9053 36.7219C37.0257 36.6871 37.0343 36.5218 36.9139 36.4782L34.4975 35.634C34.4631 35.6166 34.4287 35.5905 34.4201 35.547L33.7236 33.0925C33.6892 32.9707 33.5172 32.9707 33.4828 33.0838L32.6401 35.5034C32.6229 35.5469 32.5971 35.5731 32.5541 35.5818L30.0947 36.2781C29.9743 36.3129 29.9657 36.4869 30.0861 36.5218Z" fill="#F5E2A6"/>
<path d="M29.0861 99.5218L31.5025 100.366C31.5455 100.383 31.5713 100.41 31.5799 100.453L32.2764 102.907C32.3108 103.029 32.4828 103.029 32.5172 102.916L33.3599 100.497C33.3771 100.453 33.4029 100.427 33.4459 100.418L35.9053 99.7219C36.0257 99.6871 36.0343 99.5218 35.9139 99.4782L33.4975 98.634C33.4631 98.6166 33.4287 98.5905 33.4201 98.547L32.7236 96.0925C32.6892 95.9707 32.5172 95.9707 32.4828 96.0838L31.6401 98.5034C31.6229 98.5469 31.5971 98.5731 31.5541 98.5818L29.0947 99.2781C28.9743 99.3129 28.9657 99.4869 29.0861 99.5218Z" fill="#DEDDF0"/>
<path opacity="0.4" d="M240.135 104.534L243.932 105.861C244 105.888 244.041 105.929 244.054 105.998L245.149 109.855C245.203 110.046 245.473 110.046 245.527 109.868L246.851 106.066C246.878 105.998 246.919 105.957 246.986 105.943L250.851 104.849C251.04 104.794 251.054 104.534 250.865 104.466L247.068 103.139C247.013 103.112 246.959 103.071 246.946 103.002L245.851 99.1454C245.797 98.9539 245.527 98.9539 245.473 99.1317L244.149 102.934C244.122 103.002 244.081 103.043 244.014 103.057L240.149 104.151C239.96 104.206 239.946 104.479 240.135 104.534Z" fill="#9CD2B9"/>
<path opacity="0.5" d="M39.1476 73.0373L43.29 74.4846C43.3637 74.5144 43.4079 74.5592 43.4226 74.6338L44.6167 78.8414C44.6757 79.0503 44.9705 79.0503 45.0295 78.8563L46.4742 74.7084C46.5036 74.6338 46.5479 74.589 46.6216 74.5741L50.8376 73.3805C51.044 73.3208 51.0588 73.0373 50.8524 72.9627L46.71 71.5154C46.6511 71.4856 46.5921 71.4408 46.5774 71.3662L45.3832 67.1586C45.3243 66.9497 45.0295 66.9497 44.9705 67.1437L43.5258 71.2916C43.4964 71.3662 43.4521 71.411 43.3784 71.4259L39.1624 72.6195C38.956 72.6792 38.9412 72.9776 39.1476 73.0373Z" fill="#CDE8DC"/>
<path opacity="0.5" d="M268.148 74.0373L272.29 75.4846C272.364 75.5144 272.408 75.5592 272.423 75.6338L273.617 79.8414C273.676 80.0503 273.971 80.0503 274.029 79.8563L275.474 75.7084C275.504 75.6338 275.548 75.589 275.622 75.5741L279.838 74.3805C280.044 74.3208 280.059 74.0373 279.852 73.9627L275.71 72.5154C275.651 72.4856 275.592 72.4408 275.577 72.3662L274.383 68.1586C274.324 67.9497 274.029 67.9497 273.97 68.1437L272.526 72.2916C272.496 72.3662 272.452 72.411 272.378 72.4259L268.162 73.6195C267.956 73.6792 267.941 73.9776 268.148 74.0373Z" fill="#DEDDF0"/>
<g opacity="0.4" clip-path="url(#clip0)">
<path d="M50.322 118.788C51.2877 120.318 54.0559 121.993 56.3735 123.086C59.0774 124.325 63.9701 125.927 64.8714 124.106C65.4508 122.868 63.7126 121.338 62.1675 120.245C61.91 120.099 61.5881 120.172 61.395 120.464C61.2662 120.755 61.3306 121.119 61.5881 121.338C63.2619 122.503 63.8413 123.378 63.8413 123.669C63.5195 124.033 60.8156 123.888 56.7598 121.993C52.6396 120.099 51.0302 118.278 51.0302 117.841C51.0946 117.768 51.8671 117.477 54.0559 117.987C54.3778 118.06 54.6353 117.841 54.6997 117.477C54.7641 117.113 54.571 116.821 54.2491 116.748C51.8671 116.166 50.4508 116.311 50.0001 117.258C49.8714 117.477 49.807 117.841 49.9358 118.351C50.1289 118.424 50.1933 118.642 50.322 118.788Z" fill="#ABDAC5"/>
<path d="M53.5409 123.597C55.086 126.074 58.1118 126.729 60.3006 124.981C62.4894 123.305 63.0688 119.882 61.5238 117.332C59.9787 114.855 56.953 114.272 54.7641 115.948C52.5753 117.696 51.9959 121.12 53.5409 123.597ZM60.5581 118.133C61.7169 120.027 61.3306 122.65 59.6568 123.961C57.983 125.272 55.6654 124.835 54.5066 122.941C53.3478 121.047 53.7341 118.425 55.4079 117.113C57.0817 115.729 59.3993 116.239 60.5581 118.133Z" fill="#ABD9C7"/>
<path d="M50.1289 117.185C50.0001 117.404 49.9357 117.768 50.0645 118.278C50.1289 118.424 50.1932 118.642 50.322 118.788C51.2877 120.318 54.0559 121.993 56.3735 123.086C59.0774 124.324 63.9701 125.927 64.8714 124.106C64.8714 124.033 64.9357 123.96 64.9357 123.887L63.8413 123.377C63.9057 123.45 63.9057 123.523 63.9057 123.523C63.5838 123.887 60.8799 123.742 56.8241 121.848C52.704 119.954 51.0945 118.132 51.0945 117.695C51.0945 117.695 51.1589 117.623 51.2233 117.623L50.1289 117.185Z" fill="#ABDAC5"/>
</g>
<g opacity="0.7" clip-path="url(#clip1)">
<path d="M241.677 58.4437C240.712 59.8344 237.944 61.3576 235.626 62.351C232.922 63.4768 228.029 64.9338 227.128 63.2781C226.549 62.1523 228.287 60.7616 229.832 59.7682C230.089 59.6358 230.411 59.702 230.604 59.9669C230.733 60.2318 230.669 60.5629 230.411 60.7616C228.738 61.8212 228.158 62.6159 228.158 62.8808C228.48 63.2119 231.184 63.0795 235.24 61.3576C239.36 59.6358 240.969 57.9801 240.969 57.5828C240.905 57.5166 240.132 57.2517 237.944 57.7152C237.622 57.7815 237.364 57.5828 237.3 57.2517C237.235 56.9205 237.428 56.6556 237.75 56.5894C240.132 56.0596 241.549 56.192 241.999 57.053C242.128 57.2517 242.192 57.5828 242.064 58.0464C241.871 58.1126 241.806 58.3113 241.677 58.4437Z" fill="#CDE8DC"/>
<path d="M238.459 62.8154C236.914 65.067 233.889 65.663 231.7 64.0736C229.511 62.5505 228.932 59.4379 230.477 57.12C232.022 54.8683 235.047 54.3385 237.236 55.8617C239.425 57.4511 240.004 60.5637 238.459 62.8154ZM231.442 57.8485C230.283 59.5703 230.67 61.9544 232.344 63.1465C234.017 64.3385 236.335 63.9412 237.494 62.2193C238.653 60.4975 238.266 58.1134 236.592 56.9213C234.919 55.663 232.601 56.1266 231.442 57.8485Z" fill="#CDE8DC"/>
<path d="M241.871 56.9868C242 57.1854 242.065 57.5166 241.936 57.9801C241.871 58.1126 241.807 58.3113 241.678 58.4437C240.713 59.8344 237.944 61.3576 235.627 62.351C232.923 63.4768 228.03 64.9338 227.129 63.2781C227.129 63.2119 227.064 63.1457 227.064 63.0795L228.159 62.6159C228.095 62.6821 228.095 62.7483 228.095 62.7483C228.416 63.0795 231.12 62.947 235.176 61.2252C239.296 59.5033 240.906 57.8477 240.906 57.4503C240.906 57.4503 240.841 57.3841 240.777 57.3841L241.871 56.9868Z" fill="#CDE8DC"/>
</g>
<circle cx="2" cy="64" r="2" fill="#FBECD0"/>
<circle opacity="0.5" cx="266" cy="119" r="2" fill="#F8DAA2"/>
<circle opacity="0.5" cx="237" cy="33" r="2" fill="#DEDDF0"/>
<defs>
<filter id="filter0_d" x="93.667" y="32" width="91.6667" height="102" filterUnits="userSpaceOnUse" color-interpolation-filters="sRGB">
<feFlood flood-opacity="0" result="BackgroundImageFix"/>
<feColorMatrix in="SourceAlpha" type="matrix" values="0 0 0 0 0 0 0 0 0 0 0 0 0 0 0 0 0 0 127 0" result="hardAlpha"/>
<feOffset dx="-1" dy="1"/>
<feColorMatrix type="matrix" values="0 0 0 0 0 0 0 0 0 0 0 0 0 0 0 0 0 0 0.07 0"/>
<feBlend mode="normal" in2="BackgroundImageFix" result="effect1_dropShadow"/>
<feBlend mode="normal" in="SourceGraphic" in2="effect1_dropShadow" result="shape"/>
</filter>
<filter id="filter1_d" x="121" y="45.0279" width="38" height="9.61111" filterUnits="userSpaceOnUse" color-interpolation-filters="sRGB">
<feFlood flood-opacity="0" result="BackgroundImageFix"/>
<feColorMatrix in="SourceAlpha" type="matrix" values="0 0 0 0 0 0 0 0 0 0 0 0 0 0 0 0 0 0 127 0" result="hardAlpha"/>
<feOffset dy="1"/>
<feGaussianBlur stdDeviation="1"/>
<feColorMatrix type="matrix" values="0 0 0 0 0 0 0 0 0 0 0 0 0 0 0 0 0 0 0.07 0"/>
<feBlend mode="normal" in2="BackgroundImageFix" result="effect1_dropShadow"/>
<feBlend mode="normal" in="SourceGraphic" in2="effect1_dropShadow" result="shape"/>
</filter>
<filter id="filter2_i" x="126.58" y="71.3604" width="26.8421" height="50.48" filterUnits="userSpaceOnUse" color-interpolation-filters="sRGB">
<feFlood flood-opacity="0" result="BackgroundImageFix"/>
<feBlend mode="normal" in="SourceGraphic" in2="BackgroundImageFix" result="shape"/>
<feColorMatrix in="SourceAlpha" type="matrix" values="0 0 0 0 0 0 0 0 0 0 0 0 0 0 0 0 0 0 127 0" result="hardAlpha"/>
<feOffset dy="2"/>
<feGaussianBlur stdDeviation="2"/>
<feComposite in2="hardAlpha" operator="arithmetic" k2="-1" k3="1"/>
<feColorMatrix type="matrix" values="0 0 0 0 0.00416667 0 0 0 0 0.00416667 0 0 0 0 0.00416667 0 0 0 0.1 0"/>
<feBlend mode="normal" in2="shape" result="effect1_innerShadow"/>
</filter>
<filter id="filter3_d" x="77" y="95" width="38" height="37" filterUnits="userSpaceOnUse" color-interpolation-filters="sRGB">
<feFlood flood-opacity="0" result="BackgroundImageFix"/>
<feColorMatrix in="SourceAlpha" type="matrix" values="0 0 0 0 0 0 0 0 0 0 0 0 0 0 0 0 0 0 127 0" result="hardAlpha"/>
<feOffset dx="1"/>
<feColorMatrix type="matrix" values="0 0 0 0 0 0 0 0 0 0 0 0 0 0 0 0 0 0 0.06 0"/>
<feBlend mode="normal" in2="BackgroundImageFix" result="effect1_dropShadow"/>
<feBlend mode="normal" in="SourceGraphic" in2="effect1_dropShadow" result="shape"/>
</filter>
<filter id="filter4_d" x="153" y="67" width="81" height="78" filterUnits="userSpaceOnUse" color-interpolation-filters="sRGB">
<feFlood flood-opacity="0" result="BackgroundImageFix"/>
<feColorMatrix in="SourceAlpha" type="matrix" values="0 0 0 0 0 0 0 0 0 0 0 0 0 0 0 0 0 0 127 0" result="hardAlpha"/>
<feOffset dx="-2"/>
<feColorMatrix type="matrix" values="0 0 0 0 0 0 0 0 0 0 0 0 0 0 0 0 0 0 0.04 0"/>
<feBlend mode="normal" in2="BackgroundImageFix" result="effect1_dropShadow"/>
<feBlend mode="normal" in="SourceGraphic" in2="effect1_dropShadow" result="shape"/>
</filter>
<filter id="filter5_i" x="175" y="88" width="39" height="39" filterUnits="userSpaceOnUse" color-interpolation-filters="sRGB">
<feFlood flood-opacity="0" result="BackgroundImageFix"/>
<feBlend mode="normal" in="SourceGraphic" in2="BackgroundImageFix" result="shape"/>
<feColorMatrix in="SourceAlpha" type="matrix" values="0 0 0 0 0 0 0 0 0 0 0 0 0 0 0 0 0 0 127 0" result="hardAlpha"/>
<feOffset dx="1" dy="1"/>
<feComposite in2="hardAlpha" operator="arithmetic" k2="-1" k3="1"/>
<feColorMatrix type="matrix" values="0 0 0 0 0 0 0 0 0 0 0 0 0 0 0 0 0 0 0.04 0"/>
<feBlend mode="normal" in2="shape" result="effect1_innerShadow"/>
</filter>
<linearGradient id="paint0_linear" x1="164.467" y1="129.663" x2="130.827" y2="41.0661" gradientUnits="userSpaceOnUse">
<stop offset="0.208333" stop-color="#CDCBE9"/>
<stop offset="1" stop-color="#EBEAF6"/>
</linearGradient>
<linearGradient id="paint1_linear" x1="173" y1="70" x2="199.592" y2="112.943" gradientUnits="userSpaceOnUse">
<stop stop-color="white"/>
<stop offset="1" stop-color="white" stop-opacity="0"/>
</linearGradient>
<clipPath id="clip0">
<rect width="15" height="11" fill="white" transform="matrix(-1 0 0 1 65 115)"/>
</clipPath>
<clipPath id="clip1">
<rect width="15" height="10" fill="white" transform="translate(227 55)"/>
</clipPath>
</defs>
</svg>
