<svg width="256" height="320" viewBox="0 0 256 320" fill="none" xmlns="http://www.w3.org/2000/svg">
<g opacity="0.8">
<path opacity="0.8" d="M181.103 7.81631C203.767 12.161 219.267 29.7325 215.7 47.0388C212.133 64.3451 190.868 74.8551 168.207 70.4931C145.543 66.1484 130.043 48.5769 133.61 31.2707C137.177 13.9644 158.439 3.47162 181.103 7.81631Z" fill="url(#paint0_linear)"/>
</g>
<path d="M214.898 46.9917C218.326 30.1308 203.088 12.9559 180.863 8.63043C158.639 4.30494 137.843 14.4668 134.415 31.3277C130.988 48.1885 146.225 65.3635 168.45 69.689C190.675 74.0145 211.47 63.8525 214.898 46.9917Z" fill="#8C81D1"/>
<path opacity="0.1" d="M140.22 35.9821C143.65 19.1251 164.448 8.96109 186.659 13.2948C193.56 14.6065 200.127 17.3034 205.892 21.2594C199.762 15.2112 191.1 10.5719 180.973 8.5846C158.74 4.26476 137.946 14.4116 134.534 31.2719C132.238 42.5856 138.356 54.0531 149.343 61.6637C142.025 54.4381 138.355 45.1599 140.22 35.9821Z" fill="white"/>
<path opacity="0.7" d="M172.223 51.4351L198.764 179.275L221.396 320L120.164 300.344L15.6698 279.998L94.271 162.444L172.223 51.4351Z" fill="url(#paint1_linear)"/>
<path opacity="0.3" d="M160.879 211.994L160.443 198.645C160.096 189.103 153.448 180.847 144.079 178.306L144.112 178.271C142.1 177.719 140.017 177.471 137.93 177.525L137.861 177.527L137.791 177.528C135.766 177.56 133.76 177.886 131.833 178.483C131.138 178.686 130.478 178.922 129.814 179.206C128.683 179.681 127.563 180.244 126.53 180.915C126.224 181.094 125.925 181.293 125.654 181.506C125.384 181.718 125.085 181.918 124.815 182.13C124.274 182.555 123.741 183 123.223 183.486C122.96 183.719 122.726 183.965 122.492 184.211C121.768 184.956 121.109 185.747 120.501 186.612C120.303 186.891 120.105 187.17 119.914 187.47C117.586 191.079 116.402 195.295 116.558 199.587L117.271 220.63C117.375 223.923 118.257 227.168 119.836 230.094C120.076 230.54 120.336 230.979 120.617 231.41C120.898 231.841 121.171 232.252 121.473 232.676C121.671 232.952 121.89 233.22 122.101 233.469C122.416 233.865 122.771 234.246 123.099 234.615C123.33 234.855 123.562 235.096 123.823 235.35C124.307 235.824 124.804 236.27 125.343 236.701C125.86 237.14 126.412 237.544 126.976 237.92C127.391 238.211 127.839 238.467 128.267 238.73C128.864 239.071 129.462 239.412 130.078 239.677C132.778 240.93 135.714 241.635 138.705 241.744L138.823 241.747C138.875 241.451 138.926 241.155 139.006 240.872C139.485 239.175 140.86 237.618 142.627 237.402C142.758 237.378 142.877 237.382 143.016 237.378C143.948 237.368 144.974 237.602 145.87 237.558C146.568 237.609 147.227 237.373 147.717 236.874C149.007 235.463 147.396 233.011 148.336 231.356C148.375 231.273 148.421 231.21 148.488 231.14C148.46 231.127 148.432 231.114 148.395 231.081C149.22 230.045 150.853 229.969 152.223 229.941C153.72 229.937 155.546 229.629 156.071 228.239C156.411 227.285 155.952 226.2 156.256 225.213C156.603 224.094 157.863 223.527 159.037 223.291L159.107 223.29C161.582 223.397 163.362 221.118 162.351 218.89C161.006 215.903 160.884 212.686 160.879 211.994Z" fill="url(#paint2_linear)"/>
<path d="M136.444 238.258C136.953 236.52 138.336 234.946 140.158 234.718C141.98 234.491 144.143 235.479 145.353 234.166C146.989 232.369 144.086 228.969 147.276 227.488C147.943 227.197 148.686 227.061 149.414 227.113C151.02 227.161 153.446 227.013 154.045 225.375C154.404 224.403 153.937 223.298 154.246 222.327C154.61 221.187 155.904 220.588 157.099 220.355L157.164 220.348C159.684 220.447 161.523 218.114 160.493 215.874C159.127 212.878 159.031 209.623 159.018 208.917L158.637 195.366C158.269 183.283 147.998 173.731 135.647 174.023C123.302 174.379 113.57 184.438 113.867 196.514L114.446 217.846C114.794 229.474 124.346 238.822 136.233 239.177C136.277 238.847 136.353 238.555 136.444 238.258Z" fill="white"/>
<path opacity="0.3" d="M127.831 191.854C129.087 191.401 129.729 190.037 129.266 188.807C128.802 187.578 127.408 186.949 126.152 187.402C124.896 187.855 124.254 189.219 124.718 190.449C125.181 191.678 126.575 192.308 127.831 191.854Z" fill="black"/>
<path opacity="0.3" d="M142.345 191.476C143.601 191.023 144.243 189.659 143.78 188.429C143.316 187.2 141.922 186.57 140.666 187.024C139.41 187.477 138.768 188.841 139.232 190.071C139.695 191.3 141.089 191.93 142.345 191.476Z" fill="black"/>
<path d="M138.079 200.219C138.004 197.515 136.448 195.363 134.603 195.411C132.757 195.459 131.322 197.69 131.397 200.393C131.472 203.096 133.028 205.249 134.873 205.201C136.718 205.152 138.153 202.922 138.079 200.219Z" fill="#CCCCCC"/>
<path d="M161.561 172.757C163.441 172.079 164.403 170.037 163.709 168.196C163.015 166.356 160.929 165.414 159.049 166.092C157.169 166.771 156.208 168.813 156.901 170.653C157.595 172.493 159.682 173.435 161.561 172.757Z" fill="white"/>
<path d="M169.772 161.974C170.716 161.634 171.199 160.608 170.851 159.684C170.502 158.76 169.454 158.287 168.51 158.627C167.566 158.968 167.084 159.993 167.432 160.918C167.781 161.842 168.828 162.315 169.772 161.974Z" fill="white"/>
<path d="M148.347 199.834C144.907 200.958 138.224 203.946 139.021 206.908C140.017 210.612 146.109 209.07 150.823 208.197" stroke="#EBEAF6" stroke-width="0.75"/>
<path d="M104.844 209.891C103.984 206.733 111.1 203.522 114.766 202.311L117.437 211.222C112.413 212.171 105.92 213.837 104.844 209.891Z" fill="white"/>
<g opacity="0.5">
<g opacity="0.3">
<path opacity="0.3" d="M186.453 53.1369L191.993 43.6852C195.928 36.9143 194.943 28.4609 189.574 22.8656L189.613 22.8549C188.463 21.6494 187.13 20.6254 185.663 19.8097L185.614 19.7825L185.565 19.7552C184.151 18.9494 182.621 18.3553 181.027 17.9829C180.457 17.8395 179.898 17.7341 179.314 17.6599C178.324 17.5272 177.303 17.4605 176.295 17.5042C176.005 17.5034 175.711 17.5198 175.431 17.5569C175.151 17.594 174.857 17.6104 174.577 17.6474C174.017 17.7216 173.453 17.8131 172.882 17.9391C172.599 17.9935 172.329 18.0685 172.059 18.1435C171.233 18.3651 170.431 18.6452 169.632 18.9978C169.373 19.1107 169.113 19.2236 168.85 19.3538C165.661 20.9092 162.997 23.3545 161.227 26.3997L152.512 41.31C151.143 43.64 150.333 46.255 150.145 48.9336C150.116 49.3414 150.104 49.7525 150.109 50.167C150.115 50.5814 150.124 50.9785 150.147 51.3962C150.163 51.669 150.197 51.945 150.235 52.2037C150.279 52.6074 150.358 53.0178 150.423 53.4075C150.478 53.6695 150.533 53.9315 150.602 54.2141C150.73 54.7414 150.879 55.2547 151.062 55.7746C151.228 56.2912 151.433 56.797 151.659 57.2889C151.818 57.6605 152.016 58.0214 152.197 58.3789C152.461 58.8601 152.729 59.324 153.035 59.7771C154.355 61.7513 156.077 63.442 158.098 64.7397L158.178 64.7907C158.343 64.6062 158.508 64.4217 158.687 64.2577C159.762 63.274 161.394 62.7549 162.711 63.3268C162.812 63.3638 162.892 63.4149 162.99 63.4693C163.639 63.8434 164.246 64.4251 164.885 64.7613C165.346 65.0818 165.905 65.1872 166.462 65.0406C167.972 64.5883 167.931 62.2261 169.305 61.4607C169.368 61.4187 169.428 61.394 169.505 61.3726C169.491 61.352 169.477 61.3313 169.467 61.2934C170.49 60.9111 171.652 61.5259 172.613 62.0664C173.65 62.6753 175.047 63.2083 176.019 62.4569C176.671 61.9329 176.829 60.992 177.471 60.4301C178.201 59.7949 179.32 59.9161 180.235 60.2325L180.288 60.2423C181.953 61.3291 184.181 60.4731 184.457 58.5122C184.83 55.9045 186.15 53.6371 186.453 53.1369Z" fill="url(#paint3_linear)"/>
</g>
<path opacity="0.5" d="M159.243 63.4044C160.292 62.4555 161.849 61.962 163.139 62.5122C164.425 63.0796 165.429 64.5805 166.769 64.1713C168.575 63.6175 168.081 60.2399 170.773 60.5184C171.341 60.5905 171.863 60.7975 172.329 61.1013C173.359 61.7637 175.005 62.615 176.072 61.7591C176.7 61.2684 176.852 60.3463 177.469 59.8178C178.175 59.2162 179.265 59.3158 180.148 59.6272L180.197 59.6545C181.801 60.7131 183.972 59.8877 184.213 57.9955C184.545 55.4749 185.827 53.2963 186.108 52.8115L191.442 43.7058C196.176 35.5805 193.383 25.2704 185.191 20.627C176.972 16.0321 166.473 18.8629 161.686 26.9782L153.285 41.2966C148.741 49.117 151.125 59.0262 158.759 63.9045C158.903 63.7345 159.064 63.5678 159.243 63.4044Z" fill="white"/>
<path opacity="0.2" d="M172.643 29.4244C173.65 29.6159 174.631 28.9665 174.834 27.9739C175.036 26.9813 174.384 26.0213 173.377 25.8299C172.369 25.6384 171.389 26.2879 171.186 27.2805C170.984 28.2731 171.636 29.233 172.643 29.4244Z" fill="black"/>
<path opacity="0.2" d="M182.348 34.8734C183.355 35.0649 184.336 34.4154 184.538 33.4227C184.741 32.4301 184.089 31.4701 183.081 31.2786C182.074 31.0872 181.093 31.7367 180.891 32.7294C180.688 33.722 181.341 34.6819 182.348 34.8734Z" fill="black"/>
</g>
<path opacity="0.1" d="M215.133 37.6408C215.244 39.7201 215.099 41.8035 214.686 43.8533C211.257 60.7102 190.459 70.8743 168.247 66.5406C150.065 62.9834 136.553 50.8425 134.136 37.3324C134.981 52.0247 149.116 65.6994 168.622 69.4937C190.854 73.8135 211.649 63.6667 215.061 46.8064C215.671 43.7747 215.694 40.6656 215.133 37.6408Z" fill="black"/>
<g opacity="0.8">
<path opacity="0.8" d="M176.363 30.9898C222.291 39.8374 257.529 56.6277 255.098 68.4914C252.666 80.3551 213.459 82.8062 167.531 73.9587C121.602 65.1111 86.3638 48.3208 88.7954 36.4571C91.2445 24.5968 130.434 22.1423 176.363 30.9898Z" fill="url(#paint4_linear)"/>
</g>
<path d="M176.138 31.8802C131.694 23.2267 93.7805 25.4405 91.4569 36.8025L252.423 68.1237C254.747 56.7617 220.582 40.5338 176.138 31.8802Z" fill="white"/>
<path d="M167.756 73.0666C212.2 81.7201 250.114 79.5063 252.437 68.1442L91.471 36.8231C89.1474 48.1851 123.312 64.4131 167.756 73.0666Z" fill="white"/>
<path opacity="0.05" d="M167.756 73.0666C212.2 81.7201 250.114 79.5063 252.437 68.1442L91.471 36.8231C89.1474 48.1851 123.312 64.4131 167.756 73.0666Z" fill="black"/>
<path opacity="0.05" d="M139.464 40.5598L206.615 53.6247C209.29 54.14 211.024 56.693 210.497 59.3112L210.24 60.5859C209.713 63.2041 207.105 64.9025 204.431 64.3871L137.279 51.3222C134.605 50.8069 132.87 48.2539 133.397 45.6357L133.654 44.361C134.199 41.7461 136.789 40.0444 139.464 40.5598Z" fill="black"/>
<path opacity="0.05" d="M127.324 36.2701C127.54 35.205 123.44 33.5095 118.165 32.4829C112.891 31.4564 108.44 31.4876 108.223 32.5527C108.007 33.6178 112.107 35.3134 117.381 36.3399C122.656 37.3665 127.107 37.3352 127.324 36.2701Z" fill="black"/>
<path opacity="0.05" d="M124.361 50.8588C124.578 49.7937 120.477 48.0981 115.203 47.0716C109.928 46.045 105.477 46.0762 105.261 47.1413C105.044 48.2064 109.144 49.902 114.419 50.9286C119.693 51.9551 124.145 51.9239 124.361 50.8588Z" fill="black"/>
<path opacity="0.05" d="M236.078 57.4406C236.294 56.3754 232.194 54.6798 226.92 53.6533C221.645 52.6267 217.194 52.658 216.978 53.7231C216.761 54.7882 220.861 56.4839 226.136 57.5105C231.41 58.537 235.861 58.5057 236.078 57.4406Z" fill="black"/>
<path opacity="0.05" d="M233.115 72.0294C233.332 70.9643 229.232 69.2687 223.957 68.2422C218.683 67.2156 214.231 67.2469 214.015 68.312C213.798 69.3771 217.899 71.0727 223.173 72.0992C228.447 73.1258 232.899 73.0945 233.115 72.0294Z" fill="black"/>
<path opacity="0.05" d="M184.645 38.8541C184.862 37.789 180.761 36.0934 175.487 35.0669C170.212 34.0403 165.761 34.0715 165.545 35.1366C165.328 36.2017 169.428 37.8973 174.703 38.9238C179.977 39.9504 184.429 39.9191 184.645 38.8541Z" fill="black"/>
<path opacity="0.05" d="M195.747 20.1306C195.964 19.0655 191.863 17.3699 186.589 16.3434C181.315 15.3168 176.863 15.3481 176.647 16.4132C176.43 17.4783 180.53 19.1739 185.805 20.2005C191.079 21.227 195.531 21.1957 195.747 20.1306Z" fill="black"/>
<path opacity="0.05" d="M175.813 24.8409C176.03 23.7758 171.929 22.0802 166.655 21.0537C161.38 20.0271 156.929 20.0584 156.713 21.1234C156.496 22.1885 160.596 23.8841 165.871 24.9107C171.145 25.9372 175.597 25.906 175.813 24.8409Z" fill="black"/>
<path opacity="0.05" d="M210.204 35.2484C210.421 34.1833 206.321 32.4877 201.046 31.4612C195.772 30.4346 191.32 30.4659 191.104 31.531C190.887 32.5961 194.987 34.2917 200.262 35.3183C205.536 36.3448 209.988 36.3135 210.204 35.2484Z" fill="black"/>
<path opacity="0.05" d="M178.835 67.4645C179.052 66.3994 174.951 64.7038 169.677 63.6772C164.402 62.6507 159.951 62.6819 159.735 63.747C159.518 64.8121 163.618 66.5078 168.893 67.5343C174.167 68.5609 178.619 68.5296 178.835 67.4645Z" fill="black"/>
<defs>
<linearGradient id="paint0_linear" x1="168.195" y1="70.5034" x2="180.265" y2="7.65778" gradientUnits="userSpaceOnUse">
<stop stop-color="#808080" stop-opacity="0.25"/>
<stop offset="0.54" stop-color="#808080" stop-opacity="0.12"/>
<stop offset="1" stop-color="#808080" stop-opacity="0.1"/>
</linearGradient>
<linearGradient id="paint1_linear" x1="171.609" y1="51.3148" x2="126.005" y2="287.979" gradientUnits="userSpaceOnUse">
<stop offset="0.661458" stop-color="#EBEAF6"/>
<stop offset="1" stop-color="#EBEAF6" stop-opacity="0"/>
</linearGradient>
<linearGradient id="paint2_linear" x1="140.723" y1="243.323" x2="139.392" y2="179.015" gradientUnits="userSpaceOnUse">
<stop stop-color="#808080" stop-opacity="0.25"/>
<stop offset="0.54" stop-color="#808080" stop-opacity="0.12"/>
<stop offset="1" stop-color="#808080" stop-opacity="0.1"/>
</linearGradient>
<linearGradient id="paint3_linear" x1="158.949" y1="66.4312" x2="184.826" y2="20.4562" gradientUnits="userSpaceOnUse">
<stop stop-color="#808080" stop-opacity="0.25"/>
<stop offset="0.54" stop-color="#808080" stop-opacity="0.12"/>
<stop offset="1" stop-color="#808080" stop-opacity="0.1"/>
</linearGradient>
<linearGradient id="paint4_linear" x1="167.534" y1="73.951" x2="175.829" y2="30.8859" gradientUnits="userSpaceOnUse">
<stop stop-color="#808080" stop-opacity="0.25"/>
<stop offset="0.54" stop-color="#808080" stop-opacity="0.12"/>
<stop offset="1" stop-color="#808080" stop-opacity="0.1"/>
</linearGradient>
</defs>
</svg>
