<svg width="343" height="180" viewBox="0 0 343 180" fill="none" xmlns="http://www.w3.org/2000/svg">
<path opacity="0.5" d="M155.5 0H0.5V8H155.5V0Z" fill="#DDDDDF"/>
<path opacity="0.5" d="M288.5 12H0.5V20H288.5V12Z" fill="#DDDDDF"/>
<path opacity="0.5" d="M288.5 24H0.5V32H288.5V24Z" fill="#DDDDDF"/>
<path d="M282.5 40H6.5C3.18629 40 0.5 42.6863 0.5 46V146C0.5 149.314 3.18629 152 6.49999 152H282.5C285.814 152 288.5 149.314 288.5 146V46C288.5 42.6863 285.814 40 282.5 40Z" fill="#F4F4F5"/>
<path fill-rule="evenodd" clip-rule="evenodd" d="M9.5 40H6.5C5.68645 40 4.91072 40.1619 4.20327 40.4553L4.96938 42.3027C5.43824 42.1083 5.95395 42 6.5 42H9.5V40ZM0.5 142.875H2.5V146C2.5 146.546 2.60831 147.062 2.80273 147.531L0.955283 148.297C0.661917 147.589 0.5 146.814 0.5 146V142.875ZM279.5 152V150H282.5C283.046 150 283.562 149.892 284.031 149.697L284.797 151.545C284.089 151.838 283.314 152 282.5 152H279.5ZM288.5 49.125H286.5V46C286.5 45.4539 286.392 44.9382 286.197 44.4694L288.045 43.7033C288.338 44.4107 288.5 45.1865 288.5 46V49.125ZM15.5 40V42H21.5V40H15.5ZM27.5 40V42H33.5V40H27.5ZM39.5 40V42H45.5V40H39.5ZM51.5 40V42H57.5V40H51.5ZM63.5 40V42H69.5V40H63.5ZM75.5 40V42H81.5V40H75.5ZM87.5 40V42H93.5V40H87.5ZM99.5 40V42H105.5V40H99.5ZM111.5 40V42H117.5V40H111.5ZM123.5 40V42H129.5V40H123.5ZM135.5 40V42H141.5V40H135.5ZM147.5 40V42H153.5V40H147.5ZM159.5 40V42H165.5V40H159.5ZM171.5 40V42H177.5V40H171.5ZM183.5 40V42H189.5V40H183.5ZM195.5 40V42H201.5V40H195.5ZM207.5 40V42H213.5V40H207.5ZM219.5 40V42H225.5V40H219.5ZM231.5 40V42H237.5V40H231.5ZM243.5 40V42H249.5V40H243.5ZM255.5 40V42H261.5V40H255.5ZM267.5 40V42H273.5V40H267.5ZM279.5 40V42H282.5C283.046 42 283.562 42.1083 284.031 42.3027L284.797 40.4553C284.089 40.1619 283.314 40 282.5 40H279.5ZM288.5 55.375H286.5V61.625H288.5V55.375ZM288.5 67.875H286.5V74.125H288.5V67.875ZM288.5 80.375H286.5V86.625H288.5V80.375ZM288.5 92.875H286.5V99.125H288.5V92.875ZM288.5 105.375H286.5V111.625H288.5V105.375ZM288.5 117.875H286.5V124.125H288.5V117.875ZM288.5 130.375H286.5V136.625H288.5V130.375ZM288.5 142.875H286.5V146C286.5 146.546 286.392 147.062 286.197 147.531L288.045 148.297C288.338 147.589 288.5 146.814 288.5 146V142.875ZM273.5 152V150H267.5V152H273.5ZM261.5 152V150H255.5V152H261.5ZM249.5 152V150H243.5V152H249.5ZM237.5 152V150H231.5V152H237.5ZM225.5 152V150H219.5V152H225.5ZM213.5 152V150H207.5V152H213.5ZM201.5 152V150H195.5V152H201.5ZM189.5 152V150H183.5V152H189.5ZM177.5 152V150H171.5V152H177.5ZM165.5 152V150H159.5V152H165.5ZM153.5 152V150H147.5V152H153.5ZM141.5 152V150H135.5V152H141.5ZM129.5 152V150H123.5V152H129.5ZM117.5 152V150H111.5V152H117.5ZM105.5 152V150H99.5V152H105.5ZM93.5 152V150H87.5V152H93.5ZM81.5 152V150H75.5V152H81.5ZM69.5 152V150H63.5V152H69.5ZM57.5 152V150H51.5V152H57.5ZM45.5 152V150H39.5V152H45.5ZM33.5 152V150H27.5V152H33.5ZM21.5 152V150H15.5V152H21.5ZM9.49999 152V150H6.49999C5.95394 150 5.43823 149.892 4.96938 149.697L4.20327 151.545C4.91072 151.838 5.68645 152 6.49999 152H9.49999ZM0.5 136.625H2.5V130.375H0.5V136.625ZM0.5 124.125H2.5V117.875H0.5V124.125ZM0.5 111.625H2.5V105.375H0.5V111.625ZM0.5 99.125H2.5V92.875H0.5V99.125ZM0.5 86.625H2.5V80.375H0.5V86.625ZM0.5 74.125H2.5V67.875H0.5V74.125ZM0.5 61.625H2.5V55.375H0.5V61.625ZM0.5 49.125H2.5V46C2.5 45.4539 2.60831 44.9382 2.80273 44.4694L0.955283 43.7033C0.661917 44.4107 0.5 45.1864 0.5 46V49.125Z" fill="#C2C2C6"/>
<g opacity="0.7">
<path d="M147.5 94C148.093 94 148.673 93.8241 149.167 93.4944C149.66 93.1648 150.045 92.6962 150.272 92.1481C150.499 91.5999 150.558 90.9967 150.442 90.4147C150.327 89.8328 150.041 89.2982 149.621 88.8787C149.202 88.4591 148.667 88.1734 148.085 88.0576C147.503 87.9419 146.9 88.0013 146.352 88.2284C145.804 88.4554 145.335 88.8399 145.006 89.3333C144.676 89.8266 144.5 90.4067 144.5 91C144.5 91.7956 144.816 92.5587 145.379 93.1213C145.941 93.6839 146.704 94 147.5 94ZM147.5 90C147.698 90 147.891 90.0586 148.056 90.1685C148.22 90.2784 148.348 90.4346 148.424 90.6173C148.5 90.8 148.519 91.0011 148.481 91.1951C148.442 91.3891 148.347 91.5673 148.207 91.7071C148.067 91.847 147.889 91.9422 147.695 91.9808C147.501 92.0194 147.3 91.9996 147.117 91.9239C146.935 91.8482 146.778 91.72 146.669 91.5556C146.559 91.3911 146.5 91.1978 146.5 91C146.5 90.7348 146.605 90.4804 146.793 90.2929C146.98 90.1054 147.235 90 147.5 90Z" fill="#C2C2C6"/>
<path d="M154.5 84H134.5C133.97 84 133.461 84.2107 133.086 84.5858C132.711 84.9609 132.5 85.4696 132.5 86V106C132.5 106.53 132.711 107.039 133.086 107.414C133.461 107.789 133.97 108 134.5 108H154.5C155.03 108 155.539 107.789 155.914 107.414C156.289 107.039 156.5 106.53 156.5 106V86C156.5 85.4696 156.289 84.9609 155.914 84.5858C155.539 84.2107 155.03 84 154.5 84ZM154.5 106H134.5V100L139.5 95L145.09 100.59C145.465 100.963 145.972 101.172 146.5 101.172C147.028 101.172 147.535 100.963 147.91 100.59L149.5 99L154.5 104V106ZM154.5 101.17L150.91 97.58C150.535 97.2075 150.028 96.9984 149.5 96.9984C148.972 96.9984 148.465 97.2075 148.09 97.58L146.5 99.17L140.91 93.58C140.535 93.2075 140.028 92.9984 139.5 92.9984C138.972 92.9984 138.465 93.2075 138.09 93.58L134.5 97.17V86H154.5V101.17Z" fill="#C2C2C6"/>
</g>
<path opacity="0.5" d="M288.5 160H0.5V168H288.5V160Z" fill="#DDDDDF"/>
<path opacity="0.5" d="M288.5 172H0.5V180H288.5V172Z" fill="#DDDDDF"/>
<path d="M273.046 46.9998C262.609 56.128 259.27 62.2213 257.473 73.1242C257.193 74.8244 257.058 80.29 259.35 80.6496C261.362 80.9651 263.817 79.1453 264.691 76.5689C265.868 71.0853 265.835 63.5275 259.106 63.0579C251.78 62.5468 243.402 66.9329 237.35 70.8085C234.414 72.6883 231.029 75.2329 228.75 78.0665C227.238 79.9475 228.956 78.9828 230.361 78.5924C232.358 78.0372 236.971 76.7552 232.548 77.9844C230.751 78.4838 228.88 79.364 227.419 80.3565C225.857 81.4177 227.803 78.2947 227.938 77.7784C228.363 76.1505 228.66 73.627 228.179 71.8968" stroke="#B7AFED" stroke-width="2" stroke-linecap="round"/>
<path opacity="0.4" d="M338.5 3H281.5C279.291 3 277.5 4.79086 277.5 7V64C277.5 66.2091 279.291 68 281.5 68H338.5C340.709 68 342.5 66.2091 342.5 64V7C342.5 4.79086 340.709 3 338.5 3Z" fill="#E4E4FC"/>
<path opacity="0.7" d="M335.5 6H278.5C276.291 6 274.5 7.79086 274.5 10V66C274.5 68.2091 276.291 70 278.5 70H335.5C337.709 70 339.5 68.2091 339.5 66V10C339.5 7.79086 337.709 6 335.5 6Z" fill="#E4E4FC"/>
<path d="M275.5 8.5H332.5C334.433 8.5 336 10.067 336 12V70C336 71.933 334.433 73.5 332.5 73.5H275.5C273.567 73.5 272 71.933 272 70V12C272 10.067 273.567 8.5 275.5 8.5Z" fill="url(#paint0_linear_25568_331651)" stroke="url(#paint1_linear_25568_331651)"/>
<g opacity="0.9">
<path d="M306 40C306.593 40 307.173 39.8241 307.667 39.4944C308.16 39.1648 308.545 38.6962 308.772 38.1481C308.999 37.5999 309.058 36.9967 308.942 36.4147C308.827 35.8328 308.541 35.2982 308.121 34.8787C307.702 34.4591 307.167 34.1734 306.585 34.0576C306.003 33.9419 305.4 34.0013 304.852 34.2284C304.304 34.4554 303.835 34.8399 303.506 35.3333C303.176 35.8266 303 36.4067 303 37C303 37.7956 303.316 38.5587 303.879 39.1213C304.441 39.6839 305.204 40 306 40ZM306 36C306.198 36 306.391 36.0586 306.556 36.1685C306.72 36.2784 306.848 36.4346 306.924 36.6173C307 36.8 307.019 37.0011 306.981 37.1951C306.942 37.3891 306.847 37.5673 306.707 37.7071C306.567 37.847 306.389 37.9422 306.195 37.9808C306.001 38.0194 305.8 37.9996 305.617 37.9239C305.435 37.8482 305.278 37.72 305.169 37.5556C305.059 37.3911 305 37.1978 305 37C305 36.7348 305.105 36.4804 305.293 36.2929C305.48 36.1054 305.735 36 306 36Z" fill="#897CD6"/>
<path d="M313 30H293C292.47 30 291.961 30.2107 291.586 30.5858C291.211 30.9609 291 31.4696 291 32V52C291 52.5304 291.211 53.0391 291.586 53.4142C291.961 53.7893 292.47 54 293 54H313C313.53 54 314.039 53.7893 314.414 53.4142C314.789 53.0391 315 52.5304 315 52V32C315 31.4696 314.789 30.9609 314.414 30.5858C314.039 30.2107 313.53 30 313 30ZM313 52H293V46L298 41L303.59 46.59C303.965 46.9625 304.472 47.1716 305 47.1716C305.528 47.1716 306.035 46.9625 306.41 46.59L308 45L313 50V52ZM313 47.17L309.41 43.58C309.035 43.2075 308.528 42.9984 308 42.9984C307.472 42.9984 306.965 43.2075 306.59 43.58L305 45.17L299.41 39.58C299.035 39.2075 298.528 38.9984 298 38.9984C297.472 38.9984 296.965 39.2075 296.59 39.58L293 43.17V32H313V47.17Z" fill="#897CD6"/>
</g>
<defs>
<linearGradient id="paint0_linear_25568_331651" x1="304" y1="8" x2="304" y2="74" gradientUnits="userSpaceOnUse">
<stop stop-color="#F2F1FF"/>
<stop offset="1" stop-color="#E4E4FC"/>
</linearGradient>
<linearGradient id="paint1_linear_25568_331651" x1="304" y1="8" x2="304" y2="74" gradientUnits="userSpaceOnUse">
<stop stop-color="#DFDCF9"/>
<stop offset="1" stop-color="#D5D1F5"/>
</linearGradient>
</defs>
</svg>
