<svg width="44" height="37" viewBox="0 0 44 37" fill="none" xmlns="http://www.w3.org/2000/svg">
<path fill-rule="evenodd" clip-rule="evenodd" d="M4.39587 10.6875C4.39587 7.99511 6.57849 5.8125 9.27087 5.8125H34.7294C37.4218 5.8125 39.6044 7.99511 39.6044 10.6875V27.1875C39.6044 29.8799 37.4218 32.0625 34.7294 32.0625H9.27087C6.57849 32.0625 4.39587 29.8799 4.39587 27.1875V10.6875ZM9.27087 7.5625C7.54498 7.5625 6.14587 8.96161 6.14587 10.6875V10.9646L20.6445 21.4801C21.3844 22.0167 22.3846 22.0201 23.1282 21.4884L37.8544 10.9583V10.6875C37.8544 8.96161 36.4553 7.5625 34.7294 7.5625H9.27087ZM37.8544 13.1097L29.559 19.0413L37.677 28.228C37.7919 27.9025 37.8544 27.5523 37.8544 27.1875V13.1097ZM36.6206 29.6754L28.128 20.0646L24.146 22.912C22.7902 23.8815 20.9663 23.8753 19.6171 22.8967L15.9501 20.2371L7.78152 29.9354C8.22426 30.1759 8.73162 30.3125 9.27087 30.3125H34.7294C35.4402 30.3125 36.0956 30.0752 36.6206 29.6754ZM6.53501 28.6989L14.5297 19.207L6.14587 13.1264V27.1875C6.14587 27.7357 6.28704 28.251 6.53501 28.6989Z" fill="#232533"/>
</svg>
