<?xml version="1.0" encoding="utf-8"?>
<!-- Generator: Adobe Illustrator 24.0.0, SVG Export Plug-In . SVG Version: 6.00 Build 0)  -->
<svg version="1.1" id="Layer_1" xmlns="http://www.w3.org/2000/svg" xmlns:xlink="http://www.w3.org/1999/xlink" x="0px" y="0px"
	 viewBox="0 0 183 160" style="enable-background:new 0 0 183 160;" xml:space="preserve">
<style type="text/css">
	.st0{fill:#F0F0F7;}
	.st1{fill:#FFFFFF;stroke:#DADAEA;stroke-width:2;stroke-linecap:round;stroke-miterlimit:10;}
	.st2{fill:#F8F8FC;}
	.st3{fill:#F0F0F7;stroke:#DADAEA;stroke-width:1.6;stroke-linecap:round;stroke-miterlimit:10;}
	.st4{fill:#DADAEA;stroke:#DADAEA;stroke-width:1.6;stroke-linecap:round;stroke-miterlimit:10;}
	.st5{fill:none;stroke:#DADAEA;stroke-width:1.6;stroke-linecap:round;stroke-miterlimit:10;}
	.st6{fill:#DADAEA;}
	.st7{opacity:0.36;fill:#F8F8FC;enable-background:new    ;}
</style>
<path class="st0" d="M106.4,57.6c0,0,10.9,2.8,13.4,14c0,0,0.1,11.1,10.2,10.5l3.4,0.3c0,0-4.6,7.8-0.6,13.9c0,0-13.9-0.2-16.5-2.9
	l-4.3-4.6c0,0,2.1,44.3-0.8,55.3c0,0,9.4,0.7,9.5,5c0,0,2.4,6.3-4.8,7H97c0,0-4.9,0.4-2.9-8.8c0,0,1-7.8-0.4-24.7c0,0-0.7-5-6.2-2.7
	c0,0-1.8,2.2-2.4,18.5c0,0-0.1,6.1,0.4,10.3c0,0,2.3,5.5-2.9,7.8l-19.9,0.4c0,0-7-0.7-3.7-7.3c0,0,3.5-5.5,10.3-5
	c0,0-2.1-18.4-0.7-36.2c0,0-6.4-2.3-12.1-0.7c0,0,0.9-26.8,4.2-34.1c0,0,3.7-11.6,10.6-15.3c0,0,5,6.5,18.1,6.6
	C89.3,65,101.2,64.8,106.4,57.6z"/>
<path class="st1" d="M134.7,59.6c0,0,0.9,8,16.4,5.4c0,0,9.5-3.3,15.4-2.4l7,1.2c0,0,3.7,1.6,3.4-3.2l1.2-24.8c0,0,0.2-2.1-3.7-3.5
	c0,0-5.4-3.1-13.7-0.6c0,0-14.7,4-19,1.7c-4.1-2.1-5.6-0.9-5.8,0.7L134.7,59.6z"/>
<path class="st2" d="M102.8,82.6c2.3,0,4.2-1.9,4.2-4.2c0-2.3-1.9-4.2-4.2-4.2s-4.2,1.9-4.2,4.2C98.6,80.7,100.5,82.6,102.8,82.6z"
	/>
<path class="st2" d="M58.6,81.8l5.8,0.1v4.9h-6.7L58.6,81.8z"/>
<path class="st3" d="M89.1,59.6c14.9,0,27-12.5,27-27.9S104,3.8,89.1,3.8s-27,12.5-27,27.9S74.2,59.6,89.1,59.6z"/>
<path class="st4" d="M109.6,36.1c-0.2,12.9-9,18.9-20.3,18.7c-11.2-0.1-20.2-5.5-20-18.5c0.2-12.9,8.8-21.3,20-21.1
	C100.6,15.3,109.8,23.2,109.6,36.1z"/>
<path class="st5" d="M106.6,57.6c2.1,0.6,11,4.1,14.2,17.1c1.4,5.7,2.7,6.8,10.4,7.7c3.7,0.4,11.8,0.6,11.1,6.8
	c-0.8,6.9-9.4,6.9-17.3,6.4c-3.2-0.2-9.3-0.9-12.7-7.1"/>
<path class="st5" d="M71.3,58.3c-3.5,1.8-11.7,8.4-13.7,30.2c-0.4,4.8-0.9,14.5-1,19.4c-0.1,2.8-0.2,9.5,6.4,9.8
	c1.7,0.1,4.1-0.3,5.2-4.5"/>
<path class="st5" d="M69.2,80.3c0,0-2.1,51.8-0.3,63.8"/>
<path class="st5" d="M74.9,147.1c0,0-4.8-4.7-12.1-1.1c0,0-5.7,2.2-4.1,7.9c0.9,3.2,5.4,2.8,10.7,2.6c3.4-0.1,12.5-0.1,12.5-0.1
	s5,0.3,3.5-9c-1-6.3,0.9-24.1,0.9-24.1s0.4-5,4.4-4.1c0,0,2.9,0.2,3.1,4.8c0,0,1.2,16.1,0.3,22.5c-0.3,2.5-1.6,9.5,3.1,9.5
	c4.3,0,11.7-0.2,16,0c2,0.1,8.4,0.3,7.7-5.3c-0.4-3-3.7-6.2-9.9-6.3c-1.2,0-4.4,0.8-6.5,2.9"/>
<path class="st5" d="M111.8,81c0,0,2,51.7-0.3,63"/>
<path class="st5" d="M139.2,32.5c3.6,1.8,10.4,3.3,21.8-1c0,0,10.2-2.7,16.1,2.5c0.6,0.5,0.9,1.3,0.8,2.1l-1.3,26.2
	c-0.1,1.3-1.2,2.3-2.3,1.9c-3.7-1.2-11.8-3.1-20.5,0.1c-4.6,1.7-16.2,2.6-19.1-4.2c0,0,0.7-16.5,1.1-25
	C135.8,33,137.6,31.7,139.2,32.5z"/>
<path class="st2" d="M129.2,153.5L135.8,34c0.1-1.1,0.9-1.9,1.9-1.8c0.8,0.1,1.4,1,1.4,2l-6.3,120"/>
<path class="st5" d="M129.2,153.5L135.8,34c0.1-1.1,0.9-1.9,1.9-1.8c0.8,0.1,1.4,1,1.4,2l-6.3,120"/>
<path class="st5" d="M59.2,81.8h5.2v4.9h-6.3"/>
<path class="st5" d="M102.7,82.2c2.3,0,4.1-1.8,4.1-4.1c0-2.3-1.8-4.1-4.1-4.1c-2.3,0-4.1,1.8-4.1,4.1
	C98.6,80.4,100.5,82.2,102.7,82.2z"/>
<path class="st5" d="M98.5,78.5c-1.5,1.4-2.3,2.6-1.9,3.2c0.6,0.9,3.7,0,7-2.1s5.5-4.5,5-5.4c-0.4-0.6-1.8-0.4-3.7,0.4"/>
<path class="st4" d="M156.5,55.4c3.7,0,6.7-3,6.7-6.7s-3-6.7-6.7-6.7s-6.7,3-6.7,6.7S152.8,55.4,156.5,55.4z"/>
<path class="st5" d="M149.6,49.4c-2.5,2.2-3.8,4.2-3.2,5.2c0.9,1.5,6.1-0.1,11.6-3.5c5.4-3.4,9.1-7.4,8.2-8.9c-0.6-1-3-0.7-6,0.6"/>
<path class="st5" d="M72.1,53.5c0,0-3.3,2.7,0.5,6.2c0,0,10.7,9.3,26.1,3.4c0,0,11.6-4.2,7.7-10C106.4,53,89.7,67.9,72.1,53.5z"/>
<path class="st6" d="M169.3,88.7l-2.8,1c0,0-0.1,0-0.1,0.1l-0.8,2.8c0,0.1-0.2,0.1-0.3,0l-1-2.8l-0.1-0.1l-2.8-0.8
	c-0.1,0-0.1-0.2,0-0.3l2.8-1c0,0,0.1,0,0.1-0.1l0.8-2.8c0-0.1,0.2-0.1,0.3,0l1,2.8c0,0,0,0.1,0.1,0.1l2.8,0.8
	C169.4,88.5,169.4,88.7,169.3,88.7z"/>
<path class="st6" d="M139.4,11.3l-3.2,1.1l-0.1,0.1l-0.9,3.3c0,0.2-0.3,0.2-0.3,0l-1.1-3.3l-0.1-0.1l-3.3-0.9c-0.2,0-0.2-0.3,0-0.3
	l3.2-1.1c0.1,0,0.1-0.1,0.1-0.1l0.9-3.3c0.1-0.2,0.3-0.2,0.3,0L136,10l0.1,0.1l3.3,0.9C139.5,11.1,139.5,11.3,139.4,11.3z"/>
<path class="st6" d="M13.4,51.2l-3.6,1.3c-0.1,0-0.1,0.1-0.1,0.1l-1.1,3.7c0,0.2-0.3,0.2-0.4,0l-1.3-3.7c0-0.1-0.1-0.1-0.1-0.1
	l-3.7-1.1c-0.2,0-0.2-0.3,0-0.4l3.6-1.3c0.1,0,0.1-0.1,0.1-0.1L7.9,46c0-0.2,0.3-0.2,0.4,0l1.3,3.7c0,0.1,0.1,0.1,0.1,0.1l3.7,1.1
	C13.5,50.9,13.5,51.1,13.4,51.2z"/>
<path class="st5" d="M56.6,107.6c0,0,6.4-1.2,11.6,0.9"/>
<path class="st6" d="M34.5,81.9c1.5,0,2.6,1.2,2.6,2.7s-1.2,2.7-2.6,2.7s-2.6-1.2-2.6-2.7S33,81.9,34.5,81.9z"/>
<path class="st6" d="M35.3,29.3c0.9,0,1.6,0.7,1.6,1.6s-0.7,1.6-1.6,1.6s-1.6-0.7-1.6-1.6S34.4,29.3,35.3,29.3z"/>
<path class="st2" d="M141.5,154l-4,1.1l1-2.1l-5.8,1.8l-0.6-1.8l-4.4,1.4l-0.3-1.3l-2.9,1.7"/>
<path class="st5" d="M141.5,154l-4,1.1l1-2.1l-5.8,1.8l-0.6-1.8l-4.4,1.4l-0.3-1.3l-2.9,1.7"/>
<g>
	<path class="st7" d="M99.4,21.7c0,0.5-0.2,0.9-0.6,1.2c-0.4,0.3-1,0.2-1.5,0.1c-0.6-0.1-1.1-0.3-1.6-0.6c-0.5-0.3-0.8-0.8-0.8-1.4
		c0-0.5,0.3-1,0.7-1.4c0.3-0.3,0.7-0.4,1.1-0.5c0.6,0,1.2,0.3,1.7,0.7c0.4,0.3,0.7,0.7,0.9,1.2C99.4,21.3,99.5,21.5,99.4,21.7z"/>
</g>
<g>
	<path class="st7" d="M100.9,25.9c0.1,3,1.7,6.2,2.1,9.2s0.7,6-0.3,8.8c0,0.1-2.9,6.8,1.1,1.7c0.4-0.5,1.1-1.9,1.8-4.2
		c0.3-1.3,0.8-3.3,0.7-5.9c-0.1-1.7-0.3-3.3-0.7-5c-0.3-1.1-0.7-2.3-1.2-3.3c-0.5-1.1-1.1-2-2.3-2.2C102.1,25,100.8,24.9,100.9,25.9
		z"/>
</g>
<path class="st2" d="M133.1,82.5c0,0-3.5,6.7-0.9,12.8L133.1,82.5z"/>
<path class="st5" d="M133.1,82.5c0,0-3.5,6.7-0.9,12.8"/>
</svg>
