<svg width="124" height="110" viewBox="0 0 124 110" fill="none" xmlns="http://www.w3.org/2000/svg">
<path d="M60.2443 45H66.13V59.1083H60.2443V45Z" fill="#CBCADF"/>
<path d="M65.9866 45H72.2251V59.1083H65.9866V45Z" fill="#A8A5CE"/>
<path d="M62.3433 59.1084H66.0762V59.7677V67.7192H58.4339V59.1084H62.3433Z" fill="#DFDEEF"/>
<path d="M69.1215 59.1084H73.9647V67.7192H65.9852V59.7677V59.1084H69.1215Z" fill="#BEBCDB"/>
<path d="M64.8432 67.7192H66.0959V103.474H64.8432V67.7192Z" fill="#E1DFEE"/>
<path d="M66.0795 67.7192H67.3322V103.474H66.0795V67.7192Z" fill="#BEBCDB"/>
<path d="M63.9152 53.1189C63.9152 54.2889 64.8605 55.2378 66.026 55.2378C67.1916 55.2378 68.1369 54.2889 68.1369 53.1189C68.1369 51.9489 67.1916 51 66.026 51C64.8605 51.0092 63.9152 51.9489 63.9152 53.1189Z" fill="#8C81D0" fill-opacity="0.75"/>
<path d="M64.9247 53.1189C64.9247 53.727 65.4203 54.2245 66.026 54.2245C66.6318 54.2245 67.1273 53.727 67.1273 53.1189C67.1273 52.5109 66.6318 52.0134 66.026 52.0134C65.4203 52.0134 64.9247 52.5109 64.9247 53.1189Z" fill="#F0F0F7"/>
<path d="M84.353 103.609H86.3992L73.1869 67.7192H71.1407L84.353 103.609Z" fill="#BEBCDB"/>
<path d="M48.406 103.609H46.1545L59.3669 67.7192H61.6183L48.406 103.609Z" fill="#DFDEEF"/>
<path d="M103.016 55.2839L101.964 57.8213L81.1824 49.0571L82.2071 46.6021L103.016 55.2839Z" fill="#CBCADF"/>
<path d="M82.2073 46.6022L83.1637 44.3391L103.932 53.0895L103.016 55.284L82.2073 46.6022Z" fill="#EBEAF6"/>
<path d="M101.964 57.8213L103.016 55.2839L105.216 56.2166L107.43 57.1355L105.175 62.5257L100.762 60.6604L101.964 57.8213Z" fill="#C4C3DF"/>
<path d="M103.932 53.0896L105.12 50.2505L109.534 52.1021L107.429 57.1356L105.216 56.2167L103.016 55.284L103.932 53.0896Z" fill="#DFDEEF"/>
<path d="M28.0942 24.0453L28.5314 22.9892C29.8567 19.8346 33.2452 18.1888 36.4697 18.9843L33.4228 26.2672L28.0942 24.0453Z" fill="#F5F9FD"/>
<path d="M27.766 24.8272L28.0939 24.0454L33.4226 26.2673L30.4713 33.317C26.7003 30.8071 26.4134 28.256 27.766 24.8272Z" fill="#E9F4FF"/>
<path d="M36.2647 35.8679L39.257 28.7085L40.5276 29.2297L91.5325 50.516L93.0491 51.1469L92.0244 53.602L90.6717 56.8388L35.6909 37.2532L36.2647 35.8679Z" fill="#C5C3DF"/>
<path d="M30.4714 33.3168L33.4226 26.2671L39.2568 28.7084L36.2646 35.8679L35.6907 37.2531L34.2561 40.682L28.4219 38.2269L30.4714 33.3168Z" fill="#DFDEEF"/>
<path d="M36.4695 18.9843L38.5189 14.0742L44.3531 16.5293L42.9185 19.9581L42.331 21.3434L39.2568 28.7086L33.4226 26.2672L36.4695 18.9843Z" fill="#EBEAF6"/>
<path d="M42.3312 21.3435L42.9187 19.9583L95.3582 45.6472L94.0055 48.8841L93.0491 51.1471L91.5324 50.5162L40.5276 29.2299L39.2569 28.7087L42.3312 21.3435Z" fill="#E0DEEF"/>
<path fill-rule="evenodd" clip-rule="evenodd" d="M9.02936 110C21.8309 106.113 43.0106 103.573 66.9719 103.573C90.1586 103.573 110.741 105.952 123.647 109.627C113.695 103.353 91.9046 99 66.625 99C40.8478 99 18.6989 103.526 9.02936 110Z" fill="#CBCADF"/>
<path d="M17.8594 47.693L14.3958 48.8981C14.3387 48.9168 14.3006 48.9635 14.2816 49.0196L13.273 52.5136C13.2254 52.6818 12.9875 52.6911 12.9304 52.5229L11.722 49.085C11.7029 49.0289 11.6554 48.9822 11.5983 48.9729L8.07759 47.9733C7.90631 47.9265 7.8968 47.6836 8.06807 47.6276L11.5317 46.4224C11.5888 46.4038 11.6268 46.357 11.6459 46.301L12.6545 42.7976C12.7021 42.6295 12.9399 42.6201 12.997 42.7883L14.2055 46.2262C14.2245 46.2823 14.2721 46.329 14.3292 46.3384L17.8499 47.338C18.0116 47.394 18.0211 47.6276 17.8594 47.693Z" fill="#C8C7E0"/>
<path d="M7.85202 10.5651L5.10911 11.5195C5.0639 11.5343 5.03376 11.5713 5.01869 11.6157L4.21993 14.3827C4.18225 14.5158 3.99387 14.5232 3.94865 14.3901L2.99165 11.6675C2.97658 11.6231 2.9389 11.5861 2.89369 11.5787L0.105575 10.7871C-0.0300633 10.7501 -0.0375988 10.5577 0.0980393 10.5133L2.84094 9.55894C2.88616 9.54414 2.9163 9.50715 2.93137 9.46276L3.73013 6.68837C3.7678 6.5552 3.95619 6.5478 4.0014 6.68097L4.9584 9.40357C4.97347 9.44796 5.01115 9.48495 5.05636 9.49235L7.84448 10.284C7.97258 10.3284 7.98012 10.5133 7.85202 10.5651Z" fill="#C8C7E0"/>
<path d="M108.215 20.0073L106.608 20.5666C106.581 20.5752 106.564 20.5969 106.555 20.6229L106.087 22.2442C106.065 22.3223 105.955 22.3266 105.928 22.2486L105.367 20.6533C105.358 20.6273 105.336 20.6056 105.31 20.6012L103.676 20.1374C103.597 20.1157 103.592 20.003 103.672 19.977L105.279 19.4178C105.305 19.4091 105.323 19.3874 105.332 19.3614L105.8 17.7358C105.822 17.6578 105.932 17.6534 105.959 17.7314L106.52 19.3267C106.529 19.3528 106.551 19.3744 106.577 19.3788L108.211 19.8426C108.286 19.8686 108.29 19.977 108.215 20.0073Z" fill="#C8C7E0"/>
<path d="M44.2029 65.2888L42.483 65.8872C42.4547 65.8965 42.4358 65.9197 42.4263 65.9475L41.9255 67.6824C41.9018 67.7659 41.7837 67.7706 41.7554 67.6871L41.1553 65.98C41.1459 65.9521 41.1222 65.9289 41.0939 65.9243L39.3457 65.4279C39.2606 65.4047 39.2559 65.2841 39.341 65.2563L41.0608 64.6579C41.0892 64.6486 41.1081 64.6254 41.1175 64.5976L41.6183 62.858C41.642 62.7745 41.7601 62.7698 41.7884 62.8533L42.3885 64.5604C42.398 64.5883 42.4216 64.6115 42.4499 64.6161L44.1981 65.1125C44.2785 65.1403 44.2832 65.2563 44.2029 65.2888Z" fill="#C8C7E0"/>
<path d="M29.9421 0C31.0426 0 31.9281 0.882098 31.9281 1.9754C31.9281 3.06871 31.0426 3.9508 29.9421 3.9508C28.8416 3.9508 27.9561 3.06871 27.9561 1.9754C27.9434 0.882098 28.8416 0 29.9421 0Z" fill="#C8C7E0"/>
<path d="M122.357 35.5942C123.267 35.5942 124 36.3239 124 37.2283C124 38.1327 123.267 38.8624 122.357 38.8624C121.447 38.8624 120.714 38.1327 120.714 37.2283C120.704 36.3239 121.447 35.5942 122.357 35.5942Z" fill="#C8C7E0"/>
</svg>
