<svg width="44" height="36" viewBox="0 0 44 36" fill="none" xmlns="http://www.w3.org/2000/svg">
<path d="M21.9917 35.5C25.0032 35.5009 27.9637 34.7225 30.5854 33.2405L35.6354 34.7054C36.0624 34.8298 36.515 34.8371 36.9458 34.7267C37.3766 34.6162 37.7698 34.392 38.0842 34.0775C38.3987 33.7631 38.6229 33.3698 38.7334 32.939C38.8438 32.5082 38.8365 32.0557 38.7121 31.6287L37.2509 26.5824C39.136 23.2327 39.8658 19.3555 39.3276 15.5496C38.7894 11.7437 37.0131 8.22093 34.2731 5.52524C31.5331 2.82954 27.9818 1.11092 24.1677 0.634801C20.3536 0.158678 16.4888 0.951536 13.1702 2.89093C9.85161 4.83032 7.26384 7.80836 5.80654 11.3651C4.34924 14.9219 4.10348 18.8595 5.10722 22.5699C6.11095 26.2802 8.30834 29.5569 11.36 31.8939C14.4117 34.2309 18.1479 35.4982 21.9917 35.5ZM10.9426 6.92836C13.6389 4.24522 17.2211 2.63729 21.0179 2.40584C24.8147 2.1744 28.5657 3.33531 31.5679 5.67108C34.5702 8.00685 36.6178 11.3572 37.327 15.0943C38.0363 18.8315 37.3585 22.6991 35.4207 25.9723C35.3536 26.0845 35.3106 26.2094 35.2944 26.339C35.2782 26.4687 35.2892 26.6003 35.3266 26.7255L36.9045 32.1597C36.9381 32.2645 36.9423 32.3765 36.9164 32.4835C36.8905 32.5905 36.8356 32.6883 36.7578 32.7661C36.68 32.844 36.5822 32.8988 36.4752 32.9247C36.3682 32.9506 36.2561 32.9465 36.1513 32.9128L30.7322 31.3199C30.607 31.2824 30.4754 31.2715 30.3457 31.2877C30.2161 31.3039 30.0912 31.3469 29.9791 31.414C26.7058 33.3518 22.8382 34.0296 19.1011 33.3203C15.3639 32.6111 12.0136 30.5635 9.67779 27.5612C7.34202 24.559 6.18111 20.808 6.41255 17.0112C6.644 13.2144 8.25193 9.63222 10.9351 6.93589L10.9426 6.92836Z" fill="#222532"/>
<path d="M21.709 28.7064C23.0361 29.2039 24.4784 29.3093 25.8638 29.0102C27.2492 28.7111 28.5194 28.02 29.5232 27.0193L30.4081 26.1343C30.6746 25.8677 30.8734 25.5412 30.9879 25.1821C31.1024 24.823 31.1292 24.4417 31.0662 24.0701C31.0031 23.6984 30.852 23.3473 30.6255 23.046C30.399 22.7448 30.1037 22.5021 29.7642 22.3383L25.0794 20.0788C24.9006 19.9925 24.699 19.9649 24.5035 20.0001C24.308 20.0353 24.1287 20.1313 23.9911 20.2746L22.5337 21.781H22.496C21.5261 21.3952 20.6449 20.816 19.9061 20.0785C19.1674 19.3411 18.5866 18.4609 18.1992 17.4916L19.7055 15.9853C19.8431 15.8471 19.9343 15.6697 19.9667 15.4774C19.9991 15.2852 19.971 15.0876 19.8863 14.912L17.6268 10.2273C17.463 9.8878 17.2203 9.59245 16.9191 9.36594C16.6178 9.13943 16.2667 8.98834 15.895 8.92529C15.5234 8.86225 15.1421 8.88909 14.783 9.00357C14.4239 9.11805 14.0974 9.31684 13.8308 9.58332L12.9533 10.4495C11.9536 11.4522 11.2625 12.7207 10.9621 14.1045C10.6617 15.4882 10.7647 16.9291 11.2587 18.2561C12.1516 20.6442 13.5466 22.8129 15.3494 24.6157C17.1522 26.4185 19.3209 27.8135 21.709 28.7064ZM14.2902 11.7864L15.1752 10.9014C15.2293 10.8507 15.2945 10.8132 15.3655 10.792C15.4366 10.7708 15.5116 10.7664 15.5847 10.7792C15.6577 10.792 15.7268 10.8216 15.7865 10.8657C15.8461 10.9098 15.8947 10.9671 15.9284 11.0332L17.9092 15.1191L16.7983 16.2301C16.5633 16.4703 16.4027 16.7734 16.3359 17.1028C16.2691 17.4321 16.2989 17.7738 16.4217 18.0866C16.8958 19.3126 17.6173 20.4277 18.5412 21.3627C19.4651 22.2976 20.5716 23.0322 21.7918 23.5208L21.901 23.5622C22.2275 23.6928 22.5855 23.7228 22.9291 23.6483C23.2727 23.5738 23.5861 23.3982 23.8292 23.1442L24.8648 22.0672L28.9357 24.0292C29.0018 24.0629 29.0591 24.1114 29.1032 24.1711C29.1472 24.2307 29.1768 24.2998 29.1896 24.3729C29.2024 24.4459 29.198 24.5209 29.1768 24.592C29.1556 24.6631 29.1182 24.7282 29.0675 24.7824L28.1825 25.6673C27.4374 26.4147 26.4933 26.9323 25.4625 27.1586C24.4317 27.3849 23.3577 27.3104 22.368 26.944C20.2342 26.1453 18.2964 24.8984 16.6853 23.2873C15.0742 21.6762 13.8273 19.7385 13.0287 17.6046C12.66 16.6158 12.583 15.5419 12.8066 14.5106C13.0302 13.4792 13.5451 12.5337 14.2902 11.7864Z" fill="#222532"/>
<path d="M26.4432 14.4715C26.6892 14.4764 26.9272 14.3845 27.106 14.2155L28.9099 12.4116C28.9974 12.3241 29.0668 12.2202 29.1142 12.1058C29.1616 11.9914 29.186 11.8688 29.186 11.7451C29.186 11.6213 29.1616 11.4987 29.1142 11.3843C29.0668 11.2699 28.9974 11.166 28.9099 11.0785C28.8223 10.991 28.7184 10.9215 28.604 10.8742C28.4897 10.8268 28.3671 10.8024 28.2433 10.8024C28.1195 10.8024 27.9969 10.8268 27.8826 10.8742C27.7682 10.9215 27.6643 10.991 27.5767 11.0785L25.7578 12.8673C25.6258 12.999 25.5359 13.1669 25.4994 13.3497C25.463 13.5326 25.4816 13.7221 25.553 13.8944C25.6244 14.0666 25.7453 14.2138 25.9005 14.3172C26.0556 14.4206 26.2379 14.4756 26.4244 14.4753L26.4432 14.4715Z" fill="#222532"/>
<path d="M27.2267 17.311C27.2133 17.5601 27.2994 17.8044 27.4661 17.9901C27.6327 18.1758 27.8663 18.2878 28.1154 18.3014L30.4164 18.4294H30.4691C30.7188 18.4364 30.961 18.3439 31.1425 18.1723C31.324 18.0007 31.4299 17.764 31.4369 17.5143C31.4439 17.2646 31.3514 17.0224 31.1798 16.8409C31.0082 16.6594 30.7715 16.5535 30.5218 16.5465L28.2209 16.4184C27.9707 16.4051 27.7255 16.4916 27.5391 16.659C27.3527 16.8263 27.2403 17.0608 27.2267 17.311Z" fill="#222532"/>
<path d="M22.6093 12.7465H22.662C22.9112 12.7329 23.1447 12.6209 23.3114 12.4352C23.478 12.2495 23.5641 12.0052 23.5508 11.7561L23.4227 9.45512C23.4158 9.33149 23.3846 9.21042 23.3309 9.09885C23.2772 8.98728 23.202 8.88737 23.1097 8.80485C23.0174 8.72232 22.9097 8.65878 22.7929 8.61787C22.676 8.57695 22.5522 8.55945 22.4286 8.56638C22.3049 8.5733 22.1839 8.60451 22.0723 8.65822C21.9607 8.71193 21.8608 8.78709 21.7783 8.87941C21.6958 8.97172 21.6322 9.0794 21.5913 9.19627C21.5504 9.31314 21.5329 9.43693 21.5398 9.56057L21.6679 11.8615C21.6823 12.1013 21.7878 12.3265 21.9628 12.491C22.1378 12.6555 22.3691 12.7469 22.6093 12.7465Z" fill="#222532"/>
</svg>
