<svg width="16" height="16" viewBox="0 0 16 16" fill="none" xmlns="http://www.w3.org/2000/svg">
<path d="M8 0.5C3.85782 0.5 0.5 3.85782 0.5 8C0.5 12.1422 3.85782 15.5 8 15.5C12.1422 15.5 15.5 12.1422 15.5 8C15.5 3.85782 12.1422 0.5 8 0.5ZM10.6545 9.38562C10.6545 10.2419 9.95786 10.9385 9.10161 10.9385H8.61897V12.2642H7.49562V10.9385H5.79963V9.81513H9.10161C9.33844 9.81513 9.53112 9.62244 9.53112 9.38562V8.99932C9.53112 8.76249 9.33844 8.5698 9.10161 8.5698H7.01291C6.15665 8.5698 5.46004 7.87319 5.46004 7.01694V6.55663C5.46004 5.70037 6.15665 5.00377 7.01291 5.00377H7.49562V3.64088H8.61897V5.00377H10.3149V6.12711H7.01291C6.77608 6.12711 6.58339 6.3198 6.58339 6.55663V7.01694C6.58339 7.25377 6.77608 7.44645 7.01291 7.44645H9.10161C9.95786 7.44645 10.6545 8.14306 10.6545 8.99932V9.38562Z" fill="#6B6E7B"/>
</svg>
