<svg width="44" height="36" viewBox="0 0 44 36" fill="none" xmlns="http://www.w3.org/2000/svg">
<path d="M21.9921 34C24.8316 34.0009 27.623 33.267 30.0948 31.8696L34.8562 33.2508C35.2588 33.3681 35.6855 33.375 36.0917 33.2709C36.4979 33.1667 36.8687 32.9553 37.1652 32.6588C37.4617 32.3623 37.6731 31.9916 37.7772 31.5854C37.8813 31.1792 37.8744 30.7525 37.7571 30.3499L36.3795 25.592C38.1568 22.4337 38.8449 18.778 38.3374 15.1896C37.83 11.6012 36.1552 8.27974 33.5718 5.73808C30.9884 3.19643 27.64 1.57601 24.0439 1.1271C20.4477 0.678182 16.8037 1.42573 13.6748 3.2543C10.5458 5.08288 8.10591 7.89074 6.73188 11.2443C5.35786 14.5978 5.12614 18.3104 6.07252 21.8087C7.01889 25.3071 9.09072 28.3965 11.968 30.6C14.8453 32.8034 18.368 33.9983 21.9921 34ZM11.5745 7.06102C14.1167 4.5312 17.4942 3.01516 21.074 2.79694C24.6539 2.57872 28.1905 3.6733 31.0212 5.87559C33.8519 8.07789 35.7825 11.2368 36.4512 14.7604C37.1199 18.284 36.4809 21.9305 34.6539 25.0168C34.5906 25.1225 34.55 25.2403 34.5347 25.3625C34.5194 25.4848 34.5298 25.6089 34.5651 25.7269L36.0528 30.8506C36.0846 30.9494 36.0884 31.055 36.064 31.1559C36.0396 31.2568 35.9879 31.349 35.9145 31.4224C35.8411 31.4958 35.7489 31.5475 35.648 31.5719C35.5472 31.5963 35.4415 31.5924 35.3427 31.5607L30.2333 30.0588C30.1152 30.0235 29.9911 30.0131 29.8689 30.0284C29.7466 30.0437 29.6288 30.0842 29.5231 30.1475C26.4369 31.9746 22.7903 32.6136 19.2667 31.9449C15.7431 31.2762 12.5842 29.3456 10.3819 26.5149C8.17962 23.6842 7.08505 20.1476 7.30327 16.5677C7.52149 12.9878 9.03753 9.61038 11.5674 7.06813L11.5745 7.06102Z" fill="#222532"/>
<path d="M21.7256 27.5946C22.9769 28.0637 24.3368 28.1631 25.643 27.8811C26.9493 27.5991 28.1469 26.9475 29.0933 26.0039L29.9277 25.1695C30.1789 24.9182 30.3664 24.6103 30.4743 24.2717C30.5822 23.9331 30.6075 23.5736 30.5481 23.2232C30.4887 22.8728 30.3462 22.5418 30.1326 22.2577C29.9191 21.9736 29.6406 21.7448 29.3205 21.5904L24.9035 19.46C24.7348 19.3786 24.5447 19.3526 24.3604 19.3858C24.1761 19.419 24.007 19.5096 23.8773 19.6446L22.5032 21.0649H22.4677C21.5532 20.7012 20.7223 20.1551 20.0258 19.4598C19.3293 18.7645 18.7817 17.9346 18.4164 17.0207L19.8367 15.6004C19.9663 15.4702 20.0524 15.3028 20.0829 15.1216C20.1134 14.9403 20.0869 14.754 20.0071 14.5885L17.8767 10.1714C17.7223 9.85136 17.4935 9.57289 17.2094 9.35932C16.9253 9.14575 16.5943 9.00329 16.2439 8.94385C15.8935 8.88441 15.534 8.90972 15.1954 9.01766C14.8568 9.12559 14.5489 9.31303 14.2976 9.56428L13.4703 10.3809C12.5277 11.3264 11.8761 12.5224 11.5928 13.8271C11.3096 15.1318 11.4067 16.4903 11.8725 17.7415C12.7144 19.9931 14.0297 22.0379 15.7295 23.7376C17.4292 25.4374 19.474 26.7527 21.7256 27.5946ZM14.7308 11.6414L15.5652 10.807C15.6162 10.7592 15.6777 10.7239 15.7447 10.7039C15.8117 10.6839 15.8824 10.6798 15.9513 10.6919C16.0202 10.7039 16.0853 10.7318 16.1415 10.7734C16.1978 10.8149 16.2436 10.869 16.2753 10.9313L18.143 14.7838L17.0955 15.8312C16.8739 16.0577 16.7225 16.3435 16.6595 16.654C16.5965 16.9646 16.6246 17.2867 16.7405 17.5817C17.1875 18.7376 17.8677 19.789 18.7388 20.6705C19.6099 21.552 20.6532 22.2447 21.8037 22.7053L21.9067 22.7444C22.2145 22.8675 22.552 22.8958 22.876 22.8255C23.1999 22.7553 23.4955 22.5898 23.7246 22.3503L24.7011 21.3348L28.5394 23.1847C28.6017 23.2164 28.6557 23.2622 28.6973 23.3185C28.7388 23.3747 28.7667 23.4398 28.7788 23.5087C28.7908 23.5776 28.7867 23.6483 28.7667 23.7153C28.7467 23.7823 28.7115 23.8438 28.6636 23.8948L27.8292 24.7292C27.1267 25.4338 26.2365 25.9219 25.2647 26.1352C24.2928 26.3486 23.2801 26.2784 22.347 25.9329C20.3351 25.1799 18.508 24.0042 16.989 22.4852C15.47 20.9662 14.2943 19.1391 13.5413 17.1272C13.1937 16.1949 13.1211 15.1824 13.3319 14.21C13.5428 13.2376 14.0283 12.3461 14.7308 11.6414Z" fill="#222532"/>
<path d="M26.1893 14.1732C26.4212 14.1778 26.6457 14.0911 26.8143 13.9317L28.515 12.231C28.5976 12.1484 28.663 12.0504 28.7077 11.9426C28.7524 11.8348 28.7753 11.7192 28.7753 11.6025C28.7753 11.4858 28.7524 11.3702 28.7077 11.2624C28.663 11.1545 28.5976 11.0565 28.515 10.974C28.4325 10.8915 28.3345 10.826 28.2267 10.7814C28.1188 10.7367 28.0033 10.7137 27.8866 10.7137C27.7698 10.7137 27.6543 10.7367 27.5464 10.7814C27.4386 10.826 27.3406 10.8915 27.2581 10.974L25.5431 12.6606C25.4186 12.7847 25.3338 12.943 25.2995 13.1154C25.2651 13.2878 25.2827 13.4666 25.35 13.629C25.4173 13.7914 25.5313 13.9301 25.6776 14.0276C25.8239 14.1251 25.9958 14.177 26.1716 14.1767L26.1893 14.1732Z" fill="#222532"/>
<path d="M26.928 16.8503C26.9154 17.0853 26.9966 17.3156 27.1537 17.4907C27.3109 17.6658 27.5311 17.7713 27.766 17.7842L29.9354 17.9049H29.9851C30.2206 17.9115 30.449 17.8243 30.6201 17.6625C30.7912 17.5007 30.8911 17.2775 30.8977 17.0421C30.9043 16.8067 30.8171 16.5782 30.6553 16.4071C30.4934 16.236 30.2703 16.1361 30.0349 16.1296L27.8654 16.0088C27.6295 15.9962 27.3983 16.0778 27.2226 16.2356C27.0468 16.3934 26.9409 16.6145 26.928 16.8503Z" fill="#222532"/>
<path d="M22.5745 12.5467H22.6242C22.8591 12.5339 23.0793 12.4283 23.2365 12.2532C23.3936 12.0781 23.4748 11.8478 23.4622 11.6129L23.3415 9.4434C23.3349 9.32683 23.3055 9.21269 23.2549 9.10749C23.2042 9.00229 23.1334 8.9081 23.0463 8.83029C22.9593 8.75247 22.8577 8.69257 22.7476 8.65399C22.6374 8.61541 22.5206 8.59892 22.4041 8.60544C22.2875 8.61197 22.1734 8.6414 22.0682 8.69204C21.963 8.74268 21.8688 8.81354 21.791 8.90059C21.7131 8.98763 21.6532 9.08915 21.6147 9.19934C21.5761 9.30954 21.5596 9.42625 21.5661 9.54282L21.6868 11.7123C21.7004 11.9384 21.7999 12.1507 21.9649 12.3058C22.13 12.4609 22.348 12.5471 22.5745 12.5467Z" fill="#222532"/>
</svg>
