<svg width="92" height="134" viewBox="0 0 92 134" fill="none" xmlns="http://www.w3.org/2000/svg">
<path d="M71.3911 130.67C71.3911 130.67 79.5844 123.01 75.5654 118.477C75.5654 118.477 71.8703 116.132 68.978 117.695C68.978 117.695 67.2124 99.8708 64.9634 96.5891L62.4424 85.0886C62.4424 85.0886 67.8168 93.11 71.1882 94.2025C71.1882 94.2025 80.383 98.9337 83.5947 91.1141C83.5947 91.1141 85.5243 86.5803 76.6878 80.6388C76.6878 80.6388 68.3564 76.2605 69.2586 59.7262C69.2586 59.7262 67.5707 47.318 58.4148 43.2506C58.4148 43.2506 59.0192 41.4733 57.573 40.3766C57.573 40.3766 65.6023 32.1703 64.9634 21.5354C64.9634 21.5354 64.8037 4.96325 46.0083 0.273971C46.0083 0.273971 30.347 -3.06651 21.6141 13.5813C21.6141 13.5813 18.3636 20.1488 20.0471 25.9516L15.5275 56.2638L22.9351 65.5877C22.9351 65.5877 22.7149 90.1729 21.4285 94.8621C21.4285 94.8621 21.2688 102.678 12.7561 110.497C12.7561 110.497 6.97158 119.099 10.9905 125.351C10.9905 125.351 15.8081 136.763 27.8562 132.544C27.8562 132.544 33.2393 130.141 31.3097 124.51L28.0591 122.107C28.0591 122.107 36.3733 119.174 39.2612 106.863C39.2612 106.863 41.5491 93.6142 46.971 97.2068C46.971 97.2068 51.3094 101.741 51.3094 113.468C51.3094 113.468 53.0749 135.2 63.8367 133.948C63.8453 133.952 67.2168 134.423 71.3911 130.67Z" fill="url(#paint0_linear)"/>
<path d="M60.1241 25.9358C60.2968 36.4698 53.2561 41.5163 44.1649 41.6549C35.0781 41.7936 27.7007 37.6001 27.528 27.0661C27.3553 16.532 34.1629 9.50228 43.2541 9.36361C52.3409 9.22495 59.9471 15.4017 60.1241 25.9358Z" fill="white"/>
<path d="M43.7032 42.1626C33.2436 42.1626 27.1698 36.6833 27.0101 27.0737C26.9238 21.8465 28.4865 17.3211 31.5298 13.9807C34.4738 10.7494 38.6352 8.93002 43.2456 8.85859C53.3123 8.71573 60.4739 15.7202 60.6423 25.9266C60.7286 31.0318 59.1098 35.2253 55.9715 38.0615C53.0835 40.6667 49.0042 42.0827 44.1737 42.1583C44.0183 42.1625 43.8586 42.1626 43.7032 42.1626ZM43.565 9.86284C43.4614 9.86284 43.3621 9.86284 43.2585 9.86704C38.9417 9.93427 35.0523 11.6318 32.3025 14.653C29.4361 17.8002 27.9598 22.0903 28.0418 27.0611C28.1929 36.1749 34.0594 41.318 44.1521 41.1541C48.7236 41.0827 52.5655 39.7591 55.2592 37.3262C58.2205 34.6538 59.6796 30.8259 59.5976 25.9476C59.4465 16.4345 52.8677 9.86284 43.565 9.86284Z" fill="white"/>
<path d="M37.2195 14.2865C37.1634 14.5807 37.2325 14.9126 37.4526 15.1227C37.7073 15.3706 38.0958 15.4168 38.4584 15.4252C38.8426 15.4336 39.2398 15.4168 39.5981 15.274C39.9564 15.1311 40.2672 14.8454 40.3535 14.4756C40.4312 14.1353 40.2974 13.7697 40.0686 13.4966C39.8916 13.2865 39.6585 13.1142 39.3909 13.0428C38.9808 12.9335 38.562 13.0638 38.1735 13.2529C37.8714 13.3999 37.6123 13.6142 37.4267 13.8832C37.3274 14.026 37.2411 14.1731 37.2195 14.2865Z" fill="#EBEAF6"/>
<path d="M35.6481 16.8252C35.1215 18.737 33.6193 20.5901 32.9156 22.4515C32.2033 24.3423 31.871 26.1491 32.0695 28.124C32.0738 28.1702 32.5228 33.6663 30.714 29.561C30.5327 29.1493 30.3385 27.7332 30.2694 26.1197C30.2306 25.2121 30.2349 23.8507 30.6579 22.2036C30.9428 21.1027 31.34 20.1363 31.8494 19.111C32.1818 18.4471 32.6609 17.758 33.1358 17.1824C33.6408 16.5689 34.1589 16.0268 34.9834 16.0731C34.9834 16.0731 35.8381 16.1445 35.6481 16.8252Z" fill="#EBEAF6"/>
<path d="M28.8362 41.0468C28.8362 41.0468 25.8965 43.1183 29.0866 46.0428C29.0866 46.0428 38.4756 53.7196 51.6807 48.8454C51.6807 48.8454 61.3201 45.3117 58.0005 40.4375C58.0005 40.4375 46.4876 51.4632 28.8362 41.0468Z" fill="#BCBBC5"/>
<path d="M42.9393 50.9537C34.4179 50.9537 28.8277 46.4871 28.7543 46.4283C27.5672 45.3442 27.0146 44.2433 27.088 43.134C27.1916 41.6004 28.478 40.6759 28.5341 40.6381L28.8147 40.4406L29.1083 40.6129C38.0397 45.8863 45.3135 45.4619 49.8461 44.1761C54.763 42.7811 57.6164 40.1003 57.6423 40.0751L58.0912 39.6465L58.4366 40.1549C59.2179 41.302 59.4165 42.4827 59.0236 43.6593C57.8926 47.0712 52.1124 49.2225 51.8664 49.3108C48.6504 50.5041 45.6459 50.9537 42.9393 50.9537ZM28.8967 41.6676C28.6075 41.9491 28.1672 42.4953 28.124 43.2055C28.0765 43.9954 28.5212 44.8232 29.445 45.672C29.514 45.7266 38.7477 53.0756 51.4995 48.3696C51.5556 48.3485 57.0595 46.298 58.0394 43.3483C58.2768 42.634 58.2207 41.9323 57.871 41.218C55.4493 43.155 44.4631 50.6638 28.8967 41.6676Z" fill="#BCBBC5"/>
<path d="M6.50109 87.5674H0.863359C0.388512 87.5674 0 87.1893 0 86.7271C0 86.2649 0.388512 85.8867 0.863359 85.8867H6.50109C6.97594 85.8867 7.36445 86.2649 7.36445 86.7271C7.36445 87.1893 6.97594 87.5674 6.50109 87.5674Z" fill="white"/>
<path d="M3.68221 90.311C3.20736 90.311 2.81885 89.9328 2.81885 89.4706V83.983C2.81885 83.5207 3.20736 83.1426 3.68221 83.1426C4.15705 83.1426 4.54556 83.5207 4.54556 83.983V89.4706C4.54556 89.9328 4.15705 90.311 3.68221 90.311Z" fill="white"/>
<path d="M74.9568 42.5065H71.8142C71.5292 42.5065 71.2961 42.2796 71.2961 42.0023C71.2961 41.7249 71.5292 41.498 71.8142 41.498H74.9568C75.2417 41.498 75.4748 41.7249 75.4748 42.0023C75.4748 42.2796 75.2417 42.5065 74.9568 42.5065Z" fill="white"/>
<path d="M73.3854 44.0362C73.1005 44.0362 72.8674 43.8092 72.8674 43.5319V40.473C72.8674 40.1956 73.1005 39.9688 73.3854 39.9688C73.6703 39.9688 73.9035 40.1956 73.9035 40.473V43.5319C73.9035 43.8092 73.6747 44.0362 73.3854 44.0362Z" fill="white"/>
<path d="M91.2397 60.8485H86.8668C86.5085 60.8485 86.2192 60.5669 86.2192 60.2182C86.2192 59.8694 86.5085 59.5879 86.8668 59.5879H91.2397C91.598 59.5879 91.8872 59.8694 91.8872 60.2182C91.8872 60.5669 91.598 60.8485 91.2397 60.8485Z" fill="white"/>
<path d="M89.0511 62.9751C88.6928 62.9751 88.4036 62.6935 88.4036 62.3448V58.0883C88.4036 57.7395 88.6928 57.458 89.0511 57.458C89.4094 57.458 89.6986 57.7395 89.6986 58.0883V62.3448C89.6986 62.6935 89.4094 62.9751 89.0511 62.9751Z" fill="white"/>
<path d="M9.35372 22.504L5.49451 4.77637L6.9061 21.483C7.0356 22.8108 6.96222 24.2856 8.31769 24.2814C9.17673 24.2814 9.57388 23.4705 9.35372 22.504Z" fill="#C2C0DD"/>
<path d="M8.31759 24.792C6.64699 24.792 6.52181 23.1827 6.43116 22.0062C6.41821 21.8465 6.40525 21.6911 6.3923 21.5356L4.98071 4.8248L6.00379 4.67773L9.86301 22.4012C10.027 23.1197 9.90617 23.792 9.53493 24.2416C9.24139 24.5946 8.80971 24.792 8.31759 24.792ZM6.67721 12.6529L7.4197 21.4474C7.43697 21.6028 7.4456 21.7667 7.45855 21.9306C7.56647 23.3424 7.70029 23.7836 8.31328 23.7836C8.49027 23.7836 8.62409 23.729 8.71906 23.6113C8.89173 23.4012 8.93921 23.0315 8.84424 22.6155V22.6113L6.67721 12.6529Z" fill="#C2C0DD"/>
<path d="M5.19772 6.77126C6.28249 6.77126 7.16186 5.88768 7.16186 4.79774C7.16186 3.70779 6.28249 2.82422 5.19772 2.82422C4.11296 2.82422 3.23358 3.70779 3.23358 4.79774C3.23358 5.88768 4.11296 6.77126 5.19772 6.77126Z" fill="#C2C0DD"/>
<path d="M5.19779 7.29661C3.82937 7.29661 2.71564 6.17756 2.71564 4.8026C2.71564 3.42764 3.82937 2.30859 5.19779 2.30859C6.56622 2.30859 7.67995 3.42764 7.67995 4.8026C7.67995 6.17756 6.57053 7.29661 5.19779 7.29661ZM5.19779 3.34523C4.39919 3.34523 3.75167 3.99585 3.75167 4.79827C3.75167 5.60069 4.39919 6.2513 5.19779 6.2513C5.9964 6.2513 6.64392 5.60069 6.64392 4.79827C6.64392 3.99585 5.9964 3.34523 5.19779 3.34523Z" fill="#C2C0DD"/>
<path d="M29.3157 62.5754L33.3088 59.3358C34.9189 57.7685 35.4283 56.6592 35.4154 55.1885L35.2341 38.2466C35.2341 36.0995 33.9779 34.5868 32.4584 33.6078L10.9607 19.6744C9.44121 18.6954 6.9202 18.9391 4.89994 20.1954L1.39471 22.5905L1.23499 44.0032L29.3157 62.5754Z" fill="#D1D0E6"/>
<path d="M29.3459 63.2057L0.721191 44.2679L0.880912 22.3258L4.60199 19.7795C6.8424 18.3803 9.5663 18.1702 11.2455 19.25L32.7389 33.1834C34.1116 34.0658 35.7477 35.6625 35.7477 38.2425L35.929 55.176C35.9462 56.8483 35.3332 58.0669 33.6713 59.6846L33.6367 59.714L29.3459 63.2057ZM1.76154 43.7385L29.2854 61.9452L32.959 58.9619C34.5951 57.3651 34.9059 56.3693 34.8973 55.1928L34.7159 38.2551C34.7159 36.1163 33.3303 34.7801 32.169 34.0322L10.6757 20.0946C9.35046 19.2416 7.04098 19.4643 5.18044 20.6198L1.91263 22.8552L1.76154 43.7385Z" fill="#D1D0E6"/>
<path d="M26.8078 62.5542L3.5144 47.2594C1.99921 46.2635 0.768921 44.2635 0.768921 42.7844V23.8088C0.768921 22.3339 1.99921 21.9432 3.5144 22.939L26.8078 38.2338C28.8626 39.4901 29.5533 41.2297 29.5533 42.7088V61.6886C29.5533 63.1634 28.323 63.55 26.8078 62.5542Z" fill="#D1D0E6"/>
<path d="M28.3444 63.6086C27.7876 63.6086 27.1573 63.3943 26.5184 62.9741L3.225 47.6793C1.55872 46.5826 0.250732 44.4355 0.250732 42.7883V23.8085C0.250732 22.9934 0.574491 22.3757 1.15726 22.0732C1.85658 21.7118 2.81923 21.8757 3.80345 22.5185L27.0969 37.8133C29.6826 39.3974 30.0712 41.5572 30.0712 42.7043V61.6841C30.0712 62.4993 29.7474 63.117 29.1646 63.4195C28.9186 63.5455 28.6423 63.6086 28.3444 63.6086ZM27.0969 62.1379C27.7358 62.5581 28.3401 62.7052 28.6768 62.5329C28.9876 62.3732 29.0308 61.9362 29.0308 61.6883V42.7085C29.0308 41.7715 28.707 39.9983 26.5271 38.6621L3.22069 23.3547C2.5818 22.9345 1.97745 22.7875 1.64074 22.9597C1.32993 23.1194 1.28676 23.5564 1.28676 23.8043V42.7841C1.28676 44.0867 2.43935 45.9439 3.80345 46.8389L27.0969 62.1379Z" fill="#D1D0E6"/>
<path d="M29.3113 44.8901C29.212 44.8901 29.1127 44.8607 29.022 44.8019L0.475087 26.0616C0.237664 25.9061 0.177229 25.5909 0.33695 25.3598C0.496671 25.1287 0.82043 25.0699 1.05785 25.2254L29.6048 43.9657C29.8422 44.1212 29.9027 44.4363 29.7429 44.6674C29.6437 44.8103 29.4796 44.8901 29.3113 44.8901Z" fill="#D1D0E6"/>
<path d="M29.3113 47.6967C29.212 47.6967 29.1127 47.6673 29.022 47.6085L0.475087 28.8682C0.237664 28.7127 0.177229 28.3976 0.33695 28.1665C0.496671 27.9354 0.82043 27.8766 1.05785 28.032L29.6048 46.7723C29.8422 46.9278 29.9027 47.2429 29.7429 47.474C29.6437 47.6169 29.4796 47.6967 29.3113 47.6967Z" fill="#D1D0E6"/>
<path d="M12.0311 49.7683C11.185 49.7683 10.244 49.4448 9.27269 48.8061C6.43656 46.9447 4.12708 42.8184 4.12708 39.6166C4.12708 37.9821 4.70984 36.7804 5.77177 36.2299C6.88551 35.6543 8.33163 35.8854 9.85115 36.8812C12.6873 38.7426 14.9968 42.8647 14.9968 46.0707C14.9968 47.7052 14.414 48.9069 13.3521 49.4574C12.9506 49.6633 12.506 49.7683 12.0311 49.7683ZM7.09271 36.9316C6.78622 36.9316 6.50563 36.9947 6.26389 37.1207C5.55593 37.4863 5.16742 38.3729 5.16742 39.6166C5.16742 42.5243 7.2697 46.2724 9.85546 47.9699C11.021 48.7347 12.1218 48.9532 12.8686 48.5666C13.5765 48.201 13.9651 47.3144 13.9651 46.0707C13.9651 43.163 11.8628 39.4149 9.27701 37.7174C8.48704 37.1964 7.7316 36.9316 7.09271 36.9316Z" fill="#D1D0E6"/>
<path d="M23.2893 54.6675C22.7972 54.6675 22.2576 54.4826 21.7094 54.1254C20.1381 53.096 18.9121 50.8942 18.9121 49.121C18.9121 48.1714 19.2661 47.4697 19.905 47.1377C20.5698 46.7932 21.4202 46.9192 22.2922 47.4907C23.8635 48.5201 25.0894 50.7219 25.0894 52.4951C25.0894 53.4447 24.7355 54.1464 24.0966 54.4784C23.8505 54.6044 23.5786 54.6675 23.2893 54.6675ZM20.7122 47.9529C20.5913 47.9529 20.4834 47.9781 20.3885 48.0243C20.1079 48.1714 19.9481 48.5663 19.9481 49.1168C19.9481 50.5454 21.0187 52.4531 22.2922 53.285C22.8231 53.6338 23.3066 53.743 23.6131 53.5834C23.8937 53.4363 24.0534 53.0413 24.0534 52.4909C24.0534 51.0623 22.9828 49.1546 21.7094 48.3226C21.3381 48.0789 20.9928 47.9529 20.7122 47.9529Z" fill="#D1D0E6"/>
<path d="M14.2673 47.2588C14.0817 47.2588 13.9047 47.1622 13.8097 46.9941L8.39647 37.2878C8.25833 37.0441 8.3533 36.7374 8.60367 36.6029C8.85405 36.4684 9.16917 36.5609 9.30731 36.8046L14.7206 46.5109C14.8587 46.7546 14.7637 47.0613 14.5134 47.1958C14.4357 47.2378 14.3493 47.2588 14.2673 47.2588Z" fill="#D1D0E6"/>
<path d="M13.0543 49.5922C12.8687 49.5922 12.6917 49.4955 12.601 49.3274L5.75889 37.1042C5.62076 36.8605 5.71573 36.5538 5.9661 36.4193C6.21647 36.2849 6.5316 36.3773 6.66974 36.621L13.5075 48.8442C13.6457 49.0879 13.5507 49.3947 13.3003 49.5291C13.2226 49.5753 13.1363 49.5922 13.0543 49.5922Z" fill="#D1D0E6"/>
<path d="M10.6281 49.3281C10.4468 49.3281 10.2698 49.2357 10.1748 49.0676L4.3644 38.8445C4.22626 38.6008 4.31692 38.294 4.56729 38.1596C4.81766 38.0251 5.13279 38.1133 5.27093 38.357L11.0813 48.5802C11.2195 48.8239 11.1288 49.1306 10.8784 49.2651C10.7964 49.3071 10.7101 49.3281 10.6281 49.3281Z" fill="#D1D0E6"/>
<path d="M24.8134 64.2399C24.8134 64.2399 18.6145 67.6182 16.6417 68.467C6.66128 72.7529 2.4783 65.6013 1.61495 61.9163C0.41056 56.769 2.77616 47.6089 4.6626 41.6927C5.68568 38.4867 9.68303 35.5832 12.817 37.1547C16.4129 38.9573 17.8116 41.5162 17.1122 44.9155C16.3784 48.4913 15.4114 54.4159 15.4114 54.4159C15.4114 54.4159 14.997 56.1765 16.3654 56.9412" fill="#DDDCED"/>
<defs>
<linearGradient id="paint0_linear" x1="37.1733" y1="-4.13037" x2="60.4066" y2="140.949" gradientUnits="userSpaceOnUse">
<stop stop-color="#E1DFEE"/>
<stop offset="1" stop-color="#D0CEE6"/>
</linearGradient>
</defs>
</svg>
