<svg width="44" height="37" viewBox="0 0 44 37" fill="none" xmlns="http://www.w3.org/2000/svg">
<path d="M19.9021 15.8398C20.8761 15.8398 21.6657 15.0502 21.6657 14.0762C21.6657 13.1021 20.8761 12.3125 19.9021 12.3125C18.928 12.3125 18.1384 13.1021 18.1384 14.0762C18.1384 15.0502 18.928 15.8398 19.9021 15.8398Z" fill="#232533"/>
<path d="M27.8878 14.0762C27.8878 15.0502 27.0982 15.8398 26.1241 15.8398C25.1501 15.8398 24.3605 15.0502 24.3605 14.0762C24.3605 13.1021 25.1501 12.3125 26.1241 12.3125C27.0982 12.3125 27.8878 13.1021 27.8878 14.0762Z" fill="#232533"/>
<path d="M32.3464 15.8398C33.3205 15.8398 34.1101 15.0502 34.1101 14.0762C34.1101 13.1021 33.3205 12.3125 32.3464 12.3125C31.3724 12.3125 30.5828 13.1021 30.5828 14.0762C30.5828 15.0502 31.3724 15.8398 32.3464 15.8398Z" fill="#232533"/>
<path fill-rule="evenodd" clip-rule="evenodd" d="M10.7499 7.8125V8.4375H7.37634C4.68395 8.4375 2.50134 10.6201 2.50134 13.3125V24.6875C2.50134 27.3799 4.68395 29.5625 7.37634 29.5625H9.07567V31.933C9.07567 33.7665 11.1334 34.8468 12.6426 33.8056L18.793 29.5625H27.7804C28.2257 29.5625 28.658 29.5026 29.0692 29.3901L30.9675 31.2237C32.2846 32.4961 34.4841 31.5626 34.4841 29.7313V25.5625H36.6234C39.3158 25.5625 41.4984 23.3799 41.4984 20.6875V7.8125C41.4984 5.12011 39.3158 2.9375 36.6234 2.9375H15.6249C12.9325 2.9375 10.7499 5.12011 10.7499 7.8125ZM15.6249 4.6875C13.899 4.6875 12.4999 6.08661 12.4999 7.8125V20.6875C12.4999 22.4134 13.899 23.8125 15.6249 23.8125H25.4603C25.6871 23.8125 25.9051 23.9006 26.0682 24.0582L32.1833 29.965C32.3896 30.1643 32.7341 30.0181 32.7341 29.7313V24.6875C32.7341 24.2043 33.1258 23.8125 33.6091 23.8125H36.6234C38.3493 23.8125 39.7484 22.4134 39.7484 20.6875V7.8125C39.7484 6.08661 38.3493 4.6875 36.6234 4.6875H15.6249ZM7.37634 10.1875H10.7499V20.6875C10.7499 23.3799 12.9325 25.5625 15.6249 25.5625H25.1067L27.436 27.8125H18.5204C18.3429 27.8125 18.1697 27.8665 18.0236 27.9673L11.6488 32.3652C11.3005 32.6054 10.8257 32.3561 10.8257 31.933V28.6875C10.8257 28.2043 10.4339 27.8125 9.95067 27.8125H7.37634C5.65045 27.8125 4.25134 26.4134 4.25134 24.6875V13.3125C4.25134 11.5866 5.65045 10.1875 7.37634 10.1875Z" fill="#232533"/>
</svg>
