<svg width="44" height="37" viewBox="0 0 44 37" fill="none" xmlns="http://www.w3.org/2000/svg">
<path d="M21.9923 34.0625C24.7672 34.0634 27.4952 33.3461 29.9108 31.9805L34.564 33.3303C34.9575 33.4449 35.3745 33.4517 35.7714 33.3499C36.1684 33.2481 36.5307 33.0416 36.8205 32.7518C37.1103 32.462 37.3168 32.0997 37.4186 31.7028C37.5204 31.3058 37.5136 30.8888 37.399 30.4953L36.0527 25.8456C37.7896 22.759 38.462 19.1865 37.9661 15.6796C37.4702 12.1728 35.8335 8.92678 33.3088 6.4429C30.7841 3.95901 27.5118 2.37542 23.9974 1.93671C20.4829 1.498 16.9218 2.22856 13.864 4.01557C10.8061 5.80258 8.42168 8.54663 7.07889 11.8239C5.73609 15.1012 5.50964 18.7295 6.43451 22.1483C7.35937 25.5671 9.38411 28.5864 12.196 30.7397C15.0079 32.8931 18.4506 34.0608 21.9923 34.0625ZM11.8114 7.73577C14.2959 5.26345 17.5966 3.78186 21.0951 3.5686C24.5936 3.35534 28.0498 4.42504 30.8162 6.57728C33.5826 8.72952 35.4692 11.8166 36.1228 15.2601C36.7763 18.7037 36.1518 22.2673 34.3663 25.2834C34.3044 25.3868 34.2648 25.5018 34.2498 25.6213C34.2349 25.7408 34.245 25.8621 34.2795 25.9774L35.7334 30.9846C35.7644 31.0812 35.7682 31.1844 35.7444 31.283C35.7205 31.3816 35.67 31.4717 35.5982 31.5434C35.5265 31.6152 35.4364 31.6657 35.3378 31.6896C35.2393 31.7134 35.136 31.7096 35.0394 31.6786L30.0461 30.2108C29.9308 30.1763 29.8095 30.1662 29.69 30.1811C29.5705 30.1961 29.4555 30.2357 29.3521 30.2976C26.336 32.0831 22.7724 32.7076 19.3288 32.0541C15.8853 31.4006 12.7982 29.5139 10.646 26.7475C8.49372 23.9811 7.42402 20.5249 7.63728 17.0264C7.85054 13.5279 9.33213 10.2272 11.8045 7.74271L11.8114 7.73577Z" fill="#232533"/>
<path d="M21.7318 27.8027C22.9547 28.2611 24.2836 28.3583 25.5602 28.0826C26.8368 27.807 28.0072 27.1702 28.932 26.2481L29.7475 25.4327C29.993 25.1871 30.1762 24.8862 30.2817 24.5553C30.3872 24.2244 30.4119 23.873 30.3538 23.5306C30.2957 23.1882 30.1565 22.8647 29.9478 22.5871C29.7391 22.3095 29.4669 22.0859 29.1541 21.9349L24.8375 19.853C24.6727 19.7734 24.4869 19.748 24.3068 19.7804C24.1267 19.8128 23.9614 19.9014 23.8347 20.0334L22.4918 21.4214H22.4571C21.5633 21.066 20.7514 20.5322 20.0707 19.8527C19.39 19.1732 18.8548 18.3622 18.4978 17.4691L19.8858 16.0811C20.0126 15.9538 20.0966 15.7903 20.1265 15.6131C20.1563 15.436 20.1304 15.2539 20.0524 15.0922L17.9704 10.7755C17.8195 10.4627 17.5959 10.1905 17.3183 9.98183C17.0407 9.77312 16.7171 9.6339 16.3747 9.57581C16.0323 9.51772 15.6809 9.54245 15.35 9.64793C15.0191 9.75342 14.7183 9.93659 14.4726 10.1821L13.6641 10.9802C12.7429 11.9042 12.1061 13.073 11.8294 14.3481C11.5526 15.6231 11.6474 16.9508 12.1027 18.1735C12.9254 20.3739 14.2108 22.3722 15.872 24.0334C17.5331 25.6945 19.5314 26.9799 21.7318 27.8027ZM14.896 12.2121L15.7114 11.3966C15.7613 11.3499 15.8213 11.3154 15.8868 11.2959C15.9523 11.2763 16.0214 11.2723 16.0888 11.2841C16.1561 11.2959 16.2197 11.3231 16.2747 11.3637C16.3296 11.4044 16.3744 11.4572 16.4054 11.5181L18.2306 15.283L17.207 16.3066C16.9904 16.528 16.8425 16.8073 16.7809 17.1108C16.7193 17.4143 16.7468 17.7291 16.86 18.0173C17.2968 19.1469 17.9616 20.1745 18.8129 21.036C19.6642 21.8974 20.6838 22.5743 21.8082 23.0245L21.9088 23.0627C22.2096 23.183 22.5395 23.2106 22.8561 23.142C23.1727 23.0734 23.4615 22.9116 23.6854 22.6775L24.6397 21.6851L28.3907 23.493C28.4516 23.524 28.5045 23.5688 28.5451 23.6237C28.5857 23.6787 28.6129 23.7423 28.6247 23.8096C28.6365 23.877 28.6325 23.9461 28.6129 24.0116C28.5934 24.0771 28.5589 24.1371 28.5122 24.187L27.6967 25.0024C27.0102 25.691 26.1402 26.1679 25.1905 26.3765C24.2407 26.585 23.251 26.5164 22.3391 26.1787C20.3729 25.4428 18.5874 24.2939 17.1029 22.8094C15.6184 21.3249 14.4695 19.5394 13.7335 17.5732C13.3939 16.662 13.3229 15.6725 13.5289 14.7222C13.735 13.7719 14.2094 12.9007 14.896 12.2121Z" fill="#232533"/>
<path d="M26.0941 14.6863C26.3208 14.6908 26.5401 14.606 26.7048 14.4503L28.3669 12.7882C28.4476 12.7075 28.5116 12.6118 28.5552 12.5064C28.5989 12.401 28.6213 12.2881 28.6213 12.174C28.6213 12.06 28.5989 11.947 28.5552 11.8416C28.5116 11.7362 28.4476 11.6405 28.3669 11.5598C28.2863 11.4792 28.1905 11.4152 28.0852 11.3715C27.9798 11.3279 27.8668 11.3054 27.7528 11.3054C27.6387 11.3054 27.5257 11.3279 27.4204 11.3715C27.315 11.4152 27.2192 11.4792 27.1386 11.5598L25.4626 13.2081C25.3409 13.3294 25.2581 13.4841 25.2245 13.6526C25.1909 13.8211 25.208 13.9957 25.2738 14.1544C25.3396 14.3131 25.451 14.4487 25.594 14.544C25.7369 14.6393 25.905 14.6901 26.0768 14.6897L26.0941 14.6863Z" fill="#232533"/>
<path d="M26.816 17.3026C26.8037 17.5322 26.8831 17.7573 27.0366 17.9284C27.1902 18.0995 27.4054 18.2027 27.6349 18.2152L29.7551 18.3332H29.8037C30.0337 18.3396 30.2569 18.2544 30.4242 18.0963C30.5914 17.9381 30.689 17.7201 30.6954 17.49C30.7019 17.2599 30.6167 17.0367 30.4585 16.8695C30.3004 16.7022 30.0823 16.6046 29.8522 16.5982L27.7321 16.4802C27.5016 16.4679 27.2756 16.5476 27.1039 16.7018C26.9321 16.856 26.8286 17.0721 26.816 17.3026Z" fill="#232533"/>
<path d="M22.5614 13.0968H22.61C22.8396 13.0842 23.0548 12.9811 23.2083 12.8099C23.3619 12.6388 23.4412 12.4137 23.4289 12.1842L23.311 10.064C23.3046 9.95008 23.2758 9.83853 23.2263 9.73573C23.1768 9.63292 23.1076 9.54087 23.0225 9.46482C22.9375 9.38878 22.8382 9.33024 22.7306 9.29253C22.6229 9.25483 22.5088 9.23871 22.3949 9.24509C22.281 9.25147 22.1694 9.28023 22.0666 9.32972C21.9638 9.3792 21.8717 9.44846 21.7957 9.53352C21.7197 9.61859 21.6611 9.7178 21.6234 9.82549C21.5857 9.93318 21.5696 10.0472 21.576 10.1612L21.6939 12.2813C21.7072 12.5023 21.8045 12.7098 21.9657 12.8614C22.127 13.0129 22.3401 13.0972 22.5614 13.0968Z" fill="#232533"/>
</svg>
