<svg width="80" height="80" viewBox="0 0 80 80" fill="none" xmlns="http://www.w3.org/2000/svg">
<g clip-path="url(#clip0_22395_16152)">
<path d="M27.501 72.5C44.1129 74 75.8794 66.0484 73.1517 53.5C70.6518 42 29.4781 46.5622 31.001 35C32.2193 25.7502 59.001 9 74.001 4.5" stroke="url(#paint0_linear_22395_16152)" stroke-width="3" stroke-linecap="round"/>
<path d="M72.03 8.73776C72.8368 10.0311 74.7209 10.0284 75.524 8.73267L78.7432 3.53827C79.5932 2.16673 78.6052 0.39515 76.9916 0.397501L70.5381 0.406904C68.9245 0.409255 67.9417 2.1837 68.7957 3.55277L72.03 8.73776Z" fill="#FF8585"/>
<path d="M29.9941 64.4506L34.6502 60.4732C37.4613 58.0695 41.2753 57.2022 44.8417 58.1562L50.7609 59.7298C55.0207 60.8698 58.7357 56.6199 57.0516 52.5434L54.6987 46.8809C53.287 43.4612 53.6338 39.5706 55.6399 36.4606L58.971 31.3186C61.3733 27.6139 58.4756 22.7692 54.0796 23.1161L47.9747 23.5994C44.2844 23.8968 40.6933 22.348 38.3653 19.4858L34.5017 14.7279C31.7154 11.2957 26.2172 12.5471 25.1894 16.8466L23.7654 22.8064C22.911 26.3996 20.3353 29.3486 16.8804 30.6743L11.1716 32.8798C7.06036 34.4658 6.54032 40.091 10.3049 42.3956L15.5305 45.5924C18.6883 47.5253 20.682 50.8831 20.8801 54.5755L21.2145 60.6964C21.4498 65.1073 26.6383 67.3252 29.9941 64.4506Z" fill="url(#paint1_linear_22395_16152)"/>
<path opacity="0.3" d="M43.6776 35.172C42.4393 35.0109 41.5601 33.8834 41.7211 32.6443C41.8821 31.4053 43.009 30.5256 44.2473 30.6867C45.4856 30.8478 46.3649 31.9753 46.2039 33.2143C46.0552 34.4533 44.916 35.3207 43.6776 35.172Z" fill="black"/>
<path opacity="0.7" d="M39.7159 42.7831C37.7039 43.7862 35.3086 41.9263 35.2506 39.3237C35.2197 38.0928 35.8276 36.9678 36.7799 36.5004C38.8036 35.4932 41.199 37.3531 41.2617 39.9696C41.2645 41.1946 40.6565 42.3195 39.7159 42.7831Z" fill="#A8A5CE"/>
<path opacity="0.3" d="M30.4273 37.8604C29.189 37.6994 28.3097 36.5719 28.4707 35.3328C28.6317 34.0938 29.7585 33.214 30.9969 33.3751C32.2352 33.5362 33.1145 34.6637 32.9534 35.9027C32.7924 37.1418 31.6532 38.0091 30.4273 37.8604Z" fill="black"/>
<path d="M19.0018 70.8055C19.4475 72.1109 20.867 72.8079 22.1724 72.3622C23.4779 71.9166 24.1748 70.497 23.7291 69.1916C23.2835 67.8862 21.8639 67.1892 20.5585 67.6349C19.2531 68.0806 18.5562 69.5001 19.0018 70.8055Z" fill="url(#paint2_linear_22395_16152)"/>
<path d="M11.6517 69.2463C12.0231 70.3342 13.2061 70.915 14.2939 70.5436C15.3817 70.1722 15.9625 68.9892 15.5911 67.9014C15.2198 66.8135 14.0368 66.2328 12.949 66.6041C11.8611 66.9755 11.2803 68.1585 11.6517 69.2463Z" fill="url(#paint3_linear_22395_16152)"/>
<path d="M5.71777 66.3596C6.04274 67.3115 7.07781 67.8197 8.02967 67.4947C8.98154 67.1698 9.48973 66.1347 9.16476 65.1828C8.8398 64.231 7.80472 63.7228 6.85286 64.0477C5.901 64.3727 5.3928 65.4078 5.71777 66.3596Z" fill="url(#paint4_linear_22395_16152)"/>
<path d="M0.50531 62.3658C0.783854 63.1816 1.67106 63.6172 2.48694 63.3387C3.30283 63.0601 3.73842 62.1729 3.45988 61.3571C3.18134 60.5412 2.29413 60.1056 1.47825 60.3841C0.662365 60.6627 0.226766 61.5499 0.50531 62.3658Z" fill="url(#paint5_linear_22395_16152)"/>
<path d="M31.856 64.837C32.9549 69.5972 37.7047 72.5651 42.4648 71.4662C47.2249 70.3672 50.1929 65.6175 49.0939 60.8573C47.995 56.0972 43.2452 53.1292 38.4851 54.2282C33.725 55.3272 30.757 60.0769 31.856 64.837Z" fill="white"/>
<path fill-rule="evenodd" clip-rule="evenodd" d="M28.8292 59.3574C29.0254 59.5859 29.0896 59.8973 29.0228 60.1911C28.938 60.5637 28.8796 60.9419 28.8478 61.3228C28.823 61.6206 28.6701 61.8962 28.4171 62.0554L25.3372 63.9933C25.0158 64.1956 24.8577 64.579 24.9431 64.949L25.5357 67.5157C25.6211 67.8856 25.9313 68.161 26.3088 68.2018L29.8878 68.5893C30.206 68.6238 30.4773 68.8282 30.6267 69.1112C30.8278 69.4924 31.0638 69.8541 31.3316 70.1918C31.5194 70.4286 31.5995 70.7373 31.5231 71.0297L30.6419 74.4018C30.5432 74.7792 30.7013 75.177 31.0322 75.3838L33.1962 76.736C33.527 76.9427 33.9539 76.9105 34.2499 76.6563L37.0044 74.2915C37.1704 74.1491 37.3833 74.0693 37.6011 74.0898C37.8747 74.1155 38.1351 74.1623 38.3956 74.2092C38.6107 74.2479 38.8258 74.2866 39.0483 74.3134C39.347 74.3493 39.6256 74.5015 39.7858 74.7561L41.7219 77.833C41.9241 78.1543 42.3075 78.3125 42.6775 78.2271L45.2442 77.6345C45.6141 77.5491 45.8895 77.2389 45.9303 76.8614L46.3178 73.2823C46.3523 72.9642 46.5567 72.6928 46.8397 72.5435C47.2209 72.3423 47.5826 72.1064 47.9203 71.8386C48.1571 71.6508 48.4658 71.5706 48.7582 71.6471L52.1303 72.5283C52.5078 72.6269 52.9055 72.4688 53.1123 72.138L54.4645 69.974C54.6712 69.6431 54.639 69.2163 54.3848 68.9203L52.0201 66.1657C51.8776 65.9998 51.7978 65.7868 51.8183 65.5691C51.844 65.2954 51.8909 65.035 51.9377 64.7746C51.9764 64.5595 52.0151 64.3444 52.0419 64.1219C52.0778 63.8232 52.23 63.5446 52.4846 63.3843L55.5615 61.4483C55.8829 61.2461 56.041 60.8626 55.9556 60.4927L55.363 57.926C55.2776 57.556 54.9674 57.2807 54.5899 57.2398L50.9721 56.8481C50.675 56.816 50.4167 56.6353 50.2638 56.3785C50.0684 56.0501 49.85 55.7358 49.6105 55.438C49.4217 55.2033 49.3428 54.8953 49.419 54.6038L50.3007 51.23C50.3994 50.8525 50.2412 50.4547 49.9104 50.248L47.5124 48.7496C47.1815 48.5428 46.7547 48.5751 46.4587 48.8292L43.8128 51.1007C43.5842 51.2969 43.2728 51.361 42.9791 51.2942C42.6064 51.2095 42.2283 51.151 41.8474 51.1193C41.5496 51.0945 41.274 50.9416 41.1148 50.6886L39.1768 47.6087C38.9746 47.2873 38.5911 47.1292 38.2212 47.2146L35.663 47.8052C35.2889 47.8915 35.0121 48.2076 34.9757 48.5898L34.6188 52.341C34.5881 52.6637 34.3825 52.9403 34.096 53.0919C33.7174 53.2923 33.3579 53.527 33.0223 53.7932C32.7854 53.981 32.4768 54.0611 32.1844 53.9847L28.8123 53.1035C28.4348 53.0048 28.037 53.1629 27.8303 53.4938L26.4781 55.6578C26.2713 55.9886 26.3036 56.4155 26.5577 56.7115L28.8292 59.3574ZM41.7186 68.213C38.6852 68.9133 35.6584 67.0219 34.9581 63.9885C34.2578 60.9551 36.1491 57.9283 39.1826 57.228C42.216 56.5277 45.2428 58.419 45.9431 61.4524C46.6434 64.4859 44.7521 67.5127 41.7186 68.213Z" fill="url(#paint6_linear_22395_16152)"/>
</g>
<defs>
<linearGradient id="paint0_linear_22395_16152" x1="51.5761" y1="72.6811" x2="70.501" y2="4.50001" gradientUnits="userSpaceOnUse">
<stop stop-color="#DFDEEF"/>
<stop offset="0.756959" stop-color="#BBBBD0"/>
<stop offset="1" stop-color="#FF8585"/>
</linearGradient>
<linearGradient id="paint1_linear_22395_16152" x1="28.5041" y1="10.9859" x2="43.0836" y2="63.0883" gradientUnits="userSpaceOnUse">
<stop stop-color="#EBEAF6"/>
<stop offset="0.495" stop-color="#DFDEEF"/>
</linearGradient>
<linearGradient id="paint2_linear_22395_16152" x1="24.4583" y1="71.3274" x2="0.735126" y2="59.7692" gradientUnits="userSpaceOnUse">
<stop stop-color="#DFDEEF"/>
<stop offset="1" stop-color="#F7F7FF"/>
</linearGradient>
<linearGradient id="paint3_linear_22395_16152" x1="24.4583" y1="71.3274" x2="0.735126" y2="59.7692" gradientUnits="userSpaceOnUse">
<stop stop-color="#DFDEEF"/>
<stop offset="1" stop-color="#F7F7FF"/>
</linearGradient>
<linearGradient id="paint4_linear_22395_16152" x1="24.4583" y1="71.3274" x2="0.735126" y2="59.7692" gradientUnits="userSpaceOnUse">
<stop stop-color="#DFDEEF"/>
<stop offset="1" stop-color="#F7F7FF"/>
</linearGradient>
<linearGradient id="paint5_linear_22395_16152" x1="24.4583" y1="71.3274" x2="0.735126" y2="59.7692" gradientUnits="userSpaceOnUse">
<stop stop-color="#DFDEEF"/>
<stop offset="1" stop-color="#F7F7FF"/>
</linearGradient>
<linearGradient id="paint6_linear_22395_16152" x1="33.6813" y1="51.4023" x2="54.1779" y2="73.3885" gradientUnits="userSpaceOnUse">
<stop stop-color="#C6C5E3"/>
<stop offset="0.838624" stop-color="#B5B3D5"/>
</linearGradient>
<clipPath id="clip0_22395_16152">
<rect width="80" height="80" fill="white"/>
</clipPath>
</defs>
</svg>
