<svg width="80" height="80" viewBox="0 0 80 80" fill="none" xmlns="http://www.w3.org/2000/svg">
<path opacity="0.7" d="M46.3115 64.4506L41.6554 60.4732C38.8444 58.0695 35.0304 57.2022 31.464 58.1562L25.5448 59.7298C21.285 60.8698 17.57 56.6199 19.2541 52.5434L21.6069 46.8809C23.0186 43.4612 22.6719 39.5706 20.6658 36.4606L17.3347 31.3186C14.9324 27.6139 17.8301 22.7692 22.2261 23.1161L28.331 23.5994C32.0212 23.8968 35.6124 22.348 37.9404 19.4858L41.804 14.7279C44.5903 11.2957 50.0884 12.5471 51.1162 16.8466L52.5402 22.8064C53.3946 26.3996 55.9704 29.3486 59.4253 30.6743L65.134 32.8798C69.2453 34.4658 69.7653 40.091 66.0008 42.3956L60.7751 45.5924C57.6174 47.5253 55.6237 50.8831 55.4255 54.5755L55.0911 60.6964C54.8559 65.1073 49.6673 67.3252 46.3115 64.4506Z" fill="url(#paint0_linear_22381_7290)"/>
<path opacity="0.3" d="M32.628 35.172C33.8663 35.0109 34.7455 33.8834 34.5845 32.6443C34.4236 31.4053 33.2967 30.5256 32.0584 30.6867C30.8201 30.8478 29.9408 31.9753 30.1018 33.2143C30.2504 34.4533 31.3897 35.3207 32.628 35.172Z" fill="black"/>
<path opacity="0.7" d="M36.5898 42.7831C38.6018 43.7862 40.9971 41.9263 41.0551 39.3237C41.086 38.0928 40.4781 36.9678 39.5258 36.5004C37.5021 35.4932 35.1066 37.3531 35.0439 39.9696C35.0412 41.1946 35.6492 42.3195 36.5898 42.7831Z" fill="#A8A5CE"/>
<path opacity="0.3" d="M45.8784 37.8605C47.1167 37.6994 47.9959 36.5719 47.835 35.3328C47.674 34.0938 46.5471 33.2141 45.3088 33.3751C44.0705 33.5362 43.1912 34.6637 43.3523 35.9028C43.5133 37.1418 44.6525 38.0091 45.8784 37.8605Z" fill="black"/>
<path d="M60.5277 63.6187C60.5277 64.9981 59.4095 66.1163 58.0301 66.1163C56.6507 66.1163 55.5325 64.9981 55.5325 63.6187C55.5325 62.2393 56.6507 61.1211 58.0301 61.1211C59.4095 61.1211 60.5277 62.2393 60.5277 63.6187Z" fill="#BBBBD0"/>
<path d="M66.9798 59.7684C66.9798 60.9178 66.048 61.8497 64.8985 61.8497C63.749 61.8497 62.8171 60.9178 62.8171 59.7684C62.8171 58.6189 63.749 57.687 64.8985 57.687C66.048 57.687 66.9798 58.6189 66.9798 59.7684Z" fill="#BBBBD0"/>
<path d="M71.6629 55.1193C71.6629 56.1251 70.8475 56.9404 69.8417 56.9404C68.8359 56.9404 68.0205 56.1251 68.0205 55.1193C68.0205 54.1135 68.8359 53.2981 69.8417 53.2981C70.8475 53.2981 71.6629 54.1135 71.6629 55.1193Z" fill="#BBBBD0"/>
<path d="M75.3054 49.6555C75.3054 50.5176 74.6065 51.2165 73.7444 51.2165C72.8822 51.2165 72.1833 50.5176 72.1833 49.6555C72.1833 48.7934 72.8822 48.0945 73.7444 48.0945C74.6065 48.0945 75.3054 48.7934 75.3054 49.6555Z" fill="#BBBBD0"/>
<path d="M76.4251 44.8894C77.8975 39.5749 78.9277 28.3834 71.0572 17.6366C62.2425 5.60052 50.7931 3.67899 43.7602 3.10847C33.2903 2.25914 11.8285 5.95779 6.17944 30.0257" stroke="url(#paint1_linear_22381_7290)" stroke-width="2.5" stroke-linecap="round"/>
<path d="M6.11793 37.5504C5.15591 38.5511 3.47772 38.1944 3.00588 36.889L1.11435 31.6556C0.614899 30.2738 1.82826 28.8811 3.26547 29.1866L9.01361 30.4084C10.4508 30.7139 10.9928 32.4797 9.97453 33.5389L6.11793 37.5504Z" fill="#FF8585"/>
<path d="M44.4497 64.837C43.3507 69.5972 38.601 72.5651 33.8409 71.4662C29.0807 70.3672 26.1128 65.6175 27.2117 60.8573C28.3107 56.0972 33.0604 53.1292 37.8206 54.2282C42.5807 55.3272 45.5487 60.0769 44.4497 64.837Z" fill="white"/>
<path fill-rule="evenodd" clip-rule="evenodd" d="M47.4765 59.3574C47.2802 59.5859 47.2161 59.8973 47.2829 60.1911C47.3677 60.5637 47.4261 60.9419 47.4578 61.3228C47.4826 61.6206 47.6356 61.8962 47.8885 62.0554L50.9685 63.9933C51.2898 64.1956 51.448 64.579 51.3626 64.949L50.77 67.5157C50.6846 67.8856 50.3744 68.161 49.9969 68.2018L46.4178 68.5893C46.0997 68.6238 45.8283 68.8282 45.679 69.1112C45.4778 69.4924 45.2419 69.8541 44.9741 70.1918C44.7863 70.4286 44.7061 70.7373 44.7826 71.0297L45.6638 74.4018C45.7624 74.7792 45.6043 75.177 45.2735 75.3838L43.1095 76.736C42.7786 76.9427 42.3518 76.9105 42.0558 76.6563L39.3012 74.2915C39.1353 74.1491 38.9223 74.0693 38.7046 74.0898C38.4309 74.1155 38.1705 74.1623 37.9101 74.2092C37.695 74.2479 37.4799 74.2866 37.2574 74.3134C36.9587 74.3493 36.6801 74.5015 36.5198 74.7561L34.5838 77.833C34.3816 78.1543 33.9981 78.3125 33.6282 78.2271L31.0615 77.6345C30.6915 77.5491 30.4162 77.2389 30.3753 76.8614L29.9878 73.2823C29.9534 72.9642 29.749 72.6928 29.4659 72.5435C29.0848 72.3423 28.7231 72.1064 28.3853 71.8386C28.1485 71.6508 27.8399 71.5706 27.5474 71.6471L24.1754 72.5283C23.7979 72.6269 23.4001 72.4688 23.1934 72.138L21.8412 69.974C21.6344 69.6431 21.6667 69.2163 21.9208 68.9203L24.2856 66.1657C24.4281 65.9998 24.5078 65.7868 24.4874 65.5691C24.4617 65.2954 24.4148 65.035 24.368 64.7746C24.3293 64.5595 24.2906 64.3444 24.2638 64.1219C24.2278 63.8232 24.0757 63.5446 23.821 63.3843L20.7442 61.4483C20.4228 61.2461 20.2647 60.8626 20.3501 60.4927L20.9426 57.926C21.028 57.556 21.3383 57.2807 21.7158 57.2398L25.3336 56.8481C25.6307 56.816 25.889 56.6353 26.0418 56.3785C26.2373 56.0501 26.4556 55.7358 26.6952 55.438C26.884 55.2033 26.9628 54.8953 26.8867 54.6038L26.0049 51.23C25.9063 50.8525 26.0644 50.4547 26.3953 50.248L28.7933 48.7496C29.1241 48.5428 29.551 48.5751 29.847 48.8292L32.4929 51.1007C32.7214 51.2969 33.0328 51.361 33.3266 51.2942C33.6992 51.2095 34.0774 51.151 34.4583 51.1193C34.7561 51.0945 35.0317 50.9416 35.1909 50.6886L37.1288 47.6087C37.331 47.2873 37.7145 47.1292 38.0845 47.2146L40.6426 47.8052C41.0167 47.8915 41.2936 48.2076 41.33 48.5898L41.6869 52.341C41.7176 52.6637 41.9232 52.9403 42.2097 53.0919C42.5883 53.2923 42.9477 53.527 43.2834 53.7932C43.5202 53.981 43.8289 54.0611 44.1213 53.9847L47.4934 53.1035C47.8708 53.0048 48.2686 53.1629 48.4754 53.4938L49.8276 55.6578C50.0343 55.9886 50.0021 56.4155 49.7479 56.7115L47.4765 59.3574ZM34.587 68.213C37.6204 68.9133 40.6472 67.0219 41.3476 63.9885C42.0479 60.9551 40.1565 57.9283 37.1231 57.228C34.0897 56.5277 31.0629 58.419 30.3626 61.4524C29.6623 64.4859 31.5536 67.5127 34.587 68.213Z" fill="url(#paint2_linear_22381_7290)"/>
<defs>
<linearGradient id="paint0_linear_22381_7290" x1="47.8015" y1="10.9859" x2="33.2221" y2="63.0883" gradientUnits="userSpaceOnUse">
<stop stop-color="#EBEAF6"/>
<stop offset="0.495" stop-color="#DFDEEF"/>
</linearGradient>
<linearGradient id="paint1_linear_22381_7290" x1="33.3751" y1="1.32722" x2="3.89843" y2="25.083" gradientUnits="userSpaceOnUse">
<stop stop-color="#BBBBD0"/>
<stop offset="0.55" stop-color="#B5B3D5"/>
<stop offset="1" stop-color="#FF8585"/>
</linearGradient>
<linearGradient id="paint2_linear_22381_7290" x1="42.6244" y1="51.4023" x2="22.1278" y2="73.3885" gradientUnits="userSpaceOnUse">
<stop stop-color="#C6C5E3"/>
<stop offset="0.838624" stop-color="#B5B3D5"/>
</linearGradient>
</defs>
</svg>
