<svg width="28" height="28" viewBox="0 0 28 28" fill="none" xmlns="http://www.w3.org/2000/svg">
<path d="M22.8941 12.3333C22.8941 11.8333 23.0588 11.3333 23.0588 10.6667C23.0588 7 20.0941 4 16.4706 4C13.8353 4 11.6941 5.5 10.5412 7.66667C10.2118 7.5 9.55294 7.33333 9.05882 7.33333C6.75294 7.33333 4.94118 9.16667 4.94118 11.5C4.94118 11.8333 4.94118 12.1667 5.10588 12.3333C2.14118 12.8333 0 15.1667 0 18.1667C0 21.3333 2.63529 24 5.76471 24H22.2353C25.3647 24 28 21.3333 28 18.1667C28 15.1667 25.8588 12.6667 22.8941 12.3333Z" fill="url(#paint0_linear_11489_95995)"/>
<defs>
<linearGradient id="paint0_linear_11489_95995" x1="14" y1="4" x2="14" y2="24" gradientUnits="userSpaceOnUse">
<stop stop-color="#CDCBFF"/>
<stop offset="1" stop-color="#B2B0FE"/>
</linearGradient>
</defs>
</svg>
