<svg width="28" height="28" viewBox="0 0 28 28" fill="none" xmlns="http://www.w3.org/2000/svg">
<path d="M22.8941 9.33333C22.8941 8.83333 23.0588 8.33333 23.0588 7.66667C23.0588 4 20.0941 1 16.4706 1C13.8353 1 11.6941 2.5 10.5412 4.66667C10.2118 4.5 9.55294 4.33333 9.05882 4.33333C6.75294 4.33333 4.94118 6.16667 4.94118 8.5C4.94118 8.83333 4.94118 9.16667 5.10588 9.33333C2.14118 9.83333 0 12.1667 0 15.1667C0 18.3333 2.63529 21 5.76471 21H22.2353C25.3647 21 28 18.3333 28 15.1667C28 12.1667 25.8588 9.66667 22.8941 9.33333Z" fill="url(#paint0_linear_11489_95995)"/>
<path d="M18.3956 22.8733C18.3956 22.8733 20.3873 22.3727 21.8696 24.2954C23.3519 26.2181 24.1976 25.93 24.0367 25.5653C23.8757 25.2006 23.2504 25.2588 22.1566 23.5711C21.0629 21.8834 19.6226 20.8066 18.2613 21.2612C16.9 21.7158 17.7323 22.9561 18.3956 22.8733Z" fill="#6653AD"/>
<path d="M15.3903 22.9152C15.3903 22.9152 17.4097 23.2953 17.9438 25.6603C18.4778 28.0254 19.3686 28.1122 19.3789 27.721C19.3891 27.3297 18.7925 27.1172 18.5137 25.123C18.2349 23.1288 17.38 21.5534 15.951 21.3971C14.522 21.2408 14.7526 22.7109 15.3903 22.9152Z" fill="#6653AD"/>
<path d="M9.78851 22.8733C9.78851 22.8733 7.79675 22.3727 6.31447 24.2954C4.83218 26.2181 3.98648 25.93 4.14742 25.5653C4.30836 25.2006 4.93367 25.2588 6.02744 23.5711C7.12122 21.8834 8.56147 20.8066 9.9228 21.2612C11.2841 21.7158 10.4517 22.9561 9.78851 22.8733Z" fill="#6653AD"/>
<path d="M12.7944 23.0173C12.7944 23.0173 10.775 23.3973 10.2409 25.7624C9.70685 28.1274 8.81605 28.2143 8.80579 27.823C8.79554 27.4317 9.39215 27.2192 9.67097 25.225C9.9498 23.2308 10.8047 21.6555 12.2337 21.4992C13.6627 21.3429 13.431 22.813 12.7944 23.0173Z" fill="#6653AD"/>
<path d="M18.4827 24.9432C18.4478 24.7215 18.4047 24.5059 18.3555 24.2975C18.048 24.1862 17.7128 24.176 17.556 24.2556C17.499 24.2838 17.4531 24.3302 17.4258 24.3874C17.5273 24.547 17.6164 24.714 17.6923 24.887C17.8092 24.8482 18.169 24.8921 18.4827 24.9432Z" fill="#38327C"/>
<path d="M7.1446 23.4148C6.96111 23.2932 6.48854 23.2799 6.11336 23.4403C6.08466 23.4832 6.05493 23.5272 6.02725 23.5711C5.92475 23.7366 5.82224 23.8847 5.71973 24.0186C5.90629 24.0043 6.28558 23.9787 6.57875 23.9828C6.76186 23.7845 6.96525 23.6057 7.18561 23.4495C7.17312 23.4366 7.15939 23.425 7.1446 23.4148Z" fill="#38327C"/>
<path d="M9.80905 24.4844C9.76497 24.6765 9.72807 24.8737 9.69629 25.0749C9.96096 25.0234 10.2287 24.9893 10.4979 24.9728C10.59 24.7641 10.7019 24.5646 10.8321 24.3772C10.8219 24.3694 10.8113 24.3623 10.8003 24.3557C10.6096 24.2607 10.1586 24.2975 9.80905 24.4844Z" fill="#38327C"/>
<path d="M22.4533 24.0053C22.359 23.8758 22.2599 23.7311 22.156 23.5711C22.112 23.5016 22.0669 23.4342 22.0207 23.3667C21.6978 23.2881 21.3585 23.3157 21.2109 23.4137C21.1663 23.4425 21.1308 23.4832 21.1084 23.5312C21.2884 23.6692 21.4561 23.8223 21.6097 23.9889C21.891 23.9776 22.1727 23.9831 22.4533 24.0053Z" fill="#38327C"/>
<path d="M24.4691 18.9196C24.1572 18.4345 23.8831 17.9263 23.649 17.3995L24.3358 17.6324C24.6433 17.1645 24.5511 16.3737 24.5511 16.3737L24.1984 16.3104C24.3604 14.7913 23.6623 13.0412 23.6623 13.0412C23.9326 12.8752 24.1887 12.6872 24.4281 12.4793C24.2661 11.3647 23.8212 10.8447 23.8212 10.8447L23.1036 11.328C21.976 9.46553 20.2129 8.47559 20.2129 8.47559L20.9069 6.57843C20.3666 5.27075 18.7542 5.33001 18.7542 5.33001L18.0715 6.95542C16.5062 6.26173 15.2709 6.51407 15.2709 6.51407L15.7619 4.87028C15.0054 3.7465 13.5406 4.03256 13.5406 4.03256L12.577 6.77356C10.7462 6.7327 6.7524 7.01467 5.81136 10.1378C5.81136 10.1378 4.17121 16.4718 2.53106 18.9237C0.890915 21.3756 3.35114 23.7029 5.81136 23.7141C8.27158 23.7253 8.68162 24.9513 13.4996 24.9513C18.3175 24.9513 18.7275 23.7253 21.1878 23.7141C23.648 23.7029 26.1092 21.3715 24.4691 18.9196Z" fill="url(#paint1_linear_11489_95995)"/>
<path d="M18.703 18.1023C19.4531 18.1023 20.0612 17.4963 20.0612 16.7487C20.0612 16.0011 19.4531 15.395 18.703 15.395C17.9528 15.395 17.3447 16.0011 17.3447 16.7487C17.3447 17.4963 17.9528 18.1023 18.703 18.1023Z" fill="white"/>
<path opacity="0.43" d="M12.5576 6.82367L13.5427 4.03873C13.5427 4.03873 15.0076 3.75779 15.7641 4.87647L15.2731 6.52025C15.2731 6.52025 16.5032 6.26791 18.0736 6.96159L18.7564 5.3362C18.7564 5.3362 20.3698 5.27694 20.909 6.58462L20.2151 8.48176C20.2151 8.48176 21.9772 9.47172 23.1058 11.3341L23.8234 10.8509C23.8234 10.8509 24.2683 11.3679 24.4302 12.4855C24.1909 12.6934 23.9348 12.8814 23.6645 13.0474C23.6645 13.0474 24.3626 14.7944 24.2006 16.3166L24.5532 16.3799C24.5532 16.3799 24.6476 17.1707 24.338 17.6386L18 15C17.2742 14.7534 15.78 14.0735 15.2731 13.5C14.7662 12.9265 14.1539 11.7487 14 11L12.5576 6.82367Z" fill="url(#paint2_linear_11489_95995)"/>
<path d="M9.37435 18.1535C10.1528 18.1535 10.7838 17.5245 10.7838 16.7487C10.7838 15.9729 10.1528 15.344 9.37435 15.344C8.5959 15.344 7.96484 15.9729 7.96484 16.7487C7.96484 17.5245 8.5959 18.1535 9.37435 18.1535Z" fill="white"/>
<path opacity="0.65" d="M15.548 4.61079C15.1911 4.35859 14.7513 4.25121 14.3178 4.31044L13.4978 6.66017C13.1777 6.67193 12.8606 6.72586 12.5547 6.82056L13.5398 4.03562C13.5398 4.03562 14.7248 3.78736 15.548 4.61079Z" fill="#B3ACEF"/>
<path opacity="0.65" d="M17.2129 6.65615C17.2129 6.65615 18.0166 6.86048 18.3241 7.16697C18.3241 7.16697 18.9391 5.73669 19.1442 5.43021C19.4168 5.45257 19.686 5.50534 19.9468 5.58754C19.9468 5.58754 19.301 5.23406 18.7618 5.33214L18.1201 6.88704C17.8238 6.78786 17.5206 6.71069 17.2129 6.65615Z" fill="#B3ACEF"/>
<path opacity="0.65" d="M24.5061 17.2094C24.4926 17.2624 24.4611 17.309 24.417 17.3415C24.3729 17.3739 24.3189 17.39 24.2641 17.3872C24.0591 17.3872 23.7516 17.1829 23.6491 17.1829C23.5466 17.1829 23.6491 17.3994 23.6491 17.3994L24.3359 17.6324C24.3359 17.6324 24.4405 17.5425 24.5061 17.2094Z" fill="#B3ACEF"/>
<defs>
<linearGradient id="paint0_linear_11489_95995" x1="14" y1="1" x2="14" y2="21" gradientUnits="userSpaceOnUse">
<stop stop-color="#D8D7FF"/>
<stop offset="1" stop-color="#CDCBFE"/>
</linearGradient>
<linearGradient id="paint1_linear_11489_95995" x1="13.5" y1="4" x2="13.5" y2="24.9513" gradientUnits="userSpaceOnUse">
<stop stop-color="#B3A5EB"/>
<stop offset="1" stop-color="#765CD5"/>
</linearGradient>
<linearGradient id="paint2_linear_11489_95995" x1="18.5622" y1="4.00732" x2="18.5622" y2="17.6386" gradientUnits="userSpaceOnUse">
<stop stop-color="#5B0C77"/>
<stop offset="1" stop-color="#431E94"/>
</linearGradient>
</defs>
</svg>
