<svg width="48" height="48" viewBox="0 0 48 48" fill="none" xmlns="http://www.w3.org/2000/svg">
<path d="M0 12C0 5.37258 5.37258 0 12 0H36C42.6274 0 48 5.37258 48 12V36C48 42.6274 42.6274 48 36 48H12C5.37258 48 0 42.6274 0 36V12Z" fill="url(#paint0_linear_23288_144589-372717)"/>
<path fill-rule="evenodd" clip-rule="evenodd" d="M26.502 12.5972C28.8547 13.2304 31.0798 14.5037 32.9122 16.4134C32.9122 16.4134 35.4341 13.5088 37.001 15.5344C38.0334 16.8732 36.9684 19.8364 36.1267 21.7024C37.8375 26.722 38.2332 30.9929 32.7909 36.45C27.3486 41.907 18.5781 41.7856 13.2071 36.1787C7.83605 30.5718 7.88607 21.5992 13.3283 16.1421C15.1658 14.2996 17.3819 13.0932 19.7184 12.5191C19.8822 12.3903 20.0054 12.2736 20.0849 12.1781C20.3775 11.8182 20.6113 11.536 20.8051 11.3019C21.0804 10.9696 21.2752 10.7344 21.4438 10.5119C21.6542 10.266 22.1312 9.98671 22.4923 10.0514C22.8534 10.1161 23.0412 10.6005 22.9621 11.2145C22.9598 11.2426 22.957 11.2735 22.9541 11.3062C22.9309 11.5632 22.8975 11.9335 23.0153 12.004C23.1374 12.0635 23.3496 11.8324 23.6718 11.4816C24.0003 11.1238 24.4431 10.6415 25.0215 10.2158C25.4033 9.93468 25.8416 9.77007 26.2399 10.0086C26.5624 10.1879 26.5596 10.7648 26.4809 11.2826C26.4486 11.5837 26.4039 12.1152 26.502 12.5972Z" fill="url(#paint1_linear_23288_144589-964650)"/>
<path d="M28.8872 21.2763C28.0338 21.4535 27.187 20.8903 27.0079 20.0158C26.8287 19.1413 27.3733 18.2787 28.2267 18.1014C29.0801 17.9242 29.9269 18.4874 30.1061 19.3619C30.2852 20.2364 29.7394 21.0907 28.8872 21.2763Z" fill="#373ED4"/>
<path d="M20.4722 25.5945C19.4425 25.8084 18.4207 25.1288 18.2045 24.0736C17.9883 23.0183 18.6455 21.9775 19.6752 21.7636C20.705 21.5497 21.7267 22.2294 21.9429 23.2846C22.1689 24.3384 21.5118 25.3792 20.4722 25.5945Z" fill="#373ED4"/>
<path d="M21.1675 29.0621C21.271 28.4191 21.4603 27.9069 21.9627 27.4088C22.9689 26.4134 25.0603 26.4324 25.8879 27.5633C26.035 27.7322 26.17 27.9314 26.3023 28.1666L26.6016 28.6989L26.9969 28.2333C27.172 28.0276 27.3429 27.8576 27.5194 27.7201C28.5479 26.7674 30.6044 27.1466 31.4023 28.3156C31.8013 28.9002 31.8895 29.4391 31.8687 30.0901C31.7428 32.0193 30.1989 33.4255 30.005 33.6347C28.9508 34.6551 27.8165 35.6067 26.6741 36.4741C26.4683 36.622 26.2909 36.7446 26.1137 36.866C26.0074 36.937 25.9022 37.0092 25.7966 37.0797C25.7064 36.9902 25.6173 36.8995 25.5269 36.8096C25.3754 36.6566 25.2246 36.5026 25.0513 36.3182C24.0945 35.2491 23.1618 34.0997 22.3202 32.8965C22.1697 32.6543 20.9215 30.9799 21.1656 29.062" fill="#829FD9"/>
<path d="M14.6377 33.4381C14.6377 33.4381 18.3133 28.1033 20.296 29.508C23.1214 31.8926 18.2761 37.8236 18.2761 37.8236" stroke="url(#paint2_linear_23288_144589-395724)" stroke-width="1.01822" stroke-miterlimit="10" stroke-linecap="round" stroke-linejoin="round"/>
<g clip-path="url(#clip0_23288_144589-335783)">
<path d="M37.3556 7.65946C37.1904 7.32721 37.0007 7.08068 36.6431 6.89486C35.9272 6.52381 34.7929 6.88834 34.5343 7.64362C34.4828 7.76035 34.4431 7.89157 34.411 8.04192L34.3384 8.38214L34.0445 8.19583C33.9144 8.1136 33.7927 8.05007 33.6734 8.00515C32.9527 7.66116 31.8983 8.21568 31.6623 8.9866C31.5442 9.37218 31.5875 9.6802 31.7091 10.0308C32.1043 11.0588 33.1822 11.5622 33.3231 11.6431C34.0692 12.0196 34.8474 12.3451 35.6156 12.6235C35.7527 12.6691 35.8699 12.7057 35.9868 12.7417C36.0567 12.7623 36.1261 12.7838 36.1955 12.8043C36.2294 12.7403 36.2625 12.6759 36.2965 12.6117C36.353 12.5028 36.4089 12.3935 36.4719 12.2639C36.8113 11.5204 37.124 10.7372 37.3779 9.94025C37.4188 9.78299 37.8141 8.6609 37.3566 7.65905" fill="#99A9D0"/>
<path d="M36.9736 7.60678C36.936 7.51964 36.8858 7.43847 36.8247 7.36584C36.769 7.29951 36.7037 7.24186 36.6309 7.19478C36.2046 6.91806 35.5715 7.01973 35.1328 7.31935C34.9645 7.44302 34.8066 7.59216 34.7955 7.80713C34.7983 7.89616 34.8756 7.90713 34.9689 7.8624C35.298 7.67881 35.6946 7.55313 36.0623 7.57327C36.154 7.57856 36.2437 7.59282 36.3306 7.61736C36.6209 7.69501 36.8263 7.919 36.979 8.16261C37.0764 8.09643 37.0807 7.94433 37.0468 7.82483C37.0308 7.74959 37.0062 7.67642 36.9737 7.60675" fill="#E8EFFF"/>
</g>
<defs>
<linearGradient id="paint0_linear_23288_144589-372717" x1="24" y1="0" x2="24" y2="48" gradientUnits="userSpaceOnUse">
<stop stop-color="#5F55D9"/>
<stop offset="1" stop-color="#2F68D6"/>
</linearGradient>
<linearGradient id="paint1_linear_23288_144589-964650" x1="21.5641" y1="10.1545" x2="26.0077" y2="40.1916" gradientUnits="userSpaceOnUse">
<stop stop-color="#F0F4FF"/>
<stop offset="1" stop-color="#C8DCFC"/>
</linearGradient>
<linearGradient id="paint2_linear_23288_144589-395724" x1="21.0307" y1="29.2257" x2="17.4648" y2="35.242" gradientUnits="userSpaceOnUse">
<stop offset="0.174466" stop-color="#3865D7"/>
<stop offset="1" stop-color="#3865D7" stop-opacity="0"/>
</linearGradient>
<clipPath id="clip0_23288_144589-335783">
<rect width="6.1555" height="6.1555" fill="white" transform="translate(31 8.38342) rotate(-22.7804)"/>
</clipPath>
</defs>
</svg>
