<svg width="48" height="48" viewBox="0 0 48 48" fill="none" xmlns="http://www.w3.org/2000/svg">
<path d="M0 12C0 5.37258 5.37258 0 12 0H36C42.6274 0 48 5.37258 48 12V36C48 42.6274 42.6274 48 36 48H12C5.37258 48 0 42.6274 0 36V12Z" fill="#F3F9CD"/>
<path fill-rule="evenodd" clip-rule="evenodd" d="M19.4797 15.3364C17.5465 16.5394 15.9006 18.2806 14.7783 20.4847C14.7783 20.4847 11.7363 18.5688 10.8828 20.8048C10.3216 22.2817 12.0761 24.6443 13.3339 26.0857C13.1619 31.0389 13.9636 34.9665 20.3086 38.3754C26.6536 41.7843 34.4663 39.3024 37.7537 32.8334C41.0411 26.3645 38.5684 18.3516 32.2234 14.9427C30.0811 13.7917 27.7722 13.3121 25.5267 13.4309C25.3453 13.36 25.2036 13.289 25.1067 13.2251C24.7475 12.9823 24.462 12.7931 24.2253 12.6362C23.8891 12.4134 23.6512 12.2557 23.4403 12.1023C23.1854 11.9392 22.6832 11.8185 22.3777 11.9741C22.0722 12.1297 22.0353 12.6139 22.2722 13.1416C22.2818 13.1662 22.2927 13.1931 22.3042 13.2215C22.3944 13.4451 22.5245 13.7673 22.4382 13.8623C22.3451 13.9486 22.0927 13.7993 21.7096 13.5726C21.3189 13.3415 20.7923 13.0299 20.1597 12.8055C19.7421 12.6574 19.3054 12.6287 19.0137 12.9499C18.7737 13.1976 18.9324 13.7129 19.1428 14.1548C19.2533 14.4153 19.437 14.8787 19.4797 15.3364Z" fill="#C0E0AC"/>
<path fill-rule="evenodd" clip-rule="evenodd" d="M19.4797 15.3364C17.5465 16.5394 15.9006 18.2806 14.7783 20.4847C14.7783 20.4847 11.7363 18.5688 10.8828 20.8048C10.3216 22.2817 12.0761 24.6443 13.3339 26.0857C13.1619 31.0389 13.9636 34.9665 20.3086 38.3754C26.6536 41.7843 34.4663 39.3024 37.7537 32.8334C41.0411 26.3645 38.5684 18.3516 32.2234 14.9427C30.0811 13.7917 27.7722 13.3121 25.5267 13.4309C25.3453 13.36 25.2036 13.289 25.1067 13.2251C24.7475 12.9823 24.462 12.7931 24.2253 12.6362C23.8891 12.4134 23.6512 12.2557 23.4403 12.1023C23.1854 11.9392 22.6832 11.8185 22.3777 11.9741C22.0722 12.1297 22.0353 12.6139 22.2722 13.1416C22.2818 13.1662 22.2927 13.1931 22.3042 13.2215C22.3944 13.4451 22.5245 13.7673 22.4382 13.8623C22.3451 13.9486 22.0927 13.7993 21.7096 13.5726C21.3189 13.3415 20.7923 13.0299 20.1597 12.8055C19.7421 12.6574 19.3054 12.6287 19.0137 12.9499C18.7737 13.1976 18.9324 13.7129 19.1428 14.1548C19.2533 14.4153 19.437 14.8787 19.4797 15.3364Z" fill="url(#paint0_linear_23207_138726)" fill-opacity="0.2"/>
<path d="M19.6944 23.7457C20.5058 23.6733 21.1108 22.9403 21.0345 22.1095C20.9581 21.2788 20.2376 20.6545 19.4262 20.7269C18.6148 20.7992 18.0097 21.5322 18.0861 22.363C18.1625 23.1938 18.8819 23.8103 19.6944 23.7457Z" fill="#5A7C5F"/>
<path d="M28.3906 25.3315C29.3696 25.2441 30.0997 24.3597 30.0076 23.3573C29.9154 22.3548 29.046 21.6016 28.0669 21.6889C27.0879 21.7762 26.3578 22.6606 26.4499 23.6631C26.5329 24.6669 27.4024 25.4201 28.3906 25.3315Z" fill="#5A7C5F"/>
<path d="M28.7068 28.6215C28.4402 28.0742 28.1323 27.6673 27.5481 27.3577C26.3786 26.7395 24.513 27.3224 24.0787 28.558C23.9927 28.7489 23.9258 28.9636 23.8712 29.2098L23.7475 29.767L23.2679 29.4575C23.0556 29.3208 22.8567 29.215 22.6616 29.1397C21.4838 28.5658 19.7468 29.4616 19.3494 30.7231C19.1506 31.3541 19.2175 31.86 19.4123 32.4367C20.047 34.1284 21.8086 34.9685 22.0386 35.1032C23.2577 35.7307 24.5299 36.275 25.7865 36.7418C26.0107 36.8185 26.2025 36.8801 26.3939 36.9407C26.5083 36.9755 26.6218 37.0116 26.7355 37.0461C26.7918 36.9416 26.8471 36.8364 26.9036 36.7315C26.9978 36.5537 27.0909 36.3751 27.196 36.1632C27.7627 34.948 28.286 33.6674 28.7132 32.3634C28.7824 32.1059 29.4458 30.2704 28.7084 28.6208" fill="#EC8F5A"/>
<path d="M28.0807 28.5301C28.0202 28.3866 27.939 28.2528 27.8397 28.1328C27.7491 28.0233 27.6428 27.9278 27.5241 27.8496C26.8283 27.39 25.7884 27.5484 25.0647 28.0341C24.787 28.2348 24.526 28.4773 24.5049 28.8298C24.5084 28.9759 24.635 28.9949 24.7887 28.9228C25.331 28.626 25.9834 28.4251 26.5862 28.463C26.7366 28.4729 26.8836 28.4975 27.0258 28.5389C27.501 28.6701 27.8349 29.0403 28.0822 29.442C28.243 29.3347 28.252 29.0852 28.1979 28.8887C28.1727 28.7651 28.1334 28.6447 28.0809 28.53" fill="#F1B7A5"/>
<path d="M35.2507 30.7722C35.2507 30.7722 30.5191 26.9946 29.1257 28.7876C27.2435 31.6853 33.1827 35.6797 33.1827 35.6797" stroke="url(#paint1_linear_23207_138726)" stroke-width="1.01822" stroke-miterlimit="10" stroke-linecap="round" stroke-linejoin="round"/>
<g clip-path="url(#clip0_23207_138726)">
<path d="M14.4845 10.5154C14.3193 10.1832 14.1296 9.93664 13.772 9.75081C13.0561 9.37977 11.9218 9.74429 11.6632 10.4996C11.6118 10.6163 11.572 10.7475 11.5399 10.8979L11.4673 11.2381L11.1734 11.0518C11.0433 10.9696 10.9216 10.906 10.8023 10.8611C10.0816 10.5171 9.02721 11.0716 8.7912 11.8426C8.67314 12.2281 8.71643 12.5362 8.838 12.8867C9.23322 13.9148 10.3111 14.4182 10.452 14.4991C11.1981 14.8756 11.9763 15.2011 12.7445 15.4794C12.8816 15.525 12.9988 15.5617 13.1157 15.5977C13.1856 15.6183 13.255 15.6398 13.3244 15.6603C13.3583 15.5963 13.3914 15.5319 13.4254 15.4676C13.4819 15.3588 13.5378 15.2495 13.6008 15.1198C13.9402 14.3763 14.2529 13.5931 14.5068 12.7962C14.5477 12.6389 14.9431 11.5169 14.4855 10.515" fill="#FFC09D"/>
<path d="M14.1025 10.4627C14.0649 10.3756 14.0147 10.2944 13.9536 10.2218C13.8979 10.1555 13.8326 10.0978 13.7598 10.0507C13.3335 9.77402 12.7004 9.87569 12.2617 10.1753C12.0934 10.299 11.9355 10.4481 11.9244 10.6631C11.9273 10.7521 12.0045 10.7631 12.0978 10.7184C12.4269 10.5348 12.8236 10.4091 13.1912 10.4292C13.2829 10.4345 13.3726 10.4488 13.4595 10.4733C13.7498 10.551 13.9552 10.775 14.1079 11.0186C14.2054 10.9524 14.2096 10.8003 14.1757 10.6808C14.1597 10.6055 14.1352 10.5324 14.1026 10.4627" fill="#FFE5DC"/>
</g>
<defs>
<linearGradient id="paint0_linear_23207_138726" x1="23.236" y1="11.8151" x2="27.3888" y2="39.8869" gradientUnits="userSpaceOnUse">
<stop stop-color="#F8FD0A"/>
<stop offset="1" stop-color="#BCE0A8"/>
</linearGradient>
<linearGradient id="paint1_linear_23207_138726" x1="28.392" y1="28.7339" x2="33.2099" y2="33.1508" gradientUnits="userSpaceOnUse">
<stop offset="0.174466" stop-color="#7CA768"/>
<stop offset="1" stop-color="#BAC961" stop-opacity="0"/>
</linearGradient>
<clipPath id="clip0_23207_138726">
<rect width="6.1555" height="6.1555" fill="white" transform="translate(8.12891 11.2394) rotate(-22.7804)"/>
</clipPath>
</defs>
</svg>
