<svg width="48" height="48" viewBox="0 0 48 48" fill="none" xmlns="http://www.w3.org/2000/svg">
<path d="M0 12C0 5.37258 5.37258 0 12 0H36C42.6274 0 48 5.37258 48 12V36C48 42.6274 42.6274 48 36 48H12C5.37258 48 0 42.6274 0 36V12Z" fill="#F0F0F0"/>
<path fill-rule="evenodd" clip-rule="evenodd" d="M26.3649 12.5353C28.7176 13.1685 30.9427 14.4418 32.7751 16.3515C32.7751 16.3515 35.297 13.4469 36.8639 15.4725C37.8963 16.8113 36.8313 19.7745 35.9897 21.6405C37.7004 26.6601 38.0961 30.931 32.6538 36.3881C27.2116 41.8452 18.441 41.7237 13.07 36.1168C7.69897 30.5099 7.74898 21.5373 13.1912 16.0802C15.0288 14.2377 17.2448 13.0313 19.5813 12.4572C19.7451 12.3284 19.8683 12.2117 19.9478 12.1162C20.2404 11.7563 20.4742 11.4741 20.668 11.24C20.9433 10.9077 21.1381 10.6725 21.3067 10.45C21.5171 10.2041 21.9941 9.92482 22.3552 9.98951C22.7163 10.0542 22.9041 10.5387 22.825 11.1526C22.8227 11.1807 22.8199 11.2116 22.817 11.2443C22.7938 11.5013 22.7604 11.8716 22.8782 11.9421C23.0003 12.0017 23.2125 11.7706 23.5347 11.4197C23.8632 11.0619 24.306 10.5796 24.8844 10.1539C25.2662 9.87279 25.7045 9.70818 26.1028 9.94669C26.4253 10.126 26.4225 10.703 26.3438 11.2207C26.3115 11.5218 26.2669 12.0533 26.3649 12.5353Z" fill="#C9C9C9"/>
<path fill-rule="evenodd" clip-rule="evenodd" d="M26.3649 12.5353C28.7176 13.1685 30.9427 14.4418 32.7751 16.3515C32.7751 16.3515 35.297 13.4469 36.8639 15.4725C37.8963 16.8113 36.8313 19.7745 35.9897 21.6405C37.7004 26.6601 38.0961 30.931 32.6538 36.3881C27.2116 41.8452 18.441 41.7237 13.07 36.1168C7.69897 30.5099 7.74898 21.5373 13.1912 16.0802C15.0288 14.2377 17.2448 13.0313 19.5813 12.4572C19.7451 12.3284 19.8683 12.2117 19.9478 12.1162C20.2404 11.7563 20.4742 11.4741 20.668 11.24C20.9433 10.9077 21.1381 10.6725 21.3067 10.45C21.5171 10.2041 21.9941 9.92482 22.3552 9.98951C22.7163 10.0542 22.9041 10.5387 22.825 11.1526C22.8227 11.1807 22.8199 11.2116 22.817 11.2443C22.7938 11.5013 22.7604 11.8716 22.8782 11.9421C23.0003 12.0017 23.2125 11.7706 23.5347 11.4197C23.8632 11.0619 24.306 10.5796 24.8844 10.1539C25.2662 9.87279 25.7045 9.70818 26.1028 9.94669C26.4253 10.126 26.4225 10.703 26.3438 11.2207C26.3115 11.5218 26.2669 12.0533 26.3649 12.5353Z" fill="url(#paint0_linear_23280_140099)" fill-opacity="0.2"/>
<path d="M28.7501 21.2144C27.8967 21.3916 27.05 20.8284 26.8708 19.9539C26.6916 19.0794 27.2362 18.2168 28.0896 18.0395C28.943 17.8623 29.7898 18.4255 29.969 19.3C30.1481 20.1746 29.6023 21.0288 28.7501 21.2144Z" fill="#303234"/>
<path d="M20.3352 25.5326C19.3054 25.7465 18.2836 25.0669 18.0674 24.0117C17.8512 22.9564 18.5084 21.9156 19.5381 21.7017C20.5679 21.4878 21.5897 22.1675 21.8058 23.2227C22.0318 24.2765 21.3747 25.3173 20.3352 25.5326Z" fill="#303234"/>
<path d="M21.0304 29.0003C21.1339 28.3572 21.3232 27.845 21.8256 27.3469C22.8318 26.3515 24.9232 26.3705 25.7508 27.5015C25.8979 27.6703 26.033 27.8695 26.1652 28.1047L26.4645 28.637L26.8598 28.1714C27.0349 27.9657 27.2058 27.7957 27.3823 27.6582C28.4108 26.7055 30.4673 27.0847 31.2652 28.2537C31.6643 28.8383 31.7524 29.3772 31.7316 30.0282C31.6057 31.9574 30.0618 33.3636 29.8679 33.5728C28.8138 34.5932 27.6794 35.5448 26.537 36.4122C26.3312 36.5601 26.1539 36.6827 25.9767 36.8041C25.8703 36.8751 25.7651 36.9473 25.6595 37.0179C25.5694 36.9283 25.4802 36.8376 25.3898 36.7477C25.2383 36.5948 25.0875 36.4407 24.9143 36.2563C23.9574 35.1873 23.0247 34.0378 22.1831 32.8346C22.0326 32.5924 20.7844 30.918 21.0285 29.0001" fill="#9E9E9E"/>
<path d="M14.9946 33.2302C14.9946 33.2302 18.6703 27.8954 20.6529 29.3001C23.4783 31.6847 18.6331 37.6157 18.6331 37.6157" stroke="url(#paint1_linear_23280_140099)" stroke-width="1.01822" stroke-miterlimit="10" stroke-linecap="round" stroke-linejoin="round"/>
<g clip-path="url(#clip0_23280_140099)">
<path d="M37.3556 7.65946C37.1904 7.32721 37.0007 7.08068 36.6431 6.89486C35.9272 6.52381 34.7929 6.88834 34.5343 7.64362C34.4828 7.76035 34.4431 7.89157 34.411 8.04192L34.3384 8.38214L34.0445 8.19583C33.9144 8.1136 33.7927 8.05007 33.6734 8.00515C32.9527 7.66116 31.8983 8.21568 31.6623 8.9866C31.5442 9.37218 31.5875 9.6802 31.7091 10.0308C32.1043 11.0588 33.1822 11.5622 33.3231 11.6431C34.0692 12.0196 34.8474 12.3451 35.6156 12.6235C35.7527 12.6691 35.8699 12.7057 35.9868 12.7417C36.0567 12.7623 36.1261 12.7838 36.1955 12.8043C36.2294 12.7403 36.2625 12.6759 36.2965 12.6117C36.353 12.5028 36.4089 12.3935 36.4719 12.2639C36.8113 11.5204 37.124 10.7372 37.3779 9.94025C37.4188 9.78299 37.8141 8.6609 37.3566 7.65905" fill="#DFDFDF"/>
<path d="M36.9736 7.60678C36.936 7.51964 36.8858 7.43847 36.8247 7.36584C36.769 7.29951 36.7037 7.24186 36.6309 7.19478C36.2046 6.91806 35.5715 7.01973 35.1328 7.31935C34.9645 7.44302 34.8066 7.59216 34.7955 7.80713C34.7983 7.89616 34.8756 7.90713 34.9689 7.8624C35.298 7.67881 35.6946 7.55313 36.0623 7.57327C36.154 7.57856 36.2437 7.59282 36.3306 7.61736C36.6209 7.69501 36.8263 7.919 36.979 8.16261C37.0764 8.09643 37.0807 7.94433 37.0468 7.82483C37.0308 7.74959 37.0062 7.67642 36.9737 7.60675" fill="#E8E8E8"/>
</g>
<defs>
<linearGradient id="paint0_linear_23280_140099" x1="21.427" y1="10.0926" x2="25.8707" y2="40.1297" gradientUnits="userSpaceOnUse">
<stop stop-color="#F8F8F8"/>
<stop offset="1" stop-color="#B2B2B2"/>
</linearGradient>
<linearGradient id="paint1_linear_23280_140099" x1="21.3877" y1="29.0178" x2="17.8218" y2="35.0341" gradientUnits="userSpaceOnUse">
<stop offset="0.174466" stop-color="#959595"/>
<stop offset="1" stop-color="#898989" stop-opacity="0"/>
</linearGradient>
<clipPath id="clip0_23280_140099">
<rect width="6.1555" height="6.1555" fill="white" transform="translate(31 8.38342) rotate(-22.7804)"/>
</clipPath>
</defs>
</svg>
