<svg width="48" height="48" viewBox="0 0 48 48" fill="none" xmlns="http://www.w3.org/2000/svg">
<path d="M0 12C0 5.37258 5.37258 0 12 0H36C42.6274 0 48 5.37258 48 12V36C48 42.6274 42.6274 48 36 48H12C5.37258 48 0 42.6274 0 36V12Z" fill="url(#paint0_linear_23288_144615)"/>
<path d="M17.0557 20.0625C19.4723 23.8385 17.0557 28.1372 14.639 27.382C12.2223 26.6268 11.4168 28.8924 13.8334 29.6476C16.2501 30.4028 21.458 29.2964 24.3057 26.6268C25.1112 25.8716 25.9168 25.8716 25.9168 25.8716L17.0557 20.0625Z" fill="#91A7D4"/>
<path d="M29.9445 20.0625C27.5278 23.8385 29.9445 28.1372 32.3612 27.382C34.7778 26.6268 35.5834 28.8924 33.1667 29.6476C30.75 30.4028 25.5421 29.2964 22.6945 26.6268C21.8889 25.8716 21.0834 25.8716 21.0834 25.8716L29.9445 20.0625Z" fill="#91A7D4"/>
<path d="M33.3183 23.0834C30.9017 26.8594 33.3183 31.1581 35.735 30.4029C38.1517 29.6476 38.9572 31.9133 36.5406 32.6685C34.1239 33.4237 28.916 32.3173 26.0683 29.6476C25.2628 28.8924 24.4572 28.8924 24.4572 28.8924L33.3183 23.0834V23.0834ZM13.6821 23.0834C16.0988 26.8594 13.6821 31.1581 11.2655 30.4029C8.8488 29.6476 8.04324 31.9133 10.4599 32.6685C12.8766 33.4237 18.0845 32.3173 20.9321 29.6476C21.7377 28.8924 22.5432 28.8924 22.5432 28.8924L13.6821 23.0834Z" fill="#C8D2F2"/>
<path fill-rule="evenodd" clip-rule="evenodd" d="M26.2715 10.5701C26.4564 10.6238 26.5946 10.6639 26.6553 10.6733C28.6713 11.4979 29.8783 12.1401 30.5573 12.8765C32.6557 14.2731 33.9722 16.434 33.9722 19.3074C33.9722 21.5277 33.1844 24.257 31.8584 26.7061C30.5591 30.4459 33.5364 35.382 35.7348 34.6947C38.1514 33.9395 38.9578 36.9603 36.5411 37.7156C34.1245 38.4708 29.847 37.242 26.8745 34.6947C25.1119 33.1843 23.5008 33.1843 23.5008 33.1843C23.5008 33.1843 21.8897 33.1843 20.1263 34.6947C17.1538 37.242 12.8763 38.4708 10.4597 37.7156C8.043 36.9603 8.84855 33.9395 11.2652 34.6947C13.4636 35.382 16.4409 30.4459 15.1416 26.7061C13.8156 24.257 13.0278 21.5277 13.0278 19.3074C13.0278 16.1011 14.667 13.782 17.2027 12.422C17.2333 12.3967 17.2652 12.3714 17.2982 12.3461C17.8685 11.8755 17.4689 10.8702 17.2895 10.4581C17.1046 10.0801 16.9652 9.63921 17.176 9.42731C17.4324 9.15258 17.8161 9.17707 18.1831 9.3038C18.7389 9.49574 19.2017 9.76231 19.545 9.96006C19.8817 10.154 20.1035 10.2817 20.1854 10.2079C20.2612 10.1267 20.1469 9.851 20.0675 9.65969C20.0574 9.63536 20.0479 9.61238 20.0394 9.59135C19.8312 9.13984 19.8637 8.72561 20.1322 8.5925C20.4006 8.4594 20.8419 8.5627 21.0659 8.7022C21.2513 8.83343 21.4603 8.96832 21.7557 9.15895C21.9638 9.29318 22.2146 9.45505 22.5302 9.66274C22.8173 9.84697 23.5513 10.1004 24.5594 10.1867C25.1145 10.2342 25.8276 10.4412 26.2715 10.5701Z" fill="url(#paint1_linear_23288_144615)"/>
<path d="M18.8638 27.07C19.7208 27.07 20.4154 26.3955 20.4154 25.5635C20.4154 24.7314 19.7208 24.0569 18.8638 24.0569C18.0069 24.0569 17.3123 24.7314 17.3123 25.5635C17.3123 26.3955 18.0069 27.07 18.8638 27.07Z" fill="#373ED4"/>
<path d="M27.6561 27.0701C28.7986 27.0701 29.7249 26.1708 29.7249 25.0614C29.7249 23.952 28.7986 23.0526 27.6561 23.0526C26.5135 23.0526 25.5873 23.952 25.5873 25.0614C25.5873 26.1708 26.5135 27.0701 27.6561 27.0701Z" fill="#373ED4"/>
<defs>
<linearGradient id="paint0_linear_23288_144615" x1="24" y1="0" x2="24" y2="48" gradientUnits="userSpaceOnUse">
<stop stop-color="#5F55D9"/>
<stop offset="1" stop-color="#2F68D6"/>
</linearGradient>
<linearGradient id="paint1_linear_23288_144615" x1="24.7738" y1="9.18917" x2="22.8748" y2="21.4483" gradientUnits="userSpaceOnUse">
<stop stop-color="#F4F5FF"/>
<stop offset="1" stop-color="#E1EDFF"/>
</linearGradient>
</defs>
</svg>
