<svg width="48" height="48" viewBox="0 0 48 48" fill="none" xmlns="http://www.w3.org/2000/svg">
<path d="M0 12C0 5.37258 5.37258 0 12 0H36C42.6274 0 48 5.37258 48 12V36C48 42.6274 42.6274 48 36 48H12C5.37258 48 0 42.6274 0 36V12Z" fill="#F0F0F0"/>
<path d="M17.0557 20.0625C19.4723 23.8385 17.0557 28.1372 14.639 27.382C12.2223 26.6268 11.4168 28.8924 13.8334 29.6476C16.2501 30.4028 21.458 29.2964 24.3057 26.6268C25.1112 25.8716 25.9168 25.8716 25.9168 25.8716L17.0557 20.0625Z" fill="#7F7F7F"/>
<path d="M29.9445 20.0625C27.5278 23.8385 29.9445 28.1372 32.3612 27.382C34.7778 26.6268 35.5834 28.8924 33.1667 29.6476C30.75 30.4028 25.5421 29.2964 22.6945 26.6268C21.8889 25.8716 21.0834 25.8716 21.0834 25.8716L29.9445 20.0625Z" fill="#7F7F7F"/>
<path d="M33.3183 23.0834C30.9017 26.8594 33.3183 31.1581 35.735 30.4029C38.1517 29.6476 38.9572 31.9133 36.5406 32.6685C34.1239 33.4237 28.916 32.3173 26.0683 29.6476C25.2628 28.8924 24.4572 28.8924 24.4572 28.8924L33.3183 23.0834V23.0834ZM13.6821 23.0834C16.0988 26.8594 13.6821 31.1581 11.2655 30.4029C8.8488 29.6476 8.04324 31.9133 10.4599 32.6685C12.8766 33.4237 18.0845 32.3173 20.9321 29.6476C21.7377 28.8924 22.5432 28.8924 22.5432 28.8924L13.6821 23.0834Z" fill="#ADADAD"/>
<path d="M35.7348 34.6947C33.5364 35.3819 30.5591 30.4459 31.8584 26.7061C33.1844 24.2569 33.9722 21.5276 33.9722 19.3073C33.9722 13.8849 29.2839 11 23.5 11C17.7161 11 13.0278 13.8849 13.0278 19.3073C13.0278 21.5276 13.8156 24.2569 15.1416 26.7061C16.4409 30.4459 13.4636 35.3819 11.2652 34.6947C8.84855 33.9395 8.043 36.9603 10.4597 37.7155C12.8763 38.4707 17.1538 37.242 20.1263 34.6947C21.8897 33.1842 23.5008 33.1842 23.5008 33.1842C23.5008 33.1842 25.1119 33.1842 26.8745 34.6947C29.847 37.242 34.1245 38.4707 36.5411 37.7155C38.9578 36.9603 38.1514 33.9395 35.7348 34.6947Z" fill="#C6C6C6"/>
<path d="M26.6551 10.6732C26.4489 10.6413 25.3456 10.2539 24.5592 10.1866C23.5512 10.1004 22.8172 9.84691 22.5301 9.66268C21.7663 9.16005 21.3817 8.92577 21.0658 8.70214C20.8418 8.56264 20.4005 8.45934 20.132 8.59244C19.8636 8.72555 19.8311 9.13978 20.0393 9.59129C20.1146 9.77764 20.2707 10.1163 20.1852 10.2079C20.0199 10.3569 19.284 9.68392 18.183 9.30374C17.816 9.17701 17.4323 9.15252 17.1759 9.42725C16.965 9.63915 17.1045 10.08 17.2894 10.458C17.4688 10.8702 17.8684 11.8754 17.2981 12.3461C15.324 13.8571 17.6047 15.4018 17.1759 18.0256C17.1759 21.1626 18.956 20.7848 24.5592 21.6527C30.1282 22.5154 30.4954 20.8706 30.7165 19.4634C31.5954 13.8697 32.3276 12.9933 26.6551 10.6732Z" fill="#C6C6C6"/>
<path d="M18.8638 27.07C19.7208 27.07 20.4154 26.3955 20.4154 25.5635C20.4154 24.7314 19.7208 24.0569 18.8638 24.0569C18.0069 24.0569 17.3123 24.7314 17.3123 25.5635C17.3123 26.3955 18.0069 27.07 18.8638 27.07Z" fill="#303234"/>
<path d="M27.6561 27.0701C28.7986 27.0701 29.7249 26.1708 29.7249 25.0614C29.7249 23.952 28.7986 23.0526 27.6561 23.0526C26.5135 23.0526 25.5873 23.952 25.5873 25.0614C25.5873 26.1708 26.5135 27.0701 27.6561 27.0701Z" fill="#303234"/>
</svg>
