<svg width="48" height="48" viewBox="0 0 48 48" fill="none" xmlns="http://www.w3.org/2000/svg">
<path d="M0 12C0 5.37258 5.37258 0 12 0H36C42.6274 0 48 5.37258 48 12V36C48 42.6274 42.6274 48 36 48H12C5.37258 48 0 42.6274 0 36V12Z" fill="#EAF2FF"/>
<path d="M18 20.6896C20.25 24.3103 18 28.4321 15.75 27.7079C13.5 26.9838 12.75 29.1562 15 29.8803C17.25 30.6045 22.0988 29.5436 24.75 26.9838C25.5 26.2596 26.25 26.2596 26.25 26.2596L18 20.6896Z" fill="#808DD1"/>
<path d="M30.0001 20.6896C27.7501 24.3103 30.0001 28.4321 32.2501 27.7079C34.5001 26.9838 35.2501 29.1562 33.0001 29.8803C30.7501 30.6045 25.9014 29.5436 23.2501 26.9838C22.5001 26.2596 21.7501 26.2596 21.7501 26.2596L30.0001 20.6896Z" fill="#808DD1"/>
<path d="M33.141 23.5862C30.891 27.2069 33.141 31.3287 35.391 30.6045C37.641 29.8804 38.391 32.0528 36.141 32.7769C33.891 33.5011 29.0423 32.4402 26.391 29.8804C25.641 29.1562 24.891 29.1562 24.891 29.1562L33.141 23.5862V23.5862ZM14.859 23.5862C17.109 27.2069 14.859 31.3287 12.609 30.6045C10.359 29.8804 9.60903 32.0528 11.859 32.7769C14.109 33.5011 18.9578 32.4402 21.609 29.8804C22.359 29.1562 23.109 29.1562 23.109 29.1562L14.859 23.5862Z" fill="#ACBAF8"/>
<path d="M35.391 34.7198C33.3443 35.3788 30.5723 30.6458 31.782 27.0599C33.0165 24.7115 33.75 22.0945 33.75 19.9655C33.75 14.7662 29.385 12 24 12C18.615 12 14.25 14.7662 14.25 19.9655C14.25 22.0945 14.9835 24.7115 16.218 27.0599C17.4278 30.6458 14.6558 35.3788 12.609 34.7198C10.359 33.9957 9.60903 36.8922 11.859 37.6164C14.109 38.3405 18.0915 37.1623 20.859 34.7198C22.5008 33.2715 24.0008 33.2715 24.0008 33.2715C24.0008 33.2715 25.5008 33.2715 27.1418 34.7198C29.9093 37.1623 33.8918 38.3405 36.1418 37.6164C38.3918 36.8922 37.641 33.9957 35.391 34.7198Z" fill="#C4D1FF"/>
<path d="M26.9376 11.6867C26.7456 11.6561 25.7184 11.2847 24.9863 11.2202C24.0478 11.1374 23.3644 10.8944 23.0971 10.7178C22.386 10.2358 22.0278 10.0112 21.7337 9.79674C21.5252 9.66298 21.1144 9.56392 20.8644 9.69155C20.6144 9.81918 20.5842 10.2164 20.778 10.6493C20.8481 10.828 20.9935 11.1527 20.9139 11.2405C20.76 11.3834 20.0748 10.7381 19.0497 10.3736C18.7081 10.2521 18.3508 10.2286 18.1121 10.492C17.9158 10.6952 18.0456 11.1179 18.2178 11.4804C18.3848 11.8756 18.7569 12.8394 18.2259 13.2907C16.388 14.7396 18.5114 16.2208 18.1121 18.7366C18.1121 21.7446 19.7694 21.3823 24.9863 22.2145C30.1711 23.0417 30.513 21.4646 30.7189 20.1153C31.5372 14.7517 32.2189 13.9114 26.9376 11.6867Z" fill="#C4D1FF"/>
<path d="M19.6835 27.4089C20.4813 27.4089 21.1281 26.7622 21.1281 25.9644C21.1281 25.1665 20.4813 24.5198 19.6835 24.5198C18.8857 24.5198 18.2389 25.1665 18.2389 25.9644C18.2389 26.7622 18.8857 27.4089 19.6835 27.4089Z" fill="#4C6677"/>
<path d="M27.8695 27.409C28.9332 27.409 29.7956 26.5466 29.7956 25.4829C29.7956 24.4191 28.9332 23.5568 27.8695 23.5568C26.8057 23.5568 25.9434 24.4191 25.9434 25.4829C25.9434 26.5466 26.8057 27.409 27.8695 27.409Z" fill="#4C6677"/>
<path d="M36.0648 18.6046C36.0648 20.7605 34.294 22.5074 32.1087 22.5074C29.9233 22.5074 28.1526 20.7605 28.1526 18.6046C28.1526 16.4488 31.3175 10.7992 32.1087 10.7992C32.8999 10.7992 36.0648 16.4488 36.0648 18.6046Z" fill="#71C0FF"/>
<path d="M34.0837 20.7167C34.2352 20.6807 34.3806 20.6228 34.5153 20.5448C34.6384 20.4736 34.7501 20.3844 34.8469 20.2803C35.4153 19.6702 35.4311 18.6185 35.0719 17.8244C34.92 17.5173 34.7239 17.2197 34.3798 17.1406C34.2351 17.1199 34.1954 17.2415 34.2411 17.4051C34.4441 17.9891 34.5343 18.6656 34.3972 19.2539C34.3625 19.4006 34.3139 19.5415 34.2496 19.6749C34.0415 20.1218 33.6212 20.3899 33.1841 20.5672C33.2633 20.7436 33.5079 20.7937 33.7106 20.7729C33.8367 20.7685 33.9619 20.7497 34.0837 20.7169" fill="#9CD3FF"/>
</svg>
