<svg width="48" height="48" viewBox="0 0 48 48" fill="none" xmlns="http://www.w3.org/2000/svg">
<path d="M0 12C0 5.37258 5.37258 0 12 0H36C42.6274 0 48 5.37258 48 12V36C48 42.6274 42.6274 48 36 48H12C5.37258 48 0 42.6274 0 36V12Z" fill="#FFECEC"/>
<path d="M24.1352 9.5C16.3301 9.5 10 15.8266 10 23.6352C10 31.4438 16.3301 37.7704 24.1352 37.7704C31.9426 37.7704 38.2704 31.4438 38.2704 23.6352C38.2704 15.8266 31.9438 9.5 24.1352 9.5ZM24.1352 12.9384C26.2555 12.9384 28.2292 13.5665 29.8933 14.6347L15.1347 29.3933C14.0271 27.6771 13.4381 25.6778 13.4384 23.6352C13.4384 17.7372 18.2372 12.9384 24.1352 12.9384ZM24.1352 34.332C22.0927 34.3318 20.0935 33.7428 18.377 32.6357L33.1346 17.877C34.2422 19.5933 34.8311 21.5926 34.8309 23.6352C34.8309 29.5332 30.0332 34.332 24.1352 34.332Z" fill="#F68484"/>
</svg>
