<svg width="123" height="16" viewBox="0 0 123 16" fill="none" xmlns="http://www.w3.org/2000/svg">
<path d="M8.61088 0.969364C7.89633 0.959683 7.18486 1.06462 6.50354 1.28019C5.90528 1.47425 5.34417 1.76816 4.844 2.14947C4.37234 2.51577 3.98736 2.98169 3.71658 3.51397C3.44713 4.04433 3.30806 4.63131 3.31092 5.22619C3.30071 5.67539 3.38987 6.12131 3.57202 6.53205C3.75417 6.94279 4.0248 7.30822 4.36459 7.60222C4.73432 7.92346 5.1411 8.19937 5.5763 8.42408C6.08992 8.69419 6.61749 8.93688 7.15681 9.15111C7.47163 9.2805 7.77938 9.42645 8.07877 9.58838L8.28423 9.69903C8.54418 9.82758 8.78672 9.98867 9.006 10.1784C9.14329 10.2978 9.25601 10.4427 9.3379 10.6052C9.40307 10.7565 9.4354 10.9199 9.43274 11.0846C9.43913 11.3419 9.37733 11.5964 9.25362 11.8222C9.12246 12.0589 8.94296 12.2653 8.72678 12.428C8.4568 12.6173 8.15788 12.7614 7.84169 12.8548C7.23116 12.9746 6.60915 13.0259 5.98724 13.0076H0.871669L0.25 15.2729H6.66159C7.37512 15.285 8.08614 15.1854 8.76893 14.9779C9.38894 14.7824 9.96885 14.4773 10.4811 14.077C10.9645 13.698 11.3614 13.2202 11.6454 12.6756C11.936 12.1258 12.0828 11.5114 12.0722 10.8897C12.079 10.4379 11.9929 9.98965 11.8193 9.57258C11.6431 9.17741 11.3927 8.81972 11.0817 8.51891C10.7382 8.18863 10.3497 7.90841 9.92796 7.68651C9.43471 7.42405 8.92426 7.19522 8.40014 7.00162C8.03662 6.8541 7.75213 6.71713 7.47291 6.58016L7.21476 6.45372C6.92646 6.32628 6.65415 6.16536 6.40344 5.9743C6.2486 5.85795 6.11947 5.71087 6.02411 5.54229C5.95225 5.38722 5.91624 5.21796 5.91875 5.04706C5.91981 4.82668 5.97403 4.60982 6.0768 4.41487C6.20001 4.18957 6.36651 3.99083 6.56675 3.83008C6.81458 3.63929 7.09478 3.49473 7.39389 3.40334C7.77169 3.29122 8.16412 3.23617 8.55819 3.24002H13.9056L14.5272 0.979894L8.61088 0.969364Z" fill="#474952"/>
<path d="M24.047 1.28547C23.2788 1.06176 22.4816 0.95345 21.6815 0.964093H17.1138L17.0559 1.18537L13.2363 15.2624H15.8073L17.0875 10.5472H19.8744C20.8231 10.5558 21.7689 10.4407 22.6878 10.2048C23.4948 9.99599 24.2559 9.63867 24.9321 9.15112C25.5555 8.707 26.0676 8.12456 26.4283 7.44943C26.7898 6.73674 26.9707 5.94616 26.9551 5.14717C26.9737 4.62629 26.8856 4.10713 26.6962 3.62153C26.5069 3.13594 26.2203 2.69417 25.854 2.32334C25.3444 1.83647 24.7243 1.48036 24.047 1.28547ZM23.3621 7.42837C22.5982 7.95521 21.455 8.23969 19.9693 8.23969H17.7092L19.0421 3.33485H21.6446C22.6983 3.33485 23.4938 3.56666 23.9574 4.03028C24.1177 4.19248 24.2422 4.38644 24.3229 4.59967C24.4037 4.8129 24.4389 5.04068 24.4263 5.26834C24.4536 5.69005 24.3697 6.11152 24.1829 6.49059C23.9962 6.86966 23.7131 7.19305 23.3621 7.42837V7.42837Z" fill="#474952"/>
<path d="M51.9061 11.0583C51.4633 11.6612 50.8862 12.1527 50.2205 12.4938C49.5548 12.8349 48.8187 13.0162 48.0707 13.0234C47.5405 13.056 47.0092 12.9792 46.5098 12.798C46.0105 12.6167 45.5537 12.3348 45.1678 11.9697C44.8416 11.5894 44.5962 11.1466 44.4468 10.6684C44.2973 10.1901 44.2469 9.68641 44.2986 9.18801C44.4777 5.75305 46.7852 3.26638 49.7882 3.26638C50.535 3.24486 51.272 3.43983 51.9105 3.82776C52.5489 4.2157 53.0615 4.78005 53.3865 5.45275L53.5234 5.75831L55.4359 4.59927L55.6624 4.4623L55.5518 4.22522C54.6509 2.20217 52.5962 0.985185 50.0569 0.964111H49.9937C45.4787 0.964111 42.0226 4.41488 41.775 9.16693C41.7024 9.95388 41.7947 10.7473 42.046 11.4966C42.2972 12.2459 42.702 12.9345 43.2344 13.5186C43.8476 14.1234 44.5793 14.5947 45.3835 14.9029C46.1877 15.2112 47.047 15.3497 47.9074 15.3098C48.8774 15.3096 49.8375 15.1146 50.7307 14.7363C51.624 14.358 52.4321 13.8042 53.1072 13.1077L51.9061 11.0583Z" fill="#474952"/>
<path d="M66.2043 11.0583C65.7541 11.6703 65.166 12.1676 64.4878 12.5099C63.8095 12.8523 63.0602 13.03 62.3005 13.0287V13.0287C61.7817 13.0504 61.2638 12.9684 60.7771 12.7875C60.2904 12.6065 59.8447 12.3303 59.4661 11.975C59.1441 11.5975 58.9016 11.1589 58.7532 10.6854C58.6047 10.212 58.5533 9.71347 58.6021 9.21969L68.7331 9.18281L68.8069 8.99841C69.0446 8.38513 69.2211 7.74983 69.3337 7.1018C69.5048 6.3362 69.5028 5.54207 69.3278 4.77734C69.1528 4.01262 68.8093 3.29663 68.3222 2.68166C67.8324 2.13301 67.2289 1.69754 66.5539 1.4055C65.8789 1.11347 65.1483 0.971871 64.4131 0.990521C62.2399 1.02258 60.1617 1.88659 58.6064 3.40469C57.051 4.92279 56.1369 6.97943 56.0522 9.1512C55.98 9.92182 56.0656 10.6991 56.3038 11.4355C56.542 12.1719 56.9279 12.8521 57.4378 13.4344C58.4914 14.5987 60.2089 15.2467 62.1793 15.3099C64.1388 15.2855 66.0123 14.5017 67.4055 13.1235L66.2043 11.0583ZM66.826 7.10707H59.0077C59.3308 6.06111 59.9615 5.13673 60.8176 4.45447C61.6737 3.77221 62.7155 3.36371 63.8072 3.28224H64.1707C64.5907 3.258 65.0106 3.32986 65.3986 3.49236C65.7866 3.65487 66.1324 3.90373 66.4098 4.22001C66.9419 4.86275 67.0841 5.86901 66.826 7.10707Z" fill="#474952"/>
<path d="M38.9412 2.11792C37.9982 1.35401 36.6758 0.985229 34.9057 0.985229H32.6877H30.3591H29.985L31.3495 3.31911H34.5948C35.48 3.2502 36.3636 3.47018 37.1131 3.94604C37.3735 4.16071 37.5794 4.43396 37.714 4.74345C37.8486 5.05294 37.9081 5.38989 37.8875 5.72675C37.8869 5.9176 37.8692 6.108 37.8349 6.29573C37.8032 6.51173 37.7611 6.70666 37.719 6.87525C37.1359 6.7172 36.4984 6.57495 35.8065 6.44851C34.954 6.3009 34.0903 6.22686 33.225 6.22723C32.3973 6.21922 31.5732 6.33645 30.7805 6.57495C30.0722 6.78512 29.4081 7.12254 28.8207 7.57068C28.2638 7.99992 27.8132 8.55151 27.5036 9.18279C27.1939 9.84189 27.0355 10.5619 27.04 11.2901C27.0272 11.8542 27.1452 12.4136 27.3847 12.9246C27.6241 13.4355 27.9786 13.8841 28.4203 14.2351C28.8458 14.569 29.3275 14.8241 29.8428 14.9885C30.3899 15.1607 30.9603 15.2478 31.5339 15.2467C32.3861 15.2559 33.2315 15.0947 34.0206 14.7725C34.7735 14.4028 35.4973 13.9767 36.1859 13.4976L37.0499 14.9622H38.0561L40.1371 7.27565C40.2015 7.02774 40.2508 6.77616 40.2846 6.52228C40.2846 6.44325 40.311 6.36948 40.3215 6.29573C40.3733 5.98403 40.3997 5.66867 40.4005 5.3527C40.4235 4.73746 40.3037 4.12526 40.0505 3.56405C39.7973 3.00285 39.4176 2.50788 38.9412 2.11792V2.11792ZM36.9867 9.6148C36.955 9.72544 36.2438 12.249 32.7351 12.9971C32.4293 13.054 32.1189 13.0822 31.8079 13.0814C31.4316 13.0826 31.0566 13.0384 30.691 12.9497C30.3053 12.8378 29.9694 12.5978 29.7386 12.2693C29.5077 11.9408 29.3958 11.5433 29.4213 11.1426C29.4274 10.7378 29.5303 10.3404 29.7216 9.98358C29.9575 9.62451 30.2575 9.31198 30.6067 9.06161C30.9527 8.80339 31.3441 8.61221 31.7604 8.49791C32.2576 8.34879 32.7745 8.27596 33.2935 8.28191C34.0587 8.27821 34.8231 8.3328 35.58 8.44522C36.1261 8.52661 36.6676 8.63562 37.2027 8.77186L36.9867 9.6148Z" fill="#474952"/>
<path d="M114.294 3.66683L113.593 6.2536H121.132L120.253 9.49363H112.714L111.955 12.3017H120.448L119.541 15.6523H106.792L110.949 0.316162H122.739L121.833 3.66683H114.294Z" fill="#474952"/>
<path d="M108.304 0.316248L104.153 15.6524H100.628L95.6812 7.22304L93.4 15.6524H89.1484L93.3052 0.310974H96.8666L101.787 8.68237L104.053 0.310974L108.304 0.316248Z" fill="#474952"/>
<path d="M72.1055 9.23016C72.4795 3.89331 76.7048 0 82.3524 0C87.094 0 89.8072 2.79223 89.528 6.76984C89.1539 12.112 84.9287 16 79.281 16C74.5553 16 71.8263 13.2078 72.1055 9.23016ZM85.0709 7.03326C85.2132 4.98914 84.0173 3.60355 81.7202 3.60355C78.7436 3.60355 76.768 6.06914 76.5625 8.96674C76.4203 11.0109 77.6162 12.3964 79.9132 12.3964C82.8898 12.3964 84.8707 9.93613 85.0709 7.03326Z" fill="#474952"/>
</svg>
