<svg width="98" height="22" viewBox="0 0 98 22" fill="none" xmlns="http://www.w3.org/2000/svg">
<g clip-path="url(#clip0)">
<path d="M19.7264 6.27281C19.2312 6.12351 18.6195 6.03394 17.9787 6.03394L14.7455 6.0638H14.5707L14.5416 6.24296L11.8036 16.9925L13.726 16.9626L14.629 13.3496L16.6971 13.3197C17.4544 13.3197 18.1535 13.2302 18.7943 13.051C19.4351 12.8718 19.9885 12.6031 20.4546 12.2448C20.9206 11.8865 21.2993 11.4386 21.5614 10.9309C21.8236 10.4233 21.9401 9.82613 21.9401 9.16922C21.9401 8.30328 21.6488 7.58664 21.0954 7.01931C20.7167 6.72071 20.2798 6.45197 19.7264 6.27281ZM19.2895 10.9608C18.736 11.3788 17.8622 11.5879 16.7845 11.6177L15.095 11.6476L16.0563 7.88525L17.9787 7.85539C18.7652 7.85539 19.3477 8.03454 19.6973 8.363C19.9303 8.60188 20.0468 8.90048 20.0468 9.31852C20.0468 10.0352 19.8138 10.5726 19.2895 10.9608Z" fill="#A7A9B2"/>
<path d="M7.20139 6.15303C6.64796 6.15303 6.12366 6.24261 5.65761 6.42177C5.19156 6.57107 4.78377 6.80995 4.43423 7.10855C4.0847 7.40715 3.79342 7.76547 3.61865 8.15364C3.41476 8.57168 3.32737 8.98972 3.32737 9.46748C3.32737 9.82579 3.41476 10.1841 3.53127 10.4827C3.67691 10.7813 3.85168 11.05 4.11383 11.2889C4.34685 11.4979 4.66726 11.707 5.01679 11.916C5.36633 12.0951 5.77412 12.2743 6.21104 12.4535C6.50232 12.5729 6.70621 12.6625 6.91011 12.7819C6.96837 12.8118 7.02662 12.8416 7.05575 12.8715C7.28877 12.9909 7.46354 13.1104 7.60918 13.2298C7.72569 13.3493 7.81308 13.4388 7.87133 13.5583C7.92959 13.6777 7.95872 13.7972 7.95872 13.9166C7.95872 14.1256 7.92959 14.3048 7.8422 14.4839C7.75482 14.6631 7.60918 14.8124 7.43441 14.9617C7.25965 15.111 6.96837 15.2304 6.76447 15.2901C6.38581 15.4096 5.80325 15.4096 5.39546 15.4096C5.3372 15.4096 1.57969 15.4394 1.57969 15.4394L1.11365 17.1116L5.89063 17.0519C6.47319 17.0519 6.96837 16.9623 7.43441 16.813C7.90046 16.6637 8.33738 16.4248 8.68692 16.1262C9.03645 15.8276 9.32773 15.4693 9.53163 15.0513C9.73552 14.6332 9.85203 14.1853 9.82291 13.6777C9.82291 13.3194 9.76465 12.9611 9.61901 12.6625C9.5025 12.3639 9.2986 12.0951 9.06558 11.8563C8.83255 11.6174 8.54128 11.4084 8.19174 11.2292C7.87133 11.05 7.49267 10.8709 7.05575 10.7216C6.7936 10.6022 6.56057 10.5126 6.35668 10.423C6.29842 10.3931 6.24017 10.3633 6.15278 10.3334C5.91976 10.214 5.71586 10.0945 5.5411 9.9751C5.39546 9.85566 5.30807 9.76608 5.24982 9.64664C5.19156 9.5272 5.16243 9.40775 5.16243 9.25845C5.16243 9.07929 5.19156 8.93 5.27894 8.7807C5.36633 8.6314 5.48284 8.45224 5.62848 8.3328C5.80325 8.18351 6.00714 8.09392 6.24017 8.00434C6.50232 7.91477 6.7936 7.88491 7.11401 7.88491L11.0754 7.85505L11.5123 6.12317L7.20139 6.15303Z" fill="#A7A9B2"/>
<path d="M42.1841 13.499C41.5141 14.4545 40.4364 15.0218 39.3586 15.0218C38.4266 15.0218 37.6984 14.7531 37.2032 14.2455C36.7371 13.7379 36.5041 13.0212 36.5332 12.1254C36.6497 9.49778 38.3392 7.58675 40.582 7.55689C41.7763 7.55689 42.7957 8.18395 43.2618 9.19918L43.3783 9.43806L44.8056 8.54226L44.9803 8.42282L44.893 8.24366C44.1939 6.72081 42.6792 5.79517 40.7859 5.79517H40.7277C37.3779 5.82503 34.8147 8.48254 34.669 12.0956C34.6108 13.4393 34.9895 14.5739 35.7759 15.41C36.6206 16.3058 37.8149 16.7537 39.2713 16.7537C40.7568 16.7537 42.1549 16.0968 43.1162 15.0218L42.1841 13.499Z" fill="#A7A9B2"/>
<path d="M53.0779 13.3795C52.4079 14.335 51.3302 14.9023 50.1942 14.9023C50.1651 14.9023 50.2233 14.9023 50.1942 14.9023C49.2912 14.9023 48.563 14.6336 48.0679 14.126C47.6018 13.6183 47.3979 12.9316 47.3979 12.0358L54.942 11.9163L55.0003 11.767C55.1168 11.4684 55.2916 10.9011 55.4081 10.3039C55.612 8.96022 55.3498 7.79569 54.6216 6.92975C53.9226 6.12354 52.874 5.64578 51.7088 5.67564C48.4174 5.7055 45.7085 8.48246 45.5629 11.9462C45.5046 13.26 45.8833 14.3648 46.6115 15.2009C47.427 16.0967 48.6795 16.5745 50.1359 16.6043C50.1942 16.6043 50.0777 16.6043 50.1359 16.6043C51.2719 16.6043 52.9322 16.0967 54.0099 14.9023L53.0779 13.3795ZM53.5148 10.3636L47.6892 10.3935C48.2426 8.69148 49.5534 7.58667 51.2428 7.43737C51.3302 7.43737 51.4176 7.43737 51.5049 7.43737C52.2331 7.43737 52.8157 7.67625 53.1652 8.12414C53.573 8.66162 53.6895 9.43798 53.5148 10.3636Z" fill="#A7A9B2"/>
<path d="M31.7856 6.78041C31.0865 6.21307 30.0962 5.94434 28.7854 5.94434C28.4359 5.94434 27.7951 5.94434 27.1251 5.94434C26.5426 5.94434 25.6396 5.94434 25.3775 5.94434H25.0862L26.1057 7.70606L28.5233 7.6762C29.368 7.6762 30.0088 7.8255 30.3875 8.1241C30.7661 8.4227 30.97 8.87059 30.97 9.46779C30.97 9.58723 30.97 9.73653 30.9409 9.91569C30.9118 10.065 30.8826 10.2143 30.8535 10.3636C30.4166 10.2441 29.9505 10.1546 29.4262 10.065C28.8146 9.94555 28.1737 9.91569 27.5038 9.91569C26.863 9.91569 26.2513 10.0053 25.6979 10.1844C25.1444 10.3636 24.6493 10.6323 24.2415 10.9608C23.8337 11.2892 23.5133 11.7073 23.2802 12.2149C23.0472 12.6927 22.9307 13.26 22.9598 13.8273C22.9598 14.3051 23.0764 14.753 23.2511 15.1412C23.4259 15.4995 23.688 15.8279 24.0084 16.0668C24.3289 16.3057 24.6784 16.5147 25.0862 16.6341C25.494 16.7536 25.9018 16.8133 26.3387 16.8133C27.0086 16.8133 27.6203 16.6939 28.1737 16.4251C28.4941 16.3057 29.2806 15.7682 29.7758 15.4397L30.4166 16.5446H31.1739L32.6594 10.6622C32.7177 10.483 32.7468 10.274 32.776 10.0948C32.776 10.0351 32.8051 9.97541 32.8051 9.91569C32.8342 9.67681 32.8633 9.43793 32.8633 9.19905C32.8633 8.21368 32.5138 7.3776 31.7856 6.78041ZM30.3875 12.5135C30.3583 12.6031 29.8632 14.5141 27.2416 15.1113C27.2416 15.1113 26.9504 15.171 26.5426 15.171C26.2513 15.171 25.96 15.1411 25.727 15.0814C25.5231 15.0217 25.3775 14.9321 25.2609 14.8426C24.9405 14.5738 24.7658 14.1856 24.7658 13.7079C24.7658 13.4093 24.8532 13.1107 24.9697 12.8121C25.0862 12.5434 25.4066 12.2746 25.6105 12.0954C25.8144 11.9163 26.1057 11.767 26.4552 11.6476C26.8047 11.5281 27.1834 11.4684 27.5912 11.4684C28.1737 11.4684 28.7563 11.4983 29.2806 11.5878C29.7175 11.6476 30.1253 11.7371 30.504 11.8267L30.3875 12.5135Z" fill="#A7A9B2"/>
<path d="M90.653 7.37766L90.1578 9.34841L95.7796 9.28869L95.1387 11.7671L89.517 11.8268L88.9636 13.9767L95.2844 13.917L94.6436 16.4849L85.1478 16.5745L88.1189 4.83958L96.8864 4.75L96.2456 7.31794L90.653 7.37766Z" fill="#A7A9B2"/>
<path d="M85.3807 4.86938L82.4096 16.6043L79.7881 16.6341L76.0598 10.2442L74.4286 16.664L71.2537 16.6939L74.2247 4.98882L76.8753 4.95896L80.6037 11.3191L82.2349 4.9291L85.3807 4.86938Z" fill="#A7A9B2"/>
<path d="M57.8258 11.9434C58.0588 7.88245 61.1755 4.8666 65.3699 4.83674C68.8944 4.80688 70.9334 6.89708 70.7586 9.94278C70.5256 14.0037 67.4089 17.0196 63.2145 17.0494C59.69 17.0793 57.6511 14.9891 57.8258 11.9434ZM67.438 10.1817C67.5254 8.62894 66.6224 7.58385 64.933 7.58385C62.7193 7.61371 61.2629 9.49488 61.1464 11.7045C61.059 13.2572 61.962 14.3023 63.6514 14.3023C65.8651 14.2725 67.3215 12.3913 67.438 10.1817Z" fill="#A7A9B2"/>
</g>
<defs>
<clipPath id="clip0">
<rect width="98" height="22" fill="white"/>
</clipPath>
</defs>
</svg>
