<svg width="48" height="48" viewBox="0 0 48 48" fill="none" xmlns="http://www.w3.org/2000/svg">
<path d="M0 12C0 5.37258 5.37258 0 12 0H36C42.6274 0 48 5.37258 48 12V36C48 42.6274 42.6274 48 36 48H12C5.37258 48 0 42.6274 0 36V12Z" fill="#FFF6D5"/>
<g clip-path="url(#clip0_23207_138727)">
<path d="M33.7086 15.0251C40.0472 21.362 41.76 29.9258 37.5345 34.1495C33.309 38.375 24.747 36.6622 18.4092 30.3253C18.194 30.11 17.9976 29.8861 17.7927 29.6657L21.5962 25.8622C26.5252 30.7912 32.8044 32.5048 35.6203 29.6872C38.437 26.8705 36.7242 20.5913 31.7961 15.6623L31.815 15.6804L31.7969 15.6614C26.1644 10.0281 18.4575 8.6012 14.585 12.4736C12.7121 14.3465 12.0904 17.1176 12.5718 20.1143C11.8329 16.5983 12.4426 13.3408 14.585 11.1992C18.8097 6.97456 27.3717 8.68731 33.7086 15.0251Z" fill="#FFD584"/>
<g filter="url(#filter0_d_23207_138727)">
<path d="M23.0882 38.712L21.1436 37.0795C19.9696 36.093 18.3767 35.737 16.8873 36.1285L14.4152 36.7744C12.6361 37.2423 11.0845 35.498 11.7879 33.8248L12.7706 31.5007C13.3601 30.0971 13.2153 28.5003 12.3775 27.2238L10.9863 25.1133C9.98298 23.5927 11.1932 21.6043 13.0291 21.7467L15.5788 21.9451C17.12 22.0671 18.6198 21.4314 19.5921 20.2566L21.2057 18.3038C22.3693 16.8951 24.6656 17.4088 25.0948 19.1734L25.6895 21.6196C26.0464 23.0944 27.1221 24.3047 28.565 24.8489L30.9492 25.7541C32.6663 26.405 32.8835 28.7139 31.3112 29.6598L29.1288 30.9718C27.81 31.7652 26.9773 33.1434 26.8946 34.6589L26.7549 37.1711C26.6567 38.9816 24.4897 39.8919 23.0882 38.712Z" fill="url(#paint0_radial_23207_138727)"/>
</g>
<path opacity="0.8" d="M17.3734 26.695C17.8906 26.6288 18.2578 26.166 18.1906 25.6575C18.1233 25.1489 17.6527 24.7879 17.1355 24.854C16.6184 24.9201 16.2511 25.3829 16.3184 25.8914C16.3804 26.4 16.8563 26.756 17.3734 26.695Z" fill="#4D3D00"/>
<path opacity="0.8" d="M18.4787 31.4898C19.1672 31.813 19.9976 30.9196 20.0267 29.8277C20.0417 29.3111 19.8366 28.8695 19.5108 28.7196C18.8183 28.3953 17.9879 29.2886 17.957 30.3866C17.9518 30.8994 18.1569 31.341 18.4787 31.4898Z" fill="#AB8900"/>
<path opacity="0.8" d="M22.9072 27.7985C23.4243 27.7324 23.7916 27.2696 23.7243 26.761C23.6571 26.2525 23.1865 25.8914 22.6693 25.9575C22.1521 26.0236 21.7849 26.4864 21.8522 26.995C21.9194 27.5035 22.3952 27.8595 22.9072 27.7985Z" fill="#4D3D00"/>
</g>
<defs>
<filter id="filter0_d_23207_138727" x="8.7537" y="15.6226" width="25.4899" height="25.4899" filterUnits="userSpaceOnUse" color-interpolation-filters="sRGB">
<feFlood flood-opacity="0" result="BackgroundImageFix"/>
<feColorMatrix in="SourceAlpha" type="matrix" values="0 0 0 0 0 0 0 0 0 0 0 0 0 0 0 0 0 0 127 0" result="hardAlpha"/>
<feOffset/>
<feGaussianBlur stdDeviation="0.935163"/>
<feComposite in2="hardAlpha" operator="out"/>
<feColorMatrix type="matrix" values="0 0 0 0 0.670588 0 0 0 0 0.537255 0 0 0 0 0 0 0 0 0.25 0"/>
<feBlend mode="normal" in2="BackgroundImageFix" result="effect1_dropShadow_23207_138727"/>
<feBlend mode="normal" in="SourceGraphic" in2="effect1_dropShadow_23207_138727" result="shape"/>
</filter>
<radialGradient id="paint0_radial_23207_138727" cx="0" cy="0" r="1" gradientUnits="userSpaceOnUse" gradientTransform="translate(21.4986 29.3561) rotate(70.71) scale(10.474)">
<stop stop-color="#FFEB7D"/>
<stop offset="1" stop-color="#FFBD15"/>
</radialGradient>
<clipPath id="clip0_23207_138727">
<rect width="31" height="31" fill="white" transform="translate(8.85266 8.88196)"/>
</clipPath>
</defs>
</svg>
