<svg width="40" height="40" viewBox="0 0 40 40" fill="none" xmlns="http://www.w3.org/2000/svg">
<path d="M10.0625 30.3125C9.75001 30.25 9.50001 30.1875 9.18751 30.0625C8.87501 29.9375 8.62501 29.875 8.37501 29.75C7.81251 29.5 7.31251 29.1875 6.81251 28.8125C5.81251 28.125 5.00001 27.1875 4.37501 26.0625C3.75001 25 3.37501 23.75 3.31251 22.5625C3.25001 21.9375 3.31251 21.375 3.37501 20.75C3.43751 20.4375 3.50001 20.1875 3.56251 19.875C3.62501 19.5625 3.75001 19.3125 3.81251 19L3.87501 19.875C3.87501 20.1875 3.93751 20.4375 4.00001 20.75C4.06251 21.3125 4.18751 21.875 4.31251 22.375C4.56251 23.4375 4.93751 24.4375 5.50001 25.375C6.06251 26.3125 6.68751 27.1875 7.50001 28C7.87501 28.375 8.31251 28.75 8.75001 29.125C8.93751 29.3125 9.18751 29.5 9.43751 29.6875L10.0625 30.3125Z" fill="#42ADE2"/>
<path d="M9.875 32.5625C9.6875 32.6875 9.4375 32.75 9.1875 32.8125C8.9375 32.875 8.75 32.9375 8.5 32.9375C8.0625 33 7.5625 33.0625 7.0625 33C6.125 32.9375 5.125 32.6875 4.3125 32.25C3.4375 31.8125 2.6875 31.125 2.1875 30.3125C1.9375 29.9375 1.6875 29.5 1.5 29.0625C1.4375 28.875 1.375 28.625 1.3125 28.375C1.3125 28.1875 1.25 28 1.25 27.75C1.4375 27.9375 1.5625 28.125 1.6875 28.25C1.875 28.4375 2 28.625 2.125 28.75C2.4375 29.0625 2.6875 29.375 3 29.625C3.625 30.1875 4.25 30.6875 5 31.0625C5.6875 31.4375 6.5 31.75 7.25 32C7.625 32.125 8.0625 32.1875 8.5 32.3125C8.6875 32.375 8.9375 32.375 9.125 32.4375C9.4375 32.5 9.625 32.5 9.875 32.5625Z" fill="#42ADE2"/>
<path d="M24 2.1875C24.3125 2.25 24.5625 2.375 24.875 2.5C25.1875 2.625 25.4375 2.75 25.6875 2.875C26.25 3.1875 26.75 3.5 27.25 3.875C28.25 4.625 29.0625 5.625 29.625 6.75C30.1875 7.875 30.5 9.125 30.5 10.3125C30.5 10.9375 30.4375 11.5 30.3125 12.125C30.25 12.4375 30.1875 12.6875 30.0625 13C29.9375 13.3125 29.875 13.5625 29.75 13.8125L29.6875 12.9375C29.6875 12.625 29.6875 12.375 29.625 12.0625L29.4375 10.375C29.25 9.3125 28.875 8.25 28.375 7.25C27.875 6.25 27.25 5.375 26.5 4.5625C26.125 4.125 25.6875 3.75 25.3125 3.3125C25.125 3.125 24.875 2.9375 24.625 2.75L24 2.1875Z" fill="#42ADE2"/>
<path d="M29.4375 1.9375C29.6875 2 29.875 2.0625 30.0625 2.1875C30.25 2.25 30.5 2.375 30.6875 2.5C31.0625 2.75 31.4375 3 31.8125 3.3125C32.5 3.9375 33.0625 4.6875 33.375 5.5625C33.75 6.4375 33.875 7.375 33.75 8.3125C33.6875 8.75 33.5625 9.1875 33.4375 9.625C33.375 9.8125 33.25 10.0625 33.1875 10.25C33.0625 10.4375 33 10.625 32.8125 10.8125V10.1875V9.5625C32.8125 9.125 32.75 8.75 32.75 8.375C32.625 7.5625 32.5 6.8125 32.1875 6.125C31.875 5.375 31.5 4.75 31.0625 4.0625C30.8125 3.75 30.5625 3.375 30.3125 3.0625C30.1875 2.875 30.0625 2.75 29.875 2.5625C29.75 2.25 29.5625 2.0625 29.4375 1.9375Z" fill="#42ADE2"/>
<path d="M6.24995 11.25C4.99995 11.8125 4.56245 13.3125 5.12495 14.5625L13 31L17.3749 28.9375L9.49995 12.4375C8.93745 11.1875 7.49995 10.625 6.24995 11.25Z" fill="#FFDD67"/>
<path d="M26.9373 24.3125L31.5623 22.125L22.5623 3.37496C21.9373 2.12496 20.4373 1.56246 19.1248 2.18746C17.8748 2.81246 17.3123 4.31246 17.9373 5.62496L26.9373 24.3125Z" fill="#FFDD67"/>
<path d="M19.1875 2.12496C19.0625 2.18746 18.9375 2.24996 18.8125 2.37496C20 2.06246 21.25 2.62496 21.8125 3.74996L30.8125 22.5L31.625 22.125L22.625 3.37496C22 2.06246 20.5 1.49996 19.1875 2.12496Z" fill="#EBA352"/>
<path d="M17.375 28.875L22.1875 26.5625L13 7.43748C12.375 6.12498 10.75 5.49998 9.43746 6.12498C8.12496 6.74998 7.56246 8.37498 8.18746 9.68748L17.375 28.875Z" fill="#FFDD67"/>
<path d="M9.4375 6.18748C9.3125 6.24998 9.1875 6.31248 9.0625 6.43748C10.25 6.12498 11.625 6.68748 12.1875 7.87498L17.875 19.8125L19.25 20.625L13 7.49998C12.375 6.12498 10.8125 5.56248 9.4375 6.18748Z" fill="#EBA352"/>
<path d="M21.4375 25.0624L26.25 22.7499L17.0625 3.62493C16.4375 2.31243 14.8125 1.68743 13.5 2.37493C12.1875 2.99993 11.625 4.62493 12.25 5.93743L21.4375 25.0624Z" fill="#FFDD67"/>
<path d="M13.5 2.31248C13.375 2.37498 13.25 2.49998 13.125 2.56248C14.3125 2.24998 15.6875 2.81248 16.25 3.99998L22.6875 17.5L24.0625 18.3125L17.0625 3.62498C16.4375 2.24998 14.8125 1.68748 13.5 2.31248Z" fill="#EBA352"/>
<path d="M6.25 11.25C6.125 11.3125 6 11.375 5.875 11.5C7 11.1875 8.1875 11.75 8.6875 12.875L13.375 22.6875L14.75 23.5L9.5 12.5C8.9375 11.1875 7.5 10.625 6.25 11.25Z" fill="#EBA352"/>
<path d="M37.9999 9.37495C36.3124 8.06245 33.5624 9.49995 32.1874 14C31.2499 17.125 31.1249 18.0625 29.1249 19L27.9999 16.6875C27.9999 16.6875 10.2499 25.25 10.9374 26.625C10.9374 26.625 13.0624 33.25 16.6874 36.3125C22.0624 40.9375 34.6249 36 35.1874 24.0625C35.4999 17.125 39.8124 10.8125 37.9999 9.37495Z" fill="#FFDD67"/>
<path d="M38 9.375C37.6875 9.125 37.3125 9 36.9375 8.9375C37 9 37.125 9 37.1875 9.0625C39.0625 10.5 37.125 13.8125 36.0625 16.8125C35.1875 19.1875 34.4375 21.625 34.5625 24C35.0625 34.375 24.625 39.3125 18.375 37.4375C24.5 40 35.875 35.125 35.375 24.3125C35.25 21.9375 35.9375 19.625 36.875 17.125C37.875 14.125 39.8125 10.8125 38 9.375Z" fill="#EBA352"/>
<path d="M29.6875 18.75C25.8125 19.1875 20.125 24.75 24.125 30.8125C21.1875 24.6875 26 20.5625 29.0625 19.125C29.375 18.875 29.6875 18.75 29.6875 18.75Z" fill="#EBA352"/>
</svg>
