<svg width="32" height="32" viewBox="0 0 32 32" fill="none" xmlns="http://www.w3.org/2000/svg">
<path d="M16.0228 5.42112e-05C7.19208 -0.0227053 0.0228138 7.12378 5.42113e-05 15.9772C-0.0227054 24.8079 7.1238 31.9772 15.9773 31.9999C24.808 32.0227 31.9772 24.8762 32 16.0228C32 7.19206 24.8535 0.0228137 16.0228 5.42112e-05ZM21.5306 5.16647C21.8492 5.16647 22.0996 5.41682 22.0996 5.73545C22.0996 6.05409 21.8492 6.30444 21.5306 6.30444C21.212 6.30444 20.9616 6.05409 20.9616 5.73545C20.9389 5.41682 21.212 5.16647 21.5306 5.16647ZM19.9374 2.70844C20.1423 2.70844 20.3243 2.89051 20.3243 3.09535C20.3243 3.30019 20.1423 3.48226 19.9374 3.48226C19.7326 3.48226 19.5505 3.30019 19.5505 3.09535C19.5505 2.86775 19.7326 2.70844 19.9374 2.70844ZM14.2703 2.95879C14.68 2.95879 15.0214 3.30018 15.0214 3.70986C15.0214 4.11953 14.68 4.46092 14.2703 4.46092C13.8606 4.46092 13.5192 4.11953 13.5192 3.70986C13.5192 3.30018 13.8606 2.95879 14.2703 2.95879ZM4.82508 15.5903L4.0285 15.8634C4.00574 15.8634 4.00574 15.8862 4.00574 15.8862L3.77814 16.7055C3.77814 16.7511 3.70986 16.7511 3.70986 16.7055L3.41399 15.909C3.41399 15.8862 3.39123 15.8862 3.39123 15.8862L2.57188 15.6586C2.52637 15.6586 2.52637 15.5903 2.57188 15.5903L3.36847 15.3172C3.39123 15.3172 3.39123 15.2945 3.39123 15.2945L3.61882 14.4751C3.61882 14.4296 3.6871 14.4296 3.6871 14.4751L3.96022 15.2717C3.96022 15.2945 3.98298 15.2945 3.98298 15.2945L4.80232 15.522C4.84784 15.522 4.84784 15.5676 4.82508 15.5903ZM5.30303 7.48794C5.30303 7.1693 5.55339 6.91895 5.87202 6.91895C6.19065 6.91895 6.44101 7.1693 6.44101 7.48794C6.44101 7.80657 6.19065 8.05693 5.87202 8.05693C5.55339 8.05693 5.30303 7.80657 5.30303 7.48794ZM6.30445 10.7653C6.07686 10.7653 5.89478 10.5832 5.89478 10.3556C5.89478 10.128 6.07686 9.94597 6.30445 9.94597C6.53205 9.94597 6.71412 10.128 6.71412 10.3556C6.71412 10.5832 6.53205 10.7653 6.30445 10.7653ZM15.9545 30.7027C12.6544 30.6799 9.65011 29.6102 7.21484 27.8122C7.98866 26.788 8.89904 25.9687 9.9915 25.2631C10.037 25.3086 10.1053 25.3314 10.1508 25.3769C11.8578 26.3101 13.8151 26.9473 15.909 26.9473C18.0256 26.9473 20.0285 26.3328 21.7582 25.3769C21.8037 25.3542 21.872 25.3086 21.9175 25.2631C23.01 25.9687 23.9204 26.788 24.6942 27.8122C22.2589 29.6102 19.2546 30.7027 15.9545 30.7027ZM16 25.081C10.9929 25.081 6.91896 21.0071 6.91896 16C6.91896 10.9929 10.9929 6.91895 16 6.91895C21.0071 6.91895 25.0811 10.9929 25.0811 16C25.0811 21.0071 21.0071 25.081 16 25.081ZM27.0157 20.6657C26.7198 20.6657 26.4922 20.4381 26.4922 20.1422C26.4922 19.8464 26.7198 19.6188 27.0157 19.6188C27.3115 19.6188 27.5391 19.8464 27.5391 20.1422C27.5391 20.4381 27.3115 20.6657 27.0157 20.6657ZM28.3585 10.515L27.3798 10.8563C27.357 10.8563 27.357 10.8791 27.357 10.9019L27.0839 11.9033C27.0612 11.9488 26.9929 11.9488 26.9929 11.9033L26.6515 10.9246C26.6515 10.9019 26.6287 10.9019 26.606 10.9019L25.6046 10.6288C25.559 10.606 25.559 10.5377 25.6046 10.5377L26.5832 10.1963C26.606 10.1963 26.606 10.1736 26.606 10.1508L26.8791 9.14938C26.9019 9.10386 26.9701 9.10386 26.9701 9.14938L27.3115 10.128C27.3115 10.1508 27.3343 10.1508 27.357 10.1508L28.3585 10.4239C28.404 10.4239 28.404 10.4922 28.3585 10.515ZM30.1792 13.8151L29.5647 14.0427L29.542 14.0654L29.3599 14.7027C29.3599 14.7255 29.3144 14.7255 29.2916 14.7027L29.064 14.0882L29.0413 14.0654L28.404 13.8834C28.3812 13.8834 28.3812 13.8378 28.404 13.8151L29.0185 13.5875L29.0413 13.5647L29.2233 12.9275C29.2233 12.9047 29.2689 12.9047 29.2916 12.9275L29.5192 13.542L29.542 13.5647L30.1792 13.7468C30.202 13.7696 30.202 13.8151 30.1792 13.8151Z" fill="#6638B6"/>
<path d="M15.9999 10.3786C15.8633 10.3786 15.7267 10.3786 15.5902 10.4014C14.9302 10.4469 14.4294 10.3559 14.2246 10.2648C13.6784 10.0145 13.4053 9.90068 13.1777 9.78688C13.0184 9.7186 12.7225 9.69584 12.5632 9.80964C12.4038 9.92344 12.4266 10.1966 12.6087 10.4697C12.677 10.5835 12.8135 10.7883 12.768 10.8566C12.677 10.9704 12.1307 10.6062 11.3797 10.4697C11.1293 10.4241 10.8789 10.4469 10.7424 10.6517C10.6286 10.8111 10.7652 11.0842 10.9245 11.3118C11.0838 11.5621 11.4479 12.1766 11.1293 12.5408C10.0141 13.7243 9.3313 15.3402 9.3313 17.0927C9.3313 20.7797 12.3128 23.784 16.0226 23.784C19.7097 23.784 22.7139 20.8025 22.7139 17.0927C22.6912 13.3601 19.6869 10.3786 15.9999 10.3786ZM12.9273 17.6162C12.8818 18.0941 12.4494 18.4583 11.9486 18.4127C11.4707 18.3672 11.1065 17.9348 11.1521 17.4341C11.1976 16.9561 11.63 16.592 12.1307 16.6375C12.6314 16.683 12.9728 17.1154 12.9273 17.6162ZM19.7552 16.4327C19.1407 16.7058 18.4351 16.4099 18.162 15.7954C17.8889 15.1809 18.1848 14.4753 18.7993 14.2022C19.4138 13.9291 20.1193 14.225 20.3925 14.8395C20.6428 15.454 20.3697 16.1595 19.7552 16.4327Z" fill="#6638B6"/>
</svg>
