<svg id="brand_logo" xmlns="http://www.w3.org/2000/svg" width="100" height="100" viewBox="0 0 100 100">
  <defs>
    <style>
      .cls-1 {
        fill: none;
      }

      .cls-2 {
        fill: #fff;
      }
    </style>
  </defs>
  <rect id="사각형_459" data-name="사각형 459" class="cls-1" width="100" height="100"/>
  <g id="그룹_293" data-name="그룹 293" transform="translate(-1157.376 -647.472)">
    <path id="패스_603" data-name="패스 603" class="cls-2" d="M1179.924,672.987a1.662,1.662,0,1,0-1.662,1.664A1.663,1.663,0,0,0,1179.924,672.987Z"/>
    <path id="패스_604" data-name="패스 604" class="cls-2" d="M1179.493,680.087a1.155,1.155,0,1,0,1.154,1.155A1.154,1.154,0,0,0,1179.493,680.087Z"/>
    <path id="패스_605" data-name="패스 605" class="cls-2" d="M1175.185,696.091l-2.331-.664a.123.123,0,0,1-.081-.076l-.8-2.291a.121.121,0,0,0-.23.007l-.663,2.333a.122.122,0,0,1-.077.081l-2.287.8a.12.12,0,0,0,.006.229l2.331.665a.121.121,0,0,1,.08.076l.8,2.29a.12.12,0,0,0,.229-.007l.664-2.332a.121.121,0,0,1,.076-.081l2.288-.8A.121.121,0,0,0,1175.185,696.091Z"/>
    <path id="패스_606" data-name="패스 606" class="cls-2" d="M1224.509,724.176a3.479,3.479,0,0,1-.45.3,34.968,34.968,0,0,1-16.831,4.512,34.457,34.457,0,0,1-16.611-4.522,3.444,3.444,0,0,1-.483-.323,29.791,29.791,0,0,0-7.98,7.338,42.3,42.3,0,0,0,50.341.065A29.773,29.773,0,0,0,1224.509,724.176Z"/>
    <path id="패스_607" data-name="패스 607" class="cls-2" d="M1223.307,669.595a1.663,1.663,0,1,0-1.662-1.663A1.662,1.662,0,0,0,1223.307,669.595Z"/>
    <path id="패스_608" data-name="패스 608" class="cls-2" d="M1202.43,664.237a2.154,2.154,0,1,0-2.151-2.154A2.152,2.152,0,0,0,1202.43,664.237Z"/>
    <path id="패스_609" data-name="패스 609" class="cls-2" d="M1218.742,661.438a1.121,1.121,0,1,0-1.121-1.122A1.121,1.121,0,0,0,1218.742,661.438Z"/>
    <path id="패스_610" data-name="패스 610" class="cls-2" d="M1196.269,699.312a2.561,2.561,0,1,0,2.287,2.808A2.56,2.56,0,0,0,1196.269,699.312Z"/>
    <path id="패스_611" data-name="패스 611" class="cls-2" d="M1215.455,692.353a3.469,3.469,0,1,0,4.56,1.808A3.469,3.469,0,0,0,1215.455,692.353Z"/>
    <path id="패스_612" data-name="패스 612" class="cls-2" d="M1248.2,691.035l-1.823-.52a.1.1,0,0,1-.063-.06l-.625-1.791a.094.094,0,0,0-.179.005l-.519,1.825a.1.1,0,0,1-.06.063l-1.789.625a.1.1,0,0,0,.005.18l1.823.519a.1.1,0,0,1,.063.06l.625,1.791a.094.094,0,0,0,.179-.005l.519-1.825a.1.1,0,0,1,.059-.063l1.79-.625A.094.094,0,0,0,1248.2,691.035Z"/>
    <path id="패스_613" data-name="패스 613" class="cls-2" d="M1207.376,647.472a50,50,0,1,0,50,50A50,50,0,0,0,1207.376,647.472Zm-.072,96.05a46.051,46.051,0,1,1,46.122-45.979A46.05,46.05,0,0,1,1207.3,743.522Z"/>
    <path id="패스_614" data-name="패스 614" class="cls-2" d="M1242.956,681.417l-2.853-.813a.148.148,0,0,1-.1-.093l-.978-2.8a.147.147,0,0,0-.28.008l-.813,2.856a.148.148,0,0,1-.093.1l-2.8.978a.148.148,0,0,0,.008.281l2.853.814a.148.148,0,0,1,.1.093l.978,2.8a.147.147,0,0,0,.28-.008l.813-2.856a.149.149,0,0,1,.093-.1l2.8-.979A.148.148,0,0,0,1242.956,681.417Z"/>
    <path id="패스_615" data-name="패스 615" class="cls-2" d="M1207.4,671.316a26.162,26.162,0,1,0,26.162,26.162A26.163,26.163,0,0,0,1207.4,671.316Zm0,48.453a19.234,19.234,0,0,1-14.065-32.362l-.012.005c.947-1.038-.125-2.829-.557-3.521-.442-.608-.82-1.414-.51-1.879a1.646,1.646,0,0,1,1.808-.5c2.121.434,3.695,1.447,3.982,1.124.181-.205-.209-.8-.427-1.122-.511-.749-.551-1.578-.1-1.894a2.022,2.022,0,0,1,1.765-.035c.662.3,1.436.609,3.006,1.349a9.923,9.923,0,0,0,3.919.38l-.01.009c.4-.024.8-.038,1.2-.038a19.241,19.241,0,0,1,0,38.483Z"/>
    <path id="패스_616" data-name="패스 616" class="cls-2" d="M1239.132,707.944a1.488,1.488,0,1,0,1.486,1.488A1.487,1.487,0,0,0,1239.132,707.944Z"/>
  </g>
</svg>
