<svg width="155" height="28" viewBox="0 0 155 28" fill="none" xmlns="http://www.w3.org/2000/svg">
<path d="M14.0199 4.74348e-05C6.29307 -0.0198672 0.0199621 6.23331 4.74349e-05 13.9801C-0.0198672 21.7069 6.23332 27.98 13.9801 28C21.707 28.0199 27.9801 21.7667 28 14.0199C28 6.29306 21.7468 0.019962 14.0199 4.74348e-05ZM18.8393 4.52066C19.1181 4.52066 19.3371 4.73972 19.3371 5.01852C19.3371 5.29733 19.1181 5.51639 18.8393 5.51639C18.5605 5.51639 18.3414 5.29733 18.3414 5.01852C18.3215 4.73972 18.5605 4.52066 18.8393 4.52066ZM17.4453 2.36988C17.6245 2.36988 17.7838 2.5292 17.7838 2.70843C17.7838 2.88766 17.6245 3.04698 17.4453 3.04698C17.266 3.04698 17.1067 2.88766 17.1067 2.70843C17.1067 2.50929 17.266 2.36988 17.4453 2.36988ZM12.4865 2.58894C12.845 2.58894 13.1437 2.88766 13.1437 3.24612C13.1437 3.60459 12.845 3.90331 12.4865 3.90331C12.128 3.90331 11.8293 3.60459 11.8293 3.24612C11.8293 2.88766 12.128 2.58894 12.4865 2.58894ZM4.22195 13.6415L3.52493 13.8805C3.50502 13.8805 3.50502 13.9004 3.50502 13.9004L3.30587 14.6174C3.30587 14.6572 3.24613 14.6572 3.24613 14.6174L2.98724 13.9203C2.98724 13.9004 2.96733 13.9004 2.96733 13.9004L2.2504 13.7013C2.21057 13.7013 2.21057 13.6415 2.2504 13.6415L2.94741 13.4026C2.96733 13.4026 2.96733 13.3826 2.96733 13.3826L3.16647 12.6657C3.16647 12.6259 3.22622 12.6259 3.22622 12.6657L3.46519 13.3627C3.46519 13.3826 3.48511 13.3826 3.48511 13.3826L4.20203 13.5818C4.24186 13.5818 4.24186 13.6216 4.22195 13.6415ZM4.64015 6.55195C4.64015 6.27314 4.85921 6.05408 5.13802 6.05408C5.41682 6.05408 5.63588 6.27314 5.63588 6.55195C5.63588 6.83075 5.41682 7.04981 5.13802 7.04981C4.85921 7.04981 4.64015 6.83075 4.64015 6.55195ZM5.5164 9.41965C5.31725 9.41965 5.15793 9.26033 5.15793 9.06118C5.15793 8.86204 5.31725 8.70272 5.5164 8.70272C5.71554 8.70272 5.87486 8.86204 5.87486 9.06118C5.87486 9.26033 5.71554 9.41965 5.5164 9.41965ZM13.9602 26.8648C11.0726 26.8449 8.44384 25.9089 6.31298 24.3357C6.99008 23.4395 7.78666 22.7226 8.74256 22.1052C8.78239 22.1451 8.84214 22.165 8.88197 22.2048C10.3756 23.0213 12.0882 23.5789 13.9204 23.5789C15.7724 23.5789 17.5249 23.0412 19.0384 22.2048C19.0782 22.1849 19.138 22.1451 19.1778 22.1052C20.1337 22.7226 20.9303 23.4395 21.6074 24.3357C19.4765 25.9089 16.8478 26.8648 13.9602 26.8648ZM14 21.9459C9.61881 21.9459 6.05409 18.3812 6.05409 14C6.05409 9.61879 9.61881 6.05408 14 6.05408C18.3812 6.05408 21.946 9.61879 21.946 14C21.946 18.3812 18.3812 21.9459 14 21.9459ZM23.6387 18.0825C23.3798 18.0825 23.1807 17.8833 23.1807 17.6245C23.1807 17.3656 23.3798 17.1664 23.6387 17.1664C23.8976 17.1664 24.0967 17.3656 24.0967 17.6245C24.0967 17.8833 23.8976 18.0825 23.6387 18.0825ZM24.8137 9.20059L23.9573 9.4993C23.9374 9.4993 23.9374 9.51922 23.9374 9.53913L23.6984 10.4154C23.6785 10.4552 23.6188 10.4552 23.6188 10.4154L23.3201 9.55905C23.3201 9.53913 23.3001 9.53913 23.2802 9.53913L22.404 9.30016C22.3642 9.28024 22.3642 9.2205 22.404 9.2205L23.2603 8.92178C23.2802 8.92178 23.2802 8.90187 23.2802 8.88195L23.5192 8.00571C23.5391 7.96588 23.5989 7.96588 23.5989 8.00571L23.8976 8.86204C23.8976 8.88195 23.9175 8.88195 23.9374 8.88195L24.8137 9.12093C24.8535 9.12093 24.8535 9.18067 24.8137 9.20059ZM26.4068 12.0882L25.8691 12.2873L25.8492 12.3073L25.6899 12.8649C25.6899 12.8848 25.6501 12.8848 25.6302 12.8649L25.431 12.3272L25.4111 12.3073L24.8535 12.1479C24.8336 12.1479 24.8336 12.1081 24.8535 12.0882L25.3912 11.8891L25.4111 11.8691L25.5704 11.3115C25.5704 11.2916 25.6102 11.2916 25.6302 11.3115L25.8293 11.8492L25.8492 11.8691L26.4068 12.0285C26.4267 12.0484 26.4267 12.0882 26.4068 12.0882Z" fill="#6638B6"/>
<path d="M14 9.08124C13.8805 9.08124 13.761 9.08124 13.6416 9.10115C13.064 9.14098 12.6259 9.06132 12.4467 8.98166C11.9687 8.7626 11.7298 8.66303 11.5306 8.56346C11.3912 8.50371 11.1323 8.4838 10.9929 8.58337C10.8535 8.68295 10.8734 8.92192 11.0327 9.1609C11.0925 9.26047 11.212 9.4397 11.1721 9.49944C11.0925 9.59902 10.6145 9.28038 9.95736 9.1609C9.73829 9.12107 9.51923 9.14098 9.39975 9.32021C9.30017 9.45961 9.41966 9.69859 9.55906 9.89774C9.69847 10.1168 10.0171 10.6545 9.73829 10.9731C8.76248 12.0087 8.16504 13.4226 8.16504 14.956C8.16504 18.1822 10.7739 20.8109 14.0199 20.8109C17.2461 20.8109 19.8748 18.2021 19.8748 14.956C19.8549 11.69 17.2262 9.08124 14 9.08124ZM11.3115 15.4141C11.2717 15.8323 10.8933 16.1509 10.4552 16.1111C10.037 16.0713 9.71838 15.6929 9.75821 15.2548C9.79804 14.8366 10.1764 14.5179 10.6145 14.5577C11.0527 14.5976 11.3514 14.976 11.3115 15.4141ZM17.2859 14.3785C16.7482 14.6175 16.1309 14.3586 15.8919 13.8209C15.6529 13.2832 15.9118 12.6659 16.4495 12.4269C16.9872 12.1879 17.6046 12.4468 17.8435 12.9845C18.0626 13.5222 17.8236 14.1395 17.2859 14.3785Z" fill="#6638B6"/>
<path d="M40.6109 7.96936C39.8963 7.95968 39.1849 8.06462 38.5035 8.28019C37.9053 8.47425 37.3442 8.76816 36.844 9.14947C36.3723 9.51577 35.9874 9.98169 35.7166 10.514C35.4471 11.0443 35.3081 11.6313 35.3109 12.2262C35.3007 12.6754 35.3899 13.1213 35.572 13.5321C35.7542 13.9428 36.0248 14.3082 36.3646 14.6022C36.7343 14.9235 37.1411 15.1994 37.5763 15.4241C38.0899 15.6942 38.6175 15.9369 39.1568 16.1511C39.4716 16.2805 39.7794 16.4265 40.0788 16.5884L40.2842 16.699C40.5442 16.8276 40.7867 16.9887 41.006 17.1784C41.1433 17.2978 41.256 17.4427 41.3379 17.6052C41.4031 17.7565 41.4354 17.9199 41.4327 18.0846C41.4391 18.3419 41.3773 18.5964 41.2536 18.8222C41.1225 19.0589 40.943 19.2653 40.7268 19.428C40.4568 19.6173 40.1579 19.7614 39.8417 19.8548C39.2312 19.9746 38.6092 20.0259 37.9872 20.0076H32.8717L32.25 22.2729H38.6616C39.3751 22.285 40.0861 22.1854 40.7689 21.9779C41.3889 21.7824 41.9689 21.4773 42.4811 21.077C42.9645 20.698 43.3614 20.2202 43.6454 19.6756C43.936 19.1258 44.0828 18.5114 44.0722 17.8897C44.079 17.4379 43.9929 16.9897 43.8193 16.5726C43.6431 16.1774 43.3927 15.8197 43.0817 15.5189C42.7381 15.1886 42.3497 14.9084 41.928 14.6865C41.4347 14.424 40.9243 14.1952 40.4001 14.0016C40.0366 13.8541 39.7521 13.7171 39.4729 13.5802L39.2148 13.4537C38.9265 13.3263 38.6541 13.1654 38.4034 12.9743C38.2486 12.8579 38.1195 12.7109 38.0241 12.5423C37.9522 12.3872 37.9162 12.218 37.9187 12.0471C37.9198 11.8267 37.974 11.6098 38.0768 11.4149C38.2 11.1896 38.3665 10.9908 38.5668 10.8301C38.8146 10.6393 39.0948 10.4947 39.3939 10.4033C39.7717 10.2912 40.1641 10.2362 40.5582 10.24H45.9056L46.5272 7.97989L40.6109 7.96936Z" fill="#474952"/>
<path d="M56.047 8.28547C55.2788 8.06176 54.4816 7.95345 53.6815 7.96409H49.1138L49.0559 8.18537L45.2363 22.2624H47.8073L49.0875 17.5472H51.8744C52.8231 17.5558 53.7689 17.4407 54.6878 17.2048C55.4948 16.996 56.2559 16.6387 56.9321 16.1511C57.5555 15.707 58.0676 15.1246 58.4283 14.4494C58.7898 13.7367 58.9707 12.9462 58.9551 12.1472C58.9737 11.6263 58.8856 11.1071 58.6962 10.6215C58.5069 10.1359 58.2203 9.69417 57.854 9.32334C57.3444 8.83647 56.7243 8.48036 56.047 8.28547ZM55.3621 14.4284C54.5982 14.9552 53.455 15.2397 51.9693 15.2397H49.7092L51.0421 10.3349H53.6446C54.6983 10.3349 55.4938 10.5667 55.9574 11.0303C56.1177 11.1925 56.2422 11.3864 56.3229 11.5997C56.4037 11.8129 56.4389 12.0407 56.4263 12.2683C56.4536 12.69 56.3697 13.1115 56.1829 13.4906C55.9962 13.8697 55.7131 14.1931 55.3621 14.4284Z" fill="#474952"/>
<path d="M83.9061 18.0583C83.4633 18.6612 82.8862 19.1527 82.2205 19.4938C81.5548 19.8349 80.8187 20.0162 80.0707 20.0234C79.5405 20.056 79.0092 19.9792 78.5098 19.798C78.0105 19.6167 77.5537 19.3348 77.1678 18.9697C76.8416 18.5894 76.5962 18.1466 76.4468 17.6684C76.2973 17.1901 76.2469 16.6864 76.2986 16.188C76.4777 12.753 78.7852 10.2664 81.7882 10.2664C82.535 10.2449 83.272 10.4398 83.9105 10.8278C84.5489 11.2157 85.0615 11.78 85.3865 12.4528L85.5234 12.7583L87.4359 11.5993L87.6624 11.4623L87.5518 11.2252C86.6509 9.20217 84.5962 7.98518 82.0569 7.96411H81.9937C77.4787 7.96411 74.0226 11.4149 73.775 16.1669C73.7024 16.9539 73.7947 17.7473 74.046 18.4966C74.2972 19.2459 74.702 19.9345 75.2344 20.5186C75.8476 21.1234 76.5793 21.5947 77.3835 21.9029C78.1877 22.2112 79.047 22.3497 79.9074 22.3098C80.8774 22.3096 81.8375 22.1146 82.7307 21.7363C83.624 21.358 84.4321 20.8042 85.1072 20.1077L83.9061 18.0583Z" fill="#474952"/>
<path d="M98.2043 18.0583C97.7541 18.6703 97.166 19.1676 96.4878 19.5099C95.8095 19.8523 95.0602 20.03 94.3005 20.0287C93.7817 20.0504 93.2638 19.9684 92.7771 19.7875C92.2904 19.6065 91.8447 19.3303 91.4661 18.975C91.1441 18.5975 90.9016 18.1589 90.7532 17.6854C90.6047 17.212 90.5533 16.7135 90.6021 16.2197L100.733 16.1828L100.807 15.9984C101.045 15.3851 101.221 14.7498 101.334 14.1018C101.505 13.3362 101.503 12.5421 101.328 11.7773C101.153 11.0126 100.809 10.2966 100.322 9.68166C99.8324 9.13301 99.2289 8.69754 98.5539 8.4055C97.8789 8.11347 97.1483 7.97187 96.4131 7.99052C94.2399 8.02258 92.1617 8.88659 90.6064 10.4047C89.051 11.9228 88.1369 13.9794 88.0522 16.1512C87.98 16.9218 88.0656 17.6991 88.3038 18.4355C88.542 19.1719 88.9279 19.8521 89.4378 20.4344C90.4914 21.5987 92.2089 22.2467 94.1793 22.3099C96.1388 22.2855 98.0123 21.5017 99.4055 20.1235L98.2043 18.0583ZM98.826 14.1071H91.0077C91.3308 13.0611 91.9615 12.1367 92.8176 11.4545C93.6737 10.7722 94.7155 10.3637 95.8072 10.2822H96.1707C96.5907 10.258 97.0106 10.3299 97.3986 10.4924C97.7866 10.6549 98.1324 10.9037 98.4098 11.22C98.9419 11.8627 99.0841 12.869 98.826 14.1071Z" fill="#474952"/>
<path d="M70.9412 9.11792C69.9982 8.35401 68.6758 7.98523 66.9057 7.98523H64.6877H62.3591H61.985L63.3495 10.3191H66.5948C67.48 10.2502 68.3636 10.4702 69.1131 10.946C69.3735 11.1607 69.5794 11.434 69.714 11.7435C69.8486 12.0529 69.9081 12.3899 69.8875 12.7268C69.8869 12.9176 69.8692 13.108 69.8349 13.2957C69.8032 13.5117 69.7611 13.7067 69.719 13.8752C69.1359 13.7172 68.4984 13.575 67.8065 13.4485C66.954 13.3009 66.0903 13.2269 65.225 13.2272C64.3973 13.2192 63.5732 13.3364 62.7805 13.5749C62.0722 13.7851 61.4081 14.1225 60.8207 14.5707C60.2638 14.9999 59.8132 15.5515 59.5036 16.1828C59.1939 16.8419 59.0355 17.5619 59.04 18.2901C59.0272 18.8542 59.1452 19.4136 59.3847 19.9246C59.6241 20.4355 59.9786 20.8841 60.4203 21.2351C60.8458 21.569 61.3275 21.8241 61.8428 21.9885C62.3899 22.1607 62.9603 22.2478 63.5339 22.2467C64.3861 22.2559 65.2315 22.0947 66.0206 21.7725C66.7735 21.4028 67.4973 20.9767 68.1859 20.4976L69.0499 21.9622H70.0561L72.1371 14.2756C72.2015 14.0277 72.2508 13.7762 72.2846 13.5223C72.2846 13.4433 72.311 13.3695 72.3215 13.2957C72.3733 12.984 72.3997 12.6687 72.4005 12.3527C72.4235 11.7375 72.3037 11.1253 72.0505 10.5641C71.7973 10.0028 71.4176 9.50788 70.9412 9.11792ZM68.9867 16.6148C68.955 16.7254 68.2438 19.249 64.7351 19.9971C64.4293 20.054 64.1189 20.0822 63.8079 20.0814C63.4316 20.0826 63.0566 20.0384 62.691 19.9497C62.3053 19.8378 61.9694 19.5978 61.7386 19.2693C61.5077 18.9408 61.3958 18.5433 61.4213 18.1426C61.4274 17.7378 61.5303 17.3404 61.7216 16.9836C61.9575 16.6245 62.2575 16.312 62.6067 16.0616C62.9527 15.8034 63.3441 15.6122 63.7604 15.4979C64.2576 15.3488 64.7745 15.276 65.2935 15.2819C66.0587 15.2782 66.8231 15.3328 67.58 15.4452C68.1261 15.5266 68.6676 15.6356 69.2027 15.7719L68.9867 16.6148Z" fill="#474952"/>
<path d="M146.294 10.6668L145.593 13.2536H153.132L152.253 16.4936H144.714L143.955 19.3017H152.448L151.541 22.6523H138.792L142.949 7.31616H154.739L153.833 10.6668H146.294Z" fill="#474952"/>
<path d="M140.304 7.31625L136.153 22.6524H132.628L127.681 14.223L125.4 22.6524H121.148L125.305 7.31097H128.867L133.787 15.6824L136.053 7.31097L140.304 7.31625Z" fill="#474952"/>
<path d="M104.105 16.2302C104.48 10.8933 108.705 7 114.352 7C119.094 7 121.807 9.79223 121.528 13.7698C121.154 19.112 116.929 23 111.281 23C106.555 23 103.826 20.2078 104.105 16.2302ZM117.071 14.0333C117.213 11.9891 116.017 10.6036 113.72 10.6036C110.744 10.6036 108.768 13.0691 108.563 15.9667C108.42 18.0109 109.616 19.3964 111.913 19.3964C114.89 19.3964 116.871 16.9361 117.071 14.0333Z" fill="#474952"/>
</svg>
