<svg width="164" height="40" viewBox="0 0 164 40" fill="none" xmlns="http://www.w3.org/2000/svg">
<path d="M18.3633 37.1146L15.8542 30.4307H15.8115C15.8328 30.6514 15.8506 30.9504 15.8648 31.3276C15.8791 31.6978 15.8862 32.0857 15.8862 32.4914L15.8862 37.1146H15L15 29.4911H16.4201L18.769 35.7373H18.8117L21.2034 29.4911H22.6128V37.1146H21.6625V32.4274C21.6625 32.0572 21.6697 31.6906 21.6839 31.3276C21.7053 30.9646 21.723 30.6692 21.7373 30.4414H21.6946L19.1534 37.1146H18.3633Z" fill="#474952"/>
<path d="M29.4486 31.3917V37.1146H28.6799L28.541 36.3566H28.4983C28.3133 36.6555 28.057 36.8762 27.7296 37.0185C27.4022 37.1538 27.0534 37.2214 26.6832 37.2214C25.9928 37.2214 25.4731 37.0577 25.1244 36.7303C24.7756 36.3957 24.6012 35.8654 24.6012 35.1394V31.3917H25.5514V35.0753C25.5514 35.9864 25.975 36.442 26.822 36.442C27.4555 36.442 27.8933 36.264 28.1353 35.9081C28.3844 35.5522 28.509 35.0397 28.509 34.3706V31.3917H29.4486Z" fill="#474952"/>
<path d="M32.3118 37.1146H31.3722V29H32.3118V37.1146Z" fill="#474952"/>
<path d="M36.1429 36.4527C36.2853 36.4527 36.4312 36.442 36.5807 36.4206C36.7302 36.3921 36.8512 36.3637 36.9437 36.3352V37.0506C36.8441 37.1004 36.7017 37.1395 36.5166 37.168C36.3316 37.2036 36.1536 37.2214 35.9828 37.2214C35.6838 37.2214 35.4062 37.1716 35.15 37.0719C34.9008 36.9652 34.698 36.7836 34.5414 36.5274C34.3848 36.2711 34.3065 35.9117 34.3065 35.449V32.1177H33.495V31.6693L34.3171 31.2956L34.6908 30.0784H35.246V31.3917H36.901V32.1177H35.246V35.4276C35.246 35.7764 35.3279 36.0362 35.4916 36.2071C35.6625 36.3708 35.8796 36.4527 36.1429 36.4527Z" fill="#474952"/>
<path d="M38.6769 29.2456C38.8193 29.2456 38.9438 29.2954 39.0506 29.3951C39.1645 29.4876 39.2215 29.6371 39.2215 29.8435C39.2215 30.0428 39.1645 30.1923 39.0506 30.2919C38.9438 30.3916 38.8193 30.4414 38.6769 30.4414C38.5203 30.4414 38.3886 30.3916 38.2819 30.2919C38.1751 30.1923 38.1217 30.0428 38.1217 29.8435C38.1217 29.6371 38.1751 29.4876 38.2819 29.3951C38.3886 29.2954 38.5203 29.2456 38.6769 29.2456ZM39.136 31.3917V37.1146H38.1964V31.3917H39.136Z" fill="#474952"/>
<path d="M43.3515 37.2214C42.8461 37.2214 42.3941 37.1182 41.9955 36.9118C41.604 36.7053 41.2944 36.385 41.0666 35.9508C40.8459 35.5166 40.7356 34.9614 40.7356 34.2852C40.7356 33.5805 40.8531 33.0075 41.0879 32.5662C41.3228 32.1248 41.6396 31.801 42.0382 31.5945C42.444 31.3881 42.9031 31.2849 43.4156 31.2849C43.7074 31.2849 43.9886 31.3169 44.2591 31.381C44.5296 31.4379 44.7502 31.5091 44.921 31.5945L44.6328 32.374C44.4619 32.3099 44.2626 32.2494 44.0348 32.1925C43.8071 32.1355 43.5935 32.1071 43.3942 32.1071C42.2696 32.1071 41.7072 32.8295 41.7072 34.2745C41.7072 34.965 41.8425 35.4953 42.113 35.8654C42.3906 36.2284 42.7999 36.4099 43.3408 36.4099C43.654 36.4099 43.9281 36.3779 44.163 36.3138C44.405 36.2498 44.6256 36.1715 44.825 36.079V36.9118C44.6328 37.0114 44.4192 37.0862 44.1843 37.136C43.9565 37.1929 43.6789 37.2214 43.3515 37.2214Z" fill="#474952"/>
<path d="M47.2323 37.1146H46.2927V29H47.2323V37.1146Z" fill="#474952"/>
<path d="M54.1278 34.2425C54.1278 35.1892 53.8857 35.9224 53.4017 36.442C52.9248 36.9616 52.2771 37.2214 51.4585 37.2214C50.9531 37.2214 50.5011 37.1075 50.1025 36.8797C49.711 36.6448 49.4013 36.3067 49.1736 35.8654C48.9458 35.417 48.8319 34.876 48.8319 34.2425C48.8319 33.2958 49.0703 32.5662 49.5473 32.0537C50.0242 31.5412 50.6719 31.2849 51.4905 31.2849C52.0101 31.2849 52.4657 31.4024 52.8572 31.6373C53.2558 31.865 53.5654 32.1996 53.7861 32.6409C54.0139 33.0751 54.1278 33.609 54.1278 34.2425ZM49.8035 34.2425C49.8035 34.9187 49.9352 35.4561 50.1986 35.8547C50.4691 36.2462 50.8961 36.442 51.4798 36.442C52.0564 36.442 52.4799 36.2462 52.7504 35.8547C53.0209 35.4561 53.1561 34.9187 53.1561 34.2425C53.1561 33.5663 53.0209 33.036 52.7504 32.6516C52.4799 32.2672 52.0528 32.075 51.4691 32.075C50.8855 32.075 50.4619 32.2672 50.1986 32.6516C49.9352 33.036 49.8035 33.5663 49.8035 34.2425Z" fill="#474952"/>
<path d="M60.507 31.3917V37.1146H59.7383L59.5995 36.3566H59.5568C59.3717 36.6555 59.1154 36.8762 58.788 37.0185C58.4606 37.1538 58.1118 37.2214 57.7416 37.2214C57.0512 37.2214 56.5316 37.0577 56.1828 36.7303C55.834 36.3957 55.6596 35.8654 55.6596 35.1394V31.3917H56.6099V35.0753C56.6099 35.9864 57.0334 36.442 57.8804 36.442C58.514 36.442 58.9517 36.264 59.1937 35.9081C59.4429 35.5522 59.5674 35.0397 59.5674 34.3706V31.3917H60.507Z" fill="#474952"/>
<path d="M64.4593 37.2214C63.7475 37.2214 63.1781 36.9758 62.751 36.4847C62.3239 35.9864 62.1103 35.2461 62.1103 34.2638C62.1103 33.2815 62.3239 32.5413 62.751 32.043C63.1852 31.5376 63.7582 31.2849 64.47 31.2849C64.9113 31.2849 65.2708 31.3668 65.5484 31.5305C65.8331 31.6942 66.0645 31.8935 66.2424 32.1284H66.3065C66.2994 32.0359 66.2851 31.9006 66.2638 31.7227C66.2495 31.5376 66.2424 31.3917 66.2424 31.2849V29H67.182V37.1146H66.4239L66.2851 36.3459H66.2424C66.0716 36.5879 65.8438 36.7943 65.5591 36.9652C65.2743 37.136 64.9078 37.2214 64.4593 37.2214ZM64.6088 36.442C65.2138 36.442 65.6374 36.2783 65.8794 35.9508C66.1285 35.6163 66.2531 35.1144 66.2531 34.4453V34.2745C66.2531 33.5627 66.1356 33.0182 65.9007 32.6409C65.6658 32.2565 65.2316 32.0643 64.5981 32.0643C64.0927 32.0643 63.7119 32.2672 63.4557 32.6729C63.2065 33.0716 63.082 33.609 63.082 34.2852C63.082 34.9685 63.2065 35.4988 63.4557 35.8761C63.7119 36.2533 64.0963 36.442 64.6088 36.442Z" fill="#474952"/>
<path d="M77.0772 37.1146L74.5681 30.4307H74.5254C74.5467 30.6514 74.5645 30.9504 74.5788 31.3276C74.593 31.6978 74.6001 32.0857 74.6001 32.4914V37.1146H73.7139V29.4911H75.134L77.4829 35.7373H77.5256L79.9173 29.4911H81.3267V37.1146H80.3764V32.4274C80.3764 32.0572 80.3836 31.6906 80.3978 31.3276C80.4192 30.9646 80.4369 30.6692 80.4512 30.4414H80.4085L77.8673 37.1146H77.0772Z" fill="#474952"/>
<path d="M85.5466 31.2956C86.2442 31.2956 86.7602 31.4486 87.0948 31.7547C87.4293 32.0608 87.5966 32.5484 87.5966 33.2175V37.1146H86.9133L86.7318 36.3032H86.6891C86.4399 36.6164 86.1766 36.8477 85.899 36.9972C85.6285 37.1467 85.2512 37.2214 84.7672 37.2214C84.2476 37.2214 83.8169 37.0862 83.4752 36.8157C83.1336 36.5381 82.9627 36.1074 82.9627 35.5237C82.9627 34.9543 83.187 34.5165 83.6354 34.2104C84.0838 33.8973 84.7743 33.7264 85.7068 33.6979L86.6784 33.6659V33.3242C86.6784 32.8473 86.5752 32.5163 86.3687 32.3313C86.1623 32.1462 85.8705 32.0537 85.4932 32.0537C85.1943 32.0537 84.9095 32.0999 84.639 32.1925C84.3686 32.2779 84.1159 32.3775 83.881 32.4914L83.5927 31.7867C83.8418 31.6515 84.1372 31.5376 84.4789 31.4451C84.8206 31.3454 85.1765 31.2956 85.5466 31.2956ZM85.8242 34.3493C85.1124 34.3777 84.6177 34.4916 84.3401 34.6909C84.0696 34.8902 83.9344 35.1714 83.9344 35.5344C83.9344 35.8547 84.0305 36.0896 84.2226 36.2391C84.4219 36.3886 84.6746 36.4633 84.9807 36.4633C85.4648 36.4633 85.8669 36.3316 86.1872 36.0683C86.5075 35.7978 86.6677 35.3849 86.6677 34.8297V34.3172L85.8242 34.3493Z" fill="#474952"/>
<path d="M92.2257 31.2849C92.909 31.2849 93.4251 31.4522 93.7738 31.7867C94.1226 32.1142 94.297 32.648 94.297 33.3883V37.1146H93.3681V33.4524C93.3681 32.5341 92.941 32.075 92.0869 32.075C91.4533 32.075 91.0156 32.253 90.7736 32.6089C90.5316 32.9648 90.4105 33.4773 90.4105 34.1464V37.1146H89.471V31.3917H90.229L90.3678 32.1711H90.4212C90.6063 31.8722 90.8625 31.6515 91.19 31.5091C91.5174 31.3597 91.8626 31.2849 92.2257 31.2849Z" fill="#474952"/>
<path d="M98.3454 31.2956C99.043 31.2956 99.5591 31.4486 99.8936 31.7547C100.228 32.0608 100.395 32.5484 100.395 33.2175V37.1146H99.7121L99.5306 36.3032H99.4879C99.2387 36.6164 98.9754 36.8477 98.6978 36.9972C98.4273 37.1467 98.05 37.2214 97.566 37.2214C97.0464 37.2214 96.6157 37.0862 96.2741 36.8157C95.9324 36.5381 95.7615 36.1074 95.7615 35.5237C95.7615 34.9543 95.9858 34.5165 96.4342 34.2104C96.8827 33.8973 97.5731 33.7264 98.5056 33.6979L99.4772 33.6659V33.3242C99.4772 32.8473 99.374 32.5163 99.1676 32.3313C98.9611 32.1462 98.6693 32.0537 98.292 32.0537C97.9931 32.0537 97.7084 32.0999 97.4379 32.1925C97.1674 32.2779 96.9147 32.3775 96.6798 32.4914L96.3915 31.7867C96.6406 31.6515 96.936 31.5376 97.2777 31.4451C97.6194 31.3454 97.9753 31.2956 98.3454 31.2956ZM98.623 34.3493C97.9112 34.3777 97.4165 34.4916 97.1389 34.6909C96.8684 34.8902 96.7332 35.1714 96.7332 35.5344C96.7332 35.8547 96.8293 36.0896 97.0215 36.2391C97.2208 36.3886 97.4735 36.4633 97.7795 36.4633C98.2636 36.4633 98.6657 36.3316 98.9861 36.0683C99.3064 35.7978 99.4665 35.3849 99.4665 34.8297V34.3172L98.623 34.3493Z" fill="#474952"/>
<path d="M104.298 31.2849C104.676 31.2849 105.014 31.3561 105.313 31.4985C105.619 31.6408 105.879 31.8579 106.092 32.1498H106.146L106.274 31.3917H107.021V37.2107C107.021 38.0293 106.811 38.645 106.391 39.0579C105.978 39.4707 105.334 39.6772 104.459 39.6772C103.619 39.6772 102.932 39.5561 102.398 39.3141V38.4493C102.96 38.7482 103.665 38.8977 104.512 38.8977C105.003 38.8977 105.388 38.7518 105.665 38.46C105.95 38.1752 106.092 37.7837 106.092 37.2855V37.0612C106.092 36.9758 106.096 36.8548 106.103 36.6982C106.11 36.5345 106.117 36.4206 106.124 36.3566H106.082C105.697 36.9331 105.106 37.2214 104.309 37.2214C103.569 37.2214 102.989 36.9616 102.569 36.442C102.156 35.9224 101.949 35.1963 101.949 34.2638C101.949 33.3527 102.156 32.6302 102.569 32.0964C102.989 31.5554 103.565 31.2849 104.298 31.2849ZM104.427 32.075C103.95 32.075 103.58 32.2672 103.316 32.6516C103.053 33.0288 102.921 33.5698 102.921 34.2745C102.921 34.9792 103.049 35.5202 103.305 35.8974C103.569 36.2676 103.95 36.4527 104.448 36.4527C105.024 36.4527 105.444 36.2996 105.708 35.9935C105.971 35.6803 106.103 35.1785 106.103 34.4881V34.2638C106.103 33.4808 105.968 32.9221 105.697 32.5875C105.427 32.2459 105.003 32.075 104.427 32.075Z" fill="#474952"/>
<path d="M111.156 31.2849C111.647 31.2849 112.067 31.3917 112.416 31.6052C112.771 31.8188 113.042 32.1213 113.227 32.5128C113.419 32.8972 113.515 33.3492 113.515 33.8688V34.4347H109.597C109.611 35.0824 109.775 35.5771 110.088 35.9188C110.408 36.2533 110.853 36.4206 111.423 36.4206C111.786 36.4206 112.106 36.3886 112.384 36.3245C112.668 36.2533 112.96 36.1537 113.259 36.0256V36.8477C112.967 36.9758 112.679 37.0684 112.394 37.1253C112.11 37.1894 111.771 37.2214 111.38 37.2214C110.839 37.2214 110.358 37.1111 109.938 36.8904C109.526 36.6698 109.202 36.3423 108.967 35.9081C108.739 35.4668 108.625 34.9294 108.625 34.2959C108.625 33.6695 108.728 33.1321 108.935 32.6836C109.148 32.2352 109.444 31.8899 109.821 31.6479C110.205 31.4059 110.65 31.2849 111.156 31.2849ZM111.145 32.0537C110.697 32.0537 110.341 32.1996 110.077 32.4914C109.821 32.7762 109.668 33.1748 109.618 33.6873H112.533C112.526 33.2032 112.412 32.8117 112.191 32.5128C111.971 32.2067 111.622 32.0537 111.145 32.0537Z" fill="#474952"/>
<path d="M117.108 37.2214C116.396 37.2214 115.826 36.9758 115.399 36.4847C114.972 35.9864 114.759 35.2461 114.759 34.2638C114.759 33.2815 114.972 32.5413 115.399 32.043C115.834 31.5376 116.407 31.2849 117.118 31.2849C117.56 31.2849 117.919 31.3668 118.197 31.5305C118.481 31.6942 118.713 31.8935 118.891 32.1284H118.955C118.948 32.0359 118.933 31.9006 118.912 31.7227C118.898 31.5376 118.891 31.3917 118.891 31.2849V29H119.83V37.1146H119.072L118.933 36.3459H118.891C118.72 36.5879 118.492 36.7943 118.207 36.9652C117.923 37.136 117.556 37.2214 117.108 37.2214ZM117.257 36.442C117.862 36.442 118.286 36.2783 118.528 35.9508C118.777 35.6163 118.901 35.1144 118.901 34.4453V34.2745C118.901 33.5627 118.784 33.0182 118.549 32.6409C118.314 32.2565 117.88 32.0643 117.246 32.0643C116.741 32.0643 116.36 32.2672 116.104 32.6729C115.855 33.0716 115.73 33.609 115.73 34.2852C115.73 34.9685 115.855 35.4988 116.104 35.8761C116.36 36.2533 116.745 36.442 117.257 36.442Z" fill="#474952"/>
<path d="M130.687 35.0753C130.687 35.7515 130.441 36.2783 129.95 36.6555C129.459 37.0328 128.797 37.2214 127.964 37.2214C127.537 37.2214 127.142 37.1894 126.779 37.1253C126.416 37.0612 126.113 36.9723 125.871 36.8584V35.9401C126.127 36.054 126.444 36.1573 126.821 36.2498C127.206 36.3423 127.601 36.3886 128.007 36.3886C128.576 36.3886 129.003 36.2783 129.288 36.0576C129.58 35.8369 129.726 35.538 129.726 35.1607C129.726 34.9116 129.672 34.7016 129.565 34.5308C129.459 34.3599 129.274 34.2033 129.01 34.061C128.754 33.9115 128.394 33.7549 127.932 33.5912C127.284 33.3563 126.793 33.068 126.458 32.7263C126.131 32.3847 125.967 31.9184 125.967 31.3276C125.967 30.9219 126.07 30.5767 126.277 30.2919C126.483 30.0001 126.768 29.7759 127.131 29.6193C127.501 29.4627 127.925 29.3844 128.402 29.3844C128.822 29.3844 129.206 29.4235 129.555 29.5018C129.904 29.5801 130.22 29.6833 130.505 29.8115L130.206 30.6336C129.943 30.5197 129.654 30.4236 129.341 30.3453C129.035 30.267 128.715 30.2279 128.38 30.2279C127.903 30.2279 127.544 30.3311 127.302 30.5375C127.06 30.7368 126.939 31.0037 126.939 31.3383C126.939 31.5945 126.992 31.8081 127.099 31.9789C127.206 32.1498 127.38 32.3028 127.622 32.438C127.864 32.5733 128.192 32.7192 128.604 32.8758C129.053 33.0395 129.43 33.2175 129.736 33.4097C130.049 33.5947 130.284 33.819 130.441 34.0823C130.605 34.3457 130.687 34.6767 130.687 35.0753Z" fill="#474952"/>
<path d="M134.411 31.2849C134.902 31.2849 135.322 31.3917 135.671 31.6052C136.027 31.8188 136.297 32.1213 136.482 32.5128C136.675 32.8972 136.771 33.3492 136.771 33.8688V34.4347H132.852C132.866 35.0824 133.03 35.5771 133.343 35.9188C133.664 36.2533 134.108 36.4206 134.678 36.4206C135.041 36.4206 135.361 36.3886 135.639 36.3245C135.924 36.2533 136.215 36.1537 136.514 36.0256V36.8477C136.223 36.9758 135.934 37.0684 135.65 37.1253C135.365 37.1894 135.027 37.2214 134.635 37.2214C134.094 37.2214 133.614 37.1111 133.194 36.8904C132.781 36.6698 132.457 36.3423 132.222 35.9081C131.994 35.4668 131.881 34.9294 131.881 34.2959C131.881 33.6695 131.984 33.1321 132.19 32.6836C132.404 32.2352 132.699 31.8899 133.076 31.6479C133.461 31.4059 133.906 31.2849 134.411 31.2849ZM134.4 32.0537C133.952 32.0537 133.596 32.1996 133.333 32.4914C133.076 32.7762 132.923 33.1748 132.874 33.6873H135.788C135.781 33.2032 135.667 32.8117 135.447 32.5128C135.226 32.2067 134.877 32.0537 134.4 32.0537Z" fill="#474952"/>
<path d="M141.004 31.2849C141.11 31.2849 141.224 31.292 141.345 31.3063C141.473 31.3134 141.584 31.3276 141.676 31.349L141.559 32.2138C141.466 32.1925 141.363 32.1747 141.249 32.1604C141.142 32.1462 141.039 32.1391 140.94 32.1391C140.648 32.1391 140.374 32.2209 140.117 32.3847C139.861 32.5413 139.655 32.7655 139.498 33.0573C139.349 33.342 139.274 33.6766 139.274 34.061V37.1146H138.334V31.3917H139.103L139.21 32.438H139.253C139.438 32.1248 139.676 31.8544 139.968 31.6266C140.26 31.3988 140.605 31.2849 141.004 31.2849Z" fill="#474952"/>
<path d="M144.112 37.1146L141.944 31.3917H142.948L144.165 34.7657C144.222 34.9223 144.282 35.0967 144.347 35.2888C144.411 35.481 144.468 35.6661 144.517 35.8441C144.567 36.0149 144.603 36.1608 144.624 36.2818H144.667C144.695 36.1608 144.734 36.0113 144.784 35.8334C144.841 35.6554 144.902 35.4704 144.966 35.2782C145.037 35.086 145.097 34.9151 145.147 34.7657L146.364 31.3917H147.368L145.19 37.1146H144.112Z" fill="#474952"/>
<path d="M150.676 37.2214C150.171 37.2214 149.719 37.1182 149.32 36.9118C148.929 36.7053 148.619 36.385 148.391 35.9508C148.17 35.5166 148.06 34.9614 148.06 34.2852C148.06 33.5805 148.178 33.0075 148.413 32.5662C148.647 32.1248 148.964 31.801 149.363 31.5945C149.769 31.3881 150.228 31.2849 150.74 31.2849C151.032 31.2849 151.313 31.3169 151.584 31.381C151.854 31.4379 152.075 31.5091 152.246 31.5945L151.957 32.374C151.786 32.3099 151.587 32.2494 151.359 32.1925C151.132 32.1355 150.918 32.1071 150.719 32.1071C149.594 32.1071 149.032 32.8295 149.032 34.2745C149.032 34.965 149.167 35.4953 149.438 35.8654C149.715 36.2284 150.124 36.4099 150.665 36.4099C150.979 36.4099 151.253 36.3779 151.488 36.3138C151.73 36.2498 151.95 36.1715 152.15 36.079V36.9118C151.957 37.0114 151.744 37.0862 151.509 37.136C151.281 37.1929 151.004 37.2214 150.676 37.2214Z" fill="#474952"/>
<path d="M155.827 31.2849C156.319 31.2849 156.739 31.3917 157.087 31.6052C157.443 31.8188 157.714 32.1213 157.899 32.5128C158.091 32.8972 158.187 33.3492 158.187 33.8688V34.4347H154.269C154.283 35.0824 154.447 35.5771 154.76 35.9188C155.08 36.2533 155.525 36.4206 156.094 36.4206C156.457 36.4206 156.778 36.3886 157.055 36.3245C157.34 36.2533 157.632 36.1537 157.931 36.0256V36.8477C157.639 36.9758 157.351 37.0684 157.066 37.1253C156.781 37.1894 156.443 37.2214 156.052 37.2214C155.511 37.2214 155.03 37.1111 154.61 36.8904C154.197 36.6698 153.874 36.3423 153.639 35.9081C153.411 35.4668 153.297 34.9294 153.297 34.2959C153.297 33.6695 153.4 33.1321 153.607 32.6836C153.82 32.2352 154.116 31.8899 154.493 31.6479C154.877 31.4059 155.322 31.2849 155.827 31.2849ZM155.817 32.0537C155.368 32.0537 155.012 32.1996 154.749 32.4914C154.493 32.7762 154.34 33.1748 154.29 33.6873H157.205C157.198 33.2032 157.084 32.8117 156.863 32.5128C156.642 32.2067 156.294 32.0537 155.817 32.0537Z" fill="#474952"/>
<path d="M43.4656 5.28202C42.6988 5.03878 41.795 4.93066 40.7817 4.93066H35.8246H35.5781L35.5233 5.17391L31.1687 21.0117H34.0992L35.5507 15.7144H38.7276C39.8779 15.7144 40.9734 15.5793 41.9319 15.3361C42.9179 15.0658 43.7669 14.6874 44.479 14.1739C45.2184 13.6604 45.7936 13.0117 46.177 12.255C46.5604 11.5253 46.7795 10.6334 46.7795 9.66039C46.7795 8.3631 46.3687 7.30905 45.5197 6.47121C44.9719 5.93067 44.2599 5.52526 43.4656 5.28202ZM42.6988 12.2009C41.8224 12.7955 40.5352 13.1199 38.8372 13.1199H36.2628L37.7691 7.60634H40.7269C41.9593 7.60634 42.8357 7.87661 43.3561 8.39013C43.7121 8.74148 43.9038 9.20093 43.9038 9.79553C43.9038 10.8496 43.5204 11.6334 42.6988 12.2009Z" fill="#222532"/>
<path d="M24.2395 4.93066C23.3905 4.93066 22.5963 5.03878 21.8568 5.28202C21.1447 5.52526 20.4874 5.84958 19.9671 6.25499C19.4193 6.68742 18.9811 7.20094 18.6799 7.79553C18.3786 8.39013 18.2143 9.03878 18.2143 9.71445C18.2143 10.255 18.3238 10.7685 18.5155 11.2009C18.7073 11.6334 19.0085 12.0388 19.4193 12.3901C19.8027 12.7144 20.2409 13.0388 20.7887 13.309C21.3091 13.5793 21.939 13.8496 22.6237 14.1199C23.0619 14.282 23.3631 14.4442 23.6644 14.6063C23.7465 14.6604 23.8287 14.6874 23.9109 14.7145C24.2669 14.9036 24.5408 15.0658 24.7325 15.255C24.8968 15.4172 25.0337 15.5793 25.1159 15.7415C25.1981 15.9036 25.2255 16.0928 25.2255 16.282C25.2255 16.6063 25.1707 16.8766 25.0337 17.1199C24.8694 17.3901 24.6777 17.6063 24.4038 17.7955C24.13 17.9847 23.6918 18.2009 23.3905 18.282C22.788 18.4442 21.9116 18.4442 21.2817 18.4442C21.1721 18.4442 15.4482 18.4171 15.4482 18.4171L14.7361 20.9577H22.0485C22.9249 20.9577 23.7191 20.8496 24.4312 20.6334C25.1433 20.4172 25.8006 20.0658 26.3757 19.6334C26.9235 19.2009 27.3891 18.6604 27.7177 18.0658C28.0464 17.4442 28.2107 16.7955 28.2107 16.0658C28.2107 15.5253 28.1011 15.0117 27.9094 14.5793C27.7177 14.1469 27.4438 13.7415 27.0604 13.3901C26.7044 13.0388 26.2662 12.7415 25.7458 12.4442C25.2528 12.1739 24.6503 11.9036 24.0204 11.6604C23.6096 11.4982 23.2809 11.3361 22.9523 11.2009C22.8428 11.1469 22.7606 11.0928 22.651 11.0658C22.2676 10.8766 21.9664 10.7145 21.7199 10.5253C21.5282 10.3631 21.3638 10.2009 21.2817 10.0388C21.1995 9.87661 21.1721 9.68742 21.1721 9.49823C21.1721 9.25499 21.2269 9.01175 21.3638 8.79553C21.5008 8.55229 21.6651 8.33607 21.9116 8.14688C22.1581 7.95769 22.4867 7.79553 22.8427 7.6604C23.2262 7.52526 23.6918 7.4712 24.1573 7.4712H30.2373L30.9494 4.93066H24.2395V4.93066Z" fill="#222532"/>
<path d="M77.755 16.282C76.7143 17.6604 75.071 18.4982 73.373 18.4982C71.9489 18.4982 70.7986 18.0928 70.0591 17.309C69.347 16.5523 68.991 15.4712 69.0732 14.1739C69.2649 10.309 71.8941 7.52526 75.3175 7.52526C77.1251 7.52526 78.7135 8.47121 79.4256 9.98472L79.5899 10.3361L81.7809 9.03877L82.0274 8.87661L81.9179 8.60634C80.8771 6.33607 78.5492 4.95769 75.6462 4.93066H75.564C70.4152 4.93066 66.4714 8.82256 66.1975 14.1469C66.088 16.1199 66.6631 17.7955 67.8681 19.0388C69.1279 20.3631 70.9903 21.0658 73.1813 21.0658C75.4544 21.0658 77.618 20.1469 79.097 18.5793L77.755 16.282Z" fill="#222532"/>
<path d="M94.4335 16.282C93.3928 17.6874 91.7221 18.4982 89.9967 18.4982C89.9694 18.4982 90.0241 18.4982 89.9967 18.4982C88.6274 18.4712 87.4771 18.0658 86.765 17.309C86.0803 16.5793 85.7243 15.5253 85.7791 14.2009L97.3092 14.1469L97.3913 13.9307C97.5556 13.4982 97.8569 12.6874 98.0212 11.7955C98.3499 9.79553 97.9665 8.09283 96.871 6.82256C95.8302 5.60634 94.2144 4.93066 92.4068 4.93066C87.3402 4.93066 83.1773 8.95769 82.876 14.0928C82.7665 16.0117 83.3142 17.6874 84.4645 18.9036C85.6969 20.228 87.614 20.9577 89.8598 21.0117C89.942 21.0117 89.7776 21.0117 89.8598 21.0117C91.6126 21.0117 94.1322 20.309 95.8028 18.5523L94.4335 16.282ZM95.1182 11.8226L86.2173 11.7955C87.0937 9.30904 89.1203 7.71445 91.6947 7.49823C91.8317 7.49823 91.9686 7.4712 92.1056 7.4712C93.2011 7.4712 94.1048 7.84959 94.6526 8.52526C95.2551 9.30905 95.4194 10.4442 95.1182 11.8226Z" fill="#222532"/>
<path d="M61.8971 6.22828C60.829 5.36342 59.3227 4.95801 57.2961 4.95801C56.7757 4.95801 55.7624 4.95801 54.7764 4.95801C53.8726 4.95801 52.5033 4.95801 52.1198 4.95801H51.6816L53.2427 7.57963H56.94C58.2272 7.57963 59.2132 7.82287 59.8157 8.28233C60.3908 8.74179 60.6921 9.41747 60.6921 10.2823C60.6921 10.4715 60.6647 10.6877 60.6373 10.931C60.6099 11.1742 60.5552 11.3904 60.5004 11.5796V11.6067C59.8431 11.4175 59.1036 11.2823 58.3368 11.1202C57.4056 10.958 56.4197 10.8769 55.3789 10.8769C54.3656 10.8769 53.4344 11.0121 52.5854 11.2553C51.7364 11.5256 50.9696 11.904 50.3397 12.3634C49.7097 12.8499 49.1894 13.4715 48.8333 14.1742C48.4773 14.8769 48.313 15.6877 48.313 16.5526C48.313 17.2823 48.4499 17.931 48.7512 18.4715C49.0251 19.0121 49.4085 19.4985 49.9015 19.8499C50.367 20.2283 50.9148 20.4985 51.5173 20.6877C52.1198 20.8769 52.7771 20.985 53.4344 20.985C54.4478 20.985 55.4063 20.7958 56.2553 20.4445C56.7483 20.2553 57.9807 19.4985 58.7202 19.0121L59.7061 20.6607H60.8564L63.2391 12.0121C63.3213 11.7418 63.3761 11.4445 63.4034 11.1742C63.4034 11.0931 63.4308 11.0121 63.4308 10.931C63.4856 10.5796 63.513 10.2013 63.513 9.87693C63.5678 8.33639 62.9926 7.09315 61.8971 6.22828ZM59.6788 14.6607C59.6514 14.7688 58.8298 17.6337 54.8312 18.4715C54.8312 18.4715 54.393 18.5796 53.7631 18.5796C53.2975 18.5796 52.8867 18.5256 52.5033 18.4175C52.202 18.3364 51.9829 18.2012 51.7912 18.0661C51.2982 17.6607 51.0517 17.0931 51.0517 16.3904C51.0517 15.958 51.1613 15.4985 51.3804 15.0931C51.5721 14.7148 52.0377 14.3094 52.3937 14.0661C52.7224 13.8229 53.1332 13.6067 53.7083 13.4175C54.2287 13.2553 54.8038 13.1742 55.4611 13.1742C56.3649 13.1742 57.2413 13.2283 58.0629 13.3634C58.7476 13.4715 59.3501 13.5796 59.9252 13.7418L59.6788 14.6607Z" fill="#222532"/>
<path d="M152.112 7.95923L151.317 10.8781H159.917L158.904 14.5268H150.304L149.428 17.689H159.123L158.082 21.4727H143.539L148.277 4.22949H161.725L160.684 7.98625H152.112V7.95923Z" fill="#222532"/>
<path d="M144.059 4.2002L139.321 21.4434H135.295L129.653 11.984L127.052 21.4434H122.204L126.942 4.2002H130.995L136.61 13.6056L139.184 4.2002H144.059Z" fill="#222532"/>
<path d="M101.718 14.228C102.156 8.22799 106.949 3.84961 113.385 3.84961C118.78 3.84961 121.875 6.98475 121.574 11.4712C121.136 17.4712 116.343 21.8496 109.907 21.8496C104.511 21.8226 101.417 18.6874 101.718 14.228ZM116.507 11.7415C116.671 9.44421 115.302 7.87663 112.7 7.87663C109.304 7.87663 107.058 10.6334 106.812 13.9037C106.648 16.201 108.017 17.7685 110.619 17.7685C114.015 17.7685 116.261 15.0118 116.507 11.7415Z" fill="#222532"/>
</svg>
