<svg width="164" height="40" viewBox="0 0 164 40" fill="none" xmlns="http://www.w3.org/2000/svg">
<path d="M17.7492 37L15.6107 31.3034H15.5743C15.5925 31.4915 15.6077 31.7463 15.6198 32.0678C15.6319 32.3833 15.638 32.7139 15.638 33.0597V37H14.8827V30.5026H16.093L18.095 35.8261H18.1314L20.1698 30.5026H21.371V37H20.5611V33.0051C20.5611 32.6896 20.5672 32.3772 20.5793 32.0678C20.5975 31.7584 20.6127 31.5066 20.6248 31.3125H20.5884L18.4226 37H17.7492ZM27.1061 32.1224V37H26.4509L26.3326 36.3539H26.2962C26.1384 36.6087 25.92 36.7968 25.641 36.9181C25.3619 37.0334 25.0646 37.091 24.7492 37.091C24.1607 37.091 23.7178 36.9515 23.4206 36.6724C23.1233 36.3873 22.9747 35.9353 22.9747 35.3165V32.1224H23.7846V35.2619C23.7846 36.0384 24.1455 36.4267 24.8675 36.4267C25.4074 36.4267 25.7805 36.275 25.9868 35.9717C26.1991 35.6684 26.3053 35.2316 26.3053 34.6613V32.1224H27.1061ZM29.4554 37H28.6546V30.084H29.4554V37ZM32.6296 36.4358C32.7509 36.4358 32.8753 36.4267 33.0027 36.4085C33.1301 36.3842 33.2332 36.36 33.3121 36.3357V36.9454C33.2271 36.9879 33.1058 37.0212 32.9481 37.0455C32.7903 37.0758 32.6387 37.091 32.4931 37.091C32.2383 37.091 32.0017 37.0485 31.7833 36.9636C31.5709 36.8726 31.398 36.7179 31.2646 36.4995C31.1311 36.2811 31.0644 35.9747 31.0644 35.5804V32.7412H30.3727V32.359L31.0735 32.0405L31.392 31.0031H31.8652V32.1224H33.2757V32.7412H31.8652V35.5622C31.8652 35.8595 31.9349 36.0809 32.0745 36.2265C32.2201 36.366 32.4051 36.4358 32.6296 36.4358ZM34.6982 30.2933C34.8196 30.2933 34.9257 30.3358 35.0167 30.4207C35.1138 30.4996 35.1623 30.627 35.1623 30.8029C35.1623 30.9728 35.1138 31.1002 35.0167 31.1851C34.9257 31.27 34.8196 31.3125 34.6982 31.3125C34.5648 31.3125 34.4525 31.27 34.3615 31.1851C34.2705 31.1002 34.225 30.9728 34.225 30.8029C34.225 30.627 34.2705 30.4996 34.3615 30.4207C34.4525 30.3358 34.5648 30.2933 34.6982 30.2933ZM35.0895 32.1224V37H34.2887V32.1224H35.0895ZM38.5913 37.091C38.1606 37.091 37.7754 37.003 37.4356 36.8271C37.102 36.6512 36.8381 36.3782 36.6439 36.0081C36.4559 35.638 36.3618 35.1648 36.3618 34.5885C36.3618 33.9879 36.4619 33.4995 36.6621 33.1234C36.8623 32.7473 37.1323 32.4712 37.472 32.2953C37.8178 32.1194 38.2091 32.0314 38.6459 32.0314C38.8947 32.0314 39.1343 32.0587 39.3648 32.1133C39.5954 32.1618 39.7834 32.2225 39.929 32.2953L39.6833 32.9596C39.5377 32.905 39.3679 32.8534 39.1737 32.8049C38.9796 32.7564 38.7976 32.7321 38.6277 32.7321C37.6692 32.7321 37.1899 33.3479 37.1899 34.5794C37.1899 35.1679 37.3052 35.6198 37.5357 35.9353C37.7723 36.2447 38.1212 36.3994 38.5822 36.3994C38.8492 36.3994 39.0827 36.3721 39.2829 36.3175C39.4892 36.2629 39.6773 36.1962 39.8471 36.1173V36.8271C39.6833 36.912 39.5013 36.9757 39.3011 37.0182C39.107 37.0667 38.8704 37.091 38.5913 37.091ZM41.8079 37H41.0071V30.084H41.8079V37ZM47.5938 34.5521C47.5938 35.359 47.3875 35.9838 46.975 36.4267C46.5685 36.8696 46.0165 37.091 45.3188 37.091C44.8881 37.091 44.5028 36.9939 44.1631 36.7998C43.8294 36.5996 43.5655 36.3114 43.3714 35.9353C43.1773 35.5531 43.0802 35.092 43.0802 34.5521C43.0802 33.7452 43.2834 33.1234 43.6899 32.6866C44.0964 32.2498 44.6484 32.0314 45.3461 32.0314C45.789 32.0314 46.1772 32.1315 46.5109 32.3317C46.8506 32.5258 47.1145 32.811 47.3026 33.1871C47.4967 33.5572 47.5938 34.0122 47.5938 34.5521ZM43.9083 34.5521C43.9083 35.1284 44.0205 35.5865 44.245 35.9262C44.4755 36.2599 44.8395 36.4267 45.337 36.4267C45.8284 36.4267 46.1894 36.2599 46.4199 35.9262C46.6504 35.5865 46.7657 35.1284 46.7657 34.5521C46.7657 33.9758 46.6504 33.5238 46.4199 33.1962C46.1894 32.8686 45.8254 32.7048 45.3279 32.7048C44.8304 32.7048 44.4695 32.8686 44.245 33.1962C44.0205 33.5238 43.9083 33.9758 43.9083 34.5521ZM52.9398 32.1224V37H52.2846L52.1663 36.3539H52.1299C51.9721 36.6087 51.7537 36.7968 51.4747 36.9181C51.1956 37.0334 50.8983 37.091 50.5829 37.091C49.9944 37.091 49.5515 36.9515 49.2543 36.6724C48.957 36.3873 48.8084 35.9353 48.8084 35.3165V32.1224H49.6183V35.2619C49.6183 36.0384 49.9792 36.4267 50.7012 36.4267C51.2411 36.4267 51.6142 36.275 51.8205 35.9717C52.0328 35.6684 52.139 35.2316 52.139 34.6613V32.1224H52.9398ZM56.2172 37.091C55.6106 37.091 55.1252 36.8817 54.7612 36.4631C54.3972 36.0384 54.2152 35.4075 54.2152 34.5703C54.2152 33.7331 54.3972 33.1022 54.7612 32.6775C55.1313 32.2468 55.6197 32.0314 56.2263 32.0314C56.6025 32.0314 56.9088 32.1012 57.1454 32.2407C57.3881 32.3802 57.5853 32.5501 57.7369 32.7503H57.7915C57.7855 32.6714 57.7733 32.5562 57.7551 32.4045C57.743 32.2468 57.7369 32.1224 57.7369 32.0314V30.084H58.5377V37H57.8916L57.7733 36.3448H57.7369C57.5913 36.5511 57.3972 36.727 57.1545 36.8726C56.9119 37.0182 56.5994 37.091 56.2172 37.091ZM56.3446 36.4267C56.8603 36.4267 57.2213 36.2872 57.4275 36.0081C57.6399 35.723 57.746 35.2953 57.746 34.725V34.5794C57.746 33.9727 57.6459 33.5086 57.4457 33.1871C57.2455 32.8595 56.8755 32.6957 56.3355 32.6957C55.9048 32.6957 55.5802 32.8686 55.3618 33.2144C55.1495 33.5541 55.0433 34.0122 55.0433 34.5885C55.0433 35.1709 55.1495 35.6229 55.3618 35.9444C55.5802 36.2659 55.9078 36.4267 56.3446 36.4267ZM65.4264 37L63.2879 31.3034H63.2515C63.2697 31.4915 63.2849 31.7463 63.297 32.0678C63.3092 32.3833 63.3152 32.7139 63.3152 33.0597V37H62.5599V30.5026H63.7702L65.7722 35.8261H65.8086L67.847 30.5026H69.0482V37H68.2383V33.0051C68.2383 32.6896 68.2444 32.3772 68.2565 32.0678C68.2747 31.7584 68.2899 31.5066 68.302 31.3125H68.2656L66.0998 37H65.4264ZM72.5538 32.0405C73.1483 32.0405 73.5882 32.1709 73.8733 32.4318C74.1584 32.6927 74.301 33.1082 74.301 33.6785V37H73.7186L73.5639 36.3084H73.5275C73.3152 36.5753 73.0907 36.7725 72.8541 36.8999C72.6236 37.0273 72.302 37.091 71.8895 37.091C71.4466 37.091 71.0796 36.9757 70.7884 36.7452C70.4972 36.5086 70.3516 36.1416 70.3516 35.6441C70.3516 35.1588 70.5427 34.7857 70.9249 34.5248C71.3071 34.2579 71.8956 34.1123 72.6903 34.088L73.5184 34.0607V33.7695C73.5184 33.363 73.4304 33.0809 73.2545 32.9232C73.0786 32.7655 72.8298 32.6866 72.5083 32.6866C72.2535 32.6866 72.0108 32.726 71.7803 32.8049C71.5498 32.8777 71.3344 32.9626 71.1342 33.0597L70.8885 32.4591C71.1008 32.3438 71.3526 32.2468 71.6438 32.1679C71.935 32.083 72.2383 32.0405 72.5538 32.0405ZM72.7904 34.6431C72.1837 34.6674 71.7621 34.7644 71.5255 34.9343C71.295 35.1042 71.1797 35.3438 71.1797 35.6532C71.1797 35.9262 71.2616 36.1264 71.4254 36.2538C71.5953 36.3812 71.8106 36.4449 72.0715 36.4449C72.484 36.4449 72.8268 36.3327 73.0998 36.1082C73.3728 35.8777 73.5093 35.5258 73.5093 35.0526V34.6158L72.7904 34.6431ZM78.1553 32.0314C78.7377 32.0314 79.1775 32.174 79.4748 32.4591C79.7721 32.7382 79.9207 33.1932 79.9207 33.8241V37H79.129V33.8787C79.129 33.0961 78.765 32.7048 78.037 32.7048C77.4971 32.7048 77.124 32.8565 76.9177 33.1598C76.7114 33.4631 76.6083 33.8999 76.6083 34.4702V37H75.8075V32.1224H76.4536L76.5719 32.7867H76.6174C76.7751 32.5319 76.9935 32.3438 77.2726 32.2225C77.5517 32.0951 77.8459 32.0314 78.1553 32.0314ZM83.2801 32.0405C83.8746 32.0405 84.3144 32.1709 84.5996 32.4318C84.8847 32.6927 85.0273 33.1082 85.0273 33.6785V37H84.4449L84.2902 36.3084H84.2538C84.0414 36.5753 83.817 36.7725 83.5804 36.8999C83.3498 37.0273 83.0283 37.091 82.6158 37.091C82.1729 37.091 81.8059 36.9757 81.5147 36.7452C81.2235 36.5086 81.0779 36.1416 81.0779 35.6441C81.0779 35.1588 81.269 34.7857 81.6512 34.5248C82.0334 34.2579 82.6218 34.1123 83.4166 34.088L84.2447 34.0607V33.7695C84.2447 33.363 84.1567 33.0809 83.9808 32.9232C83.8048 32.7655 83.5561 32.6866 83.2346 32.6866C82.9798 32.6866 82.7371 32.726 82.5066 32.8049C82.276 32.8777 82.0607 32.9626 81.8605 33.0597L81.6148 32.4591C81.8271 32.3438 82.0789 32.2468 82.3701 32.1679C82.6613 32.083 82.9646 32.0405 83.2801 32.0405ZM83.5167 34.6431C82.91 34.6674 82.4884 34.7644 82.2518 34.9343C82.0212 35.1042 81.906 35.3438 81.906 35.6532C81.906 35.9262 81.9879 36.1264 82.1517 36.2538C82.3215 36.3812 82.5369 36.4449 82.7978 36.4449C83.2103 36.4449 83.5531 36.3327 83.8261 36.1082C84.0991 35.8777 84.2356 35.5258 84.2356 35.0526V34.6158L83.5167 34.6431ZM88.2628 32.0314C88.5843 32.0314 88.8725 32.0921 89.1273 32.2134C89.3881 32.3347 89.6096 32.5198 89.7916 32.7685H89.8371L89.9463 32.1224H90.5833V37.0819C90.5833 37.7796 90.4043 38.3043 90.0464 38.6562C89.6945 39.0081 89.1455 39.184 88.3993 39.184C87.6834 39.184 87.098 39.0809 86.643 38.8746V38.1375C87.1222 38.3923 87.7228 38.5197 88.4448 38.5197C88.8634 38.5197 89.191 38.3953 89.4276 38.1466C89.6702 37.9039 89.7916 37.5703 89.7916 37.1456V36.9545C89.7916 36.8817 89.7946 36.7786 89.8007 36.6451C89.8067 36.5056 89.8128 36.4085 89.8189 36.3539H89.7825C89.4549 36.8453 88.9513 37.091 88.2719 37.091C87.6409 37.091 87.1465 36.8696 86.7886 36.4267C86.4367 35.9838 86.2608 35.365 86.2608 34.5703C86.2608 33.7938 86.4367 33.178 86.7886 32.723C87.1465 32.2619 87.6379 32.0314 88.2628 32.0314ZM88.372 32.7048C87.9655 32.7048 87.65 32.8686 87.4256 33.1962C87.2011 33.5177 87.0889 33.9788 87.0889 34.5794C87.0889 35.18 87.1981 35.6411 87.4165 35.9626C87.6409 36.2781 87.9655 36.4358 88.3902 36.4358C88.8816 36.4358 89.2395 36.3054 89.464 36.0445C89.6884 35.7776 89.8007 35.3499 89.8007 34.7614V34.5703C89.8007 33.903 89.6854 33.4267 89.4549 33.1416C89.2243 32.8504 88.8634 32.7048 88.372 32.7048ZM94.0161 32.0314C94.4347 32.0314 94.7926 32.1224 95.0899 32.3044C95.3932 32.4864 95.6238 32.7442 95.7815 33.0779C95.9453 33.4055 96.0272 33.7907 96.0272 34.2336V34.7159H92.6875C92.6996 35.268 92.8392 35.6896 93.1061 35.9808C93.3791 36.2659 93.7583 36.4085 94.2436 36.4085C94.553 36.4085 94.826 36.3812 95.0626 36.3266C95.3053 36.2659 95.554 36.181 95.8088 36.0718V36.7725C95.5601 36.8817 95.3144 36.9606 95.0717 37.0091C94.829 37.0637 94.5409 37.091 94.2072 37.091C93.7461 37.091 93.3366 36.997 92.9787 36.8089C92.6268 36.6208 92.3508 36.3418 92.1506 35.9717C91.9565 35.5956 91.8594 35.1375 91.8594 34.5976C91.8594 34.0637 91.9474 33.6057 92.1233 33.2235C92.3053 32.8413 92.5571 32.5471 92.8786 32.3408C93.2062 32.1345 93.5854 32.0314 94.0161 32.0314ZM94.007 32.6866C93.6248 32.6866 93.3215 32.811 93.097 33.0597C92.8786 33.3024 92.7482 33.6421 92.7057 34.0789H95.19C95.1839 33.6664 95.0869 33.3327 94.8988 33.0779C94.7107 32.817 94.4135 32.6866 94.007 32.6866ZM102.62 32.0314C103.172 32.0314 103.584 32.174 103.857 32.4591C104.13 32.7382 104.267 33.1932 104.267 33.8241V37H103.475V33.8605C103.475 33.09 103.144 32.7048 102.483 32.7048C102.01 32.7048 101.67 32.8413 101.464 33.1143C101.264 33.3873 101.164 33.7847 101.164 34.3064V37H100.372V33.8605C100.372 33.09 100.038 32.7048 99.371 32.7048C98.8796 32.7048 98.5399 32.8565 98.3518 33.1598C98.1637 33.4631 98.0697 33.8999 98.0697 34.4702V37H97.2689V32.1224H97.915L98.0333 32.7867H98.0788C98.2305 32.5319 98.4337 32.3438 98.6885 32.2225C98.9494 32.0951 99.2254 32.0314 99.5166 32.0314C100.281 32.0314 100.778 32.3044 101.009 32.8504H101.055C101.218 32.5713 101.44 32.3651 101.719 32.2316C102.004 32.0981 102.304 32.0314 102.62 32.0314ZM107.657 32.0314C108.076 32.0314 108.434 32.1224 108.731 32.3044C109.034 32.4864 109.265 32.7442 109.423 33.0779C109.586 33.4055 109.668 33.7907 109.668 34.2336V34.7159H106.329C106.341 35.268 106.48 35.6896 106.747 35.9808C107.02 36.2659 107.399 36.4085 107.885 36.4085C108.194 36.4085 108.467 36.3812 108.704 36.3266C108.946 36.2659 109.195 36.181 109.45 36.0718V36.7725C109.201 36.8817 108.955 36.9606 108.713 37.0091C108.47 37.0637 108.182 37.091 107.848 37.091C107.387 37.091 106.978 36.997 106.62 36.8089C106.268 36.6208 105.992 36.3418 105.792 35.9717C105.598 35.5956 105.501 35.1375 105.501 34.5976C105.501 34.0637 105.588 33.6057 105.764 33.2235C105.946 32.8413 106.198 32.5471 106.52 32.3408C106.847 32.1345 107.226 32.0314 107.657 32.0314ZM107.648 32.6866C107.266 32.6866 106.963 32.811 106.738 33.0597C106.52 33.3024 106.389 33.6421 106.347 34.0789H108.831C108.825 33.6664 108.728 33.3327 108.54 33.0779C108.352 32.817 108.055 32.6866 107.648 32.6866ZM113.258 32.0314C113.84 32.0314 114.28 32.174 114.577 32.4591C114.875 32.7382 115.023 33.1932 115.023 33.8241V37H114.232V33.8787C114.232 33.0961 113.868 32.7048 113.14 32.7048C112.6 32.7048 112.226 32.8565 112.02 33.1598C111.814 33.4631 111.711 33.8999 111.711 34.4702V37H110.91V32.1224H111.556L111.674 32.7867H111.72C111.878 32.5319 112.096 32.3438 112.375 32.2225C112.654 32.0951 112.948 32.0314 113.258 32.0314ZM118.164 36.4358C118.286 36.4358 118.41 36.4267 118.537 36.4085C118.665 36.3842 118.768 36.36 118.847 36.3357V36.9454C118.762 36.9879 118.64 37.0212 118.483 37.0455C118.325 37.0758 118.173 37.091 118.028 37.091C117.773 37.091 117.536 37.0485 117.318 36.9636C117.106 36.8726 116.933 36.7179 116.799 36.4995C116.666 36.2811 116.599 35.9747 116.599 35.5804V32.7412H115.907V32.359L116.608 32.0405L116.927 31.0031H117.4V32.1224H118.81V32.7412H117.4V35.5622C117.4 35.8595 117.47 36.0809 117.609 36.2265C117.755 36.366 117.94 36.4358 118.164 36.4358ZM124.016 30.5026C124.866 30.5026 125.485 30.6694 125.873 31.0031C126.261 31.3368 126.455 31.8069 126.455 32.4136C126.455 32.7715 126.373 33.1082 126.209 33.4237C126.052 33.7331 125.782 33.9849 125.4 34.179C125.023 34.3731 124.511 34.4702 123.862 34.4702H123.115V37H122.296V30.5026H124.016ZM123.944 31.2033H123.115V33.7695H123.771C124.389 33.7695 124.851 33.6694 125.154 33.4692C125.457 33.269 125.609 32.9293 125.609 32.45C125.609 32.0314 125.475 31.719 125.208 31.5127C124.942 31.3064 124.52 31.2033 123.944 31.2033ZM128.498 37H127.697V30.084H128.498V37ZM131.89 32.0405C132.485 32.0405 132.925 32.1709 133.21 32.4318C133.495 32.6927 133.638 33.1082 133.638 33.6785V37H133.055L132.901 36.3084H132.864C132.652 36.5753 132.427 36.7725 132.191 36.8999C131.96 37.0273 131.639 37.091 131.226 37.091C130.783 37.091 130.416 36.9757 130.125 36.7452C129.834 36.5086 129.688 36.1416 129.688 35.6441C129.688 35.1588 129.879 34.7857 130.262 34.5248C130.644 34.2579 131.232 34.1123 132.027 34.088L132.855 34.0607V33.7695C132.855 33.363 132.767 33.0809 132.591 32.9232C132.415 32.7655 132.166 32.6866 131.845 32.6866C131.59 32.6866 131.347 32.726 131.117 32.8049C130.886 32.8777 130.671 32.9626 130.471 33.0597L130.225 32.4591C130.437 32.3438 130.689 32.2468 130.98 32.1679C131.272 32.083 131.575 32.0405 131.89 32.0405ZM132.127 34.6431C131.52 34.6674 131.099 34.7644 130.862 34.9343C130.632 35.1042 130.516 35.3438 130.516 35.6532C130.516 35.9262 130.598 36.1264 130.762 36.2538C130.932 36.3812 131.147 36.4449 131.408 36.4449C131.821 36.4449 132.163 36.3327 132.436 36.1082C132.709 35.8777 132.846 35.5258 132.846 35.0526V34.6158L132.127 34.6431ZM136.773 36.4358C136.894 36.4358 137.019 36.4267 137.146 36.4085C137.274 36.3842 137.377 36.36 137.456 36.3357V36.9454C137.371 36.9879 137.249 37.0212 137.092 37.0455C136.934 37.0758 136.782 37.091 136.637 37.091C136.382 37.091 136.145 37.0485 135.927 36.9636C135.714 36.8726 135.541 36.7179 135.408 36.4995C135.275 36.2811 135.208 35.9747 135.208 35.5804V32.7412H134.516V32.359L135.217 32.0405L135.535 31.0031H136.009V32.1224H137.419V32.7412H136.009V35.5622C136.009 35.8595 136.078 36.0809 136.218 36.2265C136.364 36.366 136.549 36.4358 136.773 36.4358ZM140.68 32.7412H139.451V37H138.651V32.7412H137.795V32.3681L138.651 32.0951V31.813C138.651 31.1821 138.79 30.7301 139.069 30.4571C139.348 30.178 139.737 30.0385 140.234 30.0385C140.428 30.0385 140.604 30.0567 140.762 30.0931C140.926 30.1234 141.065 30.1598 141.18 30.2023L140.971 30.8302C140.874 30.7999 140.762 30.7695 140.634 30.7392C140.507 30.7089 140.377 30.6937 140.243 30.6937C139.976 30.6937 139.776 30.7847 139.642 30.9667C139.515 31.1426 139.451 31.4217 139.451 31.8039V32.1224H140.68V32.7412ZM145.801 34.5521C145.801 35.359 145.595 35.9838 145.182 36.4267C144.776 36.8696 144.224 37.091 143.526 37.091C143.095 37.091 142.71 36.9939 142.37 36.7998C142.037 36.5996 141.773 36.3114 141.579 35.9353C141.384 35.5531 141.287 35.092 141.287 34.5521C141.287 33.7452 141.491 33.1234 141.897 32.6866C142.303 32.2498 142.856 32.0314 143.553 32.0314C143.996 32.0314 144.384 32.1315 144.718 32.3317C145.058 32.5258 145.322 32.811 145.51 33.1871C145.704 33.5572 145.801 34.0122 145.801 34.5521ZM142.115 34.5521C142.115 35.1284 142.228 35.5865 142.452 35.9262C142.683 36.2599 143.047 36.4267 143.544 36.4267C144.036 36.4267 144.396 36.2599 144.627 35.9262C144.858 35.5865 144.973 35.1284 144.973 34.5521C144.973 33.9758 144.858 33.5238 144.627 33.1962C144.396 32.8686 144.032 32.7048 143.535 32.7048C143.038 32.7048 142.677 32.8686 142.452 33.1962C142.228 33.5238 142.115 33.9758 142.115 34.5521ZM149.345 32.0314C149.436 32.0314 149.533 32.0375 149.636 32.0496C149.745 32.0557 149.84 32.0678 149.918 32.086L149.818 32.8231C149.739 32.8049 149.651 32.7897 149.554 32.7776C149.463 32.7655 149.375 32.7594 149.29 32.7594C149.042 32.7594 148.808 32.8292 148.59 32.9687C148.371 33.1022 148.195 33.2933 148.062 33.542C147.935 33.7847 147.871 34.0698 147.871 34.3974V37H147.07V32.1224H147.725L147.816 33.0142H147.853C148.01 32.7473 148.214 32.5167 148.462 32.3226C148.711 32.1285 149.005 32.0314 149.345 32.0314ZM156.18 32.0314C156.732 32.0314 157.145 32.174 157.418 32.4591C157.691 32.7382 157.827 33.1932 157.827 33.8241V37H157.035V33.8605C157.035 33.09 156.705 32.7048 156.043 32.7048C155.57 32.7048 155.231 32.8413 155.024 33.1143C154.824 33.3873 154.724 33.7847 154.724 34.3064V37H153.932V33.8605C153.932 33.09 153.599 32.7048 152.931 32.7048C152.44 32.7048 152.1 32.8565 151.912 33.1598C151.724 33.4631 151.63 33.8999 151.63 34.4702V37H150.829V32.1224H151.475L151.594 32.7867H151.639C151.791 32.5319 151.994 32.3438 152.249 32.2225C152.51 32.0951 152.786 32.0314 153.077 32.0314C153.841 32.0314 154.339 32.3044 154.569 32.8504H154.615C154.779 32.5713 155 32.3651 155.279 32.2316C155.564 32.0981 155.864 32.0314 156.18 32.0314Z" fill="#474952"/>
<path d="M43.4654 5.28251C42.6985 5.03927 41.7948 4.93115 40.7814 4.93115H35.8243H35.5778L35.523 5.17439L31.1685 21.0122H34.0989L35.5504 15.7149H38.7274C39.8776 15.7149 40.9731 15.5798 41.9317 15.3366C42.9176 15.0663 43.7667 14.6879 44.4787 14.1744C45.2182 13.6609 45.7933 13.0122 46.1767 12.2555C46.5602 11.5257 46.7793 10.6339 46.7793 9.66088C46.7793 8.36358 46.3685 7.30953 45.5195 6.4717C44.9717 5.93116 44.2596 5.52575 43.4654 5.28251ZM42.6985 12.2014C41.8221 12.796 40.5349 13.1203 38.8369 13.1203H36.2625L37.7688 7.60683H40.7267C41.9591 7.60683 42.8355 7.8771 43.3558 8.39062C43.7119 8.74197 43.9036 9.20142 43.9036 9.79602C43.9036 10.8501 43.5202 11.6339 42.6985 12.2014Z" fill="#222532"/>
<path d="M24.2393 4.93115C23.3903 4.93115 22.596 5.03927 21.8566 5.28251C21.1445 5.52575 20.4872 5.85007 19.9668 6.25547C19.4191 6.68791 18.9809 7.20142 18.6796 7.79602C18.3784 8.39061 18.214 9.03926 18.214 9.71494C18.214 10.2555 18.3236 10.769 18.5153 11.2014C18.707 11.6339 19.0083 12.0393 19.4191 12.3906C19.8025 12.7149 20.2407 13.0393 20.7884 13.3095C21.3088 13.5798 21.9387 13.8501 22.6234 14.1203C23.0616 14.2825 23.3629 14.4447 23.6641 14.6068C23.7463 14.6609 23.8285 14.6879 23.9106 14.7149C24.2667 14.9041 24.5405 15.0663 24.7322 15.2555C24.8966 15.4176 25.0335 15.5798 25.1157 15.742C25.1978 15.9041 25.2252 16.0933 25.2252 16.2825C25.2252 16.6068 25.1704 16.8771 25.0335 17.1203C24.8692 17.3906 24.6775 17.6068 24.4036 17.796C24.1297 17.9852 23.6915 18.2014 23.3903 18.2825C22.7877 18.4447 21.9113 18.4447 21.2814 18.4447C21.1719 18.4447 15.4479 18.4176 15.4479 18.4176L14.7358 20.9582H22.0483C22.9247 20.9582 23.7189 20.8501 24.431 20.6339C25.143 20.4176 25.8003 20.0663 26.3755 19.6339C26.9232 19.2014 27.3888 18.6609 27.7175 18.0663C28.0461 17.4447 28.2104 16.796 28.2104 16.0663C28.2104 15.5258 28.1009 15.0122 27.9092 14.5798C27.7175 14.1474 27.4436 13.742 27.0602 13.3906C26.7041 13.0393 26.2659 12.742 25.7456 12.4447C25.2526 12.1744 24.6501 11.9041 24.0202 11.6609C23.6094 11.4987 23.2807 11.3366 22.9521 11.2014C22.8425 11.1474 22.7603 11.0933 22.6508 11.0663C22.2674 10.8771 21.9661 10.7149 21.7196 10.5258C21.5279 10.3636 21.3636 10.2014 21.2814 10.0393C21.1993 9.8771 21.1719 9.68791 21.1719 9.49872C21.1719 9.25548 21.2266 9.01224 21.3636 8.79602C21.5005 8.55278 21.6648 8.33656 21.9113 8.14737C22.1578 7.95818 22.4865 7.79602 22.8425 7.66088C23.2259 7.52575 23.6915 7.47169 24.1571 7.47169H30.2371L30.9492 4.93115H24.2393Z" fill="#222532"/>
<path d="M77.7547 16.2825C76.714 17.6609 75.0708 18.4987 73.3728 18.4987C71.9486 18.4987 70.7983 18.0933 70.0589 17.3095C69.3468 16.5528 68.9908 15.4717 69.0729 14.1744C69.2646 10.3095 71.8938 7.52575 75.3173 7.52575C77.1248 7.52575 78.7133 8.4717 79.4254 9.98521L79.5897 10.3366L81.7807 9.03926L82.0272 8.8771L81.9176 8.60683C80.8769 6.33656 78.549 4.95818 75.6459 4.93115H75.5637C70.4149 4.93115 66.4711 8.82304 66.1973 14.1474C66.0877 16.1203 66.6628 17.796 67.8679 19.0393C69.1277 20.3636 70.9901 21.0663 73.181 21.0663C75.4542 21.0663 77.6178 20.1474 79.0967 18.5798L77.7547 16.2825Z" fill="#222532"/>
<path d="M94.4335 16.2825C93.3928 17.6879 91.7221 18.4987 89.9967 18.4987C89.9694 18.4987 90.0241 18.4987 89.9967 18.4987C88.6274 18.4717 87.4771 18.0663 86.765 17.3095C86.0803 16.5798 85.7243 15.5257 85.7791 14.2014L97.3092 14.1474L97.3913 13.9312C97.5556 13.4987 97.8569 12.6879 98.0212 11.796C98.3499 9.79601 97.9665 8.09331 96.871 6.82304C95.8302 5.60683 94.2144 4.93115 92.4068 4.93115C87.3402 4.93115 83.1773 8.95818 82.876 14.0933C82.7665 16.0122 83.3142 17.6879 84.4645 18.9041C85.6969 20.2284 87.614 20.9582 89.8598 21.0122C89.942 21.0122 89.7776 21.0122 89.8598 21.0122C91.6126 21.0122 94.1322 20.3095 95.8028 18.5528L94.4335 16.2825ZM95.1182 11.823L86.2173 11.796C87.0937 9.30953 89.1203 7.71494 91.6947 7.49872C91.8317 7.49872 91.9686 7.47169 92.1056 7.47169C93.2011 7.47169 94.1048 7.85008 94.6526 8.52575C95.2551 9.30953 95.4194 10.4447 95.1182 11.823Z" fill="#222532"/>
<path d="M61.8967 6.22926C60.8285 5.36439 59.3222 4.95898 57.2956 4.95898C56.7752 4.95898 55.7619 4.95898 54.7759 4.95898C53.8721 4.95898 52.5028 4.95898 52.1193 4.95898H51.6812L53.2422 7.58061H56.9395C58.2267 7.58061 59.2127 7.82385 59.8152 8.2833C60.3903 8.74276 60.6916 9.41845 60.6916 10.2833C60.6916 10.4725 60.6642 10.6887 60.6368 10.932C60.6094 11.1752 60.5547 11.3914 60.4999 11.5806V11.6076C59.8426 11.4184 59.1031 11.2833 58.3363 11.1211C57.4051 10.959 56.4192 10.8779 55.3785 10.8779C54.3651 10.8779 53.4339 11.013 52.5849 11.2563C51.7359 11.5265 50.9691 11.9049 50.3392 12.3644C49.7093 12.8509 49.1889 13.4725 48.8329 14.1752C48.4768 14.8779 48.3125 15.6887 48.3125 16.5536C48.3125 17.2833 48.4494 17.932 48.7507 18.4725C49.0246 19.013 49.408 19.4995 49.901 19.8509C50.3666 20.2293 50.9143 20.4995 51.5168 20.6887C52.1194 20.8779 52.7766 20.986 53.4339 20.986C54.4473 20.986 55.4058 20.7968 56.2548 20.4455C56.7478 20.2563 57.9803 19.4995 58.7197 19.013L59.7057 20.6617H60.8559L63.2386 12.013C63.3208 11.7428 63.3756 11.4455 63.403 11.1752C63.403 11.0941 63.4303 11.013 63.4303 10.932C63.4851 10.5806 63.5125 10.2022 63.5125 9.87791C63.5673 8.33737 62.9921 7.09412 61.8967 6.22926ZM59.6783 14.6617C59.6509 14.7698 58.8293 17.6347 54.8307 18.4725C54.8307 18.4725 54.3925 18.5806 53.7626 18.5806C53.297 18.5806 52.8862 18.5265 52.5028 18.4184C52.2015 18.3374 51.9824 18.2022 51.7907 18.0671C51.2977 17.6617 51.0512 17.0941 51.0512 16.3914C51.0512 15.959 51.1608 15.4995 51.3799 15.0941C51.5716 14.7157 52.0372 14.3103 52.3932 14.0671C52.7219 13.8239 53.1327 13.6076 53.7078 13.4184C54.2282 13.2563 54.8033 13.1752 55.4606 13.1752C56.3644 13.1752 57.2408 13.2293 58.0624 13.3644C58.7471 13.4725 59.3496 13.5806 59.9248 13.7428L59.6783 14.6617Z" fill="#222532"/>
<path d="M152.111 7.95971L151.317 10.8786H159.917L158.903 14.5273H150.304L149.427 17.6894H159.123L158.082 21.4732H143.539L148.277 4.22998H161.724L160.684 7.98674H152.111V7.95971Z" fill="#222532"/>
<path d="M144.059 4.2002L139.321 21.4434H135.295L129.653 11.984L127.051 21.4434H122.204L126.942 4.2002H130.995L136.609 13.6056L139.184 4.2002H144.059Z" fill="#222532"/>
<path d="M101.717 14.2285C102.156 8.22847 106.948 3.8501 113.384 3.8501C118.78 3.8501 121.875 6.98524 121.573 11.4717C121.135 17.4717 116.342 21.8501 109.906 21.8501C104.511 21.8231 101.416 18.6879 101.717 14.2285ZM116.507 11.742C116.671 9.4447 115.302 7.87712 112.7 7.87712C109.304 7.87712 107.058 10.6339 106.811 13.9042C106.647 16.2015 108.017 17.769 110.618 17.769C114.014 17.769 116.26 15.0123 116.507 11.742Z" fill="#222532"/>
</svg>
